<svg width="284" height="103" viewBox="0 0 284 103" fill="none" xmlns="http://www.w3.org/2000/svg">
<path d="M0.636108 24.2757V0.110352H13.7119V23.6964C13.7119 28.9929 14.8705 31.6412 19.5877 31.6412C24.2222 31.6412 25.3808 28.9929 25.3808 23.6137V0.110352H38.5393V24.1102C38.5393 36.4412 31.1739 41.9032 19.5877 41.9032C7.42227 41.9032 0.636108 35.9446 0.636108 24.2757Z" fill="white"/>
<path d="M45.7396 0.110352H62.6223C74.0429 0.110352 79.9187 4.66205 79.9187 13.4344V13.6827C79.9187 19.393 77.0222 22.6206 72.967 24.4412L82.4015 41.2411H68.6636L60.9671 27.1723H58.8982V41.2411H45.7396V0.110352ZM61.8775 18.7309C65.5188 18.7309 67.2567 17.2413 67.2567 14.262V14.0137C67.2567 11.0344 65.4361 9.87581 61.9602 9.87581H58.8154V18.7309H61.8775Z" fill="white"/>
<path d="M86.7876 0.110352H106.319C116.498 0.110352 120.387 4.7448 120.387 10.8689V11.1172C120.387 15.9172 117.822 18.8964 113.187 19.9723C118.07 20.7999 121.463 23.7792 121.463 29.5722V29.8205C121.463 37.1032 116.746 41.2411 106.153 41.2411H86.7048V0.110352H86.7876ZM103.587 16.1654C106.815 16.1654 108.139 15.0896 108.139 12.5241V12.2758C108.139 9.79305 106.815 8.63444 103.587 8.63444H99.6979V16.1654H103.587ZM103.753 32.6343C107.146 32.6343 108.636 31.0619 108.636 28.3309V28.0826C108.636 25.3516 107.146 23.8619 103.422 23.8619H99.5323V32.5515H103.753V32.6343Z" fill="white"/>
<path d="M143.477 10.6206L147.532 25.5171H139.339L143.477 10.6206ZM135.863 0.110352L122.87 41.1584H135.035L136.856 34.2894H149.932L151.835 41.1584H165.739L152.746 0.110352H135.863Z" fill="white"/>
<path d="M196.442 0.110352V21.8757L184.773 0.110352H170.042V41.1584H181.628V16.5792L195.449 41.1584H207.945V0.110352H196.442Z" fill="white"/>
<path d="M39.7803 44.3862V71.5309H5.51849V44.3862H0.966797V102.565H5.51849V75.3378H39.7803V102.565H44.332V44.3862H39.7803Z" fill="#6BCDB2"/>
<path d="M59.3115 44.3862V102.565H94.1527V98.8411H63.8632V74.5929H87.2838V70.8688H63.8632V48.1931H92.7458V44.3862H59.3115Z" fill="#6BCDB2"/>
<path d="M124.691 48.1931L136.525 81.1308H112.939L124.691 48.1931ZM121.877 44.3862L100.939 102.565H105.243L111.615 84.7722H137.849L144.304 102.565H148.856L127.918 44.3862H121.877Z" fill="#6BCDB2"/>
<path d="M158.952 44.3862V102.565H191.724V98.8411H163.504V44.3862H158.952Z" fill="#6BCDB2"/>
<path d="M190.152 44.3862V48.1931H208.193V102.565H212.662V48.1931H230.703V44.3862H190.152Z" fill="#6BCDB2"/>
<path d="M279.448 44.3862V71.5309H245.186V44.3862H240.635V102.565H245.186V75.3378H279.448V102.565H284V44.3862H279.448Z" fill="#6BCDB2"/>
</svg>
