<svg width="166" height="61" viewBox="0 0 166 61" fill="none" xmlns="http://www.w3.org/2000/svg">
<path d="M0.879395 14.7819V0.766602H8.46299V14.4459C8.46299 17.5177 9.13495 19.0536 11.8708 19.0536C14.5587 19.0536 15.2306 17.5177 15.2306 14.3979V0.766602H22.8622V14.6859C22.8622 21.8375 18.5904 25.0053 11.8708 25.0053C4.81518 25.0053 0.879395 21.5495 0.879395 14.7819Z" fill="white"/>
<path d="M27.0383 0.766602H36.8298C43.4535 0.766602 46.8613 3.40646 46.8613 8.49419V8.63818C46.8613 11.95 45.1814 13.8219 42.8295 14.8778L48.3012 24.6213H40.3336L35.8699 16.4618H34.6699V24.6213H27.0383V0.766602ZM36.3978 11.566C38.5097 11.566 39.5177 10.7021 39.5177 8.97416V8.83017C39.5177 7.10226 38.4617 6.4303 36.4458 6.4303H34.6219V11.566H36.3978Z" fill="white"/>
<path d="M50.8449 0.766602H62.1723C68.0759 0.766602 70.3318 3.45446 70.3318 7.00627V7.15026C70.3318 9.93411 68.8439 11.662 66.1561 12.286C68.9879 12.766 70.9558 14.4939 70.9558 17.8537V17.9977C70.9558 22.2215 68.2199 24.6213 62.0763 24.6213H50.7969V0.766602H50.8449ZM60.5883 10.0781C62.4602 10.0781 63.2282 9.45414 63.2282 7.96622V7.82223C63.2282 6.3823 62.4602 5.71034 60.5883 5.71034H58.3325V10.0781H60.5883V10.0781ZM60.6843 19.6296C62.6522 19.6296 63.5162 18.7176 63.5162 17.1337V16.9897C63.5162 15.4058 62.6522 14.5419 60.4924 14.5419H58.2365V19.5816H60.6843V19.6296Z" fill="white"/>
<path d="M83.7231 6.86228L86.075 15.5018H81.3232L83.7231 6.86228ZM79.3073 0.766602L71.7717 24.5733H78.8273L79.8833 20.5895H87.4669L88.5708 24.5733H96.6344L89.0988 0.766602H79.3073Z" fill="white"/>
<path d="M114.441 0.766602V13.3899L107.674 0.766602H99.1301V24.5733H105.85V10.3181L113.865 24.5733H121.113V0.766602H114.441Z" fill="white"/>
<path d="M23.5818 26.4453V42.1885H3.7109V26.4453H1.07104V60.1875H3.7109V44.3963H23.5818V60.1875H26.2217V26.4453H23.5818Z" fill="white"/>
<path d="M34.9094 26.4453V60.1875H55.1163V58.0276H37.5493V43.9644H51.1326V41.8045H37.5493V28.6532H54.3004V26.4453H34.9094Z" fill="white"/>
<path d="M72.8278 28.6532L79.6914 47.7562H66.0121L72.8278 28.6532ZM71.1958 26.4453L59.0525 60.1875H61.5484L65.2442 49.8681H80.4593L84.2031 60.1875H86.843L74.6997 26.4453H71.1958V26.4453Z" fill="white"/>
<path d="M92.6982 26.4453V60.1875H111.705V58.0276H95.3381V26.4453H92.6982Z" fill="white"/>
<path d="M110.793 26.4453V28.6532H121.257V60.1875H123.849V28.6532H134.312V26.4453H110.793Z" fill="white"/>
<path d="M162.583 26.4453V42.1885H142.712V26.4453H140.072V60.1875H142.712V44.3963H162.583V60.1875H165.222V26.4453H162.583Z" fill="white"/>
</svg>
