<svg width="78" height="78" viewBox="0 0 78 78" fill="none" xmlns="http://www.w3.org/2000/svg">
<g clip-path="url(#clip0)">
<path d="M53.1655 61.1258L32.576 40.5363V11.4217C32.576 9.58973 31.07 8.14355 29.2826 8.14355C29.1592 8.14355 29.0352 8.15048 28.91 8.16432C11.4584 10.1189 -1.82488 25.8606 0.205217 44.2449C1.87738 59.3867 14.355 71.5943 29.5265 72.9735C30.552 73.0667 31.57 73.1124 32.576 73.1124C40.2739 73.1124 47.347 70.4427 52.9222 65.9786C54.4329 64.769 54.5339 62.4944 53.1655 61.1258ZM32.576 69.8547C31.6645 69.8547 30.7375 69.8126 29.8213 69.7293C16.2739 68.4978 4.93403 57.3883 3.44286 43.8874C1.66279 27.769 13.2501 13.1959 29.2726 11.4018L29.2826 11.4012L29.3184 11.4217C29.3184 23.9843 29.3184 30.9909 29.3184 41.8858C30.8446 43.412 27.4827 40.0526 50.8857 63.4358C45.6414 67.6353 39.3099 69.8547 32.576 69.8547Z" fill="#4680C2"/>
<path d="M74.7215 43.7949H53.4712C50.569 43.7949 49.1155 47.3038 51.1676 49.3561L66.1935 64.3817C66.8365 65.0247 67.6767 65.3413 68.5139 65.3413C69.4688 65.3413 70.4194 64.9288 71.0673 64.1185C74.8036 59.4436 77.2795 53.7172 77.9797 47.454C78.1968 45.5107 76.6773 43.7949 74.7215 43.7949ZM68.497 62.0784L53.4712 47.0527H74.7215L74.7423 47.0924C74.129 52.5766 71.9784 57.7609 68.497 62.0784Z" fill="#4680C2"/>
<path d="M71.4627 33.6212C69.7787 18.5536 57.8168 6.59167 42.7489 4.90749C42.6248 4.89364 42.501 4.88672 42.3788 4.88672C40.593 4.88692 39.0898 6.33533 39.0898 8.16549V34.0229C39.0898 35.8219 40.5484 37.2803 42.3474 37.2803H68.2047C70.1605 37.2803 71.6801 35.5646 71.4627 33.6212ZM42.3458 8.16692C42.3487 8.16163 42.3658 8.14432 42.3788 8.14432C43.5562 8.27585 44.7051 8.50388 45.8384 8.77426L42.3458 12.2668V8.16692ZM42.347 25.2962L42.3462 16.8731L49.3741 9.84519C51.3433 10.5916 53.2042 11.5575 54.9499 12.6932L42.347 25.2962ZM42.3474 34.0227V29.9022L57.6146 14.6349C59.1524 15.8992 60.5568 17.3157 61.8127 18.861L46.6507 34.0229H42.3474V34.0227ZM51.2572 34.0227L63.7438 21.5363C64.8715 23.2918 65.8232 25.1655 66.5592 27.1449L59.6812 34.0227H51.2572ZM64.2878 34.0227L67.6146 30.6955C67.8671 31.7864 68.0807 32.8909 68.2047 34.0227H64.2878Z" fill="#4680C2"/>
</g>
<defs>
<clipPath id="clip0">
<rect width="78" height="78" fill="white"/>
</clipPath>
</defs>
</svg>
