<svg width="81" height="81" viewBox="0 0 81 81" fill="none" xmlns="http://www.w3.org/2000/svg">
<g clip-path="url(#clip0)">
<path d="M57.8595 40.5004L61.084 43.7263L45.4332 59.3756C44.4428 58.6971 43.3021 58.2326 42.0741 58.0125L42.0732 35.1523L46.6343 35.151L40.4989 29.0156L34.3607 35.1539L39.1807 35.1526L39.1816 57.9939C37.8679 58.2013 36.6489 58.6813 35.601 59.4087L19.9172 43.7262L23.1416 40.5004H14.4648V49.1814L17.8723 45.7723L33.5418 61.4406C32.4953 62.8743 31.8585 64.6252 31.8585 66.5362C31.8585 71.3291 35.7442 75.2145 40.5371 75.2145C45.3302 75.2145 49.2157 71.3291 49.2157 66.5362C49.2157 64.6064 48.5648 62.8416 47.4995 61.4003L63.1285 45.7721L66.5363 49.1814V40.5004H57.8595ZM40.5373 72.3219C37.347 72.3219 34.7516 69.7266 34.7516 66.5363C34.7516 63.3459 37.347 60.7506 40.5373 60.7506C43.7275 60.7506 46.323 63.3459 46.323 66.5363C46.323 69.7264 43.7275 72.3219 40.5373 72.3219Z" fill="#4680C2"/>
<path d="M8.67857 17.3574C3.88565 17.3574 0 21.2429 0 26.036C0 30.8289 3.88565 34.7146 8.67857 34.7146C13.4717 34.7146 17.3571 30.8291 17.3571 26.0362C17.3571 21.2431 13.4717 17.3574 8.67857 17.3574ZM8.67857 31.8217C5.48829 31.8217 2.89286 29.2263 2.89286 26.036C2.89286 22.8455 5.48829 20.2503 8.67857 20.2503C11.8689 20.2503 14.4643 22.8455 14.4643 26.036C14.4643 29.2263 11.8689 31.8217 8.67857 31.8217Z" fill="#4680C2"/>
<path d="M40.4989 5.78613C35.706 5.78613 31.8203 9.6716 31.8203 14.4647C31.8203 19.2576 35.706 23.1433 40.4989 23.1433C45.292 23.1433 49.1775 19.2578 49.1775 14.4649C49.1775 9.67178 45.292 5.78613 40.4989 5.78613ZM40.4989 20.2504C37.3086 20.2504 34.7132 17.6552 34.7132 14.4649C34.7132 11.2744 37.3086 8.67917 40.4989 8.67917C43.6892 8.67917 46.2846 11.2744 46.2846 14.4649C46.2846 17.655 43.6892 20.2504 40.4989 20.2504Z" fill="#4680C2"/>
<path d="M72.3231 17.3574C67.5302 17.3574 63.6445 21.2429 63.6445 26.036C63.6445 30.8289 67.5302 34.7144 72.3231 34.7144C77.1162 34.7144 81.0017 30.8289 81.0017 26.036C81.0017 21.2429 77.1162 17.3574 72.3231 17.3574ZM72.3231 31.8215C69.1328 31.8215 66.5374 29.2263 66.5374 26.036C66.5374 22.8455 69.1328 20.2503 72.3231 20.2503C75.5134 20.2503 78.1088 22.8455 78.1088 26.036C78.1088 29.2261 75.5134 31.8215 72.3231 31.8215Z" fill="#4680C2"/>
</g>
<defs>
<clipPath id="clip0">
<rect width="81" height="81" fill="white"/>
</clipPath>
</defs>
</svg>
