<svg width="71" height="71" viewBox="0 0 71 71" fill="none" xmlns="http://www.w3.org/2000/svg">
<path d="M64.4782 41.3172C72.5008 33.2945 72.5008 20.2406 64.4782 12.218C60.6096 8.34938 55.4885 6.27672 50.2705 6.18813V2.08984C50.2705 1.33475 49.6584 0.722656 48.9033 0.722656H1.87207C1.11697 0.722656 0.504883 1.33475 0.504883 2.08984V63.6133C0.504883 64.3684 1.11697 64.9805 1.87207 64.9805H43.9201C44.0636 68.1711 46.7034 70.7227 49.9287 70.7227C53.2458 70.7227 55.9443 68.0241 55.9443 64.707V51.6673C55.9443 50.9161 55.3384 50.307 54.5885 50.3007V46.8023C58.2152 45.9649 61.6578 44.1376 64.4782 41.3172ZM3.23912 3.45703H47.536V6.32416C45.2379 6.59295 42.96 7.25234 40.8014 8.32066C40.1246 8.65563 39.8475 9.47566 40.1824 10.1524C40.5173 10.829 41.3373 11.1063 42.0142 10.7713C48.8762 7.37553 57.1269 8.73369 62.5447 14.1514C69.5012 21.108 69.5012 32.4271 62.5447 39.3837C55.5882 46.3402 44.2691 46.3402 37.3126 39.3837C31.8701 33.9412 30.5253 25.6632 33.9664 18.785C34.3042 18.1097 34.0306 17.2885 33.3554 16.9506C32.6801 16.6128 31.8589 16.8864 31.521 17.5616C27.5525 25.4943 29.1029 35.041 35.3791 41.3172C38.1996 44.1376 41.642 45.9649 45.2688 46.8023V50.3008C44.519 50.307 43.9129 50.9162 43.9129 51.6675V62.2461H3.23912V3.45703ZM53.2098 64.707C53.2098 66.5162 51.7378 67.9883 49.9286 67.9883C48.1194 67.9883 46.6473 66.5162 46.6473 64.707V53.0345H53.2098V64.707ZM51.8541 50.3002H48.0032V47.2441C48.6434 47.3037 49.286 47.334 49.9286 47.334C50.5712 47.334 51.2137 47.3037 51.854 47.2441V50.3002H51.8541Z" fill="#4680C2"/>
<path d="M39.6812 37.0152C42.5065 39.8405 46.2176 41.253 49.9288 41.253C53.6401 41.253 57.3512 39.8403 60.1765 37.0152C65.8269 31.3646 65.8269 22.1705 60.1765 16.5201C54.5259 10.8696 45.3319 10.8696 39.6814 16.5201C34.0306 22.1705 34.0306 31.3646 39.6812 37.0152ZM41.6147 18.4535C43.9069 16.1613 46.9177 15.0152 49.9287 15.0152C52.9397 15.0152 55.9505 16.1613 58.2427 18.4535C62.8272 23.0379 62.8272 30.4972 58.2427 35.0815C53.6584 39.666 46.199 39.666 41.6147 35.0815C37.0302 30.4972 37.0302 23.0379 41.6147 18.4535Z" fill="#4680C2"/>
<path d="M49.2408 35.1223C49.4552 35.2489 49.6955 35.3122 49.9359 35.3122C50.1762 35.3122 50.4166 35.2489 50.6309 35.1223C50.8312 35.0041 55.5363 32.164 55.5363 26.7465C55.5363 21.3215 50.8217 18.5289 50.621 18.4126C50.1971 18.1672 49.6745 18.1672 49.2508 18.4126C49.0501 18.5288 44.3354 21.3214 44.3354 26.7465C44.3354 32.1642 49.0406 35.0042 49.2408 35.1223ZM49.9356 21.2645C50.9719 22.0898 52.8019 23.9439 52.8019 26.7467C52.8019 29.548 50.9763 31.4246 49.9359 32.2667C48.8954 31.4246 47.0698 29.548 47.0698 26.7467C47.0698 23.9426 48.9016 22.088 49.9356 21.2645Z" fill="#4680C2"/>
<path d="M36.3455 14.5518C36.7051 14.5518 37.0578 14.4055 37.3121 14.1512C37.5664 13.8969 37.7127 13.5441 37.7127 13.1846C37.7127 12.825 37.5664 12.4723 37.3121 12.218C37.0578 11.9637 36.7051 11.8174 36.3455 11.8174C35.9859 11.8174 35.6332 11.9637 35.3789 12.218C35.1246 12.4723 34.9783 12.825 34.9783 13.1846C34.9783 13.5441 35.1246 13.8969 35.3789 14.1512C35.6332 14.4055 35.9859 14.5518 36.3455 14.5518Z" fill="#4680C2"/>
<path d="M20.5051 10.8398H30.4462C31.2013 10.8398 31.8134 10.2278 31.8134 9.47266C31.8134 8.71756 31.2013 8.10547 30.4462 8.10547H20.5051C19.75 8.10547 19.1379 8.71756 19.1379 9.47266C19.1379 10.2278 19.75 10.8398 20.5051 10.8398Z" fill="#4680C2"/>
<path d="M9.25464 10.8398H13.0047C13.7598 10.8398 14.3719 10.2278 14.3719 9.47266C14.3719 8.71756 13.7598 8.10547 13.0047 8.10547H9.25464C8.49954 8.10547 7.88745 8.71756 7.88745 9.47266C7.88745 10.2278 8.49954 10.8398 9.25464 10.8398Z" fill="#4680C2"/>
<path d="M9.25464 25.4238H20.505C21.26 25.4238 21.8721 24.8117 21.8721 24.0566C21.8721 23.3015 21.26 22.6895 20.505 22.6895H9.25464C8.49954 22.6895 7.88745 23.3015 7.88745 24.0566C7.88745 24.8117 8.49954 25.4238 9.25464 25.4238Z" fill="#4680C2"/>
<path d="M9.25464 18.1318H25.4755C26.2306 18.1318 26.8427 17.5197 26.8427 16.7646C26.8427 16.0096 26.2306 15.3975 25.4755 15.3975H9.25464C8.49954 15.3975 7.88745 16.0096 7.88745 16.7646C7.88745 17.5197 8.49954 18.1318 9.25464 18.1318Z" fill="#4680C2"/>
<path d="M9.25464 32.7148H20.505C21.26 32.7148 21.8721 32.1028 21.8721 31.3477C21.8721 30.5926 21.26 29.9805 20.505 29.9805H9.25464C8.49954 29.9805 7.88745 30.5926 7.88745 31.3477C7.88745 32.1028 8.49954 32.7148 9.25464 32.7148Z" fill="#4680C2"/>
<path d="M28.9421 42.5586H23.7468V40.6445C23.7468 39.8894 23.1347 39.2773 22.3796 39.2773H15.8171C15.062 39.2773 14.45 39.8894 14.45 40.6445V44.7461H9.25464C8.49954 44.7461 7.88745 45.3582 7.88745 46.1133V54.8633C7.88745 55.6184 8.49954 56.2305 9.25464 56.2305H28.9421C29.6972 56.2305 30.3093 55.6184 30.3093 54.8633V43.9258C30.3093 43.1707 29.6972 42.5586 28.9421 42.5586ZM10.6218 47.4805H14.45V53.4961H10.6218V47.4805ZM17.1843 42.0117H21.0125V53.4961H17.1843V42.0117ZM27.575 53.4961H23.7468V45.293H27.575V53.4961Z" fill="#4680C2"/>
</svg>
