<svg width="60" height="59" viewBox="0 0 60 59" fill="none" xmlns="http://www.w3.org/2000/svg">
<path d="M57.1233 56.6854V28.3429H55.2339V24.5639H53.3444V18.8954H51.4549V15.1165H49.5654V18.8954H47.6759V24.5639H45.7864V3.57164L40.1179 4.70533V1.88998H38.2284V5.08323L36.3389 5.46113V0.000488281H34.4494V5.83903L32.5599 6.21693V1.88998H30.6704V6.59577L25.0019 7.72947V13.227H7.99646V15.1165H9.88595V26.5394C9.57608 26.4884 9.26242 26.4534 8.94121 26.4534C5.29543 26.4534 2.32797 29.8441 2.32797 34.0114C2.32797 37.8112 4.79754 40.9563 7.99646 41.4834V42.7144C7.20571 41.9993 6.226 41.5694 5.16222 41.5694C2.55755 41.5694 0.438477 44.1117 0.438477 47.2379C0.438477 49.9758 2.06439 52.2649 4.21747 52.7921V56.6854H0.438477V58.5749H59.0128V56.6854H57.1233ZM15.5544 55.7406C15.5544 54.178 16.8261 52.9064 18.3887 52.9064C19.409 52.9064 20.3556 53.459 20.8592 54.349L21.1521 54.8677L22.1677 54.7959C22.4454 54.7959 22.7383 54.8497 23.0633 54.9593L23.9816 55.2673L24.2679 54.3424C24.8829 52.3537 26.6968 51.0169 28.7809 51.0169C30.4985 51.0169 32.0838 51.9531 32.918 53.4609L33.5084 54.5304L34.3946 53.6896C35.4593 52.6806 37.2175 52.6806 38.2822 53.6896L39.1684 54.5304L39.7589 53.4609C40.594 51.9531 42.1793 51.0169 43.8969 51.0169C45.9479 51.0169 47.7524 52.3282 48.3873 54.28L48.6527 55.0954L49.4907 54.9102C51.3632 54.4945 53.1932 55.2654 54.2693 56.6854H15.7377C15.63 56.3812 15.5544 56.0666 15.5544 55.7406ZM55.2339 30.2324V54.9253C54.6859 54.3641 54.0501 53.9021 53.3444 53.5639V32.1219H40.1179V50.3272C39.5879 50.6975 39.1051 51.1378 38.6989 51.6536C38.5477 51.5658 38.389 51.4911 38.2284 51.4222V30.2324H55.2339ZM43.8969 49.1274C43.2469 49.1274 42.613 49.2332 42.0074 49.4146V34.0114H45.7864V49.4014C45.1846 49.2228 44.5497 49.1274 43.8969 49.1274ZM47.6759 34.0114H51.4549V52.9952C50.9419 52.9205 50.4194 52.8846 49.8856 52.9366C49.3859 51.8662 48.6131 50.98 47.6759 50.3253V34.0114ZM40.1179 28.3429V26.4534H53.3444V28.3429H40.1179ZM49.5654 20.7849H51.4549V24.5639H49.5654V20.7849ZM43.8969 5.87682V24.5639H38.2284V28.3429H36.3389V51.031C35.5151 51.031 34.6922 51.2389 33.9789 51.6536C32.7366 50.075 30.8263 49.1274 28.7809 49.1274C28.1271 49.1274 27.4923 49.2219 26.8914 49.3985V9.27697L43.8969 5.87682ZM11.7755 15.1165H25.0019V50.3187C24.0572 50.9762 23.2806 51.8709 22.7808 52.9536C22.5815 52.9262 22.3793 52.9111 22.1696 52.9092C21.2843 51.7292 19.8842 51.0169 18.3887 51.0169C15.784 51.0169 13.6649 53.1359 13.6649 55.7406C13.6649 56.0599 13.7075 56.3745 13.7708 56.6854H9.88595V53.255L15.5544 46.6427V44.3177C18.7534 43.7905 21.2229 40.6454 21.2229 36.8457C21.2229 34.002 19.8398 31.522 17.8039 30.2324H19.3334V28.3429H17.4439V30.0274C16.5833 29.5579 15.6244 29.2877 14.6097 29.2877C14.4472 29.2877 14.2809 29.2981 14.1128 29.3141C13.4883 28.4176 12.689 27.691 11.7755 27.1932V15.1165ZM15.5544 34.0114C15.5544 33.0194 15.3816 32.0737 15.0764 31.2055C17.4628 31.488 19.3334 33.9094 19.3334 36.8457C19.3334 39.9718 17.2144 42.5141 14.6097 42.5141C13.4174 42.5141 12.2847 41.9652 11.4202 41.0129C13.8407 39.8896 15.5544 37.1763 15.5544 34.0114ZM9.88595 42.1183C10.8997 43.3068 12.2214 44.0834 13.6649 44.3205V45.9445L9.88595 50.3537V42.1183ZM4.21747 34.0114C4.21747 30.8852 6.33654 28.3429 8.94121 28.3429C11.5459 28.3429 13.6649 30.8852 13.6649 34.0114C13.6649 36.7493 12.039 39.0384 9.88595 39.5656V33.0667H7.99646V39.5656C5.84338 39.0384 4.21747 36.7493 4.21747 34.0114ZM2.32797 47.2379C2.32797 45.1538 3.5996 43.4589 5.16222 43.4589C6.72483 43.4589 7.99646 45.1538 7.99646 47.2379C7.99646 49.322 6.72483 51.0169 5.16222 51.0169C3.5996 51.0169 2.32797 49.322 2.32797 47.2379ZM6.10696 52.7921C6.80608 52.6211 7.44662 52.2592 7.99646 51.7623V56.6854H6.10696V52.7921Z" fill="#4680C2"/>
<path d="M34.4495 11.3369H28.781V18.8949H34.4495V11.3369ZM32.56 17.0054H30.6705V13.2264H32.56V17.0054Z" fill="#4680C2"/>
<path d="M34.4495 20.7852H28.781V28.3431H34.4495V20.7852ZM32.56 26.4536H30.6705V22.6747H32.56V26.4536Z" fill="#4680C2"/>
<path d="M34.4495 30.2324H28.781V37.7904H34.4495V30.2324ZM32.56 35.9009H30.6705V32.1219H32.56V35.9009Z" fill="#4680C2"/>
<path d="M34.4495 39.6797H28.781V47.2377H34.4495V39.6797ZM32.56 45.3482H30.6705V41.5692H32.56V45.3482Z" fill="#4680C2"/>
<path d="M42.0071 11.3369H36.3386V18.8949H42.0071V11.3369ZM40.1176 17.0054H38.2281V13.2264H40.1176V17.0054Z" fill="#4680C2"/>
<path d="M13.665 17.0054H15.5545V18.8949H13.665V17.0054Z" fill="#4680C2"/>
<path d="M17.4441 17.0054H19.3336V18.8949H17.4441V17.0054Z" fill="#4680C2"/>
<path d="M21.2231 17.0054H23.1126V18.8949H21.2231V17.0054Z" fill="#4680C2"/>
<path d="M13.665 20.7852H15.5545V22.6747H13.665V20.7852Z" fill="#4680C2"/>
<path d="M17.4441 20.7852H19.3336V22.6747H17.4441V20.7852Z" fill="#4680C2"/>
<path d="M21.2231 20.7852H23.1126V22.6747H21.2231V20.7852Z" fill="#4680C2"/>
<path d="M17.4441 24.5635H19.3336V26.453H17.4441V24.5635Z" fill="#4680C2"/>
<path d="M13.665 24.5635H15.5545V26.453H13.665V24.5635Z" fill="#4680C2"/>
<path d="M21.2231 24.5635H23.1126V26.453H21.2231V24.5635Z" fill="#4680C2"/>
<path d="M21.2231 28.3428H23.1126V30.2323H21.2231V28.3428Z" fill="#4680C2"/>
</svg>
