<svg width="54" height="54" viewBox="0 0 54 54" fill="none" xmlns="http://www.w3.org/2000/svg">
<path d="M0.0200195 51.8271H53.5744V53.5547H0.0200195V51.8271Z" fill="#6BCDB2"/>
<path d="M20.9834 5.97391C22.8664 5.44959 24.8229 5.18268 26.7975 5.18268C32.0492 5.18268 37.054 7.06486 40.9885 10.501L38.9284 12.5611L48.715 15.0073L46.2688 5.22069L44.657 6.8325C39.736 2.42031 33.427 0 26.7975 0C24.3754 0 21.9741 0.323918 19.6575 0.962251L19.0234 1.13674V6.08706L20.7916 6.00414L20.9834 5.97391ZM20.751 2.46264C22.7204 1.9746 24.752 1.72756 26.7975 1.72756C33.262 1.72756 39.4017 4.18847 44.0843 8.65594L44.695 9.23813L45.3325 8.60066L46.3414 12.6345L42.3075 11.6256L43.4771 10.4561L42.8327 9.84623C38.4853 5.72427 32.7895 3.45512 26.7975 3.45512C24.7468 3.45512 22.7135 3.72203 20.751 4.24634V2.46264Z" fill="#6BCDB2"/>
<path d="M0.982271 33.917L1.15675 34.551H6.10708L6.02416 32.7828L5.99306 32.591C5.46961 30.708 5.2027 28.7515 5.2027 26.7769C5.2027 21.526 7.08488 16.5204 10.521 12.585L12.5811 14.646L15.0273 4.85938L5.24071 7.3056L6.85252 8.91742C2.44033 13.8384 0.0200195 20.1474 0.0200195 26.7769C0.0200195 29.199 0.343937 31.6003 0.982271 33.917ZM8.67596 9.4901L9.25815 8.87941L8.62068 8.24194L12.6545 7.23304L11.6456 11.2669L10.4761 10.0965L9.86625 10.7409C5.74429 15.09 3.47514 20.7849 3.47514 26.7769C3.47514 28.8276 3.74205 30.8609 4.26636 32.8234H2.48266C1.99462 30.854 1.74758 28.8224 1.74758 26.7769C1.74758 20.3124 4.20849 14.1727 8.67596 9.4901Z" fill="#6BCDB2"/>
<path d="M47.5695 18.1803L47.6006 18.372C48.1249 20.2551 48.3918 22.2115 48.3918 24.1861C48.3918 29.4371 46.5096 34.4427 43.0735 38.378L41.0134 36.3171L38.5671 46.1037L48.3538 43.6575L46.742 42.0457C51.1541 37.1247 53.5745 30.8156 53.5745 24.1861C53.5745 21.7641 53.2505 19.3628 52.6122 17.0461L52.4377 16.4121H47.4874L47.5695 18.1803ZM51.1118 18.1397C51.5999 20.1091 51.8469 22.1407 51.8469 24.1861C51.8469 30.6507 49.386 36.7904 44.9185 41.473L44.3363 42.0837L44.9738 42.7211L40.9399 43.73L41.9488 39.6962L43.1184 40.8666L43.7282 40.2222C47.8502 35.8731 50.1193 30.179 50.1193 24.1861C50.1193 22.1355 49.8524 20.1022 49.3281 18.1397H51.1118Z" fill="#6BCDB2"/>
<path d="M18.1594 32.8237H19.887V34.5513H18.1594V32.8237Z" fill="#6BCDB2"/>
<path d="M11.2493 32.8237H12.9768V34.5513H11.2493V32.8237Z" fill="#6BCDB2"/>
<path d="M14.7043 32.8237H16.4319V34.5513H14.7043V32.8237Z" fill="#6BCDB2"/>
<path d="M14.7043 36.2783H16.4319V38.0059H14.7043V36.2783Z" fill="#6BCDB2"/>
<path d="M11.2493 36.2783H12.9768V38.0059H11.2493V36.2783Z" fill="#6BCDB2"/>
<path d="M18.1594 36.2783H19.887V38.0059H18.1594V36.2783Z" fill="#6BCDB2"/>
<path d="M14.7043 39.7339H16.4319V41.4614H14.7043V39.7339Z" fill="#6BCDB2"/>
<path d="M18.1594 39.7339H19.887V41.4614H18.1594V39.7339Z" fill="#6BCDB2"/>
<path d="M11.2493 39.7339H12.9768V41.4614H11.2493V39.7339Z" fill="#6BCDB2"/>
<path d="M11.2493 43.1885H12.9768V44.916H11.2493V43.1885Z" fill="#6BCDB2"/>
<path d="M18.1594 43.1885H19.887V44.916H18.1594V43.1885Z" fill="#6BCDB2"/>
<path d="M14.7043 43.1885H16.4319V44.916H14.7043V43.1885Z" fill="#6BCDB2"/>
<path d="M12.9768 25.9136H14.7044V27.6411H12.9768V25.9136Z" fill="#6BCDB2"/>
<path d="M19.887 25.9136H21.6145V27.6411H19.887V25.9136Z" fill="#6BCDB2"/>
<path d="M16.4319 25.9136H18.1594V27.6411H16.4319V25.9136Z" fill="#6BCDB2"/>
<path d="M23.342 25.9136H25.0696V27.6411H23.342V25.9136Z" fill="#6BCDB2"/>
<path d="M19.887 22.459H21.6145V24.1865H19.887V22.459Z" fill="#6BCDB2"/>
<path d="M23.342 22.459H25.0696V24.1865H23.342V22.459Z" fill="#6BCDB2"/>
<path d="M16.4319 22.459H18.1594V24.1865H16.4319V22.459Z" fill="#6BCDB2"/>
<path d="M12.9768 22.459H14.7044V24.1865H12.9768V22.459Z" fill="#6BCDB2"/>
<path d="M12.9768 19.0034H14.7044V20.731H12.9768V19.0034Z" fill="#6BCDB2"/>
<path d="M19.887 19.0034H21.6145V20.731H19.887V19.0034Z" fill="#6BCDB2"/>
<path d="M16.4319 19.0034H18.1594V20.731H16.4319V19.0034Z" fill="#6BCDB2"/>
<path d="M23.342 19.0034H25.0696V20.731H23.342V19.0034Z" fill="#6BCDB2"/>
<path d="M37.1626 36.2786H39.7539C43.0872 36.2786 45.8004 33.5654 45.8004 30.2321V29.3683H41.4815C39.7902 29.3683 38.2613 30.068 37.1626 31.1918V27.6408H39.7539C43.0872 27.6408 45.8004 24.9276 45.8004 21.5943V20.7305H41.4815C39.7652 20.7305 38.2181 21.4527 37.1159 22.6049C36.7601 19.6085 34.2067 17.2754 31.1161 17.2754H28.5248V15.5479H9.5216V29.3683H7.79404V46.6439H0.0200195V48.3715H53.5744V46.6439H37.1626V36.2786ZM41.4815 31.0959H43.9856C43.5839 33.0645 41.84 34.551 39.7539 34.551H37.2498C37.6506 32.5825 39.3955 31.0959 41.4815 31.0959ZM41.4815 22.4581H43.9856C43.5839 24.4267 41.84 25.9132 39.7539 25.9132H37.2498C37.6506 23.9447 39.3955 22.4581 41.4815 22.4581ZM35.435 46.6439H28.5248V31C29.6235 32.1238 31.1524 32.8235 32.8437 32.8235H35.435V35.4148V36.2786V46.6439ZM28.612 27.6408H31.1161C33.2021 27.6408 34.947 29.1273 35.3478 31.0959H32.8437C30.7576 31.0959 29.0128 29.6093 28.612 27.6408ZM31.1161 19.003C33.2021 19.003 34.947 20.4895 35.3478 22.4581H32.8437C30.7576 22.4581 29.0128 20.9715 28.612 19.003H31.1161ZM32.8437 24.1857H35.435V26.777V27.6408V27.7367C34.3363 26.6129 32.8074 25.9132 31.1161 25.9132H28.5248V22.3622C29.6235 23.486 31.1524 24.1857 32.8437 24.1857ZM11.2492 17.2754H26.7972V18.1392V25.9132V26.777V46.6439H23.3421V29.3683H11.2492V17.2754ZM9.5216 31.0959H21.6145V46.6439H9.5216V31.0959Z" fill="#6BCDB2"/>
</svg>
