<svg width="32" height="40" viewBox="0 0 32 40" fill="none" xmlns="http://www.w3.org/2000/svg">
<path d="M3.33458 5.06433C3.36867 5.96667 4.13842 6.66667 5.04092 6.66667H6C6.17681 6.66667 6.34638 6.73691 6.47141 6.86193C6.59643 6.98695 6.66667 7.15652 6.66667 7.33333V18.7543C6.66667 18.875 6.69942 18.9934 6.76143 19.0969C6.82345 19.2004 6.91239 19.2852 7.01878 19.3421C7.12518 19.3991 7.24503 19.426 7.36556 19.4202C7.48608 19.4144 7.60277 19.3759 7.70317 19.309L9.92708 17.8264C10.1461 17.6804 10.4034 17.6025 10.6667 17.6025C10.9299 17.6025 11.1872 17.6804 11.4062 17.8264L13.6302 19.309C13.7306 19.3759 13.8472 19.4144 13.9678 19.4202C14.0883 19.426 14.2082 19.3991 14.3146 19.3421C14.4209 19.2852 14.5099 19.2004 14.5719 19.0969C14.6339 18.9934 14.6667 18.875 14.6667 18.7543V7.33333C14.6667 7.15652 14.7369 6.98695 14.8619 6.86193C14.987 6.73691 15.1565 6.66667 15.3333 6.66667H30.6667C31.0203 6.66667 31.3594 6.80714 31.6095 7.05719C31.8595 7.30724 32 7.64638 32 8V38.6667C32 39.0203 31.8595 39.3594 31.6095 39.6095C31.3594 39.8595 31.0203 40 30.6667 40H5C3.67392 40 2.40215 39.4732 1.46447 38.5355C0.526784 37.5979 0 36.3261 0 35V5C0 4.99208 0.000916662 4.98442 0.00116666 4.97658C0.00948124 3.67665 0.531805 2.4328 1.45408 1.51667C2.41347 0.55186 3.71606 0.00650393 5.07667 0H30.6667C31.0203 0 31.3594 0.140476 31.6095 0.390524C31.8595 0.640573 32 0.979711 32 1.33333V2C32 2.35362 31.8595 2.69276 31.6095 2.94281C31.3594 3.19286 31.0203 3.33333 30.6667 3.33333H5C4.77579 3.33358 4.55392 3.37901 4.34766 3.46693C4.1414 3.55484 3.95497 3.68342 3.79952 3.845C3.64407 4.00657 3.52278 4.19782 3.44289 4.40732C3.36301 4.61682 3.32617 4.84028 3.33458 5.06433Z" fill="#4680C2"/>
</svg>
