<svg width="54" height="54" viewBox="0 0 54 54" fill="none" xmlns="http://www.w3.org/2000/svg">
<path d="M30.6445 41.2477C31.5879 40.282 32.1725 38.9628 32.1725 37.5088C32.1725 37.4052 32.1716 37.3008 32.1636 37.2401C32.0199 34.3883 29.6715 32.1533 26.8171 32.1533C23.9626 32.1533 21.6143 34.3883 21.4733 37.1964C21.4626 37.3008 21.4617 37.4052 21.4617 37.5088C21.4617 38.9628 22.0463 40.282 22.9897 41.2477C21.0886 41.7583 19.6765 43.481 19.6765 45.5419V52.6825C19.6765 53.1761 20.0764 53.5751 20.5691 53.5751H33.0651C33.5578 53.5751 33.9577 53.1761 33.9577 52.6825V45.5419C33.9577 43.481 32.5456 41.7583 30.6445 41.2477ZM23.3414 38.2987C24.1795 37.2428 25.4515 36.6162 26.8171 36.6162C28.1827 36.6162 29.4547 37.2428 30.2928 38.2987C29.9313 39.8875 28.5139 41.0791 26.8171 41.0791C25.1203 41.0791 23.7029 39.8875 23.3414 38.2987ZM26.8171 33.9385C28.0738 33.9385 29.1735 34.5963 29.8108 35.5995C28.9066 35.1051 27.8819 34.831 26.8171 34.831C25.7478 34.831 24.7196 35.1077 23.8136 35.6058C24.4473 34.6052 25.5523 33.9385 26.8171 33.9385ZM32.1725 51.7899H21.4617V45.5419C21.4617 44.0656 22.6631 42.8642 24.1394 42.8642H29.4948C30.9711 42.8642 32.1725 44.0656 32.1725 45.5419V51.7899Z" fill="#6BCDB2"/>
<path d="M24.5544 27.6904L26.0745 29.9709C26.2405 30.219 26.519 30.3681 26.8171 30.3681C27.1152 30.3681 27.3937 30.219 27.5597 29.9709L29.0798 27.6904H31.28C32.7563 27.6904 33.9577 26.489 33.9577 25.0127V19.6572C33.9577 18.1809 32.7563 16.9795 31.28 16.9795H22.3542C20.8779 16.9795 19.6765 18.1809 19.6765 19.6572V25.0127C19.6765 26.489 20.8779 27.6904 22.3542 27.6904H24.5544ZM21.4617 25.0127V19.6572C21.4617 19.1645 21.8624 18.7646 22.3542 18.7646H31.28C31.7718 18.7646 32.1725 19.1645 32.1725 19.6572V25.0127C32.1725 25.5054 31.7718 25.9052 31.28 25.9052H28.6022C28.3041 25.9052 28.0256 26.0543 27.8596 26.3024L26.8171 27.8662L25.7746 26.3024C25.6086 26.0543 25.3301 25.9052 25.032 25.9052H22.3542C21.8624 25.9052 21.4617 25.5054 21.4617 25.0127Z" fill="#6BCDB2"/>
<path d="M7.18062 14.3017C11.1178 14.3017 14.3212 11.0982 14.3212 7.16109C14.3212 3.22395 11.1178 0.0205078 7.18062 0.0205078C3.24348 0.0205078 0.0400391 3.22395 0.0400391 7.16109C0.0400391 11.0982 3.24348 14.3017 7.18062 14.3017ZM6.28805 6.26852C6.28805 5.77582 6.68882 5.37595 7.18062 5.37595C7.67243 5.37595 8.0732 5.77582 8.0732 6.26852C8.0732 6.76122 7.67243 7.16109 7.18062 7.16109C6.68882 7.16109 6.28805 6.76122 6.28805 6.26852ZM5.39548 12.2041V9.83881C5.39548 9.34611 5.79624 8.94624 6.28805 8.94624H8.0732C8.56501 8.94624 8.96577 9.34611 8.96577 9.83881V12.2041C8.40613 12.4023 7.80721 12.5165 7.18062 12.5165C6.55404 12.5165 5.95512 12.4023 5.39548 12.2041ZM7.18062 1.80565C10.1341 1.80565 12.5361 4.20757 12.5361 7.16109C12.5361 8.74184 11.8434 10.1601 10.7509 11.142V9.83881C10.7509 8.88822 10.2493 8.05634 9.50042 7.58149C9.72178 7.19144 9.85834 6.74783 9.85834 6.26852C9.85834 4.7922 8.65694 3.5908 7.18062 3.5908C5.70431 3.5908 4.5029 4.7922 4.5029 6.26852C4.5029 6.74783 4.63947 7.19144 4.86083 7.58149C4.11196 8.05634 3.61033 8.88822 3.61033 9.83881V11.142C2.51782 10.1601 1.82519 8.74184 1.82519 7.16109C1.82519 4.20757 4.2271 1.80565 7.18062 1.80565Z" fill="#6BCDB2"/>
<path d="M46.4538 0.0205078C42.5167 0.0205078 39.3132 3.22395 39.3132 7.16109C39.3132 11.0982 42.5167 14.3017 46.4538 14.3017C50.391 14.3017 53.5944 11.0982 53.5944 7.16109C53.5944 3.22395 50.391 0.0205078 46.4538 0.0205078ZM45.5612 6.26852C45.5612 5.77582 45.962 5.37595 46.4538 5.37595C46.9456 5.37595 47.3464 5.77582 47.3464 6.26852C47.3464 6.76122 46.9456 7.16109 46.4538 7.16109C45.962 7.16109 45.5612 6.76122 45.5612 6.26852ZM44.6687 12.2041V9.83881C44.6687 9.34611 45.0694 8.94624 45.5612 8.94624H47.3464C47.8382 8.94624 48.239 9.34611 48.239 9.83881V12.2041C47.6793 12.4023 47.0804 12.5165 46.4538 12.5165C45.8272 12.5165 45.2283 12.4023 44.6687 12.2041ZM50.0241 11.142V9.83881C50.0241 8.88822 49.5225 8.05634 48.7736 7.58149C48.995 7.19144 49.1315 6.74783 49.1315 6.26852C49.1315 4.7922 47.9301 3.5908 46.4538 3.5908C44.9775 3.5908 43.7761 4.7922 43.7761 6.26852C43.7761 6.74783 43.9127 7.19144 44.134 7.58149C43.3852 8.05634 42.8835 8.88822 42.8835 9.83881V11.142C41.791 10.161 41.0984 8.74273 41.0984 7.16109C41.0984 4.20757 43.5003 1.80565 46.4538 1.80565C49.4073 1.80565 51.8093 4.20757 51.8093 7.16109C51.8093 8.74184 51.1166 10.1601 50.0241 11.142Z" fill="#6BCDB2"/>
<path d="M7.18062 46.4345C11.1178 46.4345 14.3212 43.231 14.3212 39.2939C14.3212 35.3568 11.1178 32.1533 7.18062 32.1533C3.24348 32.1533 0.0400391 35.3568 0.0400391 39.2939C0.0400391 43.231 3.24348 46.4345 7.18062 46.4345ZM6.28805 38.4013C6.28805 37.9086 6.68882 37.5088 7.18062 37.5088C7.67243 37.5088 8.0732 37.9086 8.0732 38.4013C8.0732 38.894 7.67243 39.2939 7.18062 39.2939C6.68882 39.2939 6.28805 38.894 6.28805 38.4013ZM5.39548 44.3369V41.9716C5.39548 41.4789 5.79624 41.0791 6.28805 41.0791H8.0732C8.56501 41.0791 8.96577 41.4789 8.96577 41.9716V44.3369C8.40613 44.5351 7.80721 44.6493 7.18062 44.6493C6.55404 44.6493 5.95512 44.5351 5.39548 44.3369ZM7.18062 33.9385C10.1341 33.9385 12.5361 36.3404 12.5361 39.2939C12.5361 40.8747 11.8434 42.2929 10.7509 43.2748V41.9716C10.7509 41.021 10.2493 40.1892 9.50042 39.7143C9.72178 39.3243 9.85834 38.8806 9.85834 38.4013C9.85834 36.925 8.65694 35.7236 7.18062 35.7236C5.70431 35.7236 4.5029 36.925 4.5029 38.4013C4.5029 38.8806 4.63947 39.3243 4.86083 39.7143C4.11196 40.1892 3.61033 41.021 3.61033 41.9716V43.2748C2.51782 42.2929 1.82519 40.8747 1.82519 39.2939C1.82519 36.3404 4.2271 33.9385 7.18062 33.9385Z" fill="#6BCDB2"/>
<path d="M46.4538 32.1533C42.5167 32.1533 39.3132 35.3568 39.3132 39.2939C39.3132 43.231 42.5167 46.4345 46.4538 46.4345C50.391 46.4345 53.5944 43.231 53.5944 39.2939C53.5944 35.3568 50.391 32.1533 46.4538 32.1533ZM45.5612 38.4013C45.5612 37.9086 45.962 37.5088 46.4538 37.5088C46.9456 37.5088 47.3464 37.9086 47.3464 38.4013C47.3464 38.894 46.9456 39.2939 46.4538 39.2939C45.962 39.2939 45.5612 38.894 45.5612 38.4013ZM44.6687 44.3369V41.9716C44.6687 41.4789 45.0694 41.0791 45.5612 41.0791H47.3464C47.8382 41.0791 48.239 41.4789 48.239 41.9716V44.3369C47.6793 44.5351 47.0804 44.6493 46.4538 44.6493C45.8272 44.6493 45.2283 44.5351 44.6687 44.3369ZM50.0241 43.2748V41.9716C50.0241 41.021 49.5225 40.1892 48.7736 39.7143C48.995 39.3243 49.1315 38.8806 49.1315 38.4013C49.1315 36.925 47.9301 35.7236 46.4538 35.7236C44.9775 35.7236 43.7761 36.925 43.7761 38.4013C43.7761 38.8806 43.9127 39.3243 44.134 39.7143C43.3852 40.1892 42.8835 41.021 42.8835 41.9716V43.2748C41.791 42.2938 41.0984 40.8755 41.0984 39.2939C41.0984 36.3404 43.5003 33.9385 46.4538 33.9385C49.4073 33.9385 51.8093 36.3404 51.8093 39.2939C51.8093 40.8747 51.1166 42.2929 50.0241 43.2748Z" fill="#6BCDB2"/>
<path d="M26.8173 9.83838C19.4348 9.83838 13.4287 15.8445 13.4287 23.227C13.4287 27.9915 15.994 32.4348 20.1221 34.8233L21.0165 33.2791C17.4373 31.2075 15.2139 27.3569 15.2139 23.227C15.2139 16.829 20.4193 11.6235 26.8173 11.6235C33.2153 11.6235 38.4208 16.829 38.4208 23.227C38.4208 27.3337 36.3188 31.0522 32.7967 33.1738L33.7178 34.7028C37.7808 32.2545 40.2059 27.9656 40.2059 23.227C40.2059 15.8445 34.1998 9.83838 26.8173 9.83838Z" fill="#6BCDB2"/>
<path d="M14.7485 3.40157L15.6786 4.9252C19.024 2.88477 22.8754 1.80565 26.817 1.80565C30.4123 1.80565 33.9674 2.7134 37.0995 4.42982L37.9581 2.86425C34.5637 1.00412 30.7113 0.0205078 26.817 0.0205078C22.5478 0.0205078 18.3751 1.18978 14.7485 3.40157Z" fill="#6BCDB2"/>
<path d="M4.82425 15.8013C4.01915 18.1871 3.61035 20.6854 3.61035 23.2275C3.61035 25.7695 4.01915 28.2678 4.82425 30.6537L6.51568 30.0815C5.77216 27.8814 5.3955 25.5749 5.3955 23.2275C5.3955 20.88 5.77216 18.5736 6.51568 16.3725L4.82425 15.8013Z" fill="#6BCDB2"/>
<path d="M18.2483 42.8678C17.3665 42.4813 16.5015 42.0314 15.6777 41.5298L14.7485 43.0534C15.6411 43.597 16.5774 44.0852 17.5334 44.5029L18.2483 42.8678Z" fill="#6BCDB2"/>
<path d="M36.1 44.5029C37.0559 44.0852 37.9931 43.597 38.8848 43.0534L37.9556 41.5298C37.1318 42.0314 36.2669 42.4813 35.385 42.8678L36.1 44.5029Z" fill="#6BCDB2"/>
<path d="M48.8101 30.6537C49.6152 28.2678 50.024 25.7695 50.024 23.2275C50.024 20.6854 49.6152 18.1871 48.8101 15.8013L47.1187 16.3734C47.8622 18.5736 48.2388 20.88 48.2388 23.2275C48.2388 25.5749 47.8622 27.8814 47.1187 30.0824L48.8101 30.6537Z" fill="#6BCDB2"/>
</svg>
