<svg width="54" height="55" viewBox="0 0 54 55" fill="none" xmlns="http://www.w3.org/2000/svg">
<path d="M48.9636 31.6233C55.1014 25.4854 55.1014 15.4984 48.9636 9.36055C46.0039 6.40084 42.0859 4.81512 38.0938 4.74734V1.6119C38.0938 1.03421 37.6256 0.565918 37.0479 0.565918H1.066C0.488307 0.565918 0.0200195 1.03421 0.0200195 1.6119V48.6812C0.0200195 49.2589 0.488307 49.7272 1.066 49.7272H33.2353C33.3452 52.1682 35.3648 54.1203 37.8323 54.1203C40.3701 54.1203 42.4347 52.0557 42.4347 49.518V39.5418C42.4347 38.967 41.9711 38.501 41.3974 38.4962V35.8198C44.1721 35.1791 46.8058 33.781 48.9636 31.6233ZM2.11188 2.65789H36.0018V4.85142C34.2436 5.05706 32.5009 5.56154 30.8494 6.37887C30.3316 6.63514 30.1196 7.26252 30.3758 7.78028C30.632 8.29794 31.2594 8.51006 31.7772 8.2538C37.0271 5.65578 43.3395 6.69486 47.4844 10.8398C52.8065 16.162 52.8065 24.8218 47.4844 30.1441C42.1622 35.4662 33.5024 35.4662 28.1802 30.1441C24.0164 25.9802 22.9875 19.647 25.6202 14.3847C25.8786 13.8681 25.6693 13.2398 25.1527 12.9813C24.6361 12.7229 24.0078 12.9322 23.7493 13.4488C20.7131 19.5178 21.8993 26.8216 26.701 31.6233C28.8588 33.781 31.4925 35.1791 34.2672 35.8198V38.4963C33.6936 38.501 33.2299 38.9671 33.2299 39.5419V47.6352H2.11188V2.65789ZM40.3426 49.518C40.3426 50.9021 39.2164 52.0283 37.8322 52.0283C36.4481 52.0283 35.3219 50.9021 35.3219 49.518V40.5878H40.3426V49.518ZM39.3054 38.4958H36.3592V36.1577C36.849 36.2033 37.3406 36.2266 37.8322 36.2266C38.3239 36.2266 38.8155 36.2033 39.3053 36.1577V38.4958H39.3054Z" fill="#6BCDB2"/>
<path d="M29.9923 28.3319C32.1538 30.4934 34.993 31.5742 37.8323 31.5742C40.6717 31.5742 43.5109 30.4933 45.6724 28.3319C49.9954 24.0089 49.9954 16.9748 45.6724 12.6519C41.3494 8.32893 34.3154 8.32893 29.9924 12.6519C25.6692 16.9748 25.6692 24.0089 29.9923 28.3319ZM31.4715 14.1311C33.2252 12.3774 35.5287 11.5006 37.8322 11.5006C40.1358 11.5006 42.4393 12.3774 44.193 14.1311C47.7004 17.6384 47.7004 23.3453 44.193 26.8526C40.6857 30.36 34.9788 30.36 31.4715 26.8526C27.9641 23.3453 27.9641 17.6384 31.4715 14.1311Z" fill="#6BCDB2"/>
<path d="M37.3061 26.8838C37.4701 26.9807 37.654 27.0291 37.8379 27.0291C38.0218 27.0291 38.2057 26.9807 38.3697 26.8838C38.5229 26.7933 42.1226 24.6205 42.1226 20.4758C42.1226 16.3253 38.5156 14.1888 38.362 14.0998C38.0378 13.912 37.6379 13.912 37.3137 14.0998C37.1602 14.1887 33.5532 16.3252 33.5532 20.4758C33.5532 24.6206 37.153 26.7934 37.3061 26.8838ZM37.8377 16.2817C38.6305 16.9131 40.0306 18.3316 40.0306 20.4759C40.0306 22.6191 38.6339 24.0548 37.8379 24.6991C37.0419 24.0548 35.6452 22.6191 35.6452 20.4759C35.6452 18.3306 37.0466 16.9117 37.8377 16.2817Z" fill="#6BCDB2"/>
<path d="M27.4403 11.1462C27.7154 11.1462 27.9852 11.0342 28.1798 10.8397C28.3743 10.6451 28.4863 10.3753 28.4863 10.1002C28.4863 9.82509 28.3743 9.55523 28.1798 9.36067C27.9852 9.16612 27.7154 9.0542 27.4403 9.0542C27.1652 9.0542 26.8953 9.16612 26.7008 9.36067C26.5062 9.55523 26.3943 9.82509 26.3943 10.1002C26.3943 10.3753 26.5062 10.6451 26.7008 10.8397C26.8953 11.0342 27.1652 11.1462 27.4403 11.1462Z" fill="#6BCDB2"/>
<path d="M15.3214 8.30632H22.9269C23.5046 8.30632 23.9729 7.83804 23.9729 7.26034C23.9729 6.68264 23.5046 6.21436 22.9269 6.21436H15.3214C14.7437 6.21436 14.2754 6.68264 14.2754 7.26034C14.2754 7.83804 14.7437 8.30632 15.3214 8.30632Z" fill="#6BCDB2"/>
<path d="M6.7142 8.30632H9.58323C10.1609 8.30632 10.6292 7.83804 10.6292 7.26034C10.6292 6.68264 10.1609 6.21436 9.58323 6.21436H6.7142C6.1365 6.21436 5.66821 6.68264 5.66821 7.26034C5.66821 7.83804 6.1365 8.30632 6.7142 8.30632Z" fill="#6BCDB2"/>
<path d="M6.7142 19.464H15.3214C15.8991 19.464 16.3674 18.9958 16.3674 18.4181C16.3674 17.8404 15.8991 17.3721 15.3214 17.3721H6.7142C6.1365 17.3721 5.66821 17.8404 5.66821 18.4181C5.66821 18.9958 6.1365 19.464 6.7142 19.464Z" fill="#6BCDB2"/>
<path d="M6.7142 13.8849H19.1242C19.7019 13.8849 20.1702 13.4166 20.1702 12.839C20.1702 12.2613 19.7019 11.793 19.1242 11.793H6.7142C6.1365 11.793 5.66821 12.2613 5.66821 12.839C5.66821 13.4166 6.1365 13.8849 6.7142 13.8849Z" fill="#6BCDB2"/>
<path d="M6.7142 25.0422H15.3214C15.8991 25.0422 16.3674 24.5739 16.3674 23.9962C16.3674 23.4185 15.8991 22.9502 15.3214 22.9502H6.7142C6.1365 22.9502 5.66821 23.4185 5.66821 23.9962C5.66821 24.5739 6.1365 25.0422 6.7142 25.0422Z" fill="#6BCDB2"/>
<path d="M21.7764 32.5729H17.8016V31.1085C17.8016 30.5308 17.3333 30.0625 16.7556 30.0625H11.7349C11.1572 30.0625 10.6889 30.5308 10.6889 31.1085V34.2464H6.7142C6.1365 34.2464 5.66821 34.7147 5.66821 35.2924V41.9867C5.66821 42.5644 6.1365 43.0327 6.7142 43.0327H21.7764C22.3541 43.0327 22.8224 42.5644 22.8224 41.9867V33.6188C22.8224 33.0411 22.3541 32.5729 21.7764 32.5729ZM7.76018 36.3384H10.6889V40.9407H7.76018V36.3384ZM12.7809 32.1545H15.7097V40.9407H12.7809V32.1545ZM20.7304 40.9407H17.8016V34.6648H20.7304V40.9407Z" fill="#6BCDB2"/>
</svg>
