<svg width="76" height="77" viewBox="0 0 76 77" fill="none" xmlns="http://www.w3.org/2000/svg">
<g clip-path="url(#clip0)">
<path d="M39.3588 59.125H36.6445V61.875H39.3588V59.125Z" fill="#4680C2"/>
<path d="M39.3588 53.625H36.6445V56.375H39.3588V53.625Z" fill="#4680C2"/>
<path d="M57.157 27.2685L54.8398 28.4424L56.0536 30.9018L58.3708 29.728L57.157 27.2685Z" fill="#4680C2"/>
<path d="M75.2747 19.2503C74.2691 17.486 72.4448 16.4998 70.5692 16.5C69.6484 16.5 68.7147 16.7377 67.8602 17.2377C65.7719 18.4594 64.8136 20.8723 65.2894 23.1397L64.1172 23.7335L65.3313 26.1934L66.5171 25.5927C67.5631 26.8056 69.0402 27.5 70.5792 27.5C71.5 27.5 72.4337 27.2621 73.2882 26.7623C75.8839 25.2439 76.7732 21.8807 75.2747 19.2503ZM71.9309 24.3808C71.5121 24.6259 71.0573 24.7502 70.579 24.7502C69.6099 24.7502 68.7077 24.2232 68.2242 23.3748C67.4761 22.0619 67.9218 20.3771 69.2173 19.6194C69.6362 19.3743 70.091 19.25 70.5694 19.25C71.5382 19.25 72.4405 19.777 72.9238 20.6252C73.6721 21.9381 73.2263 23.6228 71.9309 24.3808Z" fill="#4680C2"/>
<path d="M61.7884 24.9089L59.4688 26.084L60.6825 28.5434L63.0021 27.3683L61.7884 24.9089Z" fill="#4680C2"/>
<path d="M52.5188 29.6052L50.1992 30.7803L51.413 33.2399L53.7327 32.0648L52.5188 29.6052Z" fill="#4680C2"/>
<path d="M18.8388 27.2582L17.625 29.7178L19.942 30.8915L21.1559 28.4319L18.8388 27.2582Z" fill="#4680C2"/>
<path d="M14.202 24.9097L12.9883 27.3691L15.3079 28.5442L16.5217 26.0848L14.202 24.9097Z" fill="#4680C2"/>
<path d="M23.4755 29.607L22.2617 32.0664L24.5813 33.2415L25.7951 30.782L23.4755 29.607Z" fill="#4680C2"/>
<path d="M10.7132 23.1395C11.189 20.8723 10.2307 18.4594 8.14239 17.2375C7.28756 16.7377 6.35453 16.4998 5.43354 16.5C3.5578 16.5 1.73313 17.4862 0.727993 19.2503C-0.770628 21.8807 0.118637 25.2438 2.71468 26.7623C3.56951 27.2623 4.50254 27.5 5.4237 27.5C6.96269 27.5 8.44028 26.8053 9.48613 25.5927L10.6716 26.1934L11.8855 23.7333L10.7132 23.1395ZM7.77851 23.3745C7.29502 24.2228 6.3927 24.7498 5.42353 24.7498C4.94548 24.7498 4.49049 24.6257 4.07165 24.3804C2.77609 23.6225 2.33044 21.9379 3.07822 20.6253C3.56204 19.7768 4.46454 19.2498 5.43371 19.2498C5.91159 19.2498 6.3664 19.3739 6.78508 19.6192C8.08064 20.377 8.52646 22.0619 7.77851 23.3745Z" fill="#4680C2"/>
<path d="M40.7129 66.7377C40.2772 66.4828 39.8205 66.2996 39.3561 66.1777V64.625H36.6418V66.1786C35.2809 66.535 34.0564 67.4198 33.2983 68.7503C31.7997 71.3807 32.6889 74.7438 35.285 76.2623C36.1398 76.7621 37.0728 76.9998 37.994 76.9998C39.8697 76.9998 41.6944 76.0134 42.6995 74.2493C44.198 71.6193 43.3087 68.2562 40.7129 66.7377ZM40.349 72.8745C39.8653 73.723 38.963 74.25 37.994 74.25C37.516 74.25 37.061 74.1259 36.6421 73.8806C35.3466 73.1226 34.9009 71.4379 35.6489 70.1253C36.1325 69.277 37.035 68.75 38.0042 68.75C38.4821 68.75 38.9369 68.8741 39.3556 69.1193C40.6511 69.877 41.0968 71.5617 40.349 72.8745Z" fill="#4680C2"/>
<path d="M67.8566 49.5001C65.4598 49.5001 63.3267 50.5686 61.8364 52.2384L47.7891 43.1816C48.4551 41.7566 48.8567 40.1814 48.8567 38.5001C48.8567 37.2207 48.5992 36.011 48.2027 34.8687L49.0954 34.4167L47.8814 31.9566L47.0247 32.3908C45.3178 29.8072 42.5472 28.0465 39.357 27.6386V16.3614C43.2049 15.7038 46.1427 12.3354 46.1427 8.24998C46.1427 3.69359 42.4971 0 37.9999 0C33.5027 0 29.8571 3.69359 29.8571 8.24998C29.8571 12.3354 32.7949 15.7037 36.6428 16.3614V27.6388C33.4526 28.0465 30.682 29.8072 28.9751 32.391L28.1184 31.9568L26.9044 34.4169L27.7971 34.8689C27.4003 36.0112 27.1428 37.2208 27.1428 38.5003C27.1428 40.1815 27.5447 41.7568 28.2104 43.1819L14.1631 52.2387C12.6728 50.5688 10.5397 49.5002 8.14284 49.5002C3.64562 49.5002 0 53.1938 0 57.7502C0 62.3066 3.64562 66.0002 8.14284 66.0002C12.6401 66.0002 16.2857 62.3066 16.2857 57.7502C16.2857 56.6124 16.0577 55.5286 15.6468 54.5422L29.6827 45.4926C31.3986 47.5852 33.8435 49.0039 36.6426 49.3615V50.8751H39.3569V49.3615C42.156 49.0037 44.6005 47.585 46.3168 45.4926L60.3527 54.5422C59.9418 55.5284 59.7138 56.6124 59.7138 57.7502C59.7138 62.3066 63.3594 66.0002 67.8566 66.0002C72.3539 66.0002 75.9995 62.3066 75.9995 57.7502C75.9995 53.1936 72.354 49.5001 67.8566 49.5001ZM8.1425 63.25C5.14916 63.25 2.71394 60.7828 2.71394 57.75C2.71394 54.7171 5.14916 52.2501 8.1425 52.2501C11.1358 52.2501 13.5711 54.7171 13.5711 57.75C13.5711 60.7828 11.1358 63.25 8.1425 63.25ZM32.571 8.25015C32.571 5.21725 35.0062 2.75017 37.9996 2.75017C40.9929 2.75017 43.4281 5.21725 43.4281 8.25015C43.4281 11.2829 40.9929 13.7501 37.9996 13.7501C35.0062 13.7501 32.571 11.2829 32.571 8.25015ZM37.9996 46.7501C33.5098 46.7501 29.8567 43.0489 29.8567 38.5001C29.8567 33.9509 33.5098 30.2501 37.9996 30.2501C42.4893 30.2501 46.1424 33.9509 46.1424 38.5001C46.1424 43.0489 42.4895 46.7501 37.9996 46.7501ZM67.8566 63.25C64.8633 63.25 62.4281 60.7828 62.4281 57.75C62.4281 54.7171 64.8633 52.2501 67.8566 52.2501C70.85 52.2501 73.2852 54.7171 73.2852 57.75C73.2852 60.7828 70.85 63.25 67.8566 63.25Z" fill="#4680C2"/>
</g>
<defs>
<clipPath id="clip0">
<rect width="76" height="77" fill="white"/>
</clipPath>
</defs>
</svg>
