<svg width="55" height="38" viewBox="0 0 55 38" fill="none" xmlns="http://www.w3.org/2000/svg">
<path d="M17.4123 15.0646C16.9003 16.1774 16.545 17.5155 16.5469 18.9993C16.5455 20.4831 16.9003 21.8207 17.4123 22.934C17.9294 24.0575 18.5903 24.958 19.236 25.674L22.8983 22.0122C22.5782 21.6269 22.2845 21.1857 22.075 20.7074C21.8511 20.1908 21.7152 19.6422 21.7133 18.9998C21.7147 18.3263 21.8646 17.7551 22.1083 17.2176C22.3127 16.7667 22.5977 16.3536 22.9011 15.9883L19.2356 12.3223C19.2323 12.3255 19.2286 12.3292 19.2263 12.3324C18.5852 13.0452 17.9248 13.948 17.4123 15.0646Z" fill="#4680C2"/>
<path d="M9.83766 12.0873C8.93203 14.059 8.31456 16.3906 8.31641 18.9965C8.31456 21.6024 8.93157 23.9335 9.83674 25.9048C10.8723 28.1582 12.2622 29.9533 13.5832 31.3289L17.2372 27.6754C17.054 27.4816 16.8695 27.2804 16.6877 27.0681C15.8417 26.0834 15.0337 24.9021 14.4467 23.5584C13.8589 22.2115 13.4847 20.7106 13.4828 18.997C13.4847 17.201 13.8968 15.6363 14.5342 14.2404C15.2404 12.6927 16.2455 11.3667 17.2353 10.32L13.5814 6.66602C13.4199 6.83438 13.2576 7.00736 13.0943 7.18821C11.9287 8.4856 10.7433 10.1118 9.83766 12.0873Z" fill="#4680C2"/>
<path d="M7.00266 1.74388C5.28113 3.66013 3.53972 6.05371 2.21643 8.93895C0.893603 11.821 -0.00138597 15.2048 1.61202e-06 19.0008C-0.00138597 22.7967 0.893141 26.1801 2.2155 29.0612C3.74601 32.3946 5.82506 35.0666 7.79867 37.1091L11.4531 33.4552C11.2042 33.1962 10.9549 32.9302 10.7061 32.6485C9.28245 31.0408 7.88932 29.0769 6.86344 26.8008C5.83709 24.521 5.16828 21.9401 5.16689 19.0003C5.16828 16.0151 5.85883 13.3972 6.91339 11.0911C8.11365 8.4644 9.81019 6.25815 11.4563 4.54171L7.80329 0.888672C7.53734 1.16434 7.27092 1.44602 7.00266 1.74388Z" fill="#4680C2"/>
<path d="M26.9727 21.5039C28.3577 21.5039 29.4805 20.3811 29.4805 18.9961C29.4805 17.6111 28.3577 16.4883 26.9727 16.4883C25.5876 16.4883 24.4648 17.6111 24.4648 18.9961C24.4648 20.3811 25.5876 21.5039 26.9727 21.5039Z" fill="#4680C2"/>
<path d="M36.5874 22.9337C37.0994 21.8208 37.4546 20.4827 37.4528 18.9989C37.4546 17.5152 37.0994 16.1775 36.5874 15.0647C36.0703 13.9412 35.4093 13.0407 34.7636 12.3242L31.1014 15.986C31.4214 16.3713 31.7151 16.8126 31.9242 17.2913C32.1481 17.8075 32.284 18.356 32.2859 18.9989C32.284 19.6724 32.1346 20.2431 31.8909 20.7811C31.6869 21.232 31.4011 21.6451 31.0977 22.0105L34.7636 25.6769C34.7669 25.6732 34.7706 25.67 34.7729 25.6667C35.4144 24.9526 36.0744 24.0507 36.5874 22.9337Z" fill="#4680C2"/>
<path d="M44.1647 25.9115C45.0703 23.9397 45.6878 21.6081 45.6859 19.0023C45.6878 16.3959 45.0708 14.0653 44.1656 12.0935C43.13 9.84008 41.741 8.04548 40.4196 6.66992L36.7656 10.3234C36.9488 10.5172 37.1333 10.7184 37.3151 10.9312C38.1611 11.9159 38.9691 13.0972 39.5565 14.4408C40.1444 15.7877 40.5181 17.2886 40.52 19.0023C40.5181 20.7978 40.106 22.363 39.4691 23.7594C38.7628 25.3065 37.7577 26.633 36.7679 27.6797L40.4214 31.3332C40.5833 31.1653 40.7452 30.9919 40.9085 30.811C42.074 29.5132 43.259 27.8869 44.1647 25.9115Z" fill="#4680C2"/>
<path d="M46.9996 36.2544C48.7211 34.3381 50.4626 31.945 51.7858 29.0593C53.1087 26.1773 54.0037 22.793 54.0023 18.9975C54.0037 15.2016 53.1091 11.8182 51.7868 8.93664C50.2563 5.60367 48.1772 2.93165 46.2041 0.888672L42.5496 4.54263C42.7985 4.80165 43.0473 5.06806 43.2962 5.34974C44.7198 6.95749 46.113 8.92137 47.1393 11.1975C48.1657 13.4768 48.834 16.0582 48.8359 18.998C48.834 21.9836 48.1444 24.601 47.0893 26.9072C45.8886 29.5339 44.1925 31.7397 42.5469 33.4561L46.1994 37.1091C46.4649 36.8339 46.7314 36.5518 46.9996 36.2544Z" fill="#4680C2"/>
</svg>
