<svg width="76" height="76" viewBox="0 0 76 76" fill="none" xmlns="http://www.w3.org/2000/svg">
<g clip-path="url(#clip0)">
<path d="M49.166 34.1275L55.8503 30.308L38.0814 20.1543L20.3125 30.308L26.9968 34.1275L20.3125 37.947L27.1899 41.8768L20.3125 45.8066L38.0814 55.9602L55.8503 45.8066L48.973 41.8768L55.8503 37.947L49.166 34.1275ZM25.4288 30.308L38.0814 23.0779L50.734 30.308L38.0814 37.538L25.4288 30.308ZM50.734 45.8067L38.0814 53.0368L25.4288 45.8067L29.7479 43.3386L38.0814 48.1007L46.4149 43.3386L50.734 45.8067ZM38.0814 45.1772L25.4288 37.9472L29.5549 35.5893L38.0814 40.4616L46.6079 35.5893L50.734 37.9472L38.0814 45.1772Z" fill="#4680C2"/>
<path d="M37.946 0L32.9453 5.00052H36.729V15.1542H39.2166V5.00052H42.9467L37.946 0Z" fill="#4680C2"/>
<path d="M39.2683 70.9994V60.8457H36.7808V70.9994H33.0508L38.0515 76L43.0521 70.9994H39.2683Z" fill="#4680C2"/>
<path d="M5.00052 36.7818V33.0518L0 38.0524L5.00052 43.0531V39.2693H15.1542V36.7818H5.00052Z" fill="#4680C2"/>
<path d="M75.9981 37.9479L70.9974 32.9473V36.7309H60.8438V39.2186H70.9974V42.9486L75.9981 37.9479Z" fill="#4680C2"/>
<path d="M14.5127 12.7146L17.1502 10.0771H10.0783L10.0781 17.1493L12.7538 14.4737L18.1024 19.8221L19.8612 18.0633L14.5127 12.7146Z" fill="#4680C2"/>
<path d="M63.248 61.5265L57.8994 56.1777L56.1406 57.9369L61.4889 63.2853L58.8515 65.9229H65.9234L65.9237 58.8508L63.248 61.5265Z" fill="#4680C2"/>
<path d="M19.8231 57.8985L18.0643 56.1396L12.7159 61.4879L10.0781 58.8505V65.9224H17.1503L14.4747 63.2469L19.8231 57.8985Z" fill="#4680C2"/>
<path d="M58.8486 10.0771L61.5242 12.7528L56.1758 18.1011L57.9346 19.8602L63.283 14.5118L65.9206 17.1492V10.0773L58.8486 10.0771Z" fill="#4680C2"/>
</g>
<defs>
<clipPath id="clip0">
<rect width="76" height="76" fill="white"/>
</clipPath>
</defs>
</svg>
