<svg width="36" height="39" viewBox="0 0 36 39" fill="none" xmlns="http://www.w3.org/2000/svg">
<path d="M27.9013 1.40154C30.5711 0.939602 33.241 0.477515 35.9997 0C35.4781 2.72392 34.964 5.40781 34.4333 8.17976C33.9409 7.68827 33.4599 7.25805 33.0417 6.77283C32.7488 6.43328 32.567 6.503 32.2913 6.77486C30.5532 8.49034 28.8041 10.195 27.0566 11.9015C23.9381 14.9472 20.8139 17.9877 17.7058 21.044C17.4463 21.2991 17.3169 21.2581 17.0858 21.036C15.7815 19.7842 14.4566 18.5535 13.1564 17.2977C12.9029 17.0533 12.7688 17.0345 12.5079 17.298C9.65253 20.1735 6.77958 23.0315 3.92409 25.906C3.66372 26.1695 3.52633 26.2136 3.24573 25.9242C2.41761 25.0698 1.55747 24.2457 0.697189 23.4228C0.507115 23.2408 0.507696 23.1408 0.695879 22.9541C4.70171 18.9778 8.70477 14.9983 12.6939 11.005C12.9771 10.7217 13.1021 10.8963 13.2778 11.0623C14.5691 12.2828 15.8652 13.4991 17.1433 14.7335C17.3536 14.9372 17.4478 14.9213 17.649 14.7269C21.2071 11.2924 24.7748 7.86728 28.3404 4.44041C28.6524 4.14089 28.9515 3.82478 29.287 3.55349C29.5872 3.31059 29.5319 3.14904 29.274 2.91967C28.771 2.47126 28.2925 1.99535 27.8044 1.53093C27.8365 1.48814 27.8694 1.44506 27.9013 1.40154Z" fill="#4680C2"/>
<path d="M9.97513 28.5879H0V38.2922H9.97513V28.5879Z" fill="#4680C2"/>
<path d="M22.8896 24.0137H12.9141V38.2927H22.8896V24.0137Z" fill="#4680C2"/>
<path d="M35.7567 17.793H25.7812V38.303H35.7567V17.793Z" fill="#4680C2"/>
</svg>
