<svg width="80" height="81" viewBox="0 0 80 81" fill="none" xmlns="http://www.w3.org/2000/svg">
<path d="M39.998 23.5695C41.1037 23.5695 42 22.662 42 21.5426C42 20.4231 41.1037 19.5156 39.998 19.5156C38.8924 19.5156 37.9961 20.4231 37.9961 21.5426C37.9961 22.662 38.8924 23.5695 39.998 23.5695Z" fill="#4680C2"/>
<path d="M23.9857 40.4609C18.089 40.4609 13.3086 45.3006 13.3086 51.2714C13.3086 57.2418 18.0889 62.0818 23.9857 62.0818C24.992 62.0818 25.9465 61.8957 26.8695 61.6322C26.7441 60.8982 26.6548 60.151 26.6548 59.3794C26.6548 59.2032 26.6992 59.0395 26.7058 58.865C25.8527 59.1795 24.9448 59.3792 23.9856 59.3792C19.57 59.3792 15.9777 55.7418 15.9777 51.2714C15.9777 46.8009 19.5701 43.1635 23.9856 43.1635C27.5967 43.1635 30.6216 45.6123 31.6168 48.9441C32.3326 48.3536 33.1019 47.8411 33.9297 47.4095C32.3913 43.3527 28.5339 40.4609 23.9857 40.4609Z" fill="#4680C2"/>
<path d="M6.75012 68.2321C8.64761 67.3298 11.7866 66.1366 16.1949 65.4145C18.5867 66.7727 21.2601 67.486 23.9887 67.486C25.6482 67.486 27.2783 67.1914 28.8458 66.6793C28.3528 65.9182 27.9189 65.1167 27.5832 64.2608C26.4391 64.5902 25.2381 64.7834 23.9887 64.7834C21.3143 64.7834 18.8354 63.9683 16.7474 62.5967C11.68 63.32 7.94794 64.6768 5.61569 65.7861C3.77258 66.6622 2.63215 68.5767 2.63281 70.6379V75.594H16.616C17.0387 74.5728 17.6626 73.6539 18.4479 72.8914H5.30189V70.6371C5.30172 69.5944 5.86977 68.6505 6.75012 68.2321Z" fill="#4680C2"/>
<path d="M56.0183 40.4609C51.4703 40.4609 47.6127 43.3529 46.0742 47.4093C46.9022 47.8411 47.6714 48.3534 48.3871 48.9437C49.3824 45.6119 52.4073 43.1635 56.0183 43.1635C60.4339 43.1635 64.0262 46.8009 64.0262 51.2714C64.0262 55.7418 60.4337 59.3792 56.0183 59.3792C55.0594 59.3792 54.1517 59.1795 53.2987 58.8652C53.3052 59.0398 53.3497 59.2032 53.3497 59.3794C53.3497 60.151 53.2605 60.8986 53.135 61.6325C54.0579 61.8957 55.0122 62.0818 56.0181 62.0818C61.9148 62.0818 66.6953 57.2418 66.6953 51.2714C66.6954 45.3006 61.9152 40.4609 56.0183 40.4609Z" fill="#4680C2"/>
<path d="M74.3854 65.7866C72.0536 64.6775 68.3235 63.3211 63.2575 62.5977C61.1695 63.9691 58.6906 64.7841 56.0162 64.7841C54.7671 64.7841 53.5663 64.5912 52.4225 64.2618C52.0867 65.1175 51.6528 65.9188 51.1602 66.6801C52.7275 67.1921 54.3571 67.4867 56.0162 67.4867C58.745 67.4867 61.4182 66.7735 63.8099 65.4155C68.2166 66.1377 71.354 67.3304 73.2508 68.2326C74.13 68.6507 74.6984 69.5944 74.6984 70.6369V72.8919H61.5534C62.3383 73.6544 62.9624 74.5732 63.385 75.5945H77.3674V70.6369C77.3674 68.5763 76.2277 66.6625 74.3854 65.7866Z" fill="#4680C2"/>
<path d="M40.0014 48.5684C34.1047 48.5684 29.3242 53.4084 29.3242 59.379C29.3242 65.3494 34.1045 70.1892 40.0014 70.1892C45.898 70.1892 50.6785 65.3492 50.6785 59.379C50.6785 53.4082 45.8982 48.5684 40.0014 48.5684ZM40.0014 67.4866C35.5858 67.4866 31.9935 63.8496 31.9935 59.379C31.9935 54.9082 35.5859 51.271 40.0014 51.271C44.4168 51.271 48.0092 54.9083 48.0092 59.379C48.0092 63.8496 44.4169 67.4866 40.0014 67.4866Z" fill="#4680C2"/>
<path d="M58.3732 73.8943C56.0415 72.7852 52.3114 71.4289 47.2453 70.7054C45.1573 72.0768 42.6784 72.8918 40.004 72.8918C37.3296 72.8918 34.8507 72.0767 32.7627 70.7051C27.6953 71.4284 23.9632 72.7852 21.631 73.8945C19.7882 74.7706 18.6478 76.6851 18.6484 78.7464V80.9998H61.3556V78.7448C61.3553 76.6841 60.2155 74.7703 58.3732 73.8943ZM21.3527 78.297C21.4893 77.439 22.0137 76.6981 22.7656 76.3407C24.6631 75.4384 27.8021 74.2452 32.2103 73.5229C34.6022 74.8811 37.2756 75.5944 40.0042 75.5944C42.7328 75.5944 45.4062 74.8813 47.7979 73.5232C52.2046 74.2455 55.342 75.4384 57.2388 76.3404C57.9902 76.6976 58.5144 77.4386 58.651 78.2969H21.3527V78.297Z" fill="#4680C2"/>
<path d="M55.8734 20.2696C55.2304 12.4376 49.0725 6.20248 41.337 5.55149V0H38.6678V5.55149C30.9325 6.20248 24.7743 12.4376 24.1314 20.2696H18.6484V22.9722H24.1314C24.7764 30.8298 30.9735 37.0779 38.7447 37.6943V43.164H41.4139V37.6865C49.1133 37.0011 55.2326 30.7786 55.8734 22.9723H61.3563V20.2697H55.8734V20.2696ZM53.1367 22.9722C52.5043 29.2621 47.6157 34.2349 41.4139 34.9113V29.6508H38.7447V34.927C32.4709 34.3177 27.5058 29.314 26.8682 22.9722H31.9948V20.2696H26.8682C27.5031 13.9536 32.4299 8.96539 38.6679 8.32234V13.513H41.3372V8.32234C47.5752 8.96522 52.5018 13.9536 53.1369 20.2696H48.0103V22.9722H53.1367Z" fill="#4680C2"/>
</svg>
