<svg width="71" height="71" viewBox="0 0 71 71" fill="none" xmlns="http://www.w3.org/2000/svg">
<path d="M68.2419 68.4646V34.5936H65.9839V30.0775H63.7258V23.3033H61.4677V18.7872H59.2097V23.3033H56.9516V30.0775H54.6936V4.9904L47.9194 6.34524V2.98072H45.6613V6.79685L43.4032 7.24846V0.722656H41.1452V7.70008L38.8871 8.15169V2.98072H36.629V8.60443L29.8548 9.95927V16.5291H9.53226V18.7872H11.7903V32.4383C11.42 32.3773 11.0452 32.3356 10.6613 32.3356C6.30435 32.3356 2.75806 36.3877 2.75806 41.3678C2.75806 45.9088 5.70935 49.6673 9.53226 50.2973V51.7685C8.58726 50.9138 7.41645 50.4001 6.14516 50.4001C3.03242 50.4001 0.5 53.4383 0.5 57.1743C0.5 60.4462 2.44306 63.1819 5.01613 63.8119V68.4646H0.5V70.7227H70.5V68.4646H68.2419ZM18.5645 67.3356C18.5645 65.4681 20.0842 63.9485 21.9516 63.9485C23.171 63.9485 24.3023 64.6089 24.904 65.6725L25.254 66.2923L26.4677 66.2065C26.7997 66.2065 27.1497 66.2709 27.5381 66.4018L28.6355 66.7699L28.9776 65.6646C29.7126 63.288 31.8803 61.6904 34.371 61.6904C36.4235 61.6904 38.3181 62.8093 39.315 64.6112L40.0206 65.8893L41.0797 64.8844C42.3521 63.6786 44.4532 63.6786 45.7256 64.8844L46.7847 65.8893L47.4903 64.6112C48.4884 62.8093 50.3829 61.6904 52.4355 61.6904C54.8866 61.6904 57.0431 63.2575 57.8018 65.5901L58.119 66.5644L59.1205 66.3431C61.3582 65.8464 63.5452 66.7677 64.8311 68.4646H18.7835C18.6548 68.101 18.5645 67.7251 18.5645 67.3356ZM65.9839 36.8517V66.3612C65.329 65.6906 64.5692 65.1385 63.7258 64.7343V39.1098H47.9194V60.8662C47.286 61.3088 46.709 61.8349 46.2235 62.4514C46.0429 62.3464 45.8532 62.2572 45.6613 62.1748V36.8517H65.9839ZM52.4355 59.4323C51.6587 59.4323 50.9011 59.5588 50.1774 59.7756V41.3678H54.6936V59.7598C53.9744 59.5464 53.2156 59.4323 52.4355 59.4323ZM56.9516 41.3678H61.4677V64.0546C60.8547 63.9654 60.2303 63.9225 59.5924 63.9846C58.9952 62.7054 58.0716 61.6464 56.9516 60.8639V41.3678ZM47.9194 34.5936V32.3356H63.7258V34.5936H47.9194ZM59.2097 25.5614H61.4677V30.0775H59.2097V25.5614ZM52.4355 7.74524V30.0775H45.6613V34.5936H43.4032V61.7073C42.4187 61.7073 41.4353 61.9557 40.5829 62.4514C39.0982 60.5648 36.8153 59.4323 34.371 59.4323C33.5897 59.4323 32.831 59.5452 32.1129 59.7564V11.8086L52.4355 7.74524ZM14.0484 18.7872H29.8548V60.856C28.7258 61.6418 27.7977 62.711 27.2005 64.0049C26.9623 63.9722 26.7206 63.9541 26.47 63.9518C25.4121 62.5417 23.7389 61.6904 21.9516 61.6904C18.8389 61.6904 16.3065 64.2228 16.3065 67.3356C16.3065 67.7172 16.3573 68.0931 16.4329 68.4646H11.7903V64.3651L18.5645 56.463V53.6844C22.3874 53.0544 25.3387 49.2959 25.3387 44.7549C25.3387 41.3565 23.6858 38.3928 21.2527 36.8517H23.0806V34.5936H20.8226V36.6067C19.794 36.0456 18.6481 35.7227 17.4355 35.7227C17.2413 35.7227 17.0426 35.7351 16.8416 35.7543C16.0953 34.6828 15.1402 33.8146 14.0484 33.2196V18.7872ZM18.5645 41.3678C18.5645 40.1823 18.3579 39.0522 17.9932 38.0146C20.8452 38.3522 23.0806 41.2459 23.0806 44.7549C23.0806 48.4909 20.5482 51.5291 17.4355 51.5291C16.0106 51.5291 14.6569 50.8731 13.6239 49.7351C16.5165 48.3927 18.5645 45.1501 18.5645 41.3678ZM11.7903 51.056C13.0018 52.4764 14.5813 53.4044 16.3065 53.6878V55.6286L11.7903 60.8978V51.056ZM5.01613 41.3678C5.01613 37.6319 7.54855 34.5936 10.6613 34.5936C13.774 34.5936 16.3065 37.6319 16.3065 41.3678C16.3065 44.6398 14.3634 47.3754 11.7903 48.0054V40.2388H9.53226V48.0054C6.95919 47.3754 5.01613 44.6398 5.01613 41.3678ZM2.75806 57.1743C2.75806 54.6836 4.27774 52.6581 6.14516 52.6581C8.01258 52.6581 9.53226 54.6836 9.53226 57.1743C9.53226 59.6649 8.01258 61.6904 6.14516 61.6904C4.27774 61.6904 2.75806 59.6649 2.75806 57.1743ZM7.27419 63.8119C8.10968 63.6075 8.87516 63.1751 9.53226 62.5812V68.4646H7.27419V63.8119Z" fill="#4680C2"/>
<path d="M41.1452 14.2705H34.371V23.3028H41.1452V14.2705ZM38.8871 21.0447H36.629V16.5286H38.8871V21.0447Z" fill="#4680C2"/>
<path d="M41.1452 25.5615H34.371V34.5938H41.1452V25.5615ZM38.8871 32.3357H36.629V27.8196H38.8871V32.3357Z" fill="#4680C2"/>
<path d="M41.1452 36.8516H34.371V45.8838H41.1452V36.8516ZM38.8871 43.6258H36.629V39.1096H38.8871V43.6258Z" fill="#4680C2"/>
<path d="M41.1452 48.1416H34.371V57.1739H41.1452V48.1416ZM38.8871 54.9158H36.629V50.3997H38.8871V54.9158Z" fill="#4680C2"/>
<path d="M50.1774 14.2705H43.4032V23.3028H50.1774V14.2705ZM47.9193 21.0447H45.6613V16.5286H47.9193V21.0447Z" fill="#4680C2"/>
<path d="M16.3063 21.0449H18.5643V23.303H16.3063V21.0449Z" fill="#4680C2"/>
<path d="M20.8228 21.0449H23.0808V23.303H20.8228V21.0449Z" fill="#4680C2"/>
<path d="M25.3388 21.0449H27.5969V23.303H25.3388V21.0449Z" fill="#4680C2"/>
<path d="M16.3063 25.5615H18.5643V27.8196H16.3063V25.5615Z" fill="#4680C2"/>
<path d="M20.8228 25.5615H23.0808V27.8196H20.8228V25.5615Z" fill="#4680C2"/>
<path d="M25.3388 25.5615H27.5969V27.8196H25.3388V25.5615Z" fill="#4680C2"/>
<path d="M20.8228 30.0771H23.0808V32.3352H20.8228V30.0771Z" fill="#4680C2"/>
<path d="M16.3063 30.0771H18.5643V32.3352H16.3063V30.0771Z" fill="#4680C2"/>
<path d="M25.3388 30.0771H27.5969V32.3352H25.3388V30.0771Z" fill="#4680C2"/>
<path d="M25.3388 34.5938H27.5969V36.8518H25.3388V34.5938Z" fill="#4680C2"/>
</svg>
