<svg width="74" height="75" viewBox="0 0 74 75" fill="none" xmlns="http://www.w3.org/2000/svg">
<path d="M73.0333 41.2416C70.7233 39.6531 67.9991 40.1032 65.5878 41.5145C63.1764 42.9258 49.3295 54.8995 49.3295 54.8995L35.7007 54.9017C35.0678 54.9017 34.3801 54.2021 34.3801 53.5632C34.3801 52.8103 35.0274 52.2247 35.7007 52.2247H44.0397C46.9578 52.2247 50.2259 50.2982 50.2259 46.8695C50.2259 43.2293 46.9578 41.5143 44.0397 41.5143C38.9768 41.5143 37.9906 41.5346 37.9906 41.5346C35.9621 41.5346 33.9053 41.4109 32.3203 40.5508C30.206 39.4602 27.7709 38.8398 25.1718 38.8398C20.8072 38.8398 16.9009 40.6033 14.2241 43.3844L0 57.5763L15.8478 73.6383L21.1305 68.2848H47.8795C50.5417 68.2848 53.1116 67.295 55.1018 65.5031L73.2137 44.9106C74.3201 43.9149 74.2577 42.0835 73.0333 41.2416ZM53.2397 63.5972C51.7472 64.8951 49.8494 65.6097 47.8795 65.6097L19.8529 65.6113L15.8478 69.8526L3.74999 57.5912L16.1149 45.2533C18.4007 42.8786 21.7018 41.5165 25.172 41.5165C27.2639 41.5165 29.3216 42.0074 31.074 42.9107C33.1806 44.0538 35.6434 44.2114 37.9907 44.2114C37.9907 44.2114 39.0027 44.1912 44.0398 44.1912C44.0753 44.1912 47.5848 44.2216 47.5848 46.8693C47.5848 48.6964 45.4694 49.5475 44.0398 49.5475H35.481C33.641 49.5473 31.6957 50.9006 31.6957 53.7415C31.6957 55.8569 33.3838 57.578 35.4817 57.578L50.2674 57.5757C50.2674 57.5757 65.8243 44.4319 67.0793 43.7346C68.3342 43.0374 69.8634 42.5786 71.1581 43.2243L53.2397 63.5972Z" fill="#4680C2"/>
<path d="M15.8477 1.36133V33.4853H68.6738V1.36133H15.8477ZM18.489 4.03833H23.3371C22.5371 6.32566 20.7473 8.12326 18.489 8.93239V4.03833ZM18.489 30.8083V25.9288C20.7407 26.7371 22.5199 28.5305 23.3194 30.8083H18.489ZM66.0325 30.8083H61.2128C62.0106 28.5215 63.7811 26.7062 66.0325 25.8949V30.8083ZM66.0325 23.1852C62.3495 24.1585 59.4725 27.0682 58.518 30.8083H26.0068C25.0495 27.0749 22.1771 24.1608 18.489 23.1928V11.6684C22.1772 10.7005 25.046 7.7781 26.0045 4.03816H58.5147C59.4721 7.77994 62.3455 10.6975 66.0325 11.6688V23.1852ZM66.0325 8.9543C63.7707 8.14485 61.9812 6.32984 61.1807 4.03833H66.0325V8.9543Z" fill="#4680C2"/>
<path d="M56.7862 13.4072C54.598 13.4072 52.8242 15.2048 52.8242 17.4227C52.8242 19.6403 54.598 21.4382 56.7862 21.4382C58.9743 21.4382 60.7481 19.6403 60.7481 17.4227C60.7481 15.2048 58.9743 13.4072 56.7862 13.4072ZM56.7862 18.7612C56.058 18.7612 55.4655 18.1607 55.4655 17.4227C55.4655 16.6847 56.058 16.0842 56.7862 16.0842C57.5143 16.0842 58.1068 16.6847 58.1068 17.4227C58.1068 18.1607 57.5143 18.7612 56.7862 18.7612Z" fill="#4680C2"/>
<path d="M42.2599 6.71582C37.8835 6.71582 34.3359 11.51 34.3359 17.4238C34.3359 23.3376 37.8835 28.1318 42.2599 28.1318C46.6362 28.1318 50.1838 23.3376 50.1838 17.4238C50.1838 11.51 46.6362 6.71582 42.2599 6.71582ZM42.2599 25.4548C39.3964 25.4548 36.9772 21.777 36.9772 17.4238C36.9772 13.0707 39.3964 9.39282 42.2599 9.39282C45.1234 9.39282 47.5425 13.0707 47.5425 17.4238C47.5425 21.777 45.1234 25.4548 42.2599 25.4548Z" fill="#4680C2"/>
<path d="M27.7354 13.4072C25.5472 13.4072 23.7734 15.2048 23.7734 17.4227C23.7734 19.6403 25.5472 21.4382 27.7354 21.4382C29.9236 21.4382 31.6974 19.6403 31.6974 17.4227C31.6974 15.2048 29.9236 13.4072 27.7354 13.4072ZM27.7354 18.7612C27.0072 18.7612 26.4147 18.1607 26.4147 17.4227C26.4147 16.6847 27.0072 16.0842 27.7354 16.0842C28.4636 16.0842 29.0561 16.6847 29.0561 17.4227C29.0561 18.1607 28.4636 18.7612 27.7354 18.7612Z" fill="#4680C2"/>
</svg>
