<svg width="71" height="71" viewBox="0 0 71 71" fill="none" xmlns="http://www.w3.org/2000/svg">
<path d="M0.894043 68.4648H70.894V70.7229H0.894043V68.4648Z" fill="#4680C2"/>
<path d="M28.2946 8.53104C30.7559 7.84572 33.3132 7.49685 35.8941 7.49685C42.7587 7.49685 49.3003 9.95701 54.443 14.4483L51.7503 17.141L64.5422 20.3385L61.3448 7.54653L59.238 9.6533C52.8059 3.8862 44.5595 0.722656 35.8941 0.722656C32.7283 0.722656 29.5896 1.14604 26.5616 1.9804L25.7328 2.20846V8.67895L28.044 8.57056L28.2946 8.53104ZM27.9909 3.94153C30.5651 3.30362 33.2206 2.98072 35.8941 2.98072C44.3438 2.98072 52.369 6.19733 58.4895 12.0367L59.2877 12.7977L60.1209 11.9644L61.4396 17.237L56.167 15.9183L57.6958 14.3896L56.8535 13.5925C51.1711 8.20475 43.7262 5.23879 35.8941 5.23879C33.2138 5.23879 30.5561 5.58766 27.9909 6.27298V3.94153Z" fill="#4680C2"/>
<path d="M2.15179 45.0549L2.37985 45.8836H8.85033L8.74195 43.5724L8.7013 43.3218C8.01711 40.8605 7.66824 38.3033 7.66824 35.7223C7.66824 28.8589 10.1284 22.3162 14.6197 17.1723L17.3124 19.8662L20.5098 7.07422L7.71791 10.2716L9.82469 12.3784C4.05759 18.8105 0.894043 27.057 0.894043 35.7223C0.894043 38.8881 1.31743 42.0268 2.15179 45.0549ZM12.2081 13.127L12.969 12.3287L12.1358 11.4955L17.4084 10.1768L16.0897 15.4494L14.561 13.9195L13.7639 14.7618C8.37614 20.4465 5.41017 27.8902 5.41017 35.7223C5.41017 38.4026 5.75904 41.0603 6.44437 43.6255H4.11291C3.47501 41.0513 3.15211 38.3958 3.15211 35.7223C3.15211 27.2726 6.36872 19.2474 12.2081 13.127Z" fill="#4680C2"/>
<path d="M63.045 24.4859L63.0857 24.7366C63.771 27.1979 64.1199 29.7551 64.1199 32.3361C64.1199 39.1995 61.6597 45.7422 57.1684 50.8861L54.4757 48.1922L51.2783 60.9842L64.0702 57.7867L61.9634 55.68C67.7305 49.2479 70.8941 41.0014 70.8941 32.3361C70.8941 29.1703 70.4707 26.0316 69.6363 23.0035L69.4083 22.1748H62.9378L63.045 24.4859ZM67.6752 24.4329C68.3131 27.0071 68.636 29.6625 68.636 32.3361C68.636 40.7858 65.4194 48.8109 59.58 54.9314L58.8191 55.7296L59.6523 56.5629L54.3797 57.8816L55.6984 52.609L57.2271 54.1388L58.0242 53.2966C63.412 47.6119 66.3779 40.1693 66.3779 32.3361C66.3779 29.6558 66.0291 26.998 65.3437 24.4329H67.6752Z" fill="#4680C2"/>
<path d="M24.6038 43.626H26.8619V45.884H24.6038V43.626Z" fill="#4680C2"/>
<path d="M15.5715 43.626H17.8296V45.884H15.5715V43.626Z" fill="#4680C2"/>
<path d="M20.0877 43.626H22.3457V45.884H20.0877V43.626Z" fill="#4680C2"/>
<path d="M20.0877 48.1416H22.3457V50.3997H20.0877V48.1416Z" fill="#4680C2"/>
<path d="M15.5715 48.1416H17.8296V50.3997H15.5715V48.1416Z" fill="#4680C2"/>
<path d="M24.6038 48.1416H26.8619V50.3997H24.6038V48.1416Z" fill="#4680C2"/>
<path d="M20.0877 52.6582H22.3457V54.9163H20.0877V52.6582Z" fill="#4680C2"/>
<path d="M24.6038 52.6582H26.8619V54.9163H24.6038V52.6582Z" fill="#4680C2"/>
<path d="M15.5715 52.6582H17.8296V54.9163H15.5715V52.6582Z" fill="#4680C2"/>
<path d="M15.5715 57.1738H17.8296V59.4319H15.5715V57.1738Z" fill="#4680C2"/>
<path d="M24.6038 57.1738H26.8619V59.4319H24.6038V57.1738Z" fill="#4680C2"/>
<path d="M20.0877 57.1738H22.3457V59.4319H20.0877V57.1738Z" fill="#4680C2"/>
<path d="M17.8296 34.5938H20.0877V36.8518H17.8296V34.5938Z" fill="#4680C2"/>
<path d="M26.8619 34.5938H29.1199V36.8518H26.8619V34.5938Z" fill="#4680C2"/>
<path d="M22.3457 34.5938H24.6038V36.8518H22.3457V34.5938Z" fill="#4680C2"/>
<path d="M31.3778 34.5938H33.6359V36.8518H31.3778V34.5938Z" fill="#4680C2"/>
<path d="M26.8619 30.0781H29.1199V32.3362H26.8619V30.0781Z" fill="#4680C2"/>
<path d="M31.3778 30.0781H33.6359V32.3362H31.3778V30.0781Z" fill="#4680C2"/>
<path d="M22.3457 30.0781H24.6038V32.3362H22.3457V30.0781Z" fill="#4680C2"/>
<path d="M17.8296 30.0781H20.0877V32.3362H17.8296V30.0781Z" fill="#4680C2"/>
<path d="M17.8296 25.5615H20.0877V27.8196H17.8296V25.5615Z" fill="#4680C2"/>
<path d="M26.8619 25.5615H29.1199V27.8196H26.8619V25.5615Z" fill="#4680C2"/>
<path d="M22.3457 25.5615H24.6038V27.8196H22.3457V25.5615Z" fill="#4680C2"/>
<path d="M31.3778 25.5615H33.6359V27.8196H31.3778V25.5615Z" fill="#4680C2"/>
<path d="M49.4424 48.1417H52.8295C57.1865 48.1417 60.7328 44.5954 60.7328 40.2385V39.1094H55.0876C52.8769 39.1094 50.8786 40.024 49.4424 41.4928V36.8514H52.8295C57.1865 36.8514 60.7328 33.3051 60.7328 28.9481V27.8191H55.0876C52.8442 27.8191 50.8221 28.763 49.3815 30.2691C48.9163 26.3525 45.5789 23.303 41.5392 23.303H38.1521V21.0449H13.3134V39.1094H11.0553V61.6901H0.894043V63.9481H70.894V61.6901H49.4424V48.1417ZM55.0876 41.3675H58.3607C57.8357 43.9406 55.5561 45.8836 52.8295 45.8836H49.5565C50.0803 43.3106 52.361 41.3675 55.0876 41.3675ZM55.0876 30.0772H58.3607C57.8357 32.6502 55.5561 34.5933 52.8295 34.5933H49.5565C50.0803 32.0202 52.361 30.0772 55.0876 30.0772ZM47.1844 61.6901H38.1521V41.2422C39.5882 42.7111 41.5866 43.6256 43.7973 43.6256H47.1844V47.0127V48.1417V61.6901ZM38.2661 36.8514H41.5392C44.2658 36.8514 46.5465 38.7944 47.0703 41.3675H43.7973C41.0707 41.3675 38.79 39.4244 38.2661 36.8514ZM41.5392 25.5611C44.2658 25.5611 46.5465 27.5041 47.0703 30.0772H43.7973C41.0707 30.0772 38.79 28.1341 38.2661 25.5611H41.5392ZM43.7973 32.3352H47.1844V35.7223V36.8514V36.9767C45.7482 35.5078 43.7498 34.5933 41.5392 34.5933H38.1521V29.9519C39.5882 31.4207 41.5866 32.3352 43.7973 32.3352ZM15.5715 23.303H35.894V24.432V34.5933V35.7223V61.6901H31.3779V39.1094H15.5715V23.303ZM13.3134 41.3675H29.1199V61.6901H13.3134V41.3675Z" fill="#4680C2"/>
</svg>
