<svg width="40" height="40" viewBox="0 0 40 40" fill="none" xmlns="http://www.w3.org/2000/svg">
<path d="M40 0H0V40H40V0Z" fill="black"/>
<path d="M20.3335 10C16.1067 10 12.667 13.4428 12.667 17.675C12.667 19.3923 13.2537 21.0813 14.3212 22.4321L20.3335 30L26.349 22.4285C27.4136 21.0813 28.0003 19.3919 28.0003 17.6746C28 13.4428 24.5613 10 20.3335 10ZM20.3335 20.5361C18.7579 20.5361 17.4755 19.2523 17.4755 17.675C17.4755 16.0969 18.7579 14.8138 20.3335 14.8138C21.9098 14.8138 23.1915 16.0969 23.1915 17.675C23.1915 19.2523 21.9098 20.5361 20.3335 20.5361Z" fill="white"/>
</svg>
