<svg width="40" height="40" viewBox="0 0 40 40" fill="none" xmlns="http://www.w3.org/2000/svg">
<path d="M40 0H0V40H40V0Z" fill="black"/>
<path d="M10.0001 28.3567V19.6635H30V28.3567C30 29.2628 29.2664 30 28.3647 30H11.6354C10.7337 30 10.0001 29.2628 10.0001 28.3567ZM14.321 10.5C14.622 10.5 14.8661 10.7452 14.8661 11.0478V13.5514H25.3772V11.0478C25.3772 10.7452 25.6213 10.5 25.9223 10.5C26.2233 10.5 26.4674 10.7452 26.4674 11.0478V13.5514H28.3646C29.2663 13.5514 29.9999 14.2886 29.9999 15.1947V18.568H10V15.1947C10 14.2886 10.7336 13.5514 11.6353 13.5514H13.7759V11.0478C13.7759 10.7452 14.02 10.5 14.321 10.5Z" fill="white"/>
</svg>
