<svg width="40" height="40" viewBox="0 0 40 40" fill="none" xmlns="http://www.w3.org/2000/svg">
<path d="M40 0H0V40H40V0Z" fill="black"/>
<path d="M11.5503 29C10.6954 29 10 28.3135 10 27.4696V20.5587H13.1006V27.4696C13.1006 28.3135 12.4051 29 11.5503 29ZM30 26.9717C30 28.0901 29.0783 29 27.9453 29H13.4916C13.8319 28.5801 14.0357 28.0479 14.0357 27.4696V11H30V26.9717ZM16.5888 15.3846V16.3077H22.757V15.3846H16.5888ZM16.5888 23.2308V24.2H27.1495V23.2308H16.5888ZM16.5888 18.8462V19.8154H27.1495V18.8462H16.5888Z" fill="white"/>
</svg>
