<svg width="40" height="40" viewBox="0 0 40 40" fill="none" xmlns="http://www.w3.org/2000/svg">
<path d="M40 0H0V40H40V0Z" fill="black"/>
<path d="M15.4163 29.1663H12.6663C12.1801 29.1663 11.7138 28.9732 11.37 28.6294C11.0262 28.2856 10.833 27.8192 10.833 27.333V20.9163C10.833 20.4301 11.0262 19.9638 11.37 19.62C11.7138 19.2762 12.1801 19.083 12.6663 19.083H15.4163M21.833 17.2497V13.583C21.833 12.8537 21.5433 12.1542 21.0276 11.6385C20.5118 11.1227 19.8124 10.833 19.083 10.833L15.4163 19.083V29.1663H25.7563C26.1985 29.1713 26.6275 29.0164 26.9644 28.73C27.3013 28.4436 27.5234 28.0452 27.5897 27.608L28.8547 19.358C28.8946 19.0953 28.8768 18.827 28.8027 18.5717C28.7286 18.3165 28.5999 18.0804 28.4255 17.8799C28.2512 17.6793 28.0352 17.5191 27.7928 17.4103C27.5503 17.3015 27.2871 17.2467 27.0213 17.2497H21.833Z" stroke="white" stroke-width="2" stroke-linecap="round" stroke-linejoin="round"/>
</svg>
