<svg width="335" height="242" viewBox="0 0 335 242" fill="none" xmlns="http://www.w3.org/2000/svg">
<path d="M314.57 0H248.207V3.18993H278.491L206.043 94.828L143.158 3.18993H172.861V0H61.1465V3.18993H90.8502L177.933 130.207L92.1543 238.81H62.4505V242H128.813V238.81H96.9358L180.251 133.542L252.699 238.81H222.996V242H335V238.81H305.297L208.361 98.018L283.272 3.18993H314.57V0Z" fill="#CECECC"/>
<path d="M24.1973 50.1689L18.6912 65.6836L13.3301 50.1689H0.144531V82.2133H9.27299V63.2187L16.3729 82.2133H19.7055L27.0952 63.2187V82.2133H37.0931V50.1689H24.1973Z" fill="#002C55"/>
<path d="M65.0589 66.2636V65.9736C65.0589 60.6087 62.4507 57.5637 58.3936 57.5637C54.4814 57.5637 51.8733 60.4637 51.8733 65.9736V66.2636C51.8733 71.7734 54.4814 74.6734 58.3936 74.6734C62.4507 74.8184 65.0589 71.6284 65.0589 66.2636ZM41.2959 66.4085V66.1186C41.2959 56.2588 48.8305 49.7339 58.3936 49.7339C68.2466 49.7339 75.4914 55.6788 75.4914 65.8286V66.1186C75.4914 76.1233 68.6813 82.7932 58.1039 82.7932C47.6713 82.7932 41.2959 76.1233 41.2959 66.4085Z" fill="#002C55"/>
<path d="M77.085 71.9184H86.6481C86.793 73.9484 87.8073 75.5434 91.1399 75.5434C93.4582 75.5434 94.6174 74.5284 94.6174 72.9334C94.6174 71.1934 93.4582 70.7585 90.1256 70.1785C80.8523 69.1635 77.8094 66.4085 77.8094 59.8837C77.8094 53.9388 82.591 49.7339 90.5603 49.7339C98.5296 49.7339 102.876 52.9238 103.456 59.8837H94.1827C93.8929 57.8537 92.8786 56.8387 90.7052 56.8387C88.6767 56.8387 87.5175 57.7087 87.5175 59.1587C87.5175 60.6087 88.3869 61.3337 92.0093 61.9136C100.123 62.7836 104.47 64.8136 104.47 71.9184C104.47 77.8633 99.8337 82.7932 91.2848 82.7932C82.1563 82.7932 77.3748 79.1683 77.085 71.9184Z" fill="#002C55"/>
<path d="M106.789 66.4085V66.1186C106.789 56.2588 113.889 49.7339 123.307 49.7339C132.001 49.7339 137.797 53.6488 138.521 62.3486H128.089C127.799 59.4487 126.205 57.7087 123.452 57.7087C119.83 57.7087 117.511 60.6087 117.511 65.9736V66.2636C117.511 71.6284 119.685 74.5284 123.597 74.5284C126.495 74.5284 128.523 73.0784 128.813 69.8885H138.956C138.376 78.2983 132.291 82.7932 123.742 82.7932C112.15 82.7932 106.789 76.1233 106.789 66.4085Z" fill="#002C55"/>
<path d="M164.602 66.2636V65.9736C164.602 60.6087 161.994 57.5637 157.937 57.5637C154.024 57.5637 151.416 60.4637 151.416 65.9736V66.2636C151.416 71.7734 154.024 74.6734 157.937 74.6734C161.994 74.8184 164.602 71.6284 164.602 66.2636ZM140.839 66.4085V66.1186C140.839 56.2588 148.373 49.7339 157.937 49.7339C167.79 49.7339 175.034 55.6788 175.034 65.8286V66.1186C175.034 76.1233 168.224 82.7932 157.647 82.7932C147.359 82.7932 140.839 76.1233 140.839 66.4085Z" fill="#002C55"/>
<path d="M210.389 50.1689L206.477 69.4535L202.13 50.1689H193.436L189.524 69.3085L185.902 50.1689H175.614L183.004 82.2133H193.147L197.638 63.0737L202.13 82.2133H212.418L219.808 50.1689H210.389Z" fill="#002C55"/>
<path d="M0 105.558V86.7083H10.1427V105.123C10.1427 109.328 11.0121 111.358 14.6345 111.358C18.2569 111.358 19.1263 109.328 19.1263 105.123V86.7083H29.269V105.413C29.269 114.983 23.6181 119.333 14.6345 119.333C5.21626 119.333 0 114.693 0 105.558Z" fill="#002C55"/>
<path d="M46.3673 101.208C49.1204 101.208 50.5693 100.048 50.5693 97.728V97.583C50.5693 95.2631 49.1203 94.3931 46.5122 94.3931H44.049V101.353H46.3673V101.208ZM33.9062 86.7083H46.9469C55.7856 86.7083 60.2774 90.1882 60.2774 97.148V97.293C60.2774 101.788 58.1039 104.253 54.9162 105.703L62.161 118.753H51.5836L45.6428 107.733H44.049V118.753H33.9062V86.7083Z" fill="#002C55"/>
<path d="M79.8375 112.083C82.4457 112.083 83.6048 110.923 83.6048 108.748V108.603C83.6048 106.428 82.4457 105.268 79.5477 105.268H76.5049V112.083H79.8375ZM79.6926 99.323C82.1559 99.323 83.1701 98.453 83.1701 96.568V96.4231C83.1701 94.5381 82.1559 93.5231 79.6926 93.5231H76.6498V99.323H79.6926ZM66.7969 86.7083H81.8661C89.6905 86.7083 92.7333 90.3332 92.7333 95.1181V95.2631C92.7333 99.033 90.7047 101.353 87.2272 102.223C90.9945 102.948 93.6027 105.268 93.6027 109.618V109.763C93.6027 115.418 89.9803 118.608 81.7212 118.608H66.7969V86.7083Z" fill="#002C55"/>
<path d="M110.99 106.573H117.366L114.178 94.9731L110.99 106.573ZM108.237 86.7083H121.278L131.276 118.753H120.554L119.105 113.388H108.962L107.513 118.753H98.0947L108.237 86.7083Z" fill="#002C55"/>
<path d="M136.058 86.7083H147.36L156.488 103.673V86.7083H165.327V118.753H155.619L144.896 99.613V118.753H136.058V86.7083Z" fill="#002C55"/>
<path d="M0.144531 123.393V155.437H10.2873V144.707H19.9953V137.167H10.2873V131.222H22.3136V123.393H0.144531Z" fill="#002C55"/>
<path d="M47.8153 139.487V139.197C47.8153 133.832 45.2072 130.787 41.1501 130.787C37.2379 130.787 34.6298 133.687 34.6298 139.197V139.487C34.6298 144.997 37.2379 147.897 41.1501 147.897C45.3521 148.042 47.8153 144.852 47.8153 139.487ZM24.1973 139.632V139.197C24.1973 129.337 31.7319 122.812 41.295 122.812C51.148 122.812 58.5377 128.757 58.5377 138.907V139.197C58.5377 149.202 51.7275 155.872 41.1501 155.872C30.5727 156.017 24.1973 149.347 24.1973 139.632Z" fill="#002C55"/>
<path d="M75.0568 137.892C77.8098 137.892 79.2588 136.732 79.2588 134.412V134.267C79.2588 131.947 77.8098 131.077 75.2017 131.077H72.7384V138.037H75.0568V137.892ZM62.5957 123.393H75.6364C84.475 123.393 88.9668 126.873 88.9668 133.832V133.977C88.9668 138.472 86.7934 140.937 83.6057 142.387L90.8505 155.437H80.273L74.3323 144.417H72.7384V155.437H62.5957V123.393Z" fill="#002C55"/>
<path d="M93.458 142.242V123.393H103.601V141.807C103.601 146.012 104.47 148.042 108.093 148.042C111.715 148.042 112.584 146.012 112.584 141.807V123.393H122.727V142.097C122.727 151.667 117.076 156.017 108.093 156.017C98.6743 156.017 93.458 151.232 93.458 142.242Z" fill="#002C55"/>
<path d="M152.286 123.393L146.78 138.907L141.419 123.393H128.233V155.437H137.362V136.442L144.462 155.437H147.939L155.184 136.442V155.437H165.182V123.393H152.286Z" fill="#002C55"/>
<path d="M60.2764 190.381L71.1436 178.926C74.3313 175.446 76.5047 172.836 76.5047 170.226C76.5047 168.341 75.6354 167.036 73.6068 167.036C71.5783 167.036 70.2742 168.341 69.9844 171.821H60.856C61.1457 163.557 66.2171 159.497 74.1864 159.497C82.3006 159.497 86.5026 163.846 86.5026 169.791C86.5026 174.286 84.0393 177.476 80.5618 180.811L76.9394 184.291H86.7924V191.831H60.2764V190.381Z" fill="#002C55"/>
<path d="M109.107 176.461V175.301C109.107 169.791 107.658 167.181 104.036 167.181C100.414 167.181 98.9646 169.791 98.9646 175.301V176.606C98.9646 182.116 100.414 184.726 104.181 184.726C107.803 184.581 109.107 181.971 109.107 176.461ZM88.9668 176.461V175.156C88.9668 165.006 95.4871 159.352 104.036 159.352C112.44 159.352 119.105 164.426 119.105 175.011V176.171C119.105 186.466 113.164 192.266 103.891 192.266C94.7626 192.411 88.9668 186.611 88.9668 176.461Z" fill="#002C55"/>
<path d="M120.844 190.381L131.711 178.926C134.899 175.446 137.072 172.836 137.072 170.226C137.072 168.341 136.203 167.036 134.174 167.036C132.146 167.036 130.842 168.341 130.552 171.821H121.423C121.713 163.557 126.784 159.497 134.754 159.497C142.868 159.497 147.07 163.846 147.07 169.791C147.07 174.286 144.607 177.476 141.129 180.811L137.507 184.291H147.36V191.831H120.844V190.381Z" fill="#002C55"/>
<path d="M155.474 169.936L149.533 173.416V165.007L156.923 159.932H165.617V191.831H155.474V169.936Z" fill="#002C55"/>
</svg>
