<svg width="116" height="81" viewBox="0 0 116 81" fill="none" xmlns="http://www.w3.org/2000/svg">
<path d="M57.6579 37.4101V26.2623H53.1678L51.2435 31.6683L49.3498 26.2623H44.7681V37.4101H47.9142V30.8131L50.4188 37.4101H51.6101L54.1453 30.8131V37.4101H57.6579ZM43.1798 12.0909C46.1426 12.0909 48.2807 10.5332 48.464 7.63176H44.9514C44.8292 8.76181 44.0961 9.28102 43.1187 9.28102C41.7442 9.28102 41.0111 8.2426 41.0111 6.41008V6.2879C41.0111 4.3943 41.8053 3.38642 43.0576 3.38642C44.0351 3.38642 44.5849 3.96672 44.707 5.00515H48.3418C48.0669 1.9815 46.051 0.607112 43.0271 0.607112C39.7283 0.607112 37.2542 2.83667 37.2542 6.2879V6.41008C37.2542 9.80023 39.1479 12.0909 43.1798 12.0909ZM52.5569 24.6436H55.9474V13.4958H52.8319V19.3904L49.6552 13.4958H45.6844V24.6436H48.8V17.9549L52.5569 24.6436ZM55.0616 12.0909C58.7269 12.0909 61.1094 9.76968 61.1094 6.2879V6.16574C61.1094 2.65342 58.5437 0.576569 55.1227 0.576569C51.7933 0.576569 49.1665 2.83667 49.1665 6.25737V6.37954C49.1665 9.76969 51.3963 12.0909 55.0616 12.0909ZM52.8624 6.22683C52.8624 4.33323 53.7482 3.32534 55.1227 3.32534C56.5277 3.32534 57.4441 4.36377 57.4441 6.22683V6.34899C57.4441 8.21205 56.5583 9.28102 55.1532 9.28102C53.7482 9.28102 52.8624 8.24259 52.8624 6.34899V6.22683ZM7.80934 28.9806V26.2623H0.0816004V37.4101H3.62477V33.6535H6.98465V31.0574H3.62477V28.9806H7.80934V28.9806ZM36.2768 24.6436L36.7655 22.7805H40.3086L40.8279 24.6436H44.5849L41.1028 13.4958H36.5211L32.978 24.6436H36.2768ZM38.5371 16.3362L39.6366 20.3677H37.4374L38.5371 16.3362ZM5.12143 24.8574C8.23697 24.8574 10.2224 23.3608 10.2224 20.0318V13.5263H6.67921V19.9096C6.67921 21.3756 6.37375 22.0781 5.12143 22.0781C3.86911 22.0781 3.53312 21.3756 3.53312 19.9096V13.4958H0.0205078V20.0318C0.0205078 23.2387 1.85318 24.8574 5.12143 24.8574ZM73.4188 0.729278L72.0748 7.47905L70.5476 0.729278H67.4626L66.1187 7.38742L64.8358 0.729278H61.2621L63.8584 11.8771H67.371L68.9593 5.21894L70.5171 11.8771H74.0908L76.687 0.729278H73.4188ZM3.22767 5.31057L5.73232 11.8771H6.92356L9.45875 5.31057V11.8771H12.9714V0.729278H8.48132L6.55703 6.13519L4.66327 0.729278H0.0816004V11.8771H3.22767V5.31057V5.31057ZM25.3724 33.5924H25.9222L27.9992 37.4101H31.6951L29.1599 32.8594C30.2595 32.3707 31.0537 31.485 31.0537 29.9579V29.8663C31.0537 27.484 29.4654 26.2623 26.3804 26.2623H21.8292V37.4101H25.3419V33.5924H25.3724ZM25.3724 28.9195H26.2277C27.1745 28.9195 27.6632 29.2249 27.6632 30.0495V30.1106C27.6632 30.9352 27.2051 31.3323 26.2277 31.3323H25.4029V28.9195H25.3724ZM37.7124 37.6239C40.8279 37.6239 42.8133 36.1579 42.8133 32.7983V26.2929H39.2701V32.6761C39.2701 34.1422 38.9647 34.8446 37.7124 34.8446C36.46 34.8446 36.124 34.1422 36.124 32.6761V26.2623H32.6114V32.7983C32.6114 35.9747 34.4441 37.6239 37.7124 37.6239ZM31.8478 9.58644C30.6871 9.58644 30.3511 9.00614 30.2901 8.30367H26.9302C27.0218 10.8081 28.7017 12.0909 31.8478 12.0909C34.8412 12.0909 36.46 10.3805 36.46 8.30367C36.46 5.82978 34.9023 5.09677 32.0922 4.8219C30.8704 4.66919 30.5344 4.42485 30.5344 3.87509C30.5344 3.38642 30.9009 3.05047 31.634 3.05047C32.3976 3.05047 32.7641 3.44751 32.8558 4.11943H36.124C35.9408 1.67608 34.383 0.576569 31.634 0.576569C28.8545 0.576569 27.1745 2.07313 27.1745 4.11943C27.1745 6.41008 28.2741 7.35687 31.4813 7.69284C32.6725 7.87609 33.0696 8.05934 33.0696 8.63964C33.0696 9.21993 32.6725 9.58644 31.8478 9.58644ZM32.6114 21.4672C32.6114 19.9096 31.6951 19.085 30.3817 18.8712C31.634 18.5658 32.306 17.7717 32.306 16.4584V16.3973C32.306 14.748 31.2369 13.4958 28.4879 13.4958H23.2037V24.6436H28.4268C31.298 24.6436 32.5503 23.5136 32.5503 21.5283V21.4672H32.6114ZM26.6858 15.817H27.7549C28.6407 15.817 28.9767 16.1529 28.9767 16.8249V16.886C28.9767 17.5579 28.6407 17.8633 27.7549 17.8633H26.6858V15.817ZM29.1599 21.1618C29.1599 21.9254 28.7323 22.3224 27.8465 22.3224H26.7164V19.9402H27.7549C28.7628 19.9402 29.1599 20.3372 29.1599 21.0702V21.1618ZM8.45078 31.7904V31.9126C8.45078 35.3027 10.7111 37.6239 14.3459 37.6239C18.0112 37.6239 20.3937 35.3027 20.3937 31.821V31.6988C20.3937 28.1865 17.8279 26.1096 14.4069 26.1096C11.0776 26.0791 8.45078 28.3392 8.45078 31.7904ZM16.7283 31.7599V31.882C16.7283 33.7451 15.8425 34.8446 14.4375 34.8446C13.0324 34.8446 12.1467 33.8062 12.1467 31.882V31.7599C12.1467 29.8663 13.0324 28.8584 14.4069 28.8584C15.812 28.8584 16.7283 29.8663 16.7283 31.7599ZM19.5079 20.0929C20.6075 19.6042 21.4016 18.7185 21.4016 17.1914V17.1303C21.4016 14.748 19.8133 13.5263 16.7283 13.5263H12.1772V24.6742H15.6898V20.8564H16.2396L18.3166 24.6742H22.0125L19.5079 20.0929ZM17.9807 17.3441C17.9807 18.1687 17.5225 18.5658 16.5451 18.5658H15.7204V16.153H16.5756C17.5225 16.153 18.0112 16.4584 18.0112 17.283V17.3441H17.9807ZM20.3326 12.0909C23.9979 12.0909 26.3804 9.76968 26.3804 6.2879V6.16574C26.3804 2.65342 23.8146 0.576569 20.3937 0.576569C17.0643 0.576569 14.4375 2.83667 14.4375 6.25737V6.37954C14.4375 9.76969 16.6672 12.0909 20.3326 12.0909ZM18.1334 6.22683C18.1334 4.33323 19.0192 3.32534 20.3937 3.32534C21.7987 3.32534 22.715 4.36377 22.715 6.22683V6.34899C22.715 8.21205 21.8293 9.28102 20.4242 9.28102C19.0192 9.28102 18.1334 8.24259 18.1334 6.34899V6.22683Z" fill="white"/>
<path d="M86.2159 80.6578H95.5625V78.0007H92.0804L93.3632 76.7484C94.6156 75.5573 95.4708 74.4272 95.4708 72.8391C95.4708 70.7317 93.9742 69.2046 91.103 69.2046C88.2624 69.2046 86.4908 70.6706 86.3991 73.6026H89.6063C89.759 72.3504 90.1866 71.8923 90.9197 71.8923C91.6222 71.8923 91.9582 72.3809 91.9582 73.0223C91.9582 73.9691 91.1946 74.9159 90.0645 76.107L86.2159 80.1691V80.6578ZM76.1057 80.6578H85.4523V78.0007H81.9702L83.253 76.7484C84.5054 75.5573 85.3606 74.4272 85.3606 72.8391C85.3606 70.7317 83.8639 69.2046 80.9928 69.2046C78.1521 69.2046 76.3806 70.6706 76.2889 73.6026H79.4961C79.6488 72.3504 80.0764 71.8923 80.8095 71.8923C81.512 71.8923 81.848 72.3809 81.848 73.0223C81.848 73.9691 81.0844 74.9159 79.9543 76.107L76.1057 80.1691V80.6578V80.6578ZM70.1495 78.0923C68.8361 78.0923 68.3168 77.2066 68.3168 75.2213V74.7937C68.3168 72.8391 68.8361 71.9228 70.1189 71.9228C71.3713 71.9228 71.8905 72.8391 71.8905 74.8243V75.2213C71.8905 77.176 71.4018 78.0923 70.1495 78.0923ZM70.0273 80.8716C73.3261 80.8716 75.4337 78.7947 75.4337 75.1602V74.7327C75.4337 70.976 73.0818 69.2046 70.0884 69.2046C67.0645 69.2046 64.7431 71.1898 64.7431 74.8243V75.2519C64.7431 78.8558 66.7896 80.8716 70.0273 80.8716ZM54.5107 80.6578H63.8573V78.0007H60.3753L61.6581 76.7484C62.9105 75.5573 63.7657 74.4272 63.7657 72.8391C63.7657 70.7317 62.269 69.2046 59.3979 69.2046C56.5572 69.2046 54.7856 70.6706 54.694 73.6026H57.9012C58.0539 72.3504 58.4815 71.8923 59.2146 71.8923C59.9171 71.8923 60.2531 72.3809 60.2531 73.0223C60.2531 73.9691 59.4895 74.9159 58.3593 76.107L54.5107 80.1691V80.6578Z" fill="white"/>
<path d="M110.01 52.4981H110.988V46.97L115.02 40.0064H114.042L110.53 46.1148L106.834 40.0064H105.765L110.041 46.9395V52.4981H110.01ZM98.2203 52.4981H99.1672V40.8005H103.046V40.0064H94.3412V40.8005H98.2203V52.4981ZM90.0955 52.4981H91.0729V40.0064H90.0955V52.4981ZM76.3505 52.4981H77.2974V41.1059L84.4448 52.4981H85.6055V40.0064H84.6892V51.1542L77.6945 40.0064H76.381V52.4981H76.3505ZM67.3704 52.6203C70.486 52.6203 71.9521 50.8183 71.9521 47.8252V40.0064H70.9747V47.703C70.9747 50.6656 69.7835 51.7956 67.3704 51.7956C65.0491 51.7956 63.8578 50.6045 63.8578 47.9168V40.0064H62.911V48.0084C62.911 51.0015 64.5604 52.6203 67.3704 52.6203ZM46.9362 52.4981H47.8526V41.2281L52.5564 52.4981H52.8618L57.5657 41.2281V52.4981H58.5126V40.0064H57.1381L52.7091 50.7267L48.3107 40.0064H46.9057V52.4981H46.9362ZM30.8088 52.4981H31.7251V41.2281L36.4289 52.4981H36.7344L41.4382 41.2281V52.4981H42.3851V40.0064H41.0106L36.5816 50.7267L32.1833 40.0064H30.7782V52.4981H30.8088ZM20.9734 51.8262C18.0717 51.8262 15.842 49.505 15.842 46.3286V46.1759C15.842 43.0301 17.8579 40.6784 20.9124 40.6784C23.9668 40.6784 25.9827 43.0912 25.9827 46.1454V46.2981C26.0133 49.4744 23.9668 51.8262 20.9734 51.8262ZM20.9734 52.6508C24.4555 52.6508 27.0212 49.8409 27.0212 46.2981V46.1454C27.0212 42.633 24.486 39.8537 20.9429 39.8537C17.4303 39.8537 14.8646 42.633 14.8646 46.1759V46.3286C14.8646 49.8409 17.4303 52.6508 20.9734 52.6508ZM6.77028 52.6508C9.45819 52.6508 11.5047 51.1848 11.9628 48.4971H11.0465C10.6494 50.635 9.03056 51.8262 6.80082 51.8262C3.83801 51.8262 1.9748 49.6882 1.9748 46.3286V46.1759C1.9748 42.8774 3.99073 40.6478 6.80082 40.6478C9.09165 40.6478 10.4661 41.7779 10.8632 43.7631H11.8407C11.4436 41.1976 9.36655 39.8537 6.80082 39.8537C3.53256 39.8537 0.997376 42.5109 0.997376 46.2064V46.3592C0.966832 50.1158 3.22713 52.6508 6.77028 52.6508Z" fill="white"/>
<path d="M91.074 66.975C93.5786 66.975 95.2586 65.4173 95.2586 63.4321C95.2586 61.0804 93.9146 60.3168 91.1045 59.8892C88.5083 59.4922 87.8363 58.7592 87.8363 57.4154C87.8363 55.9188 88.9359 55.0331 90.8602 55.0331C92.7234 55.0331 93.7008 55.8272 93.9757 57.3848H94.8615C94.5866 55.3996 93.1815 54.239 90.8602 54.239C88.5082 54.239 86.9199 55.5523 86.9199 57.507C86.9199 59.4922 88.2334 60.3779 90.9518 60.775C93.4565 61.172 94.3117 61.7828 94.3117 63.5237C94.3117 65.0508 93.0288 66.1809 91.074 66.1809C88.4777 66.1809 87.5919 64.837 87.3781 63.2794H86.4312C86.7061 65.2952 87.989 66.975 91.074 66.975ZM75.0992 66.0282V55.1552H77.2679C80.9332 55.1552 82.5521 57.4154 82.5521 60.4695V60.6223C82.5521 63.7986 80.8111 66.0282 77.2679 66.0282H75.0992ZM74.1218 66.8223H77.329C81.5746 66.8223 83.5906 64.0735 83.5906 60.6223V60.4695C83.5906 56.9878 81.483 54.3306 77.3595 54.3306H74.1218V66.8223V66.8223ZM62.3928 66.8223H63.3702V61.1415H65.7832L69.6929 66.8223H70.7619L66.7912 61.0498C68.6544 60.775 70.0289 59.8282 70.0289 57.7513V57.6902C70.0289 55.2774 68.2268 54.3306 65.7832 54.3306H62.3622V66.8223H62.3928ZM63.3702 60.3474V55.1552H65.8748C67.7991 55.1552 69.082 55.7966 69.082 57.6902V57.7513C69.082 59.5533 67.8908 60.3474 65.8748 60.3474H63.3702ZM48.831 66.8223H49.7474L51.1219 63.0045H56.742L58.1165 66.8223H59.094L54.6039 54.3306H53.3211L48.831 66.8223ZM53.9319 55.1552L56.4671 62.241H51.3968L53.9319 55.1552ZM35.6969 66.8223H36.6133L39.851 56.0715L42.9359 66.8223H43.8828L47.3038 54.3306H46.418L43.3941 65.3563L40.2175 54.3306H39.5455L36.2467 65.3257L33.3755 54.3306H32.3981L35.6969 66.8223ZM20.5469 66.8223H21.4632L22.8377 63.0045H28.4579L29.8324 66.8223H30.8098L26.3198 54.3306H25.0369L20.5469 66.8223ZM25.6478 55.1552L28.183 62.241H23.1126L25.6478 55.1552Z" fill="white"/>
</svg>
