<svg width="373" height="140" viewBox="0 0 373 140" fill="none" xmlns="http://www.w3.org/2000/svg">
<mask id="mask0" mask-type="alpha" maskUnits="userSpaceOnUse" x="0" y="0" width="373" height="140">
<rect x="0.5" y="0.5" width="372" height="139" fill="white" stroke="#E3E3E3"/>
</mask>
<g mask="url(#mask0)">
<rect y="-48" width="570" height="756" fill="#202020"/>
<g opacity="0.1">
<path d="M-1 -9.31475L10 -11.2167L21 -12.7468L32 -13.8915L43 -14.6451L54 -15.0112L65 -15.0027L76 -14.6415L87 -13.9586L98 -12.9931L109 -11.791L120 -10.404L131 -8.88761L142 -7.29917L153 -5.69553L164 -4.21054L175 -2.86252L186 -1.76932L197 -0.991577L208 -0.579409L219 -0.569233L230 -0.9818L241 -1.8211L252 -3.07425L263 -4.71205L274 -6.69027L285 -8.95137L296 -11.4268L307 -14.0395L318 -16.7067L329 -19.343L340 -21.8632L351 -24.1854L362 -26.2337L373 -27.9407L384 -29.2498L395 -30.1174L406 -30.5131L417 -30.4214L428 -29.8407L439 -28.7824L450 -27.269L461 -25.3302L472 -22.9994L483 -20.3091L494 -17.2948L505 -13.9975L516 -10.4634L527 -6.74396L538 -2.89583L549 1.01893L560 4.93524L571 8.78772" stroke="#C8C8C8" stroke-miterlimit="10"/>
<path d="M-1 -6.57802L10 -8.06371L21 -9.10253L32 -9.69008L43 -9.83184L54 -9.54297L65 -8.84829L76 -7.78186L87 -6.38647L98 -4.71254L109 -2.81687L120 -0.760899L131 1.39119L142 3.57485L153 5.68297L164 7.66829L175 9.40362L186 10.8151L197 11.8375L208 12.4183L219 12.5209L230 12.126L241 11.2329L252 9.8589L263 8.03908L274 5.82459L285 3.28073L296 0.484618L307 -2.4776L318 -5.51365L329 -8.52823L340 -11.4263L351 -14.1159L362 -16.5117L373 -18.537L384 -20.1267L395 -21.2292L406 -21.8076L417 -21.841L428 -21.3237L439 -20.2651L450 -18.6874L461 -16.6237L472 -14.1145L483 -11.2031L494 -7.93199L505 -4.3468L516 -0.500296L527 3.54772L538 7.73242L549 11.9862L560 16.24L571 20.4248" stroke="#C8C8C8" stroke-miterlimit="10"/>
<path d="M-1 -4.45085L10 -5.49357L21 -6.0285L32 -6.05762L43 -5.5947L54 -4.66482L65 -3.30346L76 -1.55564L87 0.525111L98 2.87807L109 5.43689L120 8.13162L131 10.891L142 13.6451L153 16.2776L164 18.7184L175 20.8633L186 22.632L197 23.9548L208 24.7764L219 25.0584L230 24.7815L241 23.946L252 22.5716L263 20.6966L274 18.3763L285 15.6811L296 12.6939L307 9.50733L318 6.22061L329 2.93641L340 -0.242462L351 -3.21631L362 -5.89161L373 -8.184L384 -10.0206L395 -11.3421L406 -12.1042L417 -12.2787L428 -11.8544L439 -10.8364L450 -9.24522L461 -7.11543L472 -4.49248L483 -1.42924L494 2.01883L505 5.79737L516 9.84857L527 14.1092L538 18.5119L549 22.9862L560 27.4606L571 31.8632" stroke="#C8C8C8" stroke-miterlimit="10"/>
<path d="M-1 -1.88603L10 -2.45026L21 -2.47003L32 -1.95343L43 -0.920744L54 0.596024L65 2.55387L76 4.90001L87 7.57323L98 10.5057L109 13.625L120 16.856L131 20.124L142 23.3471L153 26.4354L164 29.2914L175 31.824L186 33.9477L197 35.5885L208 36.6878L219 37.2049L230 37.1192L241 36.4302L252 35.1577L263 33.3406L274 31.0359L285 28.3156L296 25.2653L307 21.9807L318 18.565L329 15.1253L340 11.7698L351 8.60392L362 5.72771L373 3.23262L384 1.19895L395 -0.306666L406 -1.23304L417 -1.546L428 -1.22925L439 -0.284626L450 1.26825L461 3.39327L472 6.04061L483 9.15076L494 12.6596L505 16.5047L516 20.6259L527 24.9593L538 29.4364L549 33.9862L560 38.5359L571 43.0131" stroke="#C8C8C8" stroke-miterlimit="10"/>
<path d="M-1 1.98462L10 1.89581L21 2.37084L32 3.39472L43 4.94021L54 6.96864L65 9.431L76 12.2689L87 15.4164L98 18.8016L109 22.3493L120 25.9835L131 29.6307L142 33.2162L153 36.6546L164 39.8529L175 42.7167L186 45.1573L197 47.0975L208 48.4755L219 49.2477L230 49.3906L241 48.9016L252 47.7988L263 46.1199L274 43.9209L285 41.274L296 38.2649L307 34.9904L318 31.5548L329 28.0675L340 24.6392L351 21.3792L362 18.3917L373 15.7728L384 13.6074L395 11.9667L406 10.906L417 10.4631L428 10.6571L439 11.4882L450 12.9381L461 14.9715L472 17.5381L483 20.5765L494 24.019L505 27.7973L516 31.8485L527 36.1091L538 40.5118L549 44.9861L560 49.4605L571 53.8631" stroke="#C8C8C8" stroke-miterlimit="10"/>
<path d="M-1 7.86008L10 8.18237L21 9.06955L32 10.5012L43 12.4454L54 14.8591L65 17.6895L76 20.8751L87 24.3479L98 28.036L109 31.8656L120 35.7654L131 39.6681L142 43.5064L153 47.1989L164 50.653L175 53.7741L186 56.4724L197 58.6686L208 60.2988L219 61.3168L230 61.6965L241 61.4324L252 60.5399L263 59.0544L274 57.0295L285 54.5357L296 51.6571L307 48.4893L318 45.1359L329 41.7053L340 38.3081L351 35.0529L362 32.0444L373 29.3795L384 27.145L395 25.4141L406 24.2442L417 23.6756L428 23.73L439 24.41L450 25.6994L461 27.5647L472 29.9568L483 32.8148L494 36.0703L505 39.6535L516 43.4998L527 47.5478L538 51.7324L549 55.9861L560 60.2399L571 64.4246" stroke="#C8C8C8" stroke-miterlimit="10"/>
<path d="M-1 16.165L10 16.7808L21 17.9465L32 19.6384L43 21.8221L54 24.4527L65 27.4767L76 30.8337L87 34.4586L98 38.2847L109 42.2458L120 46.2751L131 50.3062L142 54.2726L153 58.0997L164 61.7L175 64.9821L186 67.8574L197 70.2468L208 72.0849L219 73.3233L230 73.9331L241 73.9052L252 73.2514L263 72.003L274 70.2097L285 67.938L296 65.2683L307 62.2924L318 59.1107L329 55.8286L340 52.5539L351 49.3929L362 46.448L373 43.8142L384 41.5769L395 39.8093L406 38.5694L417 37.898L428 37.8179L439 38.3331L450 39.429L461 41.0738L472 43.2204L483 45.8097L494 48.7753L505 52.0491L516 55.5683L527 59.275L538 63.1091L549 67.0074L560 70.9059L571 74.7403" stroke="#C8C8C8" stroke-miterlimit="10"/>
<path d="M-1 26.9748L10 27.7348L21 29.0169L32 30.7973L43 33.0422L54 35.7094L65 38.7498L76 42.1097L87 45.7312L98 49.552L109 53.5067L120 57.5284L131 61.5503L142 65.5067L153 69.3315L164 72.948L175 76.2722L186 79.2203L197 81.7155L208 83.6928L219 85.1026L230 85.9131L241 86.1116L252 85.7047L263 84.718L274 83.1954L285 81.1971L296 78.7981L307 76.085L318 73.1532L329 70.104L340 67.0406L351 64.0653L362 61.2763L373 58.7648L384 56.6119L395 54.8873L406 53.6466L417 52.929L428 52.756L439 53.1312L450 54.0402L461 55.452L472 57.3212L483 59.5913L494 62.1991L505 65.0808L516 68.1786L527 71.4399L538 74.8105L549 78.2338L560 81.6535L571 85.0172" stroke="#C8C8C8" stroke-miterlimit="10"/>
<path d="M-1 40.0242L10 40.7812L21 42.0275L32 43.7429L43 45.8997L54 48.462L65 51.3856L76 54.6198L87 58.108L98 61.7894L109 65.6001L120 69.4749L131 73.3486L142 77.1572L153 80.8396L164 84.3333L175 87.5673L186 90.4669L197 92.9613L208 94.9879L219 96.4962L230 97.4514L241 97.8358L252 97.6511L263 96.9174L274 95.6731L285 93.9729L296 91.8861L307 89.4931L318 86.8835L329 84.1517L340 81.3948L351 78.7085L362 76.1842L373 73.9063L384 71.9495L395 70.3768L406 69.2379L417 68.5674L428 68.3832L439 68.6857L450 69.4591L461 70.672L472 72.2798L483 74.2287L494 76.4597L505 78.9151L516 81.5444L527 84.3015L538 87.1384L549 90.0082L560 92.8681L571 95.679" stroke="#C8C8C8" stroke-miterlimit="10"/>
<path d="M-1 54.8693L10 55.5118L21 56.6231L32 58.1799L43 60.1545L54 62.5132L65 65.2146L76 68.2105L87 71.4473L98 74.867L109 78.4087L120 82.0101L131 85.609L142 89.1448L153 92.5598L164 95.8006L175 98.8128L186 101.536L197 103.906L208 105.864L219 107.362L230 108.364L241 108.854L252 108.83L263 108.31L274 107.328L285 105.932L296 104.186L307 102.163L318 99.9444L329 97.6167L340 95.2674L351 92.9828L362 90.8448L373 88.9281L384 87.2978L395 86.0079L406 85.0988L417 84.5976L428 84.5156L439 84.8484L450 85.5762L461 86.666L472 88.0733L483 89.7469L494 91.6327L505 93.6809L516 95.8494L527 98.0978L538 100.387L549 102.683L560 104.955L571 107.175" stroke="#C8C8C8" stroke-miterlimit="10"/>
<path d="M-1 71.0826L10 71.5471L21 72.4488L32 73.7658L43 75.4703L54 77.5313L65 79.9118L76 82.5685L87 85.452L98 88.5088L109 91.6824L120 94.9143L131 98.1462L142 101.321L153 104.383L164 107.279L175 109.959L186 112.379L197 114.485L208 116.23L219 117.582L230 118.511L241 119.004L252 119.06L263 118.696L274 117.943L285 116.844L296 115.456L307 113.843L318 112.078L329 110.235L340 108.39L351 106.619L362 104.988L373 103.568L384 102.401L395 101.532L406 100.99L417 100.794L428 100.944L439 101.43L450 102.227L461 103.298L472 104.6L483 106.083L494 107.7L505 109.41L516 111.176L527 112.966L538 114.75L549 116.504L560 118.207L571 119.841" stroke="#C8C8C8" stroke-miterlimit="10"/>
<path d="M-1 88.238L10 88.4554L21 89.0675L32 90.0571L43 91.4004L54 93.07L65 95.0352L76 97.2591L87 99.6991L98 102.308L109 105.035L120 107.826L131 110.628L142 113.384L153 116.033L164 118.522L175 120.801L186 122.829L197 124.575L208 126.018L219 127.151L230 127.871L241 128.261L252 128.31L263 128.037L274 127.469L285 126.647L296 125.619L307 124.44L318 123.172L329 121.848L340 120.611L351 119.462L362 118.457L373 117.644L384 117.062L395 116.74L406 116.696L417 116.933L428 117.444L439 118.208L450 119.195L461 120.365L472 121.673L483 123.076L494 124.533L505 126.01L516 127.475L527 128.901L538 130.265L549 131.549L560 132.742L571 133.835" stroke="#C8C8C8" stroke-miterlimit="10"/>
<path d="M-1 105.842L10 105.742L21 105.985L32 106.562L43 107.456L54 108.646L65 110.11L76 111.818L87 113.738L98 115.829L109 118.048L120 120.345L131 122.664L142 124.944L153 127.13L164 129.169L175 131.013L186 132.628L197 133.987L208 135.074L219 135.886L230 136.431L241 136.729L252 136.731L263 136.48L274 136.047L285 135.466L296 134.781L307 133.989L318 133.265L329 132.576L340 131.968L351 131.485L362 131.167L373 131.044L384 131.138L395 131.463L406 132.019L417 132.797L428 133.777L439 134.931L450 136.22L461 137.602L472 139.036L483 140.481L494 141.905L505 143.276L516 144.565L527 145.746L538 146.802L549 147.72L560 148.495L571 149.13" stroke="#C8C8C8" stroke-miterlimit="10"/>
<path d="M-1 123.388L10 122.903L21 122.706L32 122.794L43 123.163L54 123.799L65 124.691L76 125.82L87 127.162L98 128.684L109 130.346L120 132.098L131 133.883L142 135.647L153 137.337L164 138.905L175 140.312L186 141.527L197 142.529L208 143.307L219 143.862L230 144.204L241 144.353L252 144.341L263 144.204L274 143.898L285 143.54L296 143.186L307 142.873L318 142.64L329 142.52L340 142.547L351 142.747L362 143.142L373 143.744L384 144.559L395 145.581L406 146.797L417 148.183L428 149.706L439 151.33L450 153.012L461 154.709L472 156.381L483 157.994L494 159.515L505 160.911L516 162.153L527 163.219L538 164.091L549 164.76L560 165.23L571 165.519" stroke="#C8C8C8" stroke-miterlimit="10"/>
<path d="M-1 140.411L10 139.483L21 138.786L32 138.328L43 138.114L54 138.144L65 138.417L76 138.925L87 139.653L98 140.571L109 141.638L120 142.809L131 144.033L142 145.261L153 146.449L164 147.557L175 148.552L186 149.409L197 150.112L208 150.656L219 151.041L230 151.281L241 151.394L252 151.336L263 151.3L274 151.242L285 151.207L296 151.241L307 151.35L318 151.557L329 151.961L340 152.58L351 153.427L362 154.505L373 155.81L384 157.331L395 159.045L406 160.924L417 162.932L428 165.027L439 167.164L450 169.298L461 171.388L472 173.396L483 175.284L494 177.015L505 178.554L516 179.871L527 180.942L538 181.752L549 182.292L560 182.576L571 182.635" stroke="#C8C8C8" stroke-miterlimit="10"/>
</g>
</g>
</svg>
