<svg width="8" height="8" viewBox="0 0 8 8" fill="none" xmlns="http://www.w3.org/2000/svg">
<path fill-rule="evenodd" clip-rule="evenodd" d="M4.80827 4.0002L7.83292 0.975585C8.05636 0.752153 8.05636 0.391005 7.83292 0.167574C7.60949 -0.0558579 7.24834 -0.0558579 7.0249 0.167574L4.00025 3.19219L0.975598 0.167574C0.752163 -0.0558579 0.39101 -0.0558579 0.167576 0.167574C-0.0558586 0.391005 -0.0558586 0.752153 0.167576 0.975585L3.19223 4.0002L0.167576 7.02481C-0.0558586 7.24824 -0.0558586 7.60939 0.167576 7.83282C0.279007 7.94425 0.425297 8.00025 0.571587 8.00025C0.717876 8.00025 0.864166 7.94425 0.975598 7.83282L4.00025 4.80821L7.0249 7.83282C7.13633 7.94425 7.28262 8.00025 7.42891 8.00025C7.5752 8.00025 7.72149 7.94425 7.83292 7.83282C8.05636 7.60939 8.05636 7.24824 7.83292 7.02481L4.80827 4.0002Z" fill="white"/>
</svg>
