<svg version="1.1" xmlns="http://www.w3.org/2000/svg" xmlns:xlink="http://www.w3.org/1999/xlink">
    <symbol viewBox="0 0 79 53" id="logo">
        <path fill-rule="evenodd" clip-rule="evenodd" d="M0.509375 12.3338V0.896047H5.16107L7.07768 6.44233L9.02485 0.896047H13.5826V12.3338H10.0211V5.5829L7.43994 12.3338H6.23541L3.70862 5.5829V12.3338H0.509375ZM18.815 6.66976C18.815 7.6229 19.0222 8.36462 19.4399 8.89605C19.8577 9.42748 20.4215 9.69262 21.1324 9.69262C21.8433 9.69262 22.4071 9.42748 22.8237 8.89605C23.2415 8.36462 23.4498 7.6229 23.4498 6.66976V6.54405C23.4498 5.5909 23.2415 4.85376 22.8237 4.33376C22.4071 3.81262 21.8399 3.55205 21.1245 3.55205C20.4079 3.55205 19.8452 3.81033 19.432 4.32576C19.0199 4.84119 18.8139 5.58062 18.8139 6.54405V6.66976H18.815ZM27.1811 6.5909C27.1811 8.3829 26.6207 9.82291 25.4977 10.9109C24.3747 12 22.8939 12.5452 21.0543 12.5452C19.2101 12.5452 17.7509 12.0058 16.6731 10.9269C15.5977 9.84919 15.0588 8.43548 15.0588 6.68462V6.5589C15.0543 4.82062 15.6282 3.41147 16.7818 2.33376C17.9365 1.2549 19.3913 0.716618 21.1471 0.716618C22.9041 0.716618 24.3486 1.2309 25.483 2.2629C26.615 3.29376 27.1811 4.69262 27.1811 6.45833V6.5909ZM32.7373 12.5452C29.4973 12.5452 27.8354 11.2526 27.7539 8.66976H31.1535C31.226 9.54405 31.7535 9.98176 32.7384 9.98176C33.1494 9.98176 33.4607 9.89605 33.6724 9.72347C33.7756 9.64095 33.8581 9.53502 33.9132 9.4143C33.9682 9.29357 33.9943 9.16144 33.9894 9.02862C33.9894 8.73719 33.8762 8.52348 33.6498 8.38862C33.4233 8.25262 32.9977 8.1429 32.3739 8.05948C30.7516 7.87662 29.6184 7.51547 28.9743 6.97376C28.3301 6.43205 28.0086 5.59433 28.0086 4.45833C28.0086 3.32348 28.4162 2.41948 29.229 1.74748C30.0486 1.0709 31.1479 0.731475 32.529 0.731475C35.3773 0.731475 36.8965 1.94748 37.0879 4.38062H33.7652C33.6826 3.64576 33.2705 3.2789 32.529 3.2789C32.1735 3.2789 31.8973 3.35433 31.7026 3.50519C31.6078 3.57823 31.5316 3.67306 31.4804 3.78179C31.4293 3.89052 31.4045 4.01001 31.4082 4.13033C31.4082 4.3909 31.5192 4.59433 31.7411 4.73948C31.9618 4.88576 32.3796 4.99433 32.992 5.06748C34.5226 5.22976 35.6422 5.56462 36.3543 6.07548C37.0641 6.5909 37.4196 7.42748 37.4196 8.5829C37.4196 9.73948 37.0075 10.688 36.1833 11.4275C35.3592 12.1669 34.2101 12.5395 32.7373 12.544V12.5452ZM44.2426 12.5452C42.2592 12.5452 40.7603 12.0206 39.746 10.9738C38.7305 9.9269 38.2233 8.49719 38.2233 6.68462V6.5589C38.2233 4.81033 38.7747 3.3989 39.8762 2.32576C40.9743 1.25262 42.3418 0.716618 43.9799 0.716618C45.6181 0.710903 46.9109 1.08233 47.8584 1.83319C48.806 2.5829 49.3392 3.71662 49.4581 5.23205H45.7562C45.6384 4.13262 45.0849 3.5829 44.0954 3.5829C43.4411 3.5829 42.9294 3.83547 42.5581 4.34176C42.1867 4.8469 42.0033 5.58062 42.009 6.54405V6.66976C42.009 7.61719 42.1924 8.34976 42.5581 8.86405C42.9294 9.3749 43.4626 9.62976 44.1577 9.62976C45.275 9.62976 45.8988 9.06976 46.0267 7.94976H49.6041C49.5124 9.42405 48.9815 10.5578 48.0135 11.3486C47.0445 12.1406 45.7879 12.5395 44.2426 12.544V12.5452ZM54.0475 6.66976C54.0475 7.6229 54.2558 8.36462 54.6735 8.89605C55.0901 9.42748 55.655 9.69262 56.366 9.69262C57.0769 9.69262 57.6407 9.42748 58.0573 8.89605C58.475 8.36462 58.6833 7.6229 58.6833 6.66976V6.54405C58.6833 5.5909 58.475 4.85376 58.0573 4.33376C57.6407 3.81262 57.0735 3.55205 56.3581 3.55205C55.6415 3.55205 55.0788 3.81033 54.6656 4.32576C54.2535 4.84119 54.0475 5.58062 54.0475 6.54405V6.66976ZM62.4158 6.5909C62.4158 8.3829 61.8543 9.82291 60.7313 10.9109C59.6082 12 58.1275 12.5452 56.2879 12.5452C54.4437 12.5452 52.9833 12.0058 51.9067 10.9269C50.8313 9.84919 50.2924 8.43548 50.2924 6.68462V6.5589C50.2867 4.82062 50.8618 3.41147 52.0154 2.33376C53.1701 1.2549 54.6248 0.716618 56.3807 0.716618C58.1377 0.716618 59.5822 1.2309 60.7165 2.2629C61.8486 3.29376 62.4147 4.69262 62.4147 6.45833V6.5909H62.4158ZM65.2279 12.3338L62.6015 0.896047H66.2241L67.5226 7.72347L68.8901 0.896047H72.0033L73.5418 7.80233L74.9173 0.896047H78.2399L75.6135 12.3338H71.9886L70.4048 5.50519L68.8052 12.3338H65.2279ZM10.809 27.5829C10.809 29.2606 10.3539 30.5052 9.44145 31.3178C8.53013 32.1292 7.24975 32.5395 5.60145 32.544C3.95315 32.544 2.6807 32.128 1.78409 31.2938C0.893148 30.4606 0.448242 29.2343 0.448242 27.6138V20.8972H4.0256V27.4675C4.0256 28.2595 4.13881 28.8298 4.36522 29.1783C4.59164 29.5212 5.01164 29.6938 5.62409 29.6938C6.23768 29.6938 6.65202 29.5166 6.86938 29.1623C7.08447 28.808 7.19541 28.2378 7.20107 27.4515V20.8972H10.809V27.584V27.5829ZM12.7867 32.3338V20.896H17.4079C18.969 20.896 20.1475 21.208 20.9467 21.8332C21.7448 22.4583 22.1411 23.3829 22.1354 24.6069V24.6698C22.1354 26.0755 21.5003 27.0732 20.2279 27.6618L22.809 32.3338H19.0381L16.9369 28.4115H16.3652V32.3338H12.7879H12.7867ZM16.3641 26.0755H17.2064C18.1856 26.0755 18.6747 25.6595 18.6747 24.8252V24.7635C18.6747 24.352 18.5569 24.0572 18.3192 23.88C18.0826 23.7029 17.7169 23.6149 17.2222 23.6149H16.3652V26.0755H16.3641ZM27.5218 29.9498H28.6573C29.5539 29.9498 30.0022 29.5498 30.0022 28.7475V28.6846C30.0022 27.904 29.5279 27.5155 28.5803 27.5212H27.5218V29.9509V29.9498ZM27.5218 25.3566H28.6109C29.0547 25.3566 29.3716 25.2766 29.5618 25.1143C29.752 24.9532 29.8471 24.6983 29.8471 24.3486V24.2869C29.8471 23.6046 29.4305 23.2629 28.5962 23.2629H27.5218V25.3566ZM24.0215 32.3338V20.896H29.3682C30.6871 20.896 31.6607 21.1669 32.289 21.7075C32.9173 22.2503 33.232 22.976 33.232 23.888V23.9509C33.232 25.2835 32.5777 26.104 31.269 26.4115C31.9652 26.5418 32.5154 26.8286 32.9218 27.2709C33.3294 27.7132 33.5331 28.3178 33.5331 29.0835V29.1463C33.5331 31.2709 32.135 32.3338 29.3377 32.3338H24.0215ZM33.8965 32.3338L37.4581 20.896H42.0939L45.6407 32.3338H41.8471L41.3218 30.4275H37.7445L37.2418 32.3338H33.8965ZM39.5524 23.8172L38.4237 27.9658H40.6573L39.5524 23.8172ZM46.8079 32.3338V20.896H50.8256L54.0407 26.9418V20.896H57.1924V32.3338H53.7532L49.9743 25.4823V32.3338H46.8067H46.8079ZM0.509375 52.3338V40.896H8.34447V43.6926H4.10258V45.8183H7.51805V48.4892H4.10258V52.3338H0.509375ZM12.7641 46.6698C12.7641 47.6229 12.9724 48.3646 13.3901 48.896C13.8067 49.4275 14.3716 49.6926 15.0826 49.6926C15.7924 49.6926 16.3573 49.4275 16.7739 48.896C17.1916 48.3646 17.3999 47.6229 17.3999 46.6698V46.5441C17.3999 45.5909 17.1916 44.8538 16.7739 44.3338C16.3573 43.8126 15.7901 43.5521 15.0747 43.5521C14.3581 43.5521 13.7943 43.8103 13.3822 44.3258C12.9701 44.8412 12.7641 45.5806 12.7641 46.5441V46.6698ZM21.1324 46.5909C21.1324 48.3829 20.5709 49.8229 19.4479 50.9109C18.3248 52 16.8441 52.5452 15.0045 52.5452C13.1603 52.5452 11.6999 52.0058 10.6233 50.9269C9.54787 49.8492 9.009 48.4355 9.009 46.6846V46.5589C9.00334 44.8206 9.57843 43.4115 10.732 42.3338C11.8867 41.2549 13.3415 40.7166 15.0973 40.7166C16.8543 40.7166 18.2988 41.2309 19.4331 42.2629C20.5652 43.2938 21.1313 44.6926 21.1313 46.4583V46.5909H21.1324ZM22.5848 52.3338V40.896H27.2048C28.766 40.896 29.9445 41.208 30.7437 41.8332C31.5418 42.4583 31.9392 43.3829 31.9335 44.6069V44.6698C31.9335 46.0755 31.2973 47.0732 30.0248 47.6618L32.606 52.3338H28.8362L26.7339 48.4115H26.1622V52.3338H22.5848ZM26.1622 46.0755H27.0045C27.9826 46.0755 28.4728 45.6595 28.4728 44.8252V44.7635C28.4728 44.3521 28.3539 44.0572 28.1173 43.8801C27.8796 43.7029 27.5139 43.6149 27.0192 43.6149H26.1622V46.0755ZM43.8792 47.5841C43.8792 49.2606 43.423 50.5052 42.5116 51.3178C41.6003 52.1292 40.3199 52.5395 38.6716 52.5441C37.0233 52.5441 35.7509 52.1281 34.8543 51.2938C33.9633 50.4606 33.5184 49.2343 33.5184 47.6138V40.8972H37.0958V47.4675C37.0958 48.2595 37.209 48.8298 37.4354 49.1783C37.6618 49.5212 38.0807 49.6938 38.6943 49.6938C39.3079 49.6938 39.7222 49.5166 39.9396 49.1623C40.1547 48.808 40.2656 48.2378 40.2713 47.4515V40.8972H43.8792V47.5841ZM45.8569 52.3338V40.896H50.5098L52.4252 46.4423L54.3724 40.896H58.9313V52.3338H55.3686V45.5829L52.7875 52.3338H51.583L49.055 45.5829V52.3338H45.8558H45.8569Z" fill="black" />
    </symbol>

    <symbol viewBox="0 0 6 5" id="nav-arrow">
        <path d="M3 4.5L0.401924 4.89399e-07L5.59808 3.51373e-08L3 4.5Z" />
    </symbol>

    <symbol viewBox="0 0 24 24" id="header-search">
        <path d="M11 19C15.4183 19 19 15.4183 19 11C19 6.58172 15.4183 3 11 3C6.58172 3 3 6.58172 3 11C3 15.4183 6.58172 19 11 19Z" stroke-width="2" stroke-linecap="round" stroke-linejoin="round" />
        <path d="M21.0004 20.9999L16.6504 16.6499" stroke-width="2" stroke-linecap="round" stroke-linejoin="round" />
    </symbol>

    <symbol viewBox="0 0 25 24" id="header-search-close">
        <path d="M2 1.5L23.0312 22.5312" stroke-width="2" stroke-linecap="round" stroke-linejoin="round" />
        <path d="M23.0312 1.5L2.00003 22.5312" stroke-width="2" stroke-linecap="round" stroke-linejoin="round" />
    </symbol>

    <symbol viewBox="0 0 40 40" id="icon-fb">
        <path d="M40 20C40 8.95313 31.0469 0 20 0C8.95312 0 0 8.95313 0 20C0 29.9844 7.3125 38.2578 16.875 39.7578V25.7813H11.7969V20H16.875V15.5938C16.875 10.582 19.8594 7.8125 24.4297 7.8125C26.6172 7.8125 28.9062 8.20313 28.9062 8.20313V13.125H26.3828C23.8984 13.125 23.125 14.668 23.125 16.25V20H28.6719L27.7852 25.7813H23.125V39.7578C32.6875 38.2578 40 29.9844 40 20Z" />
    </symbol>

    <symbol viewBox="0 0 40 40" id="icon-instagram">
        <path fill-rule="evenodd" clip-rule="evenodd" d="M20 0C8.954 0 0 8.954 0 20s8.954 20 20 20 20-8.954 20-20S31.046 0 20 0zm-4.399 9.397c1.138-.051 1.502-.064 4.399-.064h-.004c2.898 0 3.26.013 4.398.064 1.136.052 1.911.232 2.591.496a5.212 5.212 0 011.89 1.23 5.235 5.235 0 011.23 1.89c.263.678.443 1.453.496 2.588.051 1.138.064 1.502.064 4.399 0 2.897-.013 3.26-.064 4.397-.053 1.135-.233 1.91-.496 2.59a5.237 5.237 0 01-1.23 1.888 5.219 5.219 0 01-1.889 1.232c-.679.263-1.455.443-2.59.495-1.138.052-1.5.065-4.398.065-2.896 0-3.26-.013-4.398-.065-1.135-.052-1.91-.232-2.589-.495a5.223 5.223 0 01-1.889-1.232 5.227 5.227 0 01-1.23-1.89c-.264-.677-.443-1.453-.496-2.588-.051-1.138-.064-1.5-.064-4.397 0-2.897.013-3.26.064-4.399.051-1.135.231-1.91.496-2.589a5.237 5.237 0 011.23-1.889 5.225 5.225 0 011.89-1.23c.679-.264 1.454-.444 2.59-.496z" />
        <path fill-rule="evenodd" clip-rule="evenodd" d="M19.041 11.256h.957c2.848 0 3.186.01 4.31.06 1.04.048 1.605.222 1.981.368a3.31 3.31 0 011.226.798c.373.373.604.729.798 1.227.146.375.32.94.367 1.98.052 1.124.063 1.462.063 4.309 0 2.846-.011 3.184-.063 4.309-.047 1.04-.22 1.604-.367 1.98a3.298 3.298 0 01-.798 1.225 3.3 3.3 0 01-1.226.798c-.375.146-.94.32-1.98.367-1.125.051-1.463.063-4.31.063-2.849 0-3.186-.012-4.31-.063-1.04-.048-1.605-.221-1.982-.367a3.303 3.303 0 01-1.226-.798 3.307 3.307 0 01-.798-1.226c-.146-.376-.32-.94-.368-1.98-.05-1.125-.061-1.463-.061-4.311 0-2.849.01-3.184.061-4.309.048-1.04.222-1.604.368-1.98.193-.498.425-.854.798-1.227a3.31 3.31 0 011.226-.798c.377-.147.941-.32 1.981-.368.984-.045 1.365-.058 3.353-.06v.003zm6.653 1.77a1.28 1.28 0 100 2.56 1.28 1.28 0 000-2.56zM14.52 20.001a5.478 5.478 0 1110.956 0 5.478 5.478 0 01-10.956 0z" />
        <path d="M20 16.445a3.556 3.556 0 110 7.11 3.556 3.556 0 010-7.11z" />
    </symbol>

    <symbol viewBox="0 0 40 40" id="icon-vk">
        <path fill-rule="evenodd" clip-rule="evenodd" d="M26.14 0H13.86C2.653 0 0 2.653 0 13.86v12.28C0 37.346 2.653 40 13.86 40h12.28C37.346 40 40 37.346 40 26.14V13.86C40 2.653 37.346 0 26.14 0zm5.73 12.703c.876 0 1.073.451.876 1.072-.309 1.424-2.87 5.199-3.663 6.368-.15.223-.237.35-.233.35-.31.509-.423.735 0 1.3.153.208.478.527.849.89.381.375.812.797 1.155 1.198 1.242 1.412 2.202 2.597 2.456 3.416.226.819-.17 1.242-1.016 1.242h-2.908c-.77 0-1.167-.443-2.014-1.386-.363-.404-.808-.9-1.401-1.493-1.722-1.666-2.484-1.892-2.908-1.892-.593 0-.762.141-.762.988v2.625c0 .706-.226 1.13-2.089 1.13-3.077 0-6.492-1.863-8.892-5.336-3.613-5.08-4.601-8.92-4.601-9.682 0-.423.14-.819.988-.819h2.936c.733 0 1.016.31 1.298 1.13 1.44 4.15 3.84 7.79 4.827 7.79.367 0 .537-.169.537-1.1v-4.291c-.07-1.22-.495-1.751-.81-2.145-.195-.244-.348-.436-.348-.706 0-.339.282-.678.734-.678h4.573c.621 0 .847.34.847 1.073v5.787c0 .621.254.847.452.847.367 0 .677-.226 1.355-.904 2.088-2.343 3.585-5.956 3.585-5.956.197-.423.536-.818 1.27-.818h2.907z" />
    </symbol>

    <symbol viewBox="0 0 40 40" id="icon-youtube">
        <path fill-rule="evenodd" clip-rule="evenodd" d="M20 0C8.954 0 0 8.954 0 20s8.954 20 20 20 20-8.954 20-20S31.046 0 20 0zm8.333 13.124a2.71 2.71 0 011.887 1.937c.445 1.708.445 5.272.445 5.272s0 3.564-.445 5.273a2.709 2.709 0 01-1.887 1.936C26.67 28 20 28 20 28s-6.671 0-8.335-.458a2.709 2.709 0 01-1.886-1.937c-.446-1.708-.446-5.272-.446-5.272s0-3.564.446-5.272a2.708 2.708 0 011.886-1.937c1.664-.458 8.335-.458 8.335-.458s6.67 0 8.334.458z" />
        <path d="M18 24v-6.667l5.333 3.334L18 24z" />
    </symbol>

    <symbol viewBox="0 0 30 30" id="icon-twitter">
        <path fill-rule="evenodd" clip-rule="evenodd" d="M15 0C6.71573 0 0 6.71573 0 15C0 23.2843 6.71573 30 15 30C23.2843 30 30 23.2843 30 15C30 6.71573 23.2843 0 15 0ZM14.5822 12.7112L14.5508 12.1922C14.4563 10.847 15.2852 9.61822 16.5967 9.14155C17.0794 8.97207 17.8978 8.95089 18.4329 9.09918C18.6427 9.16274 19.0414 9.37459 19.3247 9.56526L19.8388 9.91481L20.4054 9.73474C20.7202 9.6394 21.1398 9.48052 21.3287 9.37459C21.5071 9.27926 21.6645 9.2263 21.6645 9.25807C21.6645 9.43815 21.2762 10.0525 20.951 10.3915C20.5103 10.8681 20.6362 10.9105 21.5281 10.5927C22.0632 10.4127 22.0737 10.4127 21.9687 10.6139C21.9058 10.7198 21.5805 11.0906 21.2343 11.4295C20.6467 12.0121 20.6152 12.0757 20.6152 12.5629C20.6152 13.315 20.2585 14.8827 19.9018 15.7407C19.2408 17.3508 17.8243 19.0138 16.4079 19.8506C14.4144 21.0264 11.7598 21.323 9.52499 20.6344C8.78005 20.4014 7.5 19.8082 7.5 19.7023C7.5 19.6705 7.88821 19.6282 8.36036 19.6176C9.34663 19.5964 10.3329 19.321 11.1723 18.8337L11.7388 18.4948L11.0883 18.2723C10.165 17.9545 9.33613 17.2237 9.12629 16.5351C9.06334 16.3127 9.08432 16.3021 9.67188 16.3021L10.2804 16.2915L9.76631 16.0479C9.15777 15.7407 8.60168 15.2217 8.32888 14.692C8.12953 14.3107 7.87772 13.3468 7.95116 13.2726C7.97215 13.2409 8.19248 13.3044 8.4443 13.3892C9.16826 13.654 9.26269 13.5904 8.843 13.1455C8.05609 12.3405 7.81477 11.1435 8.19248 10.0101L8.37085 9.5017L9.06334 10.1902C10.4798 11.5778 12.148 12.4041 14.0576 12.6477L14.5822 12.7112Z" />
    </symbol>

    <symbol viewBox="0 0 29 29" id="icon-linkedid">
        <path fill-rule="evenodd" clip-rule="evenodd" d="M0 14.5C0 6.49187 6.49187 0 14.5 0C22.5081 0 29 6.49187 29 14.5C29 22.5081 22.5081 29 14.5 29C6.49187 29 0 22.5081 0 14.5ZM10.2463 12.0095H6.96026V21.8826H10.2463V12.0095ZM10.4637 8.95538C10.4424 7.98733 9.75014 7.25 8.62602 7.25C7.50189 7.25 6.76698 7.98733 6.76698 8.95538C6.76698 9.90338 7.48017 10.6619 8.58336 10.6619H8.60436C9.75014 10.6619 10.4637 9.90338 10.4637 8.95538ZM22.097 16.2217C22.097 13.1891 20.4759 11.7777 18.3136 11.7777C16.5689 11.7777 15.7878 12.736 15.3517 13.4082V12.0098H12.0653C12.1086 12.9362 12.0653 21.8829 12.0653 21.8829H15.3517V16.3689C15.3517 16.0739 15.373 15.7795 15.4599 15.5682C15.6974 14.9788 16.2381 14.3684 17.1459 14.3684C18.3355 14.3684 18.811 15.2738 18.811 16.6005V21.8826H22.0969L22.097 16.2217Z" />
    </symbol>

    <symbol viewBox="0 0 7 13" id="pager-prev">
        <path d="M6 0.999969L1 6.49997L6 12" stroke-width="1.4" />
    </symbol>

    <symbol viewBox="0 0 7 13" id="pager-next">
        <path d="M1 12.0001L6 6.50009L1 1.00009" stroke-width="1.4" />
    </symbol>

    <symbol viewBox="0 0 10 16" id="gallery-prev">
        <path d="M9 1L2 8L9 15" stroke-width="2" />
    </symbol>

    <symbol viewBox="0 0 10 16" id="gallery-next">
        <path d="M1 15L8 8L0.999999 1" stroke-width="2" />
    </symbol>

    <symbol viewBox="0 0 27 35" id="file-icon">
        <path d="M14.7733 1.125C14.9059 1.125 15.0331 1.17768 15.1268 1.27145L26.3536 12.4982C26.4473 12.5919 26.5 12.7191 26.5 12.8517V31C26.5 31.7625 26.1971 32.4938 25.6579 33.0329C25.1188 33.5721 24.3875 33.875 23.625 33.875H3.375C2.6125 33.875 1.88123 33.5721 1.34207 33.0329C0.802901 32.4938 0.5 31.7625 0.5 31V4C0.5 3.2375 0.802901 2.50624 1.34207 1.96707C1.88123 1.4279 2.6125 1.125 3.375 1.125H14.7733Z" stroke-linecap="round" stroke-linejoin="round" />
        <path d="M15.1875 2.3125V11.4375C15.1875 11.9898 15.6352 12.4375 16.1875 12.4375H25.3125" stroke-linecap="round" stroke-linejoin="round" />
    </symbol>

    <symbol viewBox="0 0 33 33" id="file-image">
        <path d="M26.125 4.125H6.875C5.35622 4.125 4.125 5.35622 4.125 6.875V26.125C4.125 27.6438 5.35622 28.875 6.875 28.875H26.125C27.6438 28.875 28.875 27.6438 28.875 26.125V6.875C28.875 5.35622 27.6438 4.125 26.125 4.125Z" stroke-linecap="round" stroke-linejoin="round" />
        <path d="M11.6875 13.75C12.8266 13.75 13.75 12.8266 13.75 11.6875C13.75 10.5484 12.8266 9.625 11.6875 9.625C10.5484 9.625 9.625 10.5484 9.625 11.6875C9.625 12.8266 10.5484 13.75 11.6875 13.75Z" stroke-linecap="round" stroke-linejoin="round" />
        <path d="M28.875 20.625L22 13.75L6.875 28.875" stroke-linecap="round" stroke-linejoin="round" />
    </symbol>

    <symbol viewBox="0 0 13 14" id="page-back-link">
        <rect y="7" width="1.93522" height="9.19227" transform="rotate(-45 0 7)" />
        <rect x="6.5" y="0.5" width="1.93522" height="9.19227" transform="rotate(45 6.5 0.5)" />
    </symbol>

    <symbol viewBox="0 0 21 25" id="video-play">
        <path d="M21 12.5L0.750001 24.1913L0.750002 0.808657L21 12.5Z" />
    </symbol>

    <symbol viewBox="0 0 24 24" id="btn-icon-programm">
        <path d="M14 2H6C5.46957 2 4.96086 2.21071 4.58579 2.58579C4.21071 2.96086 4 3.46957 4 4V20C4 20.5304 4.21071 21.0391 4.58579 21.4142C4.96086 21.7893 5.46957 22 6 22H18C18.5304 22 19.0391 21.7893 19.4142 21.4142C19.7893 21.0391 20 20.5304 20 20V8L14 2Z" stroke-width="2" stroke-linecap="round" stroke-linejoin="round" />
        <path d="M14 2V8H20" stroke-width="2" stroke-linecap="round" stroke-linejoin="round" />
        <path d="M16 13H8" stroke-width="2" stroke-linecap="round" stroke-linejoin="round" />
        <path d="M16 17H8" stroke-width="2" stroke-linecap="round" stroke-linejoin="round" />
        <path d="M10 9H9H8" stroke-width="2" stroke-linecap="round" stroke-linejoin="round" />
    </symbol>

    <symbol viewBox="0 0 24 24" id="btn-icon-image">
        <path d="M19 3H5C3.89543 3 3 3.89543 3 5V19C3 20.1046 3.89543 21 5 21H19C20.1046 21 21 20.1046 21 19V5C21 3.89543 20.1046 3 19 3Z" stroke-width="2" stroke-linecap="round" stroke-linejoin="round" />
        <path d="M8.5 10C9.32843 10 10 9.32843 10 8.5C10 7.67157 9.32843 7 8.5 7C7.67157 7 7 7.67157 7 8.5C7 9.32843 7.67157 10 8.5 10Z" stroke-width="2" stroke-linecap="round" stroke-linejoin="round" />
        <path d="M21 15L16 10L5 21" stroke-width="2" stroke-linecap="round" stroke-linejoin="round" />
    </symbol>

    <symbol viewBox="0 0 32 29" id="special-nomination">
        <path d="M16 3.23607L18.6412 11.3647L18.8657 12.0557H19.5922H28.1392L21.2246 17.0795L20.6368 17.5066L20.8613 18.1976L23.5024 26.3262L16.5878 21.3024L16 20.8754L15.4122 21.3024L8.49755 26.3262L11.1387 18.1976L11.3632 17.5066L10.7754 17.0795L3.86078 12.0557H12.4078H13.1343L13.3588 11.3647L16 3.23607Z" stroke="#747474" fill="none" stroke-width="2" />
    </symbol>

    <symbol viewBox="0 0 12 6" id="select-arrow">
        <path d="M1.5 1L6 5L10.5 1" stroke-width="2" stroke-linecap="round" stroke-linejoin="round" />
    </symbol>

    <symbol viewBox="0 0 12 7" id="speakers-filter-arrow">
        <path d="M1 1L6 6L11 1" stroke-width="1.6" stroke-linecap="round" stroke-linejoin="round" />
    </symbol>

    <symbol viewBox="0 0 8 10" id="speaker-event-play">
        <path d="M1 1L7 5L1 9V1Z" stroke-width="2" stroke-linecap="round" stroke-linejoin="round" />
    </symbol>

    <symbol viewBox="0 0 17 17" id="window-photo-close">
        <path d="M16 1L1 16" stroke-width="1.5" stroke-linecap="round" stroke-linejoin="round" />
        <path d="M1 1L16 16" stroke-width="1.5" stroke-linecap="round" stroke-linejoin="round" />
    </symbol>

    <symbol viewBox="0 0 17 16" id="window-photo-download">
        <path d="M14.167 8L14.167 2.66667C14.167 2.31304 14.0177 1.97391 13.7521 1.72386C13.4864 1.47381 13.126 1.33333 12.7503 1.33333L4.25033 1.33333C3.8746 1.33333 3.51427 1.47381 3.24859 1.72386C2.98292 1.97391 2.83366 2.31305 2.83366 2.66667L2.83366 8" stroke-width="1.5" stroke-linecap="round" stroke-linejoin="round" />
        <path d="M5.66634 12.0001L8.49967 14.6667L11.333 12.0001" stroke-width="1.5" stroke-linecap="round" stroke-linejoin="round" />
        <path d="M8.5 14.6667L8.5 6.00008" stroke-width="1.5" stroke-linecap="round" stroke-linejoin="round" />
    </symbol>

    <symbol viewBox="0 0 17 16" id="window-photo-share">
        <path d="M12.75 5.33325C13.9236 5.33325 14.875 4.43782 14.875 3.33325C14.875 2.22868 13.9236 1.33325 12.75 1.33325C11.5764 1.33325 10.625 2.22868 10.625 3.33325C10.625 4.43782 11.5764 5.33325 12.75 5.33325Z" stroke-width="1.5" stroke-linecap="round" stroke-linejoin="round" />
        <path d="M4.25 10C5.4236 10 6.375 9.10457 6.375 8C6.375 6.89543 5.4236 6 4.25 6C3.07639 6 2.125 6.89543 2.125 8C2.125 9.10457 3.07639 10 4.25 10Z" stroke-width="1.5" stroke-linecap="round" stroke-linejoin="round" />
        <path d="M12.75 14.6667C13.9236 14.6667 14.875 13.7713 14.875 12.6667C14.875 11.5622 13.9236 10.6667 12.75 10.6667C11.5764 10.6667 10.625 11.5622 10.625 12.6667C10.625 13.7713 11.5764 14.6667 12.75 14.6667Z" stroke-width="1.5" stroke-linecap="round" stroke-linejoin="round" />
        <path d="M6.08496 9.00659L10.9229 11.6599" stroke-width="1.5" stroke-linecap="round" stroke-linejoin="round" />
        <path d="M10.9158 4.34009L6.08496 6.99342" stroke-width="1.5" stroke-linecap="round" stroke-linejoin="round" />
    </symbol>

    <symbol viewBox="0 0 29 29" id="window-photo-share-link">
        <path d="M12.667 14.6667C12.9533 15.0495 13.3186 15.3662 13.738 15.5954C14.1575 15.8245 14.6213 15.9608 15.0981 15.9949C15.5749 16.0291 16.0534 15.9603 16.5012 15.7932C16.9491 15.6262 17.3557 15.3648 17.6937 15.0267L19.6937 13.0267C20.3009 12.3981 20.6368 11.556 20.6292 10.6821C20.6216 9.80806 20.2711 8.97202 19.6531 8.354C19.035 7.73597 18.199 7.38541 17.325 7.37781C16.451 7.37022 15.609 7.7062 14.9803 8.31339L13.8337 9.45339" stroke-width="2" stroke-linecap="round" stroke-linejoin="round" />
        <path d="M15.3335 13.3333C15.0472 12.9506 14.6819 12.6339 14.2624 12.4047C13.843 12.1755 13.3791 12.0392 12.9024 12.0051C12.4256 11.971 11.9471 12.0397 11.4992 12.2068C11.0514 12.3739 10.6447 12.6353 10.3068 12.9733L8.3068 14.9733C7.69961 15.602 7.36363 16.444 7.37122 17.318C7.37881 18.192 7.72938 19.028 8.3474 19.646C8.96543 20.2641 9.80147 20.6146 10.6755 20.6222C11.5495 20.6298 12.3915 20.2938 13.0201 19.6867L14.1601 18.5467" stroke-width="2" stroke-linecap="round" stroke-linejoin="round" />
    </symbol>

    <symbol viewBox="0 0 29 29" id="window-photo-share-fb">
        <path d="M29 14.4998C29 6.49077 22.509 -0.000244141 14.5 -0.000244141C6.49102 -0.000244141 0 6.49077 0 14.4998C0 21.7384 5.30156 27.7367 12.2344 28.8242V18.6912H8.55273V14.4998H12.2344V11.3052C12.2344 7.67173 14.398 5.66382 17.7115 5.66382C19.2975 5.66382 20.957 5.94702 20.957 5.94702V9.51538H19.1275C17.3264 9.51538 16.7656 10.634 16.7656 11.781V14.4998H20.7871L20.1442 18.6912H16.7656V28.8242C23.6984 27.7367 29 21.7384 29 14.4998Z" />
    </symbol>

    <symbol viewBox="0 0 29 29" id="window-photo-share-vk">
        <path fill-rule="evenodd" clip-rule="evenodd" d="M14.5 -0.000244141C6.49187 -0.000244141 0 6.49163 0 14.4998C0 22.5079 6.49187 28.9998 14.5 28.9998C22.5081 28.9998 29 22.5079 29 14.4998C29 6.49163 22.5081 -0.000244141 14.5 -0.000244141ZM21.7269 9.7408C22.2855 9.7408 22.4116 10.0407 22.2855 10.453C22.0886 11.3979 20.4539 13.9044 19.9476 14.6808C19.8514 14.8283 19.7959 14.9134 19.7988 14.9134C19.6006 15.2507 19.5285 15.4006 19.7988 15.7754C19.8965 15.914 20.1037 16.1255 20.3405 16.3671C20.584 16.6157 20.8589 16.8962 21.0782 17.1623C21.871 18.0993 22.4837 18.8865 22.6458 19.43C22.79 19.9735 22.5377 20.2546 21.9972 20.2546H20.1412C19.6493 20.2546 19.3958 19.9608 18.8555 19.3347C18.6238 19.0662 18.3394 18.7367 17.9609 18.343C16.8617 17.2373 16.3752 17.0873 16.1049 17.0873C15.7265 17.0873 15.6184 17.181 15.6184 17.7433V19.4862C15.6184 19.9547 15.4742 20.2358 14.2849 20.2358C12.3209 20.2358 10.1405 18.9989 8.6089 16.6938C6.30245 13.3204 5.67177 10.7716 5.67177 10.2656C5.67177 9.98443 5.76187 9.72206 6.30245 9.72206H8.17644C8.64494 9.72206 8.82513 9.92821 9.00532 10.4717C9.9243 13.2267 11.4559 15.6443 12.0866 15.6443C12.3209 15.6443 12.429 15.5318 12.429 14.9134V12.0647C12.3845 11.255 12.1135 10.9022 11.9125 10.6406C11.7879 10.4784 11.6902 10.3512 11.6902 10.1718C11.6902 9.94695 11.8704 9.72206 12.1587 9.72206H15.0778C15.4742 9.72206 15.6184 9.94695 15.6184 10.4342V14.2762C15.6184 14.6885 15.7805 14.8384 15.9067 14.8384C16.1409 14.8384 16.3391 14.6885 16.7716 14.2387C18.105 12.6832 19.06 10.2843 19.06 10.2843C19.1862 10.0032 19.4024 9.7408 19.8709 9.7408H21.7269Z" />
    </symbol>

    <symbol viewBox="0 0 18 18" id="sitemap-url">
        <path d="M7.5 9.74997C7.82209 10.1806 8.23302 10.5369 8.70491 10.7947C9.17681 11.0525 9.69863 11.2058 10.235 11.2442C10.7713 11.2826 11.3097 11.2052 11.8135 11.0173C12.3173 10.8294 12.7748 10.5353 13.155 10.155L15.405 7.90497C16.0881 7.19772 16.4661 6.25046 16.4575 5.26722C16.449 4.28398 16.0546 3.34343 15.3593 2.64815C14.664 1.95287 13.7235 1.55849 12.7403 1.54995C11.757 1.5414 10.8098 1.91938 10.1025 2.60247L8.8125 3.88497" stroke-linecap="round" stroke-linejoin="round"/>
        <path d="M10.5006 8.24992C10.1785 7.81933 9.76762 7.46304 9.29572 7.20522C8.82383 6.9474 8.30201 6.79409 7.76565 6.75567C7.22929 6.71726 6.69095 6.79465 6.18713 6.98259C5.68331 7.17053 5.2258 7.46462 4.84564 7.84492L2.59564 10.0949C1.91255 10.8022 1.53457 11.7494 1.54311 12.7327C1.55165 13.7159 1.94604 14.6565 2.64132 15.3517C3.3366 16.047 4.27715 16.4414 5.26038 16.45C6.24362 16.4585 7.19088 16.0805 7.89814 15.3974L9.18064 14.1149" stroke-linecap="round" stroke-linejoin="round"/>
    </symbol>

    <symbol viewBox="0 0 26 25" id="award-btn-vote">
        <path d="M13 4L15.2451 10.9098H22.5106L16.6327 15.1803L18.8779 22.0902L13 17.8197L7.12215 22.0902L9.36729 15.1803L3.48944 10.9098H10.7549L13 4Z" stroke-width="2" />
    </symbol>

    <symbol viewBox="0 0 24 24" id="award-btn-reglament">
        <path d="M14 2H6C5.46957 2 4.96086 2.21071 4.58579 2.58579C4.21071 2.96086 4 3.46957 4 4V20C4 20.5304 4.21071 21.0391 4.58579 21.4142C4.96086 21.7893 5.46957 22 6 22H18C18.5304 22 19.0391 21.7893 19.4142 21.4142C19.7893 21.0391 20 20.5304 20 20V8L14 2Z" stroke-width="2" stroke-linecap="round" stroke-linejoin="round" />
        <path d="M14 2V8H20" stroke-width="2" stroke-linecap="round" stroke-linejoin="round" />
        <path d="M16 13H8" stroke-width="2" stroke-linecap="round" stroke-linejoin="round" />
        <path d="M16 17H8" stroke-width="2" stroke-linecap="round" stroke-linejoin="round" />
        <path d="M10 9H9H8" stroke-width="2" stroke-linecap="round" stroke-linejoin="round" />
    </symbol>

    <symbol viewBox="0 0 39 36" id="award-special-nomination">
        <path d="M19.5 4.8541L22.4514 13.9377L22.7882 14.9742H23.878H33.4291L25.7021 20.5881L24.8204 21.2287L25.1572 22.2652L28.1086 31.3488L20.3817 25.7348L19.5 25.0942L18.6183 25.7348L10.8914 31.3488L13.8428 22.2652L14.1796 21.2287L13.2979 20.5881L5.57092 14.9742H15.122H16.2118L16.5486 13.9377L19.5 4.8541Z" stroke="#4680C2" stroke-width="3" />
    </symbol>

    <symbol viewBox="0 0 25 25" id="analytics-contacts-address">
        <path d="M1.5 11.834L23.6667 1.33398L13.1667 23.5007L10.8333 14.1673L1.5 11.834Z" stroke-width="2" stroke-linecap="round" stroke-linejoin="round" />
    </symbol>

    <symbol viewBox="0 0 38 8" id="analytics-location-info-btn">
        <path d="M37.3536 4.35355C37.5488 4.15829 37.5488 3.84171 37.3536 3.64645L34.1716 0.464466C33.9763 0.269204 33.6597 0.269204 33.4645 0.464466C33.2692 0.659728 33.2692 0.976311 33.4645 1.17157L36.2929 4L33.4645 6.82843C33.2692 7.02369 33.2692 7.34027 33.4645 7.53553C33.6597 7.7308 33.9763 7.7308 34.1716 7.53553L37.3536 4.35355ZM0 4.5H37V3.5H0V4.5Z" />
    </symbol>

    <symbol viewBox="0 0 16 16" id="analytics-location-info-coords">
        <path d="M2.28571 2.28571V9.14286H3.42857V11.4286H1.14286C0.511675 11.4286 0 10.9169 0 10.2857V1.14286C0 0.511675 0.511675 0 1.14286 0H10.2857C10.9169 0 11.4286 0.511675 11.4286 1.14286V3.42857H9.14286V2.28571H2.28571Z" />
        <path fill-rule="evenodd" clip-rule="evenodd" d="M4.57143 5.71429C4.57143 5.0831 5.0831 4.57143 5.71429 4.57143H14.8571C15.4883 4.57143 16 5.0831 16 5.71429V14.8571C16 15.4883 15.4883 16 14.8571 16H5.71429C5.0831 16 4.57143 15.4883 4.57143 14.8571V5.71429ZM6.85714 13.7143V6.85714H13.7143V13.7143H6.85714Z" />
    </symbol>

    <symbol viewBox="0 0 17 17" id="window-close">
        <path d="M16 1L1 16" stroke-width="2" stroke-linecap="round" stroke-linejoin="round" />
        <path d="M1 1L16 16" stroke-width="2" stroke-linecap="round" stroke-linejoin="round" />
    </symbol>

    <symbol viewBox="0 0 20 20" id="window-title-social">
        <path d="M15 6.66699C16.3807 6.66699 17.5 5.5477 17.5 4.16699C17.5 2.78628 16.3807 1.66699 15 1.66699C13.6193 1.66699 12.5 2.78628 12.5 4.16699C12.5 5.5477 13.6193 6.66699 15 6.66699Z" stroke-width="1.5" stroke-linecap="round" stroke-linejoin="round" />
        <path d="M5 12.5C6.38071 12.5 7.5 11.3807 7.5 10C7.5 8.61929 6.38071 7.5 5 7.5C3.61929 7.5 2.5 8.61929 2.5 10C2.5 11.3807 3.61929 12.5 5 12.5Z" stroke-width="1.5" stroke-linecap="round" stroke-linejoin="round" />
        <path d="M15 18.333C16.3807 18.333 17.5 17.2137 17.5 15.833C17.5 14.4523 16.3807 13.333 15 13.333C13.6193 13.333 12.5 14.4523 12.5 15.833C12.5 17.2137 13.6193 18.333 15 18.333Z" stroke-width="1.5" stroke-linecap="round" stroke-linejoin="round" />
        <path d="M7.16016 11.2578L12.8518 14.5745" stroke-width="1.5" stroke-linecap="round" stroke-linejoin="round" />
        <path d="M12.8435 5.4248L7.16016 8.74147" stroke-width="1.5" stroke-linecap="round" stroke-linejoin="round" />
    </symbol>

    <symbol viewBox="0 0 24 24" id="analytics-programm-tabs-menu-current">
        <path d="M6 9L12 15L18 9" stroke-width="2" stroke-linecap="round" stroke-linejoin="round" />
    </symbol>

</svg>