<svg version="1.1" xmlns="http://www.w3.org/2000/svg" xmlns:xlink="http://www.w3.org/1999/xlink">
    <symbol viewBox="0 0 79 53" id="logo">
        <path fill-rule="evenodd" clip-rule="evenodd" d="M0.509375 12.3338V0.896047H5.16107L7.07768 6.44233L9.02485 0.896047H13.5826V12.3338H10.0211V5.5829L7.43994 12.3338H6.23541L3.70862 5.5829V12.3338H0.509375ZM18.815 6.66976C18.815 7.6229 19.0222 8.36462 19.4399 8.89605C19.8577 9.42748 20.4215 9.69262 21.1324 9.69262C21.8433 9.69262 22.4071 9.42748 22.8237 8.89605C23.2415 8.36462 23.4498 7.6229 23.4498 6.66976V6.54405C23.4498 5.5909 23.2415 4.85376 22.8237 4.33376C22.4071 3.81262 21.8399 3.55205 21.1245 3.55205C20.4079 3.55205 19.8452 3.81033 19.432 4.32576C19.0199 4.84119 18.8139 5.58062 18.8139 6.54405V6.66976H18.815ZM27.1811 6.5909C27.1811 8.3829 26.6207 9.82291 25.4977 10.9109C24.3747 12 22.8939 12.5452 21.0543 12.5452C19.2101 12.5452 17.7509 12.0058 16.6731 10.9269C15.5977 9.84919 15.0588 8.43548 15.0588 6.68462V6.5589C15.0543 4.82062 15.6282 3.41147 16.7818 2.33376C17.9365 1.2549 19.3913 0.716618 21.1471 0.716618C22.9041 0.716618 24.3486 1.2309 25.483 2.2629C26.615 3.29376 27.1811 4.69262 27.1811 6.45833V6.5909ZM32.7373 12.5452C29.4973 12.5452 27.8354 11.2526 27.7539 8.66976H31.1535C31.226 9.54405 31.7535 9.98176 32.7384 9.98176C33.1494 9.98176 33.4607 9.89605 33.6724 9.72347C33.7756 9.64095 33.8581 9.53502 33.9132 9.4143C33.9682 9.29357 33.9943 9.16144 33.9894 9.02862C33.9894 8.73719 33.8762 8.52348 33.6498 8.38862C33.4233 8.25262 32.9977 8.1429 32.3739 8.05948C30.7516 7.87662 29.6184 7.51547 28.9743 6.97376C28.3301 6.43205 28.0086 5.59433 28.0086 4.45833C28.0086 3.32348 28.4162 2.41948 29.229 1.74748C30.0486 1.0709 31.1479 0.731475 32.529 0.731475C35.3773 0.731475 36.8965 1.94748 37.0879 4.38062H33.7652C33.6826 3.64576 33.2705 3.2789 32.529 3.2789C32.1735 3.2789 31.8973 3.35433 31.7026 3.50519C31.6078 3.57823 31.5316 3.67306 31.4804 3.78179C31.4293 3.89052 31.4045 4.01001 31.4082 4.13033C31.4082 4.3909 31.5192 4.59433 31.7411 4.73948C31.9618 4.88576 32.3796 4.99433 32.992 5.06748C34.5226 5.22976 35.6422 5.56462 36.3543 6.07548C37.0641 6.5909 37.4196 7.42748 37.4196 8.5829C37.4196 9.73948 37.0075 10.688 36.1833 11.4275C35.3592 12.1669 34.2101 12.5395 32.7373 12.544V12.5452ZM44.2426 12.5452C42.2592 12.5452 40.7603 12.0206 39.746 10.9738C38.7305 9.9269 38.2233 8.49719 38.2233 6.68462V6.5589C38.2233 4.81033 38.7747 3.3989 39.8762 2.32576C40.9743 1.25262 42.3418 0.716618 43.9799 0.716618C45.6181 0.710903 46.9109 1.08233 47.8584 1.83319C48.806 2.5829 49.3392 3.71662 49.4581 5.23205H45.7562C45.6384 4.13262 45.0849 3.5829 44.0954 3.5829C43.4411 3.5829 42.9294 3.83547 42.5581 4.34176C42.1867 4.8469 42.0033 5.58062 42.009 6.54405V6.66976C42.009 7.61719 42.1924 8.34976 42.5581 8.86405C42.9294 9.3749 43.4626 9.62976 44.1577 9.62976C45.275 9.62976 45.8988 9.06976 46.0267 7.94976H49.6041C49.5124 9.42405 48.9815 10.5578 48.0135 11.3486C47.0445 12.1406 45.7879 12.5395 44.2426 12.544V12.5452ZM54.0475 6.66976C54.0475 7.6229 54.2558 8.36462 54.6735 8.89605C55.0901 9.42748 55.655 9.69262 56.366 9.69262C57.0769 9.69262 57.6407 9.42748 58.0573 8.89605C58.475 8.36462 58.6833 7.6229 58.6833 6.66976V6.54405C58.6833 5.5909 58.475 4.85376 58.0573 4.33376C57.6407 3.81262 57.0735 3.55205 56.3581 3.55205C55.6415 3.55205 55.0788 3.81033 54.6656 4.32576C54.2535 4.84119 54.0475 5.58062 54.0475 6.54405V6.66976ZM62.4158 6.5909C62.4158 8.3829 61.8543 9.82291 60.7313 10.9109C59.6082 12 58.1275 12.5452 56.2879 12.5452C54.4437 12.5452 52.9833 12.0058 51.9067 10.9269C50.8313 9.84919 50.2924 8.43548 50.2924 6.68462V6.5589C50.2867 4.82062 50.8618 3.41147 52.0154 2.33376C53.1701 1.2549 54.6248 0.716618 56.3807 0.716618C58.1377 0.716618 59.5822 1.2309 60.7165 2.2629C61.8486 3.29376 62.4147 4.69262 62.4147 6.45833V6.5909H62.4158ZM65.2279 12.3338L62.6015 0.896047H66.2241L67.5226 7.72347L68.8901 0.896047H72.0033L73.5418 7.80233L74.9173 0.896047H78.2399L75.6135 12.3338H71.9886L70.4048 5.50519L68.8052 12.3338H65.2279ZM10.809 27.5829C10.809 29.2606 10.3539 30.5052 9.44145 31.3178C8.53013 32.1292 7.24975 32.5395 5.60145 32.544C3.95315 32.544 2.6807 32.128 1.78409 31.2938C0.893148 30.4606 0.448242 29.2343 0.448242 27.6138V20.8972H4.0256V27.4675C4.0256 28.2595 4.13881 28.8298 4.36522 29.1783C4.59164 29.5212 5.01164 29.6938 5.62409 29.6938C6.23768 29.6938 6.65202 29.5166 6.86938 29.1623C7.08447 28.808 7.19541 28.2378 7.20107 27.4515V20.8972H10.809V27.584V27.5829ZM12.7867 32.3338V20.896H17.4079C18.969 20.896 20.1475 21.208 20.9467 21.8332C21.7448 22.4583 22.1411 23.3829 22.1354 24.6069V24.6698C22.1354 26.0755 21.5003 27.0732 20.2279 27.6618L22.809 32.3338H19.0381L16.9369 28.4115H16.3652V32.3338H12.7879H12.7867ZM16.3641 26.0755H17.2064C18.1856 26.0755 18.6747 25.6595 18.6747 24.8252V24.7635C18.6747 24.352 18.5569 24.0572 18.3192 23.88C18.0826 23.7029 17.7169 23.6149 17.2222 23.6149H16.3652V26.0755H16.3641ZM27.5218 29.9498H28.6573C29.5539 29.9498 30.0022 29.5498 30.0022 28.7475V28.6846C30.0022 27.904 29.5279 27.5155 28.5803 27.5212H27.5218V29.9509V29.9498ZM27.5218 25.3566H28.6109C29.0547 25.3566 29.3716 25.2766 29.5618 25.1143C29.752 24.9532 29.8471 24.6983 29.8471 24.3486V24.2869C29.8471 23.6046 29.4305 23.2629 28.5962 23.2629H27.5218V25.3566ZM24.0215 32.3338V20.896H29.3682C30.6871 20.896 31.6607 21.1669 32.289 21.7075C32.9173 22.2503 33.232 22.976 33.232 23.888V23.9509C33.232 25.2835 32.5777 26.104 31.269 26.4115C31.9652 26.5418 32.5154 26.8286 32.9218 27.2709C33.3294 27.7132 33.5331 28.3178 33.5331 29.0835V29.1463C33.5331 31.2709 32.135 32.3338 29.3377 32.3338H24.0215ZM33.8965 32.3338L37.4581 20.896H42.0939L45.6407 32.3338H41.8471L41.3218 30.4275H37.7445L37.2418 32.3338H33.8965ZM39.5524 23.8172L38.4237 27.9658H40.6573L39.5524 23.8172ZM46.8079 32.3338V20.896H50.8256L54.0407 26.9418V20.896H57.1924V32.3338H53.7532L49.9743 25.4823V32.3338H46.8067H46.8079ZM0.509375 52.3338V40.896H8.34447V43.6926H4.10258V45.8183H7.51805V48.4892H4.10258V52.3338H0.509375ZM12.7641 46.6698C12.7641 47.6229 12.9724 48.3646 13.3901 48.896C13.8067 49.4275 14.3716 49.6926 15.0826 49.6926C15.7924 49.6926 16.3573 49.4275 16.7739 48.896C17.1916 48.3646 17.3999 47.6229 17.3999 46.6698V46.5441C17.3999 45.5909 17.1916 44.8538 16.7739 44.3338C16.3573 43.8126 15.7901 43.5521 15.0747 43.5521C14.3581 43.5521 13.7943 43.8103 13.3822 44.3258C12.9701 44.8412 12.7641 45.5806 12.7641 46.5441V46.6698ZM21.1324 46.5909C21.1324 48.3829 20.5709 49.8229 19.4479 50.9109C18.3248 52 16.8441 52.5452 15.0045 52.5452C13.1603 52.5452 11.6999 52.0058 10.6233 50.9269C9.54787 49.8492 9.009 48.4355 9.009 46.6846V46.5589C9.00334 44.8206 9.57843 43.4115 10.732 42.3338C11.8867 41.2549 13.3415 40.7166 15.0973 40.7166C16.8543 40.7166 18.2988 41.2309 19.4331 42.2629C20.5652 43.2938 21.1313 44.6926 21.1313 46.4583V46.5909H21.1324ZM22.5848 52.3338V40.896H27.2048C28.766 40.896 29.9445 41.208 30.7437 41.8332C31.5418 42.4583 31.9392 43.3829 31.9335 44.6069V44.6698C31.9335 46.0755 31.2973 47.0732 30.0248 47.6618L32.606 52.3338H28.8362L26.7339 48.4115H26.1622V52.3338H22.5848ZM26.1622 46.0755H27.0045C27.9826 46.0755 28.4728 45.6595 28.4728 44.8252V44.7635C28.4728 44.3521 28.3539 44.0572 28.1173 43.8801C27.8796 43.7029 27.5139 43.6149 27.0192 43.6149H26.1622V46.0755ZM43.8792 47.5841C43.8792 49.2606 43.423 50.5052 42.5116 51.3178C41.6003 52.1292 40.3199 52.5395 38.6716 52.5441C37.0233 52.5441 35.7509 52.1281 34.8543 51.2938C33.9633 50.4606 33.5184 49.2343 33.5184 47.6138V40.8972H37.0958V47.4675C37.0958 48.2595 37.209 48.8298 37.4354 49.1783C37.6618 49.5212 38.0807 49.6938 38.6943 49.6938C39.3079 49.6938 39.7222 49.5166 39.9396 49.1623C40.1547 48.808 40.2656 48.2378 40.2713 47.4515V40.8972H43.8792V47.5841ZM45.8569 52.3338V40.896H50.5098L52.4252 46.4423L54.3724 40.896H58.9313V52.3338H55.3686V45.5829L52.7875 52.3338H51.583L49.055 45.5829V52.3338H45.8558H45.8569Z" fill="black" />
    </symbol>

    <symbol viewBox="0 0 6 5" id="nav-arrow">
        <path d="M3 4.5L0.401924 4.89399e-07L5.59808 3.51373e-08L3 4.5Z" />
    </symbol>

    <symbol viewBox="0 0 24 24" id="header-search">
        <path d="M11 19C15.4183 19 19 15.4183 19 11C19 6.58172 15.4183 3 11 3C6.58172 3 3 6.58172 3 11C3 15.4183 6.58172 19 11 19Z" stroke-width="2" stroke-linecap="round" stroke-linejoin="round" />
        <path d="M21.0004 20.9999L16.6504 16.6499" stroke-width="2" stroke-linecap="round" stroke-linejoin="round" />
    </symbol>

    <symbol viewBox="0 0 25 24" id="header-search-close">
        <path d="M2 1.5L23.0312 22.5312" stroke-width="2" stroke-linecap="round" stroke-linejoin="round" />
        <path d="M23.0312 1.5L2.00003 22.5312" stroke-width="2" stroke-linecap="round" stroke-linejoin="round" />
    </symbol>

    <symbol viewBox="0 0 40 40" id="icon-fb">
        <path d="M40 20C40 8.95313 31.0469 0 20 0C8.95312 0 0 8.95313 0 20C0 29.9844 7.3125 38.2578 16.875 39.7578V25.7813H11.7969V20H16.875V15.5938C16.875 10.582 19.8594 7.8125 24.4297 7.8125C26.6172 7.8125 28.9062 8.20313 28.9062 8.20313V13.125H26.3828C23.8984 13.125 23.125 14.668 23.125 16.25V20H28.6719L27.7852 25.7813H23.125V39.7578C32.6875 38.2578 40 29.9844 40 20Z" />
    </symbol>

    <symbol viewBox="0 0 40 40" id="icon-instagram">
        <path fill-rule="evenodd" clip-rule="evenodd" d="M20 0C8.954 0 0 8.954 0 20s8.954 20 20 20 20-8.954 20-20S31.046 0 20 0zm-4.399 9.397c1.138-.051 1.502-.064 4.399-.064h-.004c2.898 0 3.26.013 4.398.064 1.136.052 1.911.232 2.591.496a5.212 5.212 0 011.89 1.23 5.235 5.235 0 011.23 1.89c.263.678.443 1.453.496 2.588.051 1.138.064 1.502.064 4.399 0 2.897-.013 3.26-.064 4.397-.053 1.135-.233 1.91-.496 2.59a5.237 5.237 0 01-1.23 1.888 5.219 5.219 0 01-1.889 1.232c-.679.263-1.455.443-2.59.495-1.138.052-1.5.065-4.398.065-2.896 0-3.26-.013-4.398-.065-1.135-.052-1.91-.232-2.589-.495a5.223 5.223 0 01-1.889-1.232 5.227 5.227 0 01-1.23-1.89c-.264-.677-.443-1.453-.496-2.588-.051-1.138-.064-1.5-.064-4.397 0-2.897.013-3.26.064-4.399.051-1.135.231-1.91.496-2.589a5.237 5.237 0 011.23-1.889 5.225 5.225 0 011.89-1.23c.679-.264 1.454-.444 2.59-.496z" />
        <path fill-rule="evenodd" clip-rule="evenodd" d="M19.041 11.256h.957c2.848 0 3.186.01 4.31.06 1.04.048 1.605.222 1.981.368a3.31 3.31 0 011.226.798c.373.373.604.729.798 1.227.146.375.32.94.367 1.98.052 1.124.063 1.462.063 4.309 0 2.846-.011 3.184-.063 4.309-.047 1.04-.22 1.604-.367 1.98a3.298 3.298 0 01-.798 1.225 3.3 3.3 0 01-1.226.798c-.375.146-.94.32-1.98.367-1.125.051-1.463.063-4.31.063-2.849 0-3.186-.012-4.31-.063-1.04-.048-1.605-.221-1.982-.367a3.303 3.303 0 01-1.226-.798 3.307 3.307 0 01-.798-1.226c-.146-.376-.32-.94-.368-1.98-.05-1.125-.061-1.463-.061-4.311 0-2.849.01-3.184.061-4.309.048-1.04.222-1.604.368-1.98.193-.498.425-.854.798-1.227a3.31 3.31 0 011.226-.798c.377-.147.941-.32 1.981-.368.984-.045 1.365-.058 3.353-.06v.003zm6.653 1.77a1.28 1.28 0 100 2.56 1.28 1.28 0 000-2.56zM14.52 20.001a5.478 5.478 0 1110.956 0 5.478 5.478 0 01-10.956 0z" />
        <path d="M20 16.445a3.556 3.556 0 110 7.11 3.556 3.556 0 010-7.11z" />
    </symbol>

    <symbol viewBox="0 0 40 40" id="icon-vk">
        <path fill-rule="evenodd" clip-rule="evenodd" d="M26.14 0H13.86C2.653 0 0 2.653 0 13.86v12.28C0 37.346 2.653 40 13.86 40h12.28C37.346 40 40 37.346 40 26.14V13.86C40 2.653 37.346 0 26.14 0zm5.73 12.703c.876 0 1.073.451.876 1.072-.309 1.424-2.87 5.199-3.663 6.368-.15.223-.237.35-.233.35-.31.509-.423.735 0 1.3.153.208.478.527.849.89.381.375.812.797 1.155 1.198 1.242 1.412 2.202 2.597 2.456 3.416.226.819-.17 1.242-1.016 1.242h-2.908c-.77 0-1.167-.443-2.014-1.386-.363-.404-.808-.9-1.401-1.493-1.722-1.666-2.484-1.892-2.908-1.892-.593 0-.762.141-.762.988v2.625c0 .706-.226 1.13-2.089 1.13-3.077 0-6.492-1.863-8.892-5.336-3.613-5.08-4.601-8.92-4.601-9.682 0-.423.14-.819.988-.819h2.936c.733 0 1.016.31 1.298 1.13 1.44 4.15 3.84 7.79 4.827 7.79.367 0 .537-.169.537-1.1v-4.291c-.07-1.22-.495-1.751-.81-2.145-.195-.244-.348-.436-.348-.706 0-.339.282-.678.734-.678h4.573c.621 0 .847.34.847 1.073v5.787c0 .621.254.847.452.847.367 0 .677-.226 1.355-.904 2.088-2.343 3.585-5.956 3.585-5.956.197-.423.536-.818 1.27-.818h2.907z" />
    </symbol>

    <symbol viewBox="0 0 40 40" id="icon-youtube">
        <path fill-rule="evenodd" clip-rule="evenodd" d="M20 0C8.954 0 0 8.954 0 20s8.954 20 20 20 20-8.954 20-20S31.046 0 20 0zm8.333 13.124a2.71 2.71 0 011.887 1.937c.445 1.708.445 5.272.445 5.272s0 3.564-.445 5.273a2.709 2.709 0 01-1.887 1.936C26.67 28 20 28 20 28s-6.671 0-8.335-.458a2.709 2.709 0 01-1.886-1.937c-.446-1.708-.446-5.272-.446-5.272s0-3.564.446-5.272a2.708 2.708 0 011.886-1.937c1.664-.458 8.335-.458 8.335-.458s6.67 0 8.334.458z" />
        <path d="M18 24v-6.667l5.333 3.334L18 24z" />
    </symbol>

    <symbol viewBox="0 0 7 13" id="pager-prev">
        <path d="M6 0.999969L1 6.49997L6 12" stroke-width="1.4" />
    </symbol>

    <symbol viewBox="0 0 7 13" id="pager-next">
        <path d="M1 12.0001L6 6.50009L1 1.00009" stroke-width="1.4" />
    </symbol>

    <symbol viewBox="0 0 10 16" id="gallery-prev">
        <path d="M9 1L2 8L9 15" stroke-width="2" />
    </symbol>

    <symbol viewBox="0 0 10 16" id="gallery-next">
        <path d="M1 15L8 8L0.999999 1" stroke-width="2" />
    </symbol>

</svg>