<svg version="1.1" xmlns="http://www.w3.org/2000/svg" xmlns:xlink="http://www.w3.org/1999/xlink">
    <symbol viewBox="0 0 224 108" id="logo">
        <path d="M24.63 0.5L19.04 16.27L13.54 0.5H0.18V32.99H9.37V13.81L16.63 32.99H20.09L27.49 13.81V32.99H37.72V0.5H24.63Z" />
        <path d="M66.08 16.91V16.54C66.08 11.04 63.44 8.04 59.35 8.04C55.26 8.04 52.76 11.04 52.76 16.54V16.91C52.76 22.45 55.35 25.49 59.44 25.49C63.53 25.49 66.08 22.31 66.08 16.91V16.91ZM42 17V16.64C42 6.54 49.63 0 59.35 0C69.35 0 76.8 6 76.8 16.31V16.68C76.8 26.81 69.8 33.58 59.17 33.58C48.54 33.58 42 26.81 42 17Z" />
        <path d="M78.44 22.59H88.2C88.39 24.59 89.39 26.31 92.75 26.31C95.16 26.31 96.34 25.22 96.34 23.63C96.34 22.04 95.21 21.35 91.71 20.86C82.34 19.86 79.16 17.09 79.16 10.4C79.16 4.4 84.07 0.0400009 92.16 0.0400009C100.25 0.0400009 104.7 3.31 105.25 10.4H95.7C95.6943 9.955 95.5956 9.51611 95.4102 9.11154C95.2247 8.70698 94.9567 8.34569 94.6233 8.0509C94.2899 7.75611 93.8985 7.53434 93.4743 7.39986C93.05 7.26537 92.6024 7.22114 92.16 7.27C90.02 7.27 88.93 8.27 88.93 9.63C88.93 10.99 89.93 11.91 93.48 12.36C101.66 13.22 106.2 15.36 106.2 22.54C106.2 28.54 101.48 33.54 92.75 33.54C83.57 33.54 78.66 29.86 78.44 22.54" />
        <path d="M108.52 17V16.64C108.52 6.64 115.75 0.0499992 125.33 0.0499992C134.11 0.0499992 140.01 4.05 140.78 12.86H130.15C129.84 9.86 128.24 8.18 125.38 8.18C121.65 8.18 119.38 11.09 119.38 16.59V16.95C119.38 22.36 121.56 25.36 125.56 25.36C128.47 25.36 130.56 23.86 130.93 20.59H141.19C140.65 29.13 134.37 33.59 125.79 33.59C114.07 33.59 108.52 26.91 108.52 16.96" />
        <path d="M167.28 16.91V16.54C167.28 11.04 164.64 8.04 160.55 8.04C156.46 8.04 154 11 154 16.54V16.91C154 22.45 156.6 25.49 160.68 25.49C164.76 25.49 167.32 22.31 167.32 16.91H167.28ZM143.23 16.91V16.55C143.23 6.55 150.87 -0.0400009 160.59 -0.0400009C170.55 -9.16421e-07 178 6 178 16.31V16.68C178 26.81 171.05 33.58 160.37 33.58C149.69 33.58 143.19 26.81 143.19 17" />
        <path d="M213.9 0.5L209.95 20.13L205.54 0.5H196.59L192.69 19.9L188.95 0.5H178.55L186.09 32.99H196.36L200.95 13.59L205.49 32.99H215.9L223.45 0.5H213.9Z" />
        <path d="M0 56.78V37.69H10.27V56.37C10.27 60.6 11.18 62.69 14.86 62.69C18.54 62.69 19.41 60.6 19.41 56.33V37.69H29.77V56.69C29.77 66.46 23.95 70.78 14.86 70.78C5.36 70.78 0 66.05 0 56.78Z" />
        <path d="M47.12 52.42C49.99 52.42 51.35 51.24 51.35 48.87V48.69C51.35 46.33 49.94 45.42 47.17 45.42H44.71V52.42H47.12ZM34.44 37.69H47.71C56.71 37.69 61.3 41.28 61.3 48.24V48.42C61.3954 50.2356 60.915 52.0349 59.9274 53.5613C58.9397 55.0876 57.4952 56.2631 55.8 56.92L63.21 70.19H52.39L46.39 59.05H44.71V70.19H34.44V37.69Z" />
        <path d="M81.2 63.42C83.83 63.42 85.06 62.19 85.06 60.01V59.83C85.06 57.69 83.88 56.51 80.97 56.51H77.97V63.42H81.2ZM81.06 50.37C83.61 50.37 84.6 49.51 84.6 47.51V47.33C84.6 45.38 83.6 44.42 81.02 44.42H77.92V50.37H81.06ZM67.88 37.69H83.24C91.24 37.69 94.33 41.38 94.33 46.19V46.38C94.33 50.15 92.33 52.51 88.69 53.38C92.51 54.06 95.19 56.43 95.19 60.97V61.16C95.19 66.92 91.51 70.16 83.19 70.16H67.88V37.69Z" />
        <path d="M112.86 57.78H119.27L116.09 46L112.86 57.78ZM110.09 37.69H123.41L133.59 70.19H122.68L121.18 64.77H110.91L109.46 70.19H99.87L110.09 37.69Z" />
        <path d="M138.26 37.7H149.8L159.03 54.88V37.7H168.07V70.19H158.21L147.35 50.73V70.19H138.26V37.7Z" />
        <path d="M0.18 74.89V107.39H10.5V96.48H20.32V88.88H10.5V82.84H22.68V74.89H0.18Z" />
        <path d="M48.67 91.29V90.93C48.67 85.43 46.03 82.44 41.94 82.44C37.85 82.44 35.35 85.38 35.35 90.93V91.29C35.35 96.84 37.95 99.88 42.04 99.88C46.13 99.88 48.67 96.7 48.67 91.29V91.29ZM24.59 91.29V91C24.59 81 32.22 74.41 41.94 74.41C51.94 74.41 59.4 80.41 59.4 90.73V91.09C59.4 101.22 52.4 108 41.76 108C31.12 108 24.59 101.2 24.59 91.34" />
        <path d="M76.26 89.62C79.12 89.62 80.48 88.44 80.48 86.07V85.89C80.48 83.53 79.07 82.62 76.3 82.62H73.85V89.62H76.26ZM63.57 74.89H76.85C85.85 74.89 90.44 78.48 90.44 85.43V85.62C90.5333 87.4339 90.0519 89.231 89.0644 90.7553C88.0768 92.2797 86.6335 93.4537 84.94 94.11L92.34 107.38H81.53L75.53 96.25H73.85V107.38H63.57V74.89Z" />
        <path d="M95 94V74.89H105.27V93.56C105.27 97.8 106.17 99.88 109.86 99.88C113.55 99.88 114.4 97.8 114.4 93.53V74.89H124.76V93.89C124.76 103.66 118.95 107.98 109.86 107.98C100.34 108 95 103.25 95 94Z" />
        <path d="M154.87 74.89L149.28 90.66L143.78 74.89H130.42V107.39H139.6V88.2L146.87 107.39H150.33L157.73 88.2V107.39H167.96V74.89H154.87Z" />
    </symbol>

    <symbol viewBox="0 0 6 5" id="nav-arrow">
        <path d="M3 4.5L0.401924 4.89399e-07L5.59808 3.51373e-08L3 4.5Z" />
    </symbol>

    <symbol viewBox="0 0 24 24" id="header-search">
        <path d="M11 19C15.4183 19 19 15.4183 19 11C19 6.58172 15.4183 3 11 3C6.58172 3 3 6.58172 3 11C3 15.4183 6.58172 19 11 19Z" stroke-width="2" stroke-linecap="round" stroke-linejoin="round" />
        <path d="M21.0004 20.9999L16.6504 16.6499" stroke-width="2" stroke-linecap="round" stroke-linejoin="round" />
    </symbol>

    <symbol viewBox="0 0 18 18" id="search-form-submit">
        <path d="M8.25 14.25C11.5637 14.25 14.25 11.5637 14.25 8.25C14.25 4.93629 11.5637 2.25 8.25 2.25C4.93629 2.25 2.25 4.93629 2.25 8.25C2.25 11.5637 4.93629 14.25 8.25 14.25Z" stroke-width="1.8" stroke-linecap="round" stroke-linejoin="round" />
        <path d="M15.7508 15.7498L12.4883 12.4873" stroke-width="1.8" stroke-linecap="round" stroke-linejoin="round" />
    </symbol>

    <symbol viewBox="0 0 25 24" id="header-search-close">
        <path d="M2 1.5L23.0312 22.5312" stroke-linecap="round" stroke-linejoin="round" />
        <path d="M23.0312 1.5L2.00003 22.5312" stroke-linecap="round" stroke-linejoin="round" />
    </symbol>

    <symbol viewBox="0 0 40 40" id="icon-fb">
        <path d="M40 20C40 8.95313 31.0469 0 20 0C8.95312 0 0 8.95313 0 20C0 29.9844 7.3125 38.2578 16.875 39.7578V25.7813H11.7969V20H16.875V15.5938C16.875 10.582 19.8594 7.8125 24.4297 7.8125C26.6172 7.8125 28.9062 8.20313 28.9062 8.20313V13.125H26.3828C23.8984 13.125 23.125 14.668 23.125 16.25V20H28.6719L27.7852 25.7813H23.125V39.7578C32.6875 38.2578 40 29.9844 40 20Z" />
    </symbol>

    <symbol viewBox="0 0 40 40" id="icon-instagram">
        <path fill-rule="evenodd" clip-rule="evenodd" d="M20 0C8.954 0 0 8.954 0 20s8.954 20 20 20 20-8.954 20-20S31.046 0 20 0zm-4.399 9.397c1.138-.051 1.502-.064 4.399-.064h-.004c2.898 0 3.26.013 4.398.064 1.136.052 1.911.232 2.591.496a5.212 5.212 0 011.89 1.23 5.235 5.235 0 011.23 1.89c.263.678.443 1.453.496 2.588.051 1.138.064 1.502.064 4.399 0 2.897-.013 3.26-.064 4.397-.053 1.135-.233 1.91-.496 2.59a5.237 5.237 0 01-1.23 1.888 5.219 5.219 0 01-1.889 1.232c-.679.263-1.455.443-2.59.495-1.138.052-1.5.065-4.398.065-2.896 0-3.26-.013-4.398-.065-1.135-.052-1.91-.232-2.589-.495a5.223 5.223 0 01-1.889-1.232 5.227 5.227 0 01-1.23-1.89c-.264-.677-.443-1.453-.496-2.588-.051-1.138-.064-1.5-.064-4.397 0-2.897.013-3.26.064-4.399.051-1.135.231-1.91.496-2.589a5.237 5.237 0 011.23-1.889 5.225 5.225 0 011.89-1.23c.679-.264 1.454-.444 2.59-.496z" />
        <path fill-rule="evenodd" clip-rule="evenodd" d="M19.041 11.256h.957c2.848 0 3.186.01 4.31.06 1.04.048 1.605.222 1.981.368a3.31 3.31 0 011.226.798c.373.373.604.729.798 1.227.146.375.32.94.367 1.98.052 1.124.063 1.462.063 4.309 0 2.846-.011 3.184-.063 4.309-.047 1.04-.22 1.604-.367 1.98a3.298 3.298 0 01-.798 1.225 3.3 3.3 0 01-1.226.798c-.375.146-.94.32-1.98.367-1.125.051-1.463.063-4.31.063-2.849 0-3.186-.012-4.31-.063-1.04-.048-1.605-.221-1.982-.367a3.303 3.303 0 01-1.226-.798 3.307 3.307 0 01-.798-1.226c-.146-.376-.32-.94-.368-1.98-.05-1.125-.061-1.463-.061-4.311 0-2.849.01-3.184.061-4.309.048-1.04.222-1.604.368-1.98.193-.498.425-.854.798-1.227a3.31 3.31 0 011.226-.798c.377-.147.941-.32 1.981-.368.984-.045 1.365-.058 3.353-.06v.003zm6.653 1.77a1.28 1.28 0 100 2.56 1.28 1.28 0 000-2.56zM14.52 20.001a5.478 5.478 0 1110.956 0 5.478 5.478 0 01-10.956 0z" />
        <path d="M20 16.445a3.556 3.556 0 110 7.11 3.556 3.556 0 010-7.11z" />
    </symbol>

    <symbol viewBox="0 0 40 40" id="icon-vk">
        <path fill-rule="evenodd" clip-rule="evenodd" d="M26.14 0H13.86C2.653 0 0 2.653 0 13.86v12.28C0 37.346 2.653 40 13.86 40h12.28C37.346 40 40 37.346 40 26.14V13.86C40 2.653 37.346 0 26.14 0zm5.73 12.703c.876 0 1.073.451.876 1.072-.309 1.424-2.87 5.199-3.663 6.368-.15.223-.237.35-.233.35-.31.509-.423.735 0 1.3.153.208.478.527.849.89.381.375.812.797 1.155 1.198 1.242 1.412 2.202 2.597 2.456 3.416.226.819-.17 1.242-1.016 1.242h-2.908c-.77 0-1.167-.443-2.014-1.386-.363-.404-.808-.9-1.401-1.493-1.722-1.666-2.484-1.892-2.908-1.892-.593 0-.762.141-.762.988v2.625c0 .706-.226 1.13-2.089 1.13-3.077 0-6.492-1.863-8.892-5.336-3.613-5.08-4.601-8.92-4.601-9.682 0-.423.14-.819.988-.819h2.936c.733 0 1.016.31 1.298 1.13 1.44 4.15 3.84 7.79 4.827 7.79.367 0 .537-.169.537-1.1v-4.291c-.07-1.22-.495-1.751-.81-2.145-.195-.244-.348-.436-.348-.706 0-.339.282-.678.734-.678h4.573c.621 0 .847.34.847 1.073v5.787c0 .621.254.847.452.847.367 0 .677-.226 1.355-.904 2.088-2.343 3.585-5.956 3.585-5.956.197-.423.536-.818 1.27-.818h2.907z" />
    </symbol>

    <symbol viewBox="0 0 40 40" id="icon-youtube">
        <path fill-rule="evenodd" clip-rule="evenodd" d="M20 0C8.954 0 0 8.954 0 20s8.954 20 20 20 20-8.954 20-20S31.046 0 20 0zm8.333 13.124a2.71 2.71 0 011.887 1.937c.445 1.708.445 5.272.445 5.272s0 3.564-.445 5.273a2.709 2.709 0 01-1.887 1.936C26.67 28 20 28 20 28s-6.671 0-8.335-.458a2.709 2.709 0 01-1.886-1.937c-.446-1.708-.446-5.272-.446-5.272s0-3.564.446-5.272a2.708 2.708 0 011.886-1.937c1.664-.458 8.335-.458 8.335-.458s6.67 0 8.334.458z" />
        <path d="M18 24v-6.667l5.333 3.334L18 24z" />
    </symbol>

    <symbol viewBox="0 0 30 30" id="icon-twitter">
        <path fill-rule="evenodd" clip-rule="evenodd" d="M15 0C6.71573 0 0 6.71573 0 15C0 23.2843 6.71573 30 15 30C23.2843 30 30 23.2843 30 15C30 6.71573 23.2843 0 15 0ZM14.5822 12.7112L14.5508 12.1922C14.4563 10.847 15.2852 9.61822 16.5967 9.14155C17.0794 8.97207 17.8978 8.95089 18.4329 9.09918C18.6427 9.16274 19.0414 9.37459 19.3247 9.56526L19.8388 9.91481L20.4054 9.73474C20.7202 9.6394 21.1398 9.48052 21.3287 9.37459C21.5071 9.27926 21.6645 9.2263 21.6645 9.25807C21.6645 9.43815 21.2762 10.0525 20.951 10.3915C20.5103 10.8681 20.6362 10.9105 21.5281 10.5927C22.0632 10.4127 22.0737 10.4127 21.9687 10.6139C21.9058 10.7198 21.5805 11.0906 21.2343 11.4295C20.6467 12.0121 20.6152 12.0757 20.6152 12.5629C20.6152 13.315 20.2585 14.8827 19.9018 15.7407C19.2408 17.3508 17.8243 19.0138 16.4079 19.8506C14.4144 21.0264 11.7598 21.323 9.52499 20.6344C8.78005 20.4014 7.5 19.8082 7.5 19.7023C7.5 19.6705 7.88821 19.6282 8.36036 19.6176C9.34663 19.5964 10.3329 19.321 11.1723 18.8337L11.7388 18.4948L11.0883 18.2723C10.165 17.9545 9.33613 17.2237 9.12629 16.5351C9.06334 16.3127 9.08432 16.3021 9.67188 16.3021L10.2804 16.2915L9.76631 16.0479C9.15777 15.7407 8.60168 15.2217 8.32888 14.692C8.12953 14.3107 7.87772 13.3468 7.95116 13.2726C7.97215 13.2409 8.19248 13.3044 8.4443 13.3892C9.16826 13.654 9.26269 13.5904 8.843 13.1455C8.05609 12.3405 7.81477 11.1435 8.19248 10.0101L8.37085 9.5017L9.06334 10.1902C10.4798 11.5778 12.148 12.4041 14.0576 12.6477L14.5822 12.7112Z" />
    </symbol>

    <symbol viewBox="0 0 29 29" id="icon-linkedid">
        <path fill-rule="evenodd" clip-rule="evenodd" d="M0 14.5C0 6.49187 6.49187 0 14.5 0C22.5081 0 29 6.49187 29 14.5C29 22.5081 22.5081 29 14.5 29C6.49187 29 0 22.5081 0 14.5ZM10.2463 12.0095H6.96026V21.8826H10.2463V12.0095ZM10.4637 8.95538C10.4424 7.98733 9.75014 7.25 8.62602 7.25C7.50189 7.25 6.76698 7.98733 6.76698 8.95538C6.76698 9.90338 7.48017 10.6619 8.58336 10.6619H8.60436C9.75014 10.6619 10.4637 9.90338 10.4637 8.95538ZM22.097 16.2217C22.097 13.1891 20.4759 11.7777 18.3136 11.7777C16.5689 11.7777 15.7878 12.736 15.3517 13.4082V12.0098H12.0653C12.1086 12.9362 12.0653 21.8829 12.0653 21.8829H15.3517V16.3689C15.3517 16.0739 15.373 15.7795 15.4599 15.5682C15.6974 14.9788 16.2381 14.3684 17.1459 14.3684C18.3355 14.3684 18.811 15.2738 18.811 16.6005V21.8826H22.0969L22.097 16.2217Z" />
    </symbol>

    <svg viewBox="0 0 32 32" id="icon-telegram">
        <path fill-rule="evenodd" clip-rule="evenodd" d="M32 16C32 24.8365 24.8365 32 16 32C7.16347 32 0 24.8365 0 16C0 7.16347 7.16347 0 16 0C24.8365 0 32 7.16347 32 16ZM10.7143 14.5343C9.11153 15.2341 7.46473 15.9532 5.95883 16.7827C5.17251 17.3584 6.21759 17.7657 7.19807 18.1477C7.35393 18.2084 7.50813 18.2685 7.65313 18.3285C7.7738 18.3656 7.89647 18.4047 8.0208 18.4443C9.11127 18.7917 10.3271 19.1791 11.3858 18.5963C13.1249 17.5973 14.766 16.4424 16.4059 15.2883C16.9432 14.9102 17.4803 14.5322 18.0207 14.1598C18.0461 14.1436 18.0746 14.1251 18.1059 14.1049C18.5662 13.8064 19.6016 13.1353 19.2186 14.0601C18.313 15.0505 17.3429 15.9271 16.3677 16.8087C15.7103 17.4027 15.0506 17.999 14.4066 18.6337C13.8457 19.0894 13.2633 20.0059 13.8913 20.6441C15.3379 21.6567 16.8071 22.6449 18.2755 23.6325C18.7533 23.9538 19.2311 24.2751 19.7079 24.5973C20.516 25.2425 21.779 24.7205 21.9567 23.7123C22.0357 23.2485 22.115 22.7848 22.1943 22.321C22.6327 19.7579 23.0713 17.1938 23.4587 14.6223C23.5113 14.2189 23.571 13.8156 23.6307 13.4121C23.7755 12.434 23.9204 11.4547 23.9657 10.4714C23.849 9.49007 22.6591 9.70587 21.997 9.92653C18.5935 11.2216 15.2241 12.6127 11.8679 14.0283C11.4877 14.1967 11.1023 14.3649 10.7143 14.5343Z" />
    </svg>

    <symbol viewBox="0 0 7 13" id="pager-prev">
        <path d="M6 0.999969L1 6.49997L6 12" stroke-width="1.4" />
    </symbol>

    <symbol viewBox="0 0 7 13" id="pager-next">
        <path d="M1 12.0001L6 6.50009L1 1.00009" stroke-width="1.4" />
    </symbol>

    <symbol viewBox="0 0 10 16" id="gallery-prev">
        <path d="M9 1L2 8L9 15" stroke-width="2" />
    </symbol>

    <symbol viewBox="0 0 10 16" id="gallery-next">
        <path d="M1 15L8 8L0.999999 1" stroke-width="2" />
    </symbol>

    <symbol viewBox="0 0 27 35" id="file-icon">
        <path d="M14.7733 1.125C14.9059 1.125 15.0331 1.17768 15.1268 1.27145L26.3536 12.4982C26.4473 12.5919 26.5 12.7191 26.5 12.8517V31C26.5 31.7625 26.1971 32.4938 25.6579 33.0329C25.1188 33.5721 24.3875 33.875 23.625 33.875H3.375C2.6125 33.875 1.88123 33.5721 1.34207 33.0329C0.802901 32.4938 0.5 31.7625 0.5 31V4C0.5 3.2375 0.802901 2.50624 1.34207 1.96707C1.88123 1.4279 2.6125 1.125 3.375 1.125H14.7733Z" stroke-linecap="round" stroke-linejoin="round" />
        <path d="M15.1875 2.3125V11.4375C15.1875 11.9898 15.6352 12.4375 16.1875 12.4375H25.3125" stroke-linecap="round" stroke-linejoin="round" />
    </symbol>

    <symbol viewBox="0 0 33 33" id="file-image">
        <path d="M26.125 4.125H6.875C5.35622 4.125 4.125 5.35622 4.125 6.875V26.125C4.125 27.6438 5.35622 28.875 6.875 28.875H26.125C27.6438 28.875 28.875 27.6438 28.875 26.125V6.875C28.875 5.35622 27.6438 4.125 26.125 4.125Z" stroke-linecap="round" stroke-linejoin="round" />
        <path d="M11.6875 13.75C12.8266 13.75 13.75 12.8266 13.75 11.6875C13.75 10.5484 12.8266 9.625 11.6875 9.625C10.5484 9.625 9.625 10.5484 9.625 11.6875C9.625 12.8266 10.5484 13.75 11.6875 13.75Z" stroke-linecap="round" stroke-linejoin="round" />
        <path d="M28.875 20.625L22 13.75L6.875 28.875" stroke-linecap="round" stroke-linejoin="round" />
    </symbol>

    <symbol viewBox="0 0 13 14" id="page-back-link">
        <rect y="7" width="1.93522" height="9.19227" transform="rotate(-45 0 7)" />
        <rect x="6.5" y="0.5" width="1.93522" height="9.19227" transform="rotate(45 6.5 0.5)" />
    </symbol>

    <symbol viewBox="0 0 21 25" id="video-play">
        <path d="M21 12.5L0.750001 24.1913L0.750002 0.808657L21 12.5Z" />
    </symbol>

    <symbol viewBox="0 0 24 24" id="btn-icon-programm">
        <path d="M14 2H6C5.46957 2 4.96086 2.21071 4.58579 2.58579C4.21071 2.96086 4 3.46957 4 4V20C4 20.5304 4.21071 21.0391 4.58579 21.4142C4.96086 21.7893 5.46957 22 6 22H18C18.5304 22 19.0391 21.7893 19.4142 21.4142C19.7893 21.0391 20 20.5304 20 20V8L14 2Z" stroke-width="2" stroke-linecap="round" stroke-linejoin="round" />
        <path d="M14 2V8H20" stroke-width="2" stroke-linecap="round" stroke-linejoin="round" />
        <path d="M16 13H8" stroke-width="2" stroke-linecap="round" stroke-linejoin="round" />
        <path d="M16 17H8" stroke-width="2" stroke-linecap="round" stroke-linejoin="round" />
        <path d="M10 9H9H8" stroke-width="2" stroke-linecap="round" stroke-linejoin="round" />
    </symbol>

    <symbol viewBox="0 0 24 24" id="btn-icon-image">
        <path d="M19 3H5C3.89543 3 3 3.89543 3 5V19C3 20.1046 3.89543 21 5 21H19C20.1046 21 21 20.1046 21 19V5C21 3.89543 20.1046 3 19 3Z" stroke-width="2" stroke-linecap="round" stroke-linejoin="round" />
        <path d="M8.5 10C9.32843 10 10 9.32843 10 8.5C10 7.67157 9.32843 7 8.5 7C7.67157 7 7 7.67157 7 8.5C7 9.32843 7.67157 10 8.5 10Z" stroke-width="2" stroke-linecap="round" stroke-linejoin="round" />
        <path d="M21 15L16 10L5 21" stroke-width="2" stroke-linecap="round" stroke-linejoin="round" />
    </symbol>

    <symbol viewBox="0 0 32 29" id="special-nomination">
        <path d="M16 3.23607L18.6412 11.3647L18.8657 12.0557H19.5922H28.1392L21.2246 17.0795L20.6368 17.5066L20.8613 18.1976L23.5024 26.3262L16.5878 21.3024L16 20.8754L15.4122 21.3024L8.49755 26.3262L11.1387 18.1976L11.3632 17.5066L10.7754 17.0795L3.86078 12.0557H12.4078H13.1343L13.3588 11.3647L16 3.23607Z" stroke="#747474" fill="none" stroke-width="2" />
    </symbol>

    <symbol viewBox="0 0 12 6" id="select-arrow">
        <path d="M1.5 1L6 5L10.5 1" stroke-width="2" stroke-linecap="round" stroke-linejoin="round" />
    </symbol>

    <symbol viewBox="0 0 12 7" id="speakers-filter-arrow">
        <path d="M1 1L6 6L11 1" stroke-width="1.6" stroke-linecap="round" stroke-linejoin="round" />
    </symbol>

    <symbol viewBox="0 0 8 10" id="speaker-event-play">
        <path d="M1 1L7 5L1 9V1Z" stroke-width="2" stroke-linecap="round" stroke-linejoin="round" />
    </symbol>

    <symbol viewBox="0 0 17 17" id="window-photo-close">
        <path d="M16 1L1 16" stroke-width="1.5" stroke-linecap="round" stroke-linejoin="round" />
        <path d="M1 1L16 16" stroke-width="1.5" stroke-linecap="round" stroke-linejoin="round" />
    </symbol>

    <symbol viewBox="0 0 17 16" id="window-photo-download">
        <path d="M14.167 8L14.167 2.66667C14.167 2.31304 14.0177 1.97391 13.7521 1.72386C13.4864 1.47381 13.126 1.33333 12.7503 1.33333L4.25033 1.33333C3.8746 1.33333 3.51427 1.47381 3.24859 1.72386C2.98292 1.97391 2.83366 2.31305 2.83366 2.66667L2.83366 8" stroke-width="1.5" stroke-linecap="round" stroke-linejoin="round" />
        <path d="M5.66634 12.0001L8.49967 14.6667L11.333 12.0001" stroke-width="1.5" stroke-linecap="round" stroke-linejoin="round" />
        <path d="M8.5 14.6667L8.5 6.00008" stroke-width="1.5" stroke-linecap="round" stroke-linejoin="round" />
    </symbol>

    <symbol viewBox="0 0 17 16" id="window-photo-share">
        <path d="M12.75 5.33325C13.9236 5.33325 14.875 4.43782 14.875 3.33325C14.875 2.22868 13.9236 1.33325 12.75 1.33325C11.5764 1.33325 10.625 2.22868 10.625 3.33325C10.625 4.43782 11.5764 5.33325 12.75 5.33325Z" stroke-width="1.5" stroke-linecap="round" stroke-linejoin="round" />
        <path d="M4.25 10C5.4236 10 6.375 9.10457 6.375 8C6.375 6.89543 5.4236 6 4.25 6C3.07639 6 2.125 6.89543 2.125 8C2.125 9.10457 3.07639 10 4.25 10Z" stroke-width="1.5" stroke-linecap="round" stroke-linejoin="round" />
        <path d="M12.75 14.6667C13.9236 14.6667 14.875 13.7713 14.875 12.6667C14.875 11.5622 13.9236 10.6667 12.75 10.6667C11.5764 10.6667 10.625 11.5622 10.625 12.6667C10.625 13.7713 11.5764 14.6667 12.75 14.6667Z" stroke-width="1.5" stroke-linecap="round" stroke-linejoin="round" />
        <path d="M6.08496 9.00659L10.9229 11.6599" stroke-width="1.5" stroke-linecap="round" stroke-linejoin="round" />
        <path d="M10.9158 4.34009L6.08496 6.99342" stroke-width="1.5" stroke-linecap="round" stroke-linejoin="round" />
    </symbol>

    <symbol viewBox="0 0 29 29" id="window-photo-share-link">
        <path d="M12.667 14.6667C12.9533 15.0495 13.3186 15.3662 13.738 15.5954C14.1575 15.8245 14.6213 15.9608 15.0981 15.9949C15.5749 16.0291 16.0534 15.9603 16.5012 15.7932C16.9491 15.6262 17.3557 15.3648 17.6937 15.0267L19.6937 13.0267C20.3009 12.3981 20.6368 11.556 20.6292 10.6821C20.6216 9.80806 20.2711 8.97202 19.6531 8.354C19.035 7.73597 18.199 7.38541 17.325 7.37781C16.451 7.37022 15.609 7.7062 14.9803 8.31339L13.8337 9.45339" stroke-width="2" stroke-linecap="round" stroke-linejoin="round" />
        <path d="M15.3335 13.3333C15.0472 12.9506 14.6819 12.6339 14.2624 12.4047C13.843 12.1755 13.3791 12.0392 12.9024 12.0051C12.4256 11.971 11.9471 12.0397 11.4992 12.2068C11.0514 12.3739 10.6447 12.6353 10.3068 12.9733L8.3068 14.9733C7.69961 15.602 7.36363 16.444 7.37122 17.318C7.37881 18.192 7.72938 19.028 8.3474 19.646C8.96543 20.2641 9.80147 20.6146 10.6755 20.6222C11.5495 20.6298 12.3915 20.2938 13.0201 19.6867L14.1601 18.5467" stroke-width="2" stroke-linecap="round" stroke-linejoin="round" />
    </symbol>

    <symbol viewBox="0 0 29 29" id="window-photo-share-fb">
        <path d="M29 14.4998C29 6.49077 22.509 -0.000244141 14.5 -0.000244141C6.49102 -0.000244141 0 6.49077 0 14.4998C0 21.7384 5.30156 27.7367 12.2344 28.8242V18.6912H8.55273V14.4998H12.2344V11.3052C12.2344 7.67173 14.398 5.66382 17.7115 5.66382C19.2975 5.66382 20.957 5.94702 20.957 5.94702V9.51538H19.1275C17.3264 9.51538 16.7656 10.634 16.7656 11.781V14.4998H20.7871L20.1442 18.6912H16.7656V28.8242C23.6984 27.7367 29 21.7384 29 14.4998Z" />
    </symbol>

    <symbol viewBox="0 0 29 29" id="window-photo-share-vk">
        <path fill-rule="evenodd" clip-rule="evenodd" d="M14.5 -0.000244141C6.49187 -0.000244141 0 6.49163 0 14.4998C0 22.5079 6.49187 28.9998 14.5 28.9998C22.5081 28.9998 29 22.5079 29 14.4998C29 6.49163 22.5081 -0.000244141 14.5 -0.000244141ZM21.7269 9.7408C22.2855 9.7408 22.4116 10.0407 22.2855 10.453C22.0886 11.3979 20.4539 13.9044 19.9476 14.6808C19.8514 14.8283 19.7959 14.9134 19.7988 14.9134C19.6006 15.2507 19.5285 15.4006 19.7988 15.7754C19.8965 15.914 20.1037 16.1255 20.3405 16.3671C20.584 16.6157 20.8589 16.8962 21.0782 17.1623C21.871 18.0993 22.4837 18.8865 22.6458 19.43C22.79 19.9735 22.5377 20.2546 21.9972 20.2546H20.1412C19.6493 20.2546 19.3958 19.9608 18.8555 19.3347C18.6238 19.0662 18.3394 18.7367 17.9609 18.343C16.8617 17.2373 16.3752 17.0873 16.1049 17.0873C15.7265 17.0873 15.6184 17.181 15.6184 17.7433V19.4862C15.6184 19.9547 15.4742 20.2358 14.2849 20.2358C12.3209 20.2358 10.1405 18.9989 8.6089 16.6938C6.30245 13.3204 5.67177 10.7716 5.67177 10.2656C5.67177 9.98443 5.76187 9.72206 6.30245 9.72206H8.17644C8.64494 9.72206 8.82513 9.92821 9.00532 10.4717C9.9243 13.2267 11.4559 15.6443 12.0866 15.6443C12.3209 15.6443 12.429 15.5318 12.429 14.9134V12.0647C12.3845 11.255 12.1135 10.9022 11.9125 10.6406C11.7879 10.4784 11.6902 10.3512 11.6902 10.1718C11.6902 9.94695 11.8704 9.72206 12.1587 9.72206H15.0778C15.4742 9.72206 15.6184 9.94695 15.6184 10.4342V14.2762C15.6184 14.6885 15.7805 14.8384 15.9067 14.8384C16.1409 14.8384 16.3391 14.6885 16.7716 14.2387C18.105 12.6832 19.06 10.2843 19.06 10.2843C19.1862 10.0032 19.4024 9.7408 19.8709 9.7408H21.7269Z" />
    </symbol>

    <symbol viewBox="0 0 18 18" id="sitemap-url">
        <path d="M7.5 9.74997C7.82209 10.1806 8.23302 10.5369 8.70491 10.7947C9.17681 11.0525 9.69863 11.2058 10.235 11.2442C10.7713 11.2826 11.3097 11.2052 11.8135 11.0173C12.3173 10.8294 12.7748 10.5353 13.155 10.155L15.405 7.90497C16.0881 7.19772 16.4661 6.25046 16.4575 5.26722C16.449 4.28398 16.0546 3.34343 15.3593 2.64815C14.664 1.95287 13.7235 1.55849 12.7403 1.54995C11.757 1.5414 10.8098 1.91938 10.1025 2.60247L8.8125 3.88497" stroke-linecap="round" stroke-linejoin="round"/>
        <path d="M10.5006 8.24992C10.1785 7.81933 9.76762 7.46304 9.29572 7.20522C8.82383 6.9474 8.30201 6.79409 7.76565 6.75567C7.22929 6.71726 6.69095 6.79465 6.18713 6.98259C5.68331 7.17053 5.2258 7.46462 4.84564 7.84492L2.59564 10.0949C1.91255 10.8022 1.53457 11.7494 1.54311 12.7327C1.55165 13.7159 1.94604 14.6565 2.64132 15.3517C3.3366 16.047 4.27715 16.4414 5.26038 16.45C6.24362 16.4585 7.19088 16.0805 7.89814 15.3974L9.18064 14.1149" stroke-linecap="round" stroke-linejoin="round"/>
    </symbol>

    <symbol viewBox="0 0 26 25" id="award-btn-vote">
        <path d="M13 4L15.2451 10.9098H22.5106L16.6327 15.1803L18.8779 22.0902L13 17.8197L7.12215 22.0902L9.36729 15.1803L3.48944 10.9098H10.7549L13 4Z" stroke-width="2" />
    </symbol>

    <symbol viewBox="0 0 24 24" id="award-btn-reglament">
        <path d="M14 2H6C5.46957 2 4.96086 2.21071 4.58579 2.58579C4.21071 2.96086 4 3.46957 4 4V20C4 20.5304 4.21071 21.0391 4.58579 21.4142C4.96086 21.7893 5.46957 22 6 22H18C18.5304 22 19.0391 21.7893 19.4142 21.4142C19.7893 21.0391 20 20.5304 20 20V8L14 2Z" stroke-width="2" stroke-linecap="round" stroke-linejoin="round" />
        <path d="M14 2V8H20" stroke-width="2" stroke-linecap="round" stroke-linejoin="round" />
        <path d="M16 13H8" stroke-width="2" stroke-linecap="round" stroke-linejoin="round" />
        <path d="M16 17H8" stroke-width="2" stroke-linecap="round" stroke-linejoin="round" />
        <path d="M10 9H9H8" stroke-width="2" stroke-linecap="round" stroke-linejoin="round" />
    </symbol>

    <symbol viewBox="0 0 39 36" id="award-special-nomination">
        <path d="M19.5 4.8541L22.4514 13.9377L22.7882 14.9742H23.878H33.4291L25.7021 20.5881L24.8204 21.2287L25.1572 22.2652L28.1086 31.3488L20.3817 25.7348L19.5 25.0942L18.6183 25.7348L10.8914 31.3488L13.8428 22.2652L14.1796 21.2287L13.2979 20.5881L5.57092 14.9742H15.122H16.2118L16.5486 13.9377L19.5 4.8541Z" stroke="#4680C2" stroke-width="3" />
    </symbol>

    <symbol viewBox="0 0 25 25" id="analytics-contacts-address">
        <path d="M1.5 11.834L23.6667 1.33398L13.1667 23.5007L10.8333 14.1673L1.5 11.834Z" stroke-width="2" stroke-linecap="round" stroke-linejoin="round" />
    </symbol>

    <symbol viewBox="0 0 38 8" id="analytics-location-info-btn">
        <path d="M37.3536 4.35355C37.5488 4.15829 37.5488 3.84171 37.3536 3.64645L34.1716 0.464466C33.9763 0.269204 33.6597 0.269204 33.4645 0.464466C33.2692 0.659728 33.2692 0.976311 33.4645 1.17157L36.2929 4L33.4645 6.82843C33.2692 7.02369 33.2692 7.34027 33.4645 7.53553C33.6597 7.7308 33.9763 7.7308 34.1716 7.53553L37.3536 4.35355ZM0 4.5H37V3.5H0V4.5Z" />
    </symbol>

    <symbol viewBox="0 0 16 16" id="analytics-location-info-coords">
        <path d="M2.28571 2.28571V9.14286H3.42857V11.4286H1.14286C0.511675 11.4286 0 10.9169 0 10.2857V1.14286C0 0.511675 0.511675 0 1.14286 0H10.2857C10.9169 0 11.4286 0.511675 11.4286 1.14286V3.42857H9.14286V2.28571H2.28571Z" />
        <path fill-rule="evenodd" clip-rule="evenodd" d="M4.57143 5.71429C4.57143 5.0831 5.0831 4.57143 5.71429 4.57143H14.8571C15.4883 4.57143 16 5.0831 16 5.71429V14.8571C16 15.4883 15.4883 16 14.8571 16H5.71429C5.0831 16 4.57143 15.4883 4.57143 14.8571V5.71429ZM6.85714 13.7143V6.85714H13.7143V13.7143H6.85714Z" />
    </symbol>

    <symbol viewBox="0 0 17 17" id="window-close">
        <path d="M16 1L1 16" stroke-width="2" stroke-linecap="round" stroke-linejoin="round" />
        <path d="M1 1L16 16" stroke-width="2" stroke-linecap="round" stroke-linejoin="round" />
    </symbol>

    <symbol viewBox="0 0 20 20" id="window-title-social">
        <path d="M15 6.66699C16.3807 6.66699 17.5 5.5477 17.5 4.16699C17.5 2.78628 16.3807 1.66699 15 1.66699C13.6193 1.66699 12.5 2.78628 12.5 4.16699C12.5 5.5477 13.6193 6.66699 15 6.66699Z" stroke-width="1.5" stroke-linecap="round" stroke-linejoin="round" />
        <path d="M5 12.5C6.38071 12.5 7.5 11.3807 7.5 10C7.5 8.61929 6.38071 7.5 5 7.5C3.61929 7.5 2.5 8.61929 2.5 10C2.5 11.3807 3.61929 12.5 5 12.5Z" stroke-width="1.5" stroke-linecap="round" stroke-linejoin="round" />
        <path d="M15 18.333C16.3807 18.333 17.5 17.2137 17.5 15.833C17.5 14.4523 16.3807 13.333 15 13.333C13.6193 13.333 12.5 14.4523 12.5 15.833C12.5 17.2137 13.6193 18.333 15 18.333Z" stroke-width="1.5" stroke-linecap="round" stroke-linejoin="round" />
        <path d="M7.16016 11.2578L12.8518 14.5745" stroke-width="1.5" stroke-linecap="round" stroke-linejoin="round" />
        <path d="M12.8435 5.4248L7.16016 8.74147" stroke-width="1.5" stroke-linecap="round" stroke-linejoin="round" />
    </symbol>

    <symbol viewBox="0 0 24 24" id="analytics-programm-tabs-menu-current">
        <path d="M6 9L12 15L18 9" stroke-width="2" stroke-linecap="round" stroke-linejoin="round" />
    </symbol>

    <symbol viewBox="0 0 20 12" id="up-link">
        <path d="M18 10L10 2L2 10" stroke-width="3" stroke-linecap="round" stroke-linejoin="round" />
    </symbol>

    <symbol viewBox="0 0 22 20" id="programm-filter">
        <path d="M21 1H1L9 10.46V17L13 19V10.46L21 1Z" stroke-width="2" stroke-linecap="round" stroke-linejoin="round" />
    </symbol>

    <symbol viewBox="0 0 24 24" id="programm-filter-param-remove">
        <path d="M15 9L9 15" stroke-width="2" stroke-linecap="round" stroke-linejoin="round" />
        <path d="M9 9L15 15" stroke-width="2" stroke-linecap="round" stroke-linejoin="round" />
    </symbol>

    <symbol viewBox="0 0 34 34" id="mobile-menu-link">
        <path d="M4.25 18.5H29.75" stroke-width="3" stroke-linecap="round" stroke-linejoin="round" />
        <path d="M4.25 8.5H29.75" stroke-width="3" stroke-linecap="round" stroke-linejoin="round" />
        <path d="M4.25 28.5H29.75" stroke-width="3" stroke-linecap="round" stroke-linejoin="round" />
    </symbol>

    <symbol viewBox="0 0 24 23" id="mobile-menu-close">
        <path d="M2.98438 2.48438L21.0156 20.5156" stroke-width="3" stroke-linecap="round" stroke-linejoin="round" />
        <path d="M21.0156 2.48438L2.9844 20.5156" stroke-width="3" stroke-linecap="round" stroke-linejoin="round" />
    </symbol>

    <symbol viewBox="0 0 16 16" id="speakers-filter-close">
        <rect width="2.77657" height="19.436" rx="1" transform="matrix(0.707113 0.707101 -0.707113 0.707101 14.0371 0)" />
        <rect width="19.436" height="2.77657" rx="1" transform="matrix(0.707113 0.707101 -0.707113 0.707101 1.96289 0.294128)" />
    </symbol>

    <symbol viewBox="0 0 30 31" id="programm-filter-close">
        <rect width="5.20609" height="36.4426" rx="1" transform="matrix(0.707113 0.707101 -0.707113 0.707101 26.3188 0)" />
        <rect width="36.4426" height="5.20609" rx="1" transform="matrix(0.707113 0.707101 -0.707113 0.707101 3.68115 0.551607)" />
    </symbol>

    <symbol viewBox="0 0 24 24" id="programm-arrow">
        <path d="M6 9L12 15L18 9" stroke-width="2" stroke-linecap="round" stroke-linejoin="round" />
    </symbol>

    <symbol viewBox="0 0 46 53" id="main-stream-video-player-preview-btn">
        <path d="M45.2852 25.9713C45.9518 26.3562 45.9518 27.3185 45.2852 27.7034L2.25343 52.5478C1.58676 52.9327 0.753423 52.4515 0.753423 51.6817L0.753425 1.99298C0.753425 1.22318 1.58676 0.742049 2.25343 1.12695L45.2852 25.9713Z" />
    </symbol>

    <symbol viewBox="0 0 26 26" id="programm-filter-window-block-params-remove">
        <path d="M12.9993 23.8333C18.9824 23.8333 23.8327 18.983 23.8327 13C23.8327 7.01687 18.9824 2.16663 12.9993 2.16663C7.01626 2.16663 2.16602 7.01687 2.16602 13C2.16602 18.983 7.01626 23.8333 12.9993 23.8333Z" stroke="#BBBBBB" stroke-width="2" stroke-linecap="round" stroke-linejoin="round" />
        <path d="M16.25 9.75L9.75 16.25" stroke="#BBBBBB" stroke-width="2" stroke-linecap="round" stroke-linejoin="round" />
        <path d="M9.75 9.75L16.25 16.25" stroke="#BBBBBB" stroke-width="2" stroke-linecap="round" stroke-linejoin="round" />
    </symbol>

    <symbol viewBox="0 0 20 20" id="programm-filter-window-block-params-item-remove">
        <rect width="20" height="20" rx="10" fill="white" />
        <path d="M14 6L6 14" stroke="black" stroke-width="1.4" stroke-linecap="round" stroke-linejoin="round" />
        <path d="M6 6L14 14" stroke="black" stroke-width="1.4" stroke-linecap="round" stroke-linejoin="round" />
    </symbol>

    <symbol viewBox="0 0 24 24" id="vacancy-arrow">
        <path fill-rule="evenodd" clip-rule="evenodd" d="M8 2.99975C8.256 2.99975 8.512 3.09775 8.707 3.29275L16.707 11.2928C17.098 11.6838 17.098 12.3158 16.707 12.7067L8.70699 20.7067C8.31599 21.0977 7.68399 21.0977 7.29299 20.7067C6.90199 20.3157 6.90199 19.6837 7.29299 19.2927L14.586 11.9997L7.293 4.70675C6.902 4.31575 6.902 3.68375 7.293 3.29275C7.488 3.09775 7.744 2.99975 8 2.99975Z" />
    </symbol>

    <symbol viewBox="0 0 30 30" id="welcome-prev">
        <path d="M16 20L11 15L16 10" stroke-width="2" stroke-linecap="round" stroke-linejoin="round" />
    </symbol>

    <symbol viewBox="0 0 30 30" id="welcome-next">
        <path d="M14 10L19 15L14 20" stroke-width="2" stroke-linecap="round" stroke-linejoin="round" />
    </symbol>

    <symbol viewBox="0 0 24 24" id="welcome-new-icon">
        <path d="M14 2H6C5.46957 2 4.96086 2.21071 4.58579 2.58579C4.21071 2.96086 4 3.46957 4 4V20C4 20.5304 4.21071 21.0391 4.58579 21.4142C4.96086 21.7893 5.46957 22 6 22H18C18.5304 22 19.0391 21.7893 19.4142 21.4142C19.7893 21.0391 20 20.5304 20 20V8L14 2Z" stroke-width="2" stroke-linecap="round" stroke-linejoin="round" />
        <path d="M14 2V8H20" stroke-width="2" stroke-linecap="round" stroke-linejoin="round" />
        <path d="M12 17V11" stroke-width="2" stroke-linecap="round" stroke-linejoin="round" />
        <path d="M9 14H15" stroke-width="2" stroke-linecap="round" stroke-linejoin="round" />
    </symbol>

    <symbol viewBox="0 0 30 30" id="health-faq-arrow">
        <path d="M20 14L15 19L10 14" stroke-width="2" stroke-linecap="round" stroke-linejoin="round"/>
    </symbol>

    <symbol viewBox="0 0 22 22" id="health-feedback-phone">
        <path d="M20.1668 15.5098V18.2598C20.1678 18.5151 20.1155 18.7678 20.0133 19.0017C19.911 19.2356 19.761 19.4456 19.5729 19.6181C19.3848 19.7907 19.1627 19.9221 18.9208 20.0039C18.679 20.0857 18.4227 20.1161 18.1685 20.0931C15.3477 19.7866 12.6382 18.8227 10.2576 17.2789C8.04282 15.8715 6.16503 13.9938 4.75764 11.7789C3.20846 9.38753 2.24436 6.66484 1.94348 3.83143C1.92057 3.57794 1.95069 3.32246 2.03193 3.08125C2.11317 2.84004 2.24375 2.6184 2.41534 2.43042C2.58694 2.24244 2.7958 2.09225 3.02862 1.98941C3.26144 1.88657 3.51312 1.83334 3.76764 1.8331H6.51764C6.96251 1.82872 7.39378 1.98625 7.73109 2.27633C8.0684 2.56642 8.28871 2.96926 8.35097 3.40976C8.46705 4.28982 8.6823 5.15393 8.99264 5.9856C9.11597 6.31369 9.14267 6.67027 9.06956 7.01307C8.99645 7.35587 8.8266 7.67053 8.58014 7.91976L7.41598 9.08393C8.7209 11.3788 10.6211 13.279 12.916 14.5839L14.0801 13.4198C14.3294 13.1733 14.644 13.0035 14.9868 12.9303C15.3296 12.8572 15.6862 12.8839 16.0143 13.0073C16.846 13.3176 17.7101 13.5329 18.5901 13.6489C19.0354 13.7117 19.4421 13.936 19.7328 14.2791C20.0235 14.6222 20.178 15.0602 20.1668 15.5098Z" stroke-width="2" stroke-linecap="round" stroke-linejoin="round"/>
    </symbol>

    <symbol viewBox="0 0 22 22" id="health-feedback-email">
        <path d="M11.0002 14.6668C13.0252 14.6668 14.6668 13.0252 14.6668 11.0002C14.6668 8.97512 13.0252 7.3335 11.0002 7.3335C8.97512 7.3335 7.3335 8.97512 7.3335 11.0002C7.3335 13.0252 8.97512 14.6668 11.0002 14.6668Z" stroke-width="2" stroke-linecap="round" stroke-linejoin="round"/>
        <path d="M14.6668 7.33342V11.9167C14.6668 12.6461 14.9566 13.3456 15.4723 13.8613C15.988 14.377 16.6875 14.6667 17.4168 14.6667C18.1462 14.6667 18.8457 14.377 19.3614 13.8613C19.8771 13.3456 20.1668 12.6461 20.1668 11.9167V11.0001C20.1667 8.93119 19.4667 6.92319 18.1807 5.30257C16.8946 3.68195 15.0982 2.54404 13.0834 2.07385C11.0687 1.60367 8.95411 1.82887 7.08357 2.71284C5.21304 3.5968 3.69654 5.08754 2.78066 6.94266C1.86478 8.79778 1.60339 10.9082 2.03899 12.9307C2.47459 14.9532 3.58157 16.7689 5.17992 18.0825C6.77826 19.3961 8.77398 20.1304 10.8426 20.166C12.9112 20.2015 14.9309 19.5363 16.5735 18.2784" stroke-width="2" stroke-linecap="round" stroke-linejoin="round"/>
    </symbol>

    <symbol viewBox="0 0 18 18" id="exponents-search">
        <path d="M8.25 14.25C11.5637 14.25 14.25 11.5637 14.25 8.25C14.25 4.93629 11.5637 2.25 8.25 2.25C4.93629 2.25 2.25 4.93629 2.25 8.25C2.25 11.5637 4.93629 14.25 8.25 14.25Z" stroke-width="1.8" stroke-linecap="round" stroke-linejoin="round"/>
        <path d="M15.7498 15.75L12.4873 12.4875" stroke-width="1.8" stroke-linecap="round" stroke-linejoin="round"/>
    </symbol>

    <symbol viewBox="0 0 13 17" id="exponents-stream-icon">
        <path fill-rule="evenodd" clip-rule="evenodd" d="M2.44379 0.234066L12.1938 7.03202C13.2055 7.64924 13.265 9.12444 12.3723 9.84259L2.44379 16.7659C1.36047 17.4268 0 16.6096 0 15.298V1.70205C0 0.390398 1.36047 -0.426836 2.44379 0.234066Z" />
    </symbol>

    <symbol viewBox="0 0 8 14" id="exponent-back-link">
        <path d="M7 13L1 7L7 1" stroke-width="2" stroke-linecap="round" stroke-linejoin="round" />
    </symbol>

    <symbol viewBox="0 0 20 20" id="exponent-text-more">
        <path fill-rule="evenodd" clip-rule="evenodd" d="M5 7.60012C5 7.75371 5.05444 7.90731 5.16277 8.0243L9.60716 12.8241C9.82438 13.0586 10.1755 13.0586 10.3927 12.8241L14.8371 8.0243C15.0543 7.78971 15.0543 7.41053 14.8371 7.17594C14.6199 6.94135 14.2688 6.94135 14.0515 7.17594L9.99993 11.5515L5.94832 7.17594C5.7311 6.94135 5.37999 6.94135 5.16277 7.17594C5.05444 7.29294 5 7.44653 5 7.60012Z" />
    </symbol>

    <symbol viewBox="0 0 28 28" id="exponent-position">
        <path d="M24.5 11.6667C24.5 19.8333 14 26.8333 14 26.8333C14 26.8333 3.5 19.8333 3.5 11.6667C3.5 8.88188 4.60625 6.21117 6.57538 4.24203C8.54451 2.2729 11.2152 1.16666 14 1.16666C16.7848 1.16666 19.4555 2.2729 21.4246 4.24203C23.3938 6.21117 24.5 8.88188 24.5 11.6667Z" stroke-width="2" stroke-linecap="round" stroke-linejoin="round"/>
        <path d="M14 15.1667C15.933 15.1667 17.5 13.5997 17.5 11.6667C17.5 9.73369 15.933 8.16669 14 8.16669C12.067 8.16669 10.5 9.73369 10.5 11.6667C10.5 13.5997 12.067 15.1667 14 15.1667Z" stroke-width="2" stroke-linecap="round" stroke-linejoin="round"/>
    </symbol>

    <symbol viewBox="0 0 27 10" id="academy-step-link">
        <path d="M25.9596 5.46817C26.2135 5.21433 26.2135 4.80277 25.9596 4.54893L21.823 0.412353C21.5692 0.158512 21.1576 0.158512 20.9038 0.412353C20.65 0.666193 20.65 1.07775 20.9038 1.33159L24.5808 5.00855L20.9038 8.6855C20.65 8.93934 20.65 9.3509 20.9038 9.60474C21.1576 9.85858 21.5692 9.85858 21.823 9.60474L25.9596 5.46817ZM0.5 5.65854L25.5 5.65855L25.5 4.35855L0.5 4.35854L0.5 5.65854Z" />
    </symbol>

    <symbol viewBox="0 0 14 13" id="academy-add-book-link">
        <path fill-rule="evenodd" clip-rule="evenodd" d="M2.81932 3.28201C2.65373 3.28201 2.49493 3.34779 2.37784 3.46488C2.26075 3.58196 2.19498 3.74077 2.19498 3.90636V10.7741C2.19498 10.9397 2.26075 11.0985 2.37784 11.2156C2.49493 11.3327 2.65373 11.3985 2.81932 11.3985H9.6871C9.85268 11.3985 10.0115 11.3327 10.1286 11.2156C10.2457 11.0985 10.3114 10.9397 10.3114 10.7741V7.02807C10.3114 6.68326 10.591 6.40373 10.9358 6.40373C11.2806 6.40373 11.5601 6.68326 11.5601 7.02807V10.7741C11.5601 11.2709 11.3628 11.7473 11.0115 12.0986C10.6603 12.4498 10.1839 12.6472 9.6871 12.6472H2.81932C2.32256 12.6472 1.84615 12.4498 1.49489 12.0986C1.14363 11.7473 0.946289 11.2709 0.946289 10.7741V3.90636C0.946289 3.4096 1.14363 2.93318 1.49489 2.58192C1.84615 2.23066 2.32256 2.03333 2.81932 2.03333H6.56538C6.9102 2.03333 7.18972 2.31285 7.18972 2.65767C7.18972 3.00248 6.9102 3.28201 6.56538 3.28201H2.81932Z" fill="black" />
        <path d="M9.06274 0.784546H12.8088V4.53061" stroke="black" stroke-width="1.3" stroke-linecap="round" stroke-linejoin="round" />
        <path fill-rule="evenodd" clip-rule="evenodd" d="M13.2502 0.343144C13.4941 0.586966 13.4941 0.982278 13.2502 1.2261L6.38247 8.09388C6.13865 8.3377 5.74334 8.3377 5.49952 8.09388C5.2557 7.85005 5.2557 7.45474 5.49952 7.21092L12.3673 0.343144C12.6111 0.099323 13.0064 0.099323 13.2502 0.343144Z" fill="black" />
    </symbol>

    <symbol viewBox="0 0 25 25" id="faq-arrow">
        <path d="M6.5 9.22656L12.5 15.2266L18.5 9.22656" stroke-width="2" stroke-linecap="round" stroke-linejoin="round" />
    </symbol>

    <symbol viewBox="0 0 20 13" id="analytics-service-title">
        <path d="M1.96995 0.726973L0.199951 2.50697L10.1 12.397L19.9999 2.49697L18.2299 0.726972L10.1 8.85697L1.96995 0.726973Z" />
    </symbol>

    <symbol viewBox="0 0 14 8" id="analytics-service-close">
        <path d="M12.5942 7.47314L6.59424 1.47314L0.594238 7.47314" stroke-width="1.3" />
    </symbol>

    <symbol viewBox="0 0 21 21" id="cityform-notice">
        <path d="M9.31897 5.08691H11.319V7.08691H9.31897V5.08691ZM9.31897 9.08691H11.319V15.0869H9.31897V9.08691ZM10.319 0.0869141C4.79897 0.0869141 0.31897 4.56691 0.31897 10.0869C0.31897 15.6069 4.79897 20.0869 10.319 20.0869C15.839 20.0869 20.319 15.6069 20.319 10.0869C20.319 4.56691 15.839 0.0869141 10.319 0.0869141ZM10.319 18.0869C5.90897 18.0869 2.31897 14.4969 2.31897 10.0869C2.31897 5.67691 5.90897 2.08691 10.319 2.08691C14.729 2.08691 18.319 5.67691 18.319 10.0869C18.319 14.4969 14.729 18.0869 10.319 18.0869Z" />
    </symbol>

    <symbol viewBox="0 0 25 25" id="cityform-factor-arrow">
        <path d="M6.77814 9.12207L12.7781 15.1221L18.7781 9.12207" stroke="white" stroke-width="2" stroke-linecap="round" stroke-linejoin="round" />
    </symbol>

    <symbol viewBox="0 0 24 25" id="cityform-recommend-item-arrow">
        <path d="M18 15.7891L12 9.78906L6 15.7891" stroke="#25282B" stroke-width="2" stroke-linecap="round" stroke-linejoin="round" />
    </symbol>

    <symbol viewBox="0 0 21 21" id="cityform-what-1">
        <path d="M18.6802 4.52051H14.6802V2.52051C14.6802 1.42051 13.7802 0.520508 12.6802 0.520508H8.68018C7.58018 0.520508 6.68018 1.42051 6.68018 2.52051V4.52051H2.68018C1.58018 4.52051 0.680176 5.42051 0.680176 6.52051V18.5205C0.680176 19.6205 1.58018 20.5205 2.68018 20.5205H18.6802C19.7802 20.5205 20.6802 19.6205 20.6802 18.5205V6.52051C20.6802 5.42051 19.7802 4.52051 18.6802 4.52051ZM8.68018 2.52051H12.6802V4.52051H8.68018V2.52051ZM18.6802 18.5205H2.68018V6.52051H18.6802V18.5205Z" />
        <path d="M11.6802 8.52051H9.68018V11.5205H6.68018V13.5205H9.68018V16.5205H11.6802V13.5205H14.6802V11.5205H11.6802V8.52051Z" />
    </symbol>

    <symbol viewBox="0 0 25 25" id="cityform-what-2">
        <path d="M18.6802 11.458C18.6802 12.128 18.6802 12.788 18.6802 13.458C19.8802 13.458 21.4402 13.458 22.6802 13.458C22.6802 12.788 22.6802 12.128 22.6802 11.458C21.4402 11.458 19.8802 11.458 18.6802 11.458Z" />
        <path d="M16.6802 18.068C17.6402 18.778 18.8902 19.718 19.8802 20.458C20.2802 19.928 20.6802 19.388 21.0802 18.858C20.0902 18.118 18.8402 17.178 17.8802 16.458C17.4802 16.998 17.0802 17.538 16.6802 18.068Z" />
        <path d="M21.0802 6.05801C20.6802 5.52801 20.2802 4.98801 19.8802 4.45801C18.8902 5.19801 17.6402 6.13801 16.6802 6.85801C17.0802 7.38801 17.4802 7.92801 17.8802 8.45801C18.8402 7.73801 20.0902 6.80801 21.0802 6.05801Z" />
        <path d="M4.68018 9.45801C3.58018 9.45801 2.68018 10.358 2.68018 11.458V13.458C2.68018 14.558 3.58018 15.458 4.68018 15.458H5.68018V19.458H7.68018V15.458H8.68018L13.6802 18.458V6.45801L8.68018 9.45801H4.68018ZM9.71018 11.168L11.6802 9.98801V14.928L9.71018 13.748L9.23018 13.458H8.68018H4.68018V11.458H8.68018H9.23018L9.71018 11.168Z" />
        <path d="M16.1802 12.4584C16.1802 11.1284 15.6002 9.9284 14.6802 9.1084V15.7984C15.6002 14.9884 16.1802 13.7884 16.1802 12.4584Z" />
    </symbol>

    <symbol viewBox="0 0 20 21" id="cityform-what-3">
        <path d="M11.1802 0.575195V8.5752H19.1802C19.1802 4.1552 15.6002 0.575195 11.1802 0.575195ZM13.1802 6.5752V2.9152C14.8802 3.5152 16.2302 4.8652 16.8402 6.5752H13.1802ZM4.62018 9.5752L3.67018 7.5752H0.180176V9.5752H2.40018C2.40018 9.5752 4.29018 13.6452 4.52018 13.9952C3.42018 14.5852 2.68018 15.7452 2.68018 17.0752C2.68018 19.0052 4.25018 20.5752 6.18018 20.5752C7.94018 20.5752 9.40018 19.2752 9.64018 17.5752H11.7202C11.9602 19.2752 13.4202 20.5752 15.1802 20.5752C17.1102 20.5752 18.6802 19.0052 18.6802 17.0752C18.6802 16.0352 18.2202 15.1052 17.5002 14.4652C18.5502 13.1152 19.1802 11.4152 19.1802 9.5752H4.62018ZM6.18018 18.5752C5.35018 18.5752 4.68018 17.9052 4.68018 17.0752C4.68018 16.2452 5.35018 15.5752 6.18018 15.5752C7.01018 15.5752 7.68018 16.2452 7.68018 17.0752C7.68018 17.9052 7.01018 18.5752 6.18018 18.5752ZM15.1802 18.5752C14.3502 18.5752 13.6802 17.9052 13.6802 17.0752C13.6802 16.2452 14.3502 15.5752 15.1802 15.5752C16.0102 15.5752 16.6802 16.2452 16.6802 17.0752C16.6802 17.9052 16.0102 18.5752 15.1802 18.5752ZM15.9202 13.2352L15.6302 13.6052C15.4902 13.5852 15.3302 13.5752 15.1802 13.5752C13.7902 13.5752 12.5802 14.3952 12.0202 15.5752H9.34018C8.84018 14.5352 7.84018 13.7752 6.66018 13.6052L6.22018 12.9352C6.12018 12.7652 5.88018 12.2452 5.55018 11.5752H16.8402C16.6302 12.1652 16.3202 12.7252 15.9202 13.2352Z" />
    </symbol>

    <symbol viewBox="0 0 21 21" id="cityform-what-4">
        <path d="M10.6802 0.333008C5.16018 0.333008 0.680176 4.81301 0.680176 10.333C0.680176 15.853 5.16018 20.333 10.6802 20.333C16.2002 20.333 20.6802 15.853 20.6802 10.333C20.6802 4.81301 16.2002 0.333008 10.6802 0.333008ZM11.6802 3.63301L13.0302 2.68301C14.8502 3.24301 16.4002 4.44301 17.4102 6.02301L17.0202 7.36301L15.6702 7.82301L11.6802 5.03301V3.63301ZM8.33018 2.68301L9.68018 3.63301V5.03301L5.69018 7.82301L4.34018 7.36301L3.95018 6.02301C4.96018 4.45301 6.51018 3.25301 8.33018 2.68301ZM5.76018 15.443L4.62018 15.543C3.41018 14.143 2.68018 12.323 2.68018 10.333C2.68018 10.213 2.69018 10.103 2.70018 9.98301L3.70018 9.25301L5.08018 9.73301L6.54018 14.073L5.76018 15.443ZM13.1802 17.923C12.3902 18.183 11.5502 18.333 10.6802 18.333C9.81018 18.333 8.97018 18.183 8.18018 17.923L7.49018 16.433L8.13018 15.333H13.2402L13.8802 16.443L13.1802 17.923ZM12.9502 13.333H8.41018L7.06018 9.31301L10.6802 6.77301L14.3102 9.31301L12.9502 13.333ZM16.7402 15.543L15.6002 15.443L14.8102 14.073L16.2702 9.73301L17.6602 9.26301L18.6602 9.99301C18.6702 10.103 18.6802 10.213 18.6802 10.333C18.6802 12.323 17.9502 14.143 16.7402 15.543Z" />
    </symbol>

    <symbol viewBox="0 0 19 19" id="cityform-what-5">
        <path d="M16.6802 16.124H2.68018V2.12402H9.68018V0.124023H2.68018C1.57018 0.124023 0.680176 1.02402 0.680176 2.12402V16.124C0.680176 17.224 1.57018 18.124 2.68018 18.124H16.6802C17.7802 18.124 18.6802 17.224 18.6802 16.124V9.12402H16.6802V16.124ZM11.6802 0.124023V2.12402H15.2702L5.44018 11.954L6.85018 13.364L16.6802 3.53402V7.12402H18.6802V0.124023H11.6802Z" />
    </symbol>

    <symbol viewBox="0 0 19 19" id="cityform-what-6">
        <path d="M16.6802 7.41895C15.5802 7.41895 14.6802 8.31895 14.6802 9.41895H13.6802V0.418945L0.680176 5.41895V18.4189H18.6802V9.41895C18.6802 8.31895 17.7802 7.41895 16.6802 7.41895ZM2.68018 6.78895L11.6802 3.32895V9.41895H6.68018V16.4189H2.68018V6.78895ZM16.6802 16.4189H13.6802V13.4189H11.6802V16.4189H8.68018V11.4189H16.6802V16.4189Z" />
    </symbol>

    <symbol viewBox="0 0 25 25" id="cityform-menu-link">
        <path d="M3.74268 18.7949H21.7427V16.7949H3.74268V18.7949ZM3.74268 13.7949H21.7427V11.7949H3.74268V13.7949ZM3.74268 6.79492V8.79492H21.7427V6.79492H3.74268Z" />
    </symbol>

    <symbol viewBox="0 0 15 15" id="cityform-menu-close">
        <path d="M14.9888 1.83383L13.5788 0.423828L7.98877 6.01383L2.39877 0.423828L0.98877 1.83383L6.57877 7.42383L0.98877 13.0138L2.39877 14.4238L7.98877 8.83383L13.5788 14.4238L14.9888 13.0138L9.39877 7.42383L14.9888 1.83383Z" />
    </symbol>

    <symbol viewBox="0 0 14 13" id="cityform-about-world-continent-city-moscow">
        <path d="M7.06474 10.3651L10.9891 12.7337L9.9477 8.26957L13.4149 5.26596L8.84913 4.8786L7.06474 0.668457L5.28035 4.8786L0.7146 5.26596L4.18178 8.26957L3.14035 12.7337L7.06474 10.3651Z" />
    </symbol>

    <symbol viewBox="0 0 25 25" id="cityform-about-world-continent-title">
        <path d="M6.72021 9.19946L12.7202 15.1995L18.7202 9.19946" stroke-width="2" stroke-linecap="round" stroke-linejoin="round" />
    </symbol>

    <symbol viewBox="0 0 17 18" id="cityform-health-scheme-item-close">
        <path d="M16 1.125L1 16.125" stroke="white" stroke-width="2" stroke-linecap="round" stroke-linejoin="round" />
        <path d="M1 1.125L16 16.125" stroke="white" stroke-width="2" stroke-linecap="round" stroke-linejoin="round" />
    </symbol>

</svg>