<svg width="531" height="731" viewBox="0 0 531 731" fill="none" xmlns="http://www.w3.org/2000/svg">
<path d="M0.0208435 701.465V754.24L40.9263 780.627V727.852L0.0208435 701.465Z" fill="#ABABAB"/>
<path d="M0.0208435 648.824V701.465L40.9263 727.852V675.212L0.0208435 648.824Z" fill="#ABABAB"/>
<path d="M40.9263 622.437L0.0208435 596.049V648.824L40.9263 675.211V622.437Z" fill="#ABABAB"/>
<path d="M40.9263 569.662L0.0208435 543.275V596.049L40.9263 622.437V569.662Z" fill="#ABABAB"/>
<path d="M0.0208435 543.275L40.9263 569.662V516.887L0.0208435 543.275Z" fill="#E1E1E1"/>
<path d="M40.9263 569.662V622.437L81.8315 596.049L40.9263 569.662Z" fill="#E1E1E1"/>
<path d="M40.9263 516.887V569.662L81.8315 543.275L40.9263 516.887Z" fill="#E1E1E1"/>
<path d="M40.9263 569.662L81.8315 596.049V543.275L40.9263 569.662Z" fill="#E1E1E1"/>
<path d="M122.736 727.852L81.831 701.599V754.24L122.736 780.627V779.957V727.852Z" fill="#353F56"/>
<path d="M81.831 701.465V701.599L122.736 727.853V675.212L81.831 701.465Z" fill="#353F56"/>
<path d="M81.831 648.824V701.465L122.736 675.212L81.831 648.824Z" fill="#353F56"/>
<path d="M81.831 648.824L122.736 675.211V622.437L81.831 648.824Z" fill="#353F56"/>
<path d="M81.831 596.049V648.824L122.736 622.437L81.831 596.049Z" fill="#353F56"/>
<path d="M81.831 543.275V596.049L122.736 569.662L81.831 543.275Z" fill="#353F56"/>
<path d="M81.831 543.275L122.736 569.662V516.887L81.831 543.275Z" fill="#E1E1E1"/>
<path d="M81.831 596.049L122.736 622.437V569.662L81.831 596.049Z" fill="#353F56"/>
<path d="M122.737 727.853V779.958H123.816L163.642 754.24L122.737 727.853Z" fill="#435391"/>
<path d="M122.737 727.852L163.642 754.24V701.599V701.465L122.737 727.852Z" fill="#435391"/>
<path d="M122.737 675.212V727.853L163.642 701.465L122.737 675.212Z" fill="#435391"/>
<path d="M122.737 675.212L163.642 701.465V648.824L122.737 675.212Z" fill="#435391"/>
<path d="M122.737 622.437V675.211L163.642 648.824L122.737 622.437Z" fill="#435391"/>
<path d="M122.737 569.662V622.437L163.642 596.049L122.737 569.662Z" fill="#435391"/>
<path d="M122.737 569.662L163.642 596.049V543.275L122.737 569.662Z" fill="#ABABAB"/>
<path d="M122.737 516.887V569.662L163.642 543.275L122.737 516.887Z" fill="#E1E1E1"/>
<path d="M122.737 516.887L163.642 543.274V490.5L122.737 516.887Z" fill="#E1E1E1"/>
<path d="M122.737 622.437L163.642 648.824V596.049L122.737 622.437Z" fill="#435391"/>
<path d="M163.642 543.275V596.049L204.547 569.662L163.642 543.275Z" fill="#ABABAB"/>
<path d="M163.642 543.275L204.547 569.662V516.887L163.642 543.275Z" fill="#353F56"/>
<path d="M163.642 490.5V543.274L204.547 516.887L163.642 490.5Z" fill="#353F56"/>
<path d="M163.642 437.859V490.5L204.547 464.246L163.642 437.859Z" fill="#353F56"/>
<path d="M163.642 437.859L204.547 464.246V411.471L163.642 437.859Z" fill="#353F56"/>
<path d="M163.642 385.084V437.859L204.547 411.472L163.642 385.084Z" fill="#353F56"/>
<path d="M163.642 332.309V385.084L204.547 358.697L163.642 332.309Z" fill="#353F56"/>
<path d="M163.642 279.535V332.309L204.547 305.922L163.642 279.535Z" fill="#353F56"/>
<path d="M163.642 279.535L204.547 305.922V253.281L163.642 279.535Z" fill="#435391"/>
<path d="M163.642 332.309L204.547 358.697V305.922L163.642 332.309Z" fill="#353F56"/>
<path d="M163.642 385.084L204.547 411.471V358.697L163.642 385.084Z" fill="#353F56"/>
<path d="M163.642 490.5L204.547 516.887V464.246L163.642 490.5Z" fill="#353F56"/>
<path d="M163.642 596.049L204.547 622.437V569.662L163.642 596.049Z" fill="#ABABAB"/>
<path d="M204.547 622.437L245.452 648.824V596.049L204.547 622.437Z" fill="#ABABAB"/>
<path d="M204.547 569.662V622.437L245.452 596.049L204.547 569.662Z" fill="#ABABAB"/>
<path d="M204.547 253.281V305.922L245.452 279.535L204.547 253.281Z" fill="#435391"/>
<path d="M204.547 305.922L245.452 332.309V279.535L204.547 305.922Z" fill="#435391"/>
<path d="M245.452 648.824L286.357 675.211V622.437L245.452 648.824Z" fill="#ABABAB"/>
<path d="M245.452 596.049V648.824L286.357 622.437L245.452 596.049Z" fill="#ABABAB"/>
<path d="M245.452 543.275V596.049L286.357 569.662L245.452 543.275Z" fill="#C5DDF2"/>
<path d="M245.452 543.275L286.357 569.662V516.887L245.452 543.275Z" fill="#C5DDF2"/>
<path d="M245.452 490.634V543.275L286.357 516.887L245.452 490.634Z" fill="#C5DDF2"/>
<path d="M245.452 490.5V490.634L286.357 516.887V464.246L245.452 490.5Z" fill="#C5DDF2"/>
<path d="M245.452 437.859V490.5L286.357 464.246L245.452 437.859Z" fill="#C5DDF2"/>
<path d="M245.452 437.859L286.357 464.246V411.471L245.452 437.859Z" fill="#C5DDF2"/>
<path d="M245.452 385.084V437.859L286.357 411.472L245.452 385.084Z" fill="#C5DDF2"/>
<path d="M245.452 332.309L286.357 358.697V305.922L245.452 332.309Z" fill="#435391"/>
<path d="M245.452 279.535V332.309L286.357 305.922L245.452 279.535Z" fill="#435391"/>
<path d="M245.452 279.535L286.357 305.922V253.281L245.452 279.535Z" fill="#C5DDF2"/>
<path d="M245.452 596.049L286.357 622.437V569.662L245.452 596.049Z" fill="#E1E1E1"/>
<path d="M286.358 675.212L327.263 701.599V701.465V648.824L286.358 675.212Z" fill="#ABABAB"/>
<path d="M286.358 622.437V675.211L327.263 648.824L286.358 622.437Z" fill="#ABABAB"/>
<path d="M286.358 569.662V622.437L327.263 596.049L286.358 569.662Z" fill="#E1E1E1"/>
<path d="M286.358 516.887V569.662L327.263 543.275L286.358 516.887Z" fill="#353F56"/>
<path d="M286.358 516.887L327.263 543.274V490.634V490.5L286.358 516.887Z" fill="#353F56"/>
<path d="M286.358 464.246V516.887L327.263 490.5L286.358 464.246Z" fill="#353F56"/>
<path d="M286.358 464.246L327.263 490.5V437.859L286.358 464.246Z" fill="#353F56"/>
<path d="M286.358 411.471V464.246L327.263 437.859L286.358 411.471Z" fill="#353F56"/>
<path d="M286.358 305.922L327.263 332.309V279.535L286.358 305.922Z" fill="#353F56"/>
<path d="M286.358 253.281V305.922L327.263 279.535L286.358 253.281Z" fill="#C5DDF2"/>
<path d="M286.358 253.281L327.263 279.534V226.894L286.358 253.281Z" fill="#C5DDF2"/>
<path d="M286.358 569.662L327.263 596.049V543.275L286.358 569.662Z" fill="#E1E1E1"/>
<path d="M286.358 622.437L327.263 648.824V596.049L286.358 622.437Z" fill="#ABABAB"/>
<path d="M327.263 701.465V701.599L368.168 727.853V675.212L327.263 701.465Z" fill="#ABABAB"/>
<path d="M327.263 648.824V701.465L368.168 675.212L327.263 648.824Z" fill="#ABABAB"/>
<path d="M327.263 596.049V648.824L368.168 622.437L327.263 596.049Z" fill="#ABABAB"/>
<path d="M327.263 543.275V596.049L368.168 569.662L327.263 543.275Z" fill="#E1E1E1"/>
<path d="M327.263 490.634V543.275L368.168 516.887L327.263 490.634Z" fill="#E1E1E1"/>
<path d="M327.263 490.5V490.634L368.168 516.887V464.246L327.263 490.5Z" fill="#ABABAB"/>
<path d="M327.263 437.859V490.5L368.168 464.246L327.263 437.859Z" fill="#ABABAB"/>
<path d="M327.263 385.084V437.859L368.168 411.472L327.263 385.084Z" fill="#606060"/>
<path d="M327.263 385.084L368.168 411.471V358.697L327.263 385.084Z" fill="#606060"/>
<path d="M327.263 332.309V385.084L368.168 358.697L327.263 332.309Z" fill="#606060"/>
<path d="M327.263 279.535V332.309L368.168 305.922L327.263 279.535Z" fill="#353F56"/>
<path d="M327.263 279.535L368.168 305.922V253.281L327.263 279.535Z" fill="#353F56"/>
<path d="M327.263 226.894V279.534L368.168 253.281L327.263 226.894Z" fill="#C5DDF2"/>
<path d="M327.263 226.894L368.168 253.281V200.506L327.263 226.894Z" fill="#C5DDF2"/>
<path d="M327.263 332.309L368.168 358.697V305.922L327.263 332.309Z" fill="#606060"/>
<path d="M327.263 543.275L368.168 569.662V516.887L327.263 543.275Z" fill="#E1E1E1"/>
<path d="M327.263 596.049L368.168 622.437V569.662L327.263 596.049Z" fill="#ABABAB"/>
<path d="M368.168 675.212V727.853L409.074 701.465L368.168 675.212Z" fill="#ABABAB"/>
<path d="M368.168 675.212L409.074 701.465V648.824L368.168 675.212Z" fill="#ABABAB"/>
<path d="M368.168 569.662V622.437L409.074 596.049L368.168 569.662Z" fill="#ABABAB"/>
<path d="M368.168 569.662L409.074 596.049V543.275L368.168 569.662Z" fill="#ABABAB"/>
<path d="M368.168 516.887V569.662L409.074 543.275L368.168 516.887Z" fill="#E1E1E1"/>
<path d="M368.168 464.246V516.887L409.074 490.634L368.168 464.246Z" fill="#ABABAB"/>
<path d="M368.168 464.246L409.074 490.634V437.859L368.168 464.246Z" fill="#435391"/>
<path d="M368.168 358.697V411.471L409.074 385.084L368.168 358.697Z" fill="#353F56"/>
<path d="M368.168 305.922V358.697L409.074 332.309L368.168 305.922Z" fill="#E1E1E1"/>
<path d="M368.168 253.281V305.922L409.074 279.535L368.168 253.281Z" fill="#353F56"/>
<path d="M368.168 253.281L409.074 279.534V226.894L368.168 253.281Z" fill="#353F56"/>
<path d="M368.168 200.506V253.281L409.074 226.894L368.168 200.506Z" fill="#C5DDF2"/>
<path d="M368.168 200.506L409.074 226.894V174.119L368.168 200.506Z" fill="#ABABAB"/>
<path d="M368.168 147.732V200.506L409.074 174.119L368.168 147.732Z" fill="#ABABAB"/>
<path d="M368.168 94.9568V147.732L409.074 121.344L368.168 94.9568Z" fill="#ABABAB"/>
<path d="M368.168 94.9569L409.074 121.344V68.5695L368.168 94.9569Z" fill="#E1E1E1"/>
<path d="M368.168 147.732L409.074 174.119V121.344L368.168 147.732Z" fill="#ABABAB"/>
<path d="M368.168 305.922L409.074 332.309V279.535L368.168 305.922Z" fill="#E1E1E1"/>
<path d="M368.168 358.697L409.074 385.084V332.309L368.168 358.697Z" fill="#353F56"/>
<path d="M368.168 516.887L409.074 543.275V490.634L368.168 516.887Z" fill="#ABABAB"/>
<path d="M409.074 648.824V701.465L449.979 675.212L409.074 648.824Z" fill="#ABABAB"/>
<path d="M409.074 543.275V596.049L449.979 569.662L409.074 543.275Z" fill="#ABABAB"/>
<path d="M409.074 543.275L449.979 569.662V516.887L409.074 543.275Z" fill="#ABABAB"/>
<path d="M409.074 437.859V490.634L449.979 464.246L409.074 437.859Z" fill="#435391"/>
<path d="M409.074 437.859L449.979 464.246V411.471L409.074 437.859Z" fill="#435391"/>
<path d="M409.074 332.309V385.084L449.979 358.697L409.074 332.309Z" fill="#353F56"/>
<path d="M409.074 279.535V332.309L449.979 305.922L409.074 279.535Z" fill="#E1E1E1"/>
<path d="M409.074 279.535L449.979 305.922V253.281L409.074 279.535Z" fill="#E1E1E1"/>
<path d="M409.074 226.894V279.534L449.979 253.281L409.074 226.894Z" fill="#353F56"/>
<path d="M409.074 226.894L449.979 253.281V200.506L409.074 226.894Z" fill="#353F56"/>
<path d="M409.074 174.119V226.894L449.979 200.506L409.074 174.119Z" fill="#C5DDF2"/>
<path d="M409.074 121.344L449.979 147.732V94.9568L409.074 121.344Z" fill="#E1E1E1"/>
<path d="M409.074 68.5695V121.344L449.979 94.9569L409.074 68.5695Z" fill="#E1E1E1"/>
<path d="M409.074 174.119L449.979 200.506V147.732L409.074 174.119Z" fill="#C5DDF2"/>
<path d="M409.074 332.309L449.979 358.697V305.922L409.074 332.309Z" fill="#353F56"/>
<path d="M409.074 648.824L449.979 675.211V622.437L409.074 648.824Z" fill="#ABABAB"/>
<path d="M449.979 622.437V675.211L490.885 648.824L449.979 622.437Z" fill="#ABABAB"/>
<path d="M449.979 622.437L490.885 648.824V596.049L449.979 622.437Z" fill="#ABABAB"/>
<path d="M449.979 516.887V569.662L490.885 543.275L449.979 516.887Z" fill="#ABABAB"/>
<path d="M449.979 516.887L490.885 543.275V490.634L449.979 516.887Z" fill="#353F56"/>
<path d="M449.979 464.246V516.887L490.885 490.634L449.979 464.246Z" fill="#353F56"/>
<path d="M449.979 464.246L490.885 490.634V490.5V437.859L449.979 464.246Z" fill="#353F56"/>
<path d="M449.979 411.471V464.246L490.885 437.859L449.979 411.471Z" fill="#435391"/>
<path d="M449.979 305.922V358.697L490.885 332.309L449.979 305.922Z" fill="#353F56"/>
<path d="M449.979 253.281V305.922L490.885 279.535L449.979 253.281Z" fill="#E1E1E1"/>
<path d="M449.979 253.281L490.885 279.534V226.894L449.979 253.281Z" fill="#E1E1E1"/>
<path d="M449.979 200.506V253.281L490.885 226.894L449.979 200.506Z" fill="#353F56"/>
<path d="M449.979 147.732V200.506L490.885 174.119L449.979 147.732Z" fill="#353F56"/>
<path d="M449.979 147.732L490.885 174.119V121.344L449.979 147.732Z" fill="#353F56"/>
<path d="M449.979 94.9568V147.732L490.885 121.344L449.979 94.9568Z" fill="#353F56"/>
<path d="M449.979 42.316V94.9568L490.885 68.5694L449.979 42.316Z" fill="#353F56"/>
<path d="M449.979 42.182V42.3159L490.885 68.5693V15.9285L449.979 42.182Z" fill="#E1E1E1"/>
<path d="M449.979 94.9569L490.885 121.344V68.5695L449.979 94.9569Z" fill="#353F56"/>
<path d="M449.979 200.506L490.885 226.894V174.119L449.979 200.506Z" fill="#353F56"/>
<path d="M449.979 305.922L490.885 332.309V279.535L449.979 305.922Z" fill="#353F56"/>
<path d="M449.979 411.472L490.885 437.859V385.084L449.979 411.472Z" fill="#435391"/>
<path d="M490.884 701.465V754.24L531.79 727.852L490.884 701.465Z" fill="#435391"/>
<path d="M490.884 648.824V701.465L531.79 675.212L490.884 648.824Z" fill="#435391"/>
<path d="M490.884 648.824L531.79 675.211V622.437L490.884 648.824Z" fill="#435391"/>
<path d="M490.884 596.049V648.824L531.79 622.437L490.884 596.049Z" fill="#ABABAB"/>
<path d="M490.884 543.275V596.049L531.79 569.662L490.884 543.275Z" fill="#435391"/>
<path d="M490.884 543.275L531.79 569.662V516.887L490.884 543.275Z" fill="#435391"/>
<path d="M490.884 490.634V543.275L531.79 516.887L490.884 490.634Z" fill="#435391"/>
<path d="M490.884 490.5V490.634L531.79 516.887V464.246L490.884 490.5Z" fill="#435391"/>
<path d="M490.884 437.859V490.5L531.79 464.246L490.884 437.859Z" fill="#435391"/>
<path d="M490.884 437.859L531.79 464.246V411.471L490.884 437.859Z" fill="#435391"/>
<path d="M490.884 385.084V437.859L531.79 411.472L490.884 385.084Z" fill="#435391"/>
<path d="M490.884 279.535V332.309L531.79 305.922L490.884 279.535Z" fill="#353F56"/>
<path d="M490.884 226.894V279.534L531.79 253.281L490.884 226.894Z" fill="#E1E1E1"/>
<path d="M490.884 174.119V226.894L531.79 200.506L490.884 174.119Z" fill="#ABABAB"/>
<path d="M490.884 174.119L531.79 200.506V147.732L490.884 174.119Z" fill="#ABABAB"/>
<path d="M490.884 121.344V174.119L531.79 147.732L490.884 121.344Z" fill="#ABABAB"/>
<path d="M490.884 68.5695V121.344L531.79 94.9569L490.884 68.5695Z" fill="#ABABAB"/>
<path d="M490.884 15.9285V68.5693L531.79 42.3159L490.884 15.9285Z" fill="#E1E1E1"/>
<path d="M490.884 15.9286L531.79 42.316V42.182V-10.4588L490.884 15.9286Z" fill="#E1E1E1"/>
<path d="M490.884 68.5694L531.79 94.9568V42.316L490.884 68.5694Z" fill="#ABABAB"/>
<path d="M490.884 121.344L531.79 147.732V94.9568L490.884 121.344Z" fill="#ABABAB"/>
<path d="M490.884 226.894L531.79 253.281V200.506L490.884 226.894Z" fill="#E1E1E1"/>
<path d="M490.884 385.084L531.79 411.471V358.697L490.884 385.084Z" fill="#ABABAB"/>
<path d="M490.884 596.049L531.79 622.437V569.662L490.884 596.049Z" fill="#ABABAB"/>
<path d="M490.884 701.465L531.79 727.853V675.212L490.884 701.465Z" fill="#435391"/>
</svg>
