<svg width="300" height="320" viewBox="0 0 300 320" fill="none" xmlns="http://www.w3.org/2000/svg">
<path d="M-1.49533 274.369V274.445L21.6406 289.294V259.521L-1.49533 274.369Z" fill="#ABABAB"/>
<path d="M-1.49533 244.596V274.369L21.6406 259.521L-1.49533 244.596Z" fill="#ABABAB"/>
<path d="M-1.49533 214.746V244.596L21.6406 229.671L-1.49533 214.746Z" fill="#ABABAB"/>
<path d="M-1.49533 184.897V214.746L21.6406 199.822L-1.49533 184.897Z" fill="#E1E1E1"/>
<path d="M-1.49533 155.124V184.897L21.6406 169.972L-1.49533 155.124Z" fill="#E1E1E1"/>
<path d="M-1.49533 155.048V155.124L21.6406 169.973V140.199L-1.49533 155.048Z" fill="#ABABAB"/>
<path d="M-1.49533 125.274V155.048L21.6406 140.199L-1.49533 125.274Z" fill="#ABABAB"/>
<path d="M-1.49533 95.4249V125.274L21.6406 110.35L-1.49533 95.4249Z" fill="#606060"/>
<path d="M-1.49533 95.4249L21.6406 110.35V80.5002L-1.49533 95.4249Z" fill="#606060"/>
<path d="M-1.49533 65.5756V95.4249L21.6406 80.5003L-1.49533 65.5756Z" fill="#606060"/>
<path d="M-1.49533 35.7263V65.5757L21.6406 50.651L-1.49533 35.7263Z" fill="#353F56"/>
<path d="M-1.49533 35.7263L21.6406 50.651V20.8774L-1.49533 35.7263Z" fill="#353F56"/>
<path d="M-1.49533 5.9527V35.7263L21.6406 20.8774L-1.49533 5.9527Z" fill="#C5DDF2"/>
<path d="M-1.49533 5.95272L21.6406 20.8774V-8.97195L-1.49533 5.95272Z" fill="#C5DDF2"/>
<path d="M-1.49533 65.5756L21.6406 80.5003V50.6509L-1.49533 65.5756Z" fill="#606060"/>
<path d="M-1.49533 184.897L21.6406 199.822V169.973L-1.49533 184.897Z" fill="#E1E1E1"/>
<path d="M-1.49533 214.746L21.6406 229.671V199.822L-1.49533 214.746Z" fill="#ABABAB"/>
<path d="M21.6394 259.521V289.294L44.7754 274.369L21.6394 259.521Z" fill="#ABABAB"/>
<path d="M21.6394 259.521L44.7754 274.369V244.596L21.6394 259.521Z" fill="#ABABAB"/>
<path d="M21.6394 199.822V229.671L44.7754 214.746L21.6394 199.822Z" fill="#ABABAB"/>
<path d="M21.6394 199.822L44.7754 214.746V184.897L21.6394 199.822Z" fill="#ABABAB"/>
<path d="M21.6394 169.973V199.822L44.7754 184.897L21.6394 169.973Z" fill="#E1E1E1"/>
<path d="M21.6394 140.199V169.973L44.7754 155.124L21.6394 140.199Z" fill="#ABABAB"/>
<path d="M21.6394 140.199L44.7754 155.124V125.274L21.6394 140.199Z" fill="#435391"/>
<path d="M21.6394 80.5002V110.35L44.7754 95.4249L21.6394 80.5002Z" fill="#353F56"/>
<path d="M21.6394 50.6509V80.5003L44.7754 65.5756L21.6394 50.6509Z" fill="#E1E1E1"/>
<path d="M21.6394 20.8774V50.651L44.7754 35.7263L21.6394 20.8774Z" fill="#353F56"/>
<path d="M21.6394 20.8774L44.7754 35.7263V5.9527L21.6394 20.8774Z" fill="#353F56"/>
<path d="M21.6394 -8.97195V20.8774L44.7754 5.95272L21.6394 -8.97195Z" fill="#C5DDF2"/>
<path d="M21.6394 -8.97196L44.7754 5.95271V-23.8966L21.6394 -8.97196Z" fill="#ABABAB"/>
<path d="M21.6394 50.651L44.7754 65.5757V35.7263L21.6394 50.651Z" fill="#E1E1E1"/>
<path d="M21.6394 80.5003L44.7754 95.4249V65.5756L21.6394 80.5003Z" fill="#353F56"/>
<path d="M21.6394 169.972L44.7754 184.897V155.124L21.6394 169.972Z" fill="#ABABAB"/>
<path d="M44.7761 244.596V274.369L67.9121 259.521L44.7761 244.596Z" fill="#ABABAB"/>
<path d="M44.7761 184.897V214.746L67.9121 199.822L44.7761 184.897Z" fill="#ABABAB"/>
<path d="M44.7761 184.897L67.9121 199.822V169.973L44.7761 184.897Z" fill="#ABABAB"/>
<path d="M44.7761 125.274V155.124L67.9121 140.199L44.7761 125.274Z" fill="#435391"/>
<path d="M44.7761 125.274L67.9121 140.199V110.35L44.7761 125.274Z" fill="#435391"/>
<path d="M44.7761 65.5756V95.4249L67.9121 80.5003L44.7761 65.5756Z" fill="#353F56"/>
<path d="M44.7761 35.7263V65.5757L67.9121 50.651L44.7761 35.7263Z" fill="#E1E1E1"/>
<path d="M44.7761 35.7263L67.9121 50.651V20.8774L44.7761 35.7263Z" fill="#E1E1E1"/>
<path d="M44.7761 5.9527V35.7263L67.9121 20.8774L44.7761 5.9527Z" fill="#353F56"/>
<path d="M44.7761 5.95272L67.9121 20.8774V-8.97195L44.7761 5.95272Z" fill="#353F56"/>
<path d="M44.7761 -23.8966V5.95271L67.9121 -8.97196L44.7761 -23.8966Z" fill="#C5DDF2"/>
<path d="M44.7761 65.5756L67.9121 80.5003V50.6509L44.7761 65.5756Z" fill="#353F56"/>
<path d="M44.7761 244.596L67.9121 259.52V229.671L44.7761 244.596Z" fill="#ABABAB"/>
<path d="M67.9119 229.671V259.52L91.0479 244.596L67.9119 229.671Z" fill="#ABABAB"/>
<path d="M67.9119 229.671L91.0479 244.596V214.746L67.9119 229.671Z" fill="#ABABAB"/>
<path d="M67.9119 169.973V199.822L91.0479 184.897L67.9119 169.973Z" fill="#ABABAB"/>
<path d="M67.9119 169.972L91.0479 184.897V155.124L67.9119 169.972Z" fill="#353F56"/>
<path d="M67.9119 140.199V169.973L91.0479 155.124L67.9119 140.199Z" fill="#353F56"/>
<path d="M67.9119 140.199L91.0479 155.124V155.048V125.274L67.9119 140.199Z" fill="#353F56"/>
<path d="M67.9119 110.35V140.199L91.0479 125.274L67.9119 110.35Z" fill="#435391"/>
<path d="M67.9119 50.6509V80.5003L91.0479 65.5756L67.9119 50.6509Z" fill="#353F56"/>
<path d="M67.9119 20.8774V50.651L91.0479 35.7263L67.9119 20.8774Z" fill="#E1E1E1"/>
<path d="M67.9119 20.8774L91.0479 35.7263V5.9527L67.9119 20.8774Z" fill="#E1E1E1"/>
<path d="M67.9119 -8.97195V20.8774L91.0479 5.95272L67.9119 -8.97195Z" fill="#353F56"/>
<path d="M67.9119 -8.97196L91.0479 5.95271V-23.8966L67.9119 -8.97196Z" fill="#353F56"/>
<path d="M67.9119 50.651L91.0479 65.5757V35.7263L67.9119 50.651Z" fill="#353F56"/>
<path d="M67.9119 110.35L91.0479 125.274V95.4249L67.9119 110.35Z" fill="#435391"/>
<path d="M91.0486 274.369V304.219L114.185 289.294L91.0486 274.369Z" fill="#435391"/>
<path d="M91.0486 244.596V274.369L114.185 259.521L91.0486 244.596Z" fill="#435391"/>
<path d="M91.0486 244.596L114.185 259.52V229.671L91.0486 244.596Z" fill="#435391"/>
<path d="M91.0486 214.746V244.596L114.185 229.671L91.0486 214.746Z" fill="#ABABAB"/>
<path d="M91.0486 184.897V214.746L114.185 199.822L91.0486 184.897Z" fill="#435391"/>
<path d="M91.0486 184.897L114.185 199.822V169.973L91.0486 184.897Z" fill="#435391"/>
<path d="M91.0486 155.124V184.897L114.185 169.972L91.0486 155.124Z" fill="#435391"/>
<path d="M91.0486 155.048V155.124L114.185 169.973V140.199L91.0486 155.048Z" fill="#435391"/>
<path d="M91.0486 125.274V155.048L114.185 140.199L91.0486 125.274Z" fill="#435391"/>
<path d="M91.0486 125.274L114.185 140.199V110.35L91.0486 125.274Z" fill="#435391"/>
<path d="M91.0486 95.4249V125.274L114.185 110.35L91.0486 95.4249Z" fill="#435391"/>
<path d="M91.0486 35.7263V65.5757L114.185 50.651L91.0486 35.7263Z" fill="#353F56"/>
<path d="M91.0486 5.9527V35.7263L114.185 20.8774L91.0486 5.9527Z" fill="#E1E1E1"/>
<path d="M91.0486 -23.8966V5.95271L114.185 -8.97196L91.0486 -23.8966Z" fill="#ABABAB"/>
<path d="M91.0486 5.95272L114.185 20.8774V-8.97195L91.0486 5.95272Z" fill="#E1E1E1"/>
<path d="M91.0486 95.4249L114.185 110.35V80.5002L91.0486 95.4249Z" fill="#ABABAB"/>
<path d="M91.0486 214.746L114.185 229.671V199.822L91.0486 214.746Z" fill="#ABABAB"/>
<path d="M91.0486 274.369L114.185 289.294V259.521L91.0486 274.369Z" fill="#435391"/>
<path d="M114.183 199.822V229.671L137.319 214.746L114.183 199.822Z" fill="#ABABAB"/>
<path d="M114.183 169.973V199.822L137.319 184.897L114.183 169.973Z" fill="#C5DDF2"/>
<path d="M114.183 169.972L137.319 184.897V155.123V155.048L114.183 169.972Z" fill="#C5DDF2"/>
<path d="M114.183 140.199V169.973L137.319 155.048L114.183 140.199Z" fill="#C5DDF2"/>
<path d="M114.183 140.199L137.319 155.048V125.274L114.183 140.199Z" fill="#C5DDF2"/>
<path d="M114.183 110.35V140.199L137.319 125.274L114.183 110.35Z" fill="#C5DDF2"/>
<path d="M114.183 80.5002V110.35L137.319 95.4249L114.183 80.5002Z" fill="#ABABAB"/>
<path d="M114.183 80.5003L137.319 95.4249V65.5756L114.183 80.5003Z" fill="#ABABAB"/>
<path d="M114.183 50.6509V80.5003L137.319 65.5756L114.183 50.6509Z" fill="#ABABAB"/>
<path d="M114.183 -8.97195V20.8774L137.319 5.95272L114.183 -8.97195Z" fill="#E1E1E1"/>
<path d="M114.183 -8.97196L137.319 5.95271V-23.8966L114.183 -8.97196Z" fill="#E1E1E1"/>
<path d="M114.183 110.35L137.319 125.274V95.4249L114.183 110.35Z" fill="#C5DDF2"/>
<path d="M114.183 199.822L137.319 214.746V184.897L114.183 199.822Z" fill="#ABABAB"/>
<path d="M137.32 184.897V214.746L160.456 199.822L137.32 184.897Z" fill="#ABABAB"/>
<path d="M137.32 155.124V184.897L160.456 169.972L137.32 155.124Z" fill="#353F56"/>
<path d="M137.32 155.048V155.124L160.456 169.973V140.199L137.32 155.048Z" fill="#353F56"/>
<path d="M137.32 125.274V155.048L160.456 140.199L137.32 125.274Z" fill="#353F56"/>
<path d="M137.32 95.4249V125.274L160.456 110.35L137.32 95.4249Z" fill="#353F56"/>
<path d="M137.32 95.4249L160.456 110.35V80.5002L137.32 95.4249Z" fill="#353F56"/>
<path d="M137.32 65.5756V95.4249L160.456 80.5003L137.32 65.5756Z" fill="#ABABAB"/>
<path d="M137.32 65.5756L160.456 80.5003V50.6509L137.32 65.5756Z" fill="#353F56"/>
<path d="M137.32 35.7263V65.5757L160.456 50.651L137.32 35.7263Z" fill="#353F56"/>
<path d="M137.32 35.7263L160.456 50.651V20.8774L137.32 35.7263Z" fill="#353F56"/>
<path d="M137.32 5.9527V35.7263L160.456 20.8774L137.32 5.9527Z" fill="#353F56"/>
<path d="M137.32 5.95272L160.456 20.8774V-8.97195L137.32 5.95272Z" fill="#E1E1E1"/>
<path d="M137.32 -23.8966V5.95271L160.456 -8.97196L137.32 -23.8966Z" fill="#E1E1E1"/>
<path d="M137.32 125.274L160.456 140.199V110.35L137.32 125.274Z" fill="#353F56"/>
<path d="M137.32 184.897L160.456 199.822V169.973L137.32 184.897Z" fill="#ABABAB"/>
<path d="M160.456 169.973V199.822L183.592 184.897L160.456 169.973Z" fill="#ABABAB"/>
<path d="M160.456 140.199V169.973L183.592 155.124L160.456 140.199Z" fill="#ABABAB"/>
<path d="M160.456 140.199L183.592 155.124V125.274L160.456 140.199Z" fill="#C5DDF2"/>
<path d="M160.456 110.35V140.199L183.592 125.274L160.456 110.35Z" fill="#E1E1E1"/>
<path d="M160.456 110.35L183.592 125.274V95.4249L160.456 110.35Z" fill="#E1E1E1"/>
<path d="M160.456 80.5002V110.35L183.592 95.4249L160.456 80.5002Z" fill="#ABABAB"/>
<path d="M160.456 -8.97195V20.8774L183.592 5.95272L160.456 -8.97195Z" fill="#E1E1E1"/>
<path d="M160.456 -8.97196L183.592 5.95271V-23.8966L160.456 -8.97196Z" fill="#E1E1E1"/>
<path d="M160.456 80.5003L183.592 95.4249V65.5756L160.456 80.5003Z" fill="#ABABAB"/>
<path d="M160.456 169.972L183.592 184.897V155.124L160.456 169.972Z" fill="#ABABAB"/>
<path d="M183.592 155.124V184.897L206.728 169.972L183.592 155.124Z" fill="#ABABAB"/>
<path d="M183.592 125.274V155.124L206.728 140.199L183.592 125.274Z" fill="#C5DDF2"/>
<path d="M183.592 125.274L206.728 140.199V110.35L183.592 125.274Z" fill="#C5DDF2"/>
<path d="M183.592 95.4249V125.274L206.728 110.35L183.592 95.4249Z" fill="#E1E1E1"/>
<path d="M183.592 65.5756V95.4249L206.728 80.5003L183.592 65.5756Z" fill="#ABABAB"/>
<path d="M183.592 35.7263V65.5757L206.728 50.651L183.592 35.7263Z" fill="#ABABAB"/>
<path d="M183.592 35.7263L206.728 50.651V20.8774L183.592 35.7263Z" fill="#ABABAB"/>
<path d="M183.592 5.9527V35.7263L206.728 20.8774L183.592 5.9527Z" fill="#ABABAB"/>
<path d="M183.592 5.95272L206.728 20.8774V-8.97195L183.592 5.95272Z" fill="#ABABAB"/>
<path d="M183.592 -23.8966V5.95271L206.728 -8.97196L183.592 -23.8966Z" fill="#E1E1E1"/>
<path d="M183.592 65.5756L206.728 80.5003V50.6509L183.592 65.5756Z" fill="#ABABAB"/>
<path d="M183.592 95.4249L206.728 110.35V80.5002L183.592 95.4249Z" fill="#E1E1E1"/>
<path d="M183.592 155.124L206.728 169.973V140.199L183.592 155.124Z" fill="#E1E1E1"/>
<path d="M206.728 110.35V140.199L229.864 125.274L206.728 110.35Z" fill="#C5DDF2"/>
<path d="M206.728 80.5002V110.35L229.864 95.4249L206.728 80.5002Z" fill="#E1E1E1"/>
<path d="M206.728 80.5003L229.864 95.4249V65.5756L206.728 80.5003Z" fill="#E1E1E1"/>
<path d="M206.728 50.6509V80.5003L229.864 65.5756L206.728 50.6509Z" fill="#E1E1E1"/>
<path d="M206.728 110.35L229.864 125.274V95.4249L206.728 110.35Z" fill="#C5DDF2"/>
<path d="M229.865 95.4249V125.274L253 110.35L229.865 95.4249Z" fill="#C5DDF2"/>
<path d="M229.865 65.5756V95.4249L253 80.5003L229.865 65.5756Z" fill="#E1E1E1"/>
<path d="M229.865 95.4249L253 110.35V80.5002L229.865 95.4249Z" fill="#C5DDF2"/>
</svg>
