<svg width="448" height="516" viewBox="0 0 448 516" fill="none" xmlns="http://www.w3.org/2000/svg">
<path d="M138.382 487.81V532.14L172.741 509.975L138.382 487.81Z" fill="#353F56"/>
<path d="M138.382 443.481V487.81L172.741 465.646L138.382 443.481Z" fill="#353F56"/>
<path d="M138.382 443.481L172.741 465.646V421.429L138.382 443.481Z" fill="#435391"/>
<path d="M138.382 487.81L172.741 509.975V465.645L138.382 487.81Z" fill="#353F56"/>
<path d="M138.382 532.14L172.741 554.304V509.975L138.382 532.14Z" fill="#353F56"/>
<path d="M172.741 421.429V465.646L207.101 443.481L172.741 421.429Z" fill="#435391"/>
<path d="M172.741 465.646L207.101 487.81V443.481L172.741 465.646Z" fill="#435391"/>
<path d="M207.101 487.81L241.46 509.975V465.645L207.101 487.81Z" fill="#435391"/>
<path d="M207.101 443.481V487.81L241.46 465.646L207.101 443.481Z" fill="#435391"/>
<path d="M207.101 443.481L241.46 465.646V421.429L207.101 443.481Z" fill="#C5DDF2"/>
<path d="M241.461 465.646L275.82 487.81V443.481L241.461 465.646Z" fill="#353F56"/>
<path d="M241.461 421.429V465.646L275.82 443.481L241.461 421.429Z" fill="#C5DDF2"/>
<path d="M241.461 421.429L275.82 443.481V399.264L241.461 421.429Z" fill="#C5DDF2"/>
<path d="M275.821 532.14L310.18 554.304V509.975L275.821 532.14Z" fill="#606060"/>
<path d="M275.821 487.81V532.14L310.18 509.975L275.821 487.81Z" fill="#606060"/>
<path d="M275.821 443.481V487.81L310.18 465.646L275.821 443.481Z" fill="#353F56"/>
<path d="M275.821 443.481L310.18 465.646V421.429L275.821 443.481Z" fill="#353F56"/>
<path d="M275.821 399.264V443.481L310.18 421.429L275.821 399.264Z" fill="#C5DDF2"/>
<path d="M275.821 399.264L310.18 421.429V377.099L275.821 399.264Z" fill="#C5DDF2"/>
<path d="M275.821 487.81L310.18 509.975V465.645L275.821 487.81Z" fill="#606060"/>
<path d="M310.179 509.975V554.304L344.539 532.14L310.179 509.975Z" fill="#353F56"/>
<path d="M310.179 465.645V509.975L344.539 487.81L310.179 465.645Z" fill="#E1E1E1"/>
<path d="M310.179 421.429V465.646L344.539 443.481L310.179 421.429Z" fill="#353F56"/>
<path d="M310.179 421.429L344.539 443.481V399.264L310.179 421.429Z" fill="#353F56"/>
<path d="M310.179 377.099V421.429L344.539 399.264L310.179 377.099Z" fill="#C5DDF2"/>
<path d="M310.179 377.099L344.539 399.264V354.935L310.179 377.099Z" fill="#ABABAB"/>
<path d="M310.179 332.77V377.099L344.539 354.935L310.179 332.77Z" fill="#ABABAB"/>
<path d="M310.179 288.441V332.77L344.539 310.605L310.179 288.441Z" fill="#ABABAB"/>
<path d="M310.179 288.441L344.539 310.605V266.276L310.179 288.441Z" fill="#E1E1E1"/>
<path d="M310.179 332.77L344.539 354.935V310.605L310.179 332.77Z" fill="#ABABAB"/>
<path d="M310.179 465.646L344.539 487.81V443.481L310.179 465.646Z" fill="#E1E1E1"/>
<path d="M310.179 509.975L344.539 532.14V487.81L310.179 509.975Z" fill="#353F56"/>
<path d="M344.539 487.81V532.14L378.898 509.975L344.539 487.81Z" fill="#353F56"/>
<path d="M344.539 443.481V487.81L378.898 465.646L344.539 443.481Z" fill="#E1E1E1"/>
<path d="M344.539 443.481L378.898 465.646V421.429L344.539 443.481Z" fill="#E1E1E1"/>
<path d="M344.539 399.264V443.481L378.898 421.429L344.539 399.264Z" fill="#353F56"/>
<path d="M344.539 399.264L378.898 421.429V377.099L344.539 399.264Z" fill="#353F56"/>
<path d="M344.539 354.935V399.264L378.898 377.099L344.539 354.935Z" fill="#C5DDF2"/>
<path d="M344.539 310.605L378.898 332.77V288.441L344.539 310.605Z" fill="#E1E1E1"/>
<path d="M344.539 266.276V310.605L378.898 288.441L344.539 266.276Z" fill="#E1E1E1"/>
<path d="M344.539 354.935L378.898 377.099V332.77L344.539 354.935Z" fill="#C5DDF2"/>
<path d="M344.539 487.81L378.898 509.975V465.645L344.539 487.81Z" fill="#353F56"/>
<path d="M378.898 465.645V509.975L413.258 487.81L378.898 465.645Z" fill="#353F56"/>
<path d="M378.898 421.429V465.646L413.258 443.481L378.898 421.429Z" fill="#E1E1E1"/>
<path d="M378.898 421.429L413.258 443.481V399.264L378.898 421.429Z" fill="#E1E1E1"/>
<path d="M378.898 377.099V421.429L413.258 399.264L378.898 377.099Z" fill="#353F56"/>
<path d="M378.898 332.77V377.099L413.258 354.935L378.898 332.77Z" fill="#353F56"/>
<path d="M378.898 332.77L413.258 354.935V310.605L378.898 332.77Z" fill="#353F56"/>
<path d="M378.898 288.441V332.77L413.258 310.605L378.898 288.441Z" fill="#353F56"/>
<path d="M378.898 244.224V288.44L413.258 266.276L378.898 244.224Z" fill="#353F56"/>
<path d="M378.898 244.111V244.224L413.258 266.276V222.059L378.898 244.111Z" fill="#E1E1E1"/>
<path d="M378.898 288.441L413.258 310.605V266.276L378.898 288.441Z" fill="#353F56"/>
<path d="M378.898 377.099L413.258 399.264V354.935L378.898 377.099Z" fill="#353F56"/>
<path d="M378.898 465.646L413.258 487.81V443.481L378.898 465.646Z" fill="#353F56"/>
<path d="M413.258 443.481V487.81L447.617 465.646L413.258 443.481Z" fill="#353F56"/>
<path d="M413.258 399.264V443.481L447.617 421.429L413.258 399.264Z" fill="#E1E1E1"/>
<path d="M413.258 354.935V399.264L447.617 377.099L413.258 354.935Z" fill="#ABABAB"/>
<path d="M413.258 354.935L447.617 377.099V332.77L413.258 354.935Z" fill="#ABABAB"/>
<path d="M413.258 310.605V354.935L447.617 332.77L413.258 310.605Z" fill="#ABABAB"/>
<path d="M413.258 266.276V310.605L447.617 288.441L413.258 266.276Z" fill="#ABABAB"/>
<path d="M413.258 222.059V266.276L447.617 244.224L413.258 222.059Z" fill="#E1E1E1"/>
<path d="M413.258 222.059L447.617 244.224V244.111V199.894L413.258 222.059Z" fill="#E1E1E1"/>
<path d="M413.258 266.276L447.617 288.44V244.224L413.258 266.276Z" fill="#ABABAB"/>
<path d="M413.258 310.605L447.617 332.77V288.441L413.258 310.605Z" fill="#ABABAB"/>
<path d="M413.258 399.264L447.617 421.429V377.099L413.258 399.264Z" fill="#E1E1E1"/>
<path d="M413.258 532.14L447.617 554.304V509.975L413.258 532.14Z" fill="#ABABAB"/>
<path d="M447.616 509.975V554.304L481.975 532.14L447.616 509.975Z" fill="#ABABAB"/>
<path d="M447.616 509.975L481.975 532.14V487.81L447.616 509.975Z" fill="#ABABAB"/>
<path d="M447.616 465.645V509.975L481.975 487.81L447.616 465.645Z" fill="#ABABAB"/>
<path d="M447.616 377.099V421.429L481.975 399.264L447.616 377.099Z" fill="#E1E1E1"/>
<path d="M447.616 377.099L481.975 399.264V354.935L447.616 377.099Z" fill="#E1E1E1"/>
<path d="M447.616 332.77V377.099L481.975 354.935L447.616 332.77Z" fill="#E1E1E1"/>
<path d="M447.616 199.894V244.111L481.975 222.059L447.616 199.894Z" fill="#E1E1E1"/>
<path d="M447.616 199.894L481.975 222.059V177.729L447.616 199.894Z" fill="#E1E1E1"/>
</svg>
