<svg width="59" height="75" viewBox="0 0 59 75" fill="none" xmlns="http://www.w3.org/2000/svg">
<path d="M48.3324 50.3481C49.1727 50.5635 49.9831 50.8817 50.7411 51.2941C50.9057 51.3836 51.0832 51.4261 51.2582 51.4261C51.6425 51.4261 52.0148 51.2213 52.2114 50.8599C52.4975 50.3341 52.3031 49.6759 51.7773 49.3898C50.8623 48.892 49.8844 48.5077 48.8708 48.248L39.0184 45.723C38.2316 45.5217 37.6588 44.8036 37.6594 43.9736V41.2352C41.5073 38.6126 44.039 34.1956 44.039 29.1982V20.7453H45.6706C46.3915 20.7453 47.0507 20.3504 47.3908 19.7148C47.731 19.0793 47.6939 18.3117 47.294 17.7119L43.9819 12.7439L42.2812 3.28029C41.9406 1.38448 40.2954 0.00854492 38.3693 0.00854492H20.5938C18.6677 0.00854492 17.0225 1.38448 16.6819 3.28029L14.9813 12.7438L11.6692 17.7117C11.2693 18.3115 11.2322 19.0791 11.5724 19.7146C11.9126 20.3501 12.5717 20.7451 13.2926 20.7451H14.9242V29.198C14.9242 33.0838 16.4382 36.7394 19.1879 39.4926C19.8447 40.1484 20.5533 40.7334 21.3038 41.2449V43.9736C21.3041 44.8025 20.7322 45.5218 19.945 45.723L10.0923 48.2481C4.49487 49.6824 0.585449 54.7196 0.585449 60.4977V72.9245C0.585449 73.5233 1.07078 74.0085 1.66943 74.0085C2.26808 74.0085 2.75342 73.5233 2.75342 72.9245V69.2336H11.4251V72.9245C11.4251 73.5233 11.9105 74.0085 12.5091 74.0085C13.1078 74.0085 13.5931 73.5233 13.5931 72.9245V65.9816C13.5931 65.3828 13.1078 64.8977 12.5091 64.8977C11.9105 64.8977 11.4251 65.3828 11.4251 65.9816V67.0656H2.75342V60.4977C2.75342 55.7104 5.99265 51.5368 10.6306 50.3481L16.8342 48.7582L19.3545 58.837C18.3185 58.8821 17.4889 59.7369 17.4889 60.7839V72.0573C17.4889 73.1332 18.3642 74.0085 19.4401 74.0085H39.5233C40.5992 74.0085 41.4744 73.1332 41.4744 72.0573V60.7839C41.4744 59.7373 40.6456 58.883 39.6101 58.837L42.1293 48.7583L48.3324 50.3481ZM18.8157 3.66359C18.9705 2.8019 19.7183 2.17651 20.5938 2.17651H38.3692C39.2446 2.17651 39.9924 2.8019 40.1474 3.66359L40.8794 7.73734H18.0837L18.8157 3.66359ZM13.6979 18.5772L16.5885 14.2412H21.9492C22.5478 14.2412 23.0331 13.7561 23.0331 13.1573C23.0331 12.5585 22.5478 12.0733 21.9492 12.0733H17.3045L17.694 9.90531H41.2689L41.6584 12.0733H27.0078C26.4091 12.0733 25.9238 12.5585 25.9238 13.1573C25.9238 13.7561 26.4091 14.2412 27.0078 14.2412H42.3746L45.2652 18.5772H13.6979ZM20.7211 37.9595C18.3811 35.6167 17.0923 32.5052 17.0923 29.198V20.7451H41.8708V29.198C41.8708 36.0294 36.313 41.5872 29.4815 41.5872C27.1555 41.5872 24.9274 40.9473 22.9947 39.7552C22.9935 39.7544 22.9924 39.7537 22.9912 39.753C22.1774 39.2506 21.4147 38.6524 20.7211 37.9595ZM36.3242 46.4079C34.5737 48.3429 32.1288 49.4382 29.4815 49.4382C26.8343 49.4382 24.3894 48.3429 22.6389 46.4079C23.1652 45.7292 23.4719 44.8804 23.4719 43.9735V42.4637C25.3361 43.3093 27.3749 43.7552 29.4815 43.7552C31.6232 43.7552 33.6582 43.29 35.4911 42.4559V43.9736C35.4911 44.8804 35.798 45.7292 36.3242 46.4079ZM39.3063 71.8405H19.6568V67.5046H25.5241C26.0009 69.2428 27.594 70.5244 29.4815 70.5244C31.3691 70.5244 32.9623 69.243 33.439 67.5046H39.3063V71.8405ZM27.546 66.4149C27.549 65.3503 28.4159 64.4849 29.4815 64.4849C30.5472 64.4849 31.4141 65.3503 31.4171 66.4149C31.4171 66.417 31.4168 66.4187 31.4168 66.4206C31.4168 66.4225 31.4171 66.4242 31.4171 66.4262C31.4141 67.4908 30.5472 68.3563 29.4815 68.3563C28.4159 68.3563 27.549 67.4908 27.546 66.4262C27.546 66.4242 27.5463 66.4225 27.5463 66.4206C27.5463 66.4187 27.546 66.417 27.546 66.4149ZM39.3063 65.3366H33.439C32.9621 63.5983 31.3691 62.3168 29.4815 62.3168C27.594 62.3168 26.0008 63.5982 25.5241 65.3366H19.6568V61.0007H24.287C25.3628 61.0007 26.2381 60.1254 26.2381 59.0495V58.1901H32.7251V59.0495C32.7251 60.1254 33.6004 61.0007 34.6763 61.0007H39.3065V65.3366H39.3063ZM37.3764 58.8327H34.8931V57.9733C34.8931 56.8974 34.0178 56.0221 32.9419 56.0221H26.0213C24.9454 56.0221 24.0702 56.8974 24.0702 57.9733V58.8327H21.5881L18.9344 48.2199C19.2694 48.1359 20.5755 47.8129 20.8821 47.6956C23.0388 50.1589 26.1885 51.6061 29.4815 51.6061C32.7744 51.6061 35.9243 50.1589 38.0811 47.6956C38.5062 47.8821 39.5976 48.1026 40.029 48.2201L37.3764 58.8327ZM58.3776 60.4977C58.3776 57.7973 57.5356 55.2178 55.9426 53.0379C55.5893 52.5544 54.9109 52.449 54.4279 52.8021C53.9444 53.1554 53.8389 53.8337 54.1922 54.3168C55.512 56.123 56.2097 58.2603 56.2097 60.4977V67.0656H47.538V66.7763C47.538 66.1775 47.0526 65.6923 46.454 65.6923C45.8553 65.6923 45.37 66.1775 45.37 66.7763V72.9245C45.37 73.5233 45.8553 74.0085 46.454 74.0085C47.0526 74.0085 47.538 73.5233 47.538 72.9245V69.2336H56.2097V72.9245C56.2097 73.5233 56.695 74.0085 57.2937 74.0085C57.8923 74.0085 58.3776 73.5233 58.3776 72.9245V60.4977Z" fill="#6BCDB2"/>
</svg>
