<svg width="69" height="77" viewBox="0 0 69 77" fill="none" xmlns="http://www.w3.org/2000/svg">
<path d="M67.6723 6.3582H39.0828C36.53 3.6339 33.1523 1.72956 29.5126 0.978947C25.9715 0.248767 22.1917 0.606549 18.8688 1.98667C17.1267 2.71029 15.5126 3.69907 14.071 4.92573C12.9696 5.86292 14.4194 7.56697 15.5208 6.62949C16.7849 5.5539 18.2001 4.68696 19.7269 4.05268C22.6397 2.84287 25.9545 2.52924 29.0609 3.16993C31.5427 3.68177 33.8865 4.80613 35.8596 6.40503C35.3973 6.54239 35.06 6.96997 35.06 7.47674V20.9599C31.9847 20.1584 27.8351 17.9532 27.0732 11.9067C26.8973 10.5038 24.8033 10.5047 24.6258 11.9063C24.0158 16.7697 20.3793 20.4373 15.3614 21.2496C13.5671 21.5401 12.2308 22.9905 12.0429 24.7764C9.71501 24.8282 7.83691 26.7366 7.83691 29.0789C7.83691 31.4228 9.72112 33.3337 12.0544 33.3795C12.4474 38.8382 16.0325 43.427 20.9494 45.2886V46.2824C15.8784 47.9935 12.1203 52.2575 10.9654 57.3791C8.52668 57.0827 6.60533 55.1272 6.27067 52.7112C6.0401 51.047 6.55895 49.4139 7.69404 48.2308C8.32087 47.5776 7.91998 46.4544 7.02098 46.346C3.60885 45.9341 1.37178 42.2506 2.5886 39.0358C3.74994 35.9678 7.05528 35.8164 7.90209 35.2984C8.58887 34.8785 8.4266 33.8369 7.72685 33.4336C6.23428 32.5547 5.31917 31.2053 5.07965 29.5284C4.70144 26.8814 6.34509 24.3343 8.90295 23.6035C9.62627 23.3968 10.094 22.5146 10.0037 21.7926C9.61285 18.6649 10.0376 15.6033 11.3405 12.1576C11.852 10.8049 9.7596 10.0136 9.24806 11.3663C7.87092 15.0082 7.38637 18.2839 7.73416 21.6343C4.42702 22.8639 2.35744 26.2914 2.8651 29.8447C3.06599 31.2511 3.62347 32.5186 4.48563 33.5711C4.41912 33.7173 4.38213 33.8752 4.37691 34.0355C2.62066 34.874 1.20713 36.3661 0.496343 38.2439C-0.980123 42.1445 1.09767 46.6754 4.98838 48.1347C4.15186 49.5853 3.81541 51.2915 4.05463 53.0183C4.52247 56.3956 7.24722 59.151 10.6355 59.5908C10.6079 59.9623 10.5916 60.3363 10.5916 60.7132V75.8447C10.5916 77.2909 12.8287 77.2909 12.8287 75.8447V63.1025H16.3681V75.8447C16.3681 77.2909 18.6051 77.2909 18.6051 75.8447V61.984C18.6051 61.3663 18.1043 60.8655 17.4866 60.8655H12.8287C12.7741 55.5797 16.0447 50.6508 20.9494 48.666V50.6538C20.9494 57.0044 30.8036 57.0053 30.8036 50.6538V48.7055C35.6514 50.7159 38.8825 55.6212 38.8285 60.8655H34.1708C33.5531 60.8655 33.0523 61.3663 33.0523 61.984V70.0737C33.0523 73.8727 36.1452 76.9633 39.9471 76.9633H54.2625C54.8802 76.9633 55.3811 76.4624 55.3811 75.8447V67.2769C55.3811 65.8307 53.144 65.8307 53.144 67.2769V74.7262H50.7072V49.4591H53.144V61.3321C53.144 62.7783 55.3811 62.7783 55.3811 61.3321V49.4591H67.6724C68.2901 49.4591 68.7909 48.9583 68.7909 48.3405V7.47674C68.7908 6.85901 68.29 6.3582 67.6723 6.3582ZM10.074 29.0767C10.074 27.9787 10.9357 27.0808 12.0178 27.0172V31.1384C10.9356 31.0748 10.074 30.1767 10.074 29.0767ZM14.2549 32.3799V25.2091C14.2549 24.3459 14.8843 23.5932 15.7189 23.4581C20.3809 22.7033 24.0515 19.8807 25.8134 15.9203C26.6026 17.832 27.8114 19.4284 29.4293 20.6899C31.3109 22.1573 33.4112 22.8913 35.06 23.26V39.3526C32.8787 42.2287 29.4406 43.9419 25.8286 43.9419C19.4469 43.9417 14.2549 38.7551 14.2549 32.3799ZM25.8747 53.3422C24.3924 53.3422 23.1865 52.1363 23.1865 50.654V45.9244C24.9602 46.2692 26.7958 46.262 28.5665 45.9011V50.654C28.5663 52.1363 27.3604 53.3422 25.8747 53.3422ZM30.8034 46.3151V45.2443C32.3621 44.6407 33.8078 43.7595 35.06 42.6385V48.3405C35.06 48.4423 35.0747 48.5404 35.1002 48.6342C33.8214 47.6479 32.3762 46.8581 30.8034 46.3151ZM48.4491 74.7263H39.9469C37.3786 74.7263 35.2892 72.6393 35.2892 70.0738V63.1027H38.8284V67.8315C38.8284 69.6847 40.336 71.1924 42.1892 71.1924H48.4491V74.7263ZM48.4698 68.9553H42.1892C41.5695 68.9553 41.0654 68.4512 41.0654 67.8315V61.9841C41.1032 59.6446 40.8692 57.3407 40.0031 55.1487C39.5735 54.0613 37.3105 49.4591 36.1785 49.4591H48.47V68.9553H48.4698ZM66.5537 47.222H54.2624H49.5885H37.297V8.59527H66.5537V47.222Z" fill="#6BCDB2"/>
<path d="M43.3967 17.1118H60.4539C61.0717 17.1118 61.5725 16.611 61.5725 15.9933C61.5725 15.3756 61.0717 14.8748 60.4539 14.8748H43.3967C42.779 14.8748 42.2782 15.3756 42.2782 15.9933C42.2782 16.611 42.779 17.1118 43.3967 17.1118Z" fill="#6BCDB2"/>
<path d="M43.3967 23.1856H60.4539C61.0717 23.1856 61.5725 22.6848 61.5725 22.067C61.5725 21.4493 61.0717 20.9485 60.4539 20.9485H43.3967C42.779 20.9485 42.2782 21.4493 42.2782 22.067C42.2782 22.6848 42.779 23.1856 43.3967 23.1856Z" fill="#6BCDB2"/>
<path d="M59.0464 27.2637C58.8146 27.2934 53.3381 28.0436 50.6854 32.6886C50.6839 32.6913 50.6826 32.6941 50.6811 32.6968C48.1936 30.0287 44.7054 29.678 44.5356 29.6626C44.0451 29.6176 43.5833 29.8996 43.3982 30.3558C43.3234 30.5403 41.5905 34.9202 43.9326 38.8361C46.2751 42.7529 50.9506 43.2905 51.1484 43.3116C51.1885 43.3159 51.2281 43.3178 51.2675 43.3178C51.3091 43.3178 51.35 43.3148 51.3906 43.3104C51.6696 43.2871 57.0002 42.7783 59.7972 37.8807C62.5033 33.1424 60.3035 28.1259 60.2085 27.9147C60.0067 27.4655 59.5341 27.2012 59.0464 27.2637ZM45.8523 37.6877C44.6198 35.6271 44.9196 33.2873 45.2148 32.0575C46.3816 32.3498 48.4376 33.126 49.7142 35.0809C49.1594 37.2012 49.3585 39.2244 49.6646 40.6442C48.4367 40.1989 46.836 39.3326 45.8523 37.6877ZM57.8546 36.7711C56.2105 39.6501 53.4385 40.6213 52.0478 40.9368C51.6423 39.5184 51.0869 36.4966 52.6281 33.7979C54.1609 31.1137 57.0253 30.049 58.4621 29.6696C58.8776 31.0752 59.4239 34.0237 57.8546 36.7711Z" fill="#6BCDB2"/>
</svg>
