<svg width="71" height="71" viewBox="0 0 71 71" fill="none" xmlns="http://www.w3.org/2000/svg">
<path d="M40.5026 54.6098C41.7357 53.3475 42.4999 51.6232 42.4999 49.7227C42.4999 49.5873 42.4987 49.4508 42.4882 49.3715C42.3004 45.644 39.2309 42.7227 35.4999 42.7227C31.7689 42.7227 28.6994 45.644 28.5151 49.3143C28.5011 49.4508 28.4999 49.5873 28.4999 49.7227C28.4999 51.6232 29.2641 53.3475 30.4972 54.6098C28.0122 55.2772 26.1666 57.5288 26.1666 60.2227V69.556C26.1666 70.2012 26.6892 70.7227 27.3332 70.7227H43.6666C44.3106 70.7227 44.8332 70.2012 44.8332 69.556V60.2227C44.8332 57.5288 42.9876 55.2772 40.5026 54.6098ZM30.9569 50.7552C32.0524 49.375 33.7149 48.556 35.4999 48.556C37.2849 48.556 38.9474 49.375 40.0429 50.7552C39.5704 52.8318 37.7177 54.3893 35.4999 54.3893C33.2821 54.3893 31.4294 52.8318 30.9569 50.7552ZM35.4999 45.056C37.1426 45.056 38.5799 45.9158 39.4129 47.2272C38.2311 46.5808 36.8917 46.2227 35.4999 46.2227C34.1022 46.2227 32.7582 46.5843 31.5741 47.2353C32.4024 45.9275 33.8467 45.056 35.4999 45.056ZM42.4999 68.3893H28.4999V60.2227C28.4999 58.293 30.0702 56.7227 31.9999 56.7227H38.9999C40.9296 56.7227 42.4999 58.293 42.4999 60.2227V68.3893Z" fill="#6BCDB2"/>
<path d="M32.5424 36.8892L34.5292 39.87C34.7462 40.1943 35.1102 40.3892 35.4999 40.3892C35.8896 40.3892 36.2536 40.1943 36.4706 39.87L38.4574 36.8892H41.3332C43.2629 36.8892 44.8332 35.3188 44.8332 33.3892V26.3892C44.8332 24.4595 43.2629 22.8892 41.3332 22.8892H29.6666C27.7369 22.8892 26.1666 24.4595 26.1666 26.3892V33.3892C26.1666 35.3188 27.7369 36.8892 29.6666 36.8892H32.5424ZM28.4999 33.3892V26.3892C28.4999 25.7452 29.0237 25.2225 29.6666 25.2225H41.3332C41.9761 25.2225 42.4999 25.7452 42.4999 26.3892V33.3892C42.4999 34.0332 41.9761 34.5558 41.3332 34.5558H37.8332C37.4436 34.5558 37.0796 34.7507 36.8626 35.075L35.4999 37.119L34.1372 35.075C33.9202 34.7507 33.5562 34.5558 33.1666 34.5558H29.6666C29.0237 34.5558 28.4999 34.0332 28.4999 33.3892Z" fill="#6BCDB2"/>
<path d="M9.83333 19.3893C14.9795 19.3893 19.1667 15.2022 19.1667 10.056C19.1667 4.90982 14.9795 0.722656 9.83333 0.722656C4.68717 0.722656 0.5 4.90982 0.5 10.056C0.5 15.2022 4.68717 19.3893 9.83333 19.3893ZM8.66667 8.88932C8.66667 8.24532 9.1905 7.72266 9.83333 7.72266C10.4762 7.72266 11 8.24532 11 8.88932C11 9.53332 10.4762 10.056 9.83333 10.056C9.1905 10.056 8.66667 9.53332 8.66667 8.88932ZM7.5 16.6477V13.556C7.5 12.912 8.02383 12.3893 8.66667 12.3893H11C11.6428 12.3893 12.1667 12.912 12.1667 13.556V16.6477C11.4352 16.9067 10.6523 17.056 9.83333 17.056C9.01433 17.056 8.2315 16.9067 7.5 16.6477ZM9.83333 3.05599C13.6938 3.05599 16.8333 6.19549 16.8333 10.056C16.8333 12.1222 15.928 13.976 14.5 15.2593V13.556C14.5 12.3135 13.8443 11.2262 12.8655 10.6055C13.1548 10.0957 13.3333 9.51582 13.3333 8.88932C13.3333 6.95966 11.763 5.38932 9.83333 5.38932C7.90367 5.38932 6.33333 6.95966 6.33333 8.88932C6.33333 9.51582 6.51183 10.0957 6.80117 10.6055C5.82233 11.2262 5.16667 12.3135 5.16667 13.556V15.2593C3.73867 13.976 2.83333 12.1222 2.83333 10.056C2.83333 6.19549 5.97283 3.05599 9.83333 3.05599Z" fill="#6BCDB2"/>
<path d="M61.1667 0.722656C56.0205 0.722656 51.8334 4.90982 51.8334 10.056C51.8334 15.2022 56.0205 19.3893 61.1667 19.3893C66.3129 19.3893 70.5 15.2022 70.5 10.056C70.5 4.90982 66.3129 0.722656 61.1667 0.722656ZM60 8.88932C60 8.24532 60.5239 7.72266 61.1667 7.72266C61.8095 7.72266 62.3334 8.24532 62.3334 8.88932C62.3334 9.53332 61.8095 10.056 61.1667 10.056C60.5239 10.056 60 9.53332 60 8.88932ZM58.8334 16.6477V13.556C58.8334 12.912 59.3572 12.3893 60 12.3893H62.3334C62.9762 12.3893 63.5 12.912 63.5 13.556V16.6477C62.7685 16.9067 61.9857 17.056 61.1667 17.056C60.3477 17.056 59.5649 16.9067 58.8334 16.6477ZM65.8334 15.2593V13.556C65.8334 12.3135 65.1777 11.2262 64.1989 10.6055C64.4882 10.0957 64.6667 9.51582 64.6667 8.88932C64.6667 6.95966 63.0964 5.38932 61.1667 5.38932C59.237 5.38932 57.6667 6.95966 57.6667 8.88932C57.6667 9.51582 57.8452 10.0957 58.1345 10.6055C57.1557 11.2262 56.5 12.3135 56.5 13.556V15.2593C55.072 13.9772 54.1667 12.1233 54.1667 10.056C54.1667 6.19549 57.3062 3.05599 61.1667 3.05599C65.0272 3.05599 68.1667 6.19549 68.1667 10.056C68.1667 12.1222 67.2614 13.976 65.8334 15.2593Z" fill="#6BCDB2"/>
<path d="M9.83333 61.3893C14.9795 61.3893 19.1667 57.2022 19.1667 52.056C19.1667 46.9098 14.9795 42.7227 9.83333 42.7227C4.68717 42.7227 0.5 46.9098 0.5 52.056C0.5 57.2022 4.68717 61.3893 9.83333 61.3893ZM8.66667 50.8893C8.66667 50.2453 9.1905 49.7227 9.83333 49.7227C10.4762 49.7227 11 50.2453 11 50.8893C11 51.5333 10.4762 52.056 9.83333 52.056C9.1905 52.056 8.66667 51.5333 8.66667 50.8893ZM7.5 58.6477V55.556C7.5 54.912 8.02383 54.3893 8.66667 54.3893H11C11.6428 54.3893 12.1667 54.912 12.1667 55.556V58.6477C11.4352 58.9067 10.6523 59.056 9.83333 59.056C9.01433 59.056 8.2315 58.9067 7.5 58.6477ZM9.83333 45.056C13.6938 45.056 16.8333 48.1955 16.8333 52.056C16.8333 54.1222 15.928 55.976 14.5 57.2593V55.556C14.5 54.3135 13.8443 53.2262 12.8655 52.6055C13.1548 52.0957 13.3333 51.5158 13.3333 50.8893C13.3333 48.9597 11.763 47.3893 9.83333 47.3893C7.90367 47.3893 6.33333 48.9597 6.33333 50.8893C6.33333 51.5158 6.51183 52.0957 6.80117 52.6055C5.82233 53.2262 5.16667 54.3135 5.16667 55.556V57.2593C3.73867 55.976 2.83333 54.1222 2.83333 52.056C2.83333 48.1955 5.97283 45.056 9.83333 45.056Z" fill="#6BCDB2"/>
<path d="M61.1667 42.7227C56.0205 42.7227 51.8334 46.9098 51.8334 52.056C51.8334 57.2022 56.0205 61.3893 61.1667 61.3893C66.3129 61.3893 70.5 57.2022 70.5 52.056C70.5 46.9098 66.3129 42.7227 61.1667 42.7227ZM60 50.8893C60 50.2453 60.5239 49.7227 61.1667 49.7227C61.8095 49.7227 62.3334 50.2453 62.3334 50.8893C62.3334 51.5333 61.8095 52.056 61.1667 52.056C60.5239 52.056 60 51.5333 60 50.8893ZM58.8334 58.6477V55.556C58.8334 54.912 59.3572 54.3893 60 54.3893H62.3334C62.9762 54.3893 63.5 54.912 63.5 55.556V58.6477C62.7685 58.9067 61.9857 59.056 61.1667 59.056C60.3477 59.056 59.5649 58.9067 58.8334 58.6477ZM65.8334 57.2593V55.556C65.8334 54.3135 65.1777 53.2262 64.1989 52.6055C64.4882 52.0957 64.6667 51.5158 64.6667 50.8893C64.6667 48.9597 63.0964 47.3893 61.1667 47.3893C59.237 47.3893 57.6667 48.9597 57.6667 50.8893C57.6667 51.5158 57.8452 52.0957 58.1345 52.6055C57.1557 53.2262 56.5 54.3135 56.5 55.556V57.2593C55.072 55.9772 54.1667 54.1233 54.1667 52.056C54.1667 48.1955 57.3062 45.056 61.1667 45.056C65.0272 45.056 68.1667 48.1955 68.1667 52.056C68.1667 54.1222 67.2614 55.976 65.8334 57.2593Z" fill="#6BCDB2"/>
<path d="M35.5001 13.5557C25.8506 13.5557 18.0001 21.4062 18.0001 31.0557C18.0001 37.2833 21.3531 43.091 26.749 46.213L27.918 44.1947C23.2396 41.4868 20.3335 36.4538 20.3335 31.0557C20.3335 22.693 27.1375 15.889 35.5001 15.889C43.8628 15.889 50.6668 22.693 50.6668 31.0557C50.6668 36.4235 47.9193 41.2838 43.3156 44.057L44.5196 46.0555C49.8303 42.8553 53.0001 37.2495 53.0001 31.0557C53.0001 21.4062 45.1496 13.5557 35.5001 13.5557Z" fill="#6BCDB2"/>
<path d="M19.7255 5.14199L20.9411 7.13349C25.3138 4.46649 30.348 3.05599 35.5 3.05599C40.1993 3.05599 44.8461 4.24249 48.94 6.48599L50.0623 4.43966C45.6255 2.00832 40.5901 0.722656 35.5 0.722656C29.9198 0.722656 24.4656 2.25099 19.7255 5.14199Z" fill="#6BCDB2"/>
<path d="M6.75341 21.3496C5.70108 24.4681 5.16675 27.7336 5.16675 31.0563C5.16675 34.3789 5.70108 37.6444 6.75341 40.7629L8.96425 40.0151C7.99241 37.1393 7.50008 34.1246 7.50008 31.0563C7.50008 27.9879 7.99241 24.9733 8.96425 22.0963L6.75341 21.3496Z" fill="#6BCDB2"/>
<path d="M24.3 56.7273C23.1473 56.2222 22.0168 55.6342 20.94 54.9785L19.7255 56.97C20.8921 57.6805 22.116 58.3187 23.3655 58.8647L24.3 56.7273Z" fill="#6BCDB2"/>
<path d="M47.6332 58.8647C48.8827 58.3187 50.1077 57.6805 51.2732 56.97L50.0587 54.9785C48.9819 55.6342 47.8514 56.2222 46.6987 56.7273L47.6332 58.8647Z" fill="#6BCDB2"/>
<path d="M64.2466 40.7629C65.2989 37.6444 65.8333 34.3789 65.8333 31.0563C65.8333 27.7336 65.2989 24.4681 64.2466 21.3496L62.0358 22.0974C63.0076 24.9733 63.4999 27.9879 63.4999 31.0563C63.4999 34.1246 63.0076 37.1393 62.0358 40.0163L64.2466 40.7629Z" fill="#6BCDB2"/>
</svg>
