<svg width="37" height="39" viewBox="0 0 37 39" fill="none" xmlns="http://www.w3.org/2000/svg">
<path d="M28.4013 2.08318C31.0711 1.62124 33.741 1.15916 36.4997 0.681641C35.9781 3.40556 35.464 6.08945 34.9333 8.8614C34.4409 8.36991 33.9599 7.93969 33.5417 7.45447C33.2488 7.11492 33.067 7.18464 32.7913 7.4565C31.0532 9.17198 29.3041 10.8766 27.5566 12.5831C24.4381 15.6288 21.3139 18.6693 18.2058 21.7256C17.9463 21.9807 17.8169 21.9397 17.5858 21.7176C16.2815 20.4658 14.9566 19.2351 13.6564 17.9793C13.4029 17.7349 13.2688 17.7161 13.0079 17.9796C10.1525 20.8551 7.27958 23.7131 4.42409 26.5876C4.16372 26.8511 4.02633 26.8952 3.74573 26.6058C2.91761 25.7514 2.05747 24.9273 1.19719 24.1044C1.00712 23.9224 1.0077 23.8224 1.19588 23.6357C5.20171 19.6594 9.20477 15.6799 13.1939 11.6866C13.4771 11.4033 13.6021 11.5779 13.7778 11.7439C15.0691 12.9644 16.3652 14.1807 17.6433 15.4151C17.8536 15.6188 17.9478 15.6029 18.149 15.4085C21.7071 11.974 25.2748 8.54892 28.8404 5.12205C29.1524 4.82253 29.4515 4.50642 29.787 4.23513C30.0872 3.99223 30.0319 3.83068 29.774 3.60131C29.271 3.1529 28.7925 2.67699 28.3044 2.21257C28.3365 2.16978 28.3694 2.1267 28.4013 2.08318Z" fill="#6BCDB2"/>
<path d="M10.4751 29.2695H0.5V38.9738H10.4751V29.2695Z" fill="#6BCDB2"/>
<path d="M23.3896 24.6953H13.4141V38.9743H23.3896V24.6953Z" fill="#6BCDB2"/>
<path d="M36.2567 18.4746H26.2812V38.9846H36.2567V18.4746Z" fill="#6BCDB2"/>
</svg>
