<svg width="480" height="743" viewBox="0 0 480 743" fill="none" xmlns="http://www.w3.org/2000/svg">
<g clip-path="url(#clip0_313_117)">
<rect width="480" height="743" fill="white"/>
<path d="M480 0H0V662.413H480V0Z" fill="#DDEDE6"/>
<path d="M318.9 331.207V453.596H295.265V426.529H260.308V331.207H221.486V399.07H182.664V432.973H167.256V355.584H117.776V399.07H64.9269V418.739H49.5195V342.695H-16.6936V440.483H-34.1443V403.049H-95.7186V432.973H-107.15V650.349L-91.0246 658.755H-50.2144L0.480927 667.889L30.7435 657.354L33.7808 674.446H89.9984V654.72H121.089L139.755 661.949L186.695 654.72L210.772 670.803L223.971 666.712H234.629L232.199 682.235H283.06L337.29 672.764H354.464L356.452 669.682H412.67L421.671 668.561H448.124L491.253 658.755H532.063L562.271 664.639L591.374 668.617L610.15 673.045V342.695H575.58V440.483H542.777V403.049H486.559V432.973H453.149V375.926H400.963V414.032H371.087V331.207H318.9Z" fill="#C3E5D6"/>
<path d="M1.54053 477.426V541.198L152.161 541.351C151.874 542.164 151.71 542.977 151.669 543.841H287.399C287.399 543.536 287.358 543.282 287.276 542.977H386.828C386.828 542.011 386.828 541.097 386.787 540.233L534.372 540.08V505.476C532.731 507.915 531.706 510.15 531.706 510.15C525.512 499.175 515.462 509.846 515.462 509.846C515.462 509.846 517.062 493.483 508.735 488.402C500.613 483.473 496.307 494.652 496.06 495.262C496.307 494.5 502.008 476.257 496.06 465.383C490.113 454.508 482.811 470.464 482.483 471.226C482.729 470.413 488.677 450.85 481.827 444.752C474.813 438.553 469.562 457.354 469.562 457.354C469.562 457.354 468.373 431.184 454.919 432.963C441.547 434.741 448.971 477.883 449.094 478.595C448.93 478.086 441.752 458.065 434.04 462.08C426.288 466.145 439.701 502.173 439.865 502.63C430.513 487.589 424.934 502.935 424.934 502.935C417.797 483.828 405.943 486.268 405.943 486.268C382.521 485.81 382.48 522.905 382.562 527.072C371.938 511.573 345.44 513.657 345.44 513.657C358.033 482.711 340.682 470.261 340.682 470.261C313.487 458.32 292.034 519.45 292.034 519.45C284.323 506.695 274.601 515.994 267.382 526.462C261.639 527.021 257.209 530.222 257.209 530.222C245.724 506.441 229.768 525.192 229.768 525.192C229.768 525.192 229.358 475.952 194.287 479.763C180.094 481.288 172.998 492.924 169.43 504.917C166.394 495.617 160.529 487.182 149.289 487.386C149.289 487.386 137.394 484.946 130.298 504.053C130.298 504.053 124.76 488.707 115.367 503.748C115.531 503.291 128.903 467.263 121.151 463.198C113.48 459.183 106.302 479.204 106.097 479.712C106.22 479.001 113.644 435.859 100.272 434.081C86.8181 432.302 85.6286 458.472 85.6286 458.472C85.6286 458.472 80.3372 439.671 73.3641 445.87C69.3032 449.478 69.7134 457.811 70.8209 464.214C63.9708 452.679 52.8958 438.807 37.0626 433.166C7.77535 422.749 10.8517 474.224 10.8517 474.224C2.3609 463.401 5.6834 482.66 5.6834 482.66C5.6834 482.66 4.08368 480.271 1.54053 477.426Z" fill="#67C6A9"/>
<path fill-rule="evenodd" clip-rule="evenodd" d="M480 531.514L350.527 537.553C350.527 537.553 191.712 534.341 153.733 531.384C115.755 528.426 0 520.019 0 520.019V743.001H480V531.514Z" fill="#46A07E"/>
<path fill-rule="evenodd" clip-rule="evenodd" d="M480 698.278C470.627 694.451 443.809 686.831 385.303 691.289C308.828 697.116 139.367 735.232 127.716 743L480 742.956V698.278Z" fill="#20C791"/>
<path opacity="0.25" d="M-6.02612 0.000976562H486.931V743.001H-6.02612V0.000976562Z" fill="#243D34"/>
<path d="M372.589 583.801L373.555 583.946L372.599 583.801H372.589Z" fill="#49263E"/>
<path d="M358.379 576.71C360.396 575.448 363.224 576.673 363.251 576.683L363.369 576.417C363.248 576.363 360.376 575.121 358.224 576.461C356.854 577.32 356.109 579.03 356.015 581.549L356.305 581.559C356.399 579.145 357.096 577.512 358.379 576.71Z" fill="black"/>
<path d="M362.292 569.426C362.995 569.147 363.342 568.349 363.063 567.645C362.783 566.941 361.985 566.595 361.281 566.874C360.578 567.154 360.231 567.952 360.51 568.655C360.79 569.359 361.588 569.706 362.292 569.426Z" fill="#E2F2F1"/>
<path d="M357.44 571.292L358.807 574.747L363.682 572.817L357.891 558.167C357.891 558.167 356.52 558.914 356.567 559.032C356.615 559.15 352.864 564.52 352.864 564.52C352.864 564.52 354.224 570.369 355.635 571.225C355.631 571.228 356.345 571.699 357.44 571.292Z" fill="#FE9F73"/>
<path d="M355.82 566.686C355.736 566.079 355.187 565.716 355.163 565.702C355.14 565.689 355.113 565.696 355.096 565.716C355.082 565.739 355.089 565.766 355.109 565.783C355.116 565.786 355.645 566.137 355.722 566.702C355.769 567.056 355.631 567.423 355.311 567.79L355.284 567.824L355.315 567.857C355.332 567.874 355.739 568.312 356.157 568.241C356.16 568.241 356.163 568.238 356.167 568.238C356.187 568.231 356.2 568.208 356.197 568.184C356.194 568.157 356.167 568.14 356.143 568.144C355.833 568.194 355.513 567.915 355.416 567.82C355.736 567.436 355.87 567.056 355.82 566.686Z" fill="#F07162"/>
<path d="M360.817 568.747C359.736 570.225 357.439 571.292 357.439 571.292L357.988 572.683C359.601 571.4 360.817 568.747 360.817 568.747Z" fill="#F07162"/>
<path d="M356.729 566.157C356.867 566.103 356.931 565.948 356.877 565.81C356.823 565.672 356.669 565.605 356.53 565.662C356.392 565.716 356.328 565.871 356.382 566.005C356.436 566.144 356.591 566.211 356.729 566.157Z" fill="black"/>
<path d="M354.399 567.08C354.537 567.026 354.601 566.871 354.547 566.733C354.493 566.595 354.338 566.531 354.2 566.585C354.062 566.639 353.998 566.794 354.052 566.932C354.109 567.066 354.264 567.134 354.399 567.08Z" fill="black"/>
<path d="M350.813 561.16C350.368 562.463 351.493 563.248 351.493 563.248C351.493 563.248 350.927 564.861 352.594 565.191C354.803 565.625 354.591 563.17 354.591 563.17C354.591 563.17 355.042 563.847 356.392 563.356C356.934 563.157 357.268 562.739 357.473 562.308C357.712 562.898 358.668 562.894 358.668 562.894C358.881 564.009 360.106 564.15 360.106 564.15C360.106 564.15 361.066 566.585 361.504 567.326C361.945 568.07 362.783 567.824 363.635 567.073C365.029 565.844 363.978 563.298 363.978 563.298C364.598 561.308 362.399 560.793 362.399 560.793L361.985 559.746C360.992 557.658 359.413 558.699 359.413 558.699C359.248 557.992 357.938 557.157 356.891 557.466C355.847 557.776 355.81 558.581 355.81 558.581C355.81 558.581 355.358 557.759 353.89 558.318C352.422 558.877 352.5 559.972 352.5 559.972C352.5 559.972 351.257 559.857 350.813 561.16Z" fill="white"/>
<path d="M356.099 566.261L356.123 566.063C356.103 566.059 355.587 566.005 355.197 566.426L355.345 566.564C355.668 566.214 356.096 566.261 356.099 566.261Z" fill="#F75553"/>
<path d="M358.18 565.171L360.531 564.241C360.581 564.221 360.608 564.164 360.588 564.11C360.568 564.059 360.51 564.032 360.457 564.053L358.106 564.982C358.056 565.002 358.029 565.059 358.049 565.113C358.073 565.167 358.13 565.191 358.18 565.171Z" fill="#F75553"/>
<path d="M361.749 566.716C362.517 566.413 362.891 565.547 362.588 564.78C362.285 564.015 361.419 563.638 360.652 563.941C359.887 564.244 359.51 565.11 359.813 565.877C360.116 566.645 360.982 567.019 361.749 566.716Z" fill="#FE9F73"/>
<path d="M361.568 564.527C361.595 564.527 361.615 564.504 361.611 564.477C361.608 564.45 361.588 564.43 361.561 564.433C361.544 564.433 361.137 564.46 360.898 564.75C360.76 564.914 360.709 565.133 360.743 565.399L360.766 565.568L360.837 565.409C360.844 565.389 361.046 564.945 361.527 565.032C361.793 565.079 361.908 565.315 361.925 565.5C361.941 565.696 361.867 565.958 361.601 566.059C361.578 566.069 361.564 566.096 361.574 566.12C361.585 566.144 361.611 566.157 361.635 566.147C361.638 566.147 361.642 566.144 361.642 566.144C361.931 566.029 362.042 565.733 362.019 565.487C361.992 565.197 361.807 564.982 361.544 564.935C361.17 564.867 360.941 565.083 360.83 565.234C360.834 565.063 360.881 564.918 360.975 564.807C361.187 564.551 361.564 564.527 361.568 564.527Z" fill="#F07162"/>
<path d="M356.082 568.962C357.13 568.851 357.254 567.895 357.258 567.885C357.261 567.854 357.241 567.827 357.21 567.824C357.18 567.821 357.153 567.841 357.15 567.871C357.146 567.908 357.032 568.75 356.076 568.851C356.059 568.854 356.042 568.854 356.022 568.854C355.991 568.858 355.968 568.885 355.971 568.915C355.975 568.945 356.002 568.969 356.032 568.966C356.045 568.966 356.066 568.966 356.082 568.962Z" fill="#F07162"/>
<path d="M353.749 566.682C353.776 566.675 353.799 566.655 353.813 566.625C353.816 566.618 354.086 565.914 354.729 565.682C354.776 565.665 354.8 565.615 354.783 565.568C354.766 565.52 354.715 565.497 354.668 565.514C353.944 565.773 353.655 566.531 353.645 566.561C353.628 566.608 353.651 566.659 353.698 566.675C353.712 566.686 353.732 566.686 353.749 566.682Z" fill="#E2F2F1"/>
<path d="M356.069 565.079C356.665 564.739 357.375 564.998 357.382 564.998C357.399 565.005 357.419 565.005 357.436 565.002C357.463 564.995 357.487 564.975 357.5 564.945C357.517 564.897 357.493 564.847 357.446 564.83C357.412 564.817 356.651 564.54 355.981 564.921C355.938 564.945 355.924 565.002 355.948 565.046C355.971 565.089 356.025 565.103 356.069 565.079Z" fill="#E2F2F1"/>
<path d="M357.608 566.878C358.255 566.622 358.571 565.891 358.315 565.245C358.059 564.598 357.329 564.282 356.682 564.537C356.036 564.793 355.719 565.524 355.975 566.171C356.231 566.814 356.965 567.134 357.608 566.878ZM356.756 564.723C357.298 564.507 357.914 564.777 358.13 565.319C358.345 565.861 358.076 566.477 357.534 566.692C356.992 566.908 356.376 566.639 356.16 566.096C355.948 565.554 356.214 564.938 356.756 564.723Z" fill="#F75553"/>
<path d="M354.641 568.05C355.288 567.794 355.604 567.063 355.348 566.416C355.092 565.77 354.362 565.453 353.715 565.709C353.069 565.965 352.752 566.696 353.008 567.342C353.264 567.989 353.995 568.305 354.641 568.05ZM353.789 565.895C354.331 565.679 354.948 565.948 355.163 566.491C355.379 567.033 355.109 567.649 354.567 567.864C354.025 568.08 353.409 567.81 353.193 567.268C352.978 566.726 353.247 566.11 353.789 565.895Z" fill="#F75553"/>
<path d="M361.423 561.833C362.864 561.264 363.571 559.635 362.999 558.193C362.43 556.752 360.8 556.045 359.359 556.614C357.918 557.183 357.211 558.813 357.783 560.254C358.352 561.695 359.982 562.403 361.423 561.833Z" fill="white"/>
<path d="M355.985 655.227L355.83 662.971L362.625 662.944L362.753 656.011L355.985 655.227Z" fill="#F59F73"/>
<path d="M362.824 665.142C362.925 665.139 363.009 665.052 363.009 664.94L363.012 663.971C363.012 663.812 362.894 663.684 362.746 663.688L356.817 663.802L354.426 661.018L350.018 663.934L349.072 663.95C348.745 663.957 348.446 664.2 348.382 664.546C348.298 665.014 348.624 665.415 349.038 665.408L362.824 665.142Z" fill="#F59247"/>
<path d="M362.706 661.065C362.706 661.065 361.713 659.631 360.191 660.402C360.191 660.402 357.884 662.21 355.867 660.112L350.823 662.621C350.823 662.621 349.439 663.146 349.065 663.954L362.696 663.695L362.706 661.065Z" fill="#F5C786"/>
<path d="M362.655 661.065L362.645 663.682H362.743L362.756 661.062L362.655 661.065Z" fill="black"/>
<path d="M360.217 660.445L360.16 660.358C359.025 661.22 357.84 661.062 357.827 661.062L357.81 661.169C357.813 661.169 357.931 661.186 358.123 661.183C358.564 661.173 359.406 661.062 360.217 660.445Z" fill="black"/>
<path d="M362.059 662.658L361.416 663.136L361.47 663.227L362.117 662.745L362.059 662.658Z" fill="black"/>
<path d="M361.598 662.533L360.955 663.015L361.009 663.102L361.655 662.621L361.598 662.533Z" fill="black"/>
<path d="M363.059 664.776L363.063 664.048C363.063 663.816 362.891 663.631 362.675 663.634L349.045 663.894C348.644 663.9 348.318 664.261 348.318 664.692C348.318 664.921 348.409 665.139 348.57 665.284L348.638 665.2C348.496 665.075 348.419 664.887 348.419 664.688C348.422 664.318 348.702 664.008 349.045 664.001L362.675 663.742C362.834 663.739 362.962 663.877 362.962 664.048L362.958 664.776H363.059Z" fill="black"/>
<path d="M350.362 662.89C351.375 662.406 355.84 660.183 355.884 660.16L355.843 660.062C355.8 660.086 351.338 662.305 350.321 662.789C349.287 663.284 349.011 663.901 348.998 663.928L349.089 663.971C349.095 663.968 349.368 663.369 350.362 662.89Z" fill="black"/>
<path d="M381.017 612.621L368.117 608.395C368.117 608.395 353.342 621.611 352.702 624.123C352.062 626.639 355.062 656.523 355.062 656.523C357.079 656.91 363.608 656.523 363.608 656.523C363.608 656.523 361.177 632.312 361.635 631.053C362.093 629.8 381.017 612.621 381.017 612.621Z" fill="#F35A73"/>
<path d="M361.241 666.843C361.682 666.843 362.039 666.466 362.039 666.001C362.039 665.537 361.682 665.156 361.241 665.156H353.5C353.059 665.156 352.702 665.533 352.702 666.001C352.702 666.466 353.059 666.843 353.5 666.843H361.241Z" fill="#C61647"/>
<path d="M416.137 657.075C416.137 645.471 407.19 636.033 396.193 636.033C385.195 636.033 376.249 645.471 376.249 657.075C376.249 668.678 385.195 678.117 396.193 678.117C407.19 678.12 416.137 668.678 416.137 657.075ZM378.165 657.075C378.165 646.586 386.253 638.054 396.193 638.054C406.133 638.054 414.221 646.586 414.221 657.075C414.221 667.564 406.133 676.096 396.193 676.096C386.253 676.096 378.165 667.564 378.165 657.075Z" fill="white"/>
<path d="M335.32 601.779L337.101 602.937L342.452 603.193L343.004 596.674C343.004 596.674 337.728 598.051 337.138 598.118C336.553 598.182 332.69 598.381 331.761 599.149C330.832 599.916 331.054 600.947 330.96 601.96C330.936 602.213 331.293 603.785 331.791 603.843C332.29 603.896 335.32 601.779 335.32 601.779Z" fill="#EA805C"/>
<path d="M420.282 656.947C420.282 643.081 409.591 631.801 396.452 631.801C383.31 631.801 372.619 643.081 372.619 656.947C372.619 670.813 383.31 682.093 396.452 682.093C409.591 682.093 420.282 670.813 420.282 656.947ZM374.905 656.947C374.905 644.414 384.569 634.215 396.449 634.215C408.328 634.215 417.992 644.411 417.992 656.947C417.992 669.48 408.328 679.679 396.449 679.679C384.569 679.679 374.905 669.483 374.905 656.947Z" fill="#203749"/>
<path d="M420.416 656.947C420.416 643.003 409.665 631.659 396.452 631.659C383.236 631.659 372.488 643.003 372.488 656.947C372.488 670.891 383.239 682.235 396.452 682.235C409.665 682.235 420.416 670.891 420.416 656.947ZM372.754 656.947C372.754 643.158 383.384 631.942 396.452 631.942C409.517 631.942 420.15 643.158 420.15 656.947C420.15 670.736 409.52 681.952 396.452 681.952C383.384 681.952 372.754 670.736 372.754 656.947Z" fill="black"/>
<path d="M418.127 656.947C418.127 644.333 408.402 634.073 396.448 634.073V634.356C408.254 634.356 417.857 644.488 417.857 656.943C417.857 669.399 408.254 679.531 396.448 679.531V679.813C408.402 679.82 418.127 669.56 418.127 656.947Z" fill="black"/>
<path d="M322.104 678.12C333.101 678.12 342.048 668.682 342.048 657.078C342.048 645.475 333.101 636.037 322.104 636.037C311.107 636.037 302.16 645.475 302.16 657.078C302.16 668.678 311.107 678.12 322.104 678.12ZM322.104 638.054C332.044 638.054 340.132 646.586 340.132 657.075C340.132 667.564 332.044 676.096 322.104 676.096C312.164 676.096 304.076 667.564 304.076 657.075C304.076 646.586 312.164 638.054 322.104 638.054Z" fill="white"/>
<path d="M322.36 682.093C335.499 682.093 346.19 670.813 346.19 656.947C346.19 643.081 335.499 631.801 322.36 631.801C309.218 631.801 298.527 643.081 298.527 656.947C298.527 670.813 309.218 682.093 322.36 682.093ZM322.36 634.218C334.239 634.218 343.903 644.414 343.903 656.95C343.903 669.483 334.239 679.683 322.36 679.683C310.48 679.683 300.817 669.487 300.817 656.95C300.817 644.414 310.48 634.218 322.36 634.218Z" fill="#203749"/>
<path d="M344.038 656.947C344.038 644.333 334.313 634.073 322.36 634.073V634.356C334.165 634.356 343.769 644.488 343.769 656.943C343.769 669.399 334.165 679.531 322.36 679.531V679.813C334.313 679.82 344.038 669.56 344.038 656.947Z" fill="black"/>
<path d="M322.36 682.235C335.576 682.235 346.324 670.891 346.324 656.947C346.324 643.003 335.573 631.659 322.36 631.659C309.144 631.659 298.392 643.003 298.392 656.947C298.392 670.891 309.144 682.235 322.36 682.235ZM322.36 631.945C335.425 631.945 346.058 643.162 346.058 656.947C346.058 670.736 335.428 681.952 322.36 681.952C309.292 681.952 298.661 670.736 298.661 656.947C298.661 643.162 309.292 631.945 322.36 631.945Z" fill="black"/>
<path d="M327.636 657.372C327.636 654.301 325.269 651.802 322.356 651.802C319.447 651.802 317.077 654.301 317.077 657.372C317.077 660.442 319.444 662.941 322.356 662.941C325.269 662.941 327.636 660.442 327.636 657.372ZM318.164 657.372C318.164 654.93 320.047 652.944 322.36 652.944C324.673 652.944 326.555 654.93 326.555 657.372C326.555 659.813 324.673 661.799 322.36 661.799C320.047 661.799 318.164 659.813 318.164 657.372Z" fill="#C61647"/>
<path d="M374.292 632.784C374.562 632.784 374.821 632.616 374.932 632.336L379.05 622.093C379.202 621.719 379.037 621.288 378.68 621.13C378.326 620.972 377.919 621.147 377.767 621.521L373.649 631.764C373.498 632.137 373.663 632.568 374.016 632.727C374.111 632.767 374.202 632.784 374.292 632.784Z" fill="#FEBAC7"/>
<path d="M376.636 630.07C375.922 629.231 374.949 628.669 373.895 628.48L332.913 616.13C332.108 615.988 331.32 616.372 330.899 617.109C330.482 617.847 330.532 618.763 331.03 619.443L362.366 657.87C363.258 659.085 364.659 659.812 366.117 659.812H396.533C397.502 659.812 398.348 659.233 398.745 658.297C399.139 657.364 398.981 656.31 398.334 655.549L376.636 630.07ZM366.12 657.034C365.47 657.034 364.847 656.711 364.45 656.169L334.152 619.16L373.464 631.215C373.932 631.299 374.366 631.548 374.686 631.922L396.075 657.034H366.12Z" fill="#FEBAC7"/>
<path d="M373.7 629.841L363.332 657.917L365.78 658.927L376.148 630.848L373.7 629.841Z" fill="#FEBAC7"/>
<path d="M322.393 658.994C323.117 659.011 323.72 658.402 323.734 657.637L335.273 603.216C335.286 602.452 334.711 601.816 333.987 601.802C333.263 601.785 332.66 602.395 332.647 603.159L321.11 657.58C321.097 658.169 321.437 658.681 321.925 658.893C322.07 658.954 322.228 658.991 322.393 658.994Z" fill="#FEBAC7"/>
<path d="M384.256 621.538C385.081 621.238 385.236 620.08 384.525 619.544L384.007 619.154C383.424 618.716 382.727 618.477 382.01 618.477H369.74C369.74 618.477 373.1 622.43 378.131 622.508C380.821 622.551 382.902 622.029 384.256 621.538Z" fill="#C61647"/>
<path d="M376.515 630.171L397.233 654.496L397.462 654.277L376.75 629.959C376.72 629.915 375.784 628.673 374.05 628.343L366.002 625.928L365.918 626.241L373.982 628.659C375.609 628.972 376.508 630.157 376.515 630.171Z" fill="black"/>
<path d="M386.882 646.492L387.111 646.273L375.377 632.491L370.053 646.906L370.339 647.027L375.481 633.104L386.882 646.492Z" fill="black"/>
<path d="M369.504 641.65L373.423 631.033L360.332 627.019L360.248 627.332L373.013 631.248L369.218 641.532L369.504 641.65Z" fill="black"/>
<path d="M334.152 608.395L332.276 616.2L345.668 620.237L345.752 619.921L332.664 615.978L334.445 608.489L334.152 608.395Z" fill="black"/>
<path d="M332.3 604.436L320.959 657.543L321.259 657.617L332.6 604.506L332.3 604.436Z" fill="black"/>
<path d="M327.892 637.296L323.636 657.364L323.936 657.435L328.192 637.367L327.892 637.296Z" fill="black"/>
<path d="M393.92 656.193L393.785 656.486L397.893 658.57L398.024 658.274L393.92 656.193Z" fill="black"/>
<path d="M392.341 657.223L392.209 657.519L396.314 659.6L396.449 659.307L392.341 657.223Z" fill="black"/>
<path d="M400.149 656.947C400.149 654.533 398.294 652.58 396.007 652.58C393.721 652.58 391.866 654.536 391.866 656.947C391.866 659.358 393.718 661.314 396.007 661.314C398.297 661.317 400.149 659.361 400.149 656.947Z" fill="#C61647"/>
<path d="M398.876 656.947C398.876 655.277 397.593 653.923 396.011 653.923C394.428 653.923 393.145 655.277 393.145 656.947C393.145 658.617 394.428 659.971 396.011 659.971C397.593 659.971 398.876 658.617 398.876 656.947Z" fill="white"/>
<path d="M366.285 659.722C366.285 658.426 365.288 657.372 364.059 657.372C362.83 657.372 361.834 658.422 361.834 659.722C361.834 661.018 362.83 662.072 364.059 662.072C365.288 662.069 366.285 661.018 366.285 659.722Z" fill="#4A263E"/>
<path d="M396.25 661.782C398.977 661.217 400.6 659.412 400.6 656.95C400.6 654.28 398.543 652.108 396.011 652.108H364.127C360.147 652.108 356.907 655.526 356.907 659.725C356.907 663.924 360.147 667.342 364.127 667.342C364.901 667.338 393.044 662.348 396.25 661.782ZM357.527 659.722C357.527 655.883 360.487 652.758 364.127 652.758H396.011C398.2 652.758 399.981 654.637 399.981 656.947C399.981 659.105 398.58 660.634 396.139 661.139C394.216 661.483 364.996 666.658 364.123 666.685C360.487 666.685 357.527 663.56 357.527 659.722Z" fill="#4A263E"/>
<path d="M371.212 659.722C371.212 655.56 368.003 652.172 364.056 652.172C360.11 652.172 356.901 655.56 356.901 659.722C356.901 663.884 360.11 667.271 364.056 667.271C368.003 667.271 371.212 663.884 371.212 659.722ZM357.675 659.722C357.675 656.008 360.537 652.987 364.056 652.987C367.575 652.987 370.437 656.008 370.437 659.722C370.437 663.436 367.575 666.456 364.056 666.456C360.537 666.456 357.675 663.436 357.675 659.722Z" fill="#4A263E"/>
<path d="M358.827 655.028L358.362 655.678L369.228 664.348L369.693 663.698L358.827 655.028Z" fill="#4A263E"/>
<path d="M364.321 652.493L363.546 652.502L363.722 666.876L364.496 666.866L364.321 652.493Z" fill="#4A263E"/>
<path d="M370.824 659.058L357.207 659.499L357.231 660.314L370.848 659.876L370.824 659.058Z" fill="#4A263E"/>
<path d="M368.137 652.172L356.685 665.631L357.291 666.197L368.743 652.738L368.137 652.172Z" fill="#4A263E"/>
<path d="M371.639 641.023L364.854 641.619L366.107 649.253L372.774 647.852L371.639 641.023Z" fill="#F59F73"/>
<path d="M359.887 653.014L373.37 649.97C373.467 649.947 373.535 649.842 373.514 649.735L373.343 648.782C373.316 648.623 373.174 648.522 373.03 648.556L367.231 649.866L364.379 647.617L360.581 651.368L359.655 651.577C359.335 651.647 359.086 651.95 359.086 652.304C359.086 652.779 359.48 653.105 359.887 653.014Z" fill="#F59247"/>
<path d="M369.922 645.849C369.922 645.849 367.986 648.088 365.625 646.442L361.13 649.923C361.13 649.923 359.871 650.718 359.645 651.587L372.976 648.576L372.508 645.994C372.511 645.99 371.275 644.785 369.922 645.849Z" fill="#F5C786"/>
<path d="M372.558 645.98L372.461 646.004L372.925 648.573L373.023 648.553L372.558 645.98Z" fill="black"/>
<path d="M369.955 645.886L369.885 645.812C368.928 646.886 367.736 646.973 367.723 646.973L367.726 647.081C367.73 647.081 367.847 647.071 368.036 647.03C368.467 646.933 369.272 646.657 369.955 645.886Z" fill="black"/>
<path d="M372.164 647.684L371.619 648.287L371.693 648.364L372.238 647.762L372.164 647.684Z" fill="black"/>
<path d="M371.693 647.657L371.147 648.26L371.218 648.334L371.763 647.731L371.693 647.657Z" fill="black"/>
<path d="M359.638 651.64L372.969 648.63C373.124 648.597 373.275 648.704 373.306 648.873L373.434 649.586L373.531 649.563L373.403 648.849C373.363 648.623 373.158 648.475 372.949 648.522L359.618 651.533C359.227 651.62 358.972 652.038 359.049 652.462C359.089 652.688 359.221 652.883 359.406 652.994L359.456 652.9C359.298 652.806 359.184 652.637 359.15 652.442C359.083 652.075 359.302 651.715 359.638 651.64Z" fill="black"/>
<path d="M360.726 650.28C361.635 649.596 365.612 646.515 365.652 646.485L365.595 646.397C365.554 646.428 361.578 649.509 360.672 650.192C359.749 650.886 359.588 651.549 359.581 651.576L359.679 651.603C359.679 651.593 359.84 650.947 360.726 650.28Z" fill="black"/>
<path d="M370.036 584.141L363.154 578.78L355.109 593.71L337.125 598.122L333.953 603.718C333.953 603.718 354.927 603.789 358.244 601.704C361.561 599.617 370.036 584.141 370.036 584.141Z" fill="#EA805C"/>
<path d="M360.403 575.299C360.089 576.228 358.847 584.73 358.847 584.73L360.904 585.727L360.736 574.679C360.736 574.679 360.45 575.161 360.403 575.299Z" fill="#22818E"/>
<path d="M367.322 612.463C369.134 613.143 387.313 606.587 386.751 603.752C386.283 601.401 374.319 583.548 368.349 575.444C367.12 573.773 363.777 570.794 362.581 570.908C358.611 571.292 353.055 577.009 356.864 587.121C358.537 591.569 365.507 611.779 367.322 612.463Z" fill="#45AFC9"/>
<path d="M361.547 599.283L361.261 599.401L364.352 607.388L364.639 607.27L361.547 599.283Z" fill="black"/>
<path d="M367.289 612.301L367.349 612.621C369.269 612.251 371.003 611.857 372.568 611.449C384.158 608.429 386.485 604.664 386.842 603.93C386.852 603.927 386.859 603.924 386.862 603.92C387.027 603.816 387.041 603.806 385.424 600.708C383.603 597.213 373.74 582.771 370.299 577.872C367.036 573.225 364.918 571.965 364.827 571.912L364.682 572.194C364.703 572.208 366.837 573.484 370.05 578.06C373.488 582.956 383.34 597.378 385.152 600.86C386.195 602.86 386.502 603.506 386.593 603.715C386.414 604.112 383.832 609.102 367.289 612.301Z" fill="black"/>
<path d="M359.628 572.403L359.449 572.133C359.416 572.157 356.237 574.463 355.5 579.336C355.496 579.393 355.22 583.716 357.948 590.828L358.234 590.71C355.533 583.679 355.803 579.423 355.806 579.38C356.523 574.655 359.594 572.426 359.628 572.403Z" fill="black"/>
<path d="M381.168 600.549L380.606 604.055L380.912 604.112L381.471 600.61L381.168 600.549Z" fill="black"/>
<path d="M382.172 602.56L381.613 606.065L381.916 606.125L382.478 602.62L382.172 602.56Z" fill="black"/>
<path d="M359.079 602.776C362.5 600.701 367.454 584.66 367.454 584.66L357.561 579.818L354.166 594.755L336.963 599.176L333.97 604.695C333.967 604.698 355.658 604.85 359.079 602.776Z" fill="#F5956E"/>
<path d="M335.374 602.765L337.219 603.934L342.755 604.21L343.3 597.691C343.3 597.691 337.849 599.048 337.243 599.112C336.637 599.176 332.643 599.358 331.687 600.122C330.731 600.886 330.96 601.917 330.869 602.93C330.845 603.183 331.219 604.759 331.734 604.816C332.246 604.873 335.374 602.765 335.374 602.765Z" fill="#F5956E"/>
<path d="M335.317 604.271C335.421 603.25 334.721 602.331 333.751 602.223C332.781 602.112 331.913 602.853 331.808 603.873C331.704 604.894 332.404 605.813 333.374 605.921C334.344 606.032 335.212 605.294 335.317 604.271Z" fill="#C61647"/>
<path d="M357.308 665.988C357.291 665.752 357.093 665.574 356.867 665.594C356.641 665.614 356.473 665.819 356.49 666.055C356.507 666.291 356.705 666.469 356.931 666.449C357.157 666.432 357.325 666.227 357.308 665.988Z" fill="#4A263E"/>
<path d="M363.608 653.351L371.255 652.078C371.689 652.004 371.989 651.573 371.918 651.115C371.851 650.654 371.44 650.341 371.002 650.415L363.356 651.687C362.921 651.762 362.622 652.193 362.692 652.65C362.763 653.108 363.174 653.422 363.608 653.351Z" fill="#C61647"/>
<path d="M369.386 584.195L357.086 578.511C356.931 578.407 354.658 589.262 354.658 589.262C354.658 589.262 361.598 593.347 364.642 593.916C367.679 594.482 369.386 584.195 369.386 584.195Z" fill="#45AFC9"/>
<path d="M382.31 618.635C388.044 613.271 385.192 605.87 385.192 605.87L365.794 610.019C365.794 610.019 355.15 613.783 354.557 615.234C353.103 618.787 364.891 645.287 364.891 645.287C367.925 644.984 372.589 642.876 372.589 642.876C369.949 633.33 367.305 622.514 367.305 622.514C367.305 622.514 377.114 623.494 382.31 618.635Z" fill="#F57583"/>
<path d="M359.416 574.471L359.16 574.282C359.14 574.309 357.12 577.094 356.056 582C354.998 586.876 354.503 589.206 354.5 589.229L354.476 589.337L354.571 589.394C354.628 589.431 360.45 593.102 364.396 594.024L364.527 594.054L364.578 593.933C364.598 593.886 366.544 589.253 367.033 586.68L366.719 586.62C366.282 588.923 364.649 592.93 364.335 593.684C360.716 592.792 355.584 589.654 354.83 589.185C354.938 588.674 355.433 586.354 356.362 582.067C357.416 577.232 359.396 574.498 359.416 574.471Z" fill="#1D1D1B"/>
<path d="M255.942 624.185L256.512 621.9L257.237 618.979H222.505L222.054 620.698L221.106 624.318H255.908L255.942 624.185Z" fill="#F75553"/>
<g opacity="0.5">
<g opacity="0.5">
<g opacity="0.5">
<path opacity="0.5" d="M228.402 624.318H238.855C239.297 624.203 239.742 624.087 240.184 623.969C242.068 623.475 244.134 622.992 245.905 623.807C246.237 623.96 246.578 624.159 246.922 624.315H248.687C248.924 624.151 249.129 623.931 249.36 623.755C250.484 622.908 252.071 623.154 253.417 623.553C254.24 623.798 255.093 624.087 255.939 624.183L256.509 621.897C254.995 620.802 252.799 620.681 251.207 621.683C250.886 621.886 250.588 622.128 250.242 622.284C249.69 622.533 249.063 622.544 248.456 622.541C247.688 622.536 246.91 622.515 246.176 622.284C245.275 622.001 244.469 621.409 243.533 621.273C241.975 621.048 240.542 622.111 239 622.403C236.911 622.799 234.839 621.761 232.996 620.698C231.88 620.057 230.722 619.378 229.508 618.976H222.502L222.051 620.695C222.565 621.016 223.178 621.235 223.761 621.371C225.053 621.672 226.501 621.836 227.399 622.813C227.812 623.258 228.058 623.824 228.402 624.318Z" fill="#F75553"/>
</g>
</g>
</g>
<path d="M257.283 618.99L257.194 618.967L255.873 624.272H221.106V624.364H255.945L257.283 618.99Z" fill="black"/>
<path d="M256.309 611.891C256.396 611.767 256.367 611.596 256.243 611.507L254.925 610.319C254.845 610.261 254.648 610.293 254.498 610.36C252.88 610.51 252.631 610.547 252.198 610.628L252.548 612.33C252.649 612.821 252.66 613.327 252.579 613.821L252.559 613.945C252.533 614.101 252.646 614.249 252.805 614.263C252.952 614.278 253.079 614.168 253.105 614.023L253.25 613.122C253.255 613.093 253.276 613.073 253.305 613.067C253.345 613.061 253.385 613.093 253.383 613.133L253.345 614.48C253.339 614.636 253.461 614.74 253.614 614.714C253.767 614.688 253.894 614.54 253.9 614.384L253.937 613.009C253.937 612.977 253.96 612.951 253.992 612.946L254.015 612.943C254.053 612.937 254.088 612.96 254.093 612.998L254.35 614.5C254.376 614.644 254.507 614.751 254.651 614.737C254.81 614.72 254.92 614.572 254.894 614.416L254.637 612.905C254.631 612.868 254.654 612.833 254.691 612.827L254.761 612.816C254.795 612.81 254.827 612.83 254.836 612.862L255.258 614.223C255.301 614.364 255.446 614.454 255.587 614.419C255.743 614.382 255.833 614.22 255.786 614.069C255.786 614.069 255.258 611.957 255.2 611.622L255.925 611.955C256.049 612.044 256.223 612.015 256.309 611.891Z" fill="#FE9F73"/>
<path d="M254.839 601.458C254.839 601.458 251.138 599.609 250.629 600.58C250.121 601.55 252.282 611.024 252.282 611.024L255.102 610.475L254.839 601.458Z" fill="#FE9F73"/>
<path d="M248.234 572.626C248.205 572.626 248.179 572.608 248.17 572.582L247.847 571.73C247.795 571.591 247.647 571.513 247.506 571.554C247.353 571.6 247.272 571.768 247.33 571.915L247.373 572.034C247.549 572.502 247.642 572.999 247.642 573.501L247.639 575.238C248.078 575.229 248.329 575.215 249.944 575.038C250.106 575.07 250.303 575.064 250.372 574.992L251.426 573.565C251.531 573.455 251.525 573.279 251.415 573.175C251.302 573.071 251.129 573.077 251.025 573.189L250.381 573.66C250.369 573.319 250.461 571.144 250.461 571.144C250.476 570.985 250.357 570.846 250.196 570.84C250.048 570.834 249.927 570.953 249.913 571.097L249.774 572.516C249.771 572.551 249.742 572.577 249.71 572.577L249.638 572.58C249.6 572.582 249.569 572.551 249.569 572.516L249.517 570.982C249.511 570.823 249.375 570.702 249.213 570.716C249.066 570.73 248.962 570.863 248.965 571.008L249.014 572.53C249.014 572.568 248.985 572.6 248.95 572.6H248.927C248.895 572.6 248.867 572.58 248.861 572.548L248.549 571.21C248.514 571.06 248.358 570.941 248.205 570.947C248.052 570.953 247.954 571.08 247.988 571.23L248.295 572.542C248.306 572.582 248.274 572.623 248.234 572.626Z" fill="#FE9F73"/>
<path d="M252.062 583.689L250.511 574.801L247.639 574.83C247.639 574.83 247.422 584.544 248.115 585.393C248.809 586.243 252.062 583.689 252.062 583.689Z" fill="#FE9F73"/>
<path d="M248.477 617.681L245.57 618.045L245.611 620.799L248.532 620.758L248.477 617.681Z" fill="#F9B59D"/>
<path d="M230.465 620.056L231.144 618.045L228.234 617.681L227.263 619.984L230.424 620.799L230.465 620.056Z" fill="#F9B59D"/>
<path d="M235.31 608.479C235.911 607.251 239.043 603.966 239.043 603.966L244.308 610.004L245.114 618.802C245.114 618.802 246.015 619.132 247.049 619.132C248.049 619.132 248.933 618.802 248.933 618.802C248.933 618.802 249.234 609.721 249.118 609.294C248.451 606.858 244.937 602.339 244.937 602.339C244.937 602.339 241.242 595.48 240.303 595.13C239.364 594.778 236.145 595.13 236.145 595.13C236.145 595.13 232.927 598.467 231.346 603.735C229.766 609.002 227.894 618.135 227.894 618.135C227.894 618.135 229.532 619.013 231.523 618.135C231.52 618.135 234.709 609.707 235.31 608.479Z" fill="#45AFC9"/>
<path d="M235.22 595.457C237.049 598.063 244.937 602.342 244.937 602.342C246.538 600.597 249.418 598.693 249.736 598.739C250.057 598.785 250.239 603.096 250.239 603.096C252.478 603.538 255.544 602.761 255.679 602.761C255.818 602.761 254.475 593.481 254.475 593.481L253.804 590.045L252.389 583.741C250.513 583.146 247.37 584.536 247.37 584.536L248.136 587.902C240.135 588.867 235.22 595.457 235.22 595.457Z" fill="#F5C786"/>
<path d="M254.475 593.483C254.475 593.483 254.429 591.591 253.805 590.048C253.805 590.048 253.293 590.845 253.513 591.963C253.729 593.082 254.475 593.483 254.475 593.483Z" fill="#FE9F73"/>
<path d="M250.248 603.041C250.216 603.038 250.187 603.061 250.184 603.09C250.181 603.119 250.201 603.151 250.233 603.154C250.834 603.226 251.415 603.255 251.961 603.255C254.085 603.255 255.677 602.824 255.694 602.819L255.737 602.807V602.764C255.726 601.536 254.723 595.035 254.714 594.968C254.709 594.937 254.68 594.916 254.651 594.919C254.619 594.925 254.599 594.954 254.602 594.986C254.61 595.049 255.587 601.394 255.622 602.72C255.281 602.807 252.943 603.362 250.248 603.041Z" fill="black"/>
<path d="M244.981 602.379C247.093 599.95 249.881 598.652 250.025 598.626C250.057 598.626 250.08 598.6 250.08 598.569C250.08 598.537 250.051 598.511 250.019 598.511C249.921 598.511 247.09 599.776 244.894 602.301C244.874 602.325 244.877 602.362 244.9 602.382C244.911 602.391 244.923 602.397 244.937 602.397C244.952 602.4 244.969 602.394 244.981 602.379Z" fill="black"/>
<path d="M252.36 583.793C252.386 583.807 252.42 583.799 252.438 583.773C252.455 583.744 252.443 583.712 252.417 583.694C252.365 583.666 251.132 582.998 247.35 584.486L247.303 584.503L247.315 584.553C247.324 584.587 248.188 587.936 248.153 588.421C248.15 588.453 248.173 588.479 248.205 588.482C248.208 588.482 248.208 588.482 248.208 588.482C248.237 588.482 248.263 588.459 248.266 588.43C248.3 587.953 247.549 585.009 247.436 584.573C251.117 583.134 252.348 583.787 252.36 583.793Z" fill="black"/>
<path d="M238.853 591.955C240.921 590.308 244.212 588.28 248.142 587.962C248.173 587.959 248.196 587.933 248.194 587.901C248.191 587.87 248.165 587.846 248.133 587.849C244.175 588.17 240.861 590.213 238.78 591.871C236.527 593.665 235.189 595.408 235.177 595.425L235.151 595.46L235.177 595.494C235.189 595.509 236.278 596.991 238.766 598.621C238.775 598.626 238.786 598.629 238.798 598.629C238.815 598.629 238.835 598.621 238.847 598.603C238.864 598.577 238.855 598.543 238.829 598.525C236.57 597.043 235.475 595.688 235.296 595.46C235.492 595.205 236.784 593.602 238.853 591.955Z" fill="black"/>
<path d="M238.89 592.767C239.121 592.487 239.578 592.079 239.581 592.076C239.604 592.056 239.607 592.018 239.586 591.995C239.566 591.972 239.529 591.969 239.505 591.99C239.485 592.007 239.04 592.406 238.803 592.692C238.783 592.715 238.786 592.752 238.812 592.773C238.824 592.781 238.835 592.787 238.85 592.787C238.864 592.787 238.881 592.778 238.89 592.767Z" fill="black"/>
<path d="M239.008 593.151C239.24 592.871 239.696 592.463 239.699 592.461C239.722 592.44 239.725 592.403 239.705 592.38C239.684 592.357 239.647 592.354 239.624 592.374C239.604 592.391 239.159 592.79 238.922 593.076C238.901 593.099 238.904 593.137 238.93 593.157C238.942 593.166 238.953 593.171 238.968 593.171C238.98 593.171 238.997 593.166 239.008 593.151Z" fill="black"/>
<path d="M227.867 618.187C228.514 618.493 229.139 618.597 229.685 618.597C230.768 618.597 231.537 618.193 231.548 618.187L231.566 618.178L234.732 609.993C234.958 609.493 235.559 608.161 235.631 608.051C236.72 606.633 238.896 604.214 239.075 604.015L240.41 603.683C240.441 603.674 240.459 603.645 240.45 603.613C240.441 603.584 240.413 603.564 240.381 603.573L239.011 603.914L239 603.925C238.977 603.951 236.671 606.505 235.535 607.985C235.443 608.129 234.657 609.874 234.625 609.949L231.473 618.097C231.285 618.19 229.688 618.926 227.914 618.086C227.885 618.071 227.85 618.083 227.838 618.112C227.827 618.141 227.838 618.175 227.867 618.187Z" fill="black"/>
<path d="M245.059 618.808L245.062 618.843L245.093 618.854C245.105 618.86 245.876 619.146 247.012 619.146C247.584 619.146 248.245 619.074 248.95 618.854C248.979 618.846 248.997 618.814 248.988 618.782C248.979 618.75 248.948 618.736 248.916 618.745C247.006 619.334 245.411 618.84 245.166 618.756C245.082 617.959 244.368 610.074 244.362 609.993L244.359 609.976L239.084 603.923C239.063 603.9 239.026 603.897 239.003 603.917C238.98 603.937 238.977 603.975 238.997 603.998L244.247 610.022C244.29 610.464 244.998 618.268 245.059 618.808Z" fill="black"/>
<path d="M230.468 620.137C230.468 620.137 230.017 619.53 229.332 619.84C229.332 619.84 228.295 620.573 227.382 619.684L225.114 620.689C225.114 620.689 224.282 620.966 224.282 621.397H230.465V620.137H230.468Z" fill="#FEC786"/>
<path d="M230.491 620.137H230.445V621.209H230.491V620.137Z" fill="black"/>
<path d="M229.321 619.822C228.812 620.172 228.275 620.097 228.272 620.097L228.266 620.143C228.269 620.143 228.321 620.152 228.408 620.152C228.607 620.152 228.983 620.114 229.35 619.863L229.321 619.822Z" fill="black"/>
<path d="M230.192 620.798L229.902 620.993L229.928 621.032L230.218 620.836L230.192 620.798Z" fill="black"/>
<path d="M229.971 620.741L229.682 620.935L229.708 620.972L229.997 620.779L229.971 620.741Z" fill="black"/>
<path d="M230.488 621.839C230.555 621.839 230.609 621.784 230.609 621.718V621.354C230.609 621.287 230.555 621.232 230.488 621.232H224.319C224.152 621.232 224.016 621.368 224.016 621.536C224.016 621.703 224.152 621.839 224.319 621.839H230.488Z" fill="#683D46"/>
<path d="M224.909 620.799C225.365 620.605 227.371 619.715 227.391 619.706L227.373 619.666C227.353 619.675 225.348 620.565 224.892 620.758C224.426 620.955 224.302 621.212 224.299 621.22L224.34 621.241C224.34 621.238 224.464 620.989 224.909 620.799Z" fill="black"/>
<path d="M226.593 620.059C226.486 620.105 226.377 620.154 226.264 620.204C226.475 620.533 226.732 620.937 226.917 621.223H227.339C227.168 620.955 226.85 620.458 226.593 620.059Z" fill="#D7E4F7"/>
<path d="M227.122 619.825C227.03 619.866 226.917 619.915 226.793 619.97C227.015 620.316 227.362 620.86 227.593 621.221H228.015C227.804 620.891 227.385 620.238 227.122 619.825Z" fill="#D7E4F7"/>
<path d="M230.635 621.686V621.382C230.635 621.287 230.557 621.206 230.459 621.206H224.319C224.14 621.206 223.993 621.353 223.993 621.533C223.993 621.628 224.033 621.72 224.108 621.781L224.137 621.746C224.074 621.694 224.039 621.613 224.039 621.533C224.039 621.377 224.166 621.252 224.319 621.252H230.459C230.531 621.252 230.589 621.31 230.589 621.382V621.686H230.635Z" fill="black"/>
<path d="M250.727 620.692L248.459 619.687C247.546 620.576 246.512 619.843 246.512 619.843C245.827 619.533 245.376 620.14 245.376 620.14V621.403H251.56C251.56 620.969 250.727 620.692 250.727 620.692Z" fill="#FEC786"/>
<path d="M245.399 620.137H245.353V621.209H245.399V620.137Z" fill="black"/>
<path d="M247.575 620.097C247.569 620.097 247.035 620.172 246.526 619.822L246.5 619.86C246.864 620.111 247.243 620.149 247.442 620.149C247.529 620.149 247.581 620.14 247.584 620.14L247.575 620.097Z" fill="black"/>
<path d="M245.666 620.788L245.64 620.826L245.93 621.022L245.956 620.984L245.666 620.788Z" fill="black"/>
<path d="M245.873 620.741L245.847 620.779L246.136 620.972L246.162 620.935L245.873 620.741Z" fill="black"/>
<path d="M251.525 621.839C251.692 621.839 251.828 621.703 251.828 621.536C251.828 621.368 251.692 621.232 251.525 621.232H245.353C245.287 621.232 245.232 621.287 245.232 621.354V621.718C245.232 621.784 245.287 621.839 245.353 621.839H251.525Z" fill="#683D46"/>
<path d="M251.504 621.241L251.545 621.22C251.539 621.209 251.415 620.955 250.953 620.755C250.496 620.562 248.491 619.672 248.471 619.663L248.453 619.704C248.474 619.712 250.482 620.602 250.935 620.799C251.38 620.989 251.504 621.238 251.504 621.241Z" fill="black"/>
<path d="M249.251 620.059C248.997 620.458 248.679 620.955 248.506 621.223H248.927C249.109 620.937 249.37 620.536 249.58 620.204C249.465 620.154 249.355 620.105 249.251 620.059Z" fill="#D7E4F7"/>
<path d="M248.722 619.825C248.459 620.235 248.04 620.891 247.826 621.224H248.248C248.479 620.862 248.826 620.319 249.049 619.973C248.927 619.918 248.815 619.869 248.722 619.825Z" fill="#D7E4F7"/>
<path d="M251.736 621.784C251.808 621.723 251.851 621.631 251.851 621.535C251.851 621.356 251.704 621.209 251.525 621.209H245.385C245.29 621.209 245.209 621.287 245.209 621.385V621.689H245.255V621.385C245.255 621.313 245.313 621.255 245.385 621.255H251.525C251.681 621.255 251.805 621.382 251.805 621.535C251.805 621.619 251.77 621.697 251.707 621.749L251.736 621.784Z" fill="black"/>
<path d="M258.887 592.12C259.47 591.958 259.892 591.444 259.927 590.843C259.987 589.8 259.233 588.855 259.233 588.855C259.233 588.855 258.557 588.633 258.479 588.612C258.401 588.595 258.751 588.997 258.751 588.997L258.317 592.279L258.887 592.12Z" fill="#FE9F73"/>
<path d="M254.275 592.785L255.382 592.325C255.7 593.048 256.546 592.77 256.546 592.77L258.95 592.1L259.017 588.766L256.061 589.485L255.313 589.722C255.313 589.722 253.715 589.936 253.411 590.098C253.108 590.259 252.594 590.904 252.834 591.762C252.909 592.033 253.021 592.259 253.14 592.441C253.385 592.816 253.862 592.955 254.275 592.785Z" fill="#FE9F73"/>
<path d="M257.653 591.227C257.67 591.236 257.693 591.227 257.702 591.207C257.939 590.658 257.297 590.305 257.292 590.302C257.274 590.294 257.251 590.299 257.243 590.317C257.237 590.325 257.237 590.334 257.24 590.346C257.243 590.354 257.248 590.363 257.257 590.369C257.28 590.38 257.844 590.692 257.636 591.181C257.627 591.195 257.636 591.218 257.653 591.227Z" fill="#E2F2F1"/>
<path d="M258.15 592.273C258.167 592.281 258.19 592.273 258.199 592.255C258.323 591.987 257.936 591.727 257.922 591.718C257.904 591.706 257.881 591.712 257.87 591.729C257.864 591.738 257.861 591.75 257.864 591.761C257.867 591.77 257.873 591.776 257.878 591.781C257.881 591.784 258.228 592.018 258.13 592.226C258.124 592.244 258.133 592.264 258.15 592.273Z" fill="#E2F2F1"/>
<path d="M257.295 591.108C257.353 591.091 257.387 591.03 257.373 590.973C257.355 590.912 257.295 590.877 257.237 590.895C257.176 590.912 257.142 590.973 257.159 591.033C257.176 591.088 257.237 591.123 257.295 591.108Z" fill="black"/>
<path d="M257.722 592.218C257.783 592.201 257.815 592.14 257.8 592.079C257.783 592.022 257.722 591.987 257.665 592.001C257.604 592.019 257.569 592.079 257.586 592.14C257.601 592.201 257.662 592.235 257.722 592.218Z" fill="black"/>
<path d="M259.017 588.818L259.271 588.841C259.271 588.841 259.06 587.919 258.202 587.91C257.344 587.902 257.032 588.413 256.798 588.485C256.564 588.56 254.92 588.844 255.353 589.933L258.078 589.499L259.017 588.818Z" fill="#F8FFFF"/>
<path d="M257.087 590.21C257.442 590.112 257.65 589.742 257.552 589.386C257.453 589.031 257.084 588.823 256.728 588.921C256.373 589.02 256.165 589.389 256.263 589.745C256.361 590.103 256.731 590.308 257.087 590.21Z" fill="#FE9F73"/>
<path d="M256.951 589.34C256.864 589.259 256.737 589.254 256.627 589.32C256.535 589.378 256.46 589.496 256.497 589.629V589.632C256.5 589.641 256.512 589.646 256.52 589.644C256.529 589.641 256.535 589.629 256.532 589.62V589.618C256.497 589.493 256.572 589.398 256.647 589.352C256.72 589.308 256.835 589.285 256.925 589.366C257.087 589.516 256.983 589.71 256.977 589.719L256.945 589.777L257.003 589.745C257.107 589.687 257.17 589.609 257.191 589.514C257.228 589.352 257.127 589.199 257.124 589.193C257.118 589.184 257.107 589.181 257.098 589.187C257.089 589.193 257.087 589.204 257.092 589.213C257.092 589.216 257.188 589.358 257.153 589.505C257.139 589.571 257.095 589.632 257.032 589.678C257.058 589.603 257.081 589.459 256.951 589.34Z" fill="#F07162"/>
<path d="M254.564 592.663L255.379 592.325C255.379 592.325 254.821 591.227 255.622 590.38C255.625 590.38 254.2 590.831 254.564 592.663Z" fill="#F07162"/>
<path d="M257.662 589.834C257.832 589.771 257.977 589.655 258.075 589.502L257.604 589.577L256.032 590.034C255.295 590.343 254.408 590.762 254.952 592.371C255.33 593.495 256.986 592.781 256.986 592.781C257.081 592.481 256.255 590.597 256.281 590.447C256.301 590.34 257.295 589.973 257.662 589.834Z" fill="#F8FFFF"/>
<path d="M257.757 591.684C257.766 591.681 257.771 591.669 257.766 591.66C257.763 591.652 257.751 591.646 257.742 591.652L256.931 592.001L256.711 591.675C256.705 591.666 256.694 591.663 256.685 591.669C256.679 591.675 256.676 591.684 256.676 591.689C256.676 591.692 256.679 591.692 256.679 591.695L256.916 592.048L257.757 591.684Z" fill="#F07162"/>
<path d="M256.35 589.54L255.102 589.75L255.185 590.187L256.399 589.849L256.35 589.54Z" fill="#FE9F73"/>
<path d="M258.037 589.514C258.78 588.933 259.34 589.005 259.34 589.005C259.355 588.283 258.101 588.54 258.101 588.54C258.101 588.54 257.295 590.092 258.037 589.514Z" fill="#F8FFFF"/>
<path d="M260.432 590.623C260.458 590.253 260.123 589.909 259.901 589.739C259.753 589.626 259.542 589.641 259.444 589.756C259.115 590.146 259.196 590.912 259.615 591.25C260.115 591.652 260.097 591.013 260.097 591.013C260.097 591.013 260.406 591.007 260.432 590.623Z" fill="#F8FFFF"/>
<path d="M256.387 591.293C256.396 591.285 256.393 591.267 256.385 591.256C256.373 591.247 256.359 591.25 256.347 591.259C256.341 591.264 256.335 591.273 256.333 591.279C256.041 591.672 256.327 592.018 256.33 592.021C256.338 592.033 256.356 592.033 256.367 592.024C256.379 592.016 256.379 591.998 256.37 591.987C256.359 591.975 256.107 591.669 256.376 591.308C256.376 591.308 256.382 591.299 256.387 591.293Z" fill="#F07162"/>
<path d="M418.418 522.828H415.691V635.459L409.638 645.454L408.2 689.924H428.632L427.198 645.454L421.141 635.459V522.828H418.418Z" fill="#F59247"/>
<path d="M418.414 517.304H409.105V520.18H418.414V517.304Z" fill="#F5C786"/>
<path d="M418.414 520.18H410.543V523.055H418.414V520.18Z" fill="#EC792A"/>
<path d="M418.418 491.113H407.593L410.543 517.304H418.418V491.113Z" fill="#F5E3C7"/>
<path d="M418.418 487.808H403.986V491.113H418.418V487.808Z" fill="#EC792A"/>
<path d="M418.418 484.502H410.621V487.808H418.418V484.502Z" fill="#F5C786"/>
<path d="M427.727 517.304H418.418V520.18H427.727V517.304Z" fill="#F5C786"/>
<path d="M426.289 520.18H418.418V523.055H426.289V520.18Z" fill="#EC792A"/>
<path d="M418.418 491.113V517.304H426.289L429.239 491.113H418.418Z" fill="#F5E3C7"/>
<path d="M432.85 487.808H418.418V491.113H432.85V487.808Z" fill="#EC792A"/>
<path d="M426.215 484.502H418.418V487.808H426.215V484.502Z" fill="#F5C786"/>
<path d="M428.623 642.904H408.316V646.065H428.623V642.904Z" fill="#EC792A"/>
<path d="M417.352 522.894V523.217H426.45V520.019H410.543V520.341H426.128V522.894H417.352Z" fill="black"/>
<path d="M420.984 523.056V635.505L425.516 642.987L425.789 642.822L421.302 635.418V523.056H420.984Z" fill="black"/>
<path d="M416.427 645.904V646.227H428.78V642.744H408.316V643.066H428.462V645.904H416.427Z" fill="black"/>
<path d="M427.321 646.067L427.003 646.078L428.473 689.931L428.791 689.92L427.321 646.067Z" fill="black"/>
<path d="M415.714 650.2L412.69 653.714L412.931 653.922L415.955 650.408L415.714 650.2Z" fill="black"/>
<path d="M415.945 653.37L412.921 656.884L413.166 657.094L416.19 653.581L415.945 653.37Z" fill="black"/>
<path d="M415.856 536.203H415.534V615.077H415.856V536.203Z" fill="black"/>
<path d="M427.727 517.143H409.105V517.465H427.727V517.143Z" fill="black"/>
<path d="M429.075 491.096L426.123 517.286L426.439 517.322L429.391 491.131L429.075 491.096Z" fill="black"/>
<path d="M403.986 490.952V491.274H433.011V487.646H417.162V487.969H432.689V490.952H403.986Z" fill="black"/>
<path d="M426.371 487.808V484.341H410.621V484.664H426.053V487.808H426.371Z" fill="black"/>
<path d="M408.338 496.27L408.022 496.306L409.951 513.555L410.267 513.52L408.338 496.27Z" fill="black"/>
<path d="M416.784 493.843L413.67 496.199L413.862 496.452L416.976 494.097L416.784 493.843Z" fill="black"/>
<path d="M416.784 496.198L413.67 498.554L413.862 498.807L416.976 496.452L416.784 496.198Z" fill="black"/>
</g>
<defs>
<clipPath id="clip0_313_117">
<rect width="480" height="743" fill="white"/>
</clipPath>
</defs>
</svg>
