<svg width="33" height="41" viewBox="0 0 33 41" fill="none" xmlns="http://www.w3.org/2000/svg">
<g clip-path="url(#clip0_1988_17574)">
<path d="M3.83458 5.89831C3.86867 6.80065 4.63842 7.50065 5.54092 7.50065H6.5C6.67681 7.50065 6.84638 7.57089 6.97141 7.69591C7.09643 7.82093 7.16667 7.9905 7.16667 8.16731V19.5883C7.16667 19.709 7.19942 19.8274 7.26143 19.9309C7.32345 20.0344 7.41239 20.1192 7.51878 20.1761C7.62518 20.2331 7.74503 20.26 7.86556 20.2542C7.98608 20.2484 8.10277 20.2099 8.20317 20.143L10.4271 18.6604C10.6461 18.5144 10.9034 18.4365 11.1667 18.4365C11.4299 18.4365 11.6872 18.5144 11.9062 18.6604L14.1302 20.143C14.2306 20.2099 14.3472 20.2484 14.4678 20.2542C14.5883 20.26 14.7082 20.2331 14.8146 20.1761C14.9209 20.1192 15.0099 20.0344 15.0719 19.9309C15.1339 19.8274 15.1667 19.709 15.1667 19.5883V8.16731C15.1667 7.9905 15.2369 7.82093 15.3619 7.69591C15.487 7.57089 15.6565 7.50065 15.8333 7.50065H31.1667C31.5203 7.50065 31.8594 7.64112 32.1095 7.89117C32.3595 8.14122 32.5 8.48036 32.5 8.83398V39.5007C32.5 39.8543 32.3595 40.1934 32.1095 40.4435C31.8594 40.6935 31.5203 40.834 31.1667 40.834H5.5C4.17392 40.834 2.90215 40.3072 1.96447 39.3695C1.02678 38.4319 0.5 37.1601 0.5 35.834V5.83398C0.5 5.82606 0.500917 5.8184 0.501167 5.81056C0.509481 4.51063 1.0318 3.26678 1.95408 2.35065C2.91347 1.38584 4.21606 0.840488 5.57667 0.833984H31.1667C31.5203 0.833984 31.8594 0.97446 32.1095 1.22451C32.3595 1.47456 32.5 1.8137 32.5 2.16731V2.83398C32.5 3.1876 32.3595 3.52674 32.1095 3.77679C31.8594 4.02684 31.5203 4.16731 31.1667 4.16731H5.5C5.27579 4.16756 5.05392 4.21299 4.84766 4.30091C4.6414 4.38882 4.45497 4.5174 4.29952 4.67898C4.14407 4.84055 4.02278 5.0318 3.94289 5.2413C3.86301 5.4508 3.82617 5.67426 3.83458 5.89831Z" fill="#6BCDB2"/>
</g>
<defs>
<clipPath id="clip0_1988_17574">
<rect width="32" height="40" fill="white" transform="translate(0.5 0.833984)"/>
</clipPath>
</defs>
</svg>
