<svg width="71" height="71" viewBox="0 0 71 71" fill="none" xmlns="http://www.w3.org/2000/svg">
<path d="M24.3343 38.5288C24.9041 38.5288 25.3658 38.0695 25.3658 37.5026C25.3658 36.9357 24.9041 36.4763 24.3343 36.4763H19.6777V33.3986C19.6777 32.8317 19.216 32.3723 18.6462 32.3723C18.0763 32.3723 17.6146 32.8317 17.6146 33.3986V36.4763H13.9895V24.6244C13.9895 23.8692 13.3998 23.2778 12.6471 23.2778H2.06945C1.21753 23.2778 0.550049 24.0117 0.550049 24.9485V69.2727C0.550049 70.2094 1.21753 70.9433 2.06945 70.9433H23.8464C24.6842 70.9433 25.3658 70.1938 25.3658 69.2727V58.6319C25.3658 58.065 24.9041 57.6056 24.3343 57.6056C23.7644 57.6056 23.3027 58.065 23.3027 58.6319V68.8908H2.61328V25.3304H11.9265V27.913H8.44209C7.87226 27.913 7.41054 28.3724 7.41054 28.9393C7.41054 29.5062 7.87226 29.9655 8.44209 29.9655H11.9264V33.6921H8.8001C8.23028 33.6921 7.76855 34.1515 7.76855 34.7184C7.76855 35.2853 8.23028 35.7447 8.8001 35.7447H11.9264V44.8126C11.9264 45.3795 12.3881 45.8389 12.9579 45.8389H23.3027V53.8602C23.3027 54.4271 23.7644 54.8865 24.3343 54.8865C24.9041 54.8865 25.3658 54.4271 25.3658 53.8602V45.1328C25.3658 44.3011 24.6466 43.7863 23.9802 43.7863H19.6777V38.5288H24.3343ZM17.6146 43.7863H13.9895V38.5288H17.6145V43.7863H17.6146Z" fill="#6BCDB2"/>
<path d="M59.5104 48.3498V43.282V33.9969C59.5104 33.9965 59.5104 33.9959 59.5104 33.9955V31.0363V19.6426C59.5104 19.6422 59.5104 19.6416 59.5104 19.6412V18.7907V13.4909H61.5196C62.4571 13.4909 63.2198 12.7326 63.2198 11.8006V11.7062H68.5648C69.0217 11.7062 69.441 11.559 69.7675 11.3146C69.8266 11.2752 69.8826 11.2292 69.9343 11.1763C69.946 11.1644 69.956 11.1515 69.967 11.1392C70.2662 10.8386 70.4499 10.4428 70.4499 10.0084V4.36579C70.4499 3.42941 69.6044 2.66778 68.5648 2.66778H63.2199V2.5735C63.2199 1.64151 62.4572 0.883301 61.5198 0.883301H48.4008C47.4633 0.883301 46.7005 1.64151 46.7005 2.5735V2.66778H44.7502H33.2734C33.2721 2.66778 33.271 2.66778 33.2698 2.66778H32.414H17.6469C16.6053 2.66778 15.7579 3.42941 15.7579 4.36579V10.0082C15.7579 10.9445 16.6053 11.7061 17.6469 11.7061H22.5553V15.244L18.7392 19.2792H17.7965C16.8937 19.2792 16.1593 20.0093 16.1593 20.9068V25.706C16.1593 26.6055 16.8937 27.3375 17.7965 27.3375H29.3735C30.2786 27.3375 31.0148 26.6055 31.0148 25.706V20.9068C31.0148 20.0093 30.2786 19.2792 29.3735 19.2792H28.4347L24.6185 15.244V11.7062H32.4143H44.7504H46.7007V11.8006C46.7007 12.7326 47.4635 13.4909 48.4009 13.4909H50.41V18.7904V31.0361V43.2819V54.5012H47.1772C45.7474 54.5012 44.5841 55.6571 44.5841 57.0779V63.7715H43.4523C41.4605 63.7715 39.8401 65.3811 39.8401 67.3595V69.2299C39.8401 70.1748 40.6152 70.9434 41.568 70.9434H68.6791C69.6297 70.9434 70.4029 70.1748 70.4029 69.2299V67.3595C70.4029 65.3811 68.7842 63.7715 66.7948 63.7715H65.663V57.0779C65.663 55.6571 64.4978 54.5012 63.0657 54.5012H59.5104V48.3511C59.5104 48.3507 59.5104 48.3503 59.5104 48.3498ZM68.387 4.72074V8.25112L64.7319 4.7206L68.387 4.72074ZM63.2199 6.12085L66.8773 9.65369H63.2199V6.12085ZM17.821 9.65314V4.72033H18.3929L23.4984 9.65328L17.821 9.65314ZM28.9516 21.3318V25.285H18.2222V21.3318H28.9516ZM25.6018 19.2793H21.5719L23.5868 17.1486L25.6018 19.2793ZM21.3542 4.72033H30.7289L26.0415 9.24934L21.3542 4.72033ZM32.4141 9.65369L28.5845 9.65355L33.2717 5.12468L37.9591 9.65369H32.4141ZM35.8144 4.72033H44.7502H45.1893L40.5018 9.24934L35.8144 4.72033ZM44.7502 9.65369H43.0446L46.7005 6.1214V9.65369H44.7502ZM63.0656 56.5539C63.3602 56.5539 63.5998 56.789 63.5998 57.078V63.7716H57.5938C57.024 63.7716 56.5623 64.231 56.5623 64.7979C56.5623 65.3648 57.024 65.8242 57.5938 65.8242H66.7947C67.6466 65.8242 68.3397 66.5129 68.3397 67.3596V68.891H41.9031V67.3596C41.9031 66.5129 42.5981 65.8242 43.4523 65.8242H52.5981C53.1679 65.8242 53.6297 65.3648 53.6297 64.7979C53.6297 64.231 53.1679 63.7716 52.5981 63.7716H46.6472V57.078C46.6472 56.7939 46.8901 56.5539 47.1772 56.5539H51.4414H58.4789H63.0656ZM57.0379 19.6418L52.4731 24.2972V18.7904V14.9862L57.0379 19.6418ZM53.8888 13.4909H57.4473V17.1202L53.8888 13.4909ZM57.4473 22.1634V31.0361V31.4743L52.8824 26.8187L57.4473 22.1634ZM57.0379 33.996L52.4731 38.6516V31.0361V29.3405L57.0379 33.996ZM57.4473 36.5178V43.282V45.8288L52.8825 41.1732L57.4473 36.5178ZM57.0379 48.3506L52.4731 53.006V43.695L57.0379 48.3506ZM57.4473 50.8722V54.5014H53.8888L57.4473 50.8722ZM58.4789 11.4383H51.455C51.4543 11.4383 51.4535 11.4383 51.4527 11.4383H51.4414H48.7635V2.93585H61.1567V11.4383H58.4789Z" fill="#6BCDB2"/>
<path d="M20.8302 50.4397C20.8302 49.5938 20.1398 48.9058 19.2913 48.9058H6.62471C5.77389 48.9058 5.08179 49.5938 5.08179 50.4397V54.6257C5.08179 55.4717 5.77389 56.1597 6.62471 56.1597H19.2913C20.1399 56.1597 20.8302 55.4717 20.8302 54.6257V50.4397ZM11.9263 54.1071H7.14488V50.9583H11.9265V54.1071H11.9263ZM18.7671 54.1071H13.9894V50.9583H18.767V54.1071H18.7671Z" fill="#6BCDB2"/>
<path d="M19.2912 59.2263H6.62471C5.77389 59.2263 5.08179 59.9143 5.08179 60.7603V64.9464C5.08179 65.7922 5.77389 66.4802 6.62471 66.4802H19.2913C20.1399 66.4802 20.8302 65.7922 20.8302 64.9464V60.7603C20.8302 59.9143 20.1398 59.2263 19.2912 59.2263ZM11.9263 64.4277H7.14488V61.2789H11.9265V64.4277H11.9263ZM18.7671 64.4277H13.9894V61.2789H18.767V64.4277H18.7671Z" fill="#6BCDB2"/>
</svg>
