<svg width="71" height="71" viewBox="0 0 71 71" fill="none" xmlns="http://www.w3.org/2000/svg">
<path d="M67.0503 41.695H63.5521V39.3629C63.5503 37.508 62.8126 35.7295 61.5009 34.4179C60.1893 33.1062 58.4108 32.3685 56.5558 32.3666H47.2274C45.3725 32.3685 43.594 33.1062 42.2824 34.4179C40.9707 35.7295 40.233 37.508 40.2311 39.3629V41.695H36.733C35.8052 41.695 34.9155 42.0636 34.2594 42.7196C33.6034 43.3757 33.2348 44.2654 33.2348 45.1932V46.0619L29.7367 44.4469V43.9292C30.5529 43.415 31.3144 42.8867 31.9965 42.4052C32.365 42.1463 32.7148 41.8991 33.0459 41.6776C34.1586 40.9219 35.1064 39.9484 35.8321 38.8161C36.5578 37.6837 37.0464 36.4159 37.2682 35.0894L37.7416 32.257C38.7778 32.0262 39.7045 31.4494 40.3689 30.6215C41.0334 29.7936 41.3961 28.764 41.3972 27.7024V19.5401C41.3972 14.592 39.4316 9.84658 35.9327 6.34775C32.4339 2.84892 27.6885 0.883301 22.7404 0.883301C17.7923 0.883301 13.0469 2.84892 9.54805 6.34775C6.04922 9.84658 4.0836 14.592 4.0836 19.5401V27.7024C4.08488 28.7645 4.44804 29.7944 5.11321 30.6224C5.77838 31.4503 6.70583 32.0269 7.74266 32.257L8.21608 35.0882C8.43772 36.415 8.92617 37.683 9.6519 38.8156C10.3776 39.9482 11.3256 40.9218 12.4383 41.6776C12.766 41.8991 13.1158 42.144 13.4878 42.404C14.1699 42.8856 14.9314 43.415 15.7476 43.9292V44.4469L6.00408 48.942C4.38849 49.6919 3.02044 50.8872 2.0606 52.3876C1.10077 53.888 0.589011 55.6311 0.585449 57.4122L0.585449 67.3481C0.585449 68.2759 0.954003 69.1657 1.61003 69.8217C2.26606 70.4777 3.15583 70.8463 4.0836 70.8463H65.8842C66.812 70.8463 67.7018 70.4777 68.3578 69.8217C69.0138 69.1657 69.3824 68.2759 69.3824 67.3481V54.4854C70.1355 53.488 70.5446 52.2732 70.5484 51.0234V45.1932C70.5484 44.2654 70.1799 43.3757 69.5238 42.7196C68.8678 42.0636 67.9781 41.695 67.0503 41.695ZM42.5632 39.3629C42.5632 38.1259 43.0546 36.9396 43.9294 36.0649C44.8041 35.1901 45.9904 34.6987 47.2274 34.6987H56.5558C57.7929 34.6987 58.9792 35.1901 59.8539 36.0649C60.7286 36.9396 61.22 38.1259 61.22 39.3629V41.695H58.8879V39.3629C58.8879 38.7444 58.6422 38.1513 58.2049 37.7139C57.7675 37.2765 57.1743 37.0308 56.5558 37.0308H47.2274C46.6089 37.0308 46.0157 37.2765 45.5784 37.7139C45.141 38.1513 44.8953 38.7444 44.8953 39.3629V41.695H42.5632V39.3629ZM56.5558 41.695H47.2274V39.3629H56.5558V41.695ZM35.5669 45.1932C35.5669 44.8839 35.6898 44.5873 35.9085 44.3687C36.1271 44.15 36.4237 44.0271 36.733 44.0271H67.0503C67.3595 44.0271 67.6561 44.15 67.8748 44.3687C68.0935 44.5873 68.2163 44.8839 68.2163 45.1932V51.0234C68.2163 51.9512 67.8478 52.841 67.1917 53.497C66.5357 54.153 65.646 54.5216 64.7182 54.5216H39.0651C38.1373 54.5216 37.2476 54.153 36.5915 53.497C35.9355 52.841 35.5669 51.9512 35.5669 51.0234V45.1932ZM48.3935 56.8537H55.3898V58.0197C55.3898 58.329 55.2669 58.6256 55.0483 58.8443C54.8296 59.0629 54.533 59.1858 54.2237 59.1858H49.5595C49.2503 59.1858 48.9537 59.0629 48.735 58.8443C48.5163 58.6256 48.3935 58.329 48.3935 58.0197V56.8537ZM16.586 46.6274L21.059 51.9913L18.4505 53.9467C18.4116 53.97 18.3659 53.9794 18.321 53.9733C18.276 53.9671 18.2345 53.9458 18.2033 53.9129L13.7292 47.9427L16.586 46.6274ZM22.7404 50.3681L18.6592 45.4707C19.9476 46.0334 21.3347 46.3354 22.7404 46.3592C24.1462 46.335 25.5332 46.0326 26.8216 45.4695L22.7404 50.3681ZM28.8948 46.6274L31.7516 47.9451L27.2763 53.9164C27.2456 53.9493 27.2045 53.9707 27.1599 53.9768C27.1153 53.983 27.0699 53.9736 27.0315 53.9502L24.4218 51.9936L28.8948 46.6274ZM22.7404 3.2154C27.0686 3.22003 31.2181 4.94144 34.2786 8.00191C37.3391 11.0624 39.0605 15.2119 39.0651 19.5401V23.6784C38.6773 23.4475 38.2577 23.2746 37.8197 23.1653C37.7064 22.0396 37.237 20.9793 36.4798 20.1386C35.7226 19.2979 34.717 18.7206 33.6091 18.4907C30.3471 18.079 27.203 17.0078 24.3682 15.3423C23.8817 15.0327 23.317 14.8682 22.7404 14.8682C22.1637 14.8682 21.5991 15.0327 21.1126 15.3423C18.2776 17.0084 15.133 18.0796 11.8705 18.4907C10.7636 18.7206 9.75873 19.2973 9.00179 20.137C8.24486 20.9768 7.77522 22.0359 7.66104 23.1607C7.22284 23.2714 6.80326 23.4459 6.4157 23.6784V19.5401C6.42033 15.2119 8.14173 11.0624 11.2022 8.00191C14.2627 4.94144 18.4122 3.22003 22.7404 3.2154ZM13.7432 39.7442C12.8923 39.1662 12.1677 38.4216 11.6131 37.5553C11.0585 36.689 10.6855 35.7192 10.5167 34.7046L9.89752 31.0082C9.85201 30.7361 9.71152 30.489 9.50102 30.3108C9.29052 30.1325 9.02364 30.0346 8.7478 30.0345C8.12929 30.0345 7.53611 29.7888 7.09875 29.3515C6.6614 28.9141 6.4157 28.321 6.4157 27.7024C6.4157 27.0839 6.6614 26.4908 7.09875 26.0534C7.53611 25.616 8.12929 25.3703 8.7478 25.3703C9.05705 25.3703 9.35364 25.2475 9.57232 25.0288C9.791 24.8101 9.91385 24.5136 9.91385 24.2043C9.84576 23.4612 10.0359 22.7173 10.4522 22.0979C10.8685 21.4786 11.4855 21.0217 12.1993 20.8041C15.7863 20.3479 19.2424 19.1639 22.3556 17.3246C22.4696 17.2483 22.6038 17.2075 22.741 17.2075C22.8782 17.2075 23.0123 17.2483 23.1264 17.3246C26.239 19.163 29.6942 20.3466 33.2803 20.8029C33.9946 21.0203 34.612 21.4773 35.0285 22.0969C35.4451 22.7165 35.6352 23.4608 35.5669 24.2043C35.5669 24.5136 35.6898 24.8101 35.9085 25.0288C36.1271 25.2475 36.4237 25.3703 36.733 25.3703C37.3515 25.3703 37.9447 25.616 38.382 26.0534C38.8194 26.4908 39.0651 27.0839 39.0651 27.7024C39.0651 28.321 38.8194 28.9141 38.382 29.3515C37.9447 29.7888 37.3515 30.0345 36.733 30.0345C36.4571 30.0346 36.1903 30.1325 35.9798 30.3108C35.7693 30.489 35.6288 30.7361 35.5833 31.0082L34.9641 34.7057C34.7952 35.7202 34.4221 36.6898 33.8675 37.5558C33.3129 38.4219 32.5883 39.1664 31.7376 39.7442C31.3983 39.9774 31.038 40.2293 30.652 40.4998C28.4226 42.0705 25.6485 44.0271 22.7404 44.0271C19.8323 44.0271 17.0582 42.0705 14.8287 40.4998C14.4463 40.2293 14.0825 39.9728 13.7432 39.7442ZM2.91755 67.3481V57.4122C2.92012 56.0764 3.30387 54.769 4.0237 53.6438C4.74353 52.5185 5.76955 51.622 6.98123 51.0596L11.565 48.9444L16.3376 55.3133C16.7368 55.8453 17.3309 56.197 17.9893 56.291C18.6477 56.3851 19.3165 56.2137 19.8486 55.8147L22.7404 53.647L25.6334 55.8159C26.1653 56.2142 26.8336 56.3851 27.4914 56.2911C28.1493 56.197 28.7429 55.8458 29.142 55.3145L33.2348 49.8574V51.0234C33.2386 52.2732 33.6478 53.488 34.4009 54.4854V67.3481C34.4048 67.7463 34.4773 68.1407 34.6154 68.5142H4.0836C3.77434 68.5142 3.47775 68.3913 3.25908 68.1727C3.0404 67.954 2.91755 67.6574 2.91755 67.3481ZM65.8842 68.5142H37.899C37.5898 68.5142 37.2932 68.3913 37.0745 68.1727C36.8558 67.954 36.733 67.6574 36.733 67.3481V56.3593C37.4675 56.6846 38.2618 56.853 39.0651 56.8537H46.0614V58.0197C46.0614 58.9475 46.4299 59.8373 47.086 60.4933C47.742 61.1493 48.6318 61.5179 49.5595 61.5179H54.2237C55.1515 61.5179 56.0413 61.1493 56.6973 60.4933C57.3533 59.8373 57.7219 58.9475 57.7219 58.0197V56.8537H64.7182C65.5215 56.853 66.3158 56.6846 67.0503 56.3593V67.3481C67.0503 67.6574 66.9274 67.954 66.7088 68.1727C66.4901 68.3913 66.1935 68.5142 65.8842 68.5142Z" fill="#6BCDB2"/>
</svg>
