<svg width="43" height="42" viewBox="0 0 43 42" fill="none" xmlns="http://www.w3.org/2000/svg">
<g clip-path="url(#clip0_1988_17589)">
<path d="M41.8529 37.7119L39.1252 35.0492C39.9645 33.8202 40.3841 32.3864 40.3841 30.9526C40.3841 26.4464 36.6073 22.7595 31.9912 22.7595C27.3751 22.7595 23.5983 26.4464 23.5983 30.9526C23.5983 35.4588 27.3751 39.1457 31.9912 39.1457C33.4599 39.1457 34.9287 38.736 36.1876 37.9167L38.9153 40.5795C39.335 40.9891 40.5939 41.8084 41.8529 40.5795C42.6922 39.7602 42.6922 38.5312 41.8529 37.7119ZM31.9912 35.0492C29.6831 35.0492 27.7947 33.2057 27.7947 30.9526C27.7947 28.6995 29.6831 26.8561 31.9912 26.8561C34.2992 26.8561 36.1876 28.6995 36.1876 30.9526C36.1876 33.2057 34.2992 35.0492 31.9912 35.0492Z" fill="#6BCDB2"/>
<path d="M31.9911 0.228516H2.61593C1.35699 0.228516 0.5177 1.04782 0.5177 2.27679V39.1457C0.5177 40.3746 1.35699 41.194 2.61593 41.194H25.067C21.7098 38.9409 19.4018 35.254 19.4018 30.9526C19.4018 24.1933 25.067 18.663 31.9911 18.663C32.6206 18.663 33.4599 18.663 34.0894 18.8678V2.27679C34.0894 1.04782 33.2501 0.228516 31.9911 0.228516ZM17.3035 16.6147H6.81239C5.55345 16.6147 4.71416 15.5906 4.71416 14.5664C4.71416 13.3375 5.55345 12.5181 6.81239 12.5181H17.3035C18.5625 12.5181 19.4018 13.3375 19.4018 14.5664C19.4018 15.5906 18.5625 16.6147 17.3035 16.6147ZM27.7947 8.4216H6.81239C5.55345 8.4216 4.71416 7.39747 4.71416 6.37333C4.71416 5.14437 5.55345 4.32506 6.81239 4.32506H27.7947C29.0536 4.32506 29.8929 5.14437 29.8929 6.37333C29.8929 7.39747 29.0536 8.4216 27.7947 8.4216Z" fill="#6BCDB2"/>
</g>
<defs>
<clipPath id="clip0_1988_17589">
<rect width="42" height="41" fill="white" transform="translate(0.5 0.228516)"/>
</clipPath>
</defs>
</svg>
