<svg width="1280" height="650" viewBox="0 0 1280 650" fill="none" xmlns="http://www.w3.org/2000/svg">
<g clip-path="url(#clip0_312_108)">
<rect width="1280" height="650" fill="white"/>
<path d="M1279.74 -80.5918H-0.257324V650.373H1279.74V-80.5918Z" fill="#DDEDE6"/>
<path d="M760.017 -5.94824V212.441H717.839V164.144H655.461V-5.94824H586.183V115.146H516.906V175.643H489.412V37.5497H401.116V115.146H306.809V150.244H279.315V14.5508H161.159V189.042H130.019V122.246H20.1415V175.643H-0.257324V563.524L28.5178 578.524H101.342L191.807 594.823L245.809 576.024L251.229 606.522H351.548V571.324H407.029L440.337 584.224L524.1 571.324L567.066 600.023L590.618 592.723H609.637L605.301 620.422H696.061L792.832 603.523H823.48L827.027 598.023H927.346L943.409 596.023H990.612L1067.58 578.524H1140.4L1194.3 589.023L1246.24 596.123L1279.74 604.023V14.5508H1218.05V189.042H1159.52V122.246H1059.2V175.643H999.579V73.8479H906.454V141.845H853.142V-5.94824H760.017Z" fill="#C3E5D6"/>
<path d="M-0.257324 348.868V502.059L361.572 502.425C360.882 504.378 360.488 506.331 360.389 508.406H686.449C686.449 507.674 686.351 507.064 686.154 506.331H925.304C925.304 504.012 925.304 501.815 925.205 499.74L1279.74 499.374V416.248C1275.8 422.107 1273.34 427.478 1273.34 427.478C1258.46 401.112 1234.32 426.745 1234.32 426.745C1234.32 426.745 1238.16 387.441 1218.16 375.234C1198.65 363.394 1188.3 390.248 1187.71 391.713C1188.3 389.882 1202 346.061 1187.71 319.939C1173.42 293.817 1155.88 332.146 1155.09 333.977C1155.68 332.024 1169.97 285.029 1153.52 270.381C1136.67 255.489 1124.05 300.653 1124.05 300.653C1124.05 300.653 1121.2 237.79 1088.88 242.062C1056.75 246.334 1074.59 349.967 1074.88 351.676C1074.49 350.455 1057.25 302.362 1038.72 312.005C1020.1 321.77 1052.32 408.314 1052.71 409.412C1030.25 373.281 1016.85 410.145 1016.85 410.145C999.7 364.248 971.222 370.108 971.222 370.108C914.957 369.009 914.859 458.116 915.056 468.125C889.535 430.896 825.88 435.9 825.88 435.9C856.131 361.563 814.449 331.657 814.449 331.657C749.119 302.972 697.584 449.816 697.584 449.816C679.059 419.177 655.706 441.515 638.363 466.66C624.568 468.003 613.926 475.693 613.926 475.693C586.335 418.567 548.004 463.609 548.004 463.609C548.004 463.609 547.019 345.329 462.77 354.483C428.676 358.145 411.629 386.098 403.056 414.905C395.764 392.567 381.673 372.305 354.674 372.793C354.674 372.793 326.098 366.934 309.051 412.83C309.051 412.83 295.749 375.967 273.184 412.098C273.578 410.999 305.701 324.456 287.078 314.69C268.651 305.047 251.407 353.141 250.914 354.361C251.21 352.652 269.045 249.02 236.922 244.748C204.602 240.475 201.744 303.338 201.744 303.338C201.744 303.338 189.033 258.175 172.282 273.066C162.526 281.733 163.512 301.752 166.172 317.132C149.717 289.423 123.111 256.099 85.076 242.55C14.7203 217.527 22.1107 341.178 22.1107 341.178C1.71342 315.179 9.69495 361.441 9.69495 361.441C9.69495 361.441 5.85199 355.704 -0.257324 348.868Z" fill="#67C6A9"/>
<path fill-rule="evenodd" clip-rule="evenodd" d="M1279.74 497.341L934.483 501.711C934.483 501.711 510.976 499.386 409.699 497.246C308.422 495.106 -0.257324 489.022 -0.257324 489.022V650.374H1279.74V497.341Z" fill="#46A07E"/>
<path fill-rule="evenodd" clip-rule="evenodd" d="M1279.74 530.737C1254.67 520.499 1182.92 500.114 1026.4 512.04C821.813 527.63 368.463 629.595 337.293 650.374L1279.74 650.255V530.737Z" fill="#20C791"/>
<path d="M18.8436 528.416C11.486 531.448 5.13167 537.392 -0.257324 544.582V650.373H94.9355C97.8618 646.071 101.024 639.079 88.8776 641.055C88.8776 641.055 109.043 618.307 98.8347 608.129C88.6344 597.952 72.361 617.265 72.361 617.265C72.361 617.265 75.8802 600.871 66.896 610.098C66.896 610.098 70.1188 566.889 39.9815 574.862C41.2812 560.254 43.0522 518.429 18.8436 528.416Z" fill="#67C6A9"/>
<path opacity="0.25" d="M0 -70.6099H1281.74V650.374H0V-70.6099Z" fill="#243D34"/>
<path d="M1184.5 147.739H1177.9V422.093L1163.25 446.439L1159.77 554.762H1209.22L1205.75 446.439L1191.09 422.093V147.739H1184.5Z" fill="#F59247"/>
<path d="M1184.49 134.283H1161.96V141.288H1184.49V134.283Z" fill="#F5C786"/>
<path d="M1184.49 141.288H1165.44V148.293H1184.49V141.288Z" fill="#EC792A"/>
<path d="M1184.5 70.4854H1158.3L1165.44 134.283H1184.5V70.4854Z" fill="#F5E3C7"/>
<path d="M1184.5 62.4336H1149.57V70.4851H1184.5V62.4336Z" fill="#EC792A"/>
<path d="M1184.5 54.3828H1165.63V62.4343H1184.5V54.3828Z" fill="#F5C786"/>
<path d="M1207.03 134.283H1184.5V141.288H1207.03V134.283Z" fill="#F5C786"/>
<path d="M1203.55 141.288H1184.5V148.293H1203.55V141.288Z" fill="#EC792A"/>
<path d="M1184.5 70.4854V134.283H1203.55L1210.69 70.4854H1184.5Z" fill="#F5E3C7"/>
<path d="M1219.43 62.4336H1184.5V70.4851H1219.43V62.4336Z" fill="#EC792A"/>
<path d="M1203.37 54.3828H1184.5V62.4343H1203.37V54.3828Z" fill="#F5C786"/>
<path d="M1209.2 440.23H1160.05V447.929H1209.2V440.23Z" fill="#EC792A"/>
<path d="M1181.92 147.901V148.686H1203.94V140.896H1165.44V141.681H1203.16V147.901H1181.92Z" fill="black"/>
<path d="M1190.71 148.293V422.205L1201.68 440.431L1202.34 440.029L1191.48 421.993V148.293H1190.71Z" fill="black"/>
<path d="M1179.68 447.537V448.322H1209.58V439.837H1160.05V440.622H1208.81V447.537H1179.68Z" fill="black"/>
<path d="M1206.05 447.934L1205.28 447.959L1208.84 554.779L1209.61 554.753L1206.05 447.934Z" fill="black"/>
<path d="M1177.95 458.001L1170.64 466.561L1171.22 467.066L1178.54 458.507L1177.95 458.001Z" fill="black"/>
<path d="M1178.51 465.722L1171.2 474.281L1171.79 474.793L1179.11 466.234L1178.51 465.722Z" fill="black"/>
<path d="M1178.3 180.318H1177.52V372.446H1178.3V180.318Z" fill="black"/>
<path d="M1207.03 133.891H1161.96V134.675H1207.03V133.891Z" fill="black"/>
<path d="M1210.29 70.4441L1203.15 134.24L1203.91 134.327L1211.06 70.5309L1210.29 70.4441Z" fill="black"/>
<path d="M1149.57 70.0935V70.8785H1219.82V62.042H1181.46V62.827H1219.04V70.0935H1149.57Z" fill="black"/>
<path d="M1203.75 62.4342V53.9902H1165.63V54.7753H1202.98V62.4342H1203.75Z" fill="black"/>
<path d="M1160.1 83.0482L1159.34 83.1343L1164.01 125.152L1164.77 125.066L1160.1 83.0482Z" fill="black"/>
<path d="M1180.54 77.1352L1173.01 82.873L1173.47 83.4911L1181.01 77.7532L1180.54 77.1352Z" fill="black"/>
<path d="M1180.54 82.872L1173.01 88.6099L1173.47 89.2279L1181.01 83.49L1180.54 82.872Z" fill="black"/>
<path d="M949.919 354.879L952.352 355.224L949.944 354.879H949.919Z" fill="#49263E"/>
<path d="M914.15 337.999C919.227 334.994 926.347 337.911 926.415 337.935L926.711 337.302C926.406 337.174 919.176 334.216 913.76 337.406C910.31 339.45 908.437 343.522 908.2 349.517L908.929 349.541C909.166 343.794 910.921 339.907 914.15 337.999Z" fill="black"/>
<path d="M923.999 320.663C925.771 319.998 926.644 318.099 925.94 316.424C925.237 314.749 923.228 313.923 921.456 314.588C919.685 315.253 918.812 317.153 919.515 318.828C920.219 320.503 922.228 321.329 923.999 320.663Z" fill="#E2F2F1"/>
<path d="M911.785 325.104L915.227 333.327L927.5 328.734L912.921 293.862C912.921 293.862 909.471 295.641 909.59 295.922C909.709 296.202 900.266 308.986 900.266 308.986C900.266 308.986 903.691 322.907 907.242 324.943C907.234 324.951 909.031 326.073 911.785 325.104Z" fill="#FE9F73"/>
<path d="M907.708 314.139C907.496 312.697 906.115 311.831 906.056 311.799C905.996 311.767 905.928 311.783 905.886 311.831C905.852 311.887 905.869 311.951 905.92 311.991C905.937 311.999 907.268 312.833 907.463 314.179C907.581 315.021 907.234 315.895 906.429 316.768L906.361 316.848L906.437 316.928C906.479 316.968 907.505 318.01 908.556 317.842C908.564 317.842 908.573 317.834 908.581 317.834C908.632 317.818 908.666 317.762 908.658 317.706C908.649 317.642 908.581 317.602 908.522 317.61C907.742 317.73 906.937 317.065 906.691 316.84C907.496 315.927 907.836 315.021 907.708 314.139Z" fill="#F07162"/>
<path d="M920.287 319.044C917.566 322.563 911.785 325.104 911.785 325.104L913.167 328.414C917.227 325.36 920.287 319.044 920.287 319.044Z" fill="#F07162"/>
<path d="M909.997 312.881C910.344 312.753 910.506 312.384 910.37 312.056C910.234 311.727 909.844 311.567 909.497 311.703C909.149 311.831 908.988 312.2 909.124 312.52C909.259 312.849 909.649 313.009 909.997 312.881Z" fill="black"/>
<path d="M904.132 315.077C904.479 314.949 904.64 314.581 904.505 314.252C904.369 313.923 903.979 313.771 903.632 313.899C903.284 314.028 903.123 314.396 903.259 314.725C903.403 315.045 903.793 315.206 904.132 315.077Z" fill="black"/>
<path d="M895.104 300.987C893.986 304.089 896.817 305.956 896.817 305.956C896.817 305.956 895.393 309.795 899.588 310.581C905.149 311.615 904.615 305.772 904.615 305.772C904.615 305.772 905.75 307.383 909.149 306.213C910.514 305.74 911.353 304.746 911.87 303.72C912.472 305.123 914.879 305.115 914.879 305.115C915.413 307.768 918.498 308.104 918.498 308.104C918.498 308.104 920.914 313.899 922.016 315.662C923.126 317.433 925.237 316.848 927.381 315.061C930.89 312.136 928.246 306.076 928.246 306.076C929.805 301.34 924.27 300.113 924.27 300.113L923.228 297.621C920.727 292.652 916.752 295.128 916.752 295.128C916.337 293.445 913.04 291.457 910.404 292.195C907.776 292.932 907.683 294.848 907.683 294.848C907.683 294.848 906.547 292.892 902.851 294.223C899.156 295.553 899.351 298.158 899.351 298.158C899.351 298.158 896.223 297.885 895.104 300.987Z" fill="white"/>
<path d="M908.412 313.13L908.471 312.657C908.42 312.649 907.123 312.521 906.14 313.522L906.513 313.851C907.327 313.018 908.403 313.13 908.412 313.13Z" fill="#F75553"/>
<path d="M913.65 310.532L919.566 308.32C919.693 308.272 919.761 308.136 919.71 308.008C919.66 307.888 919.515 307.823 919.38 307.872L913.464 310.084C913.336 310.132 913.269 310.268 913.319 310.396C913.379 310.524 913.523 310.58 913.65 310.532Z" fill="#F75553"/>
<path d="M922.634 314.211C924.567 313.49 925.508 311.43 924.745 309.603C923.982 307.784 921.804 306.886 919.871 307.607C917.947 308.329 916.998 310.388 917.761 312.216C918.524 314.043 920.702 314.933 922.634 314.211Z" fill="#FE9F73"/>
<path d="M922.177 309.002C922.245 309.002 922.296 308.946 922.287 308.881C922.279 308.817 922.228 308.769 922.16 308.777C922.118 308.777 921.092 308.841 920.49 309.531C920.143 309.923 920.016 310.444 920.1 311.077L920.16 311.478L920.338 311.102C920.355 311.053 920.863 309.995 922.075 310.204C922.745 310.316 923.033 310.877 923.075 311.318C923.118 311.783 922.931 312.408 922.262 312.648C922.202 312.672 922.168 312.736 922.194 312.793C922.219 312.849 922.287 312.881 922.346 312.857C922.355 312.857 922.363 312.849 922.363 312.849C923.092 312.576 923.372 311.871 923.313 311.286C923.245 310.597 922.779 310.084 922.118 309.971C921.177 309.811 920.6 310.324 920.321 310.685C920.329 310.276 920.448 309.931 920.685 309.667C921.219 309.058 922.168 309.002 922.177 309.002Z" fill="#F07162"/>
<path d="M908.369 319.557C911.005 319.293 911.319 317.017 911.328 316.993C911.336 316.921 911.285 316.857 911.209 316.849C911.133 316.841 911.065 316.889 911.056 316.961C911.048 317.049 910.76 319.053 908.353 319.293C908.31 319.301 908.268 319.301 908.217 319.301C908.141 319.309 908.081 319.373 908.09 319.445C908.098 319.517 908.166 319.574 908.242 319.566C908.276 319.566 908.327 319.566 908.369 319.557Z" fill="#F07162"/>
<path d="M902.496 314.131C902.563 314.115 902.623 314.067 902.657 313.995C902.665 313.979 903.343 312.304 904.962 311.751C905.081 311.711 905.14 311.591 905.098 311.479C905.055 311.366 904.928 311.31 904.81 311.35C902.987 311.967 902.258 313.771 902.233 313.843C902.191 313.955 902.25 314.075 902.369 314.115C902.402 314.139 902.453 314.139 902.496 314.131Z" fill="#E2F2F1"/>
<path d="M908.336 310.316C909.836 309.507 911.624 310.124 911.641 310.124C911.684 310.14 911.734 310.14 911.777 310.132C911.845 310.116 911.904 310.068 911.938 309.996C911.98 309.883 911.921 309.763 911.802 309.723C911.718 309.691 909.802 309.034 908.115 309.94C908.005 309.996 907.971 310.132 908.03 310.236C908.09 310.34 908.225 310.372 908.336 310.316Z" fill="#E2F2F1"/>
<path d="M912.209 314.596C913.837 313.987 914.633 312.248 913.989 310.709C913.345 309.17 911.506 308.417 909.878 309.026C908.251 309.635 907.454 311.374 908.098 312.913C908.742 314.444 910.59 315.206 912.209 314.596ZM910.065 309.467C911.429 308.954 912.98 309.595 913.523 310.886C914.065 312.176 913.387 313.643 912.023 314.156C910.658 314.669 909.107 314.027 908.564 312.737C908.03 311.447 908.7 309.98 910.065 309.467Z" fill="#F75553"/>
<path d="M904.742 317.385C906.369 316.776 907.166 315.037 906.522 313.498C905.877 311.959 904.038 311.206 902.411 311.815C900.783 312.424 899.987 314.164 900.631 315.702C901.275 317.241 903.114 317.995 904.742 317.385ZM902.597 312.256C903.962 311.743 905.513 312.384 906.055 313.675C906.598 314.965 905.92 316.432 904.555 316.945C903.191 317.458 901.639 316.816 901.097 315.526C900.555 314.236 901.233 312.769 902.597 312.256Z" fill="#F75553"/>
<path d="M921.813 302.59C925.44 301.236 927.22 297.356 925.779 293.926C924.347 290.496 920.244 288.813 916.617 290.167C912.989 291.522 911.209 295.401 912.65 298.831C914.082 302.261 918.185 303.945 921.813 302.59Z" fill="white"/>
<path d="M908.124 524.888L907.734 543.322L924.838 543.258L925.16 526.756L908.124 524.888Z" fill="#F59F73"/>
<path d="M925.339 548.492C925.593 548.484 925.805 548.276 925.805 548.011L925.813 545.703C925.813 545.326 925.517 545.022 925.144 545.03L910.217 545.302L904.199 538.674L893.104 545.615L890.722 545.655C889.9 545.671 889.146 546.248 888.985 547.073C888.773 548.187 889.595 549.141 890.638 549.125L925.339 548.492Z" fill="#F59247"/>
<path d="M925.042 538.786C925.042 538.786 922.541 535.372 918.71 537.207C918.71 537.207 912.904 541.511 907.827 536.518L895.13 542.489C895.13 542.489 891.646 543.739 890.706 545.663L925.016 545.046L925.042 538.786Z" fill="#F5C786"/>
<path d="M924.915 538.786L924.889 545.014H925.135L925.169 538.778L924.915 538.786Z" fill="black"/>
<path d="M918.778 537.311L918.634 537.103C915.778 539.155 912.794 538.778 912.76 538.778L912.718 539.035C912.726 539.035 913.023 539.075 913.506 539.067C914.616 539.043 916.735 538.778 918.778 537.311Z" fill="black"/>
<path d="M923.414 542.577L921.796 543.715L921.931 543.932L923.559 542.786L923.414 542.577Z" fill="black"/>
<path d="M922.253 542.281L920.634 543.427L920.77 543.635L922.397 542.489L922.253 542.281Z" fill="black"/>
<path d="M925.932 547.619L925.94 545.887C925.94 545.334 925.508 544.893 924.965 544.901L890.655 545.519C889.646 545.535 888.824 546.392 888.824 547.418C888.824 547.963 889.053 548.484 889.459 548.829L889.629 548.628C889.273 548.332 889.078 547.883 889.078 547.41C889.086 546.529 889.79 545.791 890.655 545.775L924.965 545.158C925.364 545.15 925.686 545.479 925.686 545.887L925.677 547.619H925.932Z" fill="black"/>
<path d="M893.969 543.13C896.52 541.976 907.759 536.687 907.869 536.63L907.768 536.398C907.657 536.454 896.427 541.736 893.867 542.89C891.265 544.068 890.57 545.535 890.536 545.599L890.765 545.703C890.782 545.695 891.468 544.269 893.969 543.13Z" fill="black"/>
<path d="M971.134 423.477L938.663 413.418C938.663 413.418 901.47 444.877 899.86 450.856C898.249 456.843 905.801 527.974 905.801 527.974C910.878 528.896 927.313 527.974 927.313 527.974C927.313 527.974 921.194 470.348 922.346 467.35C923.499 464.369 971.134 423.477 971.134 423.477Z" fill="#F35A73"/>
<path d="M921.355 552.54C922.465 552.54 923.364 551.642 923.364 550.536C923.364 549.43 922.465 548.524 921.355 548.524H901.868C900.758 548.524 899.86 549.422 899.86 550.536C899.86 551.642 900.758 552.54 901.868 552.54H921.355Z" fill="#C61647"/>
<path d="M1059.54 529.289C1059.54 501.67 1037.02 479.204 1009.34 479.204C981.653 479.204 959.132 501.67 959.132 529.289C959.132 556.908 981.653 579.373 1009.34 579.373C1037.02 579.381 1059.54 556.908 1059.54 529.289ZM963.955 529.289C963.955 504.322 984.315 484.013 1009.34 484.013C1034.36 484.013 1054.72 504.322 1054.72 529.289C1054.72 554.255 1034.36 574.564 1009.34 574.564C984.315 574.564 963.955 554.255 963.955 529.289Z" fill="white"/>
<path d="M856.106 397.67L860.59 400.427L874.059 401.036L875.449 385.52C875.449 385.52 862.167 388.798 860.683 388.958C859.209 389.11 849.487 389.583 847.147 391.41C844.808 393.238 845.367 395.69 845.13 398.103C845.071 398.704 845.969 402.447 847.224 402.583C848.478 402.711 856.106 397.67 856.106 397.67Z" fill="#EA805C"/>
<path d="M1069.97 528.984C1069.97 495.979 1043.06 469.129 1009.99 469.129C976.907 469.129 949.995 495.979 949.995 528.984C949.995 561.989 976.907 588.838 1009.99 588.838C1043.06 588.838 1069.97 561.989 1069.97 528.984ZM955.75 528.984C955.75 499.153 980.077 474.876 1009.98 474.876C1039.88 474.876 1064.21 499.145 1064.21 528.984C1064.21 558.815 1039.88 583.092 1009.98 583.092C980.077 583.092 955.75 558.823 955.75 528.984Z" fill="#203749"/>
<path d="M1070.31 528.984C1070.31 495.795 1043.25 468.793 1009.99 468.793C976.72 468.793 949.665 495.795 949.665 528.984C949.665 562.173 976.728 589.175 1009.99 589.175C1043.25 589.175 1070.31 562.173 1070.31 528.984ZM950.334 528.984C950.334 496.163 977.093 469.466 1009.99 469.466C1042.88 469.466 1069.64 496.163 1069.64 528.984C1069.64 561.805 1042.88 588.502 1009.99 588.502C977.093 588.502 950.334 561.805 950.334 528.984Z" fill="black"/>
<path d="M1064.55 528.984C1064.55 498.961 1040.07 474.54 1009.98 474.54V475.213C1039.7 475.213 1063.87 499.329 1063.87 528.976C1063.87 558.623 1039.7 582.739 1009.98 582.739V583.413C1040.07 583.429 1064.55 559.007 1064.55 528.984Z" fill="black"/>
<path d="M822.838 579.381C850.521 579.381 873.041 556.916 873.041 529.297C873.041 501.678 850.521 479.212 822.838 479.212C795.155 479.212 772.635 501.678 772.635 529.297C772.635 556.908 795.155 579.381 822.838 579.381ZM822.838 484.013C847.859 484.013 868.219 504.323 868.219 529.289C868.219 554.255 847.859 574.564 822.838 574.564C797.817 574.564 777.458 554.255 777.458 529.289C777.458 504.323 797.817 484.013 822.838 484.013Z" fill="white"/>
<path d="M823.482 588.838C856.556 588.838 883.467 561.989 883.467 528.984C883.467 495.979 856.556 469.129 823.482 469.129C790.4 469.129 763.489 495.979 763.489 528.984C763.489 561.989 790.4 588.838 823.482 588.838ZM823.482 474.884C853.386 474.884 877.712 499.153 877.712 528.992C877.712 558.823 853.386 583.1 823.482 583.1C793.579 583.1 769.253 558.831 769.253 528.992C769.253 499.153 793.579 474.884 823.482 474.884Z" fill="#203749"/>
<path d="M878.051 528.984C878.051 498.961 853.572 474.54 823.482 474.54V475.213C853.199 475.213 877.373 499.329 877.373 528.976C877.373 558.623 853.199 582.739 823.482 582.739V583.413C853.572 583.429 878.051 559.007 878.051 528.984Z" fill="black"/>
<path d="M823.482 589.175C856.751 589.175 883.806 562.173 883.806 528.984C883.806 495.795 856.742 468.793 823.482 468.793C790.214 468.793 763.15 495.795 763.15 528.984C763.15 562.173 790.214 589.175 823.482 589.175ZM823.482 469.474C856.369 469.474 883.136 496.171 883.136 528.984C883.136 561.805 856.378 588.502 823.482 588.502C790.587 588.502 763.828 561.805 763.828 528.984C763.828 496.171 790.587 469.474 823.482 469.474Z" fill="black"/>
<path d="M836.764 529.994C836.764 522.684 830.806 516.737 823.474 516.737C816.151 516.737 810.183 522.684 810.183 529.994C810.183 537.303 816.142 543.25 823.474 543.25C830.806 543.25 836.764 537.303 836.764 529.994ZM812.921 529.994C812.921 524.183 817.659 519.454 823.482 519.454C829.305 519.454 834.043 524.183 834.043 529.994C834.043 535.804 829.305 540.533 823.482 540.533C817.659 540.533 812.921 535.804 812.921 529.994Z" fill="#C61647"/>
<path d="M954.208 471.47C954.886 471.47 955.539 471.069 955.818 470.404L966.184 446.023C966.566 445.133 966.151 444.107 965.252 443.731C964.362 443.354 963.337 443.771 962.955 444.66L952.589 469.041C952.208 469.931 952.623 470.957 953.513 471.334C953.75 471.43 953.979 471.47 954.208 471.47Z" fill="#FEBAC7"/>
<path d="M960.107 465.01C958.31 463.014 955.861 461.676 953.208 461.227L850.046 431.829C848.02 431.492 846.037 432.406 844.978 434.161C843.927 435.916 844.054 438.096 845.308 439.715L924.186 531.18C926.432 534.074 929.958 535.805 933.628 535.805H1010.19C1012.63 535.805 1014.76 534.426 1015.76 532.198C1016.75 529.978 1016.35 527.469 1014.73 525.658L960.107 465.01ZM933.637 529.192C932.001 529.192 930.433 528.423 929.432 527.133L853.165 439.042L952.123 467.735C953.301 467.935 954.394 468.529 955.199 469.418L1009.04 529.192H933.637Z" fill="#FEBAC7"/>
<path d="M952.716 464.465L926.618 531.293L932.78 533.697L958.878 466.862L952.716 464.465Z" fill="#FEBAC7"/>
<path d="M823.567 533.857C825.389 533.897 826.907 532.447 826.941 530.627L855.988 401.092C856.022 399.273 854.572 397.758 852.75 397.726C850.928 397.686 849.41 399.137 849.377 400.956L820.338 530.491C820.304 531.894 821.16 533.112 822.389 533.617C822.753 533.761 823.152 533.849 823.567 533.857Z" fill="#FEBAC7"/>
<path d="M979.288 444.7C981.365 443.987 981.755 441.23 979.966 439.956L978.661 439.026C977.195 437.984 975.44 437.415 973.635 437.415H942.748C942.748 437.415 951.207 446.824 963.87 447.009C970.643 447.113 975.881 445.871 979.288 444.7Z" fill="#C61647"/>
<path d="M959.802 465.251L1011.95 523.149L1012.53 522.628L960.395 464.746C960.319 464.641 957.963 461.684 953.598 460.899L933.34 455.152L933.128 455.897L953.428 461.652C957.522 462.397 959.785 465.218 959.802 465.251Z" fill="black"/>
<path d="M985.9 504.098L986.476 503.577L956.937 470.772L943.536 505.084L944.257 505.372L957.2 472.231L985.9 504.098Z" fill="black"/>
<path d="M942.155 492.573L952.021 467.302L919.066 457.749L918.854 458.494L950.987 467.815L941.434 492.292L942.155 492.573Z" fill="black"/>
<path d="M853.165 413.418L848.444 431.997L882.153 441.606L882.365 440.853L849.419 431.468L853.903 413.643L853.165 413.418Z" fill="black"/>
<path d="M848.503 403.993L819.956 530.402L820.711 530.579L849.258 404.161L848.503 403.993Z" fill="black"/>
<path d="M837.408 482.209L826.695 529.978L827.449 530.146L838.163 482.378L837.408 482.209Z" fill="black"/>
<path d="M1003.61 527.188L1003.28 527.886L1013.62 532.847L1013.95 532.142L1003.61 527.188Z" fill="black"/>
<path d="M999.639 529.641L999.309 530.346L1009.64 535.3L1009.98 534.602L999.639 529.641Z" fill="black"/>
<path d="M1019.29 528.984C1019.29 523.237 1014.62 518.589 1008.87 518.589C1003.11 518.589 998.444 523.245 998.444 528.984C998.444 534.723 1003.11 539.379 1008.87 539.379C1014.63 539.387 1019.29 534.731 1019.29 528.984Z" fill="#C61647"/>
<path d="M1016.09 528.984C1016.09 525.009 1012.86 521.787 1008.88 521.787C1004.89 521.787 1001.66 525.009 1001.66 528.984C1001.66 532.96 1004.89 536.182 1008.88 536.182C1012.86 536.182 1016.09 532.96 1016.09 528.984Z" fill="white"/>
<path d="M934.052 535.588C934.052 532.503 931.543 529.994 928.449 529.994C925.355 529.994 922.847 532.495 922.847 535.588C922.847 538.674 925.355 541.183 928.449 541.183C931.543 541.175 934.052 538.674 934.052 535.588Z" fill="#4A263E"/>
<path d="M1009.48 540.493C1016.35 539.147 1020.43 534.851 1020.43 528.992C1020.43 522.636 1015.25 517.467 1008.88 517.467H928.619C918.6 517.467 910.446 525.602 910.446 535.596C910.446 545.591 918.6 553.726 928.619 553.726C930.568 553.718 1001.41 541.84 1009.48 540.493ZM912.006 535.588C912.006 526.451 919.456 519.014 928.619 519.014H1008.88C1014.39 519.014 1018.87 523.486 1018.87 528.984C1018.87 534.122 1015.35 537.76 1009.2 538.963C1004.36 539.78 930.805 552.099 928.61 552.163C919.456 552.163 912.006 544.725 912.006 535.588Z" fill="#4A263E"/>
<path d="M946.452 535.588C946.452 525.682 938.374 517.619 928.441 517.619C918.507 517.619 910.429 525.682 910.429 535.588C910.429 545.495 918.507 553.557 928.441 553.557C938.374 553.557 946.452 545.495 946.452 535.588ZM912.379 535.588C912.379 526.748 919.583 519.559 928.441 519.559C937.298 519.559 944.503 526.748 944.503 535.588C944.503 544.429 937.298 551.618 928.441 551.618C919.583 551.618 912.379 544.429 912.379 535.588Z" fill="#4A263E"/>
<path d="M915.277 524.416L914.108 525.962L941.46 546.6L942.63 545.054L915.277 524.416Z" fill="#4A263E"/>
<path d="M929.107 518.383L927.158 518.405L927.599 552.617L929.549 552.595L929.107 518.383Z" fill="#4A263E"/>
<path d="M945.478 534.009L911.201 535.059L911.26 536.999L945.537 535.957L945.478 534.009Z" fill="#4A263E"/>
<path d="M938.714 517.619L909.887 549.654L911.412 551.001L940.239 518.966L938.714 517.619Z" fill="#4A263E"/>
<path d="M947.529 491.082L930.449 492.501L933.603 510.67L950.385 507.336L947.529 491.082Z" fill="#F59F73"/>
<path d="M917.947 519.623L951.885 512.378C952.131 512.322 952.301 512.073 952.25 511.817L951.818 509.548C951.75 509.172 951.394 508.931 951.029 509.012L936.434 512.129L929.254 506.775L919.694 515.704L917.363 516.201C916.557 516.369 915.93 517.09 915.93 517.932C915.93 519.062 916.922 519.839 917.947 519.623Z" fill="#F59247"/>
<path d="M943.206 502.567C943.206 502.567 938.332 507.897 932.391 503.978L921.075 512.265C921.075 512.265 917.905 514.157 917.337 516.224L950.894 509.059L949.715 502.912C949.724 502.904 946.613 500.035 943.206 502.567Z" fill="#F5C786"/>
<path d="M949.843 502.88L949.597 502.936L950.766 509.051L951.012 509.003L949.843 502.88Z" fill="black"/>
<path d="M943.291 502.655L943.113 502.479C940.706 505.036 937.705 505.244 937.671 505.244L937.68 505.501C937.688 505.501 937.985 505.477 938.459 505.38C939.544 505.148 941.57 504.491 943.291 502.655Z" fill="black"/>
<path d="M948.851 506.936L947.478 508.37L947.664 508.555L949.037 507.12L948.851 506.936Z" fill="black"/>
<path d="M947.664 506.871L946.291 508.306L946.469 508.482L947.842 507.047L947.664 506.871Z" fill="black"/>
<path d="M917.32 516.353L950.877 509.187C951.267 509.107 951.648 509.364 951.724 509.765L952.046 511.464L952.292 511.408L951.97 509.708C951.868 509.171 951.351 508.819 950.826 508.931L917.269 516.096C916.286 516.305 915.642 517.298 915.837 518.308C915.939 518.845 916.269 519.31 916.735 519.575L916.862 519.35C916.464 519.126 916.176 518.725 916.091 518.26C915.922 517.387 916.472 516.529 917.32 516.353Z" fill="black"/>
<path d="M920.058 513.115C922.346 511.488 932.357 504.155 932.458 504.082L932.314 503.874C932.212 503.946 922.202 511.28 919.922 512.907C917.6 514.558 917.193 516.137 917.176 516.201L917.422 516.265C917.422 516.241 917.829 514.702 920.058 513.115Z" fill="black"/>
<path d="M943.494 355.688L926.169 342.929L905.92 378.466L860.65 388.966L852.665 402.286C852.665 402.286 905.462 402.455 913.811 397.493C922.16 392.524 943.494 355.688 943.494 355.688Z" fill="#EA805C"/>
<path d="M919.244 334.641C918.456 336.853 915.328 357.091 915.328 357.091L920.507 359.463L920.083 333.167C920.083 333.167 919.363 334.313 919.244 334.641Z" fill="#22818E"/>
<path d="M936.662 423.1C941.222 424.719 986.984 409.115 985.569 402.366C984.391 396.772 954.275 354.277 939.248 334.986C936.154 331.01 927.737 323.917 924.728 324.19C914.735 325.103 900.75 338.713 910.336 362.781C914.548 373.369 932.094 421.473 936.662 423.1Z" fill="#45AFC9"/>
<path d="M922.126 391.731L921.406 392.011L929.186 411.023L929.907 410.742L922.126 391.731Z" fill="black"/>
<path d="M936.578 422.716L936.73 423.477C941.562 422.596 945.927 421.658 949.868 420.688C979.042 413.499 984.899 404.538 985.798 402.791C985.823 402.783 985.84 402.775 985.849 402.767C986.264 402.519 986.298 402.495 982.229 395.121C977.644 386.802 952.818 352.426 944.155 340.765C935.942 329.704 930.611 326.707 930.382 326.579L930.017 327.252C930.068 327.284 935.442 330.322 943.528 341.214C952.182 352.867 976.983 387.194 981.543 395.482C984.17 400.243 984.942 401.781 985.171 402.278C984.721 403.224 978.22 415.102 936.578 422.716Z" fill="black"/>
<path d="M917.295 327.749L916.845 327.107C916.761 327.164 908.759 332.654 906.903 344.251C906.895 344.387 906.2 354.678 913.065 371.606L913.786 371.325C906.988 354.59 907.666 344.459 907.674 344.355C909.48 333.11 917.21 327.805 917.295 327.749Z" fill="black"/>
<path d="M971.516 394.744L970.1 403.088L970.872 403.224L972.279 394.888L971.516 394.744Z" fill="black"/>
<path d="M974.042 399.529L972.635 407.873L973.397 408.017L974.813 399.674L974.042 399.529Z" fill="black"/>
<path d="M915.913 400.042C924.525 395.105 936.993 356.923 936.993 356.923L912.091 345.397L903.547 380.951L860.243 391.475L852.708 404.611C852.699 404.619 907.302 404.979 915.913 400.042Z" fill="#F5956E"/>
<path d="M856.242 400.018L860.887 402.799L874.822 403.457L876.195 387.94C876.195 387.94 862.472 391.17 860.946 391.322C859.421 391.474 849.368 391.907 846.961 393.727C844.554 395.546 845.13 397.998 844.901 400.411C844.842 401.012 845.783 404.763 847.08 404.899C848.368 405.035 856.242 400.018 856.242 400.018Z" fill="#F5956E"/>
<path d="M856.098 403.6C856.361 401.172 854.598 398.984 852.157 398.727C849.715 398.463 847.529 400.226 847.266 402.655C847.003 405.083 848.766 407.271 851.207 407.528C853.648 407.792 855.835 406.037 856.098 403.6Z" fill="#C61647"/>
<path d="M911.455 550.504C911.412 549.943 910.912 549.518 910.344 549.566C909.776 549.614 909.353 550.103 909.395 550.664C909.437 551.225 909.937 551.65 910.505 551.602C911.073 551.562 911.497 551.073 911.455 550.504Z" fill="#4A263E"/>
<path d="M927.313 520.424L946.562 517.394C947.656 517.218 948.41 516.192 948.232 515.102C948.063 514.004 947.029 513.259 945.927 513.435L926.678 516.465C925.584 516.641 924.83 517.667 925.008 518.757C925.186 519.847 926.22 520.592 927.313 520.424Z" fill="#C61647"/>
<path d="M941.858 355.816L910.895 342.287C910.505 342.039 904.784 367.879 904.784 367.879C904.784 367.879 922.253 377.601 929.916 378.955C937.561 380.302 941.858 355.816 941.858 355.816Z" fill="#45AFC9"/>
<path d="M974.389 437.791C988.824 425.024 981.645 407.407 981.645 407.407L932.814 417.281C932.814 417.281 906.022 426.242 904.53 429.696C900.868 438.152 930.543 501.228 930.543 501.228C938.18 500.507 949.919 495.49 949.919 495.49C943.274 472.768 936.62 447.024 936.62 447.024C936.62 447.024 961.311 449.357 974.389 437.791Z" fill="#F57583"/>
<path d="M916.761 332.67L916.117 332.221C916.066 332.285 910.98 338.914 908.302 350.591C905.64 362.197 904.394 367.743 904.386 367.799L904.326 368.055L904.564 368.192C904.708 368.28 919.363 377.016 929.297 379.212L929.627 379.284L929.754 378.996C929.805 378.883 934.704 367.855 935.933 361.732L935.145 361.587C934.043 367.07 929.932 376.607 929.144 378.402C920.032 376.279 907.115 368.809 905.216 367.695C905.488 366.476 906.734 360.954 909.073 350.751C911.726 339.242 916.71 332.734 916.761 332.67Z" fill="#1D1D1B"/>
<path d="M639.126 520.757L640.285 516.358L641.761 510.736H571.063L570.145 514.045L568.216 521.013H639.056L639.126 520.757Z" fill="#F75553"/>
<g opacity="0.5">
<g opacity="0.5">
<g opacity="0.5">
<path opacity="0.5" d="M583.066 521.013H604.345C605.244 520.79 606.15 520.568 607.05 520.34C610.885 519.389 615.09 518.46 618.695 520.028C619.371 520.323 620.065 520.707 620.765 521.007H624.358C624.841 520.69 625.258 520.268 625.729 519.928C628.017 518.299 631.245 518.772 633.986 519.539C635.662 520.012 637.397 520.568 639.12 520.751L640.279 516.352C637.197 514.245 632.727 514.011 629.487 515.941C628.834 516.33 628.228 516.797 627.523 517.098C626.399 517.576 625.123 517.598 623.888 517.593C622.324 517.581 620.741 517.542 619.248 517.098C617.413 516.553 615.772 515.413 613.866 515.151C610.696 514.717 607.779 516.764 604.639 517.326C600.387 518.088 596.17 516.091 592.417 514.044C590.147 512.81 587.789 511.503 585.319 510.73H571.057L570.139 514.039C571.186 514.656 572.433 515.079 573.621 515.34C576.25 515.919 579.197 516.236 581.026 518.115C581.867 518.972 582.366 520.062 583.066 521.013Z" fill="#F75553"/>
</g>
</g>
</g>
<path d="M641.855 510.758L641.673 510.714L638.985 520.924H568.216V521.102H639.132L641.855 510.758Z" fill="black"/>
<path d="M639.873 497.095C640.05 496.855 639.991 496.527 639.738 496.355L637.056 494.069C636.892 493.958 636.492 494.019 636.186 494.147C632.892 494.436 632.387 494.509 631.504 494.664L632.216 497.94C632.422 498.885 632.445 499.858 632.281 500.809L632.24 501.049C632.187 501.349 632.416 501.632 632.739 501.66C633.039 501.688 633.298 501.477 633.351 501.199L633.645 499.464C633.657 499.408 633.698 499.369 633.757 499.358C633.839 499.347 633.922 499.408 633.916 499.486L633.839 502.077C633.827 502.378 634.074 502.578 634.386 502.528C634.698 502.478 634.957 502.194 634.968 501.894L635.045 499.247C635.045 499.186 635.092 499.135 635.157 499.124L635.204 499.119C635.28 499.108 635.351 499.152 635.362 499.224L635.886 502.116C635.939 502.394 636.203 502.6 636.498 502.572C636.821 502.539 637.044 502.255 636.992 501.955L636.468 499.047C636.456 498.974 636.503 498.907 636.58 498.896L636.721 498.874C636.792 498.863 636.856 498.902 636.874 498.963L637.733 501.582C637.821 501.855 638.115 502.027 638.403 501.961C638.721 501.888 638.903 501.577 638.809 501.288C638.809 501.288 637.733 497.222 637.615 496.577L639.091 497.217C639.344 497.389 639.697 497.334 639.873 497.095Z" fill="#FE9F73"/>
<path d="M636.88 477.013C636.88 477.013 629.346 473.454 628.311 475.322C627.276 477.191 631.675 495.426 631.675 495.426L637.415 494.369L636.88 477.013Z" fill="#FE9F73"/>
<path d="M623.435 421.518C623.376 421.518 623.324 421.484 623.306 421.434L622.647 419.794C622.541 419.527 622.241 419.376 621.953 419.454C621.642 419.543 621.477 419.866 621.594 420.149L621.683 420.377C622.041 421.278 622.23 422.235 622.23 423.203L622.224 426.545C623.118 426.528 623.629 426.5 626.917 426.161C627.246 426.222 627.646 426.211 627.787 426.072L629.934 423.325C630.146 423.114 630.134 422.774 629.911 422.574C629.681 422.374 629.328 422.385 629.117 422.602L627.805 423.508C627.782 422.852 627.97 418.665 627.97 418.665C627.999 418.359 627.758 418.092 627.429 418.081C627.129 418.07 626.882 418.298 626.852 418.576L626.57 421.306C626.564 421.373 626.505 421.423 626.441 421.423L626.294 421.429C626.217 421.434 626.152 421.373 626.152 421.306L626.047 418.353C626.035 418.047 625.758 417.814 625.429 417.842C625.129 417.869 624.917 418.125 624.923 418.403L625.023 421.334C625.023 421.406 624.964 421.467 624.894 421.467H624.847C624.782 421.467 624.723 421.429 624.712 421.367L624.076 418.793C624.006 418.503 623.688 418.275 623.377 418.286C623.065 418.298 622.865 418.542 622.935 418.831L623.559 421.356C623.582 421.434 623.518 421.512 623.435 421.518Z" fill="#FE9F73"/>
<path d="M631.228 442.811L628.07 425.705L622.224 425.761C622.224 425.761 621.783 444.457 623.194 446.092C624.606 447.727 631.228 442.811 631.228 442.811Z" fill="#FE9F73"/>
<path d="M623.929 508.239L618.013 508.94L618.095 514.24L624.041 514.162L623.929 508.239Z" fill="#F9B59D"/>
<path d="M587.266 512.811L588.648 508.94L582.725 508.239L580.749 512.672L587.183 514.24L587.266 512.811Z" fill="#F9B59D"/>
<path d="M597.129 490.527C598.352 488.163 604.727 481.84 604.727 481.84L615.443 493.463L617.084 510.397C617.084 510.397 618.919 511.031 621.024 511.031C623.059 511.031 624.859 510.397 624.859 510.397C624.859 510.397 625.47 492.918 625.235 492.095C623.876 487.407 616.725 478.709 616.725 478.709C616.725 478.709 609.203 465.507 607.291 464.834C605.38 464.155 598.828 464.834 598.828 464.834C598.828 464.834 592.277 471.257 589.06 481.395C585.843 491.533 582.031 509.112 582.031 509.112C582.031 509.112 585.366 510.803 589.418 509.112C589.412 509.112 595.905 492.89 597.129 490.527Z" fill="#45AFC9"/>
<path d="M596.946 465.462C600.669 470.479 616.725 478.715 616.725 478.715C619.983 475.356 625.847 471.691 626.494 471.78C627.146 471.869 627.517 480.166 627.517 480.166C632.075 481.017 638.315 479.521 638.591 479.521C638.874 479.521 636.139 461.659 636.139 461.659L634.774 455.046L631.893 442.912C628.076 441.766 621.677 444.441 621.677 444.441L623.235 450.92C606.95 452.777 596.946 465.462 596.946 465.462Z" fill="#F5C786"/>
<path d="M636.139 461.664C636.139 461.664 636.045 458.021 634.774 455.052C634.774 455.052 633.733 456.587 634.18 458.739C634.621 460.891 636.139 461.664 636.139 461.664Z" fill="#FE9F73"/>
<path d="M627.535 480.06C627.47 480.055 627.411 480.099 627.405 480.155C627.399 480.21 627.44 480.272 627.505 480.277C628.728 480.416 629.911 480.472 631.022 480.472C635.345 480.472 638.585 479.643 638.621 479.632L638.709 479.61V479.526C638.685 477.163 636.644 464.65 636.627 464.522C636.615 464.461 636.556 464.422 636.497 464.428C636.433 464.439 636.392 464.495 636.397 464.556C636.415 464.678 638.403 476.89 638.474 479.443C637.78 479.61 633.022 480.678 627.535 480.06Z" fill="black"/>
<path d="M616.813 478.787C621.112 474.11 626.788 471.613 627.082 471.563C627.146 471.563 627.193 471.513 627.193 471.452C627.193 471.39 627.135 471.34 627.07 471.34C626.87 471.34 621.106 473.776 616.637 478.637C616.595 478.681 616.601 478.753 616.648 478.792C616.672 478.809 616.695 478.82 616.725 478.82C616.754 478.826 616.79 478.815 616.813 478.787Z" fill="black"/>
<path d="M631.834 443.012C631.887 443.04 631.957 443.023 631.992 442.973C632.028 442.917 632.004 442.856 631.951 442.823C631.845 442.767 629.334 441.482 621.636 444.346L621.542 444.38L621.565 444.474C621.583 444.541 623.341 450.986 623.271 451.921C623.265 451.982 623.312 452.032 623.377 452.038C623.382 452.038 623.382 452.038 623.382 452.038C623.441 452.038 623.494 451.993 623.5 451.937C623.571 451.02 622.042 445.353 621.812 444.513C629.305 441.744 631.81 443.001 631.834 443.012Z" fill="black"/>
<path d="M604.339 458.722C608.55 455.552 615.249 451.648 623.247 451.036C623.312 451.031 623.359 450.981 623.353 450.919C623.347 450.858 623.294 450.814 623.23 450.819C615.172 451.437 608.427 455.368 604.192 458.561C599.605 462.014 596.882 465.367 596.858 465.401L596.805 465.468L596.858 465.534C596.882 465.562 599.099 468.415 604.163 471.551C604.18 471.563 604.204 471.568 604.227 471.568C604.263 471.568 604.304 471.551 604.327 471.518C604.363 471.468 604.345 471.401 604.292 471.368C599.693 468.515 597.464 465.907 597.099 465.468C597.499 464.978 600.128 461.892 604.339 458.722Z" fill="black"/>
<path d="M604.416 460.285C604.886 459.745 605.815 458.961 605.821 458.956C605.868 458.917 605.874 458.844 605.833 458.8C605.792 458.755 605.715 458.75 605.668 458.789C605.627 458.822 604.721 459.59 604.239 460.14C604.198 460.185 604.204 460.257 604.257 460.296C604.28 460.313 604.304 460.324 604.333 460.324C604.363 460.324 604.398 460.307 604.416 460.285Z" fill="black"/>
<path d="M604.657 461.024C605.127 460.485 606.056 459.701 606.062 459.695C606.109 459.656 606.115 459.584 606.074 459.54C606.033 459.495 605.956 459.49 605.909 459.528C605.868 459.562 604.962 460.329 604.48 460.88C604.439 460.924 604.445 460.997 604.498 461.036C604.521 461.052 604.545 461.063 604.574 461.063C604.598 461.063 604.633 461.052 604.657 461.024Z" fill="black"/>
<path d="M581.978 509.213C583.296 509.802 584.566 510.002 585.678 510.002C587.883 510.002 589.448 509.224 589.471 509.213L589.506 509.196L595.952 493.441C596.411 492.479 597.634 489.915 597.781 489.704C599.999 486.973 604.427 482.319 604.792 481.935L607.509 481.295C607.574 481.279 607.609 481.223 607.591 481.162C607.574 481.106 607.515 481.067 607.45 481.084L604.662 481.74L604.639 481.762C604.592 481.812 599.899 486.729 597.587 489.576C597.399 489.854 595.799 493.213 595.735 493.358L589.318 509.04C588.936 509.218 585.684 510.636 582.073 509.018C582.014 508.99 581.943 509.012 581.92 509.068C581.896 509.124 581.92 509.19 581.978 509.213Z" fill="black"/>
<path d="M616.972 510.408L616.978 510.474L617.042 510.497C617.066 510.508 618.636 511.058 620.948 511.058C622.112 511.058 623.459 510.919 624.894 510.497C624.953 510.48 624.988 510.419 624.97 510.358C624.953 510.296 624.888 510.269 624.823 510.285C620.936 511.42 617.689 510.469 617.19 510.308C617.019 508.773 615.566 493.596 615.555 493.44L615.549 493.407L604.81 481.756C604.768 481.712 604.692 481.706 604.645 481.745C604.598 481.784 604.592 481.857 604.633 481.901L615.319 493.496C615.408 494.347 616.848 509.368 616.972 510.408Z" fill="black"/>
<path d="M587.272 512.966C587.272 512.966 586.354 511.798 584.96 512.393C584.96 512.393 582.849 513.806 580.991 512.093L576.374 514.028C576.374 514.028 574.68 514.562 574.68 515.391H587.266V512.966H587.272Z" fill="#FEC786"/>
<path d="M587.319 512.966H587.225V515.03H587.319V512.966Z" fill="black"/>
<path d="M584.937 512.36C583.902 513.034 582.808 512.889 582.802 512.889L582.79 512.978C582.796 512.978 582.902 512.995 583.078 512.995C583.484 512.995 584.249 512.922 584.996 512.438L584.937 512.36Z" fill="black"/>
<path d="M586.711 514.237L586.12 514.614L586.173 514.688L586.764 514.311L586.711 514.237Z" fill="black"/>
<path d="M586.26 514.128L585.672 514.501L585.725 514.573L586.313 514.201L586.26 514.128Z" fill="black"/>
<path d="M587.313 516.242C587.448 516.242 587.56 516.136 587.56 516.008V515.307C587.56 515.179 587.448 515.074 587.313 515.074H574.757C574.415 515.074 574.139 515.335 574.139 515.658C574.139 515.98 574.415 516.242 574.757 516.242H587.313Z" fill="#683D46"/>
<path d="M575.956 514.24C576.886 513.867 580.967 512.154 581.008 512.137L580.973 512.06C580.932 512.076 576.85 513.789 575.921 514.162C574.974 514.54 574.721 515.035 574.715 515.052L574.798 515.09C574.798 515.085 575.051 514.607 575.956 514.24Z" fill="black"/>
<path d="M579.385 512.816C579.167 512.905 578.944 512.999 578.714 513.094C579.144 513.728 579.667 514.507 580.044 515.057H580.902C580.555 514.54 579.908 513.583 579.385 512.816Z" fill="#D7E4F7"/>
<path d="M580.461 512.365C580.273 512.443 580.044 512.538 579.791 512.643C580.244 513.311 580.949 514.356 581.42 515.051H582.279C581.849 514.417 580.996 513.16 580.461 512.365Z" fill="#D7E4F7"/>
<path d="M587.613 515.947V515.363C587.613 515.179 587.454 515.023 587.254 515.023H574.756C574.392 515.023 574.092 515.307 574.092 515.652C574.092 515.835 574.174 516.013 574.327 516.13L574.386 516.063C574.257 515.963 574.186 515.808 574.186 515.652C574.186 515.352 574.445 515.112 574.756 515.112H587.254C587.401 515.112 587.519 515.224 587.519 515.363V515.947H587.613Z" fill="black"/>
<path d="M628.511 514.034L623.894 512.099C622.036 513.812 619.93 512.399 619.93 512.399C618.536 511.804 617.619 512.972 617.619 512.972V515.402H630.205C630.205 514.568 628.511 514.034 628.511 514.034Z" fill="#FEC786"/>
<path d="M617.666 512.966H617.572V515.03H617.666V512.966Z" fill="black"/>
<path d="M622.094 512.889C622.083 512.889 620.995 513.034 619.96 512.36L619.907 512.432C620.648 512.917 621.418 512.989 621.824 512.989C622 512.989 622.106 512.972 622.112 512.972L622.094 512.889Z" fill="black"/>
<path d="M618.209 514.218L618.156 514.292L618.746 514.67L618.799 514.596L618.209 514.218Z" fill="black"/>
<path d="M618.63 514.128L618.577 514.201L619.165 514.573L619.218 514.501L618.63 514.128Z" fill="black"/>
<path d="M630.134 516.242C630.475 516.242 630.752 515.98 630.752 515.658C630.752 515.335 630.475 515.074 630.134 515.074H617.572C617.436 515.074 617.325 515.179 617.325 515.307V516.008C617.325 516.136 617.436 516.242 617.572 516.242H630.134Z" fill="#683D46"/>
<path d="M630.093 515.091L630.175 515.052C630.163 515.029 629.911 514.54 628.97 514.156C628.04 513.784 623.959 512.071 623.918 512.054L623.882 512.132C623.923 512.149 628.011 513.862 628.934 514.24C629.84 514.607 630.093 515.085 630.093 515.091Z" fill="black"/>
<path d="M625.506 512.816C624.988 513.583 624.341 514.54 623.988 515.057H624.847C625.217 514.507 625.747 513.734 626.176 513.094C625.941 512.999 625.717 512.905 625.506 512.816Z" fill="#D7E4F7"/>
<path d="M624.429 512.365C623.894 513.155 623.041 514.417 622.606 515.057H623.465C623.935 514.362 624.641 513.316 625.094 512.649C624.847 512.543 624.617 512.449 624.429 512.365Z" fill="#D7E4F7"/>
<path d="M630.563 516.136C630.71 516.019 630.799 515.841 630.799 515.658C630.799 515.313 630.499 515.029 630.134 515.029H617.636C617.442 515.029 617.278 515.179 617.278 515.369V515.952H617.372V515.369C617.372 515.229 617.489 515.118 617.636 515.118H630.134C630.452 515.118 630.704 515.363 630.704 515.658C630.704 515.819 630.634 515.969 630.504 516.069L630.563 516.136Z" fill="black"/>
<path d="M645.119 459.039C646.307 458.728 647.166 457.738 647.237 456.581C647.36 454.573 645.825 452.755 645.825 452.755C645.825 452.755 644.449 452.327 644.29 452.288C644.131 452.254 644.843 453.027 644.843 453.027L643.961 459.345L645.119 459.039Z" fill="#FE9F73"/>
<path d="M635.733 460.318L637.985 459.434C638.632 460.824 640.356 460.29 640.356 460.29L645.249 459L645.384 452.583L639.368 453.967L637.844 454.423C637.844 454.423 634.592 454.835 633.974 455.146C633.357 455.458 632.31 456.698 632.798 458.349C632.951 458.872 633.18 459.306 633.422 459.656C633.922 460.379 634.892 460.646 635.733 460.318Z" fill="#FE9F73"/>
<path d="M642.608 457.32C642.643 457.337 642.69 457.32 642.708 457.282C643.19 456.225 641.885 455.546 641.873 455.541C641.838 455.524 641.791 455.535 641.773 455.569C641.761 455.585 641.761 455.602 641.767 455.624C641.773 455.641 641.785 455.658 641.802 455.669C641.849 455.691 642.996 456.292 642.573 457.232C642.555 457.259 642.573 457.304 642.608 457.32Z" fill="#E2F2F1"/>
<path d="M643.62 459.334C643.655 459.35 643.702 459.334 643.72 459.3C643.973 458.783 643.184 458.283 643.155 458.266C643.12 458.244 643.073 458.255 643.049 458.288C643.037 458.305 643.032 458.327 643.037 458.349C643.043 458.366 643.055 458.377 643.067 458.388C643.073 458.394 643.778 458.844 643.579 459.245C643.567 459.278 643.584 459.317 643.62 459.334Z" fill="#E2F2F1"/>
<path d="M641.879 457.093C641.997 457.06 642.067 456.943 642.038 456.831C642.002 456.714 641.879 456.648 641.761 456.681C641.638 456.714 641.567 456.831 641.602 456.948C641.638 457.054 641.761 457.121 641.879 457.093Z" fill="black"/>
<path d="M642.749 459.228C642.873 459.195 642.938 459.078 642.908 458.961C642.873 458.85 642.749 458.783 642.632 458.811C642.508 458.844 642.438 458.961 642.473 459.078C642.502 459.195 642.626 459.261 642.749 459.228Z" fill="black"/>
<path d="M645.384 452.682L645.902 452.727C645.902 452.727 645.472 450.953 643.726 450.936C641.979 450.92 641.344 451.904 640.867 452.043C640.391 452.188 637.044 452.733 637.927 454.829L643.473 453.995L645.384 452.682Z" fill="#F8FFFF"/>
<path d="M641.455 455.363C642.179 455.174 642.602 454.462 642.402 453.778C642.202 453.094 641.45 452.694 640.726 452.883C640.003 453.072 639.579 453.784 639.779 454.468C639.979 455.157 640.732 455.552 641.455 455.363Z" fill="#FE9F73"/>
<path d="M641.179 453.689C641.003 453.533 640.744 453.522 640.52 453.65C640.332 453.761 640.179 453.989 640.256 454.245V454.251C640.262 454.268 640.285 454.279 640.303 454.273C640.32 454.268 640.332 454.245 640.326 454.229V454.223C640.256 453.984 640.409 453.8 640.562 453.711C640.709 453.628 640.944 453.584 641.126 453.739C641.455 454.028 641.244 454.401 641.232 454.418L641.167 454.529L641.285 454.468C641.497 454.357 641.626 454.206 641.667 454.023C641.744 453.711 641.538 453.417 641.532 453.406C641.52 453.389 641.497 453.383 641.479 453.394C641.461 453.406 641.456 453.428 641.467 453.445C641.467 453.45 641.661 453.723 641.591 454.006C641.561 454.134 641.473 454.251 641.344 454.34C641.397 454.195 641.444 453.917 641.179 453.689Z" fill="#F07162"/>
<path d="M636.321 460.084L637.98 459.434C637.98 459.434 636.845 457.32 638.474 455.691C638.48 455.691 635.58 456.558 636.321 460.084Z" fill="#F07162"/>
<path d="M642.626 454.64C642.973 454.518 643.267 454.295 643.467 454L642.508 454.145L639.309 455.024C637.809 455.619 636.004 456.425 637.109 459.523C637.88 461.686 641.25 460.313 641.25 460.313C641.444 459.734 639.762 456.108 639.815 455.819C639.856 455.613 641.879 454.907 642.626 454.64Z" fill="#F8FFFF"/>
<path d="M642.82 458.199C642.838 458.194 642.849 458.172 642.838 458.155C642.832 458.138 642.808 458.127 642.791 458.138L641.138 458.811L640.691 458.183C640.679 458.166 640.656 458.161 640.638 458.172C640.626 458.183 640.62 458.199 640.62 458.211C640.62 458.216 640.626 458.216 640.626 458.222L641.108 458.9L642.82 458.199Z" fill="#F07162"/>
<path d="M639.956 454.073L637.415 454.479L637.586 455.318L640.056 454.668L639.956 454.073Z" fill="#FE9F73"/>
<path d="M643.39 454.023C644.902 452.905 646.043 453.044 646.043 453.044C646.072 451.654 643.52 452.149 643.52 452.149C643.52 452.149 641.879 455.135 643.39 454.023Z" fill="#F8FFFF"/>
<path d="M648.266 456.158C648.319 455.446 647.637 454.785 647.184 454.456C646.884 454.24 646.455 454.267 646.255 454.49C645.584 455.241 645.749 456.714 646.602 457.365C647.619 458.138 647.584 456.909 647.584 456.909C647.584 456.909 648.213 456.898 648.266 456.158Z" fill="#F8FFFF"/>
<path d="M640.032 457.449C640.05 457.432 640.044 457.399 640.026 457.376C640.003 457.36 639.973 457.365 639.95 457.382C639.938 457.393 639.926 457.41 639.92 457.421C639.326 458.177 639.909 458.844 639.915 458.85C639.932 458.872 639.967 458.872 639.991 458.856C640.015 458.839 640.015 458.805 639.997 458.783C639.973 458.761 639.462 458.172 640.009 457.476C640.009 457.476 640.02 457.46 640.032 457.449Z" fill="#F07162"/>
</g>
<defs>
<clipPath id="clip0_312_108">
<rect width="1280" height="650" fill="white"/>
</clipPath>
</defs>
</svg>
