<svg width="75" height="75" viewBox="0 0 75 75" fill="none" xmlns="http://www.w3.org/2000/svg">
<g clip-path="url(#clip0_1988_17690)">
<path d="M47.3482 48.1085C47.3482 47.4278 46.7956 46.8752 46.1149 46.8752C45.4341 46.8752 44.8816 47.4278 44.8816 48.1085V50.5752C44.8816 51.256 45.4341 51.8085 46.1149 51.8085C46.7956 51.8085 47.3482 51.256 47.3482 50.5752V48.1085Z" fill="#6BCDB2"/>
<path d="M46.1148 61.6753C45.434 61.6753 44.8815 62.2278 44.8815 62.9086V67.8419C44.8815 68.5226 45.434 69.0751 46.1148 69.0751C46.7955 69.0751 47.348 68.5226 47.348 67.8419V62.9086C47.3482 62.2278 46.7956 61.6753 46.1148 61.6753Z" fill="#6BCDB2"/>
<path d="M52.2814 33.3085C52.2814 32.6277 51.7288 32.0752 51.0481 32.0752C50.3674 32.0752 49.8148 32.6277 49.8148 33.3085V35.7752C49.8148 36.4559 50.3674 37.0085 51.0481 37.0085C51.7288 37.0085 52.2814 36.4559 52.2814 35.7752V33.3085Z" fill="#6BCDB2"/>
<path d="M47.3482 40.7086C47.3482 40.0279 46.7956 39.4753 46.1149 39.4753C45.4341 39.4753 44.8816 40.0279 44.8816 40.7086V43.1753C44.8816 43.8561 45.4341 44.4086 46.1149 44.4086C46.7956 44.4086 47.3482 43.8561 47.3482 43.1753V40.7086Z" fill="#6BCDB2"/>
<path d="M47.3482 55.5084C47.3482 54.8277 46.7956 54.2751 46.1149 54.2751C45.4342 54.2751 44.8815 54.8277 44.8815 55.5084V57.9751C44.8815 58.6559 45.434 59.2084 46.1148 59.2084C46.7955 59.2084 47.348 58.6559 47.348 57.9751V55.5084H47.3482Z" fill="#6BCDB2"/>
<path d="M52.2814 40.7086C52.2814 40.0279 51.7288 39.4753 51.0481 39.4753C50.3674 39.4753 49.8148 40.0279 49.8148 40.7086V43.1753C49.8148 43.8561 50.3674 44.4086 51.0481 44.4086C51.7288 44.4086 52.2814 43.8561 52.2814 43.1753V40.7086Z" fill="#6BCDB2"/>
<path d="M42.4147 33.3085C42.4147 32.6277 41.8622 32.0752 41.1814 32.0752C40.5007 32.0752 39.9481 32.6277 39.9481 33.3085V35.7752C39.9481 36.4559 40.5007 37.0085 41.1814 37.0085C41.8622 37.0085 42.4147 36.4559 42.4147 35.7752V33.3085Z" fill="#6BCDB2"/>
<path d="M47.3482 33.3085C47.3482 32.6277 46.7956 32.0752 46.1149 32.0752C45.4341 32.0752 44.8816 32.6277 44.8816 33.3085V35.7752C44.8816 36.4559 45.4341 37.0085 46.1149 37.0085C46.7956 37.0085 47.3482 36.4559 47.3482 35.7752V33.3085Z" fill="#6BCDB2"/>
<path d="M52.2814 20.9751V18.5084C52.2814 17.8277 51.7288 17.2751 51.0481 17.2751C50.3674 17.2751 49.8148 17.8277 49.8148 18.5084V20.9751C49.8148 21.6559 50.3674 22.2084 51.0481 22.2084C51.7288 22.2084 52.2814 21.6559 52.2814 20.9751Z" fill="#6BCDB2"/>
<path d="M42.4147 40.7086C42.4147 40.0279 41.8622 39.4753 41.1814 39.4753C40.5007 39.4753 39.9481 40.0279 39.9481 40.7086V43.1753C39.9481 43.8561 40.5007 44.4086 41.1814 44.4086C41.8622 44.4086 42.4147 43.8561 42.4147 43.1753V40.7086Z" fill="#6BCDB2"/>
<path d="M57.2147 18.5084C57.2147 17.8277 56.6622 17.2751 55.9815 17.2751C55.3007 17.2751 54.7482 17.8277 54.7482 18.5084V20.9751C54.7482 21.6559 55.3007 22.2084 55.9815 22.2084C56.6622 22.2084 57.2147 21.6559 57.2147 20.9751V18.5084Z" fill="#6BCDB2"/>
<path d="M41.1814 46.8752C40.5007 46.8752 39.9481 47.4278 39.9481 48.1085V50.5752C39.9481 51.256 40.5007 51.8085 41.1814 51.8085C41.8622 51.8085 42.4147 51.256 42.4147 50.5752V48.1085C42.4147 47.4278 41.8622 46.8752 41.1814 46.8752Z" fill="#6BCDB2"/>
<path d="M62.1481 55.5084C62.1481 54.8277 61.5956 54.2751 60.9148 54.2751C60.2341 54.2751 59.6814 54.8277 59.6814 55.5084V57.9751C59.6814 58.6559 60.2339 59.2084 60.9147 59.2084C61.5954 59.2084 62.148 58.6559 62.148 57.9751V55.5084H62.1481Z" fill="#6BCDB2"/>
<path d="M60.9147 61.6753C60.2339 61.6753 59.6814 62.2278 59.6814 62.9086V67.8419C59.6814 68.5226 60.2339 69.0751 60.9147 69.0751C61.5954 69.0751 62.148 68.5226 62.148 67.8419V62.9086C62.1481 62.2278 61.5956 61.6753 60.9147 61.6753Z" fill="#6BCDB2"/>
<path d="M65.8482 46.8752C65.1674 46.8752 64.6149 47.4278 64.6149 48.1085V50.5752C64.6149 51.256 65.1674 51.8085 65.8482 51.8085C66.5289 51.8085 67.0814 51.256 67.0814 50.5752V48.1085C67.0814 47.4278 66.5289 46.8752 65.8482 46.8752Z" fill="#6BCDB2"/>
<path d="M46.1148 22.2084C46.7955 22.2084 47.348 21.6559 47.348 20.9752V15.7717L59.6815 12.6883V33.3084C59.6815 33.8227 60.0009 34.2827 60.4819 34.4641L69.5482 37.8632V50.5752C69.5482 51.2559 70.1007 51.8084 70.7815 51.8084C71.4622 51.8084 72.0148 51.2559 72.0148 50.5752V37.0084C72.0148 36.4942 71.6953 36.0342 71.2143 35.8528L62.148 32.4537V8.64173C62.148 7.96099 61.5955 7.40845 60.9148 7.40845C60.234 7.40845 59.6815 7.96099 59.6815 8.64173V10.1451L45.8151 13.612C45.2664 13.7489 44.8815 14.2423 44.8815 14.8083V20.975C44.8815 21.6559 45.434 22.2084 46.1148 22.2084Z" fill="#6BCDB2"/>
<path d="M67.0814 40.7086C67.0814 40.0279 66.5289 39.4753 65.8482 39.4753C65.1674 39.4753 64.6149 40.0279 64.6149 40.7086V43.1753C64.6149 43.8561 65.1674 44.4086 65.8482 44.4086C66.5289 44.4086 67.0814 43.8561 67.0814 43.1753V40.7086Z" fill="#6BCDB2"/>
<path d="M62.1482 40.7086C62.1482 40.0279 61.5957 39.4753 60.9149 39.4753C60.2342 39.4753 59.6816 40.0279 59.6816 40.7086V43.1753C59.6816 43.8561 60.2342 44.4086 60.9149 44.4086C61.5957 44.4086 62.1482 43.8561 62.1482 43.1753V40.7086Z" fill="#6BCDB2"/>
<path d="M52.2814 55.5084C52.2814 54.8277 51.7288 54.2751 51.0481 54.2751C50.3674 54.2751 49.8148 54.8277 49.8148 55.5084V57.9751C49.8148 58.6559 50.3674 59.2084 51.0481 59.2084C51.7288 59.2084 52.2814 58.6559 52.2814 57.9751V55.5084Z" fill="#6BCDB2"/>
<path d="M62.1482 48.1085C62.1482 47.4278 61.5957 46.8752 60.9149 46.8752C60.2342 46.8752 59.6816 47.4278 59.6816 48.1085V50.5752C59.6816 51.256 60.2342 51.8085 60.9149 51.8085C61.5957 51.8085 62.1482 51.256 62.1482 50.5752V48.1085Z" fill="#6BCDB2"/>
<path d="M51.0481 61.6753C50.3674 61.6753 49.8148 62.2278 49.8148 62.9086V67.8419C49.8148 68.5226 50.3674 69.0751 51.0481 69.0751C51.7288 69.0751 52.2814 68.5226 52.2814 67.8419V62.9086C52.2814 62.2278 51.7288 61.6753 51.0481 61.6753Z" fill="#6BCDB2"/>
<path d="M52.2814 48.1085C52.2814 47.4278 51.7288 46.8752 51.0481 46.8752C50.3674 46.8752 49.8148 47.4278 49.8148 48.1085V50.5752C49.8148 51.256 50.3674 51.8085 51.0481 51.8085C51.7288 51.8085 52.2814 51.256 52.2814 50.5752V48.1085Z" fill="#6BCDB2"/>
<path d="M55.9815 69.0754C56.6622 69.0754 57.2148 68.5228 57.2148 67.8421V28.3754C57.2148 27.8092 56.8287 27.3159 56.2811 27.1791L36.5478 22.2456C36.1816 22.1531 35.788 22.237 35.4896 22.4701C35.1898 22.7032 35.0148 23.0621 35.0148 23.4419V50.5752C35.0148 51.256 35.5673 51.8085 36.2481 51.8085C36.9288 51.8085 37.4813 51.256 37.4813 50.5752V25.0219L54.7481 29.3387V67.8421C54.7482 68.5228 55.3007 69.0754 55.9815 69.0754Z" fill="#6BCDB2"/>
<path d="M27.6148 25.9086C27.6148 25.2278 27.0622 24.6753 26.3815 24.6753C25.7007 24.6753 25.1482 25.2278 25.1482 25.9086V28.3753C25.1482 29.056 25.7007 29.6086 26.3815 29.6086C27.0622 29.6086 27.6148 29.056 27.6148 28.3753V25.9086Z" fill="#6BCDB2"/>
<path d="M27.6148 18.5084C27.6148 17.8277 27.0622 17.2751 26.3815 17.2751C25.7007 17.2751 25.1482 17.8277 25.1482 18.5084V20.9751C25.1482 21.6559 25.7007 22.2084 26.3815 22.2084C27.0622 22.2084 27.6148 21.6559 27.6148 20.9751V18.5084Z" fill="#6BCDB2"/>
<path d="M17.7482 55.5084C17.7482 54.8277 17.1957 54.2751 16.5149 54.2751C15.8342 54.2751 15.2815 54.8277 15.2815 55.5084V57.9751C15.2815 58.6559 15.834 59.2084 16.5148 59.2084C17.1955 59.2084 17.7481 58.6559 17.7481 57.9751V55.5084H17.7482Z" fill="#6BCDB2"/>
<path d="M6.6481 44.4086C7.32885 44.4086 7.88139 43.856 7.88139 43.1753V37.0086H20.2147V67.8418C20.2147 68.5226 20.7672 69.0751 21.448 69.0751C22.1287 69.0751 22.6812 68.5226 22.6812 67.8418V35.7753C22.6812 35.0945 22.1287 34.542 21.448 34.542H6.64796C5.96722 34.542 5.41467 35.0945 5.41467 35.7753V43.1753C5.41467 43.856 5.96722 44.4086 6.6481 44.4086Z" fill="#6BCDB2"/>
<path d="M20.2147 25.9086V28.3753C20.2147 29.056 20.7673 29.6086 21.448 29.6086C22.1287 29.6086 22.6813 29.056 22.6813 28.3753V25.9086C22.6813 25.2278 22.1287 24.6753 21.448 24.6753C20.7673 24.6753 20.2147 25.2278 20.2147 25.9086Z" fill="#6BCDB2"/>
<path d="M27.6148 11.1085C27.6148 10.4278 27.0622 9.87524 26.3815 9.87524C25.7007 9.87524 25.1482 10.4278 25.1482 11.1085V13.5752C25.1482 14.256 25.7007 14.8085 26.3815 14.8085C27.0622 14.8085 27.6148 14.256 27.6148 13.5752V11.1085Z" fill="#6BCDB2"/>
<path d="M16.5148 61.6753C15.834 61.6753 15.2815 62.2278 15.2815 62.9086V67.8419C15.2815 68.5226 15.834 69.0751 16.5148 69.0751C17.1955 69.0751 17.7481 68.5226 17.7481 67.8419V62.9086C17.7482 62.2278 17.1957 61.6753 16.5148 61.6753Z" fill="#6BCDB2"/>
<path d="M73.2482 71.5417H70.7814V63.9665C72.9027 63.4153 74.4814 61.4998 74.4814 59.2083C74.4814 56.4875 72.2688 54.275 69.5482 54.275C66.8275 54.275 64.6149 56.4876 64.6149 59.2083C64.6149 61.4998 66.1936 63.4152 68.3149 63.9665V71.5417H37.4814V66.4838C40.2921 65.9103 42.4147 63.4202 42.4147 60.4417C42.4147 57.0415 39.6484 54.275 36.248 54.275C32.8478 54.275 30.0813 57.0413 30.0813 60.4417C30.0813 63.4202 32.2039 65.9103 35.0146 66.4838V71.5417H7.88145V59.0838C10.6921 58.5103 12.8147 56.0202 12.8147 53.0417C12.8147 49.6415 10.0484 46.875 6.64802 46.875C3.24777 46.8751 0.481445 49.6415 0.481445 53.0417C0.481445 56.0202 2.60403 58.5103 5.41473 59.0838V71.5417H1.71473C1.03399 71.5417 0.481445 72.0943 0.481445 72.775C0.481445 73.4557 1.03399 74.0084 1.71473 74.0084H73.248C73.9288 74.0084 74.4813 73.4559 74.4813 72.7751C74.4813 72.0944 73.9289 71.5417 73.2482 71.5417ZM2.94816 53.0417C2.94816 51.0018 4.60825 49.3417 6.64816 49.3417C8.68807 49.3417 10.3482 51.0018 10.3482 53.0417C10.3482 55.0816 8.68807 56.7417 6.64816 56.7417C4.60825 56.7417 2.94816 55.0816 2.94816 53.0417ZM32.5482 60.4417C32.5482 58.4018 34.2082 56.7417 36.2482 56.7417C38.2881 56.7417 39.9482 58.4018 39.9482 60.4417C39.9482 62.4816 38.2881 64.1417 36.2482 64.1417C34.2082 64.1417 32.5482 62.4816 32.5482 60.4417ZM67.0814 59.2084C67.0814 57.8481 68.1877 56.7417 69.5482 56.7417C70.9086 56.7417 72.0149 57.848 72.0149 59.2084C72.0149 60.5688 70.9086 61.6751 69.5482 61.6751C68.1877 61.6751 67.0814 60.5688 67.0814 59.2084Z" fill="#6BCDB2"/>
<path d="M10.3481 62.9086V67.8419C10.3481 68.5226 10.9007 69.0751 11.5814 69.0751C12.2622 69.0751 12.8147 68.5226 12.8147 67.8419V62.9086C12.8147 62.2278 12.2622 61.6753 11.5814 61.6753C10.9007 61.6753 10.3481 62.2278 10.3481 62.9086Z" fill="#6BCDB2"/>
<path d="M17.7482 40.7086C17.7482 40.0279 17.1956 39.4753 16.5149 39.4753C15.8342 39.4753 15.2816 40.0279 15.2816 40.7086V43.1753C15.2816 43.8561 15.8342 44.4086 16.5149 44.4086C17.1956 44.4086 17.7482 43.8561 17.7482 43.1753V40.7086Z" fill="#6BCDB2"/>
<path d="M17.7482 48.1085C17.7482 47.4278 17.1956 46.8752 16.5149 46.8752C15.8342 46.8752 15.2816 47.4278 15.2816 48.1085V50.5752C15.2816 51.256 15.8342 51.8085 16.5149 51.8085C17.1956 51.8085 17.7482 51.256 17.7482 50.5752V48.1085Z" fill="#6BCDB2"/>
<path d="M10.3481 40.7086V43.1753C10.3481 43.8561 10.9007 44.4086 11.5814 44.4086C12.2622 44.4086 12.8147 43.8561 12.8147 43.1753V40.7086C12.8147 40.0279 12.2622 39.4753 11.5814 39.4753C10.9007 39.4753 10.3481 40.0279 10.3481 40.7086Z" fill="#6BCDB2"/>
<path d="M27.6148 48.1085C27.6148 47.4278 27.0622 46.8752 26.3815 46.8752C25.7007 46.8752 25.1482 47.4278 25.1482 48.1085V50.5752C25.1482 51.256 25.7007 51.8085 26.3815 51.8085C27.0622 51.8085 27.6148 51.256 27.6148 50.5752V48.1085Z" fill="#6BCDB2"/>
<path d="M32.5481 33.3085C32.5481 32.6277 31.9956 32.0752 31.3148 32.0752C30.6341 32.0752 30.0815 32.6277 30.0815 33.3085V35.7752C30.0815 36.4559 30.6341 37.0085 31.3148 37.0085C31.9956 37.0085 32.5481 36.4559 32.5481 35.7752V33.3085Z" fill="#6BCDB2"/>
<path d="M32.5481 25.9086C32.5481 25.2278 31.9956 24.6753 31.3148 24.6753C30.6341 24.6753 30.0815 25.2278 30.0815 25.9086V28.3753C30.0815 29.056 30.6341 29.6086 31.3148 29.6086C31.9956 29.6086 32.5481 29.056 32.5481 28.3753V25.9086Z" fill="#6BCDB2"/>
<path d="M32.5481 40.7086C32.5481 40.0279 31.9956 39.4753 31.3148 39.4753C30.6341 39.4753 30.0815 40.0279 30.0815 40.7086V43.1753C30.0815 43.8561 30.6341 44.4086 31.3148 44.4086C31.9956 44.4086 32.5481 43.8561 32.5481 43.1753V40.7086Z" fill="#6BCDB2"/>
<path d="M31.3147 46.8752C30.634 46.8752 30.0814 47.4278 30.0814 48.1085V50.5752C30.0814 51.256 30.634 51.8085 31.3147 51.8085C31.9954 51.8085 32.548 51.256 32.548 50.5752V48.1085C32.5481 47.4278 31.9956 46.8752 31.3147 46.8752Z" fill="#6BCDB2"/>
<path d="M32.5481 18.5084C32.5481 17.8277 31.9956 17.2751 31.3148 17.2751C30.6341 17.2751 30.0815 17.8277 30.0815 18.5084V20.9751C30.0815 21.6559 30.6341 22.2084 31.3148 22.2084C31.9956 22.2084 32.5481 21.6559 32.5481 20.9751V18.5084Z" fill="#6BCDB2"/>
<path d="M27.6148 55.5084C27.6148 54.8277 27.0622 54.2751 26.3815 54.2751C25.7007 54.2751 25.1482 54.8277 25.1482 55.5084V57.9751C25.1482 58.6559 25.7007 59.2084 26.3815 59.2084C27.0622 59.2084 27.6148 58.6559 27.6148 57.9751V55.5084Z" fill="#6BCDB2"/>
<path d="M16.5148 32.0753C17.1955 32.0753 17.748 31.5227 17.748 30.842V21.7374L21.9993 19.6123C22.4174 19.4026 22.6813 18.976 22.6813 18.5085V8.1708L28.848 5.08752L35.0148 8.1708V18.5085C35.0148 19.1893 35.5673 19.7418 36.248 19.7418C36.9288 19.7418 37.4815 19.1893 37.4815 18.5085V7.40855C37.4815 6.94113 37.2176 6.51433 36.7994 6.30476L30.0815 2.94629V1.24183C30.0815 0.561088 29.5289 0.00854492 28.8482 0.00854492C28.1674 0.00854492 27.6149 0.561088 27.6149 1.24183V2.94629L20.8969 6.30462C20.4788 6.51433 20.2149 6.94099 20.2149 7.4084V17.7461L15.9637 19.8712C15.5455 20.0809 15.2816 20.5076 15.2816 20.975V30.8417C15.2815 31.5227 15.834 32.0753 16.5148 32.0753Z" fill="#6BCDB2"/>
<path d="M27.6148 40.7086C27.6148 40.0279 27.0622 39.4753 26.3815 39.4753C25.7007 39.4753 25.1482 40.0279 25.1482 40.7086V43.1753C25.1482 43.8561 25.7007 44.4086 26.3815 44.4086C27.0622 44.4086 27.6148 43.8561 27.6148 43.1753V40.7086Z" fill="#6BCDB2"/>
<path d="M26.3815 61.6753C25.7007 61.6753 25.1482 62.2278 25.1482 62.9086V67.8419C25.1482 68.5226 25.7007 69.0751 26.3815 69.0751C27.0622 69.0751 27.6148 68.5226 27.6148 67.8419V62.9086C27.6148 62.2278 27.0622 61.6753 26.3815 61.6753Z" fill="#6BCDB2"/>
<path d="M32.5481 11.1085C32.5481 10.4278 31.9956 9.87524 31.3148 9.87524C30.6341 9.87524 30.0815 10.4278 30.0815 11.1085V13.5752C30.0815 14.256 30.6341 14.8085 31.3148 14.8085C31.9956 14.8085 32.5481 14.256 32.5481 13.5752V11.1085Z" fill="#6BCDB2"/>
<path d="M27.6148 33.3085C27.6148 32.6277 27.0622 32.0752 26.3815 32.0752C25.7007 32.0752 25.1482 32.6277 25.1482 33.3085V35.7752C25.1482 36.4559 25.7007 37.0085 26.3815 37.0085C27.0622 37.0085 27.6148 36.4559 27.6148 35.7752V33.3085Z" fill="#6BCDB2"/>
</g>
<defs>
<clipPath id="clip0_1988_17690">
<rect width="74" height="74" fill="white" transform="translate(0.481445 0.00854492)"/>
</clipPath>
</defs>
</svg>
