<svg width="65" height="75" viewBox="0 0 65 75" fill="none" xmlns="http://www.w3.org/2000/svg">
<path d="M32.5085 0.00857251C32.3089 0.00721748 32.1114 0.0557805 31.9373 0.153256L0.718141 17.6208C-0.0961877 18.0765 -0.0655377 19.2544 0.770138 19.6696L5.9071 22.2221V26.602H4.75552C4.11704 26.602 3.59494 27.1153 3.59494 27.754V38.1627C3.59494 38.8049 4.11355 39.3237 4.75552 39.3237H9.38217C10.0206 39.3237 10.5337 38.8014 10.5337 38.1627V27.754C10.5337 27.1188 10.0171 26.602 9.38217 26.602H8.21931V23.3696L15.8401 27.1577C15.0521 28.2279 14.2281 29.456 13.546 30.8961C11.4099 35.4054 10.9641 41.4216 16.5243 49.2513C17.4867 50.5196 19.2908 49.1285 18.4097 47.9118C13.2036 40.5806 13.9356 35.4792 15.6368 31.8876C16.5307 30.0007 17.7143 28.4872 18.7619 27.1261C19.3904 26.3095 19.6679 25.9873 20.2206 25.1586C20.4976 24.7433 20.9259 23.8427 20.9319 23.5797C20.9777 23.5316 21.1241 23.4232 21.3561 23.2973C21.8424 23.0342 22.6786 22.7436 23.7654 22.4954C25.9391 21.9991 29.0476 21.6754 32.4994 21.6754C35.9512 21.6754 39.0642 21.9989 41.2379 22.4954C42.3247 22.7437 43.1857 23.052 43.672 23.3154C43.901 23.4395 44.0145 23.5348 44.0626 23.5842C44.1299 23.8788 44.3339 24.4526 44.7806 25.1586C45.1664 25.7685 45.6515 26.3863 46.1806 27.0628C47.2388 28.4157 48.4706 30.0007 49.3644 31.8876C51.0641 35.4759 51.7954 40.5806 46.5893 47.9118C45.6946 49.2775 47.6017 50.4528 48.4679 49.2513C54.0599 41.3768 53.5985 35.4206 51.4553 30.8961C50.7736 29.4568 49.9581 28.2252 49.168 27.1554L64.2311 19.6696C65.0667 19.2544 65.095 18.0765 64.281 17.6208L33.0641 0.153256C32.8946 0.0584032 32.7027 0.0098838 32.5086 0.00857247L32.5085 0.00857251ZM32.4998 2.49329L61.2351 18.5694L47.7323 25.2849C47.343 24.7804 46.964 24.2802 46.7365 23.9206C46.4494 23.4668 46.373 23.1965 46.373 23.182L46.3773 16.6472C46.3777 16.1062 46.1209 15.6341 45.8219 15.2986C45.5226 14.9629 45.1706 14.7217 44.7719 14.5058C43.9745 14.0739 42.9715 13.7479 41.7597 13.4713C39.3362 12.9179 36.0931 12.5925 32.4997 12.5925C28.9062 12.5925 25.6631 12.9177 23.2396 13.4713C22.0278 13.748 21.0248 14.0739 20.2274 14.5058C19.8289 14.7217 19.4766 14.9632 19.1775 15.2986C18.8781 15.6339 18.6242 16.1062 18.6242 16.6472V23.173C18.6242 23.1861 18.5526 23.4667 18.2651 23.9206C18.0317 24.2891 17.6712 24.7625 17.267 25.2827L8.21922 20.7831V16.0779L32.4998 2.49329ZM41.2382 15.7256C42.3251 15.9739 43.1861 16.2731 43.6724 16.5365C43.8957 16.6575 44.0141 16.7585 44.0652 16.8097V20.9501C43.5201 20.7154 42.6871 20.4526 41.7598 20.2409C39.3363 19.6875 36.0932 19.3622 32.4998 19.3622C28.9064 19.3622 25.6632 19.6874 23.2397 20.2409C22.3124 20.4524 21.487 20.7097 20.9365 20.9465V16.8097C20.9881 16.7581 21.1061 16.6571 21.3293 16.5365C21.8156 16.2729 22.6654 15.9737 23.7522 15.7256C25.9259 15.2292 29.0479 14.9056 32.4997 14.9056C35.9516 14.9056 39.0645 15.2291 41.2382 15.7256ZM5.90728 17.3723V19.6334L3.7667 18.5694L5.90728 17.3723ZM28.4715 24.3837C28.4453 26.9278 26.36 29.0527 23.7704 29.0527H21.833C21.198 29.0527 20.6839 29.5695 20.6814 30.2047V31.0043C18.4333 31.2417 16.7977 33.2206 16.7977 35.5243C16.7976 37.9769 18.6647 40.0668 21.1082 40.0668C21.2069 40.0667 21.2899 40.0671 21.3882 40.0581C22.2 42.2872 23.6732 44.2081 25.561 45.5786V48.0972L25.2202 47.7563C25.0017 47.5364 24.7038 47.4136 24.3938 47.4153C24.0914 47.4195 23.803 47.5421 23.5899 47.7563L20.3858 50.9571C14.7092 51.4439 8.83423 55.1655 6.13781 61.7001C5.95123 62.2217 4.75591 64.8099 4.75591 68.759V72.8475C4.75591 73.4862 5.26902 74.0085 5.90749 74.0085H59.0925C59.731 74.0085 60.2441 73.4862 60.2441 72.8475V68.759C60.2441 65.5663 59.4597 63.1275 58.808 61.5895C56.2517 55.4237 50.5176 51.4745 44.6164 50.9526L41.4101 47.7563C41.1894 47.5342 40.8878 47.411 40.5746 47.4154C40.2723 47.4195 39.9839 47.5421 39.7708 47.7563L39.4387 48.0885V45.5789C41.3269 44.2084 42.7975 42.2922 43.6093 40.0629C43.7076 40.0716 43.795 40.0651 43.8937 40.0652C46.3055 40.0652 48.2043 37.9753 48.2042 35.5227C48.2042 33.219 46.5516 31.2381 44.3205 31.0027V30.2031C44.3179 29.5679 43.8038 29.0511 43.1689 29.0511H36.3746C33.5617 29.0511 31.1905 26.9796 30.768 24.2194C30.6824 23.6605 30.2064 23.2453 29.6041 23.237C29.0018 23.2287 28.4778 23.7424 28.4716 24.382L28.4715 24.3837ZM29.806 27.8984C31.0144 29.6991 33.3594 31.3657 36.3745 31.3657H42.0082V36.0099C42.0082 41.2863 37.7449 45.5038 32.4998 45.5038C27.2416 45.5038 22.9936 41.2863 22.9936 36.0099V31.3657H23.7703C26.6518 31.3657 28.8294 29.6513 29.806 27.8984ZM5.90728 28.9149H8.21949V37.0083H5.90728V28.9149ZM20.6814 33.349V36.0099C20.6814 36.5952 20.7251 37.1666 20.8055 37.7289C19.8937 37.5803 19.1097 36.695 19.1097 35.5243C19.1098 34.4108 19.804 33.5608 20.6813 33.349H20.6814ZM44.3204 33.349C45.1753 33.5553 45.8898 34.4108 45.8898 35.5243C45.8898 36.695 45.111 37.5796 44.1963 37.7289C44.2784 37.1666 44.3204 36.5952 44.3204 36.0099L44.3204 33.349ZM27.8754 46.8839C29.2963 47.4874 30.8581 47.8146 32.4998 47.8146C34.1416 47.8146 35.7056 47.4828 37.1265 46.8794V50.4032L32.4998 55.0316L27.8754 50.4078V46.8839ZM24.4003 50.209L30.8695 56.6625L29.036 58.4989L22.5759 52.0341L24.4003 50.209ZM40.5902 50.209L42.426 52.0431L35.9749 58.5057L34.1301 56.6625L40.5902 50.209ZM44.4649 53.2697C49.3802 53.7463 53.9659 56.8281 56.3511 61.7494C57.7469 64.6573 57.9317 67.2814 57.9317 68.7608V71.6973H49.8413C49.8413 71.6973 49.8413 69.3857 49.8413 68.23C49.8413 67.5752 49.3193 67.0587 48.6648 67.0712C48.0263 67.0834 47.5291 67.5911 47.5291 68.23V71.6973H17.4728C17.4728 71.6973 17.4728 69.3857 17.4728 68.23C17.4728 67.5743 16.9494 67.0584 16.2941 67.0712C15.6556 67.0839 15.1583 67.5911 15.1583 68.23V71.6973H7.0679V68.7608C7.0679 66.5945 7.47951 64.5567 8.2353 62.6913C10.2704 57.6223 14.9424 53.8121 20.5369 53.2742L28.2163 60.9475C28.6673 61.396 29.3957 61.396 29.8466 60.9475L32.4998 58.3001L35.1552 60.9475C35.6062 61.396 36.3345 61.396 36.7855 60.9475L44.4649 53.2697Z" fill="#6BCDB2"/>
</svg>
