<svg width="70" height="57" viewBox="0 0 70 57" fill="none" xmlns="http://www.w3.org/2000/svg">
<path d="M47.8521 40.4742C47.3173 39.9503 46.4591 39.9591 45.935 40.4937L45.8965 40.533C45.3726 41.0678 45.3814 41.926 45.9162 42.4501C46.18 42.7086 46.5225 42.8374 46.8648 42.8374C47.2163 42.8374 47.5677 42.7014 47.8333 42.4306L47.8718 42.3912C48.3957 41.8565 48.3869 40.9983 47.8521 40.4742Z" fill="#6BCDB2"/>
<path d="M62.4345 26.2621H58.8321V22.6598C58.8321 21.9111 58.2252 21.3042 57.4766 21.3042C56.7279 21.3042 56.121 21.9111 56.121 22.6598V26.2621H52.5187C51.77 26.2621 51.1631 26.869 51.1631 27.6177C51.1631 28.3664 51.77 28.9733 52.5187 28.9733H56.121V32.5756C56.121 33.3243 56.7279 33.9312 57.4766 33.9312C58.2252 33.9312 58.8321 33.3243 58.8321 32.5756V28.9733H62.4345C63.1831 28.9733 63.79 28.3664 63.79 27.6177C63.79 26.869 63.1831 26.2621 62.4345 26.2621Z" fill="#6BCDB2"/>
<path d="M61.9085 16.5429C60.6424 7.18538 52.8196 0.184082 43.5343 0.184082C38.8471 0.184082 34.4625 1.93129 31.0428 5.13385C27.6229 1.93129 23.2383 0.184082 18.5512 0.184082C8.32204 0.184082 0 8.70431 0 19.1771C0 21.2463 0.60364 23.5655 1.80455 26.1257H1.35558C0.606893 26.1257 0 26.7326 0 27.4813C0 28.2299 0.606893 28.8368 1.35558 28.8368H3.24824C5.78006 33.1232 9.7839 37.9974 15.2434 43.426C22.6421 50.7829 30.1444 56.5385 30.2194 56.5959C30.4623 56.7817 30.7525 56.8746 31.0428 56.8746C31.333 56.8746 31.6231 56.7817 31.8662 56.5959C31.9234 56.5521 37.6613 52.1521 44.02 46.1569C44.5648 45.6433 44.59 44.7854 44.0764 44.2407C43.5629 43.696 42.705 43.6707 42.1602 44.1843C37.3107 48.7565 32.8336 52.3818 31.0429 53.7981C28.9149 52.1144 22.9908 47.3085 17.1356 41.4843C12.448 36.8212 8.85953 32.5717 6.43345 28.8368H18.5694C19.1741 28.8368 19.7057 28.4363 19.8724 27.8551L22.2409 19.5994L28.7997 40.6133C28.9765 41.1794 29.5007 41.565 30.0937 41.565C30.6868 41.565 31.211 41.1794 31.3876 40.6133L35.0199 28.9725H41.0718C41.8204 28.9725 42.4273 28.3656 42.4273 27.6169C42.4273 26.8683 41.8204 26.2614 41.0718 26.2614H34.0229C33.4298 26.2614 32.9055 26.6469 32.7288 27.2131L30.0933 35.6591L23.48 14.4705C23.3016 13.8989 22.7705 13.5106 22.1702 13.5189C21.5715 13.5258 21.0481 13.9249 20.8828 14.5006L17.5477 26.1258H4.82912C3.42785 23.4803 2.71116 21.1485 2.71116 19.1771C2.71116 10.1992 9.81697 2.89524 18.5512 2.89524C22.9412 2.89524 27.0236 4.69979 30.0464 7.97622C30.3032 8.25439 30.6643 8.41259 31.0428 8.41259C31.4213 8.41259 31.7825 8.25439 32.0391 7.97622C35.0619 4.69979 39.1444 2.89524 43.5343 2.89524C51.0858 2.89524 57.506 8.34115 59.032 15.7902C58.5227 15.7236 58.0036 15.6888 57.4764 15.6888C50.8988 15.6888 45.5473 21.0402 45.5473 27.6179C45.5473 34.1956 50.8988 39.547 57.4764 39.547C64.0541 39.547 69.4055 34.1956 69.4055 27.6179C69.4057 22.6055 66.298 18.3059 61.9085 16.5429ZM57.4766 36.8358C52.3938 36.8358 48.2586 32.7006 48.2586 27.6179C48.2586 22.5352 52.3938 18.4 57.4766 18.4C62.5593 18.4 66.6945 22.5352 66.6945 27.6179C66.6945 32.7006 62.5593 36.8358 57.4766 36.8358Z" fill="#6BCDB2"/>
</svg>
