<svg width="55" height="37" viewBox="0 0 55 37" fill="none" xmlns="http://www.w3.org/2000/svg">
<path d="M17.9113 14.8986C17.3993 16.0114 17.044 17.3495 17.0459 18.8333C17.0445 20.317 17.3993 21.6546 17.9113 22.768C18.4284 23.8914 19.0893 24.792 19.735 25.5079L23.3973 21.8461C23.0772 21.4608 22.7835 21.0196 22.574 20.5413C22.3501 20.0247 22.2142 19.4761 22.2123 18.8337C22.2137 18.1602 22.3636 17.589 22.6073 17.0515C22.8117 16.6006 23.0967 16.1876 23.4001 15.8223L19.7346 12.1562C19.7313 12.1594 19.7276 12.1632 19.7253 12.1664C19.0842 12.8792 18.4238 13.7819 17.9113 14.8986Z" fill="#6BCDB2"/>
<path d="M10.3367 11.9213C9.43105 13.893 8.81358 16.2246 8.81543 18.8305C8.81358 21.4364 9.43059 23.7675 10.3358 25.7388C11.3713 27.9922 12.7612 29.7873 14.0822 31.1629L17.7362 27.5094C17.553 27.3156 17.3685 27.1144 17.1867 26.9021C16.3407 25.9174 15.5327 24.7361 14.9457 23.3924C14.3579 22.0455 13.9837 20.5446 13.9818 18.831C13.9837 17.035 14.3958 15.4703 15.0332 14.0744C15.7394 12.5267 16.7445 11.2007 17.7343 10.154L14.0804 6.5C13.9189 6.66836 13.7566 6.84134 13.5933 7.02219C12.4277 8.31958 11.2423 9.94578 10.3367 11.9213Z" fill="#6BCDB2"/>
<path d="M7.50168 1.57786C5.78015 3.49411 4.03874 5.88769 2.71545 8.77293C1.39263 11.655 0.497637 15.0388 0.499025 18.8348C0.497637 22.6307 1.39216 26.0141 2.71452 28.8952C4.24503 32.2286 6.32408 34.9006 8.29769 36.9431L11.9521 33.2892C11.7032 33.0302 11.4539 32.7642 11.2051 32.4825C9.78147 30.8748 8.38834 28.9109 7.36246 26.6348C6.33611 24.355 5.6673 21.7741 5.66591 18.8343C5.6673 15.8491 6.35785 13.2312 7.41241 10.9251C8.61267 8.29838 10.3092 6.09213 11.9553 4.37569L8.30231 0.722656C8.03636 0.998324 7.76994 1.28 7.50168 1.57786Z" fill="#6BCDB2"/>
<path d="M27.4718 21.3379C28.8568 21.3379 29.9796 20.2151 29.9796 18.8301C29.9796 17.4451 28.8568 16.3223 27.4718 16.3223C26.0867 16.3223 24.9639 17.4451 24.9639 18.8301C24.9639 20.2151 26.0867 21.3379 27.4718 21.3379Z" fill="#6BCDB2"/>
<path d="M37.0864 22.7677C37.5984 21.6548 37.9536 20.3167 37.9518 18.8329C37.9536 17.3492 37.5984 16.0115 37.0864 14.8987C36.5693 13.7752 35.9083 12.8747 35.2626 12.1582L31.6004 15.82C31.9204 16.2053 32.2141 16.6466 32.4232 17.1253C32.6471 17.6415 32.783 18.19 32.7849 18.8329C32.783 19.5064 32.6336 20.0771 32.3899 20.6151C32.1859 21.066 31.9001 21.4791 31.5967 21.8445L35.2626 25.5109C35.2659 25.5072 35.2696 25.504 35.2719 25.5007C35.9134 24.7866 36.5734 23.8847 37.0864 22.7677Z" fill="#6BCDB2"/>
<path d="M44.6637 25.7455C45.5693 23.7737 46.1869 21.4421 46.185 18.8363C46.1869 16.2299 45.5698 13.8993 44.6646 11.9275C43.6291 9.67407 42.2401 7.87947 40.9187 6.50391L37.2646 10.1574C37.4478 10.3512 37.6324 10.5524 37.8142 10.7652C38.6602 11.7499 39.4681 12.9312 40.0555 14.2748C40.6434 15.6217 41.0172 17.1226 41.0191 18.8363C41.0172 20.6318 40.6051 22.197 39.9682 23.5934C39.2619 25.1405 38.2567 26.467 37.2669 27.5137L40.9204 31.1672C41.0823 30.9993 41.2443 30.8259 41.4076 30.645C42.5731 29.3472 43.758 27.7209 44.6637 25.7455Z" fill="#6BCDB2"/>
<path d="M47.4986 36.0884C49.2201 34.1721 50.9616 31.779 52.2848 28.8933C53.6077 26.0113 54.5027 22.627 54.5013 18.8315C54.5027 15.0356 53.6081 11.6522 52.2858 8.77062C50.7553 5.43765 48.6762 2.76563 46.7031 0.722656L43.0486 4.37661C43.2975 4.63563 43.5463 4.90204 43.7952 5.18372C45.2188 6.79147 46.612 8.75535 47.6383 11.0315C48.6647 13.3108 49.333 15.8922 49.3349 18.832C49.333 21.8176 48.6434 24.435 47.5883 26.7412C46.3876 29.3679 44.6915 31.5737 43.0459 33.2901L46.6984 36.9431C46.9639 36.6679 47.2304 36.3858 47.4986 36.0884Z" fill="#6BCDB2"/>
</svg>
