<svg width="71" height="70" viewBox="0 0 71 70" fill="none" xmlns="http://www.w3.org/2000/svg">
<path d="M62.4243 49.3693C62.0406 49.2102 61.599 49.2981 61.3052 49.5918L50.083 60.814C49.7893 61.1078 49.7014 61.5494 49.8605 61.9331C50.0193 62.317 50.394 62.5671 50.8092 62.5671H62.0315C62.5987 62.5671 63.0584 62.1074 63.0584 61.5402V50.3179C63.0583 49.9026 62.8081 49.5282 62.4243 49.3693ZM53.288 60.5134L61.0043 52.7971V60.5134H53.288Z" fill="#6BCDB2"/>
<path d="M69.8478 32.9093C69.4641 32.7502 69.0224 32.8381 68.7286 33.1318L65.6531 36.2073V15.2961C65.6531 14.7289 65.1933 14.2692 64.6262 14.2692H56.7361L59.6002 11.4051C59.6006 11.4047 59.601 11.4041 59.6015 11.4037L62.3612 8.64399C62.9524 8.05272 63.2781 7.26618 63.2781 6.4299C63.2781 5.59362 62.9524 4.80736 62.3612 4.21581L59.1699 1.02457C58.5787 0.433295 57.7921 0.107666 56.9558 0.107666C56.1196 0.107666 55.3332 0.433295 54.7417 1.02457L51.9807 3.78565L48.6443 7.12202L41.4973 14.269H9.62196V4.11005C9.62196 3.54283 9.16214 3.08315 8.59506 3.08315C4.14174 3.08342 0.518555 6.70634 0.518555 11.1599V54.7756C0.518555 54.8515 0.5273 54.9253 0.542878 54.9963C0.684717 56.886 1.50227 58.6418 2.8686 59.9746C4.32909 61.399 6.25703 62.1835 8.29744 62.1835H39.6767L33.7669 68.0934C33.4732 68.3872 33.3854 68.8287 33.5443 69.2125C33.7032 69.5962 34.0778 69.8464 34.493 69.8464H69.4548C70.0219 69.8464 70.4817 69.3867 70.4817 68.8195V33.858C70.4817 33.4428 70.2313 33.0682 69.8478 32.9093ZM56.1943 2.47698C56.6141 2.05693 57.298 2.05693 57.7178 2.47698L60.9092 5.66837C61.3292 6.08828 61.3292 6.77193 60.9092 7.19198L58.8744 9.22692L54.1592 4.51193L56.1943 2.47698ZM52.7069 5.96421L57.4219 10.6791L55.5377 12.5633L50.823 7.84843L52.7069 5.96421ZM68.4281 45.3968H66.5335C65.9663 45.3968 65.5066 45.8564 65.5066 46.4237C65.5066 46.9909 65.9663 47.4506 66.5335 47.4506H68.4281V50.5451H66.5335C65.9663 50.5451 65.5066 51.0047 65.5066 51.572C65.5066 52.1392 65.9663 52.5989 66.5335 52.5989H68.4281V55.6932H66.5335C65.9663 55.6932 65.5066 56.1529 65.5066 56.7201C65.5066 57.2873 65.9663 57.747 66.5335 57.747H68.4281V60.8415H66.5335C65.9663 60.8415 65.5066 61.3013 65.5066 61.8684C65.5066 62.4356 65.9663 62.8953 66.5335 62.8953H68.4281V67.793H36.9721L47.3447 57.4206C47.7457 57.0194 47.7457 56.3694 47.3447 55.9683C47.2986 55.9222 47.2491 55.8823 47.1973 55.8468C46.7975 55.573 46.2474 55.6133 45.8922 55.9683L41.7305 60.13H8.29758C5.18313 60.13 2.67593 57.6985 2.57727 54.5897C2.58315 54.3945 2.59832 54.201 2.62264 54.0097C2.62278 54.0086 2.62291 54.0076 2.62305 54.0065C2.63453 53.9156 2.64833 53.8251 2.66404 53.7352C2.66582 53.725 2.66773 53.7147 2.66951 53.7045C2.68386 53.6243 2.69998 53.5445 2.71761 53.4649C2.72253 53.4428 2.72772 53.4207 2.73291 53.3987C2.74849 53.3314 2.7653 53.2646 2.78334 53.1981C2.79318 53.162 2.80342 53.1263 2.81395 53.0904C2.82898 53.0382 2.84456 52.9861 2.86109 52.9346C2.87762 52.8831 2.89525 52.8321 2.91315 52.7811C2.92559 52.7455 2.93788 52.7098 2.95128 52.6744C2.97628 52.6072 3.00279 52.5407 3.03012 52.4747C3.03791 52.4557 3.04556 52.4364 3.05362 52.4174C3.08874 52.3354 3.12523 52.2544 3.16376 52.1743C3.1654 52.1709 3.1669 52.1675 3.16854 52.1641C3.97175 50.5019 5.51655 49.2626 7.37043 48.8781C7.37562 48.877 7.38082 48.8758 7.38601 48.8747C7.471 48.8573 7.55682 48.8424 7.64318 48.8286C7.65753 48.8263 7.67187 48.8234 7.6865 48.8213C7.76452 48.8094 7.84337 48.8001 7.92221 48.7912C7.94435 48.7887 7.96635 48.7853 7.98862 48.7831C8.06473 48.7755 8.14153 48.7704 8.21832 48.7656C8.24265 48.7641 8.26697 48.7616 8.29129 48.7603C8.39187 48.7553 8.49326 48.7527 8.59506 48.7527C9.16214 48.7527 9.62196 48.293 9.62196 47.7258V40.28C9.62196 39.7128 9.16214 39.2531 8.59506 39.2531C8.02798 39.2531 7.56816 39.7128 7.56816 40.28V46.7635C5.83411 46.9828 4.22455 47.7562 2.95538 48.9956C2.82187 49.126 2.69534 49.2615 2.57208 49.3993V11.1599C2.57208 8.18909 4.73465 5.71346 7.56802 5.22454V15.2961V36.1726V36.1727C7.56802 36.7398 8.02784 37.1996 8.59492 37.1996C9.16201 37.1996 9.62182 36.7398 9.62182 36.1727V36.1726V16.323H39.4436L33.7668 21.9998C33.3657 22.401 33.3657 23.0511 33.7668 23.4521C34.1678 23.853 34.818 23.853 35.2189 23.4521L42.6488 16.0222C42.6491 16.022 42.6492 16.0217 42.6495 16.0215L49.3704 9.30057L54.0852 14.0156L53.532 14.5687C53.5316 14.5691 53.5311 14.5695 53.5307 14.5699L32.8248 35.276L28.11 30.5612L32.1914 26.4798C32.5924 26.0786 32.5924 25.4286 32.1914 25.0275C31.7903 24.6266 31.1401 24.6266 30.7392 25.0275L25.9316 29.835C25.9059 29.8607 25.8818 29.8879 25.8593 29.9158C25.8518 29.9251 25.8451 29.935 25.838 29.9447C25.8235 29.964 25.8093 29.9834 25.796 30.0036C25.7885 30.0154 25.7817 30.0274 25.7746 30.0396C25.7632 30.0587 25.7523 30.0781 25.7423 30.0979C25.7358 30.1108 25.7299 30.1238 25.7239 30.1371C25.7147 30.1572 25.7062 30.1777 25.6984 30.1982C25.6957 30.2055 25.6922 30.2123 25.6896 30.2195L23.6889 35.887L22.3249 39.7512C22.3069 39.8026 22.2939 39.8548 22.2842 39.9074H18.8691C18.302 39.9074 17.8422 40.3671 17.8422 40.9343C17.8422 41.5015 18.302 41.9612 18.8691 41.9612H47.3072C47.8744 41.9612 48.3341 41.5015 48.3341 40.9343C48.3341 40.3671 47.8744 39.9074 47.3072 39.9074H26.9041L33.1666 37.6967C33.1718 37.6948 33.1767 37.6922 33.1819 37.6903C33.2062 37.6813 33.2301 37.6712 33.2538 37.6604C33.2632 37.656 33.2726 37.6519 33.2818 37.6474C33.3064 37.6351 33.3306 37.6216 33.3544 37.6071C33.362 37.6024 33.3699 37.5982 33.3774 37.5934C33.4022 37.5776 33.4262 37.5602 33.4499 37.5419C33.4557 37.5374 33.4619 37.5334 33.4676 37.5288C33.4962 37.5058 33.5242 37.4811 33.5507 37.4546L54.6823 16.3231H63.5992V38.2612L48.9102 52.9503C48.5092 53.3515 48.5092 54.0015 48.9102 54.4026C48.9352 54.4276 48.9613 54.4511 48.9882 54.4731C49.1765 54.6266 49.4065 54.7034 49.6364 54.7034C49.8662 54.7034 50.0963 54.6266 50.2845 54.4731C50.3114 54.4512 50.3375 54.4276 50.3625 54.4026C50.3629 54.4022 50.3625 54.4026 50.3629 54.4022L68.4281 36.3368V45.3968ZM30.9466 36.3021L28.0052 37.3405L26.0454 35.3807L27.0838 32.4392L30.9466 36.3021Z" fill="#6BCDB2"/>
</svg>
