<svg width="1100" height="344" viewBox="0 0 1100 344" fill="none" xmlns="http://www.w3.org/2000/svg">
<path fill-rule="evenodd" clip-rule="evenodd" d="M259.781 154.763C257.162 150.874 256.316 146.426 257.077 141.423C257.838 136.42 260.205 130.862 263.926 127.805C267.644 124.748 272.721 124.195 276.354 125.862C279.993 127.528 282.189 131.417 284.132 136.605C286.078 141.794 287.771 148.278 287.433 153.56C287.095 158.84 284.726 162.917 281.683 164.677C279.781 165.777 277.618 165.971 275.272 165.489V186.385H269.34V163.152C265.74 161.156 262.08 158.175 259.781 154.763ZM337.654 163.901C328.015 161.373 324.97 155.95 323.788 150.347C322.604 144.748 323.28 138.963 325.223 133.451C327.169 127.94 330.384 122.699 334.103 119.083C337.824 115.471 342.051 113.484 346.872 113.21C351.69 112.94 357.101 114.386 360.822 117.549C364.541 120.712 366.572 125.591 367.757 130.829C368.938 136.076 369.279 141.676 369.362 144.927C369.447 148.181 369.279 149.081 369.87 148.813C370.461 148.543 371.813 147.096 374.52 145.65C377.228 144.204 381.284 142.758 385.005 142.667C388.727 142.576 392.107 143.842 394.391 146.826C396.675 149.807 397.857 154.504 397.771 158.208C397.689 161.914 396.337 164.624 393.121 165.709C389.908 166.794 384.838 166.25 374.182 166.162C363.53 166.071 347.292 166.432 337.654 163.901ZM125.595 133.698C119.504 117.267 113.419 90.0943 113.419 67.6574C113.419 45.2234 119.504 27.5308 127.623 15.8376C135.742 4.14737 145.889 -1.53754 154.681 0.358429C163.476 2.25143 170.915 11.7341 173.958 26.2668C177.003 40.7995 175.651 60.3911 174.975 70.1883C174.299 79.9856 174.299 79.9855 174.975 78.4012C175.651 76.8197 177.003 73.6627 181.062 70.1912C185.122 66.7109 191.886 62.922 197.635 63.5539C203.385 64.1859 208.12 69.2388 211.501 76.8197C213.197 80.6175 214.549 85.0473 215.225 90.0708C218.999 85.6998 223.079 82.0843 226.721 79.7503C235.178 74.33 241.266 75.7762 245.325 81.5611C249.384 87.3401 251.41 97.4636 251.075 109.386C250.737 121.314 248.032 135.05 243.802 143.722C239.575 152.396 233.823 156.012 228.835 157.728C227.618 158.146 226.445 158.455 225.319 158.651V186.385H219.387V158.663C218.197 158.434 217.065 158.058 215.98 157.546C212.347 155.83 209.302 152.581 206.174 144.357C205.401 142.323 204.622 139.989 203.946 137.431C202.873 139.386 201.777 141.212 200.68 142.861C196.248 149.527 191.821 153.352 186.089 155.794V186.385H180.157V157.755C179.787 157.849 179.413 157.94 179.031 158.028C171.018 159.901 160.586 160.639 151.826 159.292V186.385H145.898V157.958C137.185 155.245 131.388 149.339 125.595 133.698Z" fill="#66C993"/>
<path fill-rule="evenodd" clip-rule="evenodd" d="M935.053 168.413C926.343 165.159 916.705 158.837 909.515 150.974C902.328 143.113 897.592 133.716 895.397 123.325C893.195 112.934 893.536 101.547 896.325 91.2496C899.115 80.9497 904.359 71.7316 911.293 62.337C918.227 52.9366 926.852 43.3629 936.487 37.7573C946.129 32.1547 956.781 30.5291 965.324 36.8549C973.863 43.1776 980.288 57.4546 984.433 68.2983C988.578 79.139 990.435 86.5494 991.538 90.794C992.637 95.0444 992.972 96.1291 994.58 95.7675C996.188 95.406 999.06 93.5982 1002.95 93.5982C1006.84 93.5982 1011.75 95.406 1015.72 98.5688C1019.69 101.732 1022.74 106.247 1023.58 112.211C1023.88 114.33 1023.9 116.632 1023.7 119.028C1024.38 118.778 1025.08 118.543 1025.78 118.319C1032.21 116.276 1039.65 115.286 1045.91 117.59C1052.16 119.895 1057.23 125.494 1059.35 130.571C1061.46 135.641 1060.62 140.192 1059.94 143.375C1059.27 146.564 1058.76 148.39 1058.92 148.746C1059.1 149.101 1059.94 147.984 1062.65 146.444C1065.35 144.901 1069.92 142.928 1074.31 142.584C1078.71 142.246 1082.94 143.543 1086.49 145.583C1090.04 147.62 1092.92 150.409 1095.28 153.031C1097.65 155.659 1099.51 158.122 1099.94 160.095C1100.36 162.067 1099.34 163.549 1076.34 164.201C1057.27 164.739 1023.09 164.704 1000.06 163.872C997.537 166.032 995.559 166.903 992.296 168.231C988.742 169.677 983.672 171.664 977.925 172.388C972.172 173.111 965.747 172.57 958.645 172.208C955.559 172.052 952.349 171.929 948.989 171.573V186.385H943.057V170.683C940.476 170.165 937.81 169.442 935.053 168.413ZM808.806 179.548V186.385H802.874V177.485C802.633 177.305 802.383 177.114 802.13 176.905C798.327 173.834 793.082 168.052 790.46 165.068C787.841 162.088 787.841 161.908 787.333 164.621C786.824 167.326 785.81 172.931 784.12 176.544C782.427 180.159 780.061 181.785 774.987 181.606C769.914 181.423 762.136 179.439 756.809 174.466C751.483 169.498 748.608 161.547 747.253 152.508C745.901 143.475 746.069 133.354 747.253 124.951C748.438 116.55 750.634 109.865 753.761 104.983C756.892 100.103 760.951 97.0315 765.096 97.1227C769.237 97.2138 773.467 100.465 775.663 102.093C777.862 103.719 778.032 103.719 778.285 100.012C778.538 96.3084 778.876 88.9009 780.737 79.2331C782.597 69.5652 785.981 57.6369 790.46 48.5099C794.943 39.3828 800.525 33.06 806.695 31.4345C812.868 29.806 819.635 32.8777 823.524 41.8255C827.412 50.7702 828.427 65.5881 828.427 82.393C828.427 99.2008 827.413 117.993 825.296 132.902C823.186 147.814 819.973 158.837 817.348 166.153C814.729 173.472 812.701 177.088 810.502 178.713C809.952 179.119 809.394 179.401 808.806 179.548ZM599.707 156.761L599.342 150.518L599.283 150.606C592.687 160.471 583.725 168.416 575.691 172.132C573.081 173.34 570.568 174.101 568.193 174.398V186.385H562.261V174.084C559.757 173.443 557.505 172.12 555.568 170.08C550.577 164.83 547.705 154.833 547.449 139.845C547.196 124.848 549.565 104.856 552.44 88.9686C555.315 73.0808 558.695 61.2936 563.769 55.3999C568.845 49.5034 575.609 49.5034 582.117 52.8338C588.128 55.9114 593.922 61.8256 598.966 71.5846C600.206 63.0514 602.023 56.902 603.934 51.4934C607.061 42.6368 610.445 35.7732 614.081 30.2617C617.717 24.7502 621.606 20.5909 625.409 22.04C629.216 23.4862 632.935 30.5321 634.798 42.1871C636.656 53.845 636.656 70.1061 634.119 91.3408C633.984 92.4666 633.843 93.6041 633.696 94.7564C636.941 90.1032 640.989 87.0521 645.363 85.8322C651.2 84.2037 657.626 85.8292 663.884 93.4189C670.139 101.009 676.227 114.562 678.426 127.755C680.624 140.947 678.934 153.778 675.721 162.811C672.506 171.847 667.773 177.091 659.401 177.632C658.343 177.702 657.226 177.693 656.068 177.617V186.385H650.136V176.735C643.543 175.259 636.544 172.185 631.582 168.505C627.026 165.127 624.181 161.247 622.526 157.146C619.531 170.647 617.843 175.245 614.586 177.452C613.987 177.855 613.337 178.181 612.652 178.434V186.385H606.72V178.957C605.377 178.743 604.16 178.314 603.258 177.723C600.636 176.006 600.636 172.934 599.707 156.761Z" fill="#66C993"/>
<path fill-rule="evenodd" clip-rule="evenodd" d="M0 180.895H1077.91C1073.13 183.69 1068.13 186.483 1062.89 189.26H11.6227C7.69553 186.524 3.8213 183.731 0 180.895Z" fill="#66C993"/>
<path fill-rule="evenodd" clip-rule="evenodd" d="M634.599 219.49L627.735 216.145C618.811 212.426 618.431 210.577 619.678 206.001L626.956 207.3L631.815 204.743L634.74 204.778L636.503 199.04L640.222 206.001L641.536 200.357C642.647 200.013 644.957 208.152 645.963 208.152L646.591 219.199L646.58 219.228L666.489 224.205L667.268 223.946L669.349 218.746L664.408 212.758C678.608 208.164 684.69 218.846 674.549 229.149L675.069 230.187L681.051 244.49L686.774 246.054L689.893 259.314L686.512 261.133L686.254 260.357L682.873 252.294L672.991 249.693L668.567 243.191L661.806 248.649L664.146 252.812L659.466 259.314L656.421 259.214L655.566 257.756L657.647 252.812L652.312 246.18L654.787 240.589L648.282 243.449L653.485 258.014L649.525 259.034L647.079 258.482L647.905 255.19L638.922 241.11L632.42 239.552L625.254 242.529L623.834 247.87L619.425 248.561L618.114 244.49L621.494 239.29L622.276 238.77L629.56 231.489L629.299 224.987L629.816 223.946L634.599 219.49ZM744.77 248.132L730.205 209.64L731.245 159.707L720.845 150.345L727.083 134.739C718.05 121.629 700.125 121.77 705.157 133.543L700.963 148.331L712.521 152.426L703.158 165.95L701.518 195.58L692.526 200.877L687.162 207.673L689.59 211.968L694.902 209.299L701.01 207.852L699.337 257.938L690.207 263.793L713.561 262.694L717.724 225.248L732.915 251.318L726.909 262.771L733.941 262.503L744.77 248.132Z" fill="#66C993"/>
<path fill-rule="evenodd" clip-rule="evenodd" d="M410.87 237.289C396.628 225.628 380.023 202.409 386.167 181.486L394.994 151.41L418.107 127.682C412.49 104.778 414.756 97.0092 427.839 90.1132C435.238 86.2155 446.711 83.2408 454.289 89.005L452.066 94.3667L454.527 102.036L453.883 107.653L450.744 128.699L441.875 128.923L458.642 145.884L458.868 215.848L467.972 266.492L462.766 333.718L478.36 336.178L482.452 343.406L442.422 343.283L443.921 286.707L437.878 264.467L422.275 334.844L434.653 339.755L436.487 343.938L398.104 343.709L410.87 237.289Z" fill="#66C993"/>
<path fill-rule="evenodd" clip-rule="evenodd" d="M479.685 147.588C478.418 129.98 475.291 121.403 495.882 115.809C507.108 112.761 521.655 112.838 517.355 126.374L523.492 143.94L516.082 146.827L517.602 154.616L525.606 161.148L526.255 163.496L545.065 228.582L540.903 234.537L543.198 263.958L536.308 267.495L537.449 330.693L556.42 341.325L526.49 341.463L514.738 268.923L509.712 295.987L503.316 323.221L505.647 334.124L513.889 342.087L498.501 342.128L485.056 330.285L496.781 290.44L494.853 265.957L476.337 251.51L488.642 175.807L479.012 168.373C481.69 158.711 480.4 157.485 479.685 147.588Z" fill="#66C993"/>
<path fill-rule="evenodd" clip-rule="evenodd" d="M61.0558 171.28C62.4785 171.598 63.6955 172.459 64.4774 173.632L76.8084 173.679L67.7284 135.589L63.3545 136.803L60.6354 138.825L61.0558 171.28ZM65.8178 117.855L67.0964 111.274C64.5773 111.606 62.9899 112.655 62.2374 110.457C60.7207 106.027 61.0793 99.6657 63.9688 96.3734C70.5238 88.9101 76.829 101.45 78.4016 106.585L73.4574 109.231C85.6268 113.99 86.5851 130.898 89.748 142.864L83.4575 148.296L95.1419 159.311V166.498L91.0972 162.006L80.762 157.494L82.7579 173.699L102.87 173.776C103.851 172.2 105.6 171.148 107.596 171.148C110.668 171.148 113.155 173.638 113.155 176.712C113.155 179.781 110.668 182.271 107.596 182.271C105.013 182.271 102.84 180.51 102.217 178.123L65.2328 178.1C64.6155 180.501 62.4374 182.271 59.8477 182.271C56.7759 182.271 54.2862 179.781 54.2862 176.712C54.2862 174.143 56.0264 171.983 58.3868 171.345V138.778L57.0405 138.74L56.141 139.031L53.8953 138.534L55.0182 134.854L58.2986 133.223L58.2927 133.176L65.9324 128.984L65.8178 117.855Z" fill="#66C993"/>
<path fill-rule="evenodd" clip-rule="evenodd" d="M853.544 140.327L852.298 138.378V139.16L852.642 140.444L853.544 140.327ZM834.185 161.262C835.387 147.473 832.965 134.233 841.839 123.14L836.736 122.684C840.331 117.443 835.54 111.599 842.462 106.949C847.298 103.704 858.062 110.053 853.315 111.885L853.409 114.251L851.795 121.053L850.584 121.106L849.749 123.14L853.671 125.233L857.269 137.002L860.664 137.693L862.63 138.572L862.948 139.519C864.676 139.739 866.363 140.662 868.953 144.136L874.458 151.518C875.47 145.024 880.946 145.142 882.962 151.714L881.934 154.821L883.877 155.051L888.586 162.373L893.03 162.896L895.775 176.756L895.696 176.847L895.699 176.929C895.699 179.266 893.803 181.162 891.463 181.162C889.244 181.162 887.424 179.451 887.245 177.279H880.055C879.876 179.451 878.056 181.162 875.837 181.162C873.497 181.162 871.601 179.266 871.601 176.929C871.601 176.791 871.61 176.653 871.622 176.515L871.454 176.497L866.681 176.544C866.692 176.671 866.698 176.8 866.698 176.929C866.698 179.266 864.802 181.162 862.465 181.162C860.126 181.162 858.23 179.266 858.23 176.929C858.23 175.648 858.8 174.501 859.696 173.722L859.162 173.093L854.056 161.92L852.624 162.635L848.991 178.766L854.849 181.333H845.563L844.517 164.727L835.384 171.685L835.625 177.805L834.044 177.89L830.916 170.871L837.715 162.111L834.185 161.262Z" fill="#66C993"/>
<path fill-rule="evenodd" clip-rule="evenodd" d="M300.14 125.119L291.201 131.239V132.65L289.787 149.59L293.899 161.174L293.82 169.358L295.231 178.299L296.642 182.844L304.337 183.517L304.014 171.615L310.052 182.832L315.963 184.313L316.304 149.59L313.697 130.904L308.417 125.145C310.701 124.531 310.29 120.907 310.308 117.899C310.337 112.976 307.077 108.126 300.504 111.045C296.316 112.908 294.905 119.884 300.14 125.119Z" fill="#66C993"/>
<path fill-rule="evenodd" clip-rule="evenodd" d="M320.631 225.034L322.298 195.18L329.373 187.314C322.589 161.688 353.388 168.904 338.856 185.927L344.026 191.485L343.473 201.659L349.996 203.549L347.354 209.737L341.716 211.292L341.848 214.657L347.254 227.591L351.334 226.154L352.533 229.128L342.886 235.043L332.159 220.883L330.022 228.276L321.007 233.123L318.224 238.688L313.935 226.424L320.631 225.034Z" fill="#66C993"/>
</svg>
