<svg width="221" height="95" viewBox="0 0 221 95" fill="none" xmlns="http://www.w3.org/2000/svg">
<path d="M221 18.7757V-7.62939e-06H215.805V9.925L210.506 -7.62939e-06H203.876V18.7757H209.096V7.53624L215.336 18.7757H221ZM196.986 18.7757H203.251L197.402 -7.62939e-06H189.755L183.882 18.7757H189.389L190.223 15.6519H196.124L196.986 18.7757ZM195.026 11.6066H191.349L193.201 4.80444L195.026 11.6066ZM184.385 13.5504V13.4457C184.385 10.8196 182.843 9.4532 180.651 9.05828C182.739 8.55958 183.886 7.19512 183.886 5.01583V4.91206C183.886 2.12548 182.114 -7.62939e-06 177.518 -7.62939e-06H168.694V18.7757H177.466C182.269 18.7757 184.385 16.8876 184.385 13.5504ZM178.299 5.67115C178.299 6.8271 177.725 7.32581 176.266 7.32581H174.463V3.88486H176.238C177.701 3.88486 178.299 4.43642 178.299 5.56642V5.67115ZM178.561 12.8932C178.561 14.1548 177.858 14.862 176.344 14.862H174.463V10.8715H176.213C177.883 10.8715 178.561 11.5537 178.561 12.7894V12.8932ZM167.82 18.7757L163.565 11.1079C165.419 10.2671 166.725 8.79596 166.725 6.1958V6.09011C166.725 2.07456 164.062 -7.62939e-06 158.919 -7.62939e-06H151.296V18.7757H157.195V12.3407H158.134L161.607 18.7757H167.82ZM161.008 6.45908C161.008 7.82739 160.223 8.50673 158.58 8.50673H157.195V4.46333H158.605C160.197 4.46333 161.008 4.98989 161.008 6.35435V6.45908ZM149.016 10.9762V-7.62939e-06H143.064V10.7667C143.064 13.2362 142.544 14.4441 140.454 14.4441C138.339 14.4441 137.816 13.2362 137.816 10.7936V-7.62939e-06H131.918V11.03C131.918 16.387 134.997 19.1178 140.454 19.1178C145.676 19.1178 149.016 16.6234 149.016 10.9762ZM119.528 19.0659L123.861 0.2873H118.38L116.108 11.6335L113.575 0.2873H108.435L106.189 11.5009L104.048 0.2873H98.0702L102.404 19.0659H108.302L110.94 7.85045L113.55 19.0659H119.528ZM98.6147 9.42823C98.6147 3.48994 94.3328 -7.62939e-06 88.5891 -7.62939e-06C83.0031 -7.62939e-06 78.6183 3.78109 78.6183 9.58389V9.7924C78.6183 15.4943 82.3773 19.4071 88.484 19.4071C94.6203 19.4071 98.6147 15.4943 98.6147 9.63673V9.42823ZM92.4526 9.7703C92.4526 12.8932 90.9647 14.7323 88.641 14.7323C86.2919 14.7323 84.8051 12.972 84.8051 9.7703V9.55795C84.8051 6.35435 86.2919 4.64781 88.5891 4.64781C90.939 4.64781 92.4526 6.38317 92.4526 9.55795V9.7703ZM65.8716 9.7703V9.55795C65.8716 6.38317 67.1761 4.70161 69.3176 4.70161C70.9615 4.70161 71.8749 5.67115 72.0577 7.40459H78.1657C77.7214 2.30997 74.3291 -7.62939e-06 69.2904 -7.62939e-06C63.7842 -7.62939e-06 59.6319 3.78109 59.6319 9.58389V9.7924C59.6319 15.5462 62.8159 19.4071 69.5508 19.4071C74.4851 19.4071 78.0886 16.8069 78.402 11.8708H72.502C72.2912 13.7628 71.0902 14.6276 69.4217 14.6276C67.1238 14.6276 65.8716 12.8932 65.8716 9.7703ZM49.3711 5.56642C49.3711 4.75255 49.998 4.20196 51.2236 4.20196C52.478 4.20196 53.131 4.85825 53.26 6.01324H58.7432C58.429 1.91505 55.8445 0.024025 51.2236 0.024025C46.5774 0.024025 43.7579 2.54731 43.7579 6.01324C43.7579 9.87505 45.5861 11.449 50.9632 12.0524C52.972 12.3426 53.626 12.6578 53.626 13.6552C53.626 14.5728 52.947 15.2041 51.5636 15.2041C49.6324 15.2041 49.0581 14.2317 48.9533 13.0508H43.3404C43.4721 17.2787 46.2901 19.4071 51.5636 19.4071C56.5762 19.4071 59.2909 16.5186 59.2909 13.0258C59.2909 8.85073 56.6799 7.64001 51.9811 7.14227C49.9197 6.88091 49.3711 6.45908 49.3711 5.56642ZM43.0437 9.63673V9.42823C43.0437 3.48994 38.7628 -7.62939e-06 33.0184 -7.62939e-06C27.4335 -7.62939e-06 23.0473 3.78109 23.0473 9.58389V9.7924C23.0473 15.4943 26.807 19.4071 32.9144 19.4071C39.0508 19.4071 43.0437 15.4943 43.0437 9.63673ZM36.882 9.7703C36.882 12.8932 35.3943 14.7323 33.0726 14.7323C30.7217 14.7323 29.2337 12.972 29.2337 9.7703V9.55795C29.2337 6.35435 30.7217 4.64781 33.0184 4.64781C35.3679 4.64781 36.882 6.38317 36.882 9.55795V9.7703ZM15.6882 19.0659H21.5635V0.2873H14.0447L10.8327 9.40037L7.6751 0.2873H0V19.0659H5.27268V7.98209L9.45066 19.0659H11.433L15.6882 7.98209V19.0659ZM22.0108 93.732V70.3217H42.9527V54.0335H22.0108V41.0615H47.9948V23.9888H0V93.732H22.0108ZM74.1807 76.76V66.3242H95.9002V50.8161H74.1807V40.9621H101.524V23.9888H52.2683V93.732H103.074V76.76H74.1807ZM125.725 71.3963H104.878C105.36 87.1008 115.835 95 135.419 95C154.035 95 164.117 84.2696 164.117 71.2976C164.117 55.7913 154.422 51.3021 136.969 49.4512C129.312 48.4739 127.274 46.9143 127.274 43.5951C127.274 40.5728 129.602 38.523 134.16 38.523C138.813 38.523 141.237 40.9621 141.721 45.2571H162.082C160.918 30.0372 151.32 23.0179 134.16 23.0179C116.9 23.0179 106.43 32.3779 106.43 45.2571C106.43 59.5923 113.216 65.4452 133.19 67.6897C140.657 68.7632 143.081 69.9325 143.081 73.6409C143.081 77.0517 140.556 79.3938 135.419 79.3938C128.243 79.3938 126.11 75.7841 125.725 71.3963ZM163.711 40.9621H181.164V93.732H203.269V40.9621H220.818V23.9888H163.711V40.9621Z" fill="black"/>
</svg>
