<svg width="370" height="231" viewBox="0 0 370 231" fill="none" xmlns="http://www.w3.org/2000/svg">
<path d="M179.995 115.946V81.1112H165.978L159.989 98.0156L154.096 81.1112H139.78V115.946H149.611V95.3911L157.401 115.946H161.099L169.044 95.3911V115.946H179.995ZM134.806 36.8401C144.015 36.8401 150.732 32.0205 151.316 22.8704H140.317C139.924 26.3777 137.681 27.9763 134.567 27.9763C130.284 27.9763 127.946 24.7672 127.946 18.9694V18.5757C127.946 12.6824 130.38 9.55684 134.376 9.55684C137.442 9.55684 139.148 11.3701 139.482 14.5792H150.875C150.052 5.13091 143.717 0.848145 134.317 0.848145C124.033 0.848145 116.303 7.85089 116.303 18.6234V19.0171C116.303 29.6823 122.244 36.8401 134.806 36.8401ZM164.081 76.0769H174.651V41.2421H164.964V59.6616L155.074 41.2421H142.703V76.0769H152.438V55.2238L164.081 76.0769ZM171.871 36.8401C183.312 36.8401 190.768 29.5868 190.768 18.7189V18.3371C190.768 7.32598 182.775 0.848145 172.062 0.848145C161.648 0.848145 153.452 7.86282 153.452 18.6234V19.0171C153.452 29.5868 160.467 36.8401 171.871 36.8401ZM165 18.5757C165 12.6347 167.779 9.47333 172.062 9.47333C176.452 9.47333 179.268 12.6943 179.268 18.5757V18.9694C179.268 24.7672 176.488 28.1791 172.158 28.1791C167.779 28.1791 165 24.9104 165 18.9694V18.5757ZM24.3008 89.641V81.1232H0.190875V115.958H11.2497V104.255H21.7717V96.1188H11.2497V89.641H24.3008ZM113.237 76.0769L114.788 70.2791H125.799L127.409 76.0769H139.1L128.185 41.2541H113.917L102.953 76.0769H113.237ZM120.335 50.1656L123.747 62.7872H116.887L120.335 50.1656ZM15.9262 76.7092C25.6727 76.7092 31.9001 72.0805 31.9001 61.6062V41.2541H20.7935V61.2244C20.7935 65.8054 19.8153 68.0363 15.9262 68.0363C11.9774 68.0363 11.0111 65.7935 11.0111 61.2602V41.2541H0V61.7135C0 71.6391 5.73819 76.7092 15.9262 76.7092ZM229.241 1.38498L225.006 22.429L220.282 1.38498H210.691L206.503 22.1785L202.507 1.38498H191.353L199.441 36.2078H210.452L215.367 15.4024L220.234 36.2078H231.389L239.477 1.38498H229.241ZM10.0329 15.6529L17.823 36.2078H21.5212L29.4545 15.6529V36.2078H40.4059V1.38498H26.3885L20.3998 18.2894L14.5065 1.38498H0.190875V36.2078H10.0329V15.6529ZM79.1417 104.004H80.8954L87.3732 115.946H98.957L91.0237 101.726C94.4833 100.163 96.917 97.443 96.917 92.6234V92.4325C96.917 84.9765 91.9423 81.1232 82.3627 81.1232H68.1306V115.946H79.1417V104.004ZM79.1417 89.4024H81.7663C84.7367 89.4024 86.2399 90.3687 86.2399 92.9097V93.1006C86.2399 95.6297 84.7845 96.9062 81.7185 96.9062H79.1417V89.4024ZM117.71 116.578C127.457 116.578 133.684 111.95 133.684 101.475V81.1232H122.59V101.094C122.59 105.675 121.611 107.905 117.71 107.905C113.762 107.905 112.795 105.663 112.795 101.141V81.1232H101.784V101.583C101.784 111.52 107.534 116.578 117.71 116.578ZM99.3984 29.05C95.7956 29.05 94.7219 27.2486 94.5191 25.0535H84.0568C84.2953 32.8913 89.5564 36.8401 99.3984 36.8401C108.751 36.8401 113.821 31.4836 113.821 25.0058C113.821 17.2515 108.942 15.0206 100.174 14.0901C96.3324 13.601 95.3065 12.8256 95.3065 11.1673C95.3065 9.6642 96.4756 8.63825 98.7661 8.63825C101.116 8.63825 102.321 9.85508 102.56 12.0024H112.795C112.211 4.4032 107.391 0.895863 98.7661 0.895863C90.0932 0.895863 84.8322 5.57231 84.8322 12.0024C84.8322 19.1603 88.2441 22.083 98.277 23.2044C102.023 23.7413 103.252 24.3258 103.252 26.1749C103.252 27.8809 101.975 29.05 99.3984 29.05ZM101.832 66.1872C101.832 61.3199 98.957 58.7908 94.877 58.0511C98.778 57.1206 100.913 54.5915 100.913 50.5473V50.3564C100.913 45.1909 97.597 41.2421 89.0314 41.2421H72.5684V76.065H88.9241C97.8952 76.065 101.832 72.5576 101.832 66.3781V66.1872ZM83.329 48.4596H86.6455C89.3655 48.4596 90.4869 49.4856 90.4869 51.5852V51.7761C90.4869 53.9234 89.4132 54.842 86.6932 54.842H83.329V48.4596ZM90.976 65.1612C90.976 67.4994 89.6637 68.8117 86.8364 68.8117H83.329V61.4153H86.5978C89.7114 61.4153 90.976 62.6798 90.976 64.9703V65.1612ZM26.3408 98.3616V98.7553C26.3408 109.325 33.3555 116.578 44.7484 116.578C56.1889 116.578 63.645 109.325 63.645 98.457V98.0634C63.645 87.0642 55.664 80.5863 44.9392 80.5863C34.5246 80.5863 26.3408 87.601 26.3408 98.3616ZM52.1567 98.3139V98.7076C52.1567 104.505 49.389 107.917 45.0466 107.917C40.6565 107.917 37.8888 104.66 37.8888 98.7076V98.3139C37.8888 92.3729 40.6684 89.2115 44.9512 89.2115C49.3294 89.2115 52.1567 92.4206 52.1567 98.3139ZM60.8773 61.8567C64.3369 60.3058 66.7706 57.5739 66.7706 52.7543V52.5515C66.7706 45.0954 61.8078 41.2541 52.2044 41.2541H37.9842V76.0888H48.9953V64.1472H50.749L57.2268 76.0888H68.8225L60.8773 61.8567ZM56.1054 53.2434C56.1054 55.7725 54.65 57.0371 51.5721 57.0371H48.9953V49.5333H51.6318C54.6023 49.5333 56.1054 50.4996 56.1054 53.0406V53.2434ZM63.4064 36.8401C74.847 36.8401 82.3031 29.5868 82.3031 18.7189V18.3371C82.3031 7.32598 74.3102 0.848145 63.5973 0.848145C53.1707 0.848145 44.9869 7.86282 44.9869 18.6234V19.0171C44.9989 29.5868 52.0016 36.8401 63.4064 36.8401ZM56.5468 18.5757C56.5468 12.6347 59.3145 9.47333 63.6092 9.47333C67.9874 9.47333 70.8148 12.6943 70.8148 18.5757V18.9694C70.8148 24.7672 68.0351 28.1791 63.7047 28.1791C59.3265 28.1791 56.5468 24.9104 56.5468 18.9694V18.5757Z" fill="#001F45"/>
<path d="M58.0857 137.837V137.467C58.0857 127.267 65.4225 120.623 75.1571 120.623C84.0686 120.623 90.0573 124.679 90.8447 133.638H80.0483C79.7262 130.596 78.1037 128.89 75.2048 128.89C71.4231 128.89 69.1087 131.848 69.1087 137.432V137.801C69.1087 143.289 71.3277 146.343 75.3838 146.343C78.3423 146.343 80.4658 144.816 80.8237 141.5H91.2503C90.7015 150.172 84.3311 154.753 75.6104 154.753C63.7165 154.73 58.0857 147.942 58.0857 137.837Z" fill="#E10034"/>
<path d="M93.4812 137.837V137.467C93.4812 127.267 101.236 120.623 111.113 120.623C121.265 120.623 128.841 126.766 128.841 137.193V137.563C128.841 147.858 121.778 154.73 110.934 154.73C100.126 154.73 93.4812 147.846 93.4812 137.837ZM117.937 137.789V137.42C117.937 131.836 115.265 128.794 111.101 128.794C107.045 128.794 104.409 131.801 104.409 137.42V137.789C104.409 143.42 107.033 146.51 111.197 146.51C115.313 146.51 117.937 143.277 117.937 137.789Z" fill="#E10034"/>
<path d="M133.255 121.124H146.831L152.414 137.145L158.093 121.124H171.382V154.121H160.991V134.652L153.476 154.121H149.968L142.584 134.652V154.121H133.255V121.124Z" fill="#E10034"/>
<path d="M177.61 121.124H191.174L196.757 137.145L202.435 121.124H215.725V154.121H205.346V134.652L197.819 154.121H194.311L186.927 134.652V154.121H177.61V121.124Z" fill="#E10034"/>
<path d="M221.869 140.509V121.124H232.295V140.092C232.295 144.386 233.214 146.51 236.96 146.51C240.646 146.51 241.577 144.386 241.577 140.044V121.124H252.099V140.414C252.099 150.339 246.193 154.718 236.96 154.718C227.309 154.73 221.869 149.922 221.869 140.509Z" fill="#E10034"/>
<path d="M258.052 121.124H269.767L279.131 138.577V121.124H288.317V154.121H278.308L267.273 134.377V154.121H258.052V121.124Z" fill="#E10034"/>
<path d="M305.257 121.124H294.688V154.121H305.257V121.124Z" fill="#E10034"/>
<path d="M317.855 129.152H309.552V121.124H336.728V129.152H328.377V154.121H317.855V129.152Z" fill="#E10034"/>
<path d="M359.991 121.124L354.909 131.467L349.887 121.124H338.53L349.242 140.044V154.121H359.764V140.008L370 121.124H359.991Z" fill="#E10034"/>
<path d="M67.5937 158.797H81.1101L91.4531 191.795H80.3823L78.8553 186.307H68.4288L66.9495 191.795H57.2148L67.5937 158.797ZM70.4091 179.197H76.9108L73.6779 167.244L70.4091 179.197Z" fill="#E10034"/>
<path d="M90.2483 158.797H100.818L104.6 178.505L108.572 158.797H117.663L122.136 178.744L126.157 158.797H135.844L128.185 191.807H117.615L112.998 172.099L108.334 191.807H97.9072L90.2483 158.797Z" fill="#E10034"/>
<path d="M144.147 158.797H157.663L168.006 191.795H156.935L155.408 186.307H144.982L143.503 191.795H133.768L144.147 158.797ZM146.962 179.197H153.464L150.231 167.244L146.962 179.197Z" fill="#E10034"/>
<path d="M171.609 158.797H185.089C194.18 158.797 198.892 162.448 198.892 169.51V169.701C198.892 174.27 196.59 176.859 193.309 178.326L200.837 191.807H189.849L183.718 180.498H182.059V191.807H171.633V158.797H171.609ZM184.481 173.757C187.392 173.757 188.776 172.552 188.776 170.154V169.964C188.776 167.566 187.344 166.635 184.529 166.635H182.035V173.745H184.481V173.757Z" fill="#E10034"/>
<path d="M204.463 158.797H217.061C228.871 158.797 234.872 164.428 234.872 174.902V175.225C234.872 185.747 228.692 191.795 217.061 191.795H204.463V158.797ZM216.691 183.766C221.809 183.766 223.98 181.225 223.98 175.463V175.093C223.98 169.045 221.714 166.826 216.644 166.826H214.938V183.766H216.691Z" fill="#E10034"/>
<path d="M236.721 181.237H246.647C246.826 183.313 247.852 185.019 251.264 185.019C253.709 185.019 254.914 183.91 254.914 182.299C254.914 180.545 253.757 179.997 250.202 179.484C240.694 178.422 237.461 175.654 237.461 168.866C237.461 162.77 242.447 158.344 250.655 158.344C258.827 158.344 263.396 161.673 263.945 168.866H254.258C254.031 166.838 252.874 165.681 250.655 165.681C248.484 165.681 247.374 166.647 247.374 168.079C247.374 169.642 248.341 170.381 251.991 170.847C260.294 171.729 264.911 173.841 264.911 181.19C264.911 187.333 260.115 192.404 251.252 192.404C241.934 192.404 236.96 188.67 236.721 181.237Z" fill="#E10034"/>
<path d="M154.895 230.244H166.825V198.153H156.637L149.324 203.176V212.958L154.883 209.904V230.244H154.895ZM119.309 230.244H147.308V221.488H138.957L141.2 219.329C144.612 216.048 147.034 213.042 147.034 208.377C147.034 202.233 142.632 197.652 133.839 197.652C125.226 197.652 119.834 201.78 119.619 210.715H130.344C130.654 207.578 131.597 206.54 133.171 206.54C134.746 206.54 135.331 207.614 135.331 209.009C135.331 211.431 133.04 214.08 129.724 217.623L119.309 228.705V230.244ZM102.262 221.715C98.9808 221.715 98.0861 219.603 98.0861 214.712V213.638C98.0861 208.699 99.0763 206.635 102.166 206.635C105.268 206.635 106.246 208.616 106.246 213.686V214.712C106.246 219.52 105.304 221.715 102.262 221.715ZM101.856 230.877C111.638 230.877 118.104 225.043 118.104 214.449V213.411C118.104 202.376 110.839 197.664 102.13 197.664C93.3381 197.664 86.2518 203.188 86.2518 213.686V214.76C86.2399 225.258 92.157 230.877 101.856 230.877ZM56.5349 230.244H84.5339V221.488H76.1831L78.4259 219.329C81.8378 216.048 84.2596 213.042 84.2596 208.377C84.2596 202.233 79.8575 197.652 71.0653 197.652C62.4521 197.652 57.0718 201.78 56.8451 210.715H67.5699C67.8801 207.578 68.8225 206.54 70.3972 206.54C71.972 206.54 72.5565 207.614 72.5565 209.009C72.5565 211.431 70.266 214.08 66.9495 217.623L56.5349 228.705V230.244Z" fill="#E10034"/>
</svg>
