<?xml version="1.0" encoding="utf-8"?>
<!-- Generator: Adobe Illustrator 25.2.1, SVG Export Plug-In . SVG Version: 6.00 Build 0)  -->
<svg width="407" height="253" version="1.1" id="Layer_1" xmlns="http://www.w3.org/2000/svg" xmlns:xlink="http://www.w3.org/1999/xlink" x="0px" y="0px"
	 viewBox="0 0 355.09 220.75" style="enable-background:new 0 0 355.09 220.75;" xml:space="preserve">
<style type="text/css">
	.st0{fill:#001F45;}
	.st1{fill:#E10034;}
</style>
<g>
	<path class="st0" d="M173.35,110.45v-29.2H161.6l-5.02,14.17l-4.94-14.17h-12v29.2h8.24V93.22l6.53,17.23h3.1l6.66-17.23v17.23
		H173.35z M135.47,44.14c7.72,0,13.35-4.04,13.84-11.71h-9.22c-0.33,2.94-2.21,4.28-4.82,4.28c-3.59,0-5.55-2.69-5.55-7.55v-0.33
		c0-4.94,2.04-7.56,5.39-7.56c2.57,0,4,1.52,4.28,4.21h9.55c-0.69-7.92-6-11.51-13.88-11.51c-8.62,0-15.1,5.87-15.1,14.9v0.33
		C119.96,38.14,124.94,44.14,135.47,44.14 M160.01,77.03h8.86v-29.2h-8.12v15.44l-8.29-15.44h-10.37v29.2h8.16V59.55L160.01,77.03z
		 M166.54,44.14c9.59,0,15.84-6.08,15.84-15.19v-0.32c0-9.23-6.7-14.66-15.68-14.66c-8.73,0-15.6,5.88-15.6,14.9v0.33
		C151.1,38.06,156.98,44.14,166.54,44.14 M160.78,28.83c0-4.98,2.33-7.63,5.92-7.63c3.68,0,6.04,2.7,6.04,7.63v0.33
		c0,4.86-2.33,7.72-5.96,7.72c-3.67,0-6-2.74-6-7.72V28.83z M42.84,88.4v-7.14H22.63v29.2h9.27v-9.81h8.82v-6.82H31.9V88.4H42.84z
		 M117.39,77.03l1.3-4.86h9.23l1.35,4.86h9.8l-9.15-29.19h-11.96l-9.19,29.19H117.39z M123.34,55.31l2.86,10.58h-5.75L123.34,55.31z
		 M35.82,77.56c8.17,0,13.39-3.88,13.39-12.66V47.84H39.9v16.74c0,3.84-0.82,5.71-4.08,5.71c-3.31,0-4.12-1.88-4.12-5.68V47.84
		h-9.23v17.15C22.47,73.31,27.28,77.56,35.82,77.56 M214.63,14.42l-3.55,17.64l-3.96-17.64h-8.04l-3.51,17.43l-3.35-17.43h-9.35
		l6.78,29.19h9.23l4.12-17.44l4.08,17.44h9.35l6.78-29.19H214.63z M30.88,26.38l6.53,17.23h3.1l6.65-17.23v17.23h9.18V14.42H44.59
		l-5.02,14.17l-4.94-14.17h-12v29.19h8.25V26.38z M88.81,100.44h1.47l5.43,10.01h9.71l-6.65-11.92c2.9-1.31,4.94-3.59,4.94-7.63
		v-0.16c0-6.25-4.17-9.48-12.2-9.48H79.58v29.19h9.23V100.44z M88.81,88.2h2.2c2.49,0,3.75,0.81,3.75,2.94v0.16
		c0,2.12-1.22,3.19-3.79,3.19h-2.16V88.2z M121.14,110.98c8.17,0,13.39-3.88,13.39-12.66V81.26h-9.3V98c0,3.84-0.82,5.71-4.09,5.71
		c-3.31,0-4.12-1.88-4.12-5.67V81.26h-9.23v17.15C107.79,106.74,112.61,110.98,121.14,110.98 M105.79,37.61
		c-3.02,0-3.92-1.51-4.09-3.35h-8.77c0.2,6.57,4.61,9.88,12.86,9.88c7.84,0,12.09-4.49,12.09-9.92c0-6.5-4.09-8.37-11.44-9.15
		c-3.22-0.41-4.08-1.06-4.08-2.45c0-1.26,0.98-2.12,2.9-2.12c1.97,0,2.98,1.02,3.18,2.82h8.58c-0.49-6.37-4.53-9.31-11.76-9.31
		c-7.27,0-11.68,3.92-11.68,9.31c0,6,2.86,8.45,11.27,9.39c3.14,0.45,4.17,0.94,4.17,2.49C109.02,36.63,107.95,37.61,105.79,37.61
		 M107.83,68.74c0-4.08-2.41-6.2-5.83-6.82c3.27-0.78,5.06-2.9,5.06-6.29v-0.16c0-4.33-2.78-7.64-9.96-7.64H83.3v29.19h13.71
		c7.52,0,10.82-2.94,10.82-8.12V68.74z M92.32,53.88h2.78c2.28,0,3.22,0.86,3.22,2.62v0.16c0,1.8-0.9,2.57-3.18,2.57h-2.82V53.88z
		 M98.73,67.88c0,1.96-1.1,3.06-3.47,3.06h-2.94v-6.2h2.74c2.61,0,3.67,1.06,3.67,2.98V67.88z M44.55,95.71v0.33
		c0,8.86,5.88,14.94,15.43,14.94c9.59,0,15.84-6.08,15.84-15.19v-0.33c0-9.22-6.69-14.65-15.68-14.65
		C51.41,80.81,44.55,86.69,44.55,95.71 M66.19,95.67V96c0,4.86-2.32,7.72-5.96,7.72c-3.68,0-6-2.73-6-7.72v-0.33
		c0-4.98,2.33-7.63,5.92-7.63C63.82,88.04,66.19,90.73,66.19,95.67 M73.5,65.11c2.9-1.3,4.94-3.59,4.94-7.63v-0.17
		c0-6.25-4.16-9.47-12.21-9.47H54.31v29.2h9.23V67.03h1.47l5.43,10.01h9.72L73.5,65.11z M69.5,57.89c0,2.12-1.22,3.18-3.8,3.18
		h-2.16v-6.29h2.21c2.49,0,3.75,0.81,3.75,2.94V57.89z M75.62,44.14c9.59,0,15.84-6.08,15.84-15.19v-0.32
		c0-9.23-6.7-14.66-15.68-14.66c-8.74,0-15.6,5.88-15.6,14.9v0.33C60.19,38.06,66.06,44.14,75.62,44.14 M69.87,28.83
		c0-4.98,2.32-7.63,5.92-7.63c3.67,0,6.04,2.7,6.04,7.63v0.33c0,4.86-2.33,7.72-5.96,7.72c-3.67,0-6-2.74-6-7.72V28.83z"/>
	<path class="st1" d="M71.16,128.8v-0.31c0-8.55,6.15-14.12,14.31-14.12c7.47,0,12.49,3.4,13.15,10.91h-9.05
		c-0.27-2.55-1.63-3.98-4.06-3.98c-3.17,0-5.11,2.48-5.11,7.16v0.31c0,4.6,1.86,7.16,5.26,7.16c2.48,0,4.26-1.28,4.56-4.06h8.74
		c-0.46,7.27-5.8,11.11-13.11,11.11C75.88,142.96,71.16,137.27,71.16,128.8"/>
	<path class="st1" d="M100.83,128.8v-0.31c0-8.55,6.5-14.12,14.78-14.12c8.51,0,14.86,5.15,14.86,13.89v0.31
		c0,8.63-5.92,14.39-15.01,14.39C106.4,142.96,100.83,137.19,100.83,128.8 M121.33,128.76v-0.31c0-4.68-2.24-7.23-5.73-7.23
		c-3.4,0-5.61,2.52-5.61,7.23v0.31c0,4.72,2.2,7.31,5.69,7.31C119.13,136.07,121.33,133.36,121.33,128.76"/>
	<polygon class="st1" points="134.17,114.79 145.55,114.79 150.23,128.22 154.99,114.79 166.13,114.79 166.13,142.45 157.42,142.45 
		157.42,126.13 151.12,142.45 148.18,142.45 141.99,126.13 141.99,142.45 134.17,142.45 	"/>
	<polygon class="st1" points="171.35,114.79 182.72,114.79 187.4,128.22 192.16,114.79 203.3,114.79 203.3,142.45 194.6,142.45 
		194.6,126.13 188.29,142.45 185.35,142.45 179.16,126.13 179.16,142.45 171.35,142.45 	"/>
	<path class="st1" d="M208.45,131.04v-16.25h8.74v15.9c0,3.6,0.77,5.38,3.91,5.38c3.09,0,3.87-1.78,3.87-5.42v-15.86h8.82v16.17
		c0,8.32-4.95,11.99-12.69,11.99C213.01,142.96,208.45,138.93,208.45,131.04"/>
	<polygon class="st1" points="238.78,114.79 248.6,114.79 256.45,129.42 256.45,114.79 264.15,114.79 264.15,142.45 255.76,142.45 
		246.51,125.9 246.51,142.45 238.78,142.45 	"/>
	<rect x="269.49" y="114.79" class="st1" width="8.86" height="27.66"/>
	<polygon class="st1" points="288.91,121.52 281.95,121.52 281.95,114.79 304.73,114.79 304.73,121.52 297.73,121.52 297.73,142.45 
		288.91,142.45 	"/>
	<polygon class="st1" points="324.23,114.79 319.97,123.46 315.76,114.79 306.24,114.79 315.22,130.65 315.22,142.45 324.04,142.45 
		324.04,130.62 332.62,114.79 	"/>
	<path class="st1" d="M79.13,146.37h11.33l8.67,27.66h-9.28l-1.28-4.6h-8.74l-1.24,4.6h-8.16L79.13,146.37z M81.49,163.47h5.45
		l-2.71-10.02L81.49,163.47z"/>
	<polygon class="st1" points="98.12,146.37 106.98,146.37 110.15,162.89 113.48,146.37 121.1,146.37 124.85,163.09 128.22,146.37 
		136.34,146.37 129.92,174.04 121.06,174.04 117.19,157.52 113.28,174.04 104.54,174.04 	"/>
	<path class="st1" d="M143.3,146.37h11.33l8.67,27.66h-9.28l-1.28-4.6H144l-1.24,4.6h-8.16L143.3,146.37z M145.66,163.47h5.45
		l-2.71-10.02L145.66,163.47z"/>
	<path class="st1" d="M166.32,146.37h11.3c7.62,0,11.57,3.06,11.57,8.98v0.16c0,3.83-1.93,6-4.68,7.23l6.31,11.3h-9.21l-5.14-9.48
		h-1.39v9.48h-8.74V146.37z M177.11,158.91c2.44,0,3.6-1.01,3.6-3.02v-0.16c0-2.01-1.2-2.79-3.56-2.79h-2.09v5.96H177.11z"/>
	<path class="st1" d="M193.86,146.37h10.56c9.9,0,14.93,4.72,14.93,13.5v0.27c0,8.82-5.18,13.89-14.93,13.89h-10.56V146.37z
		 M204.11,167.3c4.29,0,6.11-2.13,6.11-6.96v-0.31c0-5.07-1.9-6.93-6.15-6.93h-1.43v14.2H204.11z"/>
	<path class="st1" d="M220.9,165.18h8.32c0.15,1.74,1.01,3.17,3.87,3.17c2.05,0,3.06-0.93,3.06-2.28c0-1.47-0.97-1.93-3.95-2.36
		c-7.97-0.89-10.68-3.21-10.68-8.9c0-5.11,4.18-8.82,11.06-8.82c6.85,0,10.68,2.79,11.14,8.82h-8.12c-0.19-1.7-1.16-2.67-3.02-2.67
		c-1.82,0-2.75,0.81-2.75,2.01c0,1.31,0.81,1.93,3.87,2.32c6.96,0.74,10.83,2.51,10.83,8.67c0,5.15-4.02,9.4-11.45,9.4
		C225.27,174.54,221.1,171.41,220.9,165.18"/>
	<path class="st1" d="M152.31,206.26h10v-26.9h-8.54l-6.13,4.21v8.2l4.66-2.56V206.26z M122.48,206.26h23.47v-7.34h-7l1.88-1.81
		c2.86-2.75,4.89-5.27,4.89-9.18c0-5.15-3.69-8.99-11.06-8.99c-7.22,0-11.74,3.46-11.92,10.95h8.99c0.26-2.63,1.05-3.5,2.37-3.5
		s1.81,0.9,1.81,2.07c0,2.03-1.92,4.25-4.7,7.22l-8.73,9.29V206.26z M108.19,199.11c-2.75,0-3.5-1.77-3.5-5.87v-0.9
		c0-4.14,0.83-5.87,3.42-5.87c2.6,0,3.42,1.66,3.42,5.91v0.86C111.53,197.27,110.74,199.11,108.19,199.11 M107.85,206.79
		c8.2,0,13.62-4.89,13.62-13.77v-0.87c0-9.25-6.09-13.2-13.39-13.2c-7.37,0-13.31,4.63-13.31,13.43v0.9
		C94.76,202.08,99.72,206.79,107.85,206.79 M69.86,206.26h23.47v-7.34h-7l1.88-1.81c2.86-2.75,4.89-5.27,4.89-9.18
		c0-5.15-3.69-8.99-11.06-8.99c-7.22,0-11.73,3.46-11.92,10.95h8.99c0.26-2.63,1.05-3.5,2.37-3.5s1.81,0.9,1.81,2.07
		c0,2.03-1.92,4.25-4.7,7.22l-8.73,9.29V206.26z"/>
</g>
</svg>
