<svg width="1200" height="664" viewBox="0 0 1200 664" fill="none" xmlns="http://www.w3.org/2000/svg">
<g clip-path="url(#clip0_505_2)">
<path d="M1200 0H0V664H1200V0Z" fill="white"/>
<path d="M1200 -79H0V664H1200V-79Z" fill="#E6E3F4"/>
<path d="M1200 572H0V664H1200V572Z" fill="#B7AFDD"/>
<path d="M651.292 591.502C651.292 622.296 676.817 647.258 708.308 647.258C739.799 647.258 765.323 622.296 765.323 591.502C765.323 560.708 739.799 535.747 708.308 535.747C676.817 535.747 651.292 560.708 651.292 591.502Z" fill="#6EB74A"/>
<path d="M651.292 513.035C651.292 543.829 676.817 568.791 708.308 568.791C739.799 568.791 765.323 543.829 765.323 513.035C765.323 482.242 739.799 457.28 708.308 457.28C676.817 457.28 651.292 482.242 651.292 513.035Z" fill="#6EB74A"/>
<path d="M708.308 664V484.629" stroke="#4F4898" stroke-width="0.92" stroke-miterlimit="10"/>
<path d="M676.269 569.669L708.308 597.815L745.518 574.349" stroke="#4F4898" stroke-width="0.92" stroke-miterlimit="10"/>
<path d="M688.544 499.78L708.308 519.911L726.015 502.428" stroke="#4F4898" stroke-width="0.92" stroke-miterlimit="10"/>
<path d="M748.96 605.061L708.308 634.441L671.454 614.392" stroke="#4F4898" stroke-width="0.92" stroke-miterlimit="10"/>
<path d="M748.96 527.225L708.308 556.605L671.454 536.556" stroke="#4F4898" stroke-width="0.92" stroke-miterlimit="10"/>
<path d="M688.544 532.085C688.544 601.529 746.105 657.822 817.121 657.822C888.137 657.822 945.699 601.529 945.699 532.085C945.699 462.64 888.137 406.348 817.121 406.348C746.105 406.348 688.544 462.64 688.544 532.085Z" fill="#A0CB7D"/>
<path d="M688.544 355.132C688.544 424.576 746.105 480.869 817.121 480.869C888.137 480.869 945.699 424.576 945.699 355.132C945.699 285.687 888.137 229.395 817.121 229.395C746.105 229.395 688.544 285.687 688.544 355.132Z" fill="#A1CB7C"/>
<path d="M817.121 660.266V291.071" stroke="#4F4898" stroke-width="0.92" stroke-miterlimit="10"/>
<path d="M744.868 482.849L817.121 546.321L901.035 493.402" stroke="#4F4898" stroke-width="0.92" stroke-miterlimit="10"/>
<path d="M772.52 325.238L817.121 370.637L857.052 331.242" stroke="#4F4898" stroke-width="0.92" stroke-miterlimit="10"/>
<path d="M908.799 562.661L817.121 628.918L734.012 583.704" stroke="#4F4898" stroke-width="0.92" stroke-miterlimit="10"/>
<path d="M908.799 387.13L817.121 453.387L734.012 408.174" stroke="#4F4898" stroke-width="0.92" stroke-miterlimit="10"/>
<path d="M787.804 501.726L789.702 508.919H775.942L770.363 505.248L767.249 500.007L771.046 499.196L787.804 501.726Z" fill="#4F4898"/>
<path d="M823.729 553.775C826.162 553.775 828.135 547.601 828.135 539.986C828.135 532.371 826.162 526.197 823.729 526.197C821.296 526.197 819.324 532.371 819.324 539.986C819.324 547.601 821.296 553.775 823.729 553.775Z" fill="#6EB74A"/>
<path d="M831.985 509.473L831.452 571.48" stroke="#6EB74A" stroke-miterlimit="10"/>
<path d="M844.743 525.76L843.996 570.563" stroke="#6EB74A" stroke-miterlimit="10"/>
<path d="M762.748 620.184H775.655V605.648H762.748V620.184Z" fill="#F8B99B"/>
<path d="M743.846 632.836H772.881L774.971 620.189H756.497C749.499 620.189 743.846 625.846 743.846 632.836Z" fill="#DE1182"/>
<path d="M758.694 556.027L780.188 541.31L793.788 561.192L775.974 573.391C773.937 574.789 772.966 577.276 773.521 579.688L781.478 612.933H756.454L749.062 580.712C746.896 571.278 750.715 561.481 758.694 556.027Z" fill="#FFEC83"/>
<path d="M793.787 561.192L775.974 573.391C773.936 574.789 772.966 577.275 773.52 579.687L781.478 612.932" stroke="#F5ADAB" stroke-miterlimit="10"/>
<path d="M756.454 612.921L749.062 580.701C746.896 571.277 750.715 561.48 758.694 556.016L780.188 541.298" stroke="#F5ADAB" stroke-miterlimit="10"/>
<path d="M754.638 636.258H774.34V632.832H754.638V636.258Z" fill="#EAEAF7" stroke="#4F4898" stroke-miterlimit="10"/>
<path d="M788.155 623.349C788.155 645.793 806.342 664 828.785 664C851.218 664 869.415 645.804 869.415 623.349C869.415 600.894 851.228 582.697 828.785 582.697C806.342 582.697 788.155 600.905 788.155 623.349ZM794.065 623.349C794.065 604.202 809.638 588.62 828.775 588.62C847.921 588.62 863.484 604.202 863.484 623.349C863.484 642.495 847.911 658.077 828.775 658.077C809.638 658.077 794.065 642.506 794.065 623.349Z" fill="#F6B9D5" stroke="#4F4898" stroke-miterlimit="10"/>
<path d="M773.126 630.734H743.579" stroke="#FFEC83" stroke-miterlimit="10"/>
<path d="M661.231 623.349C661.231 645.793 679.418 664 701.861 664C724.293 664 742.491 645.804 742.491 623.349C742.491 600.894 724.304 582.697 701.861 582.697C679.429 582.697 661.231 600.905 661.231 623.349ZM667.151 623.349C667.151 604.202 682.725 588.62 701.861 588.62C720.997 588.62 736.571 604.202 736.571 623.349C736.571 642.495 720.997 658.077 701.861 658.077C682.725 658.077 667.151 642.506 667.151 623.349Z" fill="#F6B9D5" stroke="#4F4898" stroke-miterlimit="10"/>
<path d="M828.785 628.653C831.713 628.653 834.087 626.278 834.087 623.349C834.087 620.419 831.713 618.044 828.785 618.044C825.857 618.044 823.484 620.419 823.484 623.349C823.484 626.278 825.857 628.653 828.785 628.653Z" fill="#EAEAF7" stroke="#4F4898" stroke-miterlimit="10"/>
<path d="M701.861 628.653C704.789 628.653 707.162 626.278 707.162 623.349C707.162 620.419 704.789 618.044 701.861 618.044C698.933 618.044 696.56 620.419 696.56 623.349C696.56 626.278 698.933 628.653 701.861 628.653Z" fill="#EAEAF7" stroke="#4F4898" stroke-miterlimit="10"/>
<path d="M772.486 643.103C776.898 643.103 780.475 639.524 780.475 635.109C780.475 630.695 776.898 627.116 772.486 627.116C768.073 627.116 764.496 630.695 764.496 635.109C764.496 639.524 768.073 643.103 772.486 643.103Z" fill="#EAEAF7" stroke="#4F4898" stroke-miterlimit="10"/>
<path d="M828.785 623.348L791.057 573.892H851.132" stroke="#4F4898" stroke-miterlimit="10"/>
<path d="M788.422 605.334L727.931 564.298" stroke="#4F4898" stroke-miterlimit="10"/>
<path d="M729.168 561.224L701.861 623.349" stroke="#4F4898" stroke-miterlimit="10"/>
<path d="M828.092 628.599L774.267 642.9" stroke="#4F4898" stroke-miterlimit="10"/>
<path d="M724.517 571.993L772.486 628.653L825.574 619.133" stroke="#4F4898" stroke-miterlimit="10"/>
<path d="M776.795 543.241L772.742 537.083H796.827L798.758 540.018C801.105 543.583 802.182 547.852 801.787 552.11L794.043 637.116H769.958L778.054 548.257C778.214 546.485 777.766 544.724 776.795 543.241Z" fill="#F6A000"/>
<path d="M789.457 537.083L791.388 540.018C793.734 543.583 794.812 547.852 794.417 552.11L786.673 637.116" stroke="#FFEC83" stroke-miterlimit="10"/>
<path d="M774.267 644.373H787.174L788.561 637.105H775.654L774.267 644.373Z" fill="#F8B99B"/>
<path d="M756.059 657.021H785.094L787.185 644.374H768.71C761.712 644.374 756.059 650.041 756.059 657.021Z" fill="#DE1182"/>
<path d="M728.048 551.982L744.666 543.764C746.565 542.494 748.155 540.818 749.317 538.844L754.587 529.9L764.763 535.621L759.557 544.383C757.456 547.916 754.096 550.53 750.149 551.694L739.45 554.842L734.789 556.774C734.17 557.03 733.456 556.848 733.04 556.325C732.677 555.867 732.186 555.514 731.621 555.376C731.354 555.312 731.088 555.28 730.821 555.269C729.445 555.248 728.24 556.304 728.058 557.67C728.048 557.713 728.048 557.745 728.048 557.777C728.048 558.481 728.624 559.058 729.328 559.058H731.312C731.92 559.058 732.41 559.549 732.41 560.157C732.41 560.765 731.92 561.256 731.312 561.256H728.41C727.568 561.256 726.757 560.925 726.17 560.328C725.573 559.73 725.242 558.919 725.242 558.086V555.706C725.242 553.999 726.384 552.473 728.048 551.982Z" fill="#F8B99B"/>
<path d="M726.17 560.36C725.573 559.762 725.242 558.951 725.242 558.118V555.738C725.242 553.999 726.384 552.473 728.058 551.982L744.677 543.764C746.576 542.494 748.165 540.818 749.328 538.844L754.597 529.9" stroke="#F5ADAB" stroke-miterlimit="10"/>
<path d="M728.059 557.691C728.048 557.734 728.048 557.766 728.048 557.798C728.048 558.503 728.624 559.079 729.328 559.079H731.312" stroke="#F5ADAB" stroke-miterlimit="10"/>
<path d="M730.917 560.008C732.637 560.008 734.032 558.612 734.032 556.891C734.032 555.17 732.637 553.775 730.917 553.775C729.197 553.775 727.802 555.17 727.802 556.891C727.802 558.612 729.197 560.008 730.917 560.008Z" fill="#EAEAF7" stroke="#4F4898" stroke-miterlimit="10"/>
<path d="M802.385 537.083L797.585 529.869C791.942 521.373 784.561 514.18 775.932 508.758L770.353 505.258L762.683 506.122L752.699 530.882L766.427 539.132L772.102 525.664L768.806 533.497L772.486 537.072H802.385V537.083Z" fill="#DE1182"/>
<path d="M797.585 529.858C791.942 521.362 784.166 513.956 775.537 508.534L797.585 529.858Z" fill="#DE1182"/>
<path d="M797.585 529.858C791.942 521.362 784.166 513.956 775.537 508.534" stroke="#F5ADAB" stroke-miterlimit="10"/>
<path d="M752.699 530.882L766.427 539.132L772.092 525.674L768.795 533.497L772.486 537.083H802.385" fill="#DE1182"/>
<path d="M752.699 530.882L766.427 539.132L772.092 525.674L768.795 533.497L772.486 537.083H802.385" stroke="#FFEC83" stroke-miterlimit="10"/>
<path d="M761.759 660.455H781.461V657.029H761.759V660.455Z" fill="#EAEAF7" stroke="#4F4898" stroke-miterlimit="10"/>
<path d="M727.93 564.298H717.658" stroke="#4F4898" stroke-miterlimit="10"/>
<path d="M714.874 568.556H712.656C712.346 568.556 712.09 568.3 712.09 567.991V560.616C712.09 560.306 712.346 560.05 712.656 560.05H714.874V568.556Z" fill="#FFEC83"/>
<path d="M714.875 568.556H717.093C717.403 568.556 717.659 568.3 717.659 567.991V560.616C717.659 560.306 717.403 560.05 717.093 560.05H714.875V568.556Z" fill="#EAEAF7" stroke="#4F4898" stroke-miterlimit="10"/>
<path d="M815.8 573.894H851.139V543.275H815.8V573.894Z" fill="#EAEAF7" stroke="#4F4898" stroke-miterlimit="10"/>
<path d="M851.132 543.273H815.793V573.892H851.132V543.273Z" stroke="#4F4898" stroke-miterlimit="10"/>
<path d="M851.132 568.791H815.793" stroke="#4F4898" stroke-miterlimit="10"/>
<path d="M851.132 563.689H815.793" stroke="#4F4898" stroke-miterlimit="10"/>
<path d="M851.132 558.587H815.793" stroke="#4F4898" stroke-miterlimit="10"/>
<path d="M851.132 553.476H815.793" stroke="#4F4898" stroke-miterlimit="10"/>
<path d="M851.132 548.374H815.793" stroke="#4F4898" stroke-miterlimit="10"/>
<path d="M821.681 543.273V573.892" stroke="#4F4898" stroke-miterlimit="10"/>
<path d="M827.58 543.273V573.892" stroke="#4F4898" stroke-miterlimit="10"/>
<path d="M833.468 543.273V573.892" stroke="#4F4898" stroke-miterlimit="10"/>
<path d="M839.356 543.273V573.892" stroke="#4F4898" stroke-miterlimit="10"/>
<path d="M845.244 543.273V573.892" stroke="#4F4898" stroke-miterlimit="10"/>
<path d="M850.801 530.263C854.136 530.263 856.839 528.442 856.839 526.197C856.839 523.951 854.136 522.13 850.801 522.13C847.467 522.13 844.764 523.951 844.764 526.197C844.764 528.442 847.467 530.263 850.801 530.263Z" fill="#FFEC83"/>
<path d="M838.737 530.263C842.071 530.263 844.774 528.442 844.774 526.197C844.774 523.951 842.071 522.13 838.737 522.13C835.403 522.13 832.7 523.951 832.7 526.197C832.7 528.442 835.403 530.263 838.737 530.263Z" fill="#FFEC83"/>
<path d="M844.742 526.229C846.987 526.229 848.807 523.524 848.807 520.188C848.807 516.852 846.987 514.147 844.742 514.147C842.498 514.147 840.678 516.852 840.678 520.188C840.678 523.524 842.498 526.229 844.742 526.229Z" fill="#FFEC83"/>
<path d="M844.742 537.841C846.987 537.841 848.807 535.136 848.807 531.8C848.807 528.464 846.987 525.759 844.742 525.759C842.498 525.759 840.678 528.464 840.678 531.8C840.678 535.136 842.498 537.841 844.742 537.841Z" fill="#FFEC83"/>
<path d="M844.742 527.872C845.909 527.872 846.854 526.926 846.854 525.759C846.854 524.592 845.909 523.646 844.742 523.646C843.576 523.646 842.63 524.592 842.63 525.759C842.63 526.926 843.576 527.872 844.742 527.872Z" fill="#F6A000" stroke="#F6A000" stroke-miterlimit="10"/>
<path d="M838.257 513.54C841.591 513.54 844.294 511.719 844.294 509.473C844.294 507.228 841.591 505.407 838.257 505.407C834.923 505.407 832.22 507.228 832.22 509.473C832.22 511.719 834.923 513.54 838.257 513.54Z" fill="#FFEC83"/>
<path d="M826.193 513.54C829.527 513.54 832.23 511.719 832.23 509.473C832.23 507.228 829.527 505.407 826.193 505.407C822.859 505.407 820.156 507.228 820.156 509.473C820.156 511.719 822.859 513.54 826.193 513.54Z" fill="#FFEC83"/>
<path d="M832.199 509.495C834.443 509.495 836.263 506.79 836.263 503.454C836.263 500.118 834.443 497.414 832.199 497.414C829.954 497.414 828.135 500.118 828.135 503.454C828.135 506.79 829.954 509.495 832.199 509.495Z" fill="#FFEC83"/>
<path d="M832.199 521.107C834.443 521.107 836.263 518.402 836.263 515.066C836.263 511.73 834.443 509.025 832.199 509.025C829.954 509.025 828.135 511.73 828.135 515.066C828.135 518.402 829.954 521.107 832.199 521.107Z" fill="#FFEC83"/>
<path d="M832.199 511.149C833.365 511.149 834.311 510.203 834.311 509.036C834.311 507.869 833.365 506.923 832.199 506.923C831.032 506.923 830.086 507.869 830.086 509.036C830.086 510.203 831.032 511.149 832.199 511.149Z" fill="#F6A000" stroke="#F6A000" stroke-miterlimit="10"/>
<path d="M761.307 503.849H761.702C766.267 503.849 770.011 500.114 770.011 495.535V490.818C770.011 486.25 766.278 482.504 761.702 482.504H761.307C756.742 482.504 752.998 486.239 752.998 490.818V495.535C752.998 500.114 756.742 503.849 761.307 503.849Z" fill="#F8B99B"/>
<path d="M748.582 494.041V495.193C748.582 496.09 749.318 496.826 750.214 496.826H755.174C756.07 496.826 756.806 496.09 756.806 495.193V494.041C756.806 493.144 756.07 492.408 755.174 492.408H750.214C749.318 492.397 748.582 493.134 748.582 494.041Z" fill="#F8B99B"/>
<path d="M755.206 485.321L756.731 487.114C758.246 488.897 760.027 490.444 762.022 491.682L765.179 493.646L767.974 500.861L771.003 497.616C772.55 495.962 773.51 493.849 773.744 491.608L774.054 488.609L770.928 485.844L769.008 481.245L764.71 480.455C762.331 480.017 759.888 480.455 757.808 481.693C756.475 482.493 755.536 483.806 755.206 485.321Z" fill="#4F4898"/>
<path d="M765.659 496.986C767.503 496.986 768.998 495.491 768.998 493.646C768.998 491.801 767.503 490.305 765.659 490.305C763.815 490.305 762.32 491.801 762.32 493.646C762.32 495.491 763.815 496.986 765.659 496.986Z" fill="#F8B99B"/>
<path d="M755.408 493.752V490.914H758.992" stroke="#4F4898" stroke-miterlimit="10" stroke-linecap="round" stroke-linejoin="round"/>
<path d="M766.054 495.397C766.928 495.023 767.323 494.009 766.95 493.134C766.576 492.259 765.563 491.864 764.688 492.238" fill="#F8B99B"/>
<path d="M766.054 495.397C766.928 495.023 767.323 494.009 766.95 493.134C766.576 492.259 765.563 491.864 764.688 492.238" stroke="#4F4898" stroke-miterlimit="10" stroke-linecap="round"/>
<path d="M778.875 490.914L780.315 491.554C782.513 492.536 783.931 494.724 783.931 497.136V497.904C786.278 498.673 787.931 500.786 788.123 503.251C788.155 503.635 788.091 504.03 787.942 504.383L787.665 505.044C786.779 507.147 784.657 508.459 782.385 508.321C780.081 508.182 777.841 507.499 775.857 506.336L773.414 504.927C772.731 504.532 772.07 504.084 771.451 503.593L768.07 500.871L766.47 496.997L771.12 496.207L770.939 489.078L768.187 481.095L769.008 481.245L770.886 482.056C774.705 483.71 777.627 486.944 778.875 490.914Z" fill="#4F4898"/>
<path d="M762.694 506.122L770.363 505.247L766.427 496.901L759.91 500.231L762.694 506.122Z" fill="#F8B99B"/>
<path d="M762.246 497.125C762.15 497.584 761.819 498.801 760.721 499.846C759.483 501.02 758.054 501.213 757.606 501.266" stroke="#4F4898" stroke-miterlimit="10" stroke-linecap="round" stroke-linejoin="round"/>
<path d="M779.227 508.918H772.358L770.363 505.247" fill="#4F4898"/>
<path d="M785.542 654.917H755.995" stroke="#FFEC83" stroke-miterlimit="10"/>
<path d="M762.747 620.189V627.116" stroke="#FFEC83" stroke-miterlimit="10"/>
<path d="M759.75 620.189V627.116" stroke="#FFEC83" stroke-miterlimit="10"/>
<path d="M756.752 620.189V627.116" stroke="#FFEC83" stroke-miterlimit="10"/>
<path d="M774.342 644.374V651.3" stroke="#FFEC83" stroke-miterlimit="10"/>
<path d="M771.345 644.374V651.3" stroke="#FFEC83" stroke-miterlimit="10"/>
<path d="M768.347 644.374V651.3" stroke="#FFEC83" stroke-miterlimit="10"/>
<path d="M781.905 497.371C781.99 497.157 782.417 495.951 781.798 494.692C780.988 493.038 779.131 492.835 779.014 492.824" fill="#4F4898"/>
<path d="M781.905 497.371C781.99 497.157 782.417 495.951 781.798 494.692C780.988 493.038 779.131 492.835 779.014 492.824" stroke="#FFEC83" stroke-miterlimit="10" stroke-linecap="round"/>
<path d="M777.36 490.572C777.03 489.59 776.411 488.15 775.216 486.719C773.36 484.478 771.142 483.486 770.032 483.08" fill="#4F4898"/>
<path d="M777.36 490.572C777.03 489.59 776.411 488.15 775.216 486.719C773.36 484.478 771.142 483.486 770.032 483.08" stroke="#FFEC83" stroke-miterlimit="10" stroke-linecap="round"/>
<path d="M768.881 484.5C771.732 484.5 774.043 482.187 774.043 479.334C774.043 476.482 771.732 474.169 768.881 474.169C766.029 474.169 763.718 476.482 763.718 479.334C763.718 482.187 766.029 484.5 768.881 484.5Z" fill="#4F4898"/>
<path d="M762.406 480.274L773.947 483.433C774.043 483.454 774.139 483.401 774.171 483.305L774.544 481.939C774.566 481.843 774.512 481.747 774.416 481.715L762.875 478.566C762.779 478.545 762.683 478.598 762.651 478.694L762.278 480.06C762.256 480.156 762.31 480.252 762.406 480.274Z" fill="#DE1182"/>
<path d="M794.416 552.1H792.72C781.158 552.1 779.813 537.083 779.813 537.083" stroke="#FFEC83" stroke-miterlimit="10"/>
</g>
<defs>
<clipPath id="clip0_505_2">
<rect width="1200" height="664" fill="white"/>
</clipPath>
</defs>
</svg>
