<svg width="133" height="106" viewBox="0 0 133 106" fill="none" xmlns="http://www.w3.org/2000/svg">
<path d="M28.9548 100.728H0V96.5148H24.7411V46.168H0V41.9546H28.9548V100.728Z" fill="#7D75C1"/>
<path d="M19.6632 86.0352H15.4498V90.2486H19.6632V86.0352Z" fill="#7D75C1"/>
<path d="M55.2086 49.6255H50.9949V60.2135H55.2086V49.6255Z" fill="#7D75C1"/>
<path d="M63.7436 42.3867H59.5302V66.3716H63.7436V42.3867Z" fill="#7D75C1"/>
<path d="M72.2787 45.52H68.0652V66.3715H72.2787V45.52Z" fill="#7D75C1"/>
<path d="M80.9219 36.4448H76.7084V66.3719H80.9219V36.4448Z" fill="#7D75C1"/>
<path d="M89.4572 38.9297H85.2435V66.3717H89.4572V38.9297Z" fill="#7D75C1"/>
<path d="M97.9923 26.5049H93.7788V66.3716H97.9923V26.5049Z" fill="#7D75C1"/>
<path d="M106.528 31.3667H102.314V73.0703H106.528V31.3667Z" fill="#7D75C1"/>
<path d="M121.977 63.6707L118.088 62.1582C120.033 57.2964 121.005 52.1106 121.005 46.8166C121.005 23.588 102.098 4.57286 78.7611 4.57286C55.5325 4.57286 36.5176 23.48 36.5176 46.8166C36.5176 49.3015 36.7335 51.7865 37.1657 54.3794L33.0604 55.1356C32.5202 52.4346 32.3039 49.6255 32.3039 46.9245C32.3039 21.319 53.1556 0.467285 78.7611 0.467285C104.367 0.467285 125.218 21.319 125.218 46.9245C125.218 52.5426 124.138 58.2687 121.977 63.6707Z" fill="#7D75C1"/>
<path d="M76.3842 105.266C74.4395 105.266 72.4949 104.942 70.5502 104.186L35.6532 90.1405H26.9019V85.9271H36.4094L72.0626 100.188C73.7913 100.837 75.736 101.053 77.6807 100.945C79.6254 100.728 81.4621 100.08 83.0827 99.1079L126.947 70.3694C127.811 69.7212 128.351 68.8567 128.459 67.7763C128.568 66.6959 128.352 65.7236 127.703 64.8593L127.595 64.7511C127.055 63.9948 126.191 63.4547 125.218 63.2387C124.246 63.0226 123.274 63.2387 122.409 63.7789L98.9648 78.3643L96.6958 74.7989L120.14 60.2135C121.869 59.1331 123.922 58.809 125.867 59.1331C127.811 59.4572 129.648 60.6457 130.837 62.1583L130.944 62.2664C132.241 63.9951 132.781 66.1557 132.457 68.3165C132.133 70.4773 130.945 72.422 129.216 73.7185L129.108 73.8266L85.1356 102.673C82.8668 104.078 80.4899 104.942 77.897 105.158C77.4648 105.158 76.9244 105.266 76.3842 105.266Z" fill="#7D75C1"/>
<path d="M59.638 83.8746H55.4246C55.4246 79.4449 58.9898 75.8794 63.4194 75.8794H94.103C96.1557 75.8794 97.8844 74.1508 97.8844 72.098C97.8844 70.0453 96.1557 68.3166 94.103 68.3166H62.7714L51.535 61.078C49.2662 59.5654 46.7812 58.4849 44.1883 57.7287C41.5953 56.9724 38.8944 56.5404 36.1934 56.5404H26.9019V52.3267H36.1934C39.3266 52.3267 42.4597 52.759 45.3768 53.6234C48.4019 54.4877 51.211 55.784 53.804 57.5126L63.9596 63.995H94.103C98.5326 63.995 102.098 67.5605 102.098 71.9902C102.098 76.4198 98.5326 79.985 94.103 79.985H63.4194C61.3667 80.2011 59.638 81.8218 59.638 83.8746Z" fill="#7D75C1"/>
</svg>
