<svg width="110" height="110" viewBox="0 0 110 110" fill="none" xmlns="http://www.w3.org/2000/svg">
<path d="M91.9878 94.9356L78.331 81.2788L79.7472 79.8624C86.3227 73.2869 90.0656 64.4858 90.0656 55.0777V53.1558H109.388V55.0777C109.388 69.645 103.723 83.3019 93.5053 93.5192L91.9878 94.9356ZM83.8949 81.2788L91.9878 89.3717C100.182 80.4695 104.936 69.1392 105.341 57.101H93.9098C93.404 66.1044 89.9646 74.6021 83.8949 81.2788Z" fill="#7D75C1"/>
<path d="M39.687 23.5151L32.3024 5.71055L34.1231 5.00246C40.6986 2.2711 47.6789 0.85498 54.9625 0.85498H56.8845V20.1767H54.9625C50.3091 20.1767 45.858 21.0873 41.6092 22.807L39.687 23.5151ZM37.4615 7.73378L41.8115 18.3558C45.3522 17.0407 49.0952 16.3326 52.9393 16.1303V4.59792C47.5777 4.9014 42.4184 5.91287 37.4615 7.73378Z" fill="#7D75C1"/>
<path d="M80.4553 7.12695L65.9891 21.5931V21.8964C67.3042 22.3011 68.5183 22.8069 69.7323 23.4138L83.9959 9.15019C82.8831 8.44206 81.6692 7.73392 80.4553 7.12695Z" fill="#7D75C1"/>
<path d="M66.0903 11.6794V17.2433L77.6227 5.71073C76.3076 5.10375 74.9926 4.59809 73.6775 4.09229L66.0903 11.6794Z" fill="#7D75C1"/>
<path d="M91.9878 15.2197L78.2297 28.9776C79.2414 29.888 80.1518 30.7987 80.9611 31.7091L94.7192 17.951C93.9099 17.0406 92.9994 16.1302 91.9878 15.2197Z" fill="#7D75C1"/>
<path d="M100.89 26.0444L86.6262 40.3083C87.2332 41.5223 87.739 42.7362 88.1436 44.0513H88.4472L102.913 29.5851C102.306 28.3712 101.598 27.1572 100.89 26.0444Z" fill="#7D75C1"/>
<path d="M102.61 43.95H108.174C107.87 42.4326 107.465 41.0164 107.061 39.499L102.61 43.95Z" fill="#7D75C1"/>
<path d="M89.7621 13.2979C88.7505 12.4886 87.739 11.6794 86.6262 10.8701L72.6658 24.8305C73.7786 25.5386 74.8914 26.2467 76.0042 27.056L89.7621 13.2979Z" fill="#7D75C1"/>
<path d="M105.948 36.3627C105.442 35.0476 104.936 33.7326 104.33 32.4175L92.7969 43.9498H98.3608L105.948 36.3627Z" fill="#7D75C1"/>
<path d="M70.5414 2.97933C69.1251 2.57468 67.6078 2.17018 66.0903 1.8667V7.4306L70.5414 2.97933Z" fill="#7D75C1"/>
<path d="M99.1702 23.4137C98.3609 22.3009 97.5517 21.2894 96.7424 20.2778L82.9843 34.0357C83.7936 35.1485 84.5017 36.2613 85.2098 37.3741L99.1702 23.4137Z" fill="#7D75C1"/>
<path d="M54.9625 109.503C25.0187 109.503 0.638733 85.1227 0.638733 55.0777C0.638733 38.0825 8.73158 21.7955 22.2872 11.5781L24.614 14.7142C12.07 24.1223 4.48293 39.1953 4.48293 55.0777C4.48293 82.8972 27.1431 105.558 54.9625 105.558C64.0671 105.558 72.8681 103.13 80.6575 98.5772L82.6808 101.916C74.2843 106.873 64.6741 109.503 54.9625 109.503Z" fill="#7D75C1"/>
<path d="M54.9625 94.126C54.1532 94.126 53.344 94.1259 52.5348 94.0248L52.737 90.0796C53.951 90.1807 55.266 90.1807 56.48 90.0796L56.6822 94.0248C56.0753 94.0248 55.5695 94.126 54.9625 94.126ZM60.83 93.6202L60.2229 89.776C61.4368 89.5737 62.7519 89.3713 63.9658 88.9667L64.9775 92.8109C63.6623 93.1144 62.2462 93.4179 60.83 93.6202ZM48.2858 93.519C46.8695 93.3167 45.5545 93.0133 44.1383 92.6086L45.2509 88.8657C46.4649 89.1692 47.6789 89.4725 48.8928 89.6748L48.2858 93.519ZM40.1928 91.1922C38.8777 90.6864 37.664 90.0796 36.3489 89.3715L38.2708 85.9318C39.3836 86.5388 40.4963 87.0447 41.7102 87.5505L40.1928 91.1922ZM32.8082 87.1457C31.6954 86.3364 30.5826 85.5272 29.4698 84.6167L31.9989 81.6831C32.9093 82.4924 33.9209 83.3017 35.0337 84.0099L32.8082 87.1457ZM26.435 81.6831C25.5245 80.6715 24.6141 79.5588 23.7037 78.446L26.8395 76.1192C27.5477 77.1308 28.4583 78.1423 29.2676 79.0528L26.435 81.6831ZM21.3769 74.9053C20.6688 73.6914 19.9605 72.4775 19.4547 71.1624L22.9953 69.5437C23.5011 70.6565 24.1083 71.7693 24.7153 72.8821L21.3769 74.9053ZM17.9372 67.3182C17.5326 66.0031 17.1281 64.5868 16.8246 63.2717L20.6688 62.4624C20.9723 63.6763 21.2758 64.8904 21.6804 66.1043L17.9372 67.3182ZM16.1165 59.023C16.0154 57.7079 15.914 56.3926 15.914 55.0775V54.8752H19.8595V55.0775C19.8595 56.2915 19.9606 57.5054 20.0617 58.6182L16.1165 59.023ZM20.163 51.1323L16.2175 50.7275C16.4199 49.3112 16.6221 47.8951 16.9256 46.58L20.7698 47.4904C20.4663 48.6032 20.2642 49.8172 20.163 51.1323ZM21.7814 43.7474L18.0385 42.4323C18.4431 41.1172 19.0502 39.8022 19.6572 38.4871L23.1978 40.2068C22.692 41.3196 22.1861 42.5335 21.7814 43.7474ZM25.0186 36.8684L21.6804 34.8452C22.3886 33.6312 23.1977 32.5185 24.1082 31.4058L27.2443 33.8335C26.3339 34.744 25.6255 35.7556 25.0186 36.8684Z" fill="#7D75C1"/>
<path d="M29.4585 25.3003L26.7269 28.1472L29.5739 30.8784L32.3054 28.0314L29.4585 25.3003Z" fill="#7D75C1"/>
<path d="M71.0953 86.1451L67.4598 87.6772L68.9916 91.3131L72.6271 89.7809L71.0953 86.1451Z" fill="#7D75C1"/>
<path d="M67.0391 40.0141L39.9249 67.1206L42.7141 69.9107L69.8284 42.8042L67.0391 40.0141Z" fill="#7D75C1"/>
<path d="M63.359 70.6568C59.4137 70.6568 56.2777 67.5208 56.2777 63.5755C56.2777 59.6302 59.4137 56.4941 63.359 56.4941C67.3043 56.4941 70.4404 59.6302 70.4404 63.5755C70.4404 67.4196 67.2032 70.6568 63.359 70.6568ZM63.359 60.4394C61.6393 60.4394 60.2229 61.8557 60.2229 63.5755C60.2229 65.2952 61.6393 66.7113 63.359 66.7113C65.0788 66.7113 66.4949 65.2952 66.4949 63.5755C66.4949 61.8557 65.0788 60.4394 63.359 60.4394Z" fill="#7D75C1"/>
<path d="M46.4651 53.7623C42.5197 53.7623 39.3837 50.6262 39.3837 46.6809C39.3837 42.7356 42.5197 39.5996 46.4651 39.5996C50.4104 39.5996 53.5464 42.7356 53.5464 46.6809C53.5464 50.6262 50.4104 53.7623 46.4651 53.7623ZM46.4651 43.5451C44.7453 43.5451 43.3289 44.9612 43.3289 46.6809C43.3289 48.4007 44.7453 49.817 46.4651 49.817C48.1848 49.817 49.6009 48.4007 49.6009 46.6809C49.6009 44.9612 48.1848 43.5451 46.4651 43.5451Z" fill="#7D75C1"/>
</svg>
