<svg width="231" height="458" viewBox="0 0 231 458" fill="none" xmlns="http://www.w3.org/2000/svg">
<path d="M116.026 29.9446C124.197 29.9446 130.822 23.3204 130.822 15.149C130.822 6.9777 124.197 0.353516 116.026 0.353516C107.855 0.353516 101.23 6.9777 101.23 15.149C101.23 23.3204 107.855 29.9446 116.026 29.9446Z" fill="#4F4898"/>
<path d="M143.177 57.0959C145.853 31.4398 133.34 22.7041 123.424 20.1857C123.345 20.1857 123.266 20.1857 123.188 20.107C120.433 19.3987 117.6 20.2644 115.554 22.468C113.508 20.2644 110.596 19.3987 107.92 20.107C107.841 20.107 107.762 20.107 107.684 20.1857C97.846 22.7041 82.264 34.3517 90.37 57.0959" fill="#4F4898"/>
<path d="M230.219 297.68L226.52 271.316C228.645 239.836 223.687 215.518 219.595 200.722C217.549 193.324 197.165 123.203 143.099 98.1765C140.029 96.7599 134.678 94.3202 129.326 92.9823V83.0662C133.576 79.6034 136.33 74.3305 136.33 68.3493V64.8865C136.409 64.8865 136.409 64.8865 136.488 64.8865C140.974 64.8865 144.673 61.1877 144.673 56.7018C144.673 52.2159 140.974 48.517 136.488 48.517C136.409 48.517 136.409 48.517 136.33 48.517V45.7625C136.33 35.2955 127.831 26.7959 117.364 26.7959H114.216C103.749 26.7959 95.249 35.2955 95.249 45.7625V48.517C95.171 48.517 95.171 48.517 95.092 48.517C90.606 48.517 86.907 52.2159 86.907 56.7018C86.907 61.1877 90.606 64.8865 95.092 64.8865C95.171 64.8865 95.171 64.8865 95.249 64.8865V68.3493C95.249 74.3305 98.004 79.6034 102.254 83.0662V92.9823C96.902 94.2415 91.55 96.7599 88.481 98.1765C34.414 123.203 14.0312 193.324 11.985 200.722C7.89261 215.518 2.93451 239.836 5.05941 271.316L1.36061 297.68C1.12451 299.018 2.06881 300.277 3.32801 300.356C4.35111 300.435 5.37421 299.726 5.61031 298.625L9.15181 281.153L7.42041 298.546C7.26301 299.726 8.12871 300.749 9.23051 300.828C10.1749 300.907 11.0406 300.199 11.2767 299.175L14.346 282.176L13.7951 299.333C13.7951 300.356 14.5034 301.222 15.4478 301.3C16.3922 301.379 17.2579 300.671 17.4153 299.648L19.5402 281.94L19.7763 299.726C19.7763 300.749 20.5633 301.615 21.5864 301.694C22.6882 301.773 23.6326 300.907 23.7113 299.805L24.8917 281.389L29.6137 287.056C30.558 288.158 32.132 288.315 33.313 287.37C34.257 286.583 34.572 285.167 34.1 283.986L26.9379 269.427C27.4101 264.075 28.6693 255.025 31.975 244.479C38.507 223.939 49.131 210.796 61.015 198.125C61.015 198.282 60.936 198.44 60.936 198.597C59.992 200.958 58.969 203.477 57.946 205.995C52.751 219.374 51.728 228.346 50.705 246.919C49.682 265.492 52.751 285.797 60.543 304.37C68.255 322.943 71.875 327.429 71.403 341.752C70.852 356.154 70.38 372.287 76.047 384.565C81.713 396.763 87.93 405.105 87.379 414.864C86.907 423.127 81.319 427.692 77.778 432.571C77.542 432.729 77.384 432.965 77.227 433.201L73.292 438.946C72.269 440.441 72.662 442.488 74.236 443.511C74.787 443.904 75.417 444.061 76.047 444.061C75.81 445.399 76.519 446.816 77.778 447.446C78.25 447.682 78.722 447.76 79.195 447.76C79.195 448.941 79.824 450.121 80.926 450.751C81.792 451.223 82.815 451.223 83.68 450.83C83.759 451.932 84.389 453.033 85.412 453.584C86.356 454.056 87.379 454.056 88.245 453.663C88.481 455.001 89.268 456.181 90.527 456.89H90.606C92.731 457.991 95.407 457.126 96.508 455.001L98.869 450.436C99.893 449.098 100.994 446.895 102.647 443.511C106.739 434.775 106.503 434.145 109.887 428.322C113.271 422.498 114.295 421.317 112.248 414.234C110.202 407.151 107.526 408.096 109.887 390.782C112.248 373.468 115.947 365.913 113.35 358.043C110.753 350.173 110.753 350.173 110.753 350.173C110.753 350.173 112.642 344.034 114.295 333.646C115.947 323.258 115.947 310.98 115.947 310.98V94.635V311.138C115.947 311.138 115.947 323.336 117.6 333.803C119.253 344.192 121.141 350.33 121.141 350.33C121.141 350.33 121.141 350.33 118.544 358.2C115.947 366.07 119.567 373.625 122.007 390.939C124.368 408.253 121.692 407.309 119.646 414.392C117.6 421.475 118.623 422.655 122.007 428.479C125.391 434.303 125.234 435.011 129.405 443.825C130.979 447.21 132.081 449.413 133.182 450.751L135.543 455.316C136.645 457.44 139.242 458.306 141.446 457.204H141.525C142.784 456.575 143.65 455.316 143.807 453.978C144.673 454.371 145.696 454.371 146.64 453.899C147.742 453.348 148.372 452.246 148.372 451.144C149.237 451.459 150.26 451.459 151.126 451.066C152.306 450.436 152.936 449.256 152.857 448.075C153.33 448.075 153.802 447.997 154.274 447.76C155.533 447.131 156.163 445.714 156.005 444.376C156.635 444.376 157.265 444.219 157.815 443.825C159.311 442.802 159.704 440.756 158.76 439.261L154.667 433.437C154.51 433.201 154.353 432.965 154.117 432.807C150.496 427.849 144.909 423.285 144.515 415.1C143.964 405.341 150.182 397.078 155.848 384.801C161.514 372.602 161.042 356.39 160.491 341.988C159.94 327.586 163.561 323.179 171.352 304.606C179.064 286.033 182.212 265.728 181.189 247.155C180.166 228.582 179.143 219.61 173.949 206.231C173.005 203.713 171.981 201.194 170.958 198.833C170.958 198.676 170.88 198.519 170.88 198.361C182.763 211.032 193.309 224.096 199.92 244.715C203.304 255.261 204.484 264.233 204.957 269.663L197.795 284.223C197.323 285.403 197.638 286.82 198.582 287.607C199.684 288.551 201.336 288.394 202.281 287.292L207.003 281.625L208.183 300.041C208.262 301.222 209.206 302.009 210.308 301.93C211.331 301.851 212.118 300.986 212.118 299.962L212.354 282.176L214.479 299.884C214.637 300.907 215.424 301.615 216.447 301.536C217.391 301.458 218.178 300.592 218.099 299.569L217.549 282.412L220.618 299.412C220.854 300.435 221.72 301.064 222.664 301.064C223.766 300.986 224.553 299.962 224.474 298.782L222.743 281.389L226.284 298.861C226.52 299.962 227.543 300.671 228.566 300.592C229.511 300.199 230.455 299.018 230.219 297.68Z" fill="#C1BDDF" stroke="#4F4898" stroke-miterlimit="10"/>
<path d="M115.318 35.6113C115.318 33.9586 113.822 32.542 112.012 32.542C110.281 32.542 108.786 33.8012 108.707 35.4539C108.156 34.9817 107.369 34.6669 106.503 34.6669C104.693 34.6669 103.198 36.0048 103.198 37.7362C103.198 38.5232 103.513 39.1528 103.985 39.7037C103.749 39.625 103.434 39.625 103.198 39.625C101.388 39.625 99.893 40.9629 99.893 42.6943C99.893 44.0322 100.837 45.1339 102.096 45.6061V45.6848C100.601 46.2357 99.499 47.5736 99.499 49.0689C99.499 51.1151 101.309 52.7678 103.434 52.7678C103.591 52.7678 103.67 52.7678 103.828 52.7678C103.434 53.24 103.119 53.9483 103.119 54.5779C103.119 56.2306 104.614 57.6472 106.425 57.6472C107.29 57.6472 108.077 57.3324 108.707 56.8602C109.022 58.2768 110.36 59.2999 111.934 59.2999C113.744 59.2999 115.239 57.962 115.239 56.2306V56.1519V36.2409C115.239 36.1622 115.239 36.0835 115.239 36.0048C115.239 35.9261 115.318 35.7687 115.318 35.6113Z" fill="#F5ADAB"/>
<path d="M116.498 35.6113C116.498 33.9586 117.993 32.542 119.803 32.542C121.535 32.542 123.03 33.8012 123.109 35.4539C123.66 34.9817 124.447 34.6669 125.312 34.6669C127.123 34.6669 128.618 36.0048 128.618 37.7362C128.618 38.5232 128.303 39.1528 127.831 39.7037C128.067 39.625 128.382 39.625 128.618 39.625C130.428 39.625 131.923 40.9629 131.923 42.6943C131.923 44.0322 130.979 45.1339 129.72 45.6061V45.6848C131.215 46.2357 132.317 47.5736 132.317 49.0689C132.317 51.1151 130.507 52.7678 128.382 52.7678C128.224 52.7678 128.146 52.7678 127.988 52.7678C128.382 53.24 128.696 53.9483 128.696 54.5779C128.696 56.2306 127.201 57.6472 125.391 57.6472C124.525 57.6472 123.738 57.3324 123.109 56.8602C122.794 58.2768 121.456 59.2999 119.882 59.2999C118.072 59.2999 116.577 57.962 116.577 56.2306V56.1519V36.2409C116.577 36.1622 116.577 36.0835 116.577 36.0048C116.498 35.9261 116.498 35.7687 116.498 35.6113Z" fill="#F5ADAB"/>
<path d="M102.096 45.6846C100.601 46.2355 99.499 47.5734 99.499 49.0687C99.499 51.1148 101.309 52.7675 103.434 52.7675" stroke="#E94B60" stroke-miterlimit="10"/>
<path d="M103.198 39.625C101.388 39.625 99.893 40.9629 99.893 42.6943" stroke="#E94B60" stroke-miterlimit="10"/>
<path d="M106.503 34.7451C104.693 34.7451 103.198 36.083 103.198 37.8144" stroke="#E94B60" stroke-miterlimit="10"/>
<path d="M115.318 35.6113C115.318 33.9586 113.822 32.542 112.012 32.542" stroke="#E94B60" stroke-miterlimit="10"/>
<path d="M112.012 59.2994C113.822 59.2994 115.318 57.9615 115.318 56.2301V56.1514" stroke="#E94B60" stroke-miterlimit="10"/>
<path d="M103.198 54.5781C103.198 56.2308 104.693 57.6474 106.503 57.6474" stroke="#E94B60" stroke-miterlimit="10"/>
<path d="M127.91 52.7666C128.303 53.2388 128.618 53.9471 128.618 54.5767" stroke="#E94B60" stroke-miterlimit="10"/>
<path d="M129.72 45.6846C131.215 46.2355 132.317 47.5734 132.317 49.0687" stroke="#E94B60" stroke-miterlimit="10"/>
<path d="M123.109 35.532C123.03 33.8793 121.614 32.6201 119.803 32.6201C117.993 32.6201 116.498 33.958 116.498 35.6894C116.498 35.6894 116.498 56.0726 116.498 56.1513V36.2403" stroke="#E94B60" stroke-miterlimit="10"/>
<path d="M108.628 39.152C110.124 38.4437 111.855 39.0733 112.563 40.5686C113.272 42.0639 112.642 43.7953 111.147 44.5036" stroke="#E94B60" stroke-miterlimit="10"/>
<path d="M124.683 42.2217C126.336 42.3004 127.595 43.717 127.438 45.3697C127.28 47.0224 125.942 48.2816 124.29 48.1242" stroke="#E94B60" stroke-miterlimit="10"/>
<path d="M120.591 42.221C119.331 41.5127 118.938 39.86 119.646 38.6008C120.354 37.3416 122.007 36.9481 123.266 37.6564" stroke="#E94B60" stroke-miterlimit="10"/>
<path d="M118.151 53.2396C118.623 54.5775 120.118 55.3645 121.456 54.8923C122.794 54.4201 123.581 52.9248 123.109 51.5869" stroke="#E94B60" stroke-miterlimit="10"/>
<path d="M105.953 46.7861C104.93 48.124 105.244 49.9341 106.504 50.9572C107.841 51.9803 109.652 51.6655 110.675 50.4063" stroke="#E94B60" stroke-miterlimit="10"/>
<path d="M145.381 197.654C147.728 197.654 149.631 195.751 149.631 193.404C149.631 191.057 147.728 189.154 145.381 189.154C143.034 189.154 141.131 191.057 141.131 193.404C141.131 195.751 143.034 197.654 145.381 197.654Z" fill="#E94B60"/>
<path d="M149.552 202.926C151.899 202.926 153.802 201.024 153.802 198.677C153.802 196.329 151.899 194.427 149.552 194.427C147.205 194.427 145.302 196.329 145.302 198.677C145.302 201.024 147.205 202.926 149.552 202.926Z" fill="#E94B60"/>
<path d="M147.033 210.009C149.381 210.009 151.283 208.107 151.283 205.76C151.283 203.412 149.381 201.51 147.033 201.51C144.686 201.51 142.784 203.412 142.784 205.76C142.784 208.107 144.686 210.009 147.033 210.009Z" fill="#E94B60"/>
<path d="M147.034 189.548L148.372 190.256C151.205 191.751 153.251 194.506 153.881 197.654C154.431 200.566 153.802 203.635 151.992 206.075L150.733 207.806L147.034 189.548Z" fill="#E94B60"/>
<path d="M147.034 189.548L148.372 190.256C151.205 191.751 153.251 194.506 153.881 197.654C154.431 200.566 153.802 203.635 151.992 206.075L150.733 207.806" stroke="#F5ADAB" stroke-miterlimit="10"/>
<path d="M143.414 229.292L142.941 228.977C141.761 228.19 140.266 228.032 138.928 228.505L133.891 230.236C132.868 230.629 131.766 230.629 130.664 230.236L127.674 229.213C126.887 228.977 126.1 228.583 125.391 228.032C123.817 226.852 122.007 225.986 120.04 225.514L118.623 225.12C118.072 224.963 117.6 224.884 117.049 224.806L116.734 224.727C116.105 224.648 115.475 224.648 114.846 224.727L114.531 224.806C113.98 224.884 113.508 225.042 112.957 225.12L111.54 225.514C109.573 225.986 107.841 226.931 106.189 228.111C105.48 228.583 104.772 228.977 103.906 229.213L100.916 230.157C99.893 230.472 98.712 230.472 97.689 230.157L92.652 228.426C91.314 227.954 89.819 228.111 88.639 228.898L88.166 229.213C87.616 229.606 87.143 230.079 86.829 230.629C86.12 232.125 86.356 233.777 87.379 234.879L88.953 236.689C89.662 237.476 90.449 238.106 91.314 238.657L91.708 238.893L94.541 236.768L92.888 235.194C92.337 234.722 91.865 234.171 91.472 233.541L90.685 232.361C90.449 231.967 90.449 231.495 90.764 231.18C91.078 230.866 91.551 230.708 91.944 230.944L92.101 231.023C93.046 231.495 94.069 231.889 95.171 232.125L96.509 232.44C97.532 232.676 98.633 232.754 99.657 232.518L102.805 232.046C103.355 231.967 103.828 232.203 104.142 232.597L104.379 232.912C105.323 234.25 105.874 235.824 105.874 237.476C105.874 240.31 107.369 242.985 109.809 244.559C110.202 244.795 110.36 245.189 110.438 245.504C110.517 245.897 110.517 246.369 110.438 246.842C110.438 246.842 110.281 247.943 110.124 248.18C109.179 249.911 108.707 251.8 108.707 253.767V253.846C108.707 256.286 109.573 258.725 111.147 260.614L112.642 262.424L112.878 267.225L115.082 266.831C115.633 266.753 116.262 266.753 116.813 266.831L119.017 267.225L119.253 262.424L120.748 260.614C122.322 258.725 123.188 256.286 123.188 253.846V253.767C123.188 251.8 122.716 249.911 121.771 248.18C121.614 247.943 121.456 246.842 121.456 246.842C121.378 246.448 121.378 245.976 121.456 245.504C121.535 245.189 121.771 244.795 122.086 244.559C124.526 243.064 126.021 240.388 126.021 237.476C126.021 235.824 126.493 234.25 127.516 232.912L127.752 232.597C128.067 232.203 128.618 231.967 129.09 232.046L132.238 232.518C133.261 232.676 134.363 232.676 135.386 232.44L136.724 232.125C137.747 231.889 138.77 231.495 139.715 231.023L139.872 230.944C140.266 230.708 140.738 230.866 141.053 231.18C141.367 231.495 141.367 232.046 141.131 232.361L140.344 233.541C139.951 234.092 139.479 234.643 138.928 235.194L137.275 236.768L140.108 238.893L140.502 238.657C141.367 238.185 142.233 237.476 142.863 236.689L144.437 234.879C145.381 233.777 145.696 232.125 144.988 230.629C144.437 230.079 143.964 229.606 143.414 229.292Z" fill="#F5ADAB"/>
<path d="M143.02 229.606L142.705 229.291C141.997 228.662 140.974 228.504 140.029 228.819L134.363 230.944C133.261 231.337 132.002 231.416 130.822 231.022L121.692 227.875C120.748 227.56 119.725 227.324 118.702 227.166L116.656 226.93C116.105 226.851 115.554 226.851 114.924 226.93L112.878 227.166C111.855 227.324 110.91 227.56 109.887 227.875L100.758 231.022C99.578 231.416 98.397 231.416 97.217 230.944L91.55 228.819C90.685 228.504 89.662 228.662 88.875 229.291L88.56 229.606C87.379 230.629 87.064 232.36 87.851 233.698L90.055 237.476C90.055 237.555 90.212 237.555 90.212 237.476L91.236 236.059V235.981L89.189 233.147C88.56 232.282 88.717 231.101 89.583 230.393C90.134 229.921 90.842 229.842 91.55 230.078L97.217 232.046C98.24 232.36 99.342 232.439 100.365 232.282L105.638 231.259C107.133 230.944 108.628 231.731 109.337 233.069L115.711 245.739L122.086 233.069C122.794 231.731 124.289 230.944 125.785 231.259L131.058 232.282C132.081 232.518 133.182 232.439 134.206 232.046L139.872 230.078C140.502 229.842 141.289 229.999 141.839 230.393C142.705 231.101 142.863 232.282 142.233 233.147L140.187 235.981V236.059L141.21 237.476C141.289 237.555 141.367 237.555 141.367 237.476L143.571 233.698C144.515 232.36 144.2 230.629 143.02 229.606Z" fill="#E94B60"/>
<path d="M94.698 241.332C97.176 241.332 99.184 239.781 99.184 237.869C99.184 235.957 97.176 234.406 94.698 234.406C92.221 234.406 90.212 235.957 90.212 237.869C90.212 239.781 92.221 241.332 94.698 241.332Z" fill="#F6A000"/>
<path d="M98.083 235.665C98.555 235.901 99.184 235.901 99.657 235.587L105.795 231.888L105.323 232.596L106.346 232.439L105.716 233.068L106.739 233.304L105.638 233.54C105.323 233.619 105.087 233.698 104.851 233.855L100.129 236.531C99.657 236.767 99.342 237.239 99.184 237.79L98.083 235.665Z" fill="#F6A000"/>
<path d="M121.063 253.294C120.827 253.451 120.591 253.609 120.354 253.766C119.095 254.789 117.679 254.868 116.813 254.789C116.419 254.789 116.105 254.553 115.947 254.238L115.869 254.081L115.79 254.238C115.632 254.553 115.318 254.711 114.924 254.789C114.058 254.868 112.721 254.711 111.383 253.766C111.147 253.609 110.91 253.451 110.674 253.294L109.73 252.743V253.373C109.73 256.127 110.832 258.724 112.721 260.692C113.508 261.479 113.98 262.581 113.98 263.761V266.594L114.216 266.516C115.239 266.122 116.419 266.122 117.443 266.516L117.679 266.594V263.761C117.679 262.581 118.151 261.479 118.938 260.692C120.905 258.724 121.928 256.127 121.928 253.373V252.743L121.063 253.294Z" fill="#E94B60"/>
<path d="M115.869 254.239C116.303 254.239 116.656 253.957 116.656 253.609C116.656 253.261 116.303 252.979 115.869 252.979C115.434 252.979 115.082 253.261 115.082 253.609C115.082 253.957 115.434 254.239 115.869 254.239Z" fill="#E94B60"/>
<path d="M115.868 252.586C116.26 252.586 116.577 252.34 116.577 252.035C116.577 251.731 116.26 251.484 115.868 251.484C115.477 251.484 115.16 251.731 115.16 252.035C115.16 252.34 115.477 252.586 115.868 252.586Z" fill="#E94B60"/>
<path d="M115.868 251.091C116.26 251.091 116.577 250.844 116.577 250.54C116.577 250.236 116.26 249.989 115.868 249.989C115.477 249.989 115.16 250.236 115.16 250.54C115.16 250.844 115.477 251.091 115.868 251.091Z" fill="#E94B60"/>
<path d="M115.868 249.518C116.216 249.518 116.498 249.306 116.498 249.045C116.498 248.785 116.216 248.573 115.868 248.573C115.521 248.573 115.239 248.785 115.239 249.045C115.239 249.306 115.521 249.518 115.868 249.518Z" fill="#E94B60"/>
<path d="M115.869 248.022C116.173 248.022 116.42 247.81 116.42 247.549C116.42 247.289 116.173 247.077 115.869 247.077C115.565 247.077 115.318 247.289 115.318 247.549C115.318 247.81 115.565 248.022 115.869 248.022Z" fill="#E94B60"/>
<path d="M115.869 246.369C116.173 246.369 116.42 246.193 116.42 245.976C116.42 245.758 116.173 245.582 115.869 245.582C115.565 245.582 115.318 245.758 115.318 245.976C115.318 246.193 115.565 246.369 115.869 246.369Z" fill="#E94B60"/>
<path d="M137.118 241.332C139.595 241.332 141.604 239.781 141.604 237.869C141.604 235.957 139.595 234.406 137.118 234.406C134.64 234.406 132.632 235.957 132.632 237.869C132.632 239.781 134.64 241.332 137.118 241.332Z" fill="#F6A000"/>
<path d="M133.733 235.665C133.261 235.901 132.631 235.901 132.159 235.587L126.021 231.888L126.493 232.596L125.47 232.439L126.099 233.068L125.076 233.304L126.178 233.54C126.493 233.619 126.729 233.698 126.965 233.855L131.687 236.531C132.159 236.767 132.474 237.239 132.631 237.79L133.733 235.665Z" fill="#F6A000"/>
<path d="M143.02 201.432C142.547 201.668 142.075 202.14 141.682 202.691C140.186 204.894 141.288 207.649 141.367 207.964" stroke="#F8B99B" stroke-width="3" stroke-miterlimit="10"/>
<path d="M96.193 213.866C89.189 212.764 82.264 215.834 78.329 221.657L76.676 224.176C74.63 227.166 74.315 232.203 75.968 235.43C76.44 236.374 77.463 237.004 78.486 237.004H80.768C82.342 237.004 83.601 238.263 83.601 239.837C83.601 241.096 84.467 242.277 85.726 242.592L87.458 243.064C89.11 243.536 90.448 244.716 91.078 246.369L93.754 253.688C94.541 255.813 96.666 256.994 98.869 256.521L100.207 256.285C101.545 256.049 102.883 256.049 104.221 256.364C105.086 256.6 105.952 256.443 106.66 255.892C107.29 255.42 107.762 254.711 107.762 253.846L108.077 249.911C108.156 248.809 107.92 247.786 107.29 246.92L107.133 246.684C106.975 246.527 106.818 246.29 106.66 246.133C104.536 244.008 105.401 243.3 105.008 240.467C104.929 239.68 104.85 238.971 104.85 238.184C104.85 237.555 104.457 237.004 103.827 236.925C103.198 236.846 102.568 237.24 102.411 237.87L102.253 238.735C101.624 241.411 99.42 243.379 96.744 243.693C94.698 243.929 92.652 243.221 91.235 241.647L85.884 235.823C83.995 233.777 83.759 230.708 85.412 228.426C87.064 226.143 90.055 225.356 92.573 226.458L95.642 227.796C98.082 228.819 100.837 229.134 103.434 228.504C105.165 228.111 106.267 226.301 105.716 224.569L104.772 221.579C103.434 218.273 99.656 214.417 96.193 213.866Z" fill="white"/>
<path d="M95.013 257.702L96.823 257.308C97.059 257.229 97.374 257.229 97.61 257.308C98.397 257.544 98.791 258.489 98.476 259.276L98.24 259.826C97.453 261.873 99.027 264.155 101.152 263.919C101.309 263.919 101.388 263.919 101.545 263.84L104.378 263.211C105.244 263.053 105.952 262.502 106.425 261.715L107.526 259.748L108.392 258.252C108.471 258.095 108.707 258.174 108.786 258.331L109.022 258.961C109.415 260.299 110.91 262.03 111.776 262.974C112.17 263.368 112.327 263.998 112.091 264.548C111.068 267.224 108.707 269.192 105.874 269.664C105.008 269.821 104.142 269.821 103.277 269.743L98.004 269.27C95.092 269.034 92.888 266.595 92.888 263.683V263.604L93.911 258.961C93.833 258.489 94.305 257.859 95.013 257.702Z" fill="white"/>
<path d="M105.717 219.846C105.087 219.532 104.457 220.161 104.772 220.791C104.772 220.791 106.504 226.064 107.133 226.221C107.291 226.3 107.763 225.985 107.999 225.749C108.235 225.592 108.392 225.434 108.628 225.277C110.439 224.096 112.249 223.309 114.295 222.758C114.531 222.68 114.846 222.601 115.082 222.601L115.79 222.522V221.971L111.54 221.42C111.226 221.342 110.911 221.342 110.517 221.342C109.337 221.342 108.235 221.106 107.133 220.633L105.717 219.846Z" fill="white"/>
<path d="M135.465 213.866C142.469 212.764 149.395 215.834 153.33 221.657L154.982 224.176C157.028 227.166 157.343 232.203 155.69 235.43C155.218 236.374 154.195 237.004 153.172 237.004H150.89C149.316 237.004 148.057 238.263 148.057 239.837C148.057 241.096 147.191 242.277 145.932 242.592L144.2 243.064C142.548 243.536 141.21 244.716 140.58 246.369L137.904 253.688C137.117 255.813 134.992 256.994 132.789 256.521L131.451 256.285C130.113 256.049 128.775 256.049 127.437 256.364C126.572 256.6 125.706 256.443 124.998 255.892C124.368 255.42 123.896 254.711 123.896 253.846L123.581 249.911C123.502 248.809 123.738 247.786 124.368 246.92L124.525 246.684C124.683 246.527 124.84 246.29 124.998 246.133C127.123 244.008 126.257 243.3 126.65 240.467C126.729 239.68 126.808 238.971 126.808 238.184C126.808 237.555 127.201 237.004 127.831 236.925C128.46 236.846 129.09 237.24 129.247 237.87L129.405 238.735C130.034 241.411 132.238 243.379 134.914 243.693C136.96 243.929 139.006 243.221 140.423 241.647L145.774 235.823C147.663 233.777 147.899 230.708 146.247 228.426C144.594 226.143 141.603 225.356 139.085 226.458L136.016 227.796C133.576 228.819 130.821 229.134 128.224 228.504C126.493 228.111 125.391 226.301 125.942 224.569L126.886 221.579C128.224 218.273 132.002 214.417 135.465 213.866Z" fill="white"/>
<path d="M136.724 257.702L134.914 257.308C134.678 257.229 134.363 257.229 134.127 257.308C133.34 257.544 132.946 258.489 133.261 259.276L133.497 259.826C134.284 261.873 132.71 264.155 130.585 263.919C130.428 263.919 130.349 263.919 130.192 263.84L127.359 263.211C126.493 263.053 125.785 262.502 125.312 261.715L124.211 259.748L123.345 258.252C123.266 258.095 123.03 258.174 122.951 258.331L122.715 258.961C122.322 260.299 120.827 262.03 119.961 262.974C119.567 263.368 119.41 263.998 119.646 264.548C120.669 267.224 123.03 269.192 125.863 269.664C126.729 269.821 127.595 269.821 128.46 269.743L133.733 269.27C136.645 269.034 138.849 266.595 138.849 263.683V263.604L137.826 258.961C137.904 258.489 137.432 257.859 136.724 257.702Z" fill="white"/>
<path d="M125.942 219.846C126.572 219.532 127.201 220.161 126.887 220.791C126.887 220.791 125.155 226.064 124.526 226.221C124.368 226.3 123.896 225.985 123.66 225.749C123.424 225.592 123.266 225.434 123.03 225.277C121.22 224.096 119.41 223.309 117.364 222.758C117.128 222.68 116.813 222.601 116.577 222.601L115.869 222.522V221.971L120.118 221.42C120.433 221.342 120.748 221.342 121.142 221.342C122.322 221.342 123.424 221.106 124.526 220.633L125.942 219.846Z" fill="white"/>
<path d="M143.807 198.913C141.839 199.149 137.275 200.015 132.789 203.478C122.951 210.954 123.424 223.625 122.794 225.277" stroke="#F6A000" stroke-width="3" stroke-miterlimit="10"/>
<path d="M108.78 284.822C110.694 284.418 111.793 281.953 111.236 279.316C110.679 276.68 108.676 274.87 106.762 275.274C104.848 275.679 103.749 278.144 104.306 280.781C104.863 283.417 106.866 285.227 108.78 284.822Z" fill="#FFEC83"/>
<path d="M127.525 280.778C128.082 278.141 126.983 275.676 125.069 275.271C123.155 274.867 121.152 276.676 120.595 279.313C120.038 281.95 121.137 284.415 123.051 284.819C124.965 285.224 126.968 283.414 127.525 280.778Z" fill="#FFEC83"/>
<path d="M109.337 284.538C107.527 285.403 105.402 284.144 104.457 281.626C103.592 279.108 104.3 276.353 106.031 275.487" fill="#FFEC83"/>
<path d="M109.337 284.538C107.527 285.403 105.402 284.144 104.457 281.626C103.592 279.108 104.3 276.353 106.031 275.487" stroke="#F6A000" stroke-miterlimit="10"/>
<path d="M125.706 275.566C123.896 274.701 121.771 275.96 120.827 278.478C119.961 280.997 120.67 283.751 122.401 284.617" fill="#FFEC83"/>
<path d="M125.706 275.566C123.896 274.701 121.771 275.96 120.827 278.478C119.961 280.997 120.67 283.751 122.401 284.617" stroke="#F6A000" stroke-miterlimit="10"/>
<path d="M143.02 261.479L140.738 259.984C140.108 259.59 139.872 258.724 140.187 258.095L140.738 256.914C141.525 255.262 143.728 254.947 144.909 256.206C145.381 256.757 146.168 256.836 146.797 256.442L147.034 256.285C147.742 255.891 148.529 255.734 149.316 255.891L150.496 256.127C151.992 256.363 153.093 257.623 153.172 259.118V259.433C153.251 260.692 153.093 261.872 152.621 263.053L150.024 269.978C149.237 271.946 148.844 274.071 148.844 276.196C148.844 277.612 149.001 279.029 149.237 280.367C149.709 282.57 149.788 284.853 149.473 287.135L147.27 302.796C146.719 306.967 146.64 311.217 147.034 315.388L148.057 325.068C148.214 326.249 148.607 327.35 149.316 328.295C149.473 328.531 149.631 328.846 149.631 329.161L149.709 331.049C149.788 333.174 148.45 335.063 146.404 335.771C145.46 336.086 144.436 336.086 143.492 335.85L141.839 335.378C141.525 335.299 141.131 335.299 140.816 335.378L138.298 336.401C137.59 336.637 136.881 336.637 136.173 336.243C135.465 335.85 134.992 335.063 134.914 334.276L134.756 331.994C134.678 330.656 134.992 329.318 135.779 328.137C137.668 325.226 139.006 321.999 139.557 318.536L142.469 300.514C142.626 299.412 142.784 298.31 142.862 297.208L144.83 273.205C144.83 272.969 144.83 272.654 144.673 272.418L144.436 271.867C143.492 269.821 143.099 267.46 143.335 265.178L143.649 262.817C143.728 262.344 143.492 261.794 143.02 261.479Z" fill="white"/>
<path d="M141.052 336.323L138.613 337.425C137.826 337.818 136.881 337.74 136.173 337.267C136.016 337.189 135.701 337.267 135.78 337.503L135.858 339.55C135.858 340.258 135.937 340.966 136.094 341.596L137.511 349.23C137.59 349.623 138.141 349.702 138.298 349.308L142.626 336.874C142.784 336.48 142.548 336.087 142.154 336.008C141.997 335.929 141.761 336.008 141.603 336.087C141.367 336.166 141.21 336.244 141.052 336.323Z" fill="white"/>
<path d="M145.617 330.262L138.77 351.118C138.062 353.4 137.589 355.761 137.432 358.122L135.937 380.709C135.858 381.732 136.173 382.755 136.724 383.621V383.7C137.039 384.25 137.747 384.408 138.376 384.172C139.714 383.542 140.659 382.283 140.974 380.866L144.672 362.529C144.909 361.191 145.145 359.775 145.223 358.358L146.325 343.799C146.325 343.327 146.483 342.933 146.64 342.54C147.506 340.257 148.057 337.896 148.293 335.457L148.607 330.892C148.686 330.262 148.293 329.712 147.742 329.475C146.876 329.003 145.853 329.397 145.617 330.262Z" fill="#E94B60"/>
<path d="M147.348 343.957L147.191 344.429C147.191 344.508 147.112 344.586 147.112 344.665L145.302 365.442C145.145 367.488 145.302 369.456 145.853 371.423L146.168 372.682C146.325 373.312 147.112 373.39 147.427 372.84C149.001 370.164 149.788 367.095 149.788 363.947L149.63 348.207C149.63 347.577 149.552 346.947 149.394 346.397L148.765 343.957C148.607 343.406 147.663 343.327 147.348 343.957Z" fill="#E94B60"/>
<path d="M141.997 379.135L141.446 382.991C141.367 383.227 141.288 383.463 141.052 383.62L140.344 384.25C140.108 384.407 140.029 384.722 139.95 384.958L137.511 404.633C137.511 404.869 137.589 405.105 137.747 405.263L137.983 405.578C138.298 405.814 138.77 405.656 138.77 405.263L142.154 379.292C142.311 379.135 142.154 378.977 141.997 379.135Z" fill="white"/>
<path d="M136.016 415.257C136.252 415.729 136.803 415.965 137.354 415.887L138.849 415.651C139.4 415.572 139.872 415.1 139.951 414.549L140.108 413.29C140.265 412.109 138.849 411.401 137.983 412.188L136.33 413.683C135.78 414.077 135.701 414.785 136.016 415.257Z" fill="white"/>
<path d="M89.74 291.07C95.485 308.778 99.105 323.652 99.578 333.726C100.207 348.993 99.578 363.081 99.578 363.081C99.105 372.367 98.476 377.01 99.184 384.487C100.05 394.088 102.411 401.722 104.221 406.523" stroke="#6EB74A" stroke-width="3" stroke-miterlimit="10"/>
<path d="M104.142 252.114C97.846 254.711 89.504 290.205 87.616 301.302C85.805 311.69 82.657 330.971 87.301 354.266C90.213 368.983 91.944 376.302 94.935 393.931C97.059 406.13 104.615 429.739 90.134 430.29" stroke="#E94B60" stroke-width="3" stroke-miterlimit="10"/>
<path d="M89.74 291.07C87.537 292.093 84.861 293.825 82.578 296.579C79.194 300.672 76.282 307.44 78.014 313.421C78.722 315.939 79.824 316.648 80.217 319.638C80.69 322.865 79.903 325.619 79.273 327.508" stroke="#E94B60" stroke-width="3" stroke-miterlimit="10"/>
<path d="M90.134 405.657C90.527 401.407 86.199 391.176 88.796 384.565C91.393 377.954 96.587 372.524 99.184 369.219" stroke="#6EB74A" stroke-width="3" stroke-miterlimit="10"/>
<path d="M86.12 347.184C86.828 348.994 92.023 357.178 95.407 360.169C99.184 363.474 103.041 364.576 105.008 364.97" stroke="#E94B60" stroke-width="3" stroke-miterlimit="10"/>
<path d="M118.308 87.3164H113.193V108.88H118.308V87.3164Z" fill="#E94B60"/>
<path d="M102.332 117.616L115.711 105.969L129.09 118.088" stroke="#E94B60" stroke-width="7" stroke-miterlimit="10"/>
<path d="M129.169 164.05L129.563 163.341C131.373 160.115 134.835 158.147 138.534 158.305C143.65 158.619 147.663 162.791 147.663 167.906V173.022C147.663 179.554 145.696 186.007 141.997 191.437C140.108 194.192 137.59 196.395 134.521 197.733L133.891 197.969C127.595 200.803 118.072 201.747 113.98 198.756L105.008 192.933C104.615 192.696 104.143 192.933 104.143 193.405V195.923C104.143 197.891 102.569 199.465 100.601 199.465C98.634 199.465 97.06 197.891 97.06 195.923V191.516C97.06 189.076 98.476 186.794 100.68 185.771L100.837 185.692C102.883 184.748 105.166 184.512 107.369 185.063L110.517 185.85C112.249 186.322 114.059 186.4 115.79 186.164L118.072 185.85L122.007 185.22C123.66 184.984 124.998 183.725 125.47 182.072L125.864 180.577C126.729 177.035 126.178 173.258 124.211 170.11L119.725 162.791C118.938 161.531 119.332 159.8 120.669 159.013C121.693 158.462 122.952 158.541 123.739 159.328L129.169 164.05Z" fill="#F6A000"/>
<path d="M123.739 159.328L129.09 164.05L129.484 163.341C131.294 160.115 134.757 158.147 138.456 158.305C143.571 158.619 147.585 162.791 147.585 167.906V173.022C147.585 179.554 145.617 186.007 141.918 191.437C140.03 194.192 137.511 196.395 134.442 197.733L133.812 197.969C127.516 200.803 117.994 201.747 113.901 198.756L104.93 192.933C104.536 192.696 104.064 192.933 104.064 193.405V195.923C104.064 197.891 102.49 199.465 100.522 199.465C98.555 199.465 96.981 197.891 96.981 195.923V191.516" stroke="#FFEC83" stroke-miterlimit="10"/>
<path d="M107.526 104.788V141.305C107.526 148.938 100.916 155.156 92.731 155.156H89.976C78.565 155.156 75.968 141.777 79.037 131.467C81.634 122.495 97.296 102.191 97.296 102.191C100.129 97.7049 107.526 99.5937 107.526 104.788Z" fill="#6EB74A"/>
<path d="M124.29 104.788V141.305C124.29 148.938 130.9 155.156 139.085 155.156H141.84C153.251 155.156 155.848 141.777 152.779 131.467C150.182 122.495 134.521 102.191 134.521 102.191C131.609 97.7049 124.29 99.5937 124.29 104.788Z" fill="#6EB74A"/>
<path d="M106.346 137.527L106.11 137.685C102.096 140.046 100.129 144.768 101.309 149.332C102.647 154.841 106.74 159.248 112.17 160.98L118.702 163.105C121.614 164.049 124.762 163.026 126.572 160.586C127.752 159.012 128.225 156.966 127.831 155.077L126.021 145.791C125.47 142.721 123.581 140.046 120.906 138.472C117.836 136.583 114.137 135.875 110.596 136.347L108.943 136.583C107.999 136.74 107.133 137.055 106.346 137.527Z" fill="#E94B60"/>
<path d="M108.549 147.679V130.68" stroke="#E94B60" stroke-width="5" stroke-miterlimit="10"/>
<path d="M119.489 124.069H110.989" stroke="#E94B60" stroke-width="4" stroke-miterlimit="10"/>
<path d="M117.679 144.847L118.702 140.203C120.118 133.75 120.197 127.06 118.938 120.528L115.869 108.487" stroke="#E94B60" stroke-width="4" stroke-miterlimit="10"/>
<path d="M104.143 147.68V134.301" stroke="#E94B60" stroke-width="5" stroke-miterlimit="10"/>
<path d="M117.128 131.467H114.452V139.337H117.128V131.467Z" fill="#F5ADAB"/>
<path d="M110.911 128.319L115.711 132.569L120.591 128.162" stroke="#F5ADAB" stroke-width="4" stroke-miterlimit="10"/>
<path d="M89.268 187.816V174.673C89.268 169.007 93.833 164.442 99.499 164.442H103.67C106.661 164.442 109.022 166.803 109.022 169.794V176.169C109.022 179.081 107.369 181.756 104.693 183.016L91.629 189.233C90.527 189.784 89.268 188.997 89.268 187.816Z" fill="#F5ADAB"/>
<path d="M109.73 168.85V174.437C109.73 176.72 111.54 178.53 113.822 178.53H114.609C116.498 178.53 118.23 177.585 119.174 176.011L124.447 167.512C125.312 166.174 124.289 164.442 122.715 164.442H113.98C111.697 164.442 109.73 166.41 109.73 168.85Z" fill="#F5ADAB"/>
<path d="M104.693 183.016L91.629 189.233C90.527 189.784 89.268 188.997 89.268 187.738V174.595C89.268 168.929 93.833 164.364 99.499 164.364" stroke="#E94B60" stroke-miterlimit="10"/>
<path d="M114.137 164.442C111.697 164.442 109.73 166.41 109.73 168.85V174.437C109.73 176.72 111.54 178.53 113.822 178.53H114.609C116.498 178.53 118.23 177.585 119.174 176.011" stroke="#E94B60" stroke-miterlimit="10"/>
<path d="M103.985 113.13C102.175 114.153 98.948 116.357 96.508 120.213C93.596 124.777 93.203 129.106 93.046 131.152C92.731 135.638 93.675 139.258 94.462 141.462" stroke="#4F4898" stroke-miterlimit="10"/>
<path d="M84.31 143.666L87.537 138.865C87.773 138.55 88.009 138.157 88.166 137.842L93.203 129.421" stroke="#4F4898" stroke-miterlimit="10"/>
<path d="M95.328 122.26L96.666 125.486C97.768 128.084 98.397 130.759 98.712 133.593L98.791 134.301" stroke="#4F4898" stroke-miterlimit="10"/>
<path d="M87.064 122.259L89.032 121.944C91.314 121.629 93.518 120.764 95.564 119.583L98.004 118.088" stroke="#4F4898" stroke-miterlimit="10"/>
<path d="M127.438 113.13C129.248 114.153 132.474 116.357 134.914 120.213C137.826 124.777 138.219 129.106 138.377 131.152C138.692 135.638 137.747 139.258 136.96 141.462" stroke="#4F4898" stroke-miterlimit="10"/>
<path d="M147.191 143.666L143.964 138.865C143.728 138.55 143.492 138.157 143.335 137.842L138.298 129.421" stroke="#4F4898" stroke-miterlimit="10"/>
<path d="M136.173 122.26L134.835 125.486C133.734 128.084 133.104 130.759 132.789 133.593L132.71 134.301" stroke="#4F4898" stroke-miterlimit="10"/>
<path d="M144.358 122.259L142.39 121.944C140.108 121.629 137.904 120.764 135.858 119.583L133.418 118.088" stroke="#4F4898" stroke-miterlimit="10"/>
<path d="M106.11 137.685C102.096 140.046 100.129 144.768 101.309 149.332C102.647 154.841 106.74 159.248 112.17 160.98L118.702 163.105" stroke="#F5ADAB" stroke-miterlimit="10"/>
<path d="M113.193 90.7012H118.308" stroke="#F5ADAB" stroke-miterlimit="10"/>
<path d="M113.193 94.6357H118.308" stroke="#F5ADAB" stroke-miterlimit="10"/>
<path d="M113.193 98.5703H118.308" stroke="#F5ADAB" stroke-miterlimit="10"/>
<path d="M113.193 102.506H118.308" stroke="#F5ADAB" stroke-miterlimit="10"/>
<path d="M115.947 143.587C116.498 143.666 120.512 144.531 122.558 148.388C124.053 151.299 123.502 154.054 123.266 154.762" stroke="#F5ADAB" stroke-miterlimit="10"/>
<path d="M117.128 154.841C117.915 154.211 119.332 152.873 120.197 150.669C120.669 149.41 120.827 146.971 120.827 146.184" stroke="#F5ADAB" stroke-miterlimit="10"/>
<path d="M128.46 417.776C128.46 417.776 129.877 418.485 130.9 417.776C131.923 416.989 131.294 415.179 131.608 414.471C131.923 413.763 133.104 413.054 133.891 413.29C134.678 413.527 135.071 415.101 135.071 415.101C135.071 415.101 135.386 416.675 136.803 417.068C138.219 417.462 139.557 416.989 139.557 416.989C139.557 416.989 141.131 417.462 141.918 418.091C142.705 418.721 141.997 419.901 141.997 419.901C141.997 419.901 137.983 418.957 136.094 419.901C134.206 420.846 133.104 423.915 133.104 423.915C133.104 423.915 132.632 425.41 131.294 425.174C129.956 424.938 129.798 423.679 129.72 422.734C129.641 421.79 129.798 420.61 129.484 419.823C129.09 419.036 128.46 417.776 128.46 417.776Z" fill="white"/>
<path d="M130.271 425.804C130.271 425.804 131.294 426.276 132.238 425.725C133.261 425.174 133.497 424.073 133.891 423.207C134.206 422.341 135.071 421.161 135.858 420.767C136.645 420.374 137.747 419.98 138.849 420.059C139.951 420.138 141.525 420.61 141.525 420.61C141.525 420.61 141.839 421.554 142.626 422.656C143.413 423.758 144.2 424.387 144.2 424.387L143.65 424.86C143.65 424.86 143.256 423.994 142.312 424.309C141.367 424.624 141.289 425.017 141.289 425.017C141.289 425.017 140.816 424.151 139.715 424.466C138.691 424.702 138.534 425.332 138.534 425.332C138.534 425.332 138.062 423.443 136.409 423.6C134.756 423.758 134.206 424.86 134.048 425.411C133.891 425.961 134.284 427.457 134.284 427.457C134.284 427.457 133.419 426.591 132.159 426.827C130.9 426.985 130.192 427.614 130.192 427.614L130.271 425.804Z" fill="white"/>
<path d="M129.72 430.211C129.798 431.47 130.585 431.392 130.664 432.415C130.822 433.438 131.058 434.618 131.294 435.878C131.53 437.137 132.081 438.081 131.845 439.183C131.609 440.285 131.687 441.701 131.687 441.701C131.687 441.701 132.396 440.206 134.284 439.97C136.173 439.734 137.039 441.15 137.039 441.15C137.039 441.15 136.96 440.127 136.173 438.632C135.307 437.058 134.835 434.776 134.835 433.202C134.835 431.628 135.229 429.818 135.229 429.424C135.307 429.031 134.835 427.85 133.812 427.378C132.789 426.906 131.058 427.063 130.507 428.008C129.877 428.873 129.72 430.211 129.72 430.211Z" fill="white"/>
<path d="M135.071 425.49C134.914 426.199 134.835 427.143 135.229 427.851C135.544 428.559 136.803 430.763 137.432 432.888C138.062 435.013 138.377 437.374 138.377 438.554C138.377 439.735 138.613 441.073 138.613 441.073L139.085 441.702C139.085 441.702 138.928 440.443 140.344 439.892C141.761 439.341 142.627 440.364 142.627 440.364C142.627 440.364 142.941 439.814 141.84 438.003C140.738 436.193 139.4 433.281 139.006 431.944C138.613 430.606 138.377 428.402 138.298 427.3C138.219 426.198 138.298 424.782 137.196 424.31C136.173 423.838 135.229 424.782 135.071 425.49Z" fill="white"/>
<path d="M132.317 442.961C132.553 443.67 133.34 444.063 133.497 445.086C133.655 446.109 134.127 446.424 133.97 446.975C133.812 447.526 133.891 447.683 133.97 448.077C134.048 448.47 134.127 448.706 134.127 448.706C134.127 448.706 134.835 447.368 135.701 447.054C136.567 446.739 137.118 446.975 137.118 446.975C137.118 446.975 136.331 445.401 136.488 444.299C136.645 443.197 137.196 442.883 137.196 442.41C137.275 441.859 136.095 440.285 134.363 440.364C132.71 440.522 132.081 441.938 132.317 442.961Z" fill="white"/>
<path d="M134.757 449.729C134.993 450.358 135.701 449.965 136.409 450.673C137.118 451.382 137.905 452.877 138.849 452.011C139.793 451.145 139.872 450.595 139.085 449.808C138.219 449.021 138.219 448.076 138.141 447.761C138.062 447.447 136.881 447.053 136.016 447.525C135.15 448.076 134.52 449.021 134.757 449.729Z" fill="white"/>
<path d="M139.636 442.724C139.478 441.78 139.557 441.465 140.501 440.835C141.446 440.206 142.39 440.993 142.626 441.386C142.941 441.78 142.784 442.567 143.099 443.354C143.413 444.141 144.358 445.4 144.358 445.4C144.358 445.4 143.807 445.164 143.099 445.715C142.312 446.266 141.603 447.525 141.603 447.525C141.603 447.525 141.761 445.085 141.288 443.747C140.816 442.409 139.636 442.724 139.636 442.724Z" fill="white"/>
<path d="M142.076 447.998C142.154 448.391 142.627 448.627 143.02 448.863C143.414 449.099 143.964 449.729 143.964 449.729C143.964 449.729 144.279 449.178 144.83 448.942C145.381 448.706 146.089 448.863 146.089 448.863C146.089 448.863 145.145 448.155 144.83 447.525C144.515 446.975 144.673 446.266 144.358 445.951C143.964 445.637 143.099 446.109 142.705 446.502C142.39 446.896 141.997 447.604 142.076 447.998Z" fill="white"/>
<path d="M144.437 450.515C144.594 450.909 144.909 450.751 145.381 451.302C145.853 451.774 145.775 452.011 146.326 451.775C146.876 451.538 146.247 450.751 146.168 450.122C146.089 449.492 145.617 449.099 144.988 449.414C144.358 449.571 144.437 450.515 144.437 450.515Z" fill="white"/>
<path d="M147.585 447.131C147.585 447.131 147.663 446.502 147.27 445.872C146.876 445.243 146.325 445.164 146.247 444.456C146.168 443.747 147.27 443.433 147.821 443.354C148.45 443.275 148.686 443.59 148.765 444.062C148.844 444.534 148.608 444.456 148.686 445.007C148.844 445.557 149.316 446.03 149.316 446.03C149.316 446.03 148.686 445.951 148.293 446.187C147.899 446.423 147.585 447.131 147.585 447.131Z" fill="white"/>
<path d="M148.135 447.289C148.135 447.683 149.08 448.785 149.631 448.627C150.181 448.47 150.103 447.053 149.788 446.66C149.473 446.266 149.158 446.266 148.765 446.424C148.293 446.581 148.135 447.289 148.135 447.289Z" fill="white"/>
<path d="M148.293 442.803C148.293 442.803 148.214 442.488 147.427 442.724C146.64 442.96 146.404 443.354 146.404 443.354C146.404 443.354 146.719 441.701 146.01 441.071C145.302 440.442 144.594 440.363 144.279 439.733C144.043 439.104 144.436 438.553 144.909 438.317C145.381 438.081 146.01 438.16 146.561 438.868C147.191 439.576 147.427 440.127 147.663 440.914C148.057 441.544 148.293 442.803 148.293 442.803Z" fill="white"/>
<path d="M146.561 438.002C146.561 438.002 145.932 437.373 144.987 437.53C144.043 437.688 143.807 438.947 143.807 438.947C143.807 438.947 143.571 438.632 143.649 437.845C143.649 437.137 143.807 436.586 143.413 435.405C143.02 434.225 142.233 431.943 141.603 430.998C140.974 430.054 140.423 429.424 139.872 429.031C139.321 428.637 138.849 428.401 138.849 428.401C138.849 428.401 138.691 426.434 138.849 425.883C139.085 425.332 139.636 425.174 140.029 425.096C140.423 425.096 141.131 425.568 141.367 426.04C141.603 426.512 141.288 427.457 141.525 428.086C141.682 428.795 142.312 429.424 142.862 430.447C143.492 431.47 143.728 432.179 144.279 433.517C144.83 434.854 145.145 435.72 145.538 436.114C145.932 436.507 146.089 436.586 146.247 436.979C146.561 437.53 146.561 438.002 146.561 438.002Z" fill="white"/>
<path d="M151.598 435.563C151.598 435.563 150.418 433.989 148.923 431.785C147.427 429.582 146.64 428.401 145.696 427.457C144.751 426.512 144.515 426.276 144.437 425.647C144.358 425.017 145.145 424.388 145.696 424.545C146.247 424.624 146.168 425.253 146.483 426.198C146.798 427.142 146.798 427.221 147.27 427.693C147.742 428.165 148.529 429.188 148.923 429.818C149.316 430.447 150.418 431.549 151.362 432.179C152.307 432.73 153.723 433.753 153.723 433.753C153.723 433.753 152.543 433.438 152.071 434.146C151.598 434.855 151.598 435.563 151.598 435.563Z" fill="white"/>
<path d="M152.149 436.192C152.464 436.507 153.093 435.956 153.644 436.271C154.116 436.586 153.959 437.687 153.959 437.687C153.959 437.687 154.274 437.294 154.825 437.215C155.376 437.136 155.376 437.136 155.376 437.136C155.376 437.136 155.061 435.877 154.353 435.012C153.644 434.225 153.015 433.752 152.464 434.225C152.07 434.697 152.149 436.192 152.149 436.192Z" fill="white"/>
<path d="M151.598 440.127C151.598 440.127 151.598 439.261 151.047 438.238C150.496 437.215 149.788 436.507 149.316 436.428C148.844 436.349 148.45 436.664 148.135 437.058C147.899 437.451 147.821 438.081 148.057 438.238C148.293 438.474 149.158 438.71 149.395 438.947C149.631 439.183 149.945 440.914 149.945 440.914C149.945 440.914 150.418 440.521 150.811 440.363C151.205 440.127 151.598 440.127 151.598 440.127Z" fill="white"/>
<path d="M150.181 441.623C150.103 441.938 150.654 441.859 150.89 442.331C151.126 442.803 151.047 443.039 151.047 443.039C151.047 443.039 151.283 442.567 151.755 442.41C152.228 442.252 152.228 442.252 152.228 442.252C152.228 442.252 151.913 441.859 151.834 441.387C151.755 440.914 151.834 440.678 151.362 440.757C150.811 440.757 150.181 441.151 150.181 441.623Z" fill="white"/>
<path d="M151.441 443.668C151.519 444.141 152.306 444.219 152.542 444.534C152.779 444.849 152.779 444.141 152.779 443.59C152.779 443.039 152.464 442.724 152.07 442.881C151.598 442.96 151.362 443.117 151.441 443.668Z" fill="white"/>
<path d="M154.038 438.552C154.117 438.867 154.432 438.631 154.904 438.552C155.376 438.474 155.455 438.238 155.376 437.923C155.297 437.608 155.061 437.608 154.746 437.765C154.432 437.923 153.959 438.08 154.038 438.552Z" fill="white"/>
<path d="M154.51 439.419C154.589 439.891 154.982 440.599 155.376 440.442C155.769 440.284 155.612 438.946 155.376 438.868C155.218 438.789 154.431 439.025 154.51 439.419Z" fill="white"/>
<path d="M141.997 425.49C141.997 425.49 142.233 425.883 142.154 426.591C142.075 427.3 141.997 427.457 142.469 428.165C142.941 428.874 143.649 429.739 144.279 430.841C144.908 431.943 146.089 433.438 146.246 434.068C146.404 434.697 146.561 435.72 146.719 436.429C146.876 437.137 147.348 437.609 147.348 437.609C147.348 437.609 147.506 436.507 148.135 436.114C148.765 435.72 149.63 436.114 149.63 436.114C149.63 436.114 149.552 435.563 148.686 434.54C147.82 433.517 147.427 433.123 146.64 431.707C145.853 430.29 145.223 429.424 144.751 428.716C144.279 428.008 144.2 427.851 144.043 426.985C143.964 426.119 143.964 425.332 143.413 425.175C142.862 425.017 141.997 425.49 141.997 425.49Z" fill="white"/>
<path d="M137.983 407.781C137.983 407.152 137.747 406.601 137.432 406.129C137.117 405.578 136.96 404.948 137.039 404.319L139.242 385.273C139.242 384.959 138.928 384.723 138.691 384.88L138.141 385.273C137.511 385.667 136.724 385.431 136.409 384.88L136.094 384.329C135.937 384.014 135.386 384.093 135.386 384.486L134.048 396.842C133.891 398.259 133.576 399.754 133.182 401.171L130.743 409.434L130.349 410.379C130.349 410.379 129.326 412.897 129.011 414.55C128.697 416.124 128.539 416.36 128.775 416.675C129.011 417.068 129.641 417.54 130.349 416.989C131.058 416.438 130.743 415.651 131.058 414.471C131.215 413.92 131.372 413.527 131.608 413.212C131.687 413.212 131.687 413.133 131.766 413.054L132.317 412.503C132.632 412.189 133.104 412.031 133.576 412.189L134.599 412.503C135.386 412.74 136.33 412.503 136.96 411.953L137.275 411.716C137.983 411.087 138.298 410.143 138.219 409.277L137.983 407.781Z" fill="white"/>
</svg>
