<svg width="1920" height="580" viewBox="0 0 1920 580" fill="none" xmlns="http://www.w3.org/2000/svg">
<rect width="1920" height="580" fill="#E6E3F4"/>
<path d="M1920 488H0V580H1920V488Z" fill="#B7AFDD"/>
<path d="M1599.74 536.069H1492.24" stroke="#E6E3F4" stroke-miterlimit="10"/>
<path d="M1432.1 536.069H1324.6" stroke="#E6E3F4" stroke-miterlimit="10"/>
<path d="M1264.43 536.069H1156.96" stroke="#E6E3F4" stroke-miterlimit="10"/>
<path d="M1096.79 536.069H989.29" stroke="#E6E3F4" stroke-miterlimit="10"/>
<path d="M929.152 536.069H821.65" stroke="#E6E3F4" stroke-miterlimit="10"/>
<path d="M755.27 536.44H649.588" stroke="#E6E3F4" stroke-miterlimit="10"/>
<path d="M590.461 536.44H484.808" stroke="#E6E3F4" stroke-miterlimit="10"/>
<path d="M425.682 536.44H320" stroke="#E6E3F4" stroke-miterlimit="10"/>
<path d="M1120.74 470.41C1120.74 501.204 1146.27 526.166 1177.76 526.166C1209.25 526.166 1234.77 501.204 1234.77 470.41C1234.77 439.616 1209.25 414.654 1177.76 414.654C1146.27 414.654 1120.74 439.616 1120.74 470.41Z" fill="#6EB74A"/>
<path d="M1120.74 391.943C1120.74 422.737 1146.27 447.699 1177.76 447.699C1209.25 447.699 1234.77 422.737 1234.77 391.943C1234.77 361.149 1209.25 336.188 1177.76 336.188C1146.27 336.188 1120.74 361.149 1120.74 391.943Z" fill="#6EB74A"/>
<path d="M1177.76 542.908V363.537" stroke="#4F4898" stroke-width="0.92" stroke-miterlimit="10"/>
<path d="M1145.72 448.577L1177.76 476.723L1214.97 453.257" stroke="#4F4898" stroke-width="0.92" stroke-miterlimit="10"/>
<path d="M1157.99 378.688L1177.76 398.819L1195.46 381.336" stroke="#4F4898" stroke-width="0.92" stroke-miterlimit="10"/>
<path d="M1218.41 483.969L1177.76 513.349L1140.9 493.3" stroke="#4F4898" stroke-width="0.92" stroke-miterlimit="10"/>
<path d="M1218.41 406.132L1177.76 435.513L1140.9 415.464" stroke="#4F4898" stroke-width="0.92" stroke-miterlimit="10"/>
<path d="M1374.73 276.708L1377.85 288.555H1355.19L1346 282.508L1340.87 273.878L1347.13 272.542L1374.73 276.708Z" fill="#4F4898"/>
<path d="M1433.89 362.429C1437.9 362.429 1441.15 352.262 1441.15 339.72C1441.15 327.178 1437.9 317.011 1433.89 317.011C1429.89 317.011 1426.64 327.178 1426.64 339.72C1426.64 352.262 1429.89 362.429 1433.89 362.429Z" fill="#6EB74A"/>
<path d="M1447.49 289.467L1446.61 391.589" stroke="#6EB74A" stroke-miterlimit="10"/>
<path d="M1468.5 316.291L1467.27 390.079" stroke="#6EB74A" stroke-miterlimit="10"/>
<path d="M1333.46 471.8L1354.72 471.8L1354.72 447.861L1333.46 447.861L1333.46 471.8Z" fill="#F8B99B"/>
<path d="M1302.33 492.639H1350.15L1353.59 471.81H1323.17C1311.64 471.81 1302.33 481.126 1302.33 492.639Z" fill="#DE1182"/>
<path d="M1326.78 366.138L1362.18 341.9L1384.58 374.646L1355.24 394.736C1351.89 397.038 1350.29 401.134 1351.2 405.106L1364.31 459.858H1323.09L1310.92 406.794C1307.35 391.256 1313.64 375.12 1326.78 366.138Z" fill="#FFEC83"/>
<path d="M1384.58 374.645L1355.24 394.735C1351.89 397.038 1350.29 401.133 1351.2 405.106L1364.31 459.857" stroke="#F5ADAB" stroke-miterlimit="10"/>
<path d="M1323.09 459.84L1310.92 406.775C1307.35 391.255 1313.64 375.119 1326.78 366.12L1362.18 341.881" stroke="#F5ADAB" stroke-miterlimit="10"/>
<path d="M1320.11 498.274L1352.55 498.274L1352.55 492.632L1320.11 492.632L1320.11 498.274Z" fill="#EAEAF7" stroke="#4F4898" stroke-miterlimit="10"/>
<path d="M1375.31 477.013C1375.31 513.977 1405.26 543.963 1442.22 543.963C1479.16 543.963 1509.13 513.994 1509.13 477.013C1509.13 440.031 1479.18 410.062 1442.22 410.062C1405.26 410.063 1375.31 440.049 1375.31 477.013ZM1385.04 477.013C1385.04 445.48 1410.69 419.818 1442.2 419.818C1473.74 419.818 1499.37 445.48 1499.37 477.013C1499.37 508.546 1473.72 534.208 1442.2 534.208C1410.69 534.208 1385.04 508.563 1385.04 477.013Z" fill="#F6B9D5" stroke="#4F4898" stroke-miterlimit="10"/>
<path d="M1350.55 489.176H1301.89" stroke="#FFEC83" stroke-miterlimit="10"/>
<path d="M1166.27 477.013C1166.27 513.977 1196.22 543.963 1233.18 543.963C1270.13 543.963 1300.1 513.994 1300.1 477.013C1300.1 440.031 1270.15 410.062 1233.18 410.062C1196.24 410.063 1166.27 440.049 1166.27 477.013ZM1176.02 477.013C1176.02 445.48 1201.67 419.818 1233.18 419.818C1264.7 419.818 1290.35 445.48 1290.35 477.013C1290.35 508.546 1264.7 534.208 1233.18 534.208C1201.67 534.208 1176.02 508.563 1176.02 477.013Z" fill="#F6B9D5" stroke="#4F4898" stroke-miterlimit="10"/>
<path d="M1442.22 485.749C1447.04 485.749 1450.95 481.838 1450.95 477.013C1450.95 472.188 1447.04 468.277 1442.22 468.277C1437.4 468.277 1433.49 472.188 1433.49 477.013C1433.49 481.838 1437.4 485.749 1442.22 485.749Z" fill="#EAEAF7" stroke="#4F4898" stroke-miterlimit="10"/>
<path d="M1233.18 485.749C1238.01 485.749 1241.92 481.838 1241.92 477.013C1241.92 472.188 1238.01 468.277 1233.18 468.277C1228.36 468.277 1224.45 472.188 1224.45 477.013C1224.45 481.838 1228.36 485.749 1233.18 485.749Z" fill="#EAEAF7" stroke="#4F4898" stroke-miterlimit="10"/>
<path d="M1349.5 509.547C1356.77 509.547 1362.66 503.653 1362.66 496.382C1362.66 489.111 1356.77 483.217 1349.5 483.217C1342.23 483.217 1336.34 489.111 1336.34 496.382C1336.34 503.653 1342.23 509.547 1349.5 509.547Z" fill="#EAEAF7" stroke="#4F4898" stroke-miterlimit="10"/>
<path d="M1442.22 477.013L1380.08 395.562H1479.02" stroke="#4F4898" stroke-miterlimit="10"/>
<path d="M1375.74 447.343L1276.12 379.76" stroke="#4F4898" stroke-miterlimit="10"/>
<path d="M1278.16 374.698L1233.18 477.013" stroke="#4F4898" stroke-miterlimit="10"/>
<path d="M1441.08 485.66L1352.43 509.213" stroke="#4F4898" stroke-miterlimit="10"/>
<path d="M1270.5 392.433L1349.5 485.749L1436.93 470.07" stroke="#4F4898" stroke-miterlimit="10"/>
<path d="M1356.6 345.081L1349.92 334.939H1389.59L1392.77 339.773C1396.63 345.644 1398.41 352.674 1397.76 359.688L1385 499.687H1345.34L1358.67 353.342C1358.93 350.425 1358.19 347.524 1356.6 345.081Z" fill="#F6A000"/>
<path d="M1377.45 334.939L1380.63 339.773C1384.49 345.644 1386.27 352.674 1385.62 359.688L1372.86 499.687" stroke="#FFEC83" stroke-miterlimit="10"/>
<path d="M1352.43 511.639H1373.69L1375.97 499.669H1354.72L1352.43 511.639Z" fill="#F8B99B"/>
<path d="M1322.44 532.468H1370.26L1373.71 511.64H1343.28C1331.76 511.64 1322.44 520.973 1322.44 532.468Z" fill="#DE1182"/>
<path d="M1276.31 359.476L1303.68 345.942C1306.81 343.851 1309.43 341.091 1311.34 337.839L1320.02 323.11L1336.78 332.531L1328.21 346.962C1324.75 352.78 1319.21 357.086 1312.71 359.002L1295.09 364.187L1287.42 367.368C1286.4 367.79 1285.22 367.491 1284.53 366.63C1283.94 365.874 1283.13 365.294 1282.2 365.066C1281.76 364.96 1281.32 364.908 1280.88 364.89C1278.61 364.855 1276.63 366.595 1276.33 368.845C1276.31 368.915 1276.31 368.968 1276.31 369.021C1276.31 370.181 1277.26 371.13 1278.42 371.13H1281.69C1282.69 371.13 1283.5 371.938 1283.5 372.94C1283.5 373.942 1282.69 374.751 1281.69 374.751H1276.91C1275.52 374.751 1274.19 374.206 1273.22 373.221C1272.24 372.237 1271.69 370.901 1271.69 369.53V365.611C1271.69 362.798 1273.57 360.285 1276.31 359.476Z" fill="#F8B99B"/>
<path d="M1273.22 373.274C1272.24 372.29 1271.69 370.954 1271.69 369.583V365.663C1271.69 362.798 1273.57 360.285 1276.33 359.476L1303.7 345.942C1306.83 343.851 1309.44 341.091 1311.36 337.839L1320.04 323.11" stroke="#F5ADAB" stroke-miterlimit="10"/>
<path d="M1276.33 368.88C1276.31 368.95 1276.31 369.003 1276.31 369.056C1276.31 370.216 1277.26 371.165 1278.42 371.165H1281.69" stroke="#F5ADAB" stroke-miterlimit="10"/>
<path d="M1281.04 372.695C1283.87 372.695 1286.17 370.397 1286.17 367.562C1286.17 364.728 1283.87 362.43 1281.04 362.43C1278.21 362.43 1275.91 364.728 1275.91 367.562C1275.91 370.397 1278.21 372.695 1281.04 372.695Z" fill="#EAEAF7" stroke="#4F4898" stroke-miterlimit="10"/>
<path d="M1398.74 334.94L1390.84 323.058C1381.54 309.066 1369.39 297.22 1355.17 288.291L1345.99 282.525L1333.35 283.949L1316.91 324.727L1339.52 338.314L1348.87 316.132L1343.44 329.034L1349.5 334.922H1398.74V334.94Z" fill="#DE1182"/>
<path d="M1390.83 323.04C1381.54 309.049 1368.74 296.85 1354.52 287.921L1390.83 323.04Z" fill="#DE1182"/>
<path d="M1390.83 323.04C1381.54 309.049 1368.74 296.85 1354.52 287.921" stroke="#F5ADAB" stroke-miterlimit="10"/>
<path d="M1316.91 324.727L1339.52 338.314L1348.85 316.149L1343.42 329.033L1349.5 334.939H1398.74" fill="#DE1182"/>
<path d="M1316.91 324.727L1339.52 338.314L1348.85 316.149L1343.42 329.033L1349.5 334.939H1398.74" stroke="#FFEC83" stroke-miterlimit="10"/>
<path d="M1331.83 538.124L1364.28 538.124L1364.28 532.482L1331.83 532.482L1331.83 538.124Z" fill="#EAEAF7" stroke="#4F4898" stroke-miterlimit="10"/>
<path d="M1276.12 379.76H1259.2" stroke="#4F4898" stroke-miterlimit="10"/>
<path d="M1254.62 386.773H1250.96C1250.45 386.773 1250.03 386.352 1250.03 385.842V373.696C1250.03 373.187 1250.45 372.765 1250.96 372.765H1254.62V386.773Z" fill="#FFEC83"/>
<path d="M1254.62 386.773H1258.27C1258.78 386.773 1259.2 386.352 1259.2 385.842V373.696C1259.2 373.187 1258.78 372.765 1258.27 372.765H1254.62V386.773Z" fill="#EAEAF7" stroke="#4F4898" stroke-miterlimit="10"/>
<path d="M1420.83 395.564L1479.04 395.564L1479.04 345.137L1420.83 345.137L1420.83 395.564Z" fill="#EAEAF7" stroke="#4F4898" stroke-miterlimit="10"/>
<path d="M1479.02 345.133H1420.82V395.561H1479.02V345.133Z" stroke="#4F4898" stroke-miterlimit="10"/>
<path d="M1479.02 387.16H1420.82" stroke="#4F4898" stroke-miterlimit="10"/>
<path d="M1479.02 378.758H1420.82" stroke="#4F4898" stroke-miterlimit="10"/>
<path d="M1479.02 370.355H1420.82" stroke="#4F4898" stroke-miterlimit="10"/>
<path d="M1479.02 361.937H1420.82" stroke="#4F4898" stroke-miterlimit="10"/>
<path d="M1479.02 353.535H1420.82" stroke="#4F4898" stroke-miterlimit="10"/>
<path d="M1430.52 345.133V395.561" stroke="#4F4898" stroke-miterlimit="10"/>
<path d="M1440.23 345.133V395.561" stroke="#4F4898" stroke-miterlimit="10"/>
<path d="M1449.93 345.133V395.561" stroke="#4F4898" stroke-miterlimit="10"/>
<path d="M1459.63 345.133V395.561" stroke="#4F4898" stroke-miterlimit="10"/>
<path d="M1469.33 345.133V395.561" stroke="#4F4898" stroke-miterlimit="10"/>
<path d="M1478.48 323.708C1483.97 323.708 1488.42 320.709 1488.42 317.011C1488.42 313.312 1483.97 310.314 1478.48 310.314C1472.99 310.314 1468.54 313.312 1468.54 317.011C1468.54 320.709 1472.99 323.708 1478.48 323.708Z" fill="#FFEC83"/>
<path d="M1458.61 323.708C1464.1 323.708 1468.55 320.709 1468.55 317.011C1468.55 313.312 1464.1 310.314 1458.61 310.314C1453.12 310.314 1448.67 313.312 1448.67 317.011C1448.67 320.709 1453.12 323.708 1458.61 323.708Z" fill="#FFEC83"/>
<path d="M1468.5 317.063C1472.2 317.063 1475.19 312.609 1475.19 307.115C1475.19 301.621 1472.2 297.167 1468.5 297.167C1464.8 297.167 1461.81 301.621 1461.81 307.115C1461.81 312.609 1464.8 317.063 1468.5 317.063Z" fill="#FFEC83"/>
<path d="M1468.5 336.188C1472.2 336.188 1475.19 331.733 1475.19 326.239C1475.19 320.745 1472.2 316.291 1468.5 316.291C1464.8 316.291 1461.81 320.745 1461.81 326.239C1461.81 331.733 1464.8 336.188 1468.5 336.188Z" fill="#FFEC83"/>
<path d="M1468.5 319.77C1470.42 319.77 1471.98 318.212 1471.98 316.29C1471.98 314.368 1470.42 312.81 1468.5 312.81C1466.58 312.81 1465.02 314.368 1465.02 316.29C1465.02 318.212 1466.58 319.77 1468.5 319.77Z" fill="#F6A000" stroke="#F6A000" stroke-miterlimit="10"/>
<path d="M1457.82 296.164C1463.31 296.164 1467.76 293.166 1467.76 289.467C1467.76 285.769 1463.31 282.771 1457.82 282.771C1452.33 282.771 1447.88 285.769 1447.88 289.467C1447.88 293.166 1452.33 296.164 1457.82 296.164Z" fill="#FFEC83"/>
<path d="M1437.95 296.164C1443.44 296.164 1447.89 293.166 1447.89 289.467C1447.89 285.769 1443.44 282.771 1437.95 282.771C1432.46 282.771 1428.01 285.769 1428.01 289.467C1428.01 293.166 1432.46 296.164 1437.95 296.164Z" fill="#FFEC83"/>
<path d="M1447.84 289.503C1451.54 289.503 1454.53 285.049 1454.53 279.554C1454.53 274.06 1451.54 269.606 1447.84 269.606C1444.14 269.606 1441.15 274.06 1441.15 279.554C1441.15 285.049 1444.14 289.503 1447.84 289.503Z" fill="#FFEC83"/>
<path d="M1447.84 308.627C1451.54 308.627 1454.53 304.173 1454.53 298.678C1454.53 293.184 1451.54 288.73 1447.84 288.73C1444.14 288.73 1441.15 293.184 1441.15 298.678C1441.15 304.173 1444.14 308.627 1447.84 308.627Z" fill="#FFEC83"/>
<path d="M1447.84 292.228C1449.76 292.228 1451.32 290.669 1451.32 288.747C1451.32 286.825 1449.76 285.267 1447.84 285.267C1445.92 285.267 1444.36 286.825 1444.36 288.747C1444.36 290.669 1445.92 292.228 1447.84 292.228Z" fill="#F6A000" stroke="#F6A000" stroke-miterlimit="10"/>
<path d="M1331.09 280.205H1331.74C1339.26 280.205 1345.42 274.053 1345.42 266.513V258.744C1345.42 251.221 1339.27 245.051 1331.74 245.051H1331.09C1323.57 245.051 1317.4 251.203 1317.4 258.744V266.513C1317.4 274.053 1323.57 280.205 1331.09 280.205Z" fill="#F8B99B"/>
<path d="M1310.13 264.052V265.95C1310.13 267.426 1311.34 268.639 1312.82 268.639H1320.99C1322.46 268.639 1323.67 267.426 1323.67 265.95V264.052C1323.67 262.575 1322.46 261.362 1320.99 261.362H1312.82C1311.34 261.345 1310.13 262.558 1310.13 264.052Z" fill="#F8B99B"/>
<path d="M1321.04 249.692L1323.55 252.644C1326.05 255.58 1328.98 258.128 1332.26 260.167L1337.46 263.401L1342.07 275.283L1347.06 269.94C1349.6 267.216 1351.18 263.735 1351.57 260.044L1352.08 255.105L1346.93 250.553L1343.77 242.977L1336.69 241.676C1332.77 240.956 1328.75 241.676 1325.33 243.715C1323.13 245.034 1321.58 247.196 1321.04 249.692Z" fill="#4F4898"/>
<path d="M1338.26 268.902C1341.29 268.902 1343.75 266.439 1343.75 263.401C1343.75 260.363 1341.29 257.899 1338.26 257.899C1335.22 257.899 1332.76 260.363 1332.76 263.401C1332.76 266.439 1335.22 268.902 1338.26 268.902Z" fill="#F8B99B"/>
<path d="M1321.37 263.577V258.901H1327.28" stroke="#4F4898" stroke-miterlimit="10" stroke-linecap="round" stroke-linejoin="round"/>
<path d="M1338.91 266.285C1340.35 265.67 1341 264 1340.38 262.559C1339.77 261.117 1338.1 260.467 1336.66 261.082" fill="#F8B99B"/>
<path d="M1338.91 266.285C1340.35 265.67 1341 264 1340.38 262.559C1339.77 261.117 1338.1 260.467 1336.66 261.082" stroke="#4F4898" stroke-miterlimit="10" stroke-linecap="round"/>
<path d="M1360.02 258.902L1362.39 259.956C1366.01 261.573 1368.35 265.177 1368.35 269.149V270.414C1372.21 271.68 1374.94 275.16 1375.25 279.22C1375.31 279.853 1375.2 280.504 1374.95 281.084L1374.5 282.173C1373.04 285.636 1369.54 287.798 1365.8 287.569C1362.01 287.341 1358.32 286.216 1355.05 284.3L1351.03 281.98C1349.9 281.33 1348.81 280.591 1347.79 279.783L1342.23 275.301L1339.59 268.92L1347.25 267.62L1346.95 255.878L1342.42 242.731L1343.77 242.977L1346.86 244.313C1353.15 247.037 1357.97 252.363 1360.02 258.902Z" fill="#4F4898"/>
<path d="M1333.37 283.949L1346 282.508L1339.52 268.763L1328.79 274.247L1333.37 283.949Z" fill="#F8B99B"/>
<path d="M1332.63 269.131C1332.48 269.887 1331.93 271.891 1330.12 273.613C1328.08 275.547 1325.73 275.863 1324.99 275.951" stroke="#4F4898" stroke-miterlimit="10" stroke-linecap="round" stroke-linejoin="round"/>
<path d="M1360.6 288.554H1349.29L1346 282.508" fill="#4F4898"/>
<path d="M1371 529.004H1322.34" stroke="#FFEC83" stroke-miterlimit="10"/>
<path d="M1333.46 471.81V483.217" stroke="#FFEC83" stroke-miterlimit="10"/>
<path d="M1328.52 471.81V483.217" stroke="#FFEC83" stroke-miterlimit="10"/>
<path d="M1323.59 471.81V483.217" stroke="#FFEC83" stroke-miterlimit="10"/>
<path d="M1352.56 511.64V523.047" stroke="#FFEC83" stroke-miterlimit="10"/>
<path d="M1347.62 511.64V523.047" stroke="#FFEC83" stroke-miterlimit="10"/>
<path d="M1342.68 511.64V523.047" stroke="#FFEC83" stroke-miterlimit="10"/>
<path d="M1365.01 269.536C1365.15 269.184 1365.85 267.198 1364.83 265.124C1363.5 262.399 1360.44 262.065 1360.25 262.048" fill="#4F4898"/>
<path d="M1365.01 269.536C1365.15 269.184 1365.85 267.198 1364.83 265.124C1363.5 262.399 1360.44 262.065 1360.25 262.048" stroke="#FFEC83" stroke-miterlimit="10" stroke-linecap="round"/>
<path d="M1357.53 258.339C1356.98 256.722 1355.96 254.349 1354 251.994C1350.94 248.303 1347.28 246.668 1345.46 246" fill="#4F4898"/>
<path d="M1357.53 258.339C1356.98 256.722 1355.96 254.349 1354 251.994C1350.94 248.303 1347.28 246.668 1345.46 246" stroke="#FFEC83" stroke-miterlimit="10" stroke-linecap="round"/>
<path d="M1343.56 248.339C1348.26 248.339 1352.06 244.53 1352.06 239.831C1352.06 235.133 1348.26 231.324 1343.56 231.324C1338.86 231.324 1335.06 235.133 1335.06 239.831C1335.06 244.53 1338.86 248.339 1343.56 248.339Z" fill="#4F4898"/>
<path d="M1332.9 241.379L1351.91 246.581C1352.06 246.616 1352.22 246.529 1352.27 246.37L1352.89 244.121C1352.92 243.962 1352.84 243.804 1352.68 243.751L1333.67 238.566C1333.51 238.531 1333.35 238.619 1333.3 238.777L1332.69 241.027C1332.65 241.185 1332.74 241.343 1332.9 241.379Z" fill="#DE1182"/>
<path d="M1385.62 359.671H1382.82C1363.78 359.671 1361.57 334.94 1361.57 334.94" stroke="#FFEC83" stroke-miterlimit="10"/>
<path d="M1446.41 451.553C1446.41 520.997 1503.97 577.289 1574.99 577.289C1646 577.289 1703.57 520.997 1703.57 451.553C1703.57 382.108 1646 325.816 1574.99 325.816C1503.97 325.816 1446.41 382.108 1446.41 451.553Z" fill="#A0CB7D"/>
<path d="M1446.41 274.6C1446.41 344.044 1503.97 400.336 1574.99 400.336C1646 400.336 1703.57 344.044 1703.57 274.6C1703.57 205.155 1646 148.863 1574.99 148.863C1503.97 148.863 1446.41 205.155 1446.41 274.6Z" fill="#A1CB7C"/>
<path d="M1574.99 579.733V210.539" stroke="#4F4898" stroke-width="0.92" stroke-miterlimit="10"/>
<path d="M1502.74 402.317L1574.99 465.789L1658.9 412.87" stroke="#4F4898" stroke-width="0.92" stroke-miterlimit="10"/>
<path d="M1530.39 244.706L1574.99 290.105L1614.92 250.71" stroke="#4F4898" stroke-width="0.92" stroke-miterlimit="10"/>
<path d="M1666.67 482.128L1574.99 548.386L1491.88 503.172" stroke="#4F4898" stroke-width="0.92" stroke-miterlimit="10"/>
<path d="M1666.67 306.598L1574.99 372.855L1491.88 327.641" stroke="#4F4898" stroke-width="0.92" stroke-miterlimit="10"/>
<path d="M1031.52 522.237C1031.52 552.641 1056.09 577.29 1086.38 577.29C1116.68 577.29 1141.25 552.641 1141.25 522.237C1141.25 491.833 1116.68 467.184 1086.38 467.184C1056.09 467.184 1031.52 491.833 1031.52 522.237Z" fill="#A1CB7C"/>
<path d="M1085.46 494.866V577.272" stroke="#4F4898" stroke-width="0.92" stroke-miterlimit="10" stroke-linecap="round"/>
<path d="M1111.1 504.313L1085.46 517.331L1059.61 504.313" stroke="#4F4898" stroke-width="0.92" stroke-miterlimit="10" stroke-linecap="round"/>
<path d="M1125.42 523.467L1085.46 539.224L1045.06 521.682" stroke="#4F4898" stroke-width="0.92" stroke-miterlimit="10" stroke-linecap="round"/>
<path d="M1264.61 79.0639C1263.41 79.0639 1262.44 78.7038 1261.72 78.1036C1261 77.3833 1260.76 76.423 1260.76 74.8625C1260.76 73.9022 1260.88 73.0619 1261.24 72.4617C1261.6 71.8615 1262.08 71.3813 1262.68 71.0212C1263.29 70.7811 1264.01 70.541 1264.73 70.541C1265.33 70.541 1265.81 70.541 1266.17 70.6611C1266.54 70.7811 1266.9 70.9011 1267.26 71.0212L1266.66 72.7017C1266.29 72.5817 1265.93 72.4617 1265.69 72.3416C1265.45 72.3416 1265.09 72.3416 1264.85 72.3416C1263.65 72.3416 1263.17 73.1819 1263.17 74.8625C1263.17 75.7028 1263.29 76.303 1263.65 76.6631C1264.01 77.0232 1264.37 77.2633 1264.97 77.2633C1265.45 77.2633 1265.81 77.1433 1266.17 77.0232C1266.54 76.9032 1266.9 76.7831 1267.26 76.5431V78.3437C1266.9 78.5837 1266.54 78.7038 1266.17 78.8238C1265.69 78.9439 1265.21 79.0639 1264.61 79.0639Z" fill="#8881BC"/>
<path d="M1270.39 78.8238H1268.1V70.661H1270.39V78.8238ZM1269.3 67.4199C1269.66 67.4199 1269.91 67.54 1270.15 67.66C1270.39 67.78 1270.51 68.1402 1270.51 68.5003C1270.51 68.8604 1270.39 69.2205 1270.15 69.3406C1269.91 69.4606 1269.66 69.5807 1269.3 69.5807C1268.94 69.5807 1268.7 69.4606 1268.46 69.3406C1268.22 69.2205 1268.1 68.8604 1268.1 68.5003C1268.1 68.1402 1268.22 67.78 1268.46 67.66C1268.58 67.54 1268.94 67.4199 1269.3 67.4199Z" fill="#8881BC"/>
<path d="M1275.32 77.2633C1275.56 77.2633 1275.8 77.2633 1276.04 77.1432C1276.28 77.1432 1276.52 77.0232 1276.77 76.9032V78.5837C1276.52 78.7038 1276.28 78.8238 1275.92 78.8238C1275.56 78.9438 1275.2 78.9438 1274.72 78.9438C1274.24 78.9438 1273.76 78.8238 1273.4 78.7038C1273.03 78.5837 1272.67 78.2236 1272.43 77.8635C1272.19 77.5034 1272.07 76.9032 1272.07 76.1829V72.3416H1270.99V71.3813L1272.19 70.661L1272.79 68.9805H1274.24V70.661H1276.52V72.3416H1274.24V76.303C1274.24 76.6631 1274.36 76.9032 1274.48 77.0232C1274.72 77.1432 1274.96 77.2633 1275.32 77.2633Z" fill="#8881BC"/>
<path d="M1279.65 78.8238H1277.37V70.661H1279.65V78.8238ZM1278.57 67.4199C1278.93 67.4199 1279.17 67.54 1279.41 67.66C1279.65 67.78 1279.77 68.1402 1279.77 68.5003C1279.77 68.8604 1279.65 69.2205 1279.41 69.3406C1279.17 69.4606 1278.93 69.5807 1278.57 69.5807C1278.21 69.5807 1277.97 69.4606 1277.73 69.3406C1277.49 69.2205 1277.37 68.8604 1277.37 68.5003C1277.37 68.1402 1277.49 67.78 1277.73 67.66C1277.97 67.54 1278.21 67.4199 1278.57 67.4199Z" fill="#8881BC"/>
<path d="M1284.59 72.1015C1284.11 72.1015 1283.75 72.2216 1283.51 72.4617C1283.26 72.7017 1283.02 73.1819 1283.02 73.7821H1286.15C1286.15 73.302 1286.03 72.9418 1285.79 72.5817C1285.43 72.2216 1285.07 72.1015 1284.59 72.1015ZM1284.47 70.541C1285.55 70.541 1286.51 70.9011 1287.12 71.5013C1287.72 72.1015 1288.08 73.0619 1288.08 74.2623V75.3426H1282.78C1282.78 75.9428 1283.02 76.423 1283.39 76.7831C1283.75 77.1433 1284.23 77.2633 1284.83 77.2633C1285.31 77.2633 1285.79 77.2633 1286.27 77.1433C1286.76 77.0232 1287.12 76.9032 1287.6 76.6631V78.3437C1287.24 78.5837 1286.76 78.7038 1286.27 78.8238C1285.79 78.9439 1285.31 78.9439 1284.71 78.9439C1283.87 78.9439 1283.14 78.8238 1282.54 78.4637C1281.94 78.1036 1281.46 77.7435 1281.1 77.1433C1280.74 76.5431 1280.62 75.7028 1280.62 74.7424C1280.62 73.7821 1280.74 72.9418 1281.1 72.3416C1281.46 71.7414 1281.82 71.2613 1282.42 70.9011C1283.02 70.6611 1283.75 70.541 1284.47 70.541Z" fill="#8881BC"/>
<path d="M1295.06 76.4232C1295.06 77.2634 1294.82 77.8636 1294.22 78.3438C1293.62 78.824 1292.77 79.0641 1291.57 79.0641C1290.97 79.0641 1290.49 79.0641 1290.13 78.944C1289.76 78.824 1289.28 78.7039 1288.92 78.5839V76.7833C1289.4 77.0234 1289.88 77.1434 1290.37 77.2634C1290.85 77.3835 1291.33 77.5035 1291.69 77.5035C1292.17 77.5035 1292.41 77.3835 1292.65 77.2634C1292.89 77.1434 1292.89 77.0234 1292.89 76.7833C1292.89 76.6632 1292.89 76.5432 1292.77 76.4232C1292.65 76.3031 1292.53 76.1831 1292.29 76.063C1292.05 75.943 1291.69 75.7029 1291.09 75.5829C1290.61 75.3428 1290.13 75.1027 1289.76 74.9827C1289.4 74.7426 1289.16 74.5025 1289.04 74.2624C1288.92 73.9023 1288.8 73.5422 1288.8 73.062C1288.8 72.3418 1289.04 71.7416 1289.64 71.3815C1290.25 71.0213 1290.97 70.7812 1292.05 70.7812C1292.53 70.7812 1293.01 70.7812 1293.5 70.9013C1293.98 71.0213 1294.46 71.1414 1294.94 71.3815L1294.22 72.942C1293.86 72.8219 1293.5 72.5819 1293.13 72.4618C1292.77 72.3418 1292.41 72.3418 1292.05 72.3418C1291.45 72.3418 1291.09 72.4618 1291.09 72.8219C1291.09 72.942 1291.09 73.062 1291.21 73.1821C1291.33 73.3021 1291.45 73.4221 1291.69 73.5422C1291.93 73.6622 1292.29 73.7823 1292.77 74.0223C1293.25 74.2624 1293.62 74.3825 1293.98 74.6226C1294.34 74.8626 1294.58 75.1027 1294.82 75.3428C1294.94 75.5829 1295.06 75.943 1295.06 76.4232Z" fill="#8881BC"/>
<path d="M1264.61 92.5082C1263.41 92.5082 1262.44 92.1481 1261.72 91.5479C1261 90.8277 1260.76 89.8673 1260.76 88.3068C1260.76 87.3465 1260.88 86.5062 1261.24 85.906C1261.6 85.3058 1262.08 84.8256 1262.68 84.4655C1263.29 84.2254 1264.01 83.9854 1264.73 83.9854C1265.33 83.9854 1265.81 83.9853 1266.17 84.1054C1266.54 84.2254 1266.9 84.3455 1267.26 84.4655L1266.66 86.1461C1266.29 86.026 1265.93 85.906 1265.69 85.786C1265.33 85.6659 1265.09 85.6659 1264.73 85.6659C1263.53 85.6659 1263.04 86.5062 1263.04 88.1868C1263.04 89.0271 1263.17 89.6273 1263.53 89.9874C1263.89 90.3475 1264.25 90.5876 1264.85 90.5876C1265.33 90.5876 1265.69 90.4675 1266.05 90.3475C1266.41 90.2275 1266.78 90.1074 1267.14 89.8673V91.788C1266.78 92.0281 1266.41 92.1481 1266.05 92.2682C1265.69 92.3882 1265.21 92.5082 1264.61 92.5082Z" fill="#4F4898"/>
<path d="M1270.63 80.9843V83.2651C1270.63 83.6252 1270.63 84.1054 1270.63 84.4655C1270.63 84.8256 1270.63 85.0657 1270.51 85.1857H1270.63C1270.87 84.8256 1271.23 84.4655 1271.59 84.2254C1271.95 83.9853 1272.43 83.9853 1272.91 83.9853C1273.76 83.9853 1274.48 84.2254 1275.08 84.7056C1275.56 85.1857 1275.92 85.906 1275.92 86.9863V92.2681H1273.64V87.4665C1273.64 86.2661 1273.15 85.6659 1272.31 85.6659C1271.59 85.6659 1271.23 85.906 1270.87 86.3861C1270.63 86.8663 1270.51 87.4665 1270.51 88.4268V92.2681H1268.22V80.8643H1270.63V80.9843Z" fill="#4F4898"/>
<path d="M1282.18 88.5469H1281.34C1280.62 88.5469 1280.14 88.6669 1279.89 88.907C1279.65 89.1471 1279.53 89.5072 1279.53 89.8673C1279.53 90.2275 1279.65 90.4675 1279.89 90.5876C1280.14 90.7076 1280.38 90.8277 1280.62 90.8277C1281.1 90.8277 1281.46 90.7076 1281.82 90.3475C1282.18 90.1074 1282.3 89.6273 1282.3 89.1471V88.5469H1282.18ZM1280.98 83.9854C1282.06 83.9854 1282.9 84.2254 1283.51 84.7056C1284.11 85.1858 1284.35 85.906 1284.35 86.8663V92.2682H1282.78L1282.3 91.1878C1281.94 91.668 1281.58 91.908 1281.22 92.1481C1280.86 92.3882 1280.26 92.3882 1279.65 92.3882C1278.93 92.3882 1278.33 92.1481 1277.85 91.788C1277.37 91.4279 1277.13 90.7076 1277.13 89.8673C1277.13 89.0271 1277.49 88.3068 1278.09 87.9467C1278.69 87.5866 1279.65 87.3465 1280.86 87.2265H1282.3V86.8663C1282.3 86.3862 1282.18 86.1461 1281.94 85.906C1281.7 85.6659 1281.46 85.6659 1280.98 85.6659C1280.62 85.6659 1280.14 85.6659 1279.77 85.786C1279.41 85.906 1279.05 86.026 1278.69 86.2661L1277.97 84.7056C1278.45 84.4655 1278.93 84.3455 1279.41 84.2254C1279.77 84.1054 1280.38 83.9854 1280.98 83.9854Z" fill="#4F4898"/>
<path d="M1290.61 83.9854C1291.45 83.9854 1292.17 84.2254 1292.77 84.7056C1293.25 85.1858 1293.62 85.906 1293.62 86.9864V92.2682H1291.33V87.4665C1291.33 86.8663 1291.21 86.3862 1290.97 86.1461C1290.73 85.906 1290.37 85.6659 1290 85.6659C1289.28 85.6659 1288.8 85.906 1288.56 86.3862C1288.32 86.8663 1288.2 87.4665 1288.2 88.4269V92.2682H1285.91V84.1054H1287.6L1287.96 85.1858H1288.08C1288.32 84.8256 1288.68 84.4655 1289.16 84.2254C1289.64 84.1054 1290.13 83.9854 1290.61 83.9854Z" fill="#4F4898"/>
<path d="M1298.67 85.786C1297.59 85.786 1297.11 86.6262 1297.11 88.3068C1297.11 89.9874 1297.59 90.7076 1298.67 90.7076C1299.27 90.7076 1299.63 90.5876 1299.99 90.2275C1300.24 89.8673 1300.36 89.3872 1300.36 88.5469V88.3068C1300.36 87.4665 1300.24 86.7463 1299.99 86.3862C1299.75 86.026 1299.27 85.786 1298.67 85.786ZM1297.95 83.9854C1298.91 83.9854 1299.75 84.3455 1300.36 85.1858L1300.6 84.1054H1302.52V92.2682C1302.52 93.4686 1302.16 94.3088 1301.44 94.9091C1300.72 95.5093 1299.75 95.8694 1298.43 95.8694C1297.83 95.8694 1297.35 95.8694 1296.87 95.7493C1296.38 95.6293 1295.9 95.5093 1295.42 95.3892V93.5886C1296.38 93.9487 1297.47 94.1888 1298.67 94.1888C1299.87 94.1888 1300.36 93.5886 1300.36 92.3882V92.2682C1300.36 92.1481 1300.36 91.908 1300.36 91.788C1300.36 91.5479 1300.36 91.4279 1300.36 91.3078C1300.11 91.788 1299.75 92.0281 1299.39 92.2682C1299.03 92.5082 1298.55 92.5082 1298.07 92.5082C1297.11 92.5082 1296.38 92.1481 1295.78 91.4279C1295.18 90.7076 1294.94 89.6273 1294.94 88.3068C1294.94 86.9864 1295.18 85.906 1295.78 85.1858C1296.26 84.3455 1296.99 83.9854 1297.95 83.9854Z" fill="#4F4898"/>
<path d="M1306.37 92.3882H1304.09V84.2255H1306.37V92.3882ZM1305.29 80.9844C1305.65 80.9844 1305.89 81.1044 1306.13 81.2245C1306.37 81.3445 1306.49 81.7046 1306.49 82.0647C1306.49 82.4249 1306.37 82.785 1306.13 82.905C1305.89 83.0251 1305.65 83.1451 1305.29 83.1451C1304.93 83.1451 1304.69 83.0251 1304.45 82.905C1304.21 82.785 1304.09 82.4249 1304.09 82.0647C1304.09 81.7046 1304.21 81.3445 1304.45 81.2245C1304.69 80.9844 1304.93 80.9844 1305.29 80.9844Z" fill="#4F4898"/>
<path d="M1312.75 83.9854C1313.59 83.9854 1314.32 84.2254 1314.92 84.7056C1315.4 85.1858 1315.76 85.906 1315.76 86.9864V92.2682H1313.47V87.4665C1313.47 86.8663 1313.35 86.3862 1313.11 86.1461C1312.87 85.906 1312.51 85.6659 1312.15 85.6659C1311.43 85.6659 1310.95 85.906 1310.71 86.3862C1310.47 86.8663 1310.35 87.4665 1310.35 88.4269V92.2682H1308.06V84.1054H1309.74L1310.1 85.1858H1310.22C1310.47 84.8256 1310.83 84.4655 1311.31 84.2254C1311.67 84.1054 1312.15 83.9854 1312.75 83.9854Z" fill="#4F4898"/>
<path d="M1320.7 85.786C1319.61 85.786 1319.13 86.6262 1319.13 88.3068C1319.13 89.9874 1319.61 90.7076 1320.7 90.7076C1321.3 90.7076 1321.66 90.5876 1322.02 90.2275C1322.26 89.8673 1322.38 89.3872 1322.38 88.5469V88.3068C1322.38 87.4665 1322.26 86.7463 1322.02 86.3862C1321.78 86.026 1321.3 85.786 1320.7 85.786ZM1319.97 83.9854C1320.94 83.9854 1321.78 84.3455 1322.38 85.1858L1322.62 84.1054H1324.55V92.2682C1324.55 93.4686 1324.19 94.3088 1323.46 94.9091C1322.74 95.5093 1321.78 95.8694 1320.46 95.8694C1319.85 95.8694 1319.37 95.8694 1318.89 95.7493C1318.41 95.6293 1317.93 95.5093 1317.45 95.3892V93.5886C1318.41 93.9487 1319.49 94.1888 1320.7 94.1888C1321.9 94.1888 1322.38 93.5886 1322.38 92.3882V92.2682C1322.38 92.1481 1322.38 91.908 1322.38 91.788C1322.38 91.5479 1322.38 91.4279 1322.38 91.3078C1322.14 91.788 1321.78 92.0281 1321.42 92.2682C1321.06 92.5082 1320.58 92.5082 1320.09 92.5082C1319.13 92.5082 1318.41 92.1481 1317.81 91.4279C1317.21 90.7076 1316.96 89.6273 1316.96 88.3068C1316.96 86.9864 1317.21 85.906 1317.81 85.1858C1318.29 84.3455 1319.01 83.9854 1319.97 83.9854Z" fill="#4F4898"/>
<path d="M1264.61 104.152C1265.21 104.152 1265.69 103.912 1265.93 103.552C1266.17 103.192 1266.29 102.592 1266.29 101.872V101.632C1266.29 100.791 1266.17 100.191 1265.93 99.831C1265.69 99.3509 1265.21 99.2308 1264.61 99.2308C1264.13 99.2308 1263.77 99.4709 1263.41 99.831C1263.17 100.311 1263.04 100.911 1263.04 101.632C1263.04 102.472 1263.17 103.072 1263.41 103.432C1263.77 104.032 1264.13 104.152 1264.61 104.152ZM1263.89 105.953C1262.92 105.953 1262.2 105.593 1261.6 104.873C1261 104.152 1260.76 103.072 1260.76 101.752C1260.76 100.311 1261 99.3509 1261.6 98.6306C1262.2 97.9104 1262.92 97.5503 1263.89 97.5503C1264.49 97.5503 1264.97 97.6703 1265.33 97.9104C1265.69 98.1505 1266.05 98.3905 1266.17 98.7507H1266.29C1266.29 98.6306 1266.17 98.3905 1266.17 98.0304C1266.17 97.6703 1266.17 97.4302 1266.17 97.0701V94.4292H1268.46V105.833H1266.78L1266.29 104.753H1266.17C1265.93 105.113 1265.69 105.353 1265.33 105.593C1264.97 105.833 1264.49 105.953 1263.89 105.953Z" fill="#4F4898"/>
<path d="M1272.31 105.833H1270.03V97.6703H1272.31V105.833ZM1271.23 94.4292C1271.59 94.4292 1271.83 94.5492 1272.07 94.6693C1272.31 94.7893 1272.43 95.1494 1272.43 95.5096C1272.43 95.8697 1272.31 96.2298 1272.07 96.3498C1271.83 96.4699 1271.59 96.5899 1271.23 96.5899C1270.87 96.5899 1270.63 96.4699 1270.39 96.3498C1270.15 96.2298 1270.03 95.8697 1270.03 95.5096C1270.03 95.1494 1270.15 94.7893 1270.39 94.6693C1270.63 94.5492 1270.87 94.4292 1271.23 94.4292Z" fill="#4F4898"/>
<path d="M1278.57 101.992H1277.73C1277.01 101.992 1276.52 102.112 1276.28 102.352C1276.04 102.592 1275.8 102.952 1275.8 103.312C1275.8 103.672 1275.92 103.912 1276.16 104.032C1276.4 104.152 1276.65 104.272 1276.89 104.272C1277.37 104.272 1277.73 104.152 1278.09 103.792C1278.45 103.552 1278.57 103.072 1278.57 102.592V101.992ZM1277.37 97.4302C1278.45 97.4302 1279.29 97.6703 1279.89 98.1504C1280.5 98.6306 1280.74 99.3508 1280.74 100.311V105.713H1279.17L1278.81 104.753C1278.45 105.233 1278.09 105.473 1277.73 105.713C1277.37 105.953 1276.77 105.953 1276.16 105.953C1275.44 105.953 1274.84 105.713 1274.36 105.353C1273.88 104.993 1273.64 104.272 1273.64 103.432C1273.64 102.592 1274 101.872 1274.6 101.512C1275.2 101.151 1276.16 100.911 1277.37 100.791H1278.81V100.431C1278.81 99.951 1278.69 99.7109 1278.45 99.4709C1278.21 99.2308 1277.97 99.2308 1277.49 99.2308C1277.13 99.2308 1276.65 99.2308 1276.28 99.3508C1275.92 99.4709 1275.56 99.5909 1275.2 99.831L1274.48 98.2705C1274.96 98.0304 1275.44 97.9103 1275.92 97.7903C1276.28 97.5502 1276.77 97.4302 1277.37 97.4302Z" fill="#4F4898"/>
<path d="M1286.27 99.2308C1285.67 99.2308 1285.31 99.4708 1285.07 99.831C1284.83 100.191 1284.71 100.791 1284.71 101.512V101.752C1284.71 102.592 1284.83 103.192 1285.07 103.552C1285.31 104.032 1285.79 104.152 1286.39 104.152C1286.88 104.152 1287.24 103.912 1287.48 103.552C1287.72 103.072 1287.84 102.472 1287.84 101.752C1287.84 100.911 1287.72 100.311 1287.48 99.951C1287.12 99.4708 1286.76 99.2308 1286.27 99.2308ZM1284.71 94.4291V97.07C1284.71 97.4301 1284.71 97.6702 1284.71 98.0303C1284.71 98.2704 1284.71 98.5105 1284.71 98.7506H1284.83C1285.07 98.3905 1285.31 98.1504 1285.67 97.9103C1286.03 97.6702 1286.51 97.5502 1287.12 97.5502C1288.08 97.5502 1288.8 97.9103 1289.4 98.6306C1290 99.3508 1290.25 100.431 1290.25 101.752C1290.25 103.192 1290 104.152 1289.4 104.873C1288.68 105.593 1287.84 105.953 1287 105.953C1286.39 105.953 1285.91 105.833 1285.55 105.593C1285.19 105.353 1284.95 105.113 1284.71 104.873H1284.59L1284.23 105.713H1282.54V94.3091H1284.71V94.4291Z" fill="#4F4898"/>
<path d="M1294.82 99.1108C1294.34 99.1108 1293.98 99.2309 1293.74 99.4709C1293.5 99.711 1293.25 100.191 1293.25 100.791H1296.38C1296.38 100.311 1296.26 99.9511 1296.02 99.591C1295.78 99.2309 1295.3 99.1108 1294.82 99.1108ZM1294.82 97.5503C1295.9 97.5503 1296.87 97.9104 1297.47 98.5106C1298.07 99.1108 1298.43 100.071 1298.43 101.272V102.352H1293.13C1293.13 102.952 1293.37 103.432 1293.74 103.792C1294.1 104.153 1294.58 104.273 1295.18 104.273C1295.66 104.273 1296.14 104.273 1296.62 104.153C1297.11 104.032 1297.47 103.912 1297.95 103.672V105.353C1297.59 105.593 1297.11 105.713 1296.62 105.833C1296.26 105.953 1295.78 105.953 1295.18 105.953C1294.34 105.953 1293.62 105.833 1293.01 105.473C1292.41 105.113 1291.93 104.753 1291.57 104.153C1291.21 103.552 1291.09 102.712 1291.09 101.752C1291.09 100.791 1291.21 99.9511 1291.57 99.3509C1291.93 98.7507 1292.29 98.2705 1292.89 97.9104C1293.37 97.6703 1294.1 97.5503 1294.82 97.5503Z" fill="#4F4898"/>
<path d="M1303.24 104.152C1303.48 104.152 1303.73 104.152 1303.97 104.032C1304.21 104.032 1304.45 103.912 1304.69 103.792V105.473C1304.45 105.593 1304.21 105.713 1303.85 105.713C1303.48 105.953 1303 105.953 1302.64 105.953C1302.16 105.953 1301.68 105.833 1301.32 105.713C1300.96 105.593 1300.6 105.233 1300.36 104.873C1300.11 104.513 1299.99 103.912 1299.99 103.192V99.2308H1298.91V98.2704L1300.11 97.5502L1300.72 95.8696H1302.28V97.5502H1304.57V99.2308H1302.28V103.192C1302.28 103.552 1302.4 103.792 1302.52 103.912C1302.76 104.152 1303 104.152 1303.24 104.152Z" fill="#4F4898"/>
<path d="M1309.14 99.1108C1308.66 99.1108 1308.3 99.2309 1308.06 99.4709C1307.82 99.711 1307.58 100.191 1307.58 100.791H1310.71C1310.71 100.311 1310.59 99.9511 1310.35 99.591C1309.98 99.2309 1309.62 99.1108 1309.14 99.1108ZM1309.14 97.5503C1310.22 97.5503 1311.19 97.9104 1311.79 98.5106C1312.39 99.1108 1312.75 100.071 1312.75 101.272V102.352H1307.46C1307.46 102.952 1307.7 103.432 1308.06 103.792C1308.42 104.153 1308.9 104.273 1309.5 104.273C1309.98 104.273 1310.47 104.273 1310.95 104.153C1311.43 104.032 1311.79 103.912 1312.27 103.672V105.353C1311.91 105.593 1311.43 105.713 1310.95 105.833C1310.59 105.953 1310.1 105.953 1309.38 105.953C1308.54 105.953 1307.82 105.833 1307.22 105.473C1306.61 105.113 1306.13 104.753 1305.77 104.153C1305.41 103.552 1305.29 102.712 1305.29 101.752C1305.29 100.791 1305.41 99.9511 1305.77 99.3509C1306.13 98.7507 1306.49 98.2705 1307.1 97.9104C1307.7 97.6703 1308.3 97.5503 1309.14 97.5503Z" fill="#4F4898"/>
<path d="M1319.85 103.432C1319.85 104.272 1319.61 104.872 1319.01 105.353C1318.41 105.833 1317.57 106.073 1316.36 106.073C1315.76 106.073 1315.28 106.073 1314.92 105.953C1314.56 105.833 1314.08 105.713 1313.72 105.593V103.792C1314.2 104.032 1314.68 104.152 1315.16 104.272C1315.64 104.392 1316.12 104.512 1316.48 104.512C1316.96 104.512 1317.21 104.392 1317.45 104.272C1317.69 104.152 1317.69 104.032 1317.69 103.792C1317.69 103.672 1317.69 103.552 1317.57 103.432C1317.45 103.312 1317.33 103.192 1317.09 103.072C1316.84 102.952 1316.48 102.712 1315.88 102.592C1315.4 102.352 1314.92 102.112 1314.56 101.991C1314.2 101.751 1313.96 101.511 1313.84 101.271C1313.72 100.911 1313.59 100.551 1313.59 100.071C1313.59 99.3506 1313.84 98.7504 1314.44 98.3902C1315.04 98.0301 1315.76 97.79 1316.84 97.79C1317.33 97.79 1317.81 97.79 1318.29 97.9101C1318.77 98.0301 1319.25 98.1502 1319.73 98.3902L1319.13 99.7107C1318.77 99.5906 1318.41 99.3506 1318.05 99.2305C1317.69 99.1105 1317.33 99.1105 1316.96 99.1105C1316.36 99.1105 1316 99.2305 1316 99.5906C1316 99.7107 1316 99.8307 1316.12 99.9508C1316.24 100.071 1316.36 100.191 1316.6 100.311C1316.84 100.431 1317.21 100.551 1317.69 100.791C1318.17 101.031 1318.53 101.151 1318.89 101.391C1319.25 101.631 1319.49 101.871 1319.73 102.112C1319.73 102.472 1319.85 102.952 1319.85 103.432Z" fill="#4F4898"/>
<path d="M1442.38 70.3013L1440.45 75.7031L1438.65 70.3013H1433.95V81.225H1437.2V74.8628L1439.61 81.225H1440.81L1443.34 74.8628V81.225H1446.95V70.3013H1442.38Z" fill="#4F4898"/>
<path d="M1448.39 75.9432V75.8231C1448.39 72.462 1451.04 70.3013 1454.41 70.3013C1457.9 70.3013 1460.43 72.342 1460.43 75.8231V75.9432C1460.43 79.3043 1458.02 81.5851 1454.41 81.5851C1450.56 81.4651 1448.39 79.1843 1448.39 75.9432ZM1456.7 75.8231V75.7031C1456.7 73.9025 1455.74 72.8221 1454.41 72.8221C1453.09 72.8221 1452.13 73.7824 1452.13 75.7031V75.8231C1452.13 77.7438 1452.97 78.7041 1454.41 78.7041C1455.74 78.7041 1456.7 77.7438 1456.7 75.8231Z" fill="#4F4898"/>
<path d="M1460.91 77.7436H1464.28C1464.4 78.4639 1464.64 78.9441 1465.85 78.9441C1466.69 78.9441 1467.05 78.5839 1467.05 77.9837C1467.05 77.3835 1466.69 77.2635 1465.49 77.0234C1462.24 76.6633 1461.15 75.703 1461.15 73.5422C1461.15 71.5015 1462.84 70.061 1465.61 70.061C1468.37 70.061 1469.94 71.1414 1470.06 73.5422H1466.81C1466.69 72.822 1466.33 72.4618 1465.61 72.4618C1464.88 72.4618 1464.52 72.822 1464.52 73.3021C1464.52 73.7823 1464.88 74.0224 1466.09 74.2625C1468.86 74.5025 1470.42 75.2228 1470.42 77.7436C1470.42 79.7843 1468.86 81.4649 1465.85 81.4649C1462.6 81.4649 1460.91 80.2645 1460.91 77.7436Z" fill="#4F4898"/>
<path d="M1471.26 75.9432V75.8231C1471.26 72.462 1473.79 70.3013 1477.04 70.3013C1480.05 70.3013 1482.09 71.6217 1482.34 74.6227H1478.72C1478.6 73.6624 1478.12 73.0622 1477.04 73.0622C1475.72 73.0622 1474.99 74.0225 1474.99 75.9432V76.0632C1474.99 77.8638 1475.72 78.9442 1477.16 78.9442C1478.12 78.9442 1478.85 78.464 1478.97 77.3837H1482.46C1482.22 80.2646 1480.17 81.8252 1477.16 81.8252C1473.19 81.4651 1471.26 79.1843 1471.26 75.9432Z" fill="#4F4898"/>
<path d="M1483.18 75.9432V75.8231C1483.18 72.462 1485.83 70.3013 1489.2 70.3013C1492.69 70.3013 1495.21 72.342 1495.21 75.8231V75.9432C1495.21 79.3043 1492.81 81.5851 1489.2 81.5851C1485.34 81.4651 1483.18 79.1843 1483.18 75.9432ZM1491.36 75.8231V75.7031C1491.36 73.9025 1490.4 72.8221 1489.08 72.8221C1487.75 72.8221 1486.79 73.7824 1486.79 75.7031V75.8231C1486.79 77.7438 1487.63 78.7041 1489.08 78.7041C1490.52 78.7041 1491.36 77.7438 1491.36 75.8231Z" fill="#4F4898"/>
<path d="M1507.49 70.3013L1506.05 76.9035L1504.6 70.3013H1501.47L1500.15 76.9035L1498.82 70.3013H1495.33L1497.86 81.225H1501.35L1503.04 74.7428L1504.6 81.225H1508.09L1510.74 70.3013H1507.49Z" fill="#4F4898"/>
<path d="M1433.95 89.2673V82.7852H1437.44V89.1473C1437.44 90.5878 1437.8 91.308 1439.01 91.308C1440.21 91.308 1440.57 90.5878 1440.57 89.1473V82.9052H1444.18V89.2673C1444.18 92.5084 1442.14 93.9489 1439.01 93.9489C1435.76 93.9489 1433.95 92.3884 1433.95 89.2673Z" fill="#4F4898"/>
<path d="M1445.75 82.9053H1450.32C1453.45 82.9053 1455.01 84.1057 1455.01 86.5065V86.6265C1455.01 88.1871 1454.29 89.0273 1453.09 89.5075L1455.62 93.949H1451.89L1449.84 90.2278H1449.24V93.949H1445.75V82.9053ZM1450.08 87.8269C1451.04 87.8269 1451.52 87.4668 1451.52 86.6265V86.5065C1451.52 85.6662 1451.04 85.4261 1450.08 85.4261H1449.24V87.8269H1450.08Z" fill="#4F4898"/>
<path d="M1457.3 82.9053H1462.6C1465.37 82.9053 1466.45 84.1057 1466.45 85.7863V85.9063C1466.45 87.2267 1465.73 87.947 1464.52 88.3071C1465.85 88.5472 1466.81 89.3875 1466.81 90.828V90.948C1466.81 92.8686 1465.49 93.949 1462.72 93.949H1457.42V82.9053H1457.3ZM1461.75 87.1067C1462.6 87.1067 1462.96 86.8666 1462.96 86.1464V86.0263C1462.96 85.4261 1462.6 85.066 1461.75 85.066H1460.67V87.1067H1461.75ZM1461.87 91.5482C1462.84 91.5482 1463.2 91.1881 1463.2 90.3478C1463.2 89.6275 1462.84 89.2674 1461.75 89.2674H1460.67V91.5482H1461.87Z" fill="#4F4898"/>
<path d="M1471.74 82.9053H1476.32L1479.81 93.829H1476.08L1475.6 92.0284H1471.98L1471.5 93.829H1468.25L1471.74 82.9053ZM1472.71 89.6276H1474.87L1473.79 85.6662L1472.71 89.6276Z" fill="#4F4898"/>
<path d="M1481.49 82.9053H1485.46L1488.59 88.6672V82.9053H1491.72V93.829H1488.35L1484.62 87.2267V93.829H1481.49V82.9053Z" fill="#4F4898"/>
<path d="M1433.95 95.3896V106.313H1437.56V102.592H1440.93V100.071H1437.56V98.0305H1441.78V95.3896H1433.95Z" fill="#4F4898"/>
<path d="M1442.38 100.911V100.791C1442.38 97.4303 1445.02 95.2695 1448.39 95.2695C1451.89 95.2695 1454.41 97.3102 1454.41 100.791V100.911C1454.41 104.273 1452.01 106.553 1448.39 106.553C1444.66 106.553 1442.38 104.273 1442.38 100.911ZM1450.68 100.911V100.791C1450.68 98.9908 1449.72 97.9104 1448.39 97.9104C1447.07 97.9104 1446.11 98.8708 1446.11 100.791V100.911C1446.11 102.832 1446.95 103.792 1448.39 103.792C1449.72 103.792 1450.68 102.712 1450.68 100.911Z" fill="#4F4898"/>
<path d="M1455.74 95.3896H1460.31C1463.44 95.3896 1465 96.5901 1465 98.9909C1465 100.551 1464.28 101.392 1463.08 101.872L1465.61 106.313H1461.87L1459.83 102.592H1459.23V106.313H1455.74V95.3896ZM1460.19 100.311C1461.15 100.311 1461.63 99.9512 1461.63 99.1109V98.9909C1461.63 98.1506 1461.15 97.9105 1460.19 97.9105H1459.35V100.311H1460.19Z" fill="#4F4898"/>
<path d="M1466.57 101.752V95.2695H1470.06V101.512C1470.06 102.952 1470.42 103.672 1471.62 103.672C1472.83 103.672 1473.19 102.952 1473.19 101.512V95.2695H1476.8V101.632C1476.8 104.873 1474.75 106.313 1471.62 106.313C1468.37 106.553 1466.57 104.873 1466.57 101.752Z" fill="#4F4898"/>
<path d="M1487.15 95.3896L1485.22 100.671L1483.3 95.3896H1478.72V106.313H1481.85V99.8312L1484.38 106.313H1485.59L1488.11 99.8312V106.313H1491.6V95.3896H1487.15Z" fill="#4F4898"/>
<path d="M1376.9 105.953V101.872C1376.9 101.152 1376.9 99.9512 1374.5 99.9512C1373.53 99.9512 1372.93 100.071 1372.69 100.191C1372.33 100.311 1372.21 100.431 1372.21 100.671V105.953C1372.21 106.193 1372.21 106.193 1372.45 106.193H1373.05C1373.17 106.193 1373.29 106.193 1373.29 105.953V101.152C1373.29 100.911 1373.77 100.551 1374.62 100.551C1376.06 100.551 1376.06 101.392 1376.06 101.992V105.953C1376.06 106.193 1376.18 106.193 1376.3 106.193H1376.9C1376.9 106.073 1376.9 105.953 1376.9 105.953Z" fill="#4F4898"/>
<path d="M1383.16 103.072C1383.16 101.632 1382.68 100.791 1382.08 100.311C1381.6 100.071 1381.12 99.8311 1380.51 99.8311C1379.91 99.8311 1379.43 99.9511 1378.95 100.311C1378.23 100.791 1377.87 101.632 1377.87 103.072C1377.87 104.513 1378.35 105.353 1378.95 105.833C1379.43 106.073 1379.91 106.313 1380.51 106.313C1381.12 106.313 1381.6 106.193 1382.08 105.833C1382.8 105.473 1383.16 104.513 1383.16 103.072ZM1382.08 103.072C1382.08 104.153 1381.84 104.873 1381.48 105.233C1381.12 105.593 1380.87 105.593 1380.39 105.593C1380.03 105.593 1379.67 105.473 1379.31 105.233C1378.95 104.873 1378.71 104.153 1378.71 103.072C1378.71 101.992 1378.95 101.272 1379.31 100.911C1379.67 100.551 1379.91 100.551 1380.39 100.551C1380.75 100.551 1381.12 100.671 1381.48 100.911C1381.84 101.272 1382.08 101.992 1382.08 103.072Z" fill="#4F4898"/>
<path d="M1387.49 100.551C1387.49 100.071 1386.77 99.9512 1385.93 99.9512C1385.33 99.9512 1384.85 100.071 1384.61 100.191C1384.24 100.311 1384 100.431 1384 100.671V105.953C1384 106.193 1384.12 106.193 1384.24 106.193H1384.85C1384.97 106.193 1385.09 106.193 1385.09 105.953V101.032C1385.09 100.671 1385.33 100.551 1385.69 100.551C1386.41 100.551 1386.53 101.152 1387.01 101.152C1387.25 101.032 1387.49 100.791 1387.49 100.551Z" fill="#4F4898"/>
<path d="M1392.67 105.473V98.0306C1392.67 97.7905 1392.67 97.7905 1392.43 97.7905H1391.83C1391.59 97.7905 1391.59 97.9106 1391.59 98.0306V100.191C1391.23 99.9513 1390.86 99.8312 1390.26 99.8312C1388.46 99.8312 1387.49 101.512 1387.49 103.072C1387.49 105.233 1388.7 106.313 1390.5 106.313C1391.47 106.313 1392.67 105.833 1392.67 105.473ZM1391.59 105.113C1391.59 105.473 1391.1 105.593 1390.5 105.593C1389.3 105.593 1388.58 104.633 1388.58 102.952C1388.58 101.512 1389.42 100.551 1390.5 100.551C1391.1 100.551 1391.47 100.792 1391.59 100.912V105.113Z" fill="#4F4898"/>
<path d="M1395.2 98.3907C1395.2 98.0306 1394.96 97.7905 1394.6 97.7905C1394.23 97.7905 1393.99 98.0306 1393.99 98.3907C1393.99 98.7509 1394.23 98.9909 1394.6 98.9909C1394.96 98.9909 1395.32 98.6308 1395.2 98.3907ZM1395.08 105.953V100.311C1395.08 100.071 1395.08 100.071 1394.84 100.071H1394.23C1393.99 100.071 1393.99 100.191 1393.99 100.311V105.953C1393.99 106.073 1393.99 106.193 1394.11 106.193H1394.72C1395.08 106.193 1395.08 106.073 1395.08 105.953Z" fill="#4F4898"/>
<path d="M1405.67 105.953C1405.67 105.953 1405.67 105.833 1405.55 105.833L1403.26 102.832C1404.1 102.232 1404.83 101.392 1405.43 100.311C1405.43 100.191 1405.55 100.191 1405.55 100.071C1405.55 99.9513 1405.55 99.9513 1405.31 99.9513H1404.71C1404.46 99.9513 1404.34 99.9513 1404.34 100.071C1403.98 101.032 1403.14 102.112 1402.3 102.712C1402.3 102.712 1402.3 102.712 1402.3 102.832L1404.46 105.833C1404.58 105.953 1404.58 105.953 1404.83 105.953H1405.67C1405.67 106.073 1405.55 106.193 1405.67 105.953ZM1402.06 105.953V97.9106C1402.06 97.7905 1401.94 97.7905 1401.82 97.7905H1401.21C1401.09 97.7905 1400.97 97.7905 1400.97 98.0306V105.953C1400.97 106.073 1400.97 106.193 1401.21 106.193H1401.82C1401.94 106.193 1402.06 106.193 1402.06 105.953Z" fill="#4F4898"/>
<path d="M1400.13 104.513C1400.13 102.472 1397.24 102.832 1397.24 101.512C1397.24 101.032 1397.6 100.551 1398.21 100.551C1398.93 100.551 1399.05 101.032 1399.41 101.032C1399.53 101.032 1399.89 100.911 1399.89 100.671C1399.89 100.191 1399.17 99.9512 1398.33 99.9512C1397.24 99.9512 1396.28 100.551 1396.28 101.632C1396.28 102.592 1397 103.072 1397.84 103.432C1398.57 103.672 1399.17 104.033 1399.17 104.633C1399.17 105.113 1398.81 105.713 1397.97 105.713C1397.12 105.713 1396.88 105.113 1396.52 105.113C1396.28 105.113 1396.04 105.233 1396.04 105.473C1396.04 105.953 1397 106.313 1397.97 106.313C1399.05 106.313 1400.13 105.713 1400.13 104.513Z" fill="#4F4898"/>
<path d="M1351.51 105.953V101.872C1351.51 101.152 1351.51 99.9512 1349.1 99.9512C1348.14 99.9512 1347.54 100.071 1347.29 100.191C1346.93 100.311 1346.81 100.431 1346.81 100.671V105.953C1346.81 106.193 1346.81 106.193 1347.05 106.193H1347.66C1347.78 106.193 1347.9 106.193 1347.9 105.953V101.152C1347.9 100.911 1348.38 100.551 1349.22 100.551C1350.66 100.551 1350.66 101.392 1350.66 101.992V105.953C1350.66 106.193 1350.79 106.193 1350.91 106.193H1351.51C1351.51 106.073 1351.51 105.953 1351.51 105.953Z" fill="#4F4898"/>
<path d="M1357.77 103.072C1357.77 101.632 1357.28 100.791 1356.68 100.311C1356.2 100.071 1355.72 99.8311 1355.12 99.8311C1354.52 99.8311 1354.03 99.9511 1353.55 100.311C1352.83 100.791 1352.47 101.632 1352.47 103.072C1352.47 104.513 1352.95 105.353 1353.55 105.833C1354.03 106.073 1354.52 106.313 1355.12 106.313C1355.72 106.313 1356.2 106.193 1356.68 105.833C1357.28 105.473 1357.77 104.513 1357.77 103.072ZM1356.68 103.072C1356.68 104.153 1356.44 104.873 1356.08 105.233C1355.72 105.593 1355.48 105.593 1355 105.593C1354.64 105.593 1354.28 105.473 1353.91 105.233C1353.55 104.873 1353.31 104.153 1353.31 103.072C1353.31 101.992 1353.55 101.272 1353.91 100.911C1354.28 100.551 1354.52 100.551 1355 100.551C1355.36 100.551 1355.72 100.671 1356.08 100.911C1356.44 101.272 1356.68 101.992 1356.68 103.072Z" fill="#4F4898"/>
<path d="M1368.6 103.072C1368.6 101.632 1368.12 100.791 1367.51 100.311C1367.03 100.071 1366.55 99.8311 1365.95 99.8311C1365.35 99.8311 1364.87 99.9511 1364.39 100.311C1363.66 100.791 1363.3 101.632 1363.3 103.072C1363.3 104.513 1363.78 105.353 1364.39 105.833C1364.87 106.073 1365.35 106.313 1365.95 106.313C1366.55 106.313 1367.03 106.193 1367.51 105.833C1368.24 105.473 1368.6 104.513 1368.6 103.072ZM1367.51 103.072C1367.51 104.153 1367.27 104.873 1366.91 105.233C1366.55 105.593 1366.31 105.593 1365.83 105.593C1365.47 105.593 1365.11 105.473 1364.75 105.233C1364.39 104.873 1364.14 104.153 1364.14 103.072C1364.14 101.992 1364.39 101.272 1364.75 100.911C1365.11 100.551 1365.35 100.551 1365.83 100.551C1366.19 100.551 1366.55 100.671 1366.91 100.911C1367.27 101.272 1367.51 101.992 1367.51 103.072Z" fill="#4F4898"/>
<path d="M1363.18 100.191C1363.18 100.071 1363.06 100.071 1363.06 100.071H1362.46C1362.34 100.071 1362.34 100.071 1362.34 100.191L1360.77 104.633L1359.21 100.191C1359.21 100.071 1359.09 99.9512 1358.97 99.9512H1358.25C1358.25 99.9512 1358.13 99.9512 1358.13 100.071V100.191L1360.29 105.833C1360.29 105.953 1360.41 105.953 1360.41 106.073H1360.9C1361.02 106.073 1361.02 106.073 1361.14 105.953L1363.18 100.311C1363.18 100.191 1363.18 100.191 1363.18 100.191Z" fill="#4F4898"/>
<path d="M1406.63 95.99H1406.99C1407.23 95.99 1407.47 95.99 1407.47 96.3502C1407.47 96.7103 1407.11 96.7103 1406.99 96.7103H1406.63V95.99ZM1406.27 97.7907H1406.63V96.9504H1406.87C1407.11 96.9504 1407.23 97.0704 1407.47 97.5506L1407.71 97.9107H1408.08L1407.83 97.5506C1407.59 97.1904 1407.47 97.0704 1407.35 97.0704C1407.83 97.0704 1407.95 96.7103 1407.95 96.4702C1407.95 96.3502 1407.83 96.1101 1407.71 96.1101C1407.59 95.99 1407.23 95.99 1406.99 95.99H1406.27V97.7907ZM1407.11 94.9097C1406.03 94.9097 1405.19 95.75 1405.19 96.8303C1405.19 97.9107 1406.03 98.751 1407.11 98.751C1408.2 98.751 1409.04 97.9107 1409.04 96.8303C1408.92 95.75 1408.08 94.9097 1407.11 94.9097ZM1407.11 95.1498C1407.95 95.1498 1408.68 95.87 1408.68 96.7103C1408.68 97.5506 1407.95 98.2708 1407.11 98.2708C1406.27 98.2708 1405.55 97.5506 1405.55 96.7103C1405.43 95.87 1406.15 95.1498 1407.11 95.1498Z" fill="#4F4898"/>
<path d="M1362.1 76.1829C1362.58 76.9031 1363.54 75.7027 1363.54 75.4626C1363.42 75.3426 1361.62 75.5827 1362.1 76.1829Z" fill="#4F4898"/>
<path d="M1365.95 71.7416C1368.48 71.7416 1370.64 69.7009 1370.64 67.06C1370.64 64.5391 1368.6 62.3784 1365.95 62.3784C1363.42 62.3784 1361.26 64.4191 1361.26 67.06C1361.26 69.7009 1363.42 71.7416 1365.95 71.7416ZM1366.07 63.5788C1367.76 63.5788 1369.2 64.8993 1369.2 66.6999C1369.2 68.3805 1367.76 69.8209 1366.07 69.8209C1364.39 69.8209 1362.94 68.5005 1362.94 66.6999C1362.94 64.8993 1364.39 63.5788 1366.07 63.5788Z" fill="#4F4898"/>
<path d="M1389.42 80.0245C1388.82 77.1435 1386.29 77.0234 1384.85 77.1435C1383.4 77.2635 1380.75 77.6236 1377.99 77.6236C1374.25 77.6236 1370.16 76.5433 1366.91 75.1028C1366.31 74.8627 1366.67 74.7427 1366.91 74.6226C1368.12 74.0224 1369.2 73.4222 1369.8 72.3418C1370.28 71.5016 1370.04 71.2615 1369.56 71.7416C1368.12 72.942 1366.07 73.5423 1363.78 72.822C1361.5 71.9817 1360.53 69.821 1360.41 69.2208C1360.17 68.6206 1359.93 68.6206 1359.93 69.4609C1359.93 71.5016 1360.9 72.702 1361.14 73.0621C1361.5 73.4222 1361.62 73.7823 1361.38 74.0224C1360.9 74.6226 1360.41 75.1028 1360.41 75.3429C1360.41 75.5829 1360.41 75.703 1360.29 76.0631C1360.17 76.3032 1359.81 76.7833 1359.21 77.5036C1358.85 77.8637 1359.09 78.3439 1359.33 78.584C1359.69 78.9441 1359.81 79.3042 1360.29 79.5443C1360.65 79.7844 1361.02 79.5443 1361.5 79.6643C1361.98 79.7844 1362.58 80.0244 1362.94 80.8647C1363.54 82.0651 1364.27 83.8658 1365.59 85.3062C1366.19 86.0265 1366.19 87.2269 1366.19 87.587C1366.19 91.0682 1364.39 94.4293 1363.18 96.5901C1362.94 97.0702 1362.94 97.5504 1363.3 97.5504C1363.78 97.5504 1365.35 97.5504 1365.59 97.5504C1365.95 97.5504 1366.07 97.1903 1366.07 96.9502C1366.31 94.0692 1367.88 88.7874 1369.2 87.8271C1371.25 89.1475 1373.41 91.9085 1372.33 96.7101C1372.33 96.9502 1372.09 97.5504 1372.69 97.5504C1372.69 97.5504 1374.5 97.5504 1374.74 97.5504C1374.98 97.5504 1375.46 97.4304 1375.34 96.9502C1375.22 95.0295 1373.65 91.0682 1373.17 88.6674C1372.93 87.2269 1374.13 84.586 1378.59 86.5066C1380.27 84.9461 1382.56 85.9064 1381.6 88.9075C1380.63 91.7884 1379.79 93.1089 1376.54 96.5901C1376.18 96.9502 1376.18 97.4304 1376.78 97.4304C1377.02 97.4304 1378.59 97.4304 1378.83 97.4304C1379.31 97.4304 1379.43 97.3103 1379.55 96.9502C1379.67 96.5901 1381.24 91.9085 1384.12 89.6277C1384.36 89.5077 1384.61 88.6674 1384.97 86.9868C1386.41 88.7874 1386.53 92.2686 1384.12 96.5901C1383.88 97.0702 1384 97.4304 1384.36 97.4304C1384.49 97.4304 1385.81 97.4304 1386.29 97.4304C1386.65 97.4304 1386.77 97.1903 1386.89 96.7101C1387.01 96.1099 1387.13 95.7498 1387.37 95.1496C1387.49 94.7895 1387.61 94.6694 1389.06 94.6694C1389.54 94.6694 1389.54 94.4293 1389.54 94.0692C1389.9 88.1872 1389.9 82.0651 1389.42 80.0245ZM1384.12 77.9838C1384.61 78.824 1384.61 79.4242 1384.49 79.9044C1384.36 80.3846 1383.76 80.6247 1383.52 80.5046C1383.52 79.5443 1383.28 78.824 1382.8 78.1038C1383.28 78.1038 1383.64 78.1038 1384.12 77.9838ZM1380.15 78.4639C1380.39 79.5443 1380.39 80.8647 1380.03 81.3449C1379.43 81.9451 1376.54 81.8251 1375.7 81.705C1375.46 81.705 1375.22 81.585 1375.1 81.1048C1374.98 80.3846 1374.98 79.1842 1374.86 78.3439C1376.66 78.584 1378.47 78.584 1380.15 78.4639ZM1369.92 80.5046C1370.16 79.7844 1370.4 78.4639 1370.52 77.3836C1371.13 77.5036 1371.61 77.7437 1372.21 77.8637C1371.85 80.2645 1371.01 80.9848 1370.64 81.1048C1370.4 81.2249 1369.68 81.3449 1369.92 80.5046ZM1364.75 81.8251C1364.27 81.2249 1363.66 79.6643 1363.06 79.1842C1361.98 78.3439 1361.14 78.9441 1360.65 78.4639C1360.17 77.9838 1360.05 77.8637 1360.41 77.3836C1360.41 77.3836 1360.9 76.7833 1361.14 76.5433C1361.38 76.3032 1361.26 75.823 1361.38 75.5829C1361.5 75.3429 1361.98 74.7427 1362.46 74.2625C1362.94 73.7823 1363.42 74.0224 1365.11 74.9827C1367.15 76.1831 1367.76 75.9431 1367.03 77.0234C1366.55 77.7437 1365.11 79.5443 1364.75 81.8251ZM1386.89 81.1048C1386.77 82.9054 1386.41 85.4263 1385.81 85.7864C1385.21 86.1465 1384.24 84.3459 1379.07 84.3459C1375.46 84.2259 1372.69 84.706 1372.21 88.0672C1372.21 88.3073 1372.09 88.3073 1371.97 88.1872C1371.01 87.1069 1370.04 86.6267 1368.6 85.7864C1367.15 84.9461 1366.19 83.7457 1365.95 82.6653C1365.71 81.585 1366.19 80.0244 1368.24 77.2635C1368.48 76.9034 1368.6 76.9034 1369.68 77.3836C1369.56 79.1842 1369.08 80.2645 1368.96 81.2249C1368.72 82.1852 1369.8 82.4253 1370.76 82.1852C1371.73 81.9451 1372.69 80.9848 1373.05 78.2238C1373.41 78.3439 1373.77 78.3439 1374.13 78.4639C1374.13 81.2249 1374.38 81.8251 1374.5 82.1852C1374.74 82.6653 1375.22 82.9054 1375.7 82.9054C1377.87 83.0255 1380.03 83.0255 1380.75 82.3052C1381.48 81.585 1381.24 79.7844 1380.99 78.824C1381.36 78.824 1381.6 78.704 1381.96 78.704C1382.68 79.5443 1382.8 80.3846 1382.8 80.9848C1382.8 81.585 1383.52 81.9451 1384.49 81.2249C1385.45 80.5046 1385.33 79.3042 1384.85 78.2238C1387.13 77.7437 1387.01 79.1842 1386.89 81.1048ZM1388.58 89.8678C1388.58 90.1079 1388.34 90.3479 1388.22 89.7477C1388.1 89.0275 1387.73 87.467 1387.61 86.7467C1387.49 86.1465 1387.86 84.2259 1387.98 82.5453C1387.98 82.4253 1388.1 82.4253 1388.22 82.5453C1388.94 83.3856 1388.7 88.7874 1388.58 89.8678Z" fill="#4F4898"/>
</svg>
