<svg width="116" height="111" viewBox="0 0 116 111" fill="none" xmlns="http://www.w3.org/2000/svg">
<path d="M68.2223 49.0164H64.3605V33.8669H54.954V49.0164H51.0925V30.0054H68.2223V49.0164Z" fill="#7D75C1"/>
<path d="M89.6097 49.0163H85.7481V18.9155H76.3416V49.0163H72.4801V15.0537H89.6097V49.0163Z" fill="#7D75C1"/>
<path d="M110.997 49.0165H107.136V3.96408H97.7292V49.0165H93.8674V0.102539H110.997V49.0165Z" fill="#7D75C1"/>
<path d="M68.2223 80.8997H51.0925V61.8887H54.954V77.0382H64.3605V61.8887H68.2223V80.8997Z" fill="#7D75C1"/>
<path d="M46.8347 95.8513H29.7049V61.8887H33.5666V91.9898H42.9732V61.8887H46.8347V95.8513Z" fill="#7D75C1"/>
<path d="M25.4474 110.803H8.3175V61.8887H12.179V106.941H21.5856V61.8887H25.4474V110.803Z" fill="#7D75C1"/>
<path d="M115.255 53.5713H1.98032V57.4328H115.255V53.5713Z" fill="#7D75C1"/>
<path d="M3.86178 0.102539H0V110.803H3.86178V0.102539Z" fill="#7D75C1"/>
<path d="M110.997 106.941H106.74V110.803H110.997V106.941Z" fill="#7D75C1"/>
<path d="M102.383 106.941H98.1252V110.803H102.383V106.941Z" fill="#7D75C1"/>
<path d="M93.8674 106.941H89.6097V110.803H93.8674V106.941Z" fill="#7D75C1"/>
<path d="M12.5753 0.102539H8.3175V3.96408H12.5753V0.102539Z" fill="#7D75C1"/>
<path d="M12.5753 8.61768H8.3175V12.4795H12.5753V8.61768Z" fill="#7D75C1"/>
<path d="M12.5753 17.1333H8.3175V20.9948H12.5753V17.1333Z" fill="#7D75C1"/>
<path d="M51.0925 0.102539H16.9319V3.96408H51.0925V0.102539Z" fill="#7D75C1"/>
<path d="M51.0925 8.61768H16.9319V12.4795H51.0925V8.61768Z" fill="#7D75C1"/>
<path d="M51.0925 17.1333H16.9319V20.9948H51.0925V17.1333Z" fill="#7D75C1"/>
</svg>
