<svg width="251" height="45" viewBox="0 0 251 45" fill="none" xmlns="http://www.w3.org/2000/svg">
<path d="M4.60924 17.0639C3.40567 17.0639 2.44281 16.7038 1.72067 16.1036C0.998526 15.3833 0.757812 14.423 0.757812 12.8625C0.757812 11.9022 0.878171 11.0619 1.23924 10.4617C1.60031 9.86146 2.08174 9.3813 2.68352 9.02118C3.28531 8.7811 4.00745 8.54102 4.7296 8.54102C5.33138 8.54102 5.81281 8.54101 6.17388 8.66105C6.53496 8.7811 6.89603 8.90114 7.2571 9.02118L6.65531 10.7017C6.29424 10.5817 5.93317 10.4617 5.69245 10.3416C5.45174 10.3416 5.09067 10.3416 4.84996 10.3416C3.64639 10.3416 3.16496 11.1819 3.16496 12.8625C3.16496 13.7028 3.28531 14.303 3.64639 14.6631C4.00746 15.0232 4.36853 15.2633 4.97031 15.2633C5.45174 15.2633 5.81281 15.1433 6.17388 15.0232C6.53496 14.9032 6.89603 14.7831 7.2571 14.5431V16.3437C6.89603 16.5837 6.53496 16.7038 6.17388 16.8238C5.69245 16.9439 5.21103 17.0639 4.60924 17.0639Z" fill="#8881BC"/>
<path d="M10.3864 16.8238H8.09961V8.66102H10.3864V16.8238ZM9.30318 5.41992C9.66425 5.41992 9.90497 5.53996 10.1457 5.66C10.3864 5.78004 10.5068 6.14016 10.5068 6.50029C10.5068 6.86041 10.3864 7.22053 10.1457 7.34057C9.90497 7.46061 9.66425 7.58065 9.30318 7.58065C8.94211 7.58065 8.7014 7.46061 8.46068 7.34057C8.21997 7.22053 8.09961 6.86041 8.09961 6.50029C8.09961 6.14016 8.21997 5.78004 8.46068 5.66C8.58104 5.53996 8.94211 5.41992 9.30318 5.41992Z" fill="#8881BC"/>
<path d="M15.3211 15.2633C15.5619 15.2633 15.8026 15.2633 16.0433 15.1432C16.284 15.1432 16.5247 15.0232 16.7654 14.9032V16.5837C16.5247 16.7038 16.284 16.8238 15.9229 16.8238C15.5619 16.9438 15.2008 16.9438 14.7194 16.9438C14.2379 16.9438 13.7565 16.8238 13.3954 16.7038C13.0344 16.5837 12.6733 16.2236 12.4326 15.8635C12.1919 15.5034 12.0715 14.9032 12.0715 14.1829V10.3416H10.9883V9.38128L12.1919 8.66104L12.7936 6.98047H14.2379V8.66104H16.5247V10.3416H14.2379V14.303C14.2379 14.6631 14.3583 14.9032 14.4786 15.0232C14.7194 15.1432 14.9601 15.2633 15.3211 15.2633Z" fill="#8881BC"/>
<path d="M19.654 16.8238H17.3672V8.66102H19.654V16.8238ZM18.5708 5.41992C18.9318 5.41992 19.1725 5.53996 19.4133 5.66C19.654 5.78004 19.7743 6.14016 19.7743 6.50029C19.7743 6.86041 19.654 7.22053 19.4133 7.34057C19.1725 7.46061 18.9318 7.58065 18.5708 7.58065C18.2097 7.58065 17.969 7.46061 17.7283 7.34057C17.4875 7.22053 17.3672 6.86041 17.3672 6.50029C17.3672 6.14016 17.4875 5.78004 17.7283 5.66C17.969 5.53996 18.2097 5.41992 18.5708 5.41992Z" fill="#8881BC"/>
<path d="M24.5885 10.1015C24.1071 10.1015 23.746 10.2216 23.5053 10.4617C23.2646 10.7017 23.0238 11.1819 23.0238 11.7821H26.1531C26.1531 11.302 26.0328 10.9418 25.7921 10.5817C25.431 10.2216 25.0699 10.1015 24.5885 10.1015ZM24.4681 8.54102C25.5513 8.54102 26.5142 8.90114 27.116 9.50134C27.7178 10.1015 28.0788 11.0619 28.0788 12.2623V13.3426H22.7831C22.7831 13.9428 23.0238 14.423 23.3849 14.7831C23.746 15.1433 24.2274 15.2633 24.8292 15.2633C25.3106 15.2633 25.7921 15.2633 26.2735 15.1433C26.7549 15.0232 27.116 14.9032 27.5974 14.6631V16.3437C27.2363 16.5837 26.7549 16.7038 26.2735 16.8238C25.7921 16.9439 25.3106 16.9439 24.7088 16.9439C23.8663 16.9439 23.1442 16.8238 22.5424 16.4637C21.9406 16.1036 21.4592 15.7435 21.0981 15.1433C20.7371 14.5431 20.6167 13.7028 20.6167 12.7424C20.6167 11.7821 20.7371 10.9418 21.0981 10.3416C21.4592 9.74142 21.8203 9.26126 22.4221 8.90114C23.0238 8.66106 23.746 8.54102 24.4681 8.54102Z" fill="#8881BC"/>
<path d="M35.0593 14.4232C35.0593 15.2634 34.8186 15.8636 34.2168 16.3438C33.6151 16.824 32.7726 17.0641 31.569 17.0641C30.9672 17.0641 30.4858 17.0641 30.1247 16.944C29.7636 16.824 29.2822 16.7039 28.9211 16.5839V14.7833C29.4026 15.0234 29.884 15.1434 30.3654 15.2634C30.8468 15.3835 31.3283 15.5035 31.6893 15.5035C32.1708 15.5035 32.4115 15.3835 32.6522 15.2634C32.8929 15.1434 32.8929 15.0234 32.8929 14.7833C32.8929 14.6632 32.8929 14.5432 32.7726 14.4232C32.6522 14.3031 32.5318 14.1831 32.2911 14.063C32.0504 13.943 31.6893 13.7029 31.0876 13.5829C30.6061 13.3428 30.1247 13.1027 29.7636 12.9827C29.4026 12.7426 29.1618 12.5025 29.0415 12.2624C28.9211 11.9023 28.8008 11.5422 28.8008 11.062C28.8008 10.3418 29.0415 9.74158 29.6433 9.38145C30.2451 9.02133 30.9672 8.78125 32.0504 8.78125C32.5318 8.78125 33.0133 8.78125 33.4947 8.90129C33.9761 9.02133 34.4576 9.14137 34.939 9.38145L34.2168 10.942C33.8558 10.8219 33.4947 10.5819 33.1336 10.4618C32.7726 10.3418 32.4115 10.3418 32.0504 10.3418C31.4486 10.3418 31.0876 10.4618 31.0876 10.8219C31.0876 10.942 31.0876 11.062 31.2079 11.1821C31.3283 11.3021 31.4486 11.4221 31.6893 11.5422C31.9301 11.6622 32.2911 11.7823 32.7726 12.0223C33.254 12.2624 33.6151 12.3825 33.9761 12.6226C34.3372 12.8626 34.5779 13.1027 34.8186 13.3428C34.939 13.5829 35.0593 13.943 35.0593 14.4232Z" fill="#8881BC"/>
<path d="M4.60924 30.5082C3.40567 30.5082 2.44281 30.1481 1.72067 29.5479C0.998526 28.8277 0.757812 27.8673 0.757812 26.3068C0.757812 25.3465 0.878171 24.5062 1.23924 23.906C1.60031 23.3058 2.08174 22.8256 2.68352 22.4655C3.28531 22.2254 4.00745 21.9854 4.7296 21.9854C5.33138 21.9854 5.81281 21.9853 6.17388 22.1054C6.53496 22.2254 6.89603 22.3455 7.2571 22.4655L6.65531 24.1461C6.29424 24.026 5.93317 23.906 5.69245 23.786C5.33138 23.6659 5.09067 23.6659 4.7296 23.6659C3.52603 23.6659 3.0446 24.5062 3.0446 26.1868C3.0446 27.0271 3.16495 27.6273 3.52603 27.9874C3.8871 28.3475 4.24817 28.5876 4.84996 28.5876C5.33139 28.5876 5.69246 28.4675 6.05353 28.3475C6.4146 28.2275 6.77567 28.1074 7.13674 27.8673V29.788C6.77567 30.0281 6.4146 30.1481 6.05353 30.2682C5.69246 30.3882 5.21103 30.5082 4.60924 30.5082Z" fill="#4F4898"/>
<path d="M10.6269 18.9843V21.2651C10.6269 21.6252 10.6269 22.1054 10.6269 22.4655C10.6269 22.8256 10.6269 23.0657 10.5065 23.1857H10.6269C10.8676 22.8256 11.2287 22.4655 11.5897 22.2254C11.9508 21.9853 12.4322 21.9853 12.9137 21.9853C13.7561 21.9853 14.4783 22.2254 15.0801 22.7056C15.5615 23.1857 15.9226 23.906 15.9226 24.9863V30.2681H13.6358V25.4665C13.6358 24.2661 13.1544 23.6659 12.3119 23.6659C11.5897 23.6659 11.2287 23.906 10.8676 24.3861C10.6269 24.8663 10.5065 25.4665 10.5065 26.4268V30.2681H8.21973V18.8643H10.6269V18.9843Z" fill="#4F4898"/>
<path d="M22.1815 26.5469H21.339C20.6168 26.5469 20.1354 26.6669 19.8947 26.907C19.654 27.1471 19.5336 27.5072 19.5336 27.8673C19.5336 28.2275 19.654 28.4675 19.8947 28.5876C20.1354 28.7076 20.3761 28.8277 20.6168 28.8277C21.0983 28.8277 21.4593 28.7076 21.8204 28.3475C22.1815 28.1074 22.3018 27.6273 22.3018 27.1471V26.5469H22.1815ZM20.9779 21.9854C22.0611 21.9854 22.9036 22.2254 23.5054 22.7056C24.1072 23.1858 24.3479 23.906 24.3479 24.8663V30.2682H22.7833L22.3018 29.1878C21.9408 29.668 21.5797 29.908 21.2186 30.1481C20.8575 30.3882 20.2558 30.3882 19.654 30.3882C18.9318 30.3882 18.33 30.1481 17.8486 29.788C17.3672 29.4279 17.1265 28.7076 17.1265 27.8673C17.1265 27.0271 17.4875 26.3068 18.0893 25.9467C18.6911 25.5866 19.654 25.3465 20.8575 25.2265H22.3018V24.8663C22.3018 24.3862 22.1815 24.1461 21.9408 23.906C21.7 23.6659 21.4593 23.6659 20.9779 23.6659C20.6168 23.6659 20.1354 23.6659 19.7743 23.786C19.4133 23.906 19.0522 24.026 18.6911 24.2661L17.969 22.7056C18.4504 22.4655 18.9318 22.3455 19.4133 22.2254C19.7743 22.1054 20.3761 21.9854 20.9779 21.9854Z" fill="#4F4898"/>
<path d="M30.6065 21.9854C31.449 21.9854 32.1712 22.2254 32.773 22.7056C33.2544 23.1858 33.6155 23.906 33.6155 24.9864V30.2682H31.3287V25.4665C31.3287 24.8663 31.2083 24.3862 30.9676 24.1461C30.7269 23.906 30.3658 23.6659 30.0047 23.6659C29.2826 23.6659 28.8012 23.906 28.5605 24.3862C28.3197 24.8663 28.1994 25.4665 28.1994 26.4269V30.2682H25.9126V22.1054H27.5976L27.9587 23.1858H28.079C28.3197 22.8256 28.6808 22.4655 29.1622 22.2254C29.6437 22.1054 30.1251 21.9854 30.6065 21.9854Z" fill="#4F4898"/>
<path d="M38.6705 23.786C37.5873 23.786 37.1059 24.6262 37.1059 26.3068C37.1059 27.9874 37.5873 28.7076 38.6705 28.7076C39.2723 28.7076 39.6334 28.5876 39.9944 28.2275C40.2352 27.8673 40.3555 27.3872 40.3555 26.5469V26.3068C40.3555 25.4665 40.2352 24.7463 39.9944 24.3862C39.7537 24.026 39.2723 23.786 38.6705 23.786ZM37.9484 21.9854C38.9112 21.9854 39.7537 22.3455 40.3555 23.1858L40.5962 22.1054H42.5219V30.2682C42.5219 31.4686 42.1609 32.3088 41.4387 32.9091C40.7166 33.5093 39.7537 33.8694 38.4298 33.8694C37.828 33.8694 37.3466 33.8694 36.8652 33.7493C36.3837 33.6293 35.9023 33.5093 35.4209 33.3892V31.5886C36.3837 31.9487 37.4669 32.1888 38.6705 32.1888C39.8741 32.1888 40.3555 31.5886 40.3555 30.3882V30.2682C40.3555 30.1481 40.3555 29.908 40.3555 29.788C40.3555 29.5479 40.3555 29.4279 40.3555 29.3078C40.1148 29.788 39.7537 30.0281 39.3927 30.2682C39.0316 30.5082 38.5502 30.5082 38.0687 30.5082C37.1059 30.5082 36.3837 30.1481 35.7819 29.4279C35.1802 28.7076 34.9395 27.6273 34.9395 26.3068C34.9395 24.9864 35.1802 23.906 35.7819 23.1858C36.2634 22.3455 36.9855 21.9854 37.9484 21.9854Z" fill="#4F4898"/>
<path d="M46.3732 30.3882H44.0864V22.2255H46.3732V30.3882ZM45.29 18.9844C45.6511 18.9844 45.8918 19.1044 46.1325 19.2245C46.3732 19.3445 46.4936 19.7046 46.4936 20.0647C46.4936 20.4249 46.3732 20.785 46.1325 20.905C45.8918 21.0251 45.6511 21.1451 45.29 21.1451C44.9289 21.1451 44.6882 21.0251 44.4475 20.905C44.2068 20.785 44.0864 20.4249 44.0864 20.0647C44.0864 19.7046 44.2068 19.3445 44.4475 19.2245C44.6882 18.9844 44.9289 18.9844 45.29 18.9844Z" fill="#4F4898"/>
<path d="M52.752 21.9854C53.5945 21.9854 54.3167 22.2254 54.9185 22.7056C55.3999 23.1858 55.761 23.906 55.761 24.9864V30.2682H53.4742V25.4665C53.4742 24.8663 53.3538 24.3862 53.1131 24.1461C52.8724 23.906 52.5113 23.6659 52.1502 23.6659C51.4281 23.6659 50.9467 23.906 50.706 24.3862C50.4652 24.8663 50.3449 25.4665 50.3449 26.4269V30.2682H48.0581V22.1054H49.7431L50.1042 23.1858H50.2245C50.4652 22.8256 50.8263 22.4655 51.3077 22.2254C51.6688 22.1054 52.1502 21.9854 52.752 21.9854Z" fill="#4F4898"/>
<path d="M60.6959 23.786C59.6127 23.786 59.1313 24.6262 59.1313 26.3068C59.1313 27.9874 59.6127 28.7076 60.6959 28.7076C61.2977 28.7076 61.6588 28.5876 62.0198 28.2275C62.2606 27.8673 62.3809 27.3872 62.3809 26.5469V26.3068C62.3809 25.4665 62.2606 24.7463 62.0198 24.3862C61.7791 24.026 61.2977 23.786 60.6959 23.786ZM59.9738 21.9854C60.9366 21.9854 61.7791 22.3455 62.3809 23.1858L62.6216 22.1054H64.5473V30.2682C64.5473 31.4686 64.1863 32.3088 63.4641 32.9091C62.742 33.5093 61.7791 33.8694 60.4552 33.8694C59.8534 33.8694 59.372 33.8694 58.8906 33.7493C58.4091 33.6293 57.9277 33.5093 57.4463 33.3892V31.5886C58.4091 31.9487 59.4924 32.1888 60.6959 32.1888C61.8995 32.1888 62.3809 31.5886 62.3809 30.3882V30.2682C62.3809 30.1481 62.3809 29.908 62.3809 29.788C62.3809 29.5479 62.3809 29.4279 62.3809 29.3078C62.1402 29.788 61.7791 30.0281 61.4181 30.2682C61.057 30.5082 60.5756 30.5082 60.0941 30.5082C59.1313 30.5082 58.4091 30.1481 57.8073 29.4279C57.2056 28.7076 56.9648 27.6273 56.9648 26.3068C56.9648 24.9864 57.2056 23.906 57.8073 23.1858C58.2888 22.3455 59.0109 21.9854 59.9738 21.9854Z" fill="#4F4898"/>
<path d="M4.60924 42.1525C5.21103 42.1525 5.69245 41.9124 5.93317 41.5523C6.17388 41.1922 6.29424 40.592 6.29424 39.8717V39.6316C6.29424 38.7914 6.17388 38.1912 5.93317 37.831C5.69245 37.3509 5.21103 37.2308 4.60924 37.2308C4.12781 37.2308 3.76674 37.4709 3.40567 37.831C3.16496 38.3112 3.0446 38.9114 3.0446 39.6316C3.0446 40.4719 3.16496 41.0721 3.40567 41.4323C3.76674 42.0325 4.12781 42.1525 4.60924 42.1525ZM3.8871 43.9531C2.92424 43.9531 2.2021 43.593 1.60031 42.8727C0.998528 42.1525 0.757812 41.0721 0.757812 39.7517C0.757812 38.3112 0.998528 37.3509 1.60031 36.6306C2.2021 35.9104 2.92424 35.5503 3.8871 35.5503C4.48888 35.5503 4.97031 35.6703 5.33138 35.9104C5.69245 36.1505 6.05353 36.3905 6.17388 36.7507H6.29424C6.29424 36.6306 6.17388 36.3905 6.17388 36.0304C6.17388 35.6703 6.17388 35.4302 6.17388 35.0701V32.4292H8.46067V43.8331H6.77567L6.29424 42.7527H6.17388C5.93317 43.1128 5.69245 43.3529 5.33138 43.593C4.97031 43.8331 4.48888 43.9531 3.8871 43.9531Z" fill="#4F4898"/>
<path d="M12.3122 43.8331H10.0254V35.6703H12.3122V43.8331ZM11.229 32.4292C11.59 32.4292 11.8307 32.5492 12.0715 32.6693C12.3122 32.7893 12.4325 33.1494 12.4325 33.5096C12.4325 33.8697 12.3122 34.2298 12.0715 34.3498C11.8307 34.4699 11.59 34.5899 11.229 34.5899C10.8679 34.5899 10.6272 34.4699 10.3865 34.3498C10.1457 34.2298 10.0254 33.8697 10.0254 33.5096C10.0254 33.1494 10.1457 32.7893 10.3865 32.6693C10.6272 32.5492 10.8679 32.4292 11.229 32.4292Z" fill="#4F4898"/>
<path d="M18.5709 39.9917H17.7284C17.0062 39.9917 16.5248 40.1118 16.2841 40.3518C16.0434 40.5919 15.8027 40.952 15.8027 41.3122C15.8027 41.6723 15.923 41.9124 16.1637 42.0324C16.4044 42.1525 16.6452 42.2725 16.8859 42.2725C17.3673 42.2725 17.7284 42.1524 18.0894 41.7923C18.4505 41.5522 18.5709 41.0721 18.5709 40.5919V39.9917ZM17.3673 35.4302C18.4505 35.4302 19.293 35.6703 19.8948 36.1504C20.4966 36.6306 20.7373 37.3508 20.7373 38.3111V43.713H19.1727L18.8116 42.7527C18.4505 43.2328 18.0894 43.4729 17.7284 43.713C17.3673 43.9531 16.7655 43.9531 16.1637 43.9531C15.4416 43.9531 14.8398 43.713 14.3584 43.3529C13.8769 42.9927 13.6362 42.2725 13.6362 41.4322C13.6362 40.5919 13.9973 39.8717 14.5991 39.5116C15.2009 39.1514 16.1637 38.9114 17.3673 38.7913H18.8116V38.4312C18.8116 37.951 18.6912 37.7109 18.4505 37.4709C18.2098 37.2308 17.9691 37.2308 17.4877 37.2308C17.1266 37.2308 16.6452 37.2308 16.2841 37.3508C15.923 37.4709 15.5619 37.5909 15.2009 37.831L14.4787 36.2705C14.9602 36.0304 15.4416 35.9103 15.923 35.7903C16.2841 35.5502 16.7655 35.4302 17.3673 35.4302Z" fill="#4F4898"/>
<path d="M26.2736 37.2308C25.6718 37.2308 25.3107 37.4708 25.07 37.831C24.8293 38.1911 24.7089 38.7913 24.7089 39.5115V39.7516C24.7089 40.5919 24.8293 41.1921 25.07 41.5522C25.3107 42.0324 25.7921 42.1524 26.3939 42.1524C26.8753 42.1524 27.2364 41.9123 27.4771 41.5522C27.7178 41.0721 27.8382 40.4719 27.8382 39.7516C27.8382 38.9113 27.7178 38.3111 27.4771 37.951C27.116 37.4708 26.755 37.2308 26.2736 37.2308ZM24.7089 32.4291V35.07C24.7089 35.4301 24.7089 35.6702 24.7089 36.0303C24.7089 36.2704 24.7089 36.5105 24.7089 36.7506H24.8293C25.07 36.3905 25.3107 36.1504 25.6718 35.9103C26.0328 35.6702 26.5143 35.5502 27.1161 35.5502C28.0789 35.5502 28.8011 35.9103 29.4028 36.6306C30.0046 37.3508 30.2453 38.4312 30.2453 39.7516C30.2453 41.1921 30.0046 42.1524 29.4028 42.8727C28.6807 43.5929 27.8382 43.953 26.9957 43.953C26.3939 43.953 25.9125 43.833 25.5514 43.5929C25.1903 43.3528 24.9496 43.1127 24.7089 42.8727H24.5886L24.2275 43.713H22.5425V32.3091H24.7089V32.4291Z" fill="#4F4898"/>
<path d="M34.819 37.1108C34.3375 37.1108 33.9765 37.2309 33.7358 37.4709C33.495 37.711 33.2543 38.1912 33.2543 38.7914H36.3836C36.3836 38.3112 36.2633 37.9511 36.0225 37.591C35.7818 37.2309 35.3004 37.1108 34.819 37.1108ZM34.819 35.5503C35.9022 35.5503 36.865 35.9104 37.4668 36.5106C38.0686 37.1108 38.4297 38.0711 38.4297 39.2716V40.3519H33.134C33.134 40.9521 33.3747 41.4323 33.7358 41.7924C34.0968 42.1525 34.5783 42.2726 35.18 42.2726C35.6615 42.2726 36.1429 42.2726 36.6243 42.1525C37.1058 42.0325 37.4668 41.9124 37.9483 41.6724V43.3529C37.5872 43.593 37.1058 43.7131 36.6243 43.8331C36.2633 43.9531 35.7818 43.9531 35.18 43.9531C34.3375 43.9531 33.6154 43.8331 33.0136 43.473C32.4118 43.1129 31.9304 42.7527 31.5693 42.1525C31.2082 41.5523 31.0879 40.712 31.0879 39.7517C31.0879 38.7914 31.2082 37.9511 31.5693 37.3509C31.9304 36.7507 32.2915 36.2705 32.8932 35.9104C33.3747 35.6703 34.0968 35.5503 34.819 35.5503Z" fill="#4F4898"/>
<path d="M43.244 42.1524C43.4847 42.1524 43.7254 42.1524 43.9661 42.0324C44.2069 42.0324 44.4476 41.9124 44.6883 41.7923V43.4729C44.4476 43.5929 44.2069 43.713 43.8458 43.713C43.4847 43.9531 43.0033 43.953 42.6422 43.953C42.1608 43.953 41.6793 43.833 41.3183 43.713C40.9572 43.5929 40.5961 43.2328 40.3554 42.8727C40.1147 42.5126 39.9943 41.9124 39.9943 41.1921V37.2308H38.9111V36.2704L40.1147 35.5502L40.7165 33.8696H42.2811V35.5502H44.5679V37.2308H42.2811V41.1921C42.2811 41.5522 42.4015 41.7923 42.5218 41.9124C42.7626 42.1524 43.0033 42.1524 43.244 42.1524Z" fill="#4F4898"/>
<path d="M49.1415 37.1108C48.66 37.1108 48.299 37.2309 48.0583 37.4709C47.8175 37.711 47.5768 38.1912 47.5768 38.7914H50.7061C50.7061 38.3112 50.5858 37.9511 50.345 37.591C49.984 37.2309 49.6229 37.1108 49.1415 37.1108ZM49.1415 35.5503C50.2247 35.5503 51.1875 35.9104 51.7893 36.5106C52.3911 37.1108 52.7522 38.0711 52.7522 39.2716V40.3519H47.4565C47.4565 40.9521 47.6972 41.4323 48.0583 41.7924C48.4193 42.1525 48.9008 42.2726 49.5025 42.2726C49.984 42.2726 50.4654 42.2726 50.9468 42.1525C51.4283 42.0325 51.7893 41.9124 52.2708 41.6724V43.3529C51.9097 43.593 51.4283 43.7131 50.9468 43.8331C50.5858 43.9531 50.1043 43.9531 49.3822 43.9531C48.5397 43.9531 47.8175 43.8331 47.2158 43.473C46.614 43.1129 46.1325 42.7527 45.7715 42.1525C45.4104 41.5523 45.29 40.712 45.29 39.7517C45.29 38.7914 45.4104 37.9511 45.7715 37.3509C46.1325 36.7507 46.4936 36.2705 47.0954 35.9104C47.6972 35.6703 48.299 35.5503 49.1415 35.5503Z" fill="#4F4898"/>
<path d="M59.8533 41.432C59.8533 42.2722 59.6126 42.8724 59.0108 43.3526C58.409 43.8328 57.5665 44.0728 56.3629 44.0728C55.7612 44.0728 55.2797 44.0728 54.9187 43.9528C54.5576 43.8328 54.0762 43.7127 53.7151 43.5927V41.7921C54.1965 42.0322 54.6779 42.1522 55.1594 42.2722C55.6408 42.3923 56.1222 42.5123 56.4833 42.5123C56.9647 42.5123 57.2054 42.3923 57.4462 42.2722C57.6869 42.1522 57.6869 42.0322 57.6869 41.7921C57.6869 41.672 57.6869 41.552 57.5665 41.432C57.4462 41.3119 57.3258 41.1919 57.0851 41.0718C56.8444 40.9518 56.4833 40.7117 55.8815 40.5917C55.4001 40.3516 54.9187 40.1115 54.5576 39.9915C54.1965 39.7514 53.9558 39.5113 53.8354 39.2712C53.7151 38.9111 53.5947 38.551 53.5947 38.0708C53.5947 37.3506 53.8354 36.7504 54.4372 36.3902C55.039 36.0301 55.7612 35.79 56.8444 35.79C57.3258 35.79 57.8072 35.79 58.2887 35.9101C58.7701 36.0301 59.2515 36.1502 59.7329 36.3902L59.1312 37.7107C58.7701 37.5906 58.409 37.3506 58.0479 37.2305C57.6869 37.1105 57.3258 37.1105 56.9647 37.1105C56.3629 37.1105 56.0019 37.2305 56.0019 37.5906C56.0019 37.7107 56.0019 37.8307 56.1222 37.9508C56.2426 38.0708 56.3629 38.1909 56.6037 38.3109C56.8444 38.4309 57.2054 38.551 57.6869 38.7911C58.1683 39.0311 58.5294 39.1512 58.8904 39.3913C59.2515 39.6313 59.4922 39.8714 59.7329 40.1115C59.7329 40.4716 59.8533 40.9518 59.8533 41.432Z" fill="#4F4898"/>
<path d="M182.377 8.30127L180.451 13.7031L178.646 8.30127H173.952V19.225H177.201V12.8628L179.608 19.225H180.812L183.34 12.8628V19.225H186.95V8.30127H182.377Z" fill="#4F4898"/>
<path d="M188.395 13.9432V13.8231C188.395 10.462 191.042 8.30127 194.412 8.30127C197.903 8.30127 200.43 10.342 200.43 13.8231V13.9432C200.43 17.3043 198.023 19.5851 194.412 19.5851C190.561 19.4651 188.395 17.1843 188.395 13.9432ZM196.699 13.8231V13.7031C196.699 11.9025 195.736 10.8221 194.412 10.8221C193.088 10.8221 192.126 11.7824 192.126 13.7031V13.8231C192.126 15.7438 192.968 16.7041 194.412 16.7041C195.736 16.7041 196.699 15.7438 196.699 13.8231Z" fill="#4F4898"/>
<path d="M200.912 15.7436H204.282C204.402 16.4639 204.643 16.9441 205.846 16.9441C206.689 16.9441 207.05 16.5839 207.05 15.9837C207.05 15.3835 206.689 15.2635 205.485 15.0234C202.236 14.6633 201.152 13.703 201.152 11.5422C201.152 9.50153 202.837 8.06104 205.606 8.06104C208.374 8.06104 209.938 9.1414 210.059 11.5422H206.809C206.689 10.822 206.328 10.4618 205.606 10.4618C204.883 10.4618 204.522 10.822 204.522 11.3021C204.522 11.7823 204.883 12.0224 206.087 12.2625C208.855 12.5025 210.42 13.2228 210.42 15.7436C210.42 17.7843 208.855 19.4649 205.846 19.4649C202.597 19.4649 200.912 18.2645 200.912 15.7436Z" fill="#4F4898"/>
<path d="M211.262 13.9432V13.8231C211.262 10.462 213.79 8.30127 217.039 8.30127C220.048 8.30127 222.094 9.62172 222.335 12.6227H218.724C218.604 11.6624 218.123 11.0622 217.039 11.0622C215.715 11.0622 214.993 12.0225 214.993 13.9432V14.0632C214.993 15.8638 215.715 16.9442 217.16 16.9442C218.123 16.9442 218.845 16.464 218.965 15.3837H222.455C222.215 18.2646 220.169 19.8252 217.16 19.8252C213.188 19.4651 211.262 17.1843 211.262 13.9432Z" fill="#4F4898"/>
<path d="M223.178 13.9432V13.8231C223.178 10.462 225.826 8.30127 229.196 8.30127C232.686 8.30127 235.213 10.342 235.213 13.8231V13.9432C235.213 17.3043 232.806 19.5851 229.196 19.5851C225.344 19.4651 223.178 17.1843 223.178 13.9432ZM231.362 13.8231V13.7031C231.362 11.9025 230.399 10.8221 229.075 10.8221C227.751 10.8221 226.788 11.7824 226.788 13.7031V13.8231C226.788 15.7438 227.631 16.7041 229.075 16.7041C230.52 16.7041 231.362 15.7438 231.362 13.8231Z" fill="#4F4898"/>
<path d="M247.49 8.30127L246.046 14.9035L244.602 8.30127H241.472L240.148 14.9035L238.824 8.30127H235.334L237.861 19.225H241.352L243.037 12.7428L244.602 19.225H248.092L250.74 8.30127H247.49Z" fill="#4F4898"/>
<path d="M173.952 27.2673V20.7852H177.442V27.1473C177.442 28.5878 177.803 29.308 179.007 29.308C180.21 29.308 180.571 28.5878 180.571 27.1473V20.9052H184.182V27.2673C184.182 30.5084 182.136 31.9489 179.007 31.9489C175.757 31.9489 173.952 30.3884 173.952 27.2673Z" fill="#4F4898"/>
<path d="M185.747 20.9053H190.32C193.449 20.9053 195.014 22.1057 195.014 24.5065V24.6265C195.014 26.1871 194.292 27.0273 193.088 27.5075L195.616 31.949H191.885L189.839 28.2278H189.237V31.949H185.747V20.9053ZM190.079 25.8269C191.042 25.8269 191.524 25.4668 191.524 24.6265V24.5065C191.524 23.6662 191.042 23.4261 190.079 23.4261H189.237V25.8269H190.079Z" fill="#4F4898"/>
<path d="M197.301 20.9053H202.596C205.365 20.9053 206.448 22.1057 206.448 23.7863V23.9063C206.448 25.2267 205.726 25.947 204.522 26.3071C205.846 26.5472 206.809 27.3875 206.809 28.828V28.948C206.809 30.8686 205.485 31.949 202.717 31.949H197.421V20.9053H197.301ZM201.754 25.1067C202.596 25.1067 202.958 24.8666 202.958 24.1464V24.0263C202.958 23.4261 202.596 23.066 201.754 23.066H200.671V25.1067H201.754ZM201.874 29.5482C202.837 29.5482 203.198 29.1881 203.198 28.3478C203.198 27.6275 202.837 27.2674 201.754 27.2674H200.671V29.5482H201.874Z" fill="#4F4898"/>
<path d="M211.744 20.9053H216.317L219.808 31.829H216.077L215.595 30.0284H211.984L211.503 31.829H208.253L211.744 20.9053ZM212.707 27.6276H214.873L213.79 23.6662L212.707 27.6276Z" fill="#4F4898"/>
<path d="M221.493 20.9053H225.464L228.594 26.6672V20.9053H231.723V31.829H228.353L224.622 25.2267V31.829H221.493V20.9053Z" fill="#4F4898"/>
<path d="M173.952 33.3896V44.3134H177.562V40.5921H180.932V38.0712H177.562V36.0305H181.775V33.3896H173.952Z" fill="#4F4898"/>
<path d="M182.376 38.9114V38.7914C182.376 35.4303 185.024 33.2695 188.394 33.2695C191.885 33.2695 194.412 35.3102 194.412 38.7914V38.9114C194.412 42.2726 192.005 44.5534 188.394 44.5534C184.663 44.5534 182.376 42.2726 182.376 38.9114ZM190.681 38.9114V38.7914C190.681 36.9908 189.718 35.9104 188.394 35.9104C187.07 35.9104 186.108 36.8708 186.108 38.7914V38.9114C186.108 40.8321 186.95 41.7924 188.394 41.7924C189.718 41.7924 190.681 40.7121 190.681 38.9114Z" fill="#4F4898"/>
<path d="M195.736 33.3896H200.31C203.439 33.3896 205.004 34.5901 205.004 36.9909C205.004 38.5514 204.282 39.3917 203.078 39.8718L205.606 44.3134H201.875L199.828 40.5921H199.227V44.3134H195.736V33.3896ZM200.19 38.3113C201.152 38.3113 201.634 37.9512 201.634 37.1109V36.9909C201.634 36.1506 201.152 35.9105 200.19 35.9105H199.347V38.3113H200.19Z" fill="#4F4898"/>
<path d="M206.568 39.7517V33.2695H210.059V39.5116C210.059 40.9521 210.42 41.6724 211.623 41.6724C212.827 41.6724 213.188 40.9521 213.188 39.5116V33.2695H216.799V39.6317C216.799 42.8728 214.753 44.3133 211.623 44.3133C208.374 44.5534 206.568 42.8728 206.568 39.7517Z" fill="#4F4898"/>
<path d="M227.15 33.3896L225.224 38.6714L223.298 33.3896H218.725V44.3134H221.854V37.8312L224.381 44.3134H225.585L228.112 37.8312V44.3134H231.603V33.3896H227.15Z" fill="#4F4898"/>
<path d="M116.903 43.9532V39.8718C116.903 39.1516 116.903 37.9512 114.496 37.9512C113.533 37.9512 112.931 38.0712 112.69 38.1913C112.329 38.3113 112.209 38.4313 112.209 38.6714V43.9532C112.209 44.1933 112.209 44.1933 112.45 44.1933H113.051C113.172 44.1933 113.292 44.1933 113.292 43.9532V39.1516C113.292 38.9115 113.774 38.5514 114.616 38.5514C116.06 38.5514 116.06 39.3917 116.06 39.9919V43.9532C116.06 44.1933 116.181 44.1933 116.301 44.1933H116.903C116.903 44.0732 116.903 43.9532 116.903 43.9532Z" fill="#4F4898"/>
<path d="M123.161 41.0721C123.161 39.6317 122.68 38.7914 122.078 38.3112C121.597 38.0711 121.115 37.8311 120.514 37.8311C119.912 37.8311 119.43 37.9511 118.949 38.3112C118.227 38.7914 117.866 39.6317 117.866 41.0721C117.866 42.5126 118.347 43.3529 118.949 43.8331C119.43 44.0732 119.912 44.3132 120.514 44.3132C121.115 44.3132 121.597 44.1932 122.078 43.8331C122.8 43.473 123.161 42.5126 123.161 41.0721ZM122.078 41.0721C122.078 42.1525 121.838 42.8728 121.476 43.2329C121.115 43.593 120.875 43.593 120.393 43.593C120.032 43.593 119.671 43.473 119.31 43.2329C118.949 42.8728 118.708 42.1525 118.708 41.0721C118.708 39.9918 118.949 39.2715 119.31 38.9114C119.671 38.5513 119.912 38.5513 120.393 38.5513C120.754 38.5513 121.115 38.6713 121.476 38.9114C121.838 39.2715 122.078 39.9918 122.078 41.0721Z" fill="#4F4898"/>
<path d="M127.494 38.5514C127.494 38.0712 126.772 37.9512 125.93 37.9512C125.328 37.9512 124.846 38.0712 124.606 38.1913C124.245 38.3113 124.004 38.4313 124.004 38.6714V43.9532C124.004 44.1933 124.124 44.1933 124.245 44.1933H124.846C124.967 44.1933 125.087 44.1933 125.087 43.9532V39.0315C125.087 38.6714 125.328 38.5514 125.689 38.5514C126.411 38.5514 126.531 39.1516 127.013 39.1516C127.254 39.0315 127.494 38.7915 127.494 38.5514Z" fill="#4F4898"/>
<path d="M132.67 43.4731V36.0306C132.67 35.7905 132.669 35.7905 132.429 35.7905H131.827C131.586 35.7905 131.586 35.9106 131.586 36.0306V38.1913C131.225 37.9513 130.864 37.8312 130.262 37.8312C128.457 37.8312 127.494 39.5118 127.494 41.0723C127.494 43.233 128.698 44.3134 130.503 44.3134C131.466 44.3134 132.67 43.8332 132.67 43.4731ZM131.586 43.113C131.586 43.4731 131.105 43.5932 130.503 43.5932C129.3 43.5932 128.577 42.6328 128.577 40.9523C128.577 39.5118 129.42 38.5515 130.503 38.5515C131.105 38.5515 131.466 38.7915 131.586 38.9116V43.113Z" fill="#4F4898"/>
<path d="M135.197 36.3907C135.197 36.0306 134.957 35.7905 134.595 35.7905C134.234 35.7905 133.994 36.0306 133.994 36.3907C133.994 36.7509 134.234 36.9909 134.595 36.9909C134.957 36.9909 135.318 36.6308 135.197 36.3907ZM135.077 43.9533V38.3114C135.077 38.0713 135.077 38.0713 134.836 38.0713H134.234C133.994 38.0713 133.994 38.1913 133.994 38.3114V43.9533C133.994 44.0733 133.994 44.1934 134.114 44.1934H134.716C135.077 44.1934 135.077 44.0733 135.077 43.9533Z" fill="#4F4898"/>
<path d="M145.668 43.9533C145.668 43.9533 145.668 43.8333 145.548 43.8333L143.261 40.8322C144.103 40.232 144.826 39.3917 145.427 38.3114C145.427 38.1913 145.548 38.1913 145.548 38.0713C145.548 37.9513 145.548 37.9513 145.307 37.9513H144.705C144.464 37.9513 144.344 37.9513 144.344 38.0713C143.983 39.0316 143.141 40.112 142.298 40.7122C142.298 40.7122 142.298 40.7122 142.298 40.8322L144.464 43.8333C144.585 43.9533 144.585 43.9533 144.826 43.9533H145.668C145.668 44.0733 145.548 44.1934 145.668 43.9533ZM142.057 43.9533V35.9106C142.057 35.7905 141.937 35.7905 141.817 35.7905H141.215C141.094 35.7905 140.974 35.7905 140.974 36.0306V43.9533C140.974 44.0733 140.974 44.1934 141.215 44.1934H141.817C141.937 44.1934 142.057 44.1934 142.057 43.9533Z" fill="#4F4898"/>
<path d="M140.132 42.5127C140.132 40.472 137.243 40.8321 137.243 39.5117C137.243 39.0315 137.604 38.5514 138.206 38.5514C138.928 38.5514 139.048 39.0315 139.41 39.0315C139.53 39.0315 139.891 38.9115 139.891 38.6714C139.891 38.1913 139.169 37.9512 138.326 37.9512C137.243 37.9512 136.28 38.5514 136.28 39.6317C136.28 40.5921 137.002 41.0722 137.845 41.4323C138.567 41.6724 139.169 42.0326 139.169 42.6328C139.169 43.1129 138.808 43.7131 137.965 43.7131C137.123 43.7131 136.882 43.1129 136.521 43.1129C136.28 43.1129 136.04 43.233 136.04 43.473C136.04 43.9532 137.002 44.3133 137.965 44.3133C139.048 44.3133 140.132 43.7131 140.132 42.5127Z" fill="#4F4898"/>
<path d="M91.5074 43.9532V39.8718C91.5074 39.1516 91.5074 37.9512 89.1003 37.9512C88.1374 37.9512 87.5356 38.0712 87.2949 38.1913C86.9338 38.3113 86.8135 38.4313 86.8135 38.6714V43.9532C86.8135 44.1933 86.8135 44.1933 87.0542 44.1933H87.656C87.7763 44.1933 87.8967 44.1933 87.8967 43.9532V39.1516C87.8967 38.9115 88.3781 38.5514 89.2206 38.5514C90.6649 38.5514 90.6649 39.3917 90.6649 39.9919V43.9532C90.6649 44.1933 90.7853 44.1933 90.9056 44.1933H91.5074C91.5074 44.0732 91.5074 43.9532 91.5074 43.9532Z" fill="#4F4898"/>
<path d="M97.7659 41.0721C97.7659 39.6317 97.2845 38.7914 96.6827 38.3112C96.2013 38.0711 95.7199 37.8311 95.1181 37.8311C94.5163 37.8311 94.0349 37.9511 93.5534 38.3112C92.8313 38.7914 92.4702 39.6317 92.4702 41.0721C92.4702 42.5126 92.9516 43.3529 93.5534 43.8331C94.0349 44.0732 94.5163 44.3132 95.1181 44.3132C95.7199 44.3132 96.2013 44.1932 96.6827 43.8331C97.2845 43.473 97.7659 42.5126 97.7659 41.0721ZM96.6827 41.0721C96.6827 42.1525 96.442 42.8728 96.0809 43.2329C95.7199 43.593 95.4792 43.593 94.9977 43.593C94.6367 43.593 94.2756 43.473 93.9145 43.2329C93.5534 42.8728 93.3127 42.1525 93.3127 41.0721C93.3127 39.9918 93.5534 39.2715 93.9145 38.9114C94.2756 38.5513 94.5163 38.5513 94.9977 38.5513C95.3588 38.5513 95.7199 38.6713 96.0809 38.9114C96.442 39.2715 96.6827 39.9918 96.6827 41.0721Z" fill="#4F4898"/>
<path d="M108.598 41.0721C108.598 39.6317 108.117 38.7914 107.515 38.3112C107.033 38.0711 106.552 37.8311 105.95 37.8311C105.348 37.8311 104.867 37.9511 104.385 38.3112C103.663 38.7914 103.302 39.6317 103.302 41.0721C103.302 42.5126 103.784 43.3529 104.385 43.8331C104.867 44.0732 105.348 44.3132 105.95 44.3132C106.552 44.3132 107.033 44.1932 107.515 43.8331C108.237 43.473 108.598 42.5126 108.598 41.0721ZM107.515 41.0721C107.515 42.1525 107.274 42.8728 106.913 43.2329C106.552 43.593 106.311 43.593 105.83 43.593C105.469 43.593 105.108 43.473 104.747 43.2329C104.385 42.8728 104.145 42.1525 104.145 41.0721C104.145 39.9918 104.385 39.2715 104.747 38.9114C105.108 38.5513 105.348 38.5513 105.83 38.5513C106.191 38.5513 106.552 38.6713 106.913 38.9114C107.274 39.2715 107.515 39.9918 107.515 41.0721Z" fill="#4F4898"/>
<path d="M103.182 38.1913C103.182 38.0712 103.062 38.0712 103.062 38.0712H102.46C102.339 38.0712 102.339 38.0712 102.339 38.1913L100.775 42.6328L99.2102 38.1913C99.2102 38.0712 99.0898 37.9512 98.9694 37.9512H98.2473C98.2473 37.9512 98.127 37.9512 98.127 38.0712V38.1913L100.293 43.8332C100.293 43.9532 100.414 43.9532 100.414 44.0732H100.895C101.016 44.0732 101.016 44.0732 101.136 43.9532L103.182 38.3113C103.182 38.1913 103.182 38.1913 103.182 38.1913Z" fill="#4F4898"/>
<path d="M146.631 33.99H146.992C147.233 33.99 147.473 33.99 147.473 34.3502C147.473 34.7103 147.112 34.7103 146.992 34.7103H146.631V33.99ZM146.27 35.7907H146.631V34.9504H146.872C147.112 34.9504 147.233 35.0704 147.473 35.5506L147.714 35.9107H148.075L147.834 35.5506C147.594 35.1904 147.473 35.0704 147.353 35.0704C147.834 35.0704 147.955 34.7103 147.955 34.4702C147.955 34.3502 147.834 34.1101 147.714 34.1101C147.594 33.99 147.233 33.99 146.992 33.99H146.27V35.7907ZM147.112 32.9097C146.029 32.9097 145.187 33.75 145.187 34.8303C145.187 35.9107 146.029 36.751 147.112 36.751C148.195 36.751 149.038 35.9107 149.038 34.8303C148.918 33.75 148.075 32.9097 147.112 32.9097ZM147.112 33.1498C147.955 33.1498 148.677 33.87 148.677 34.7103C148.677 35.5506 147.955 36.2708 147.112 36.2708C146.27 36.2708 145.548 35.5506 145.548 34.7103C145.427 33.87 146.149 33.1498 147.112 33.1498Z" fill="#4F4898"/>
<path d="M102.099 14.1829C102.58 14.9031 103.543 13.7027 103.543 13.4626C103.423 13.3426 101.618 13.5827 102.099 14.1829Z" fill="#4F4898"/>
<path d="M105.951 9.74159C108.478 9.74159 110.645 7.7009 110.645 5.06C110.645 2.53915 108.599 0.378418 105.951 0.378418C103.423 0.378418 101.257 2.41911 101.257 5.06C101.257 7.7009 103.423 9.74159 105.951 9.74159ZM106.071 1.57883C107.756 1.57883 109.2 2.89927 109.2 4.69988C109.2 6.38045 107.756 7.82094 106.071 7.82094C104.386 7.82094 102.942 6.50049 102.942 4.69988C102.942 2.89927 104.386 1.57883 106.071 1.57883Z" fill="#4F4898"/>
<path d="M129.42 18.0245C128.818 15.1435 126.291 15.0234 124.847 15.1435C123.402 15.2635 120.754 15.6236 117.986 15.6236C114.255 15.6236 110.163 14.5433 106.913 13.1028C106.312 12.8627 106.673 12.7427 106.913 12.6226C108.117 12.0224 109.2 11.4222 109.802 10.3418C110.283 9.50156 110.043 9.26148 109.561 9.74164C108.117 10.942 106.071 11.5423 103.784 10.822C101.497 9.98172 100.534 7.82099 100.414 7.22079C100.173 6.62058 99.9326 6.62058 99.9326 7.46087C99.9326 9.50156 100.895 10.702 101.136 11.0621C101.497 11.4222 101.618 11.7823 101.377 12.0224C100.895 12.6226 100.414 13.1028 100.414 13.3429C100.414 13.5829 100.414 13.703 100.294 14.0631C100.173 14.3032 99.8123 14.7833 99.2105 15.5036C98.8494 15.8637 99.0901 16.3439 99.3308 16.584C99.6919 16.9441 99.8123 17.3042 100.294 17.5443C100.655 17.7844 101.016 17.5443 101.497 17.6643C101.979 17.7844 102.58 18.0244 102.942 18.8647C103.543 20.0651 104.265 21.8658 105.589 23.3062C106.191 24.0265 106.191 25.2269 106.191 25.587C106.191 29.0682 104.386 32.4293 103.182 34.5901C102.942 35.0702 102.942 35.5504 103.303 35.5504C103.784 35.5504 105.349 35.5504 105.589 35.5504C105.95 35.5504 106.071 35.1903 106.071 34.9502C106.312 32.0692 107.876 26.7874 109.2 25.8271C111.246 27.1475 113.413 29.9085 112.329 34.7101C112.329 34.9502 112.089 35.5504 112.69 35.5504C112.69 35.5504 114.496 35.5504 114.737 35.5504C114.977 35.5504 115.459 35.4304 115.338 34.9502C115.218 33.0295 113.653 29.0682 113.172 26.6674C112.931 25.2269 114.135 22.586 118.588 24.5066C120.273 22.9461 122.56 23.9064 121.597 26.9075C120.634 29.7884 119.792 31.1089 116.542 34.5901C116.181 34.9502 116.181 35.4304 116.783 35.4304C117.023 35.4304 118.588 35.4304 118.829 35.4304C119.31 35.4304 119.43 35.3103 119.551 34.9502C119.671 34.5901 121.236 29.9085 124.124 27.6277C124.365 27.5077 124.606 26.6674 124.967 24.9868C126.411 26.7874 126.532 30.2686 124.124 34.5901C123.884 35.0702 124.004 35.4304 124.365 35.4304C124.485 35.4304 125.809 35.4304 126.291 35.4304C126.652 35.4304 126.772 35.1903 126.893 34.7101C127.013 34.1099 127.133 33.7498 127.374 33.1496C127.494 32.7895 127.615 32.6694 129.059 32.6694C129.541 32.6694 129.54 32.4293 129.54 32.0692C129.902 26.1872 129.902 20.0651 129.42 18.0245ZM124.124 15.9838C124.606 16.824 124.606 17.4242 124.485 17.9044C124.365 18.3846 123.763 18.6247 123.523 18.5046C123.523 17.5443 123.282 16.824 122.8 16.1038C123.282 16.1038 123.643 16.1038 124.124 15.9838ZM120.153 16.4639C120.393 17.5443 120.393 18.8647 120.032 19.3449C119.431 19.9451 116.542 19.8251 115.699 19.705C115.459 19.705 115.218 19.585 115.098 19.1048C114.977 18.3846 114.977 17.1842 114.857 16.3439C116.662 16.584 118.468 16.584 120.153 16.4639ZM109.922 18.5046C110.163 17.7844 110.404 16.4639 110.524 15.3836C111.126 15.5036 111.607 15.7437 112.209 15.8637C111.848 18.2645 111.005 18.9848 110.644 19.1048C110.404 19.2249 109.682 19.3449 109.922 18.5046ZM104.747 19.8251C104.265 19.2249 103.664 17.6643 103.062 17.1842C101.979 16.3439 101.136 16.9441 100.655 16.4639C100.173 15.9838 100.053 15.8637 100.414 15.3836C100.414 15.3836 100.895 14.7833 101.136 14.5433C101.377 14.3032 101.257 13.823 101.377 13.5829C101.497 13.3429 101.979 12.7427 102.46 12.2625C102.942 11.7823 103.423 12.0224 105.108 12.9827C107.154 14.1831 107.756 13.9431 107.034 15.0234C106.552 15.7437 105.108 17.5443 104.747 19.8251ZM126.893 19.1048C126.772 20.9054 126.411 23.4263 125.809 23.7864C125.208 24.1465 124.245 22.3459 119.069 22.3459C115.459 22.2259 112.69 22.706 112.209 26.0672C112.209 26.3073 112.089 26.3073 111.968 26.1872C111.005 25.1069 110.043 24.6267 108.598 23.7864C107.154 22.9461 106.191 21.7457 105.95 20.6653C105.71 19.585 106.191 18.0244 108.237 15.2635C108.478 14.9034 108.598 14.9034 109.682 15.3836C109.561 17.1842 109.08 18.2645 108.959 19.2249C108.719 20.1852 109.802 20.4253 110.765 20.1852C111.728 19.9451 112.69 18.9848 113.052 16.2238C113.413 16.3439 113.774 16.3439 114.135 16.4639C114.135 19.2249 114.375 19.8251 114.496 20.1852C114.737 20.6653 115.218 20.9054 115.699 20.9054C117.866 21.0255 120.032 21.0255 120.754 20.3052C121.477 19.585 121.236 17.7844 120.995 16.824C121.356 16.824 121.597 16.704 121.958 16.704C122.68 17.5443 122.8 18.3846 122.8 18.9848C122.8 19.585 123.523 19.9451 124.485 19.2249C125.448 18.5046 125.328 17.3042 124.847 16.2238C127.133 15.7437 127.013 17.1842 126.893 19.1048ZM128.578 27.8678C128.578 28.1079 128.337 28.3479 128.217 27.7477C128.096 27.0275 127.735 25.467 127.615 24.7467C127.494 24.1465 127.855 22.2259 127.976 20.5453C127.976 20.4253 128.096 20.4253 128.217 20.5453C128.939 21.3856 128.698 26.7874 128.578 27.8678Z" fill="#4F4898"/>
</svg>
