<svg width="563" height="476" viewBox="0 0 563 476" fill="none" xmlns="http://www.w3.org/2000/svg">
<g clip-path="url(#clip0_501_1493)">
<path d="M570.525 -255.335H-7.86743V475.915H570.525V-255.335Z" fill="white"/>
<path d="M312.907 30.1891L317.933 29.8462L335.95 35.6477C335.95 35.6477 340.191 35.2146 343.836 36.7755C347.472 38.3363 349.033 41.1062 350.332 42.4054C351.631 43.7047 373.285 63.0217 373.285 63.0217L373.718 65.6202H375.189L378.221 62.6789L382.118 61.118L381.342 63.8879L386.196 65.0969L386.629 67.957L384.464 68.7329L376.407 71.5028L374.07 69.6803L374.675 91.2439L384.031 89.9447L385.069 95.1416L382.127 94.5371L379.962 96.2694L382.037 99.3009H387.667L388.795 96.9641L392.693 96.7927L397.023 101.385L394.335 104.245H392.341L391.393 107.187L383.769 108.314L379.439 113.421L377.535 119.313L372.942 117.409L373.98 122.777L372.248 129.102L360.383 141.751L338.729 157.604H322.182L323.048 160.202L317.076 175.008L321.668 181.071L319.593 188.172L310.237 182.199L306.772 183.931L304.345 179.943L306.249 179.168L302.351 174.837L293.085 175.098V168.692L296.026 166.004L300.186 164.966L301.656 161.844H305.382L308.585 162.801L309.28 159.426L306.077 157.261L307.376 151.802L302.089 149.899L299.581 148.076L288.24 132.485L283.909 125.213L281.744 125.042L281.311 132.837L279.669 136.997L272.045 139.252L267.019 134.317L264.249 135.788L261.389 131.8L262.86 125.827L264.159 123.571L265.287 120.45L268.228 119.493L271.864 119.665L271.693 121.307L276.799 123.21L278.793 121.911L277.151 120.702L276.98 118.798L278.712 116.723L278.884 113.611L273.082 104.949C273.082 104.949 270.917 99.5806 269.96 96.6303C269.004 93.689 269.184 82.9432 269.184 82.9432L269.96 78.3508L266.929 82.6004L265.972 85.3703L259.043 86.2364V82.429L261.642 81.9057L265.449 77.7463L264.754 74.1915L266.054 72.9825L269.78 74.9764L272.902 66.8382L269.96 65.6292L267.705 66.3239L264.412 63.1209L265.359 61.2984L262.327 56.2729L264.321 49.6054L269.175 46.5738L273.849 46.0505L273.326 51.8519L275.058 51.4189L278.09 46.4836L276.962 45.2746H273.669L270.727 42.8475L270.899 39.3829L269.338 37.9935L268.129 33.4913L269.69 32.968L270.556 27.0763L268.733 25.6869C268.733 25.6869 267.524 27.0763 267.091 27.0763C266.658 27.0763 262.67 24.0448 262.67 24.0448L261.542 21.6177L265.873 19.714L263.365 14.86L265.873 12.9562H272.631L273.154 15.2028L279.479 14.7697L278.784 11.1337L271.16 12.5231L270.466 9.58182L274.625 3.95183L280.426 2.04809L280.517 -0.378952L284.324 0.144365L285.452 2.5714L293.338 5.3413V8.80591H290.829L290.225 10.448L282.339 13.5698V14.869L283.377 17.9907L280.435 19.5516L280.174 21.717L281.04 24.144L278.532 29.5124L276.709 33.2386L278.351 34.5379L279.912 41.3769L282.682 42.7663L289.954 39.9964H293.328L301.557 33.9334L305.797 31.5966C305.797 31.5966 301.9 18.6043 302.333 18.514C302.766 18.4238 306.573 17.6479 306.573 17.6479L305.797 14.878L309.785 13.5788L316.191 12.884L318.79 18.514L315.154 19.1185L314.721 22.7546L312.907 30.1891Z" stroke="#4F4898" stroke-miterlimit="10" stroke-linecap="round" stroke-linejoin="round"/>
<path d="M323.734 88.5011C323.734 88.5011 319.512 84.0801 317.238 81.5538C314.964 79.0185 305.283 71.8727 305.283 71.8727L283.783 63.0398L275.924 59.918L270.529 61.2172L268.49 66.0623" stroke="#4F4898" stroke-miterlimit="10" stroke-linecap="round" stroke-linejoin="round"/>
<path d="M286.688 41.2235L287.419 43.1002L290.793 46.9347C290.793 46.9347 295.277 58.4293 296.441 61.1631C297.614 63.8879 300.312 69.8427 300.312 69.8427" stroke="#4F4898" stroke-miterlimit="10" stroke-linecap="round" stroke-linejoin="round"/>
<path d="M319.385 83.4936C319.385 83.4936 320.621 82.456 323.021 82.1312C325.421 81.8064 328.092 82.0681 329.842 83.1056C331.593 84.1432 333.027 85.9658 333.09 88.5011C333.154 91.0364 333.352 91.8664 332.179 94.0769C331.015 96.2964 328.733 98.0468 328.02 98.1731C327.307 98.2994 323.274 98.1731 323.274 98.1731L317.364 95.2499C317.364 95.2499 316.39 92.0559 316.715 90.1161C317.04 88.1763 317.364 86.877 317.888 85.641C318.411 84.4049 319.385 83.4936 319.385 83.4936Z" stroke="#4F4898" stroke-miterlimit="10" stroke-linecap="round" stroke-linejoin="round"/>
<path d="M322.245 86.9312L321.334 82.0049L317.048 74.2095L316.399 69.8247L315.163 65.5661L314.513 59.2052L312.564 52.1858L309.316 48.4866L309.578 43.9393L308.206 40.8175L308.603 31.3981L306.582 17.6299" stroke="#4F4898" stroke-miterlimit="10" stroke-linecap="round" stroke-linejoin="round"/>
<path d="M273.064 104.931L279.371 102.72L297.362 97.334L305.87 94.7987L315.226 89.7371L323.22 90.1161L319.322 94.3476L318.673 97.334L316.651 99.346L310.94 106.618L303.082 115.135L294.889 122.795L294.438 128.191L288.222 132.476" stroke="#4F4898" stroke-miterlimit="10" stroke-linecap="round" stroke-linejoin="round"/>
<path d="M322.913 90.6845L324.185 94.0769L323.211 98.8949L316.137 106.88L308.865 113.836L300.871 122.597L299.897 124.356L294.438 128.191" stroke="#4F4898" stroke-miterlimit="10" stroke-linecap="round" stroke-linejoin="round"/>
<path d="M325.358 98.6964L325.557 103.695L325.457 107.665L325.358 110.516L327.307 122.994L333.145 127.406L341.923 133.126L344.783 137.8L348.943 149.556" stroke="#4F4898" stroke-miterlimit="10" stroke-linecap="round" stroke-linejoin="round"/>
<path d="M326.802 119.493L324.772 123.183L324.185 137.087L322.372 143.782L320.612 149.556L320.161 153.914L319.448 156.115L320.423 157.676L317.888 162.034L313.8 183.922" stroke="#4F4898" stroke-miterlimit="10" stroke-linecap="round" stroke-linejoin="round"/>
<path d="M373.709 65.6112L370.958 67.2532L364.786 68.6246H359.589L352.119 71.999L344.973 73.9479L340.687 74.796L337.737 76.6095L335.49 79.4065L331.006 82.0049L328.561 85.7041L327.505 88.1402" stroke="#4F4898" stroke-miterlimit="10" stroke-linecap="round" stroke-linejoin="round"/>
<path d="M323.22 90.1161L324.672 87.9778H326.657L327.506 81.9959L328.02 76.42V71.6111L329.454 64.6548L333.803 57.8428L337.899 53.097L339.65 50.3722L344.323 46.9257L345.298 45.5001L346.859 43.5513L348.807 41.2235" stroke="#4F4898" stroke-miterlimit="10" stroke-linecap="round" stroke-linejoin="round"/>
<path d="M327.145 88.1402L329.382 89.7281L330.943 91.8755C330.943 91.8755 331.656 94.6002 332.179 95.6108C332.702 96.6213 334.417 102.856 334.417 102.856L334.967 106.555L334.02 120.684L332.847 128.543L334.146 135.49L333.208 136.69L335.905 144.909L336.555 149.944L339.965 156.242" stroke="#4F4898" stroke-miterlimit="10" stroke-linecap="round" stroke-linejoin="round"/>
<path d="M331.367 91.7492L333.866 91.5236L336.916 92.3988L341.174 91.9567L353.192 88.1402L365.084 83.8545C365.084 83.8545 370.606 81.8696 370.705 81.8696C370.804 81.8696 373.953 80.3718 373.953 80.3718" stroke="#4F4898" stroke-miterlimit="10" stroke-linecap="round" stroke-linejoin="round"/>
<path d="M332.179 94.0769L337.313 95.4123L348.356 98.0829L351.604 97.9476L372.455 106.618L379.502 112.6" stroke="#4F4898" stroke-miterlimit="10" stroke-linecap="round" stroke-linejoin="round"/>
<path d="M332.179 94.0769L336.375 98.2363L348.943 106.167L362.287 108.567L377.102 118.609" stroke="#4F4898" stroke-miterlimit="10" stroke-linecap="round" stroke-linejoin="round"/>
<path d="M265.882 12.9562L278.523 29.4943" stroke="#4F4898" stroke-miterlimit="10" stroke-linecap="round" stroke-linejoin="round"/>
<path d="M-3.02244 64.6728L24.9922 41.1603C37.9755 56.6338 35.9545 79.7042 20.481 92.6875C5.00753 105.671 -18.0628 103.65 -31.0461 88.1763C-35.1333 83.3042 -37.4791 78.4952 -38.8054 72.2697L-3.02244 64.6728Z" fill="white" stroke="#4F4898" stroke-miterlimit="10"/>
<path d="M-3.02221 64.6728L-23.4761 34.3484C-7.96651 23.8914 12.9746 26.8327 24.9925 41.1603L-3.02221 64.6728Z" fill="white" stroke="#4F4898" stroke-miterlimit="10"/>
<path d="M100.808 64.6728L93.2017 28.8989C95.6919 28.3665 98.2632 28.0959 100.808 28.0959V64.6728V64.6728Z" fill="white" stroke="#4F4898" stroke-miterlimit="10"/>
<path d="M100.808 64.6728L124.32 92.6875C108.847 105.671 85.7763 103.65 72.793 88.1763C59.8097 72.7028 61.8308 49.6324 77.3042 36.6491C82.1764 32.562 86.9853 30.2161 93.2108 28.8898L100.808 64.6728Z" fill="white" stroke="#4F4898" stroke-miterlimit="10"/>
<path d="M100.808 64.6728L131.132 44.219C141.589 59.7285 138.648 80.6696 124.32 92.6875L100.808 64.6728Z" fill="white" stroke="#4F4898" stroke-miterlimit="10"/>
<path d="M100.808 64.6728V28.0959C113.556 28.0959 124.004 33.6537 131.132 44.219L100.808 64.6728Z" fill="white" stroke="#4F4898" stroke-miterlimit="10"/>
<path d="M590.284 231.759H-21.1755V487.437H590.284V231.759Z" fill="#DFEAF8"/>
<path d="M590.284 231.759H-12.4871V478.478H590.284V231.759Z" stroke="#4F4898" stroke-width="0.971" stroke-miterlimit="10"/>
<path d="M64.5376 231.038V478.478" stroke="#4F4898" stroke-width="0.92" stroke-miterlimit="10"/>
<path d="M24.9111 231.759V478.478" stroke="#4F4898" stroke-width="0.92" stroke-miterlimit="10"/>
<path d="M104.164 231.038V478.478" stroke="#4F4898" stroke-width="0.92" stroke-miterlimit="10"/>
<path d="M143.782 231.759V478.478" stroke="#4F4898" stroke-width="0.92" stroke-miterlimit="10"/>
<path d="M183.408 231.759V478.478" stroke="#4F4898" stroke-width="0.92" stroke-miterlimit="10"/>
<path d="M223.035 231.759V478.478" stroke="#4F4898" stroke-width="0.92" stroke-miterlimit="10"/>
<path d="M262.661 231.759V478.478" stroke="#4F4898" stroke-width="0.92" stroke-miterlimit="10"/>
<path d="M302.279 231.759V478.478" stroke="#4F4898" stroke-width="0.92" stroke-miterlimit="10"/>
<path d="M341.905 231.759V478.478" stroke="#4F4898" stroke-width="0.92" stroke-miterlimit="10"/>
<path d="M381.532 231.759V478.478" stroke="#4F4898" stroke-width="0.92" stroke-miterlimit="10"/>
<path d="M421.158 231.759V478.478" stroke="#4F4898" stroke-width="0.92" stroke-miterlimit="10"/>
<path d="M460.776 231.759V478.478" stroke="#4F4898" stroke-width="0.92" stroke-miterlimit="10"/>
<path d="M500.402 231.759V478.478" stroke="#4F4898" stroke-width="0.92" stroke-miterlimit="10"/>
<path d="M538.739 231.759V478.478" stroke="#4F4898" stroke-width="0.92" stroke-miterlimit="10"/>
<path d="M537.385 231.759H-12.4871" stroke="#4F4898" stroke-width="0.971" stroke-miterlimit="10"/>
<path d="M590.284 271.386H-12.4871" stroke="#4F4898" stroke-width="0.971" stroke-miterlimit="10"/>
<path d="M590.284 311.012H-12.4871" stroke="#4F4898" stroke-width="0.971" stroke-miterlimit="10"/>
<path d="M590.284 350.63H-12.4871" stroke="#4F4898" stroke-width="0.971" stroke-miterlimit="10"/>
<path d="M590.284 390.256H-12.4871" stroke="#4F4898" stroke-width="0.971" stroke-miterlimit="10"/>
<path d="M590.284 429.883H-12.4871" stroke="#4F4898" stroke-width="0.971" stroke-miterlimit="10"/>
<path d="M590.284 468.201H-12.4871" stroke="#4F4898" stroke-width="0.971" stroke-miterlimit="10"/>
<path d="M195.516 68.9495C204.919 68.9495 212.542 61.3269 212.542 51.9241C212.542 42.5213 204.919 34.8988 195.516 34.8988C186.113 34.8988 178.491 42.5213 178.491 51.9241C178.491 61.3269 186.113 68.9495 195.516 68.9495Z" fill="#4F4898" stroke="#4F4898" stroke-miterlimit="10"/>
<path d="M226.589 170.632H165.102V328.615H226.589V170.632Z" fill="#4F4898"/>
<path d="M173.944 217.937L165.201 209.194H165.147V198.521H144.458V210.945V214.229V233.807C144.458 234.962 145.397 235.901 146.551 235.901C147.634 235.901 148.545 235.071 148.636 233.988L149.664 222.52V235.783C149.664 236.857 150.53 237.723 151.604 237.723C152.615 237.723 153.454 236.947 153.535 235.937L154.59 222.448V235.892C154.59 237.209 155.664 238.282 156.981 238.282C158.245 238.282 159.291 237.299 159.372 236.036L160.184 222.376V233.546C160.184 234.89 161.276 235.973 162.611 235.973C163.956 235.973 165.038 234.881 165.038 233.546V216.511L170.19 221.663C171.228 222.701 172.897 222.701 173.935 221.663C174.981 220.644 174.981 218.974 173.944 217.937Z" fill="#F8B99B"/>
<path d="M171.318 87.256L171.345 87.3101C171.345 87.3101 171.192 87.283 170.93 87.256H168.909C165.426 87.5447 161.646 89.4845 157.117 99.2288C156.81 99.8964 156.521 100.519 156.242 101.123L154.654 104.552C154.257 105.409 153.896 106.176 153.58 106.871L151.541 111.265C151.487 111.382 151.433 111.49 151.387 111.589L150.945 112.546C150.936 112.564 150.927 112.591 150.918 112.609L139.559 142.708V205.242H165.318V170.641H229.125V109.153L218.614 87.265H212.65H171.318V87.256Z" fill="#E0F0F0"/>
<path d="M225.678 328.606H197.682V323.96C197.682 316.227 203.952 309.957 211.684 309.957C219.417 309.957 225.687 316.227 225.687 323.96V328.606H225.678Z" fill="#7677B7"/>
<path d="M195.841 328.606V198.9" stroke="#E0F0F0" stroke-miterlimit="10"/>
<path d="M165.102 176.362H226.589" stroke="#E0F0F0" stroke-miterlimit="10"/>
<path d="M211.08 54.2609C210.529 54.2609 209.997 54.3421 209.501 54.4955V53.5843C209.501 45.9152 203.221 39.6356 195.552 39.6356C187.883 39.6356 181.604 45.9152 181.604 53.5843V54.4684C181.134 54.3331 180.629 54.2609 180.115 54.2609C177.101 54.2609 174.656 56.706 174.656 59.7195C174.656 62.733 177.101 65.1781 180.115 65.1781C180.629 65.1781 181.125 65.0969 181.604 64.9706V67.5329C181.604 75.202 187.883 81.4816 195.552 81.4816C203.221 81.4816 209.501 75.202 209.501 67.5329V64.9525C210.006 65.1059 210.529 65.1871 211.08 65.1871C214.093 65.1871 216.538 62.742 216.538 59.7285C216.538 56.715 214.093 54.2609 211.08 54.2609Z" fill="#F8B99B"/>
<path d="M290.631 100.384L292.543 86.9673C292.769 85.3793 294.24 84.2786 295.828 84.5042C297.416 84.7297 298.516 86.2004 298.291 87.7883L297.163 95.701L310.561 85.65C311.734 84.7658 313.403 85.0094 314.288 86.1823C315.172 87.3552 314.928 89.0244 313.755 89.9086L303.966 97.2529L316.471 88.9883C317.626 88.2214 319.178 88.4921 320.017 89.6018C320.883 90.7567 320.648 92.3988 319.494 93.274L307.71 102.116L320.224 94.1762C321.163 93.5807 322.399 93.8063 323.057 94.6995C323.761 95.6378 323.572 96.9732 322.633 97.6769L311.003 106.402L321.731 99.7611C322.742 99.1385 324.059 99.3821 324.781 100.339C325.539 101.349 325.34 102.793 324.321 103.55L304.273 118.591L290.631 100.384Z" fill="#F8B99B"/>
<path d="M304.273 118.564L290.631 100.384L292.543 86.9673C292.769 85.3793 294.24 84.2786 295.828 84.5042" stroke="#4F4898" stroke-miterlimit="10"/>
<path d="M311.012 106.375L321.74 99.734C322.751 99.1115 324.068 99.3551 324.79 100.311" stroke="#4F4898" stroke-miterlimit="10"/>
<path d="M307.71 102.098L320.224 94.1581C321.163 93.5626 322.399 93.7882 323.057 94.6814" stroke="#4F4898" stroke-miterlimit="10"/>
<path d="M303.966 97.2438L316.471 88.9793C317.626 88.2123 319.178 88.483 320.017 89.5928" stroke="#4F4898" stroke-miterlimit="10"/>
<path d="M297.163 95.6919L310.561 85.641C311.734 84.7568 313.403 85.0004 314.288 86.1733" stroke="#4F4898" stroke-miterlimit="10"/>
<path d="M202.987 81.7523L195.715 87.274L188.443 81.7523V65.8187H202.987V81.7523Z" fill="#F8B99B"/>
<path d="M191.357 57.5812H185.429" stroke="#4F4898" stroke-width="0.92" stroke-miterlimit="10" stroke-linecap="round"/>
<path d="M191.357 57.5812V62.8954" stroke="#4F4898" stroke-width="0.92" stroke-miterlimit="10" stroke-linecap="round"/>
<path d="M204.872 57.5812H198.954" stroke="#4F4898" stroke-width="0.92" stroke-miterlimit="10" stroke-linecap="round"/>
<path d="M204.873 57.5812V62.8954" stroke="#4F4898" stroke-width="0.92" stroke-miterlimit="10" stroke-linecap="round"/>
<path d="M195.588 76.5554C196.874 76.5554 197.916 75.2304 197.916 73.596C197.916 71.9616 196.874 70.6367 195.588 70.6367C194.303 70.6367 193.261 71.9616 193.261 73.596C193.261 75.2304 194.303 76.5554 195.588 76.5554Z" fill="#4F4898"/>
<path d="M195.715 97.2799L190.419 93.4724L195.715 87.3011L201.011 93.4724L195.715 97.2799Z" fill="#4F4898"/>
<path d="M288.935 95.9897L258.556 120.359C256.869 121.713 254.415 121.424 253.079 119.728L237.353 99.6979C236.956 99.1927 236.613 98.6513 236.298 98.101C232.598 91.7401 226.003 87.265 218.596 87.265L208.671 86.9402L202.87 158.299L200.569 170.686H229.829V140.759L236.857 150.061C240.773 155.249 246.899 158.299 253.404 158.299C258.312 158.299 263.058 156.557 266.803 153.39L307.945 118.573L288.935 95.9897Z" fill="#E0F0F0"/>
<path d="M229.107 119.168V170.668H165.535V117.932" stroke="#4F4898" stroke-miterlimit="10"/>
<path d="M200.542 96.2243H190.942V170.668H200.542V96.2243Z" fill="#4F4898"/>
<path d="M195.715 139.911V164.371" stroke="#4F4898" stroke-miterlimit="10"/>
<path d="M191.979 94.1401L182.38 87.256L188.443 81.4004L195.715 86.9221L191.979 94.1401Z" fill="#E0F0F0" stroke="#4F4898" stroke-miterlimit="10"/>
<path d="M199.63 93.9777L208.671 86.9221L202.987 81.4004L195.715 86.9221L199.63 93.9777Z" fill="#E0F0F0" stroke="#4F4898" stroke-miterlimit="10"/>
<path d="M288.935 95.9897L307.936 118.564" stroke="#4F4898" stroke-miterlimit="10"/>
<path d="M281.211 102.179L300.366 124.934" stroke="#4F4898" stroke-miterlimit="10"/>
<path d="M287.789 104.66C288.77 104.66 289.566 103.864 289.566 102.883C289.566 101.901 288.77 101.105 287.789 101.105C286.807 101.105 286.011 101.901 286.011 102.883C286.011 103.864 286.807 104.66 287.789 104.66Z" stroke="#4F4898" stroke-miterlimit="10"/>
<path d="M143.872 202.454C144.854 202.454 145.649 201.659 145.649 200.677C145.649 199.695 144.854 198.9 143.872 198.9C142.89 198.9 142.094 199.695 142.094 200.677C142.094 201.659 142.89 202.454 143.872 202.454Z" stroke="#4F4898" stroke-miterlimit="10"/>
<path d="M179.971 62.8954C178.274 62.8954 176.894 61.515 176.894 59.8187C176.894 58.1225 178.274 56.7421 179.971 56.7421" stroke="#4F4898" stroke-miterlimit="10" stroke-linecap="round"/>
<path d="M211.215 62.8954C212.912 62.8954 214.292 61.515 214.292 59.8187C214.292 58.1225 212.912 56.7421 211.215 56.7421" stroke="#4F4898" stroke-miterlimit="10" stroke-linecap="round"/>
<path d="M165.417 195.913H139.649" stroke="#4F4898" stroke-miterlimit="10"/>
<path d="M210.06 47.8279L202.364 38.8686L191.664 38.607L183.074 44.246L180.332 50.4625L181.595 54.4684L188.434 47.6204L189.76 51.0219L194.064 45.3197C195.255 47.3949 197.068 49.8941 199.603 51.7437C204.782 55.5241 209.673 54.5136 209.673 54.5136L209.501 54.2699L210.06 47.8279Z" fill="#4F4898"/>
<path d="M208.166 50.3362C206.812 49.9302 205.062 49.2354 203.23 48.0354C200.046 45.9422 198.214 43.3438 197.285 41.7558" stroke="#FFEC83" stroke-miterlimit="10" stroke-linecap="round"/>
<path d="M208.689 47.2595C207.733 47.034 206.497 46.6189 205.188 45.861C202.906 44.5347 201.543 42.8114 200.83 41.7468" stroke="#FFEC83" stroke-miterlimit="10" stroke-linecap="round"/>
<path d="M451.14 282.556H346.29L305.491 235.883H410.34L451.14 282.556Z" fill="white" stroke="#4F4898" stroke-miterlimit="10" stroke-linejoin="round"/>
<path d="M451.14 296.558V349.015" stroke="#4F4898" stroke-miterlimit="10" stroke-linejoin="round"/>
<path d="M410.34 310.336V349.222" stroke="#4F4898" stroke-miterlimit="10" stroke-linejoin="round"/>
<path d="M346.074 271.449V349.222" stroke="#4F4898" stroke-miterlimit="10" stroke-linejoin="round"/>
<path d="M49.3257 223.459V328.308L95.9987 297.416V192.566L49.3257 223.459Z" fill="white" stroke="#4F4898" stroke-miterlimit="10" stroke-linejoin="round"/>
<path d="M48.8835 328.922H153.733L188.425 298.462L95.9987 297.416L48.8835 328.922Z" fill="white" stroke="#4F4898" stroke-miterlimit="10" stroke-linejoin="round"/>
<path d="M49.3257 328.308V406.082" stroke="#4F4898" stroke-miterlimit="10" stroke-linejoin="round"/>
<path d="M90.125 328.308V367.195" stroke="#4F4898" stroke-miterlimit="10" stroke-linejoin="round"/>
<path d="M154.392 328.308V406.082" stroke="#4F4898" stroke-miterlimit="10" stroke-linejoin="round"/>
<path d="M421.609 328.308V406.082" stroke="#4F4898" stroke-miterlimit="10" stroke-linejoin="round"/>
<path d="M526.495 224.505V329.355L479.822 300.564V193.612L526.495 224.505Z" fill="white" stroke="#4F4898" stroke-miterlimit="10" stroke-linejoin="round"/>
<path d="M526.495 329.355H421.646L396.726 300.853L485.696 298.462L526.495 329.355Z" fill="white" stroke="#4F4898" stroke-miterlimit="10" stroke-linejoin="round"/>
<path d="M526.495 328.308V406.082" stroke="#4F4898" stroke-miterlimit="10" stroke-linejoin="round"/>
<path d="M485.696 329.355V367.195" stroke="#4F4898" stroke-miterlimit="10" stroke-linejoin="round"/>
<path d="M369.55 247.061L393.36 255.2L416.656 187.062C418.794 180.819 415.456 174.025 409.213 171.886L408.022 171.48C401.778 169.342 394.984 172.68 392.846 178.924L369.55 247.061Z" fill="#EAEAF7"/>
<path d="M356.54 246.836C331.737 246.836 309.037 266.586 297.849 289.151L276.438 332.305H320.116L343.457 295.449C349.665 285.641 360.338 279.714 371.788 279.714L384.293 279.786L381.82 246.015L356.54 246.836Z" fill="#8881BC"/>
<path d="M368.359 258.394C344.982 258.394 323.599 271.548 313.051 292.408L292.868 332.296H334.029L356.025 298.219C361.881 289.151 371.932 283.674 382.723 283.674H392.187V257.627L368.359 258.394Z" fill="#D4B0D4"/>
<path d="M276.646 332.296L245.807 350.152H329.914V332.296" fill="#F6A000"/>
<path d="M245.807 350.152H292.868" stroke="#6EB74A" stroke-miterlimit="10"/>
<path d="M329.914 332.296V350.152H262.327L293.166 332.296L262.327 350.152H329.914" fill="#F6A000"/>
<path d="M329.914 332.296V350.152H262.327L293.166 332.296L262.327 350.152H329.914" stroke="#6EB74A" stroke-miterlimit="10"/>
<path d="M413.949 169.901H398.792V156.72L413.949 153.544V169.901Z" fill="#D19363"/>
<path d="M400.055 163.577C409.321 163.577 416.9 155.998 416.9 146.732V143.105C416.9 133.839 409.321 126.26 400.055 126.26C390.789 126.26 383.21 133.839 383.21 143.105V146.732C383.21 155.998 390.789 163.577 400.055 163.577Z" fill="#D19363"/>
<path d="M380.864 148.96H385.565C387.216 148.96 388.569 147.607 388.569 145.956C388.569 144.305 387.216 142.951 385.565 142.951H380.864C379.213 142.951 377.86 144.305 377.86 145.956C377.86 147.607 379.204 148.96 380.864 148.96Z" fill="#D19363"/>
<path d="M387.929 141.508H393.847" stroke="#4F4898" stroke-width="0.92" stroke-miterlimit="10" stroke-linecap="round"/>
<path d="M424.036 142.392C425.399 140.506 425.958 138.115 425.453 135.761C424.903 133.207 422.647 131.385 420.039 131.385L420.319 130.266C420.996 127.523 419.994 124.636 417.757 122.904C415.122 120.865 411.432 120.919 408.861 123.03L408.554 123.283L407.39 121.207C406.361 119.376 404.34 118.329 402.256 118.546C399.874 118.789 397.962 120.612 397.592 122.976L397.447 123.905L396.238 122.985C394.199 121.433 391.447 121.225 389.201 122.443C386.756 123.779 385.429 126.522 385.908 129.264L386.575 133.045L390.139 134.1C392.106 134.687 393.766 136.013 394.759 137.809C395.246 138.684 396.058 139.333 397.023 139.613C398.882 140.145 400.253 141.715 400.551 143.619L401.3 148.437L404.62 145.812C405.107 145.424 405.658 145.18 406.217 145.036C406.632 144.9 407.074 144.81 407.534 144.81C409.916 144.81 411.847 146.741 411.847 149.123C411.847 150.612 411.089 151.929 409.934 152.705C409.673 153.12 409.826 153.706 410.304 153.923L414.085 155.61C414.617 155.845 415.176 155.989 415.736 156.07C416.476 156.287 417.261 156.413 418.082 156.413C422.647 156.413 426.355 152.714 426.355 148.139C426.364 145.893 425.471 143.872 424.036 142.392Z" fill="#7677B7"/>
<path d="M387.929 141.508V146.831" stroke="#4F4898" stroke-width="0.92" stroke-miterlimit="10" stroke-linecap="round"/>
<path d="M400.253 152.326C400.145 152.813 399.577 155.177 397.132 156.584C394.795 157.929 391.664 157.884 389.129 156.467" stroke="#4F4898" stroke-width="0.92" stroke-miterlimit="10" stroke-linecap="round"/>
<path d="M407.165 151.415C408.41 151.189 409.231 149.998 409.005 148.762C408.78 147.517 407.589 146.696 406.353 146.921" fill="#D19363"/>
<path d="M407.165 151.415C408.41 151.189 409.231 149.998 409.005 148.762C408.78 147.517 407.589 146.696 406.353 146.921" stroke="#4F4898" stroke-miterlimit="10" stroke-linecap="round"/>
<path d="M442.352 226.183C441.468 221.077 440.132 216.069 438.472 211.161C437.327 207.76 436.524 204.602 435.684 201.48C432.328 189.029 425.877 170.01 414.572 170.362C412.226 170.434 410.891 167.908 409.537 167.493L395.381 171.255C395.381 171.255 383.896 217.035 382.524 232.635C382.073 237.822 381.839 243.037 381.839 248.261L382.1 264.005L381.839 283.674H405.775C410.99 283.674 416.088 282.529 420.797 280.48C437.859 273.1 447.296 254.631 444.111 236.316L442.352 226.183Z" fill="#EAEAF7"/>
<path d="M398.792 169.901C398.792 169.901 383.878 216.575 382.515 232.021C382.064 237.164 381.829 242.325 381.829 247.494L382.091 263.085L381.829 282.556H405.766C410.981 282.556 416.079 281.419 420.788 279.398" fill="#EAEAF7"/>
<path d="M398.792 169.901C398.792 169.901 383.878 216.575 382.515 232.021C382.064 237.164 381.829 242.325 381.829 247.494L382.091 263.085L381.829 282.556H405.766C410.981 282.556 416.079 281.419 420.788 279.398" stroke="#4F4898" stroke-miterlimit="10"/>
<path d="M398.792 169.901L413.949 164.38L421.844 172.103L406.686 177.625L398.792 169.901Z" fill="#EAEAF7" stroke="#4F4898" stroke-miterlimit="10"/>
<path d="M398.792 169.901L390.978 177.715L398.792 166.22V169.901Z" fill="#EAEAF7" stroke="#4F4898" stroke-miterlimit="10"/>
<path d="M411.161 124.979C412.659 123.806 414.725 123.68 416.295 124.672C417.982 125.737 418.758 127.848 418.145 129.806" fill="#7677B7"/>
<path d="M411.161 124.979C412.659 123.806 414.725 123.68 416.295 124.672C417.982 125.737 418.758 127.848 418.145 129.806" stroke="#FFEC83" stroke-miterlimit="10" stroke-linecap="round"/>
<path d="M396.5 132.621C394.632 132.982 392.747 132.134 391.799 130.537C390.789 128.822 391.077 126.585 392.521 125.132" fill="#7677B7"/>
<path d="M396.5 132.621C394.632 132.982 392.747 132.134 391.799 130.537C390.789 128.822 391.077 126.585 392.521 125.132" stroke="#FFEC83" stroke-miterlimit="10" stroke-linecap="round"/>
<path d="M404.106 130.771C405.604 129.598 407.67 129.472 409.24 130.464C410.927 131.529 411.703 133.64 411.089 135.598" fill="#7677B7"/>
<path d="M404.106 130.771C405.604 129.598 407.67 129.472 409.24 130.464C410.927 131.529 411.703 133.64 411.089 135.598" stroke="#FFEC83" stroke-miterlimit="10" stroke-linecap="round"/>
<path d="M419.579 134.317C419.841 134.362 421.871 134.732 422.764 136.473C423.676 138.251 423.035 140.75 421.023 142.221" fill="#7677B7"/>
<path d="M419.579 134.317C419.841 134.362 421.871 134.732 422.764 136.473C423.676 138.251 423.035 140.75 421.023 142.221" stroke="#FFEC83" stroke-miterlimit="10" stroke-linecap="round"/>
<path d="M417.044 138.458C417.098 138.72 417.45 140.75 416.124 142.194C414.77 143.664 412.208 143.926 410.124 142.545" fill="#7677B7"/>
<path d="M417.044 138.458C417.098 138.72 417.45 140.75 416.124 142.194C414.77 143.664 412.208 143.926 410.124 142.545" stroke="#FFEC83" stroke-miterlimit="10" stroke-linecap="round"/>
<path d="M422.358 150.323C422.25 150.566 421.411 152.452 419.507 152.903C417.558 153.363 415.294 152.145 414.337 149.845" fill="#7677B7"/>
<path d="M422.358 150.323C422.25 150.566 421.411 152.452 419.507 152.903C417.558 153.363 415.294 152.145 414.337 149.845" stroke="#FFEC83" stroke-miterlimit="10" stroke-linecap="round"/>
<path d="M381.622 257.933L382.245 263.969L381.144 283.683L405.919 283.638C411.134 283.638 416.232 282.492 420.942 280.444C431.101 276.05 438.563 267.714 442.262 257.816L381.622 257.933Z" fill="#D4B0D4"/>
<path d="M202.184 328.606H174.187V323.96C174.187 316.227 180.458 309.957 188.19 309.957C195.922 309.957 202.193 316.227 202.193 323.96V328.606H202.184Z" fill="#7677B7"/>
<path d="M147.706 205.233H173.7V170.668" stroke="#4F4898" stroke-miterlimit="10"/>
<path d="M288.925 376.993C318.215 376.993 341.959 372.695 341.959 367.394C341.959 362.092 318.215 357.794 288.925 357.794C259.636 357.794 235.891 362.092 235.891 367.394C235.891 372.695 259.636 376.993 288.925 376.993Z" fill="white" stroke="#4F4898" stroke-miterlimit="10"/>
<path d="M297.118 366.158C291.767 367.809 286.083 367.809 280.724 366.158V235.585H297.118V366.158Z" fill="white" stroke="#4F4898" stroke-miterlimit="10"/>
<path d="M288.925 284.243C370.123 284.243 435.946 268.994 435.946 250.183C435.946 231.372 370.123 216.123 288.925 216.123C207.728 216.123 141.905 231.372 141.905 250.183C141.905 268.994 207.728 284.243 288.925 284.243Z" fill="white" stroke="#4F4898" stroke-miterlimit="10"/>
<path d="M166.229 278.92H164.281V300.14H165.968V382.903H204.304V316.994C204.304 295.963 187.261 278.92 166.229 278.92Z" fill="#F8B99B"/>
<path d="M165.977 289.837H141.508V319.484H159.823C163.27 319.484 166.067 322.281 166.067 325.728V382.407H192.764V319.484C192.764 304.688 180.764 289.837 165.977 289.837Z" fill="#F8B99B"/>
<path d="M192.764 382.407V319.484C192.764 304.688 180.773 289.837 165.977 289.837H141.508" stroke="#4F4898" stroke-miterlimit="10"/>
<path d="M97.2888 200.054C100.853 203.916 107.547 219.263 109.686 225.155L129.833 280.796L98.7865 285.289L97.2888 200.054Z" fill="#F6B9D5"/>
<path d="M70.6548 286.796C70.6548 304.832 85.2711 319.448 103.307 319.448H167.303V308.721L147.463 300.979L167.303 299.644V279.01L102.946 264.601L70.6548 286.796Z" fill="#E74692"/>
<path d="M78.847 196.689L97.2889 197.194L111.256 271.566L63.5811 289.566L66.1705 242.92C67.0547 226.779 71.3764 211.026 78.847 196.689Z" fill="#EAEAF7"/>
<path d="M102.125 222.962L111.247 271.566L63.572 289.566L66.1615 242.92C66.8833 229.982 69.8065 217.278 74.7779 205.36C76.0049 202.418 77.3583 199.522 78.838 196.689" fill="#F6B9D5"/>
<path d="M111.256 271.566L97.2888 197.194" stroke="#A0CB7D" stroke-miterlimit="10"/>
<path d="M91.6951 202.788C87.4365 202.788 83.981 199.333 83.981 195.074V179.05H97.289V197.203C90.6395 200.343 94.7898 202.788 91.6951 202.788Z" fill="#F8B99B"/>
<path d="M98.3987 193.937C90.08 193.937 83.2681 187.125 83.2681 178.807V171.138C83.2681 162.819 90.08 156.007 98.3987 156.007C106.717 156.007 113.529 162.819 113.529 171.138V178.807C113.52 187.125 106.717 193.937 98.3987 193.937Z" fill="#F8B99B"/>
<path d="M121.379 177.507C121.379 179.673 119.61 181.441 117.445 181.441H110.66C108.495 181.441 106.726 179.673 106.726 177.507C106.726 175.342 108.495 173.574 110.66 173.574H117.445C119.61 173.574 121.379 175.342 121.379 177.507Z" fill="#F8B99B"/>
<path d="M109.244 177.507V170.939H100.925" stroke="#4F4898" stroke-miterlimit="10" stroke-linecap="round" stroke-linejoin="round"/>
<path d="M75.969 200.244L104.272 208.075L97.289 197.194L81.8967 192.909L75.969 200.244Z" fill="#EAEAF7" stroke="#A0CB7D" stroke-miterlimit="10"/>
<path d="M177.318 382.407H204.105L230.983 405.983H196.581V398.097" fill="#DE1182"/>
<path d="M229.233 405.983H194.83V398.097" fill="#DE1182"/>
<path d="M229.233 405.983H194.83V398.097" stroke="#4F4898" stroke-miterlimit="10"/>
<path d="M219.642 405.983H185.24V398.097H175.18V405.983H165.977V382.407H192.764" fill="#F6B9D5"/>
<path d="M165.977 382.407H193.143" stroke="#4F4898" stroke-miterlimit="10"/>
<path d="M219.642 405.983H185.24V398.097H175.18V405.983H165.977" stroke="#4F4898" stroke-miterlimit="10"/>
<path d="M109.686 160.771C108.287 159.156 106.627 157.802 104.796 156.72C102.269 155.231 99.4183 154.383 96.5041 154.04C93.9507 153.742 91.3793 154.356 89.232 155.772C84.9644 158.596 81.617 162.62 79.6231 167.33C78.1434 170.831 78.0351 174.765 79.3253 178.337L83.9719 189.228L91.9207 184.31C94.4109 182.767 96.7116 180.936 98.7687 178.852L99.7792 177.823C102.558 174.999 104.967 171.832 106.934 168.395L110.525 162.142C110.317 161.655 110.047 161.177 109.686 160.771Z" fill="#FFEC83"/>
<path d="M81.8967 168.801C88.1005 168.801 93.1297 163.772 93.1297 157.568C93.1297 151.364 88.1005 146.335 81.8967 146.335C75.693 146.335 70.6638 151.364 70.6638 157.568C70.6638 163.772 75.693 168.801 81.8967 168.801Z" fill="#FFEC83"/>
<path d="M91.695 185.79C94.8891 185.79 97.4784 183.201 97.4784 180.007C97.4784 176.813 94.8891 174.223 91.695 174.223C88.5009 174.223 85.9116 176.813 85.9116 180.007C85.9116 183.201 88.5009 185.79 91.695 185.79Z" fill="#F8B99B"/>
<path d="M99.4001 182.822C99.5626 183.525 100.203 185.952 102.522 187.658C104.002 188.749 105.499 189.056 106.284 189.164" stroke="#4F4898" stroke-miterlimit="10" stroke-linecap="round" stroke-linejoin="round"/>
<path d="M167.303 308.721V330.14L146.948 319.43L151.397 309.659L167.303 308.721Z" fill="#E74692"/>
<path d="M147.463 301.079H116.615C108.053 301.079 99.9957 297.19 94.6725 290.586C93.7702 289.476 93.0845 288.204 92.5612 286.877L89.656 279.542" stroke="#FFEC83" stroke-miterlimit="10"/>
<path d="M89.674 182.65C88.2935 181.964 87.7432 180.286 88.4289 178.906C89.1146 177.525 90.7928 176.975 92.1732 177.661" stroke="#4F4898" stroke-miterlimit="10" stroke-linecap="round" stroke-linejoin="round"/>
<path d="M208.644 247.982C208.391 247.007 207.435 246.403 206.442 246.574L193.234 248.947L206.136 245.573C207.408 245.239 208.166 243.949 207.832 242.676C207.516 241.458 206.307 240.7 205.071 240.953L191.763 243.597L202.482 240.791C203.772 240.457 204.539 239.14 204.205 237.849C203.871 236.559 202.554 235.792 201.264 236.126L186.584 239.961L190.238 233.717C190.969 232.463 190.554 230.857 189.3 230.126C188.046 229.395 186.44 229.81 185.709 231.065L179.79 241.17L166.383 244.914L171.417 265.296L184.698 261.515L184.707 261.56L206.659 255.822C207.769 255.533 208.436 254.397 208.148 253.287C207.877 252.249 206.857 251.582 205.793 251.762L194.533 253.657L207.263 250.327C208.292 250.057 208.906 249.01 208.644 247.982Z" fill="#F8B99B"/>
<path d="M168.81 244.382L179.51 241.666L185.709 231.074C186.44 229.819 188.055 229.404 189.3 230.135" stroke="#4F4898" stroke-miterlimit="10"/>
<path d="M194.533 253.657L205.793 251.762C206.857 251.582 207.877 252.249 208.148 253.287" stroke="#4F4898" stroke-miterlimit="10"/>
<path d="M193.234 248.947L206.442 246.574C207.426 246.394 208.391 247.007 208.644 247.982" stroke="#4F4898" stroke-miterlimit="10"/>
<path d="M191.763 243.597L205.071 240.953C206.298 240.71 207.516 241.467 207.832 242.676" stroke="#4F4898" stroke-miterlimit="10"/>
<path d="M186.584 239.97L201.263 236.135C202.554 235.801 203.871 236.568 204.205 237.858" stroke="#4F4898" stroke-miterlimit="10"/>
<path d="M100.366 210.863L105.698 229.612C107.827 237.083 112.835 243.407 119.619 247.188C126.404 250.968 134.416 251.897 141.896 249.777L173.393 240.818L180.205 264.763L149.123 273.605C135.156 277.575 120.179 275.843 107.484 268.769C94.7987 261.705 85.4334 249.885 81.4635 235.91L76.2846 217.72C74.3899 211.071 78.2515 204.142 84.901 202.256C91.5506 200.352 98.4708 204.214 100.366 210.863Z" fill="#F6B9D5" stroke="#A0CB7D" stroke-miterlimit="10"/>
<path d="M172.32 263.473C173.889 263.473 175.162 262.201 175.162 260.631C175.162 259.061 173.889 257.789 172.32 257.789C170.75 257.789 169.478 259.061 169.478 260.631C169.478 262.201 170.75 263.473 172.32 263.473Z" fill="#EAEAF7" stroke="#A0CB7D" stroke-miterlimit="10"/>
<path d="M162.025 243.606L168.837 267.542" stroke="#A1CB7C" stroke-miterlimit="10"/>
<path d="M114.053 354.239H40.231V405.919H114.053V354.239Z" fill="#4F4898" stroke="#F6B9D5" stroke-miterlimit="10"/>
<path d="M40.231 376.227H113.556" stroke="#F6B9D5" stroke-miterlimit="10"/>
<path d="M64.5193 354.149C64.5193 347.183 70.1673 341.526 77.1417 341.526C84.116 341.526 89.7641 347.174 89.7641 354.149" stroke="#F6B9D5" stroke-width="5" stroke-miterlimit="10"/>
<path d="M82.3929 379.899C84.5106 379.899 86.2274 378.182 86.2274 376.064C86.2274 373.946 84.5106 372.23 82.3929 372.23C80.2751 372.23 78.5583 373.946 78.5583 376.064C78.5583 378.182 80.2751 379.899 82.3929 379.899Z" stroke="#F6B9D5" stroke-miterlimit="10"/>
<path d="M49.3256 354.239H40.231V406.082H49.3256V354.239Z" fill="#4F4898" stroke="#F6B9D5" stroke-miterlimit="10"/>
<path d="M44.7783 354.149V406.082" stroke="#F6B9D5" stroke-miterlimit="10"/>
<path d="M90.6393 155.357C90.6393 155.357 88.1311 151.27 84.9822 149.827C81.8334 148.383 77.0425 149.944 77.0425 149.944" stroke="#F6A000" stroke-miterlimit="10" stroke-linecap="round" stroke-linejoin="round"/>
<path d="M88.474 156.972C88.474 156.972 86.2365 153.535 83.2681 152.596C80.2997 151.658 77.3674 152.596 77.3674 152.596" stroke="#F6A000" stroke-miterlimit="10" stroke-linecap="round" stroke-linejoin="round"/>
<path d="M331.674 247.206L274.165 265.44L216.665 247.206L274.165 228.971L331.674 247.206Z" fill="white" stroke="#4F4898" stroke-miterlimit="10"/>
<path d="M288.745 237.498C288.745 235.747 287.328 234.331 285.578 234.331C283.828 234.331 282.411 235.747 282.411 237.498C282.411 238.084 282.574 238.634 282.853 239.113C282.574 239.582 282.411 240.132 282.411 240.728C282.411 242.478 283.828 243.894 285.578 243.894C287.328 243.894 288.745 242.478 288.745 240.728C288.745 240.141 288.583 239.591 288.303 239.113C288.583 238.643 288.745 238.093 288.745 237.498Z" fill="white" stroke="#4F4898" stroke-miterlimit="10"/>
<path d="M285.578 237.561V247.116" stroke="#4F4898" stroke-miterlimit="10"/>
<path d="M297.876 235.919C298.146 235.449 298.3 234.917 298.3 234.34C298.3 232.589 296.883 231.173 295.133 231.173C293.383 231.173 291.966 232.589 291.966 234.34C291.966 234.917 292.119 235.458 292.39 235.919C292.119 236.388 291.966 236.92 291.966 237.498C291.966 238.084 292.128 238.634 292.408 239.113C292.128 239.582 291.966 240.132 291.966 240.728C291.966 242.478 293.383 243.894 295.133 243.894C296.883 243.894 298.3 242.478 298.3 240.728C298.3 240.141 298.137 239.591 297.858 239.113C298.137 238.643 298.3 238.093 298.3 237.498C298.3 236.92 298.146 236.388 297.876 235.919Z" fill="white" stroke="#4F4898" stroke-miterlimit="10"/>
<path d="M295.133 234.34V247.116" stroke="#4F4898" stroke-miterlimit="10"/>
<path d="M308.206 232.752C308.477 232.283 308.631 231.75 308.631 231.173C308.631 229.422 307.214 228.006 305.464 228.006C303.713 228.006 302.297 229.422 302.297 231.173C302.297 231.75 302.45 232.292 302.721 232.752C302.45 233.221 302.297 233.753 302.297 234.331C302.297 234.908 302.45 235.449 302.721 235.91C302.45 236.379 302.297 236.911 302.297 237.489C302.297 238.075 302.459 238.625 302.739 239.104C302.459 239.573 302.297 240.123 302.297 240.719C302.297 242.469 303.713 243.885 305.464 243.885C307.214 243.885 308.631 242.469 308.631 240.719C308.631 240.132 308.468 239.582 308.188 239.104C308.468 238.634 308.631 238.084 308.631 237.489C308.631 236.911 308.477 236.37 308.206 235.91C308.477 235.44 308.631 234.908 308.631 234.331C308.631 233.762 308.468 233.221 308.206 232.752Z" fill="white" stroke="#4F4898" stroke-miterlimit="10"/>
<path d="M305.464 231.173V247.116" stroke="#4F4898" stroke-miterlimit="10"/>
<path d="M277.341 187.973H263.067V245.834H277.341V187.973Z" fill="white" stroke="#4F4898" stroke-miterlimit="10"/>
<path d="M253.693 178.355H239.419V245.834H253.693V178.355Z" fill="white" stroke="#4F4898" stroke-miterlimit="10"/>
<path d="M267.966 205.766H253.693V245.834H267.966V205.766Z" fill="white" stroke="#4F4898" stroke-miterlimit="10"/>
<path d="M241.422 180.304V183.39" stroke="#4F4898" stroke-width="0.915" stroke-miterlimit="10"/>
<path d="M243.362 180.304V183.39" stroke="#4F4898" stroke-width="0.915" stroke-miterlimit="10"/>
<path d="M245.257 180.304V183.39" stroke="#4F4898" stroke-width="0.915" stroke-miterlimit="10"/>
<path d="M247.206 180.304V183.39" stroke="#4F4898" stroke-width="0.915" stroke-miterlimit="10"/>
<path d="M241.422 185.718V188.794" stroke="#4F4898" stroke-width="0.915" stroke-miterlimit="10"/>
<path d="M243.362 185.718V188.794" stroke="#4F4898" stroke-width="0.915" stroke-miterlimit="10"/>
<path d="M245.257 185.718V188.794" stroke="#4F4898" stroke-width="0.915" stroke-miterlimit="10"/>
<path d="M247.206 185.718V188.794" stroke="#4F4898" stroke-width="0.915" stroke-miterlimit="10"/>
<path d="M241.422 191.122V194.199" stroke="#4F4898" stroke-width="0.915" stroke-miterlimit="10"/>
<path d="M243.362 191.122V194.199" stroke="#4F4898" stroke-width="0.915" stroke-miterlimit="10"/>
<path d="M245.257 191.122V194.199" stroke="#4F4898" stroke-width="0.915" stroke-miterlimit="10"/>
<path d="M247.206 191.122V194.199" stroke="#4F4898" stroke-width="0.915" stroke-miterlimit="10"/>
<path d="M241.422 196.527V199.612" stroke="#4F4898" stroke-width="0.915" stroke-miterlimit="10"/>
<path d="M243.362 196.527V199.612" stroke="#4F4898" stroke-width="0.915" stroke-miterlimit="10"/>
<path d="M245.257 196.527V199.612" stroke="#4F4898" stroke-width="0.915" stroke-miterlimit="10"/>
<path d="M247.206 196.527V199.612" stroke="#4F4898" stroke-width="0.915" stroke-miterlimit="10"/>
<path d="M241.422 201.841V204.927" stroke="#4F4898" stroke-width="0.915" stroke-miterlimit="10"/>
<path d="M243.362 201.841V204.927" stroke="#4F4898" stroke-width="0.915" stroke-miterlimit="10"/>
<path d="M245.257 201.841V204.927" stroke="#4F4898" stroke-width="0.915" stroke-miterlimit="10"/>
<path d="M247.206 201.841V204.927" stroke="#4F4898" stroke-width="0.915" stroke-miterlimit="10"/>
<path d="M241.422 207.254V210.331" stroke="#4F4898" stroke-width="0.915" stroke-miterlimit="10"/>
<path d="M243.362 207.254V210.331" stroke="#4F4898" stroke-width="0.915" stroke-miterlimit="10"/>
<path d="M245.257 207.254V210.331" stroke="#4F4898" stroke-width="0.915" stroke-miterlimit="10"/>
<path d="M247.206 207.254V210.331" stroke="#4F4898" stroke-width="0.915" stroke-miterlimit="10"/>
<path d="M255.488 207.85V210.936" stroke="#4F4898" stroke-width="0.915" stroke-miterlimit="10"/>
<path d="M257.437 207.85V210.936" stroke="#4F4898" stroke-width="0.915" stroke-miterlimit="10"/>
<path d="M259.323 207.85V210.936" stroke="#4F4898" stroke-width="0.915" stroke-miterlimit="10"/>
<path d="M261.272 207.85V210.936" stroke="#4F4898" stroke-width="0.915" stroke-miterlimit="10"/>
<path d="M255.488 213.263V216.34" stroke="#4F4898" stroke-width="0.915" stroke-miterlimit="10"/>
<path d="M257.437 213.263V216.34" stroke="#4F4898" stroke-width="0.915" stroke-miterlimit="10"/>
<path d="M259.323 213.263V216.34" stroke="#4F4898" stroke-width="0.915" stroke-miterlimit="10"/>
<path d="M261.272 213.263V216.34" stroke="#4F4898" stroke-width="0.915" stroke-miterlimit="10"/>
<path d="M239.419 183.39H253.693" stroke="#4F4898" stroke-width="0.915" stroke-miterlimit="10"/>
<path d="M239.419 188.794H253.693" stroke="#4F4898" stroke-width="0.915" stroke-miterlimit="10"/>
<path d="M239.419 193.991H253.693" stroke="#4F4898" stroke-width="0.915" stroke-miterlimit="10"/>
<path d="M239.419 199.612H253.693" stroke="#4F4898" stroke-width="0.915" stroke-miterlimit="10"/>
<path d="M239.419 204.927H253.693" stroke="#4F4898" stroke-width="0.915" stroke-miterlimit="10"/>
<path d="M239.419 210.331H253.693" stroke="#4F4898" stroke-width="0.915" stroke-miterlimit="10"/>
<path d="M269.879 191.826C269.879 192.855 269.04 193.694 268.012 193.694C266.983 193.694 266.144 192.864 266.144 191.826C266.144 190.797 266.974 189.958 268.012 189.958C269.04 189.958 269.879 190.788 269.879 191.826Z" stroke="#4F4898" stroke-width="0.915" stroke-miterlimit="10"/>
<path d="M274.887 191.826C274.887 192.855 274.057 193.694 273.019 193.694C271.99 193.694 271.151 192.864 271.151 191.826C271.151 190.797 271.99 189.958 273.019 189.958C274.057 189.958 274.887 190.788 274.887 191.826Z" stroke="#4F4898" stroke-width="0.915" stroke-miterlimit="10"/>
<path d="M263.049 189.958V193.685C264.078 193.685 264.917 192.855 264.917 191.817C264.908 190.788 264.078 189.958 263.049 189.958Z" stroke="#4F4898" stroke-width="0.915" stroke-miterlimit="10"/>
<path d="M269.879 197.258C269.879 198.286 269.04 199.125 268.012 199.125C266.983 199.125 266.144 198.286 266.144 197.258C266.144 196.229 266.974 195.39 268.012 195.39C269.04 195.39 269.879 196.229 269.879 197.258Z" stroke="#4F4898" stroke-width="0.915" stroke-miterlimit="10"/>
<path d="M274.887 197.258C274.887 198.286 274.057 199.125 273.019 199.125C271.99 199.125 271.151 198.286 271.151 197.258C271.151 196.229 271.99 195.39 273.019 195.39C274.057 195.39 274.887 196.229 274.887 197.258Z" stroke="#4F4898" stroke-width="0.915" stroke-miterlimit="10"/>
<path d="M263.049 195.39V199.116C264.078 199.116 264.917 198.277 264.917 197.248C264.908 196.229 264.078 195.39 263.049 195.39Z" stroke="#4F4898" stroke-width="0.915" stroke-miterlimit="10"/>
<path d="M362.603 228.159L353.517 218.821C352.443 217.72 350.675 217.693 349.574 218.767C348.474 219.841 348.446 221.609 349.52 222.71L354.879 228.214L338.774 227.997C337.358 227.979 336.203 229.107 336.185 230.523C336.167 231.94 337.295 233.095 338.711 233.113L350.477 233.266L336.086 233.934C334.75 233.997 333.704 235.08 333.686 236.415C333.668 237.804 334.777 238.95 336.167 238.968L350.323 239.158L336.104 240.078C335.039 240.15 334.209 241.025 334.191 242.09C334.173 243.218 335.075 244.147 336.203 244.156L350.17 244.346L338.08 245.266C336.943 245.356 336.059 246.294 336.041 247.44C336.023 248.658 336.997 249.66 338.215 249.678L362.305 250.003L362.603 228.159Z" fill="#D19363"/>
<path d="M336.041 247.44C336.023 248.658 336.997 249.66 338.215 249.678L362.305 250.003L362.594 228.159" stroke="#D4B0D4" stroke-miterlimit="10"/>
<path d="M334.191 242.099C334.173 243.227 335.075 244.156 336.203 244.165L350.17 244.355" stroke="#D4B0D4" stroke-miterlimit="10"/>
<path d="M333.668 236.424C333.65 237.813 334.759 238.959 336.149 238.977L350.305 239.167" stroke="#D4B0D4" stroke-miterlimit="10"/>
<path d="M336.176 230.523C336.158 231.94 337.286 233.095 338.702 233.113L350.467 233.266" stroke="#D4B0D4" stroke-miterlimit="10"/>
<path d="M349.574 218.776C348.473 219.85 348.446 221.618 349.52 222.719L354.879 228.223" stroke="#D4B0D4" stroke-miterlimit="10"/>
<path d="M413.76 169.36C407.065 169.405 401.679 174.873 401.742 181.568L402.13 221.221C402.148 223.919 399.974 226.129 397.267 226.147L361.385 226.373L361.538 250.562L408.554 250.264C418.497 250.201 426.5 242.099 426.436 232.156L426.4 225.967H426.355L425.931 181.342C425.868 174.674 420.427 169.315 413.76 169.36Z" fill="#EAEAF7" stroke="#4F4898" stroke-miterlimit="10"/>
<path d="M370.055 250.643L369.911 226.454" stroke="#4F4898" stroke-miterlimit="10"/>
<path d="M365.842 248.478C366.664 248.478 367.33 247.811 367.33 246.989C367.33 246.167 366.664 245.5 365.842 245.5C365.02 245.5 364.353 246.167 364.353 246.989C364.353 247.811 365.02 248.478 365.842 248.478Z" stroke="#4F4898" stroke-miterlimit="10"/>
<path d="M471.458 271.864L440.006 268.95L472.974 198.43C472.974 198.43 472.866 195.453 483.675 197.221L471.458 271.864Z" fill="#FFEC83"/>
<path d="M460.649 180.792H456.58C455.119 180.792 453.928 179.61 453.928 178.139C453.928 176.677 455.11 175.486 456.58 175.486H460.649C462.111 175.486 463.302 176.668 463.302 178.139C463.302 179.61 462.111 180.792 460.649 180.792Z" fill="#F8B99B"/>
<path d="M374.097 383.372H338.603L391.213 291.361L416.052 309.803L374.097 383.372Z" fill="#A1CB7C"/>
<path d="M374.169 405.459H319.511C319.511 392.828 329.752 382.587 342.383 382.587H374.169V405.459V405.459Z" fill="#7777B7"/>
<path d="M347.68 382.587V392.692" stroke="#4F4898" stroke-miterlimit="10"/>
<path d="M352.985 382.587V392.692" stroke="#4F4898" stroke-miterlimit="10"/>
<path d="M398.62 405.459H343.962C343.962 392.828 354.203 382.587 366.834 382.587H398.62V405.459V405.459Z" fill="#D4B0D4"/>
<path d="M342.383 382.587V392.692" stroke="#4F4898" stroke-miterlimit="10"/>
<path d="M372.139 382.587V392.692" stroke="#4F4898" stroke-miterlimit="10"/>
<path d="M377.445 382.587V392.692" stroke="#4F4898" stroke-miterlimit="10"/>
<path d="M366.843 382.587V392.692" stroke="#4F4898" stroke-miterlimit="10"/>
<path d="M319.692 402.608H398.62V402.022H319.773C319.737 402.22 319.719 402.41 319.692 402.608Z" fill="#4F4898"/>
<path d="M398.611 383.002L363.424 382.84L409.583 302.116L436.19 317.481L398.611 383.002Z" fill="#6EB74A"/>
<path d="M472.974 198.43L452.728 254.009C449.308 261.569 441.775 266.423 433.474 266.423C412.037 266.423 412.786 268.282 397.619 283.449L389.544 291.524L429.342 331.322L438.274 322.597C438.59 322.345 438.987 322.209 439.393 322.209L493.59 322.227C504.571 322.227 509.028 317.77 509.028 306.79C509.028 297.542 508.757 279.028 509.028 269.78C509.244 262.418 509.163 255.064 509.028 247.702C508.938 242.523 509.172 232.68 509.028 226.986C509.028 226.986 506.529 210.954 498.661 204.277C490.803 197.591 483.07 207.85 483.07 207.85" fill="#FFEC83"/>
<path d="M458.385 240.313L490.802 197.591L488.565 196.039L472.974 198.43L458.385 240.313Z" fill="#D4B0D4"/>
<path d="M465.034 158.975C457.717 169.676 459.504 176.145 460.081 179.312C460.469 181.423 462.49 190.355 470.033 192.719C475.843 194.533 481.076 191.249 482.015 190.662C483.657 189.634 487.112 187.667 488.105 183.733C488.502 182.154 492.526 183.354 492.354 182.407L492.742 179.962L496.117 171.95L488.79 165.029L482.511 168.404L472.234 156.729L465.034 158.975Z" fill="#F8B99B"/>
<path d="M489.124 194.298L482.592 198.873C479.082 201.327 473.597 200.948 472.893 198.196L471.251 191.501L487.428 187.387L489.124 194.298Z" fill="#F8B99B"/>
<path d="M481.311 175.432C482.448 173.835 484.478 172.996 486.508 173.483C489.16 174.124 490.793 176.795 490.153 179.447C489.512 182.1 486.842 183.733 484.189 183.092C483.278 182.876 481.87 181.793 481.87 181.793L483.079 207.832L510.453 202.509C510.453 202.509 503.154 179.104 499.347 171.083C498.156 168.575 491.01 156.675 480.183 154.798C478.758 154.554 472.442 153.454 467.137 157.162C465.855 158.055 464.944 159.011 464.358 159.715C463.293 160.076 467.75 166.392 468.571 167.321C472.767 172.157 477.837 174.377 481.311 175.432Z" fill="#4F4898"/>
<path d="M474.454 180.737L483.215 172.924" stroke="#4F4898" stroke-miterlimit="10"/>
<path d="M475.861 188.975L482.087 182.046" stroke="#4F4898" stroke-miterlimit="10"/>
<path d="M465.034 196.039C466.794 196.572 468.49 196.671 470.051 196.527L477.278 188.208L474.273 178.78L453.937 178.734C453.946 179.086 453.973 179.447 454.009 179.817C454.027 179.98 454.036 180.151 454.054 180.322C454.072 180.458 454.09 180.593 454.108 180.728C454.153 181.071 454.207 181.423 454.28 181.775C454.704 184.031 456.941 193.576 465.034 196.039Z" fill="#6EB74A"/>
<path d="M463.681 240.331H410.503V311.752H463.681V240.331Z" fill="#F6A000"/>
<path d="M470.141 157.784C471.188 157.252 473.155 156.413 475.762 156.305C478.505 156.196 480.616 156.954 481.699 157.432" stroke="#FFEC83" stroke-miterlimit="10" stroke-linecap="round" stroke-linejoin="round"/>
<path d="M470.836 160.338C471.729 159.941 473.398 159.3 475.591 159.156C477.882 159.002 479.633 159.453 480.526 159.742" stroke="#FFEC83" stroke-miterlimit="10" stroke-linecap="round" stroke-linejoin="round"/>
<path d="M484.036 175.531C485.587 175.324 487.022 176.416 487.221 177.977C487.428 179.528 486.336 180.963 484.775 181.161" stroke="#4F4898" stroke-miterlimit="10" stroke-linecap="round" stroke-linejoin="round"/>
<path d="M471.882 181.495C471.882 181.315 471.747 181.17 471.558 181.17L454.171 181.134C454.207 181.342 454.235 181.549 454.271 181.766C454.271 181.775 454.271 181.775 454.271 181.784L471.558 181.82C471.738 181.82 471.882 181.676 471.882 181.495Z" fill="#A1CB7C"/>
<path d="M471.206 186.773C471.386 186.773 471.531 186.629 471.531 186.449C471.531 186.268 471.395 186.133 471.206 186.124L455.516 186.088C455.597 186.295 455.687 186.512 455.777 186.737L471.206 186.773Z" fill="#A1CB7C"/>
<path d="M431.715 290.324L420.843 271.413C419.985 269.924 418.154 269.302 416.575 269.96C414.734 270.727 413.94 272.902 414.852 274.67L417.667 280.147L407.155 280.841C405.937 280.887 404.963 281.888 404.963 283.115C404.963 284.333 405.928 285.344 407.146 285.389L412.506 286.471L405.586 286.318C404.331 286.345 403.321 287.374 403.321 288.628C403.321 289.882 404.313 290.901 405.568 290.938L411.216 292.137L405.946 292.724C404.575 292.787 403.492 293.915 403.492 295.286C403.492 296.703 404.647 297.858 406.064 297.858L409.989 298.192L406.082 298.895C405.035 298.959 404.223 299.825 404.223 300.871C404.223 301.927 405.044 302.793 406.091 302.856L426.671 304.372L431.715 290.324Z" fill="#F8B99B"/>
<path d="M416.575 269.969C414.734 270.736 413.94 272.911 414.852 274.679L417.667 280.156" fill="#F8B99B"/>
<path d="M416.575 269.969C414.734 270.736 413.94 272.911 414.852 274.679L417.667 280.156" stroke="#4F4898" stroke-miterlimit="10"/>
<path d="M404.232 300.871C404.232 301.927 405.053 302.793 406.1 302.856L426.68 304.372" fill="#F8B99B"/>
<path d="M404.232 300.871C404.232 301.927 405.053 302.793 406.1 302.856L426.68 304.372" stroke="#4F4898" stroke-miterlimit="10"/>
<path d="M403.501 295.286C403.501 296.703 404.656 297.858 406.073 297.858L409.998 298.191" fill="#F8B99B"/>
<path d="M403.501 295.286C403.501 296.703 404.656 297.858 406.073 297.858L409.998 298.191" stroke="#4F4898" stroke-miterlimit="10"/>
<path d="M403.339 288.619C403.339 289.873 404.331 290.892 405.586 290.928L411.234 292.128" fill="#F8B99B"/>
<path d="M403.339 288.619C403.339 289.873 404.331 290.892 405.586 290.928L411.234 292.128" stroke="#4F4898" stroke-miterlimit="10"/>
<path d="M470.854 191.718C471.034 191.718 471.179 191.573 471.179 191.393C471.179 191.212 471.043 191.077 470.854 191.068L458.195 191.041C458.358 191.258 458.529 191.474 458.701 191.691L470.854 191.718Z" fill="#A1CB7C"/>
<path d="M476.159 224.965V246.493C476.159 255.073 472.749 263.302 466.686 269.374C460.613 275.446 452.385 278.847 443.805 278.847H435.26V306.339H443.326C459.368 306.339 474.752 299.969 486.102 288.619C497.443 277.278 503.822 261.885 503.822 245.843V224.947C503.822 217.314 497.632 211.116 489.99 211.116C482.348 211.143 476.159 217.332 476.159 224.965Z" fill="#FFEC83" stroke="#F5ADAB" stroke-miterlimit="10"/>
<path d="M434.457 280.778H426.22V305.157H434.457V280.778Z" fill="#EAEAF7" stroke="#4F4898" stroke-miterlimit="10"/>
<path d="M430.343 298.697C433.507 298.697 436.072 296.132 436.072 292.968C436.072 289.803 433.507 287.238 430.343 287.238C427.179 287.238 424.614 289.803 424.614 292.968C424.614 296.132 427.179 298.697 430.343 298.697Z" fill="#4F4898"/>
<path d="M430.343 288.42V292.968H425.823" stroke="#EAEAF7" stroke-miterlimit="10"/>
<path d="M464.782 179.465C467.941 179.465 470.502 176.904 470.502 173.745C470.502 170.586 467.941 168.025 464.782 168.025C461.623 168.025 459.062 170.586 459.062 173.745C459.062 176.904 461.623 179.465 464.782 179.465Z" fill="#EAEAF7" stroke="#4F4898" stroke-miterlimit="10"/>
<path d="M461.895 174.882L462.246 171.282L467.66 171.959" stroke="#4F4898" stroke-miterlimit="10" stroke-linecap="round" stroke-linejoin="round"/>
<path d="M447.378 239.627H427.176V249.741H447.378V239.627Z" fill="white" stroke="#4F4898" stroke-miterlimit="10"/>
<path d="M496.108 170.777L504.814 196.653" stroke="#FFEC83" stroke-miterlimit="10" stroke-linecap="round" stroke-linejoin="round"/>
<path d="M494.881 174.882L501.72 197.203" stroke="#FFEC83" stroke-miterlimit="10" stroke-linecap="round" stroke-linejoin="round"/>
<path d="M382.524 382.93L418.415 320.387" stroke="#FFEC83" stroke-miterlimit="10"/>
</g>
<defs>
<clipPath id="clip0_501_1493">
<rect width="563" height="475.482" fill="white"/>
</clipPath>
</defs>
</svg>
