<svg width="563" height="512" viewBox="0 0 563 512" fill="none" xmlns="http://www.w3.org/2000/svg">
<g clip-path="url(#clip0_501_3015)">
<path d="M-4.28564 148.817H566.548" stroke="#4F4898" stroke-miterlimit="10"/>
<path d="M247.626 62.0999V148.843" stroke="#4F4898" stroke-miterlimit="10"/>
<path d="M104.765 148.817V-0.263489" stroke="#4F4898" stroke-miterlimit="10"/>
<path d="M485.725 148.817V-0.263489" stroke="#4F4898" stroke-miterlimit="10"/>
<path d="M104.765 -0.263489L195.793 44.0082C259.465 74.9747 331.033 74.9747 394.704 44.0082L485.733 -0.263489" stroke="#4F4898" stroke-miterlimit="10"/>
<path d="M485.725 -0.263489L566.548 39.0462" stroke="#4F4898" stroke-miterlimit="10"/>
<path d="M104.765 -0.263489L25.7938 38.1416C24.5643 38.7388 23.3172 39.3009 22.0525 39.8278L3.48668 47.5387L-4.32959 50.9375" stroke="#4F4898" stroke-miterlimit="10"/>
<path d="M152.382 22.9043V148.817" stroke="#4F4898" stroke-miterlimit="10"/>
<path d="M200 46.0106V148.817" stroke="#4F4898" stroke-miterlimit="10"/>
<path d="M533.263 22.9043V148.817" stroke="#4F4898" stroke-miterlimit="10"/>
<path d="M295.245 66.9565V148.817" stroke="#4F4898" stroke-miterlimit="10"/>
<path d="M342.862 62.0735V148.817" stroke="#4F4898" stroke-miterlimit="10"/>
<path d="M390.489 46.3882V148.817" stroke="#4F4898" stroke-miterlimit="10"/>
<path d="M438.106 22.3598V148.817" stroke="#4F4898" stroke-miterlimit="10"/>
<path d="M9.43213 45.0709V148.817" stroke="#4F4898" stroke-miterlimit="10"/>
<path d="M57.0503 22.3598V148.817" stroke="#4F4898" stroke-miterlimit="10"/>
<path d="M577.561 273.429H-8.49268V511.799H577.561V273.429Z" fill="#FFF8D6"/>
<path d="M577.561 273.429H-0.0263672V513.582H577.561V273.429Z" stroke="#4F4898" stroke-width="0.971" stroke-miterlimit="10"/>
<path d="M74.9395 273.429V513.582" stroke="#4F4898" stroke-width="0.92" stroke-miterlimit="10"/>
<path d="M36.3765 273.429V513.582" stroke="#4F4898" stroke-width="0.92" stroke-miterlimit="10"/>
<path d="M113.511 273.429V513.582" stroke="#4F4898" stroke-width="0.92" stroke-miterlimit="10"/>
<path d="M152.083 273.429V513.582" stroke="#4F4898" stroke-width="0.92" stroke-miterlimit="10"/>
<path d="M190.655 273.429V513.582" stroke="#4F4898" stroke-width="0.92" stroke-miterlimit="10"/>
<path d="M229.219 273.429V513.582" stroke="#4F4898" stroke-width="0.92" stroke-miterlimit="10"/>
<path d="M267.791 273.429V513.582" stroke="#4F4898" stroke-width="0.92" stroke-miterlimit="10"/>
<path d="M306.363 273.429V513.582" stroke="#4F4898" stroke-width="0.92" stroke-miterlimit="10"/>
<path d="M344.935 273.429V513.582" stroke="#4F4898" stroke-width="0.92" stroke-miterlimit="10"/>
<path d="M383.498 273.429V513.582" stroke="#4F4898" stroke-width="0.92" stroke-miterlimit="10"/>
<path d="M422.07 273.429V513.582" stroke="#4F4898" stroke-width="0.92" stroke-miterlimit="10"/>
<path d="M460.642 273.429V513.582" stroke="#4F4898" stroke-width="0.92" stroke-miterlimit="10"/>
<path d="M499.214 273.429V513.582" stroke="#4F4898" stroke-width="0.92" stroke-miterlimit="10"/>
<path d="M536.53 273.429V513.582" stroke="#4F4898" stroke-width="0.92" stroke-miterlimit="10"/>
<path d="M535.213 273.429H-0.0263672" stroke="#4F4898" stroke-width="0.971" stroke-miterlimit="10"/>
<path d="M586.695 311.992H-0.0263672" stroke="#4F4898" stroke-width="0.971" stroke-miterlimit="10"/>
<path d="M586.695 350.564H-0.0263672" stroke="#4F4898" stroke-width="0.971" stroke-miterlimit="10"/>
<path d="M586.695 389.136H-0.0263672" stroke="#4F4898" stroke-width="0.971" stroke-miterlimit="10"/>
<path d="M586.695 427.708H-0.0263672" stroke="#4F4898" stroke-width="0.971" stroke-miterlimit="10"/>
<path d="M586.695 466.271H-0.0263672" stroke="#4F4898" stroke-width="0.971" stroke-miterlimit="10"/>
<path d="M586.695 503.579H-0.0263672" stroke="#4F4898" stroke-width="0.971" stroke-miterlimit="10"/>
<path d="M487.92 261.107L491.556 264.814C498.564 273.447 501.55 284.653 499.776 295.622L493.075 337.092H514.908L523.357 288.789C525.087 278.909 522.944 268.748 517.376 260.414L502.349 237.878L487.92 261.107Z" fill="#D19363"/>
<path d="M457.691 247.24L451.526 258.376C445.378 269.486 435.314 277.899 423.291 281.992L397.962 290.616V312.449L438.862 301.418C450.99 298.151 461.485 290.528 468.353 280.007L481.86 259.298V228.753L457.691 247.24Z" fill="#D19363"/>
<path d="M495.596 224.424L507.575 242.181L494.55 260.967C492.636 263.733 488.605 263.9 486.462 261.309L480.06 253.572L491.687 219.646L495.596 224.424Z" fill="#6EB74A"/>
<path d="M465.033 204.646L462.592 207.895C457.911 214.131 454.319 221.113 451.982 228.551L445.668 248.672L457.7 251.017C460.194 251.5 462.785 250.99 464.901 249.594L472.999 243.227L481.86 223.387L471.62 246.318C470.654 248.478 470.9 250.981 472.27 252.914L481.86 266.465L497.159 219.646L475.431 203.188L465.033 204.646Z" fill="#A0CB7D"/>
<path d="M462.592 207.895C457.911 214.131 454.319 221.113 451.982 228.551L445.668 248.672L457.7 251.017C460.194 251.5 462.785 250.99 464.901 249.594L472.999 243.227L481.86 223.387L471.62 246.318C470.654 248.478 470.9 250.981 472.27 252.914L481.86 266.465" fill="#A0CB7D"/>
<path d="M462.592 207.895C457.911 214.131 454.319 221.113 451.982 228.551L445.668 248.672L457.7 251.017C460.194 251.5 462.785 250.99 464.901 249.594L472.999 243.227L481.86 223.387L471.62 246.318C470.654 248.478 470.9 250.981 472.27 252.914L481.86 266.465" stroke="#4F4898" stroke-miterlimit="10"/>
<path d="M499.53 169.508L514.671 184.446C515.751 185.509 517.49 185.5 518.552 184.429L533.447 169.499C532.332 166.065 533.324 162.289 535.985 159.847L536.363 159.496C536.82 159.074 537.496 159.013 538.023 159.347C538.725 159.786 538.875 160.734 538.357 161.375L537.645 162.245L539.99 160.339C540.482 159.944 541.167 159.909 541.694 160.251C542.379 160.699 542.555 161.621 542.089 162.289L540.886 164.01L542.739 162.622C543.327 162.183 544.153 162.218 544.697 162.71C545.321 163.272 545.382 164.221 544.847 164.853L543.828 166.056L545.365 165.16C546.006 164.783 546.832 164.915 547.323 165.477C547.815 166.03 547.85 166.855 547.411 167.444L546.48 168.709L547.666 167.918C548.368 167.453 549.317 167.593 549.853 168.252C550.371 168.893 550.327 169.815 549.765 170.404L545.971 174.399C544.689 175.752 542.967 176.595 541.123 176.788L534.071 188.688C532.508 191.323 530.593 193.738 528.371 195.855L524.076 199.947C520.16 203.689 514.17 204.215 509.656 201.229L500.979 195.486L486.945 186.712L495.543 169.367L499.53 169.508Z" fill="#D19363"/>
<path d="M476.073 186.212L454.925 183.893C453.414 183.726 452.062 184.807 451.886 186.317L449.462 207.263C452.466 209.265 454.029 212.84 453.467 216.405L453.388 216.915C453.291 217.529 452.8 217.995 452.185 218.065C451.368 218.153 450.648 217.503 450.665 216.678L450.683 215.562L450.033 218.504C449.893 219.119 449.374 219.576 448.751 219.628C447.934 219.699 447.223 219.084 447.179 218.276L447.056 216.177L446.459 218.408C446.265 219.119 445.607 219.602 444.869 219.558C444.035 219.506 443.394 218.803 443.42 217.969L443.473 216.388L442.823 218.048C442.551 218.741 441.822 219.145 441.093 219.014C440.364 218.882 439.828 218.258 439.802 217.521L439.749 215.949L439.31 217.301C439.046 218.109 438.221 218.583 437.387 218.39C436.587 218.206 436.043 217.468 436.122 216.651L436.614 211.162C436.781 209.309 437.606 207.579 438.941 206.279L437.088 192.57C436.675 189.531 436.684 186.449 437.114 183.419L437.94 177.544C438.695 172.178 443.06 168.05 448.452 167.593L458.824 166.715L475.273 164.888L479.296 183.832L476.073 186.212Z" fill="#D19363"/>
<path d="M482.87 163.22L495.464 165.661L499.53 169.508C495.666 176.788 495.666 185.5 499.521 192.781L500.961 195.503L497.159 219.637L478.25 209.178C475.124 207.447 471.76 206.165 468.274 205.375L462.758 204.128L472.147 165.24" fill="#FAD8E9"/>
<path d="M499.521 192.781L500.961 195.503L497.159 219.637L478.25 209.178C475.124 207.447 471.76 206.165 468.274 205.375L462.758 204.128L472.147 165.24" fill="#FAD8E9"/>
<path d="M499.521 192.781L500.961 195.503L497.159 219.637L478.25 209.178C475.124 207.447 471.76 206.165 468.274 205.375L462.758 204.128L472.147 165.24" stroke="#F5ADAB" stroke-miterlimit="10"/>
<path d="M496.553 160.181C490.273 160.181 485.145 155.043 485.145 148.773V142.985C485.145 136.706 490.282 131.577 496.553 131.577C502.832 131.577 507.961 136.715 507.961 142.985V148.773C507.961 155.052 502.823 160.181 496.553 160.181Z" fill="#D19363"/>
<path d="M513.889 147.789C513.889 149.423 512.554 150.757 510.921 150.757H505.8C504.167 150.757 502.832 149.423 502.832 147.789C502.832 146.156 504.167 144.821 505.8 144.821H510.921C512.554 144.821 513.889 146.156 513.889 147.789Z" fill="#D19363"/>
<path d="M505.002 135.336L502.955 137.742C500.918 140.14 498.529 142.203 495.859 143.863L491.626 146.498L487.885 156.176L483.819 151.829C481.746 149.616 480.455 146.779 480.139 143.767L479.726 139.744L483.915 136.038L486.488 129.873L492.258 128.81C495.446 128.222 498.731 128.81 501.515 130.47C503.298 131.533 504.563 133.298 505.002 135.336Z" fill="#4F4898"/>
<path d="M490.976 150.986C493.455 150.986 495.464 148.977 495.464 146.498C495.464 144.02 493.455 142.01 490.976 142.01C488.498 142.01 486.488 144.02 486.488 146.498C486.488 148.977 488.498 150.986 490.976 150.986Z" fill="#D19363"/>
<path d="M478.382 125.464C473.903 125.016 469.934 126.896 465.806 129.82L450.103 142.151C449.427 142.686 448.724 143.196 448.013 143.679L435.481 152.171C433.25 153.682 431.915 156.202 431.915 158.899C431.915 162.008 433.689 164.844 436.482 166.206C440.258 168.05 444.667 168.085 448.479 166.293L448.663 166.206C455.171 163.158 460.985 158.811 465.753 153.427L470.303 148.29C472.349 145.98 474.597 143.846 477.004 141.914L479.726 139.736L483.915 136.029L486.488 129.864L486.12 129.329C485.478 128.398 480.209 125.649 478.382 125.464Z" fill="#4F4898"/>
<path d="M479.164 141.422C478.602 141.097 478.409 140.377 478.733 139.815L484.969 129.012C485.294 128.45 486.014 128.257 486.576 128.582C487.138 128.907 487.331 129.627 487.006 130.189L480.771 140.991C480.446 141.554 479.726 141.747 479.164 141.422Z" fill="#F5ADAB"/>
<path d="M487.885 156.176L482.861 163.22C483.529 167.014 487.577 169.165 491.099 167.602L495.455 165.661L498.459 155.632L487.885 156.176Z" fill="#D19363"/>
<path d="M504.729 146.463V142.836H500.136" stroke="#4F4898" stroke-miterlimit="10" stroke-linecap="round" stroke-linejoin="round"/>
<path d="M503.242 155.648C503.638 154.848 503.429 153.938 502.777 153.615C502.125 153.293 501.276 153.68 500.88 154.48C500.485 155.28 500.693 156.19 501.345 156.512C501.997 156.835 502.846 156.448 503.242 155.648Z" fill="#4F4898"/>
<path d="M493.075 337.101L492.355 356.703H546.595L514.908 337.101H493.075Z" fill="#EBEAF6"/>
<path d="M492.355 356.703H546.595" stroke="#A0CB7D" stroke-miterlimit="10"/>
<path d="M266.139 303.315H250.568L254.696 283.801H270.267L266.139 303.315Z" fill="#F9CFCE"/>
<path d="M293.769 322.452H246.415L250.56 303.315H274.623C285.206 303.315 293.769 311.887 293.769 322.452Z" fill="#E74692"/>
<path d="M293.769 322.452H246.414L244.886 329.012L254.591 325.587L259.184 329.012L264.383 325.587L269.301 329.012L273.438 325.587L277.89 329.012L282.158 325.587L287.358 329.012L290.888 325.587L293.769 329.012V322.452Z" fill="#FFEC83"/>
<path d="M244.886 329.012L254.591 325.587L259.184 329.012L264.383 325.587L269.301 329.012L273.438 325.587L277.89 329.012L282.158 325.587L287.358 329.012L290.888 325.587L293.769 329.012" stroke="#DE1182" stroke-miterlimit="10"/>
<path d="M268.625 303.315V312.888" stroke="#FFEC83" stroke-miterlimit="10"/>
<path d="M273.341 303.315V312.888" stroke="#FFEC83" stroke-miterlimit="10"/>
<path d="M171.81 281.772L167.62 266.775L148.825 272.026L153.016 287.023L171.81 281.772Z" fill="#F8B99B"/>
<path d="M142.019 318.799L130.391 277.188L148.825 272.033L155.298 295.209C158.143 305.397 152.198 315.953 142.019 318.799Z" fill="#E74692"/>
<path d="M142.019 318.799L130.391 277.188L124.068 278.953L128.459 281.904L126.395 287.252L131.094 291.336L129.118 297.001L133.526 300.057L131.427 305.265L135.88 308.462L133.974 314.39L138.225 316.866L135.696 320.564L142.019 318.799Z" fill="#FFEC83"/>
<path d="M153.682 289.43L144.469 292.004" stroke="#FFEC83" stroke-miterlimit="10"/>
<path d="M154.955 293.962L145.734 296.544" stroke="#FFEC83" stroke-miterlimit="10"/>
<path d="M157.212 268.766V291.925L192.456 281.017C209.634 275.704 224.801 265.323 235.972 251.245C241.646 244.105 246.186 236.13 249.436 227.612L260.747 198.006L226.347 190.339L217.319 225.89C215.676 232.354 212.611 238.37 208.334 243.49C203.337 249.48 196.865 254.064 189.549 256.778L157.212 268.766Z" fill="#7677B7"/>
<path d="M226.356 190.331C222.228 194.344 219.312 199.438 217.925 205.023L216.8 209.555C215.738 213.823 216.282 218.329 218.329 222.21C219.918 225.232 222.333 227.735 225.293 229.43L250.041 243.604C254.564 246.195 256.997 251.324 256.136 256.462L250.208 291.916H275.466L282.659 261.353C285.215 250.49 282.808 239.055 276.09 230.15L269.644 221.596C266.5 217.424 262.96 213.56 259.079 210.065L241.461 194.195L226.356 190.331Z" fill="#4F4898"/>
<path d="M264.181 291.916H263.312L268.063 249.752C268.564 245.343 266.675 240.926 263.136 238.247L234.901 216.783C231.151 213.938 229.438 209.134 230.536 204.558L233.241 193.036L234.093 193.238L231.388 204.76C230.369 209.002 231.959 213.446 235.428 216.08L263.663 237.544C267.439 240.416 269.459 245.132 268.924 249.848L264.181 291.916Z" fill="#F5ADAB"/>
<path d="M200.843 162.614L193.519 194.256C191.525 196.891 190.208 199.965 189.654 203.214L189.04 206.868C188.899 207.711 189.4 208.536 190.216 208.8C191.051 209.072 191.955 208.677 192.315 207.878L194.133 203.934L193.132 207.676C192.799 208.914 193.563 210.188 194.818 210.477C195.855 210.714 196.917 210.196 197.374 209.239L199.052 205.717L198.402 209.423C198.2 210.574 198.937 211.672 200.079 211.918C201.142 212.146 202.213 211.558 202.582 210.53L203.548 207.834V210.46C203.548 211.487 204.382 212.33 205.419 212.33C206.411 212.33 207.237 211.549 207.281 210.556L207.5 206.262L207.606 207.939C207.781 209.178 209.037 209.959 210.231 209.564C211.127 209.265 211.689 208.387 211.593 207.456L211.479 204.716C211.171 201.695 210.188 196.988 207.895 194.994L207.395 194.564L213.586 175.067C215.018 170.474 218.856 167.04 223.581 166.127L230.975 164.704L244.535 161.331L242.506 146.507L234.181 144.452L209.204 153.269C204.997 154.745 201.853 158.275 200.843 162.614Z" fill="#F9CFCE"/>
<path d="M289.747 178.589L318.948 164.379C322.25 164.265 325.473 163.36 328.345 161.744L331.568 159.926C332.315 159.505 332.64 158.6 332.332 157.801C332.016 156.984 331.138 156.527 330.295 156.747L326.088 157.818L329.627 156.238C330.804 155.711 331.305 154.323 330.743 153.173C330.277 152.215 329.206 151.715 328.169 151.961L324.375 152.874L327.669 151.047C328.688 150.485 329.083 149.212 328.556 148.175C328.064 147.201 326.931 146.744 325.904 147.104L323.199 148.052L325.236 146.401C326.035 145.752 326.158 144.575 325.508 143.776C324.885 143.003 323.761 142.853 322.953 143.442L319.475 145.971L320.713 144.829C321.565 143.907 321.381 142.441 320.327 141.773C319.536 141.264 318.491 141.378 317.824 142.045L315.76 143.863C313.608 146.006 310.57 149.73 310.455 152.76L310.429 153.419L291.371 160.875C286.901 162.658 281.816 161.832 278.136 158.732L272.384 153.884L261.011 145.69L250.981 156.369L254.626 164.133L277.197 178C281.017 180.31 285.742 180.538 289.747 178.589Z" fill="#F9CFCE"/>
<path d="M260.756 197.998L257.56 198.085C249.383 198.323 241.172 196.742 233.636 193.484L226.347 190.331L230.484 171.765L264.884 179.432L260.756 197.998Z" fill="#F9CFCE"/>
<path d="M245.308 142.01L234.172 144.443L238.264 147.526C241.005 149.756 242.006 155.351 241.47 157.177C240.943 158.995 239.187 161.832 237.483 162.658L230.975 164.695L227.778 179.739L241.329 183.674C247.187 185.377 253.238 186.352 259.333 186.572L265.209 186.791L267.65 167.778L267.659 167.734C267.922 165.652 267.984 163.545 267.843 161.446L267.035 149.8L259.324 144.478L245.308 142.01Z" fill="#E74692"/>
<path d="M250.226 130.356L245.308 142.01L245.782 144.478C246.423 147.815 247.758 150.977 249.699 153.761L250.525 154.947C251.385 156.001 252.51 156.817 253.625 157.265C255.021 157.827 256.602 157.669 257.867 156.852L258.271 156.598C259.641 155.711 260.449 154.165 260.396 152.532L259.325 144.478L257.401 143.064L260.493 133.772L255.25 128.529L250.226 130.356Z" fill="#F9CFCE"/>
<path d="M244.535 137.76C248.251 137.76 251.263 134.748 251.263 131.032C251.263 127.317 248.251 124.305 244.535 124.305C240.82 124.305 237.808 127.317 237.808 131.032C237.808 134.748 240.82 137.76 244.535 137.76Z" fill="#FFEC83"/>
<path d="M252.65 131.024C255.245 131.024 257.349 128.92 257.349 126.325C257.349 123.73 255.245 121.626 252.65 121.626C250.055 121.626 247.952 123.73 247.952 126.325C247.952 128.92 250.055 131.024 252.65 131.024Z" fill="#F9CFCE"/>
<path d="M263.856 136.732C258.033 136.732 253.265 131.963 253.265 126.141V118.157C253.265 112.335 258.033 107.566 263.856 107.566C269.679 107.566 274.448 112.335 274.448 118.157V126.141C274.448 131.963 269.679 136.732 263.856 136.732Z" fill="#F9CFCE"/>
<path d="M270.786 107.021C270.048 106.451 262.759 100.918 255.074 102.885C249.436 104.325 244.685 108.769 243.218 114.17C242.717 116.015 242.665 119.738 242.735 120.862" fill="#FFEC83"/>
<path d="M276.476 127.353H272.41C270.979 127.353 269.811 126.184 269.811 124.753C269.811 123.321 270.979 122.153 272.41 122.153H276.476C277.908 122.153 279.076 123.321 279.076 124.753C279.085 126.184 277.908 127.353 276.476 127.353Z" fill="#F9CFCE"/>
<path d="M269.81 123.55V119.729H264.594" stroke="#4F4898" stroke-miterlimit="10" stroke-linecap="round" stroke-linejoin="round"/>
<path d="M269.679 132.472C270.031 131.863 269.948 131.157 269.494 130.895C269.041 130.633 268.388 130.915 268.036 131.524C267.684 132.133 267.767 132.839 268.221 133.101C268.674 133.363 269.327 133.081 269.679 132.472Z" fill="#4F4898" stroke="#4F4898" stroke-miterlimit="10" stroke-linecap="round" stroke-linejoin="round"/>
<path d="M255.364 161.428L257.954 166.671L263.733 167.514L259.553 171.598L260.537 177.359L255.364 174.637L250.191 177.359L251.175 171.598L246.994 167.514L252.773 166.671L255.364 161.428Z" fill="#FFEC83"/>
<path d="M9.91527 264.91V259.254C9.91527 245.993 1.04511 234.005 -12.6641 228.709L-19.084 226.233L3.54808 209.819L8.03585 211.874C23.9231 219.137 34.0315 233.54 34.3741 249.374L34.6639 262.881L9.91527 264.91Z" fill="#8B4B4F"/>
<path d="M9.91504 264.91L10.2576 300.733L35.7087 297.528L34.6724 262.89L9.91504 264.91Z" fill="#FFEC83"/>
<path d="M63.5839 314.214L10.0204 314.443L9.91504 289.887L38.9231 289.764C52.483 289.703 63.5224 300.645 63.5839 314.214Z" fill="#7677B7"/>
<path d="M25.0122 289.817L25.0473 299.934" stroke="#F5ADAB" stroke-miterlimit="10"/>
<path d="M30.7993 289.791L30.8432 299.908" stroke="#F5ADAB" stroke-miterlimit="10"/>
<path d="M36.5869 289.764L36.6308 299.881" stroke="#F5ADAB" stroke-miterlimit="10"/>
<path d="M-23.1503 147.359C-27.1287 154.516 -24.9068 163.105 -20.6473 168.067C-18.9875 170 -17.1783 171.194 -15.9137 171.897L9.94152 189.646C13.5686 192.14 18.2145 192.632 22.2895 190.963C25.7673 189.54 28.4635 186.695 29.6842 183.138L42.2605 146.77L47.3279 134.756C47.7319 133.808 47.4245 132.71 46.599 132.104C45.6066 131.375 44.219 131.586 43.49 132.569L42.9806 133.263L42.9192 131.603C42.884 130.628 42.2956 129.759 41.3998 129.372C40.1791 128.837 38.7476 129.346 38.1328 130.532L37.72 131.322L37.7376 129.566C37.7464 128.74 37.2282 127.994 36.4554 127.713C35.3664 127.317 34.172 127.95 33.8822 129.074L33.5836 130.268L33.1796 128.485C32.9337 127.405 32.0379 126.606 30.9313 126.483C29.5525 126.334 28.2966 127.309 28.1034 128.687L27.4974 132.929L27.3657 130.505C27.3218 129.697 26.6982 129.048 25.899 128.968C25.1525 128.898 24.4587 129.337 24.204 130.04L24.0635 130.426C23.1765 132.912 23.2907 135.652 24.3797 138.058L24.7924 138.963C25.2579 139.982 25.8815 140.921 26.6543 141.738L28.4898 143.688L15.8345 165.608C15.492 166.197 14.7191 166.355 14.1746 165.933L-13.1824 138.568" fill="#8B4B4F"/>
<path d="M24.3975 138.067L24.8102 138.972C25.2757 139.99 25.8992 140.93 26.6721 141.747L28.5076 143.696" stroke="#F5ADAB" stroke-miterlimit="10"/>
<path d="M27.5149 132.929L27.3832 130.505C27.3392 129.697 26.7157 129.048 25.9165 128.969" stroke="#F5ADAB" stroke-miterlimit="10"/>
<path d="M33.5922 130.259L33.1882 128.477C32.9423 127.396 32.0465 126.597 30.9399 126.474" stroke="#F5ADAB" stroke-miterlimit="10"/>
<path d="M37.7378 131.322L37.7554 129.566C37.7642 128.74 37.246 127.994 36.4731 127.713" stroke="#F5ADAB" stroke-miterlimit="10"/>
<path d="M42.9895 133.263L42.928 131.603C42.8929 130.628 42.3045 129.759 41.4087 129.372" stroke="#F5ADAB" stroke-miterlimit="10"/>
<path d="M-23.1503 147.359C-27.1287 154.516 -24.9068 163.105 -20.6473 168.067C-18.9875 170 -17.1783 171.194 -15.9137 171.896L9.94152 189.646C13.5686 192.14 18.2145 192.632 22.2895 190.963C25.7673 189.54 28.4635 186.695 29.6842 183.138L42.2605 146.77L47.3279 134.756C47.7319 133.808 47.4245 132.71 46.599 132.104" stroke="#F5ADAB" stroke-miterlimit="10"/>
<path d="M9.91504 308.989H63.1272" stroke="#F5ADAB" stroke-miterlimit="10"/>
<path d="M9.95898 300.215C11.1446 300.171 12.541 300.303 14.0076 300.847C17.8192 302.261 19.8479 306.573 20.7173 309.024L20.7612 309.138L21.5868 308.839L21.5517 308.734C20.6295 306.143 18.4691 301.568 14.3238 300.031C12.743 299.442 11.2412 299.293 9.95898 299.337V300.215Z" fill="#F5ADAB"/>
<path d="M154.367 348.597L132.859 312.194L110.508 327.493L129.126 353.067C134.571 360.55 136.688 369.947 134.967 379.045L129.144 409.827L150.669 413.902L158.521 372.336C160.066 364.177 158.591 355.746 154.367 348.597Z" fill="#F8B99B"/>
<path d="M91.9688 316.419L131.287 306.415L148.395 336.846L132.587 342.467C124.815 345.233 116.173 343.907 109.586 338.936" fill="#A0CB7D"/>
<path d="M148.404 336.846L132.596 342.467C124.823 345.233 116.181 343.907 109.595 338.936" fill="#A0CB7D"/>
<path d="M148.404 336.846L132.596 342.467C124.823 345.233 116.181 343.907 109.595 338.936" stroke="#FFEC83" stroke-miterlimit="10"/>
<path d="M92.5919 362.614L119.8 330.251L97.9579 314.24L79.998 340.289C74.7462 347.912 66.5786 353.023 57.4274 354.42L26.4609 359.136L29.7631 380.793L71.5845 374.408C79.7785 373.161 87.2522 368.963 92.5919 362.614Z" fill="#F8B99B"/>
<path d="M25.1702 411.672L7.67578 361.902L26.4612 359.136L36.5784 387.907C39.986 397.62 34.8834 408.255 25.1702 411.672Z" fill="#A43E90"/>
<path d="M12.1284 361.244L29.1574 409.687C29.412 409.52 29.6667 409.362 29.9126 409.186L13.0154 361.112L12.1284 361.244Z" fill="#FFEC83"/>
<path d="M26.5312 376.578L32.3452 379.941L29.93 386.177L37.193 390.102C37.1052 389.716 36.9998 389.329 36.8856 388.943L31.0278 385.773L33.4342 379.563L27.6378 376.209L30.2637 369.973L29.8334 368.744L26.5312 376.578Z" fill="#FFEC83"/>
<path d="M84.8814 305.247L67.7471 335.713L83.5553 341.334C91.3276 344.1 99.9694 342.774 106.556 337.803L106.705 340.421C106.969 345.058 110.28 348.948 114.812 349.949L124.182 315.25L84.8814 305.247Z" fill="#6EB74A"/>
<path d="M67.7471 335.713L83.5553 341.334C91.3276 344.1 99.9694 342.774 106.556 337.804L106.705 340.421C106.969 345.058 110.28 348.948 114.812 349.949" stroke="#FFEC83" stroke-miterlimit="10"/>
<path d="M178.29 428.472H125.526L129.144 409.836H159.645C169.938 409.836 178.29 418.179 178.29 428.472Z" fill="#A43E90"/>
<path d="M126.387 424.046H177.737C177.667 423.747 177.596 423.458 177.509 423.168H126.554L126.387 424.046Z" fill="#FFEC83"/>
<path d="M145.628 415.553L150.731 411.189L155.807 415.536L161.92 409.985C161.524 409.942 161.12 409.906 160.725 409.889L155.79 414.368L150.731 410.038L145.646 414.394L140.631 409.845H139.323L145.628 415.553Z" fill="#FFEC83"/>
<path d="M567.786 382.945L594.994 350.582L573.152 334.572L555.201 360.62C549.949 368.243 541.782 373.354 532.631 374.751L501.664 379.467L504.966 401.124L546.788 394.739C554.973 393.492 562.447 389.294 567.786 382.945Z" fill="#F8B99B"/>
<path d="M500.365 432.003L482.861 382.233L501.647 379.467L511.764 408.238C515.18 417.951 510.078 428.586 500.365 432.003Z" fill="#4F4898"/>
<path d="M487.323 381.575L504.352 430.018C504.606 429.851 504.861 429.693 505.107 429.517L488.21 381.443L487.323 381.575Z" fill="#F5ADAB"/>
<path d="M501.726 396.909L507.539 400.272L505.124 406.508L512.387 410.433C512.3 410.047 512.194 409.661 512.08 409.274L506.222 406.104L508.629 399.895L502.832 396.54L505.458 390.304L505.028 389.075L501.726 396.909Z" fill="#F5ADAB"/>
<path d="M137.057 247.477L155.544 263.742L168.691 242.392L168.225 241.4C166.917 238.572 167.066 235.287 168.621 232.591L171.053 228.393C171.466 227.682 172.3 227.322 173.108 227.506C174.118 227.743 174.742 228.745 174.513 229.754L174.074 231.678L175.409 227.524C175.717 226.575 176.7 226.031 177.666 226.277C178.668 226.531 179.265 227.541 179.019 228.543L178.501 230.65L179.432 228.867C179.95 227.875 181.179 227.48 182.172 227.989C183.015 228.42 183.454 229.359 183.234 230.281L182.69 232.635L183.665 231.01C184.236 230.053 185.509 229.79 186.414 230.448C187.099 230.94 187.38 231.827 187.099 232.626L186.264 235.006L187.239 233.338C187.792 232.398 189.013 232.091 189.944 232.661C190.813 233.197 191.121 234.313 190.655 235.217L166.267 282.58C164.308 286.383 160.391 288.772 156.114 288.772C153.366 288.772 150.713 287.779 148.641 285.988L136.951 275.87C133.465 272.849 131.621 268.344 131.998 263.751C132.27 260.44 133.052 257.191 134.317 254.117L137.057 247.477Z" fill="#F8B99B"/>
<path d="M189.953 232.67C190.822 233.206 191.13 234.321 190.664 235.226L166.276 282.589C164.317 286.392 160.4 288.781 156.123 288.781C153.374 288.781 150.722 287.788 148.65 285.997L136.96 275.879C133.474 272.858 131.629 268.353 132.007 263.76C132.279 260.449 133.061 257.199 134.326 254.125" stroke="#4F4898" stroke-miterlimit="10"/>
<path d="M186.423 230.448C187.108 230.94 187.389 231.827 187.108 232.626L186.273 235.006" stroke="#4F4898" stroke-miterlimit="10"/>
<path d="M182.172 228.007C183.015 228.437 183.454 229.377 183.235 230.299L182.69 232.653" stroke="#4F4898" stroke-miterlimit="10"/>
<path d="M177.667 226.285C178.668 226.54 179.265 227.55 179.019 228.551L178.501 230.659" stroke="#4F4898" stroke-miterlimit="10"/>
<path d="M173.1 227.515C174.11 227.752 174.733 228.753 174.505 229.763L174.066 231.687" stroke="#4F4898" stroke-miterlimit="10"/>
<path d="M168.682 242.401L168.217 241.409C166.908 238.581 167.058 235.296 168.612 232.6" stroke="#4F4898" stroke-miterlimit="10"/>
<path d="M106.565 337.804L115.04 312.352" stroke="#FFEC83" stroke-miterlimit="10"/>
<path d="M131.955 242.972L105.432 235.006L81.7021 304.439L138.208 318.816L144.856 247.135L131.955 242.972Z" fill="#6EB74A"/>
<path d="M98.7573 308.708L89.1582 306.336L109.762 236.403L119.238 239.196L98.7573 308.708Z" fill="#FFEC83"/>
<path d="M104.466 234.62L84.486 227.436C81.904 226.514 79.0673 226.558 76.5116 227.55C72.5244 229.096 69.7404 232.749 69.2925 237L54.9334 289.984C54.828 291.002 55.5218 291.925 56.523 292.109C57.6032 292.302 58.622 291.582 58.7976 290.502L59.105 288.596L59.1929 291.117C59.2192 291.96 59.7988 292.689 60.6156 292.899C61.6958 293.18 62.7848 292.478 62.9692 291.38L63.2854 289.509L63.6279 291.898C63.7597 292.829 64.5149 293.549 65.4546 293.646C66.57 293.76 67.5712 292.952 67.6941 291.837L67.9225 289.843L68.2035 291.995C68.3353 293.014 69.2662 293.743 70.2849 293.62C71.2773 293.505 71.9975 292.636 71.936 291.644L71.6725 287.288L71.9624 289.237C72.1117 290.265 73.0601 290.967 74.0877 290.818C74.9044 290.704 75.5543 290.063 75.6773 289.246L76.4238 284.46C76.898 281.386 75.8529 278.268 73.6046 276.108L72.8142 275.344L86.1195 250.683L98.8187 255.487C102.332 256.813 106.284 256.672 109.568 254.863C111.123 254.003 111.843 253.555 112.835 251.359L113.845 247.486C114.442 245.203 114.012 242.77 112.651 240.847C110.64 237.992 107.803 235.814 104.466 234.62Z" fill="#F8B99B"/>
<path d="M74.0879 290.809C74.9046 290.695 75.5545 290.054 75.6775 289.237L76.424 284.451C76.8982 281.377 75.8531 278.259 73.6049 276.099L72.8145 275.335L86.1197 250.674" stroke="#4F4898" stroke-miterlimit="10"/>
<path d="M70.2852 293.611C71.2776 293.497 71.9977 292.627 71.9362 291.635L71.6728 287.279" stroke="#4F4898" stroke-miterlimit="10"/>
<path d="M65.4634 293.637C66.5787 293.751 67.5799 292.943 67.7029 291.828L67.9312 289.834" stroke="#4F4898" stroke-miterlimit="10"/>
<path d="M60.6157 292.891C61.6959 293.172 62.785 292.469 62.9694 291.371L63.2856 289.501" stroke="#4F4898" stroke-miterlimit="10"/>
<path d="M56.5229 292.109C57.6032 292.302 58.6219 291.582 58.7976 290.502L59.105 288.596" stroke="#4F4898" stroke-miterlimit="10"/>
<path d="M159.188 226.408H154.569V215.343C154.569 209.423 149.721 204.576 143.802 204.576H139.744C133.825 204.576 128.977 209.415 128.977 215.343V229.842C128.977 236.324 134.273 241.619 140.754 241.619H143.793C148.456 241.619 152.435 237.597 153.928 233.426H159.179C161.112 233.426 162.692 231.845 162.692 229.913C162.701 227.989 161.12 226.408 159.188 226.408Z" fill="#F8B99B"/>
<path d="M149.545 222.149H144.293" stroke="#4F4898" stroke-width="0.92" stroke-miterlimit="10" stroke-linecap="round"/>
<path d="M149.545 222.149V227.41" stroke="#4F4898" stroke-width="0.92" stroke-miterlimit="10" stroke-linecap="round"/>
<path d="M129.004 228.718L119.457 243.666C118.728 244.807 118.79 246.283 119.607 247.354C121.1 249.322 124.621 250.841 127.151 251.104C127.318 251.122 127.484 251.131 127.651 251.131C129.768 251.157 131.7 249.945 132.587 248.022L138.998 234.119L129.004 228.718Z" fill="#F8B99B"/>
<path d="M131.445 209.95L136.855 210.925C139.296 211.364 141.791 211.435 144.258 211.127L144.75 211.066C145.743 210.943 146.533 211.874 146.252 212.831L146.182 213.059C145.567 215.149 144.153 216.924 142.247 217.986C140.921 218.733 139.806 219.804 139.015 221.113L136.644 225.038C136.038 226.04 134.958 226.663 133.781 226.681C132.156 226.707 130.751 225.574 130.409 223.993L129.618 220.287L127.089 222.044L126.922 221.622C125.666 218.355 125.956 214.702 127.712 211.672C128.477 210.372 129.961 209.678 131.445 209.95Z" fill="#EBEAF6"/>
<path d="M147.113 229.632C150.707 229.632 153.62 226.718 153.62 223.124C153.62 219.53 150.707 216.616 147.113 216.616C143.519 216.616 140.605 219.53 140.605 223.124C140.605 226.718 143.519 229.632 147.113 229.632Z" fill="white" stroke="#4F4898" stroke-miterlimit="10"/>
<path d="M149.545 220.779H144.293" stroke="#4F4898" stroke-width="0.92" stroke-miterlimit="10" stroke-linecap="round"/>
<path d="M149.545 220.779V226.031" stroke="#4F4898" stroke-width="0.92" stroke-miterlimit="10" stroke-linecap="round"/>
<path d="M129.627 229.746C132.44 229.746 134.721 227.465 134.721 224.652C134.721 221.839 132.44 219.558 129.627 219.558C126.814 219.558 124.533 221.839 124.533 224.652C124.533 227.465 126.814 229.746 129.627 229.746Z" fill="#F8B99B"/>
<path d="M127.721 211.672C127.721 211.672 129.144 208.8 131.181 207.105C136.969 202.547 145.066 202.31 151.109 206.525C151.635 206.894 152.11 207.333 152.514 207.816C153.287 208.747 153.734 209.906 153.954 211.092L154.279 212.884H127.106L127.721 211.672Z" fill="#F6A000"/>
<path d="M154.543 212.884H126.914" stroke="#FFEC83" stroke-miterlimit="10"/>
<path d="M127.115 212.884C127.115 212.884 120.994 212.093 118.719 210.205C116.445 208.326 116.629 206.569 117.788 205.164C118.948 203.768 120.643 203.249 122.917 205.129C125.192 207.008 127.115 212.884 127.115 212.884Z" fill="#F6A000"/>
<path d="M127.115 212.884C127.115 212.884 120.994 213.674 118.719 215.562C116.445 217.442 116.629 219.198 117.788 220.603C118.948 222 120.643 222.518 122.917 220.638C125.192 218.759 127.115 212.884 127.115 212.884Z" fill="#F6A000"/>
<path d="M253.607 190.331L252.896 193.984" stroke="#4F4898" stroke-miterlimit="10" stroke-linecap="round" stroke-linejoin="round"/>
<path d="M520.757 340.271C520.757 340.271 521.547 334.15 523.435 331.875C525.315 329.601 527.071 329.785 528.476 330.945C529.882 332.104 530.391 333.799 528.512 336.073C526.632 338.348 520.757 340.271 520.757 340.271Z" stroke="#A0CB7D" stroke-miterlimit="10"/>
<path d="M520.054 340.271C520.054 340.271 519.264 334.15 517.376 331.875C515.496 329.601 513.74 329.785 512.335 330.945C510.93 332.104 510.42 333.799 512.3 336.073C514.179 338.348 520.054 340.271 520.054 340.271Z" stroke="#A0CB7D" stroke-miterlimit="10"/>
<path d="M523.655 349.747L523.181 349.37L524.779 343.995L518.412 345.883L518.017 345.435L520.178 340.359L520.748 340.71L518.895 345.049L524.894 343.275L525.561 343.688L524.042 348.773L529.109 345.883L529.742 346.278L523.655 349.747Z" fill="#A0CB7D"/>
<path d="M506.371 356.703H505.493V355.421C505.493 350.968 501.866 347.341 497.413 347.341H492.706L492.741 346.463H497.422C502.367 346.463 506.38 350.485 506.38 355.421V356.703H506.371Z" fill="#A0CB7D"/>
<path d="M397.971 290.616L378.36 289.896V344.136L397.971 312.449V290.616Z" fill="#EBEAF6"/>
<path d="M378.36 289.896V344.136" stroke="#A0CB7D" stroke-miterlimit="10"/>
<path d="M394.792 318.298C394.792 318.298 400.913 319.088 403.188 320.977C405.463 322.865 405.278 324.612 404.119 326.018C402.96 327.414 401.265 327.932 398.99 326.053C396.715 324.173 394.792 318.298 394.792 318.298Z" stroke="#A0CB7D" stroke-miterlimit="10"/>
<path d="M394.792 317.587C394.792 317.587 400.913 316.796 403.188 314.908C405.463 313.02 405.278 311.272 404.119 309.867C402.96 308.471 401.265 307.952 398.99 309.832C396.715 311.711 394.792 317.587 394.792 317.587Z" stroke="#A0CB7D" stroke-miterlimit="10"/>
<path d="M385.316 321.196L385.702 320.722L391.068 322.32L389.189 315.953L389.628 315.558L394.704 317.718L394.353 318.289L390.014 316.436L391.788 322.434L391.376 323.102L386.3 321.583L389.18 326.65L388.785 327.282L385.316 321.196Z" fill="#A1CB7C"/>
<path d="M378.36 303.913V303.034H379.643C384.095 303.034 387.722 299.407 387.722 294.955V290.247L388.601 290.282V294.963C388.601 299.908 384.578 303.921 379.643 303.921H378.36V303.913Z" fill="#A1CB7C"/>
<path d="M129.627 227.41C128.099 227.41 126.87 226.171 126.87 224.652C126.87 223.133 128.108 221.894 129.627 221.894" stroke="#4F4898" stroke-miterlimit="10" stroke-linecap="round"/>
<path d="M251.737 128.055C250.279 127.598 249.471 126.053 249.919 124.604" stroke="#4F4898" stroke-miterlimit="10" stroke-linecap="round"/>
<path d="M241.409 121.196L252.422 114.056C254.547 112.677 256.822 111.544 259.202 110.675L271.383 106.214L274.053 114.451L260.756 119.554C259.114 120.186 257.524 120.941 255.996 121.82L244.843 128.24L241.409 121.196Z" fill="#E74692"/>
<path d="M490.449 148.843C489.281 148.342 488.745 146.981 489.246 145.813C489.747 144.645 491.108 144.109 492.276 144.61" stroke="#4F4898" stroke-miterlimit="10" stroke-linecap="round"/>
<path d="M148.606 265.13H138.515C135.494 265.13 133.043 262.679 133.043 259.658V238.765C133.043 235.744 135.494 233.294 138.515 233.294H154.077V259.658C154.077 262.679 151.627 265.13 148.606 265.13Z" fill="#EBEAF6"/>
<path d="M141.747 235.006C141.747 235.006 142.888 236.895 145.426 237.228C147.964 237.562 147.964 237.562 147.964 237.562" stroke="#4F4898" stroke-miterlimit="10"/>
<path d="M154.077 233.294V259.658C154.077 262.679 151.627 265.13 148.606 265.13H138.515C135.494 265.13 133.043 262.679 133.043 259.658" stroke="#4F4898" stroke-miterlimit="10"/>
<path d="M98.8189 255.469L81.7021 304.439L138.208 318.816" stroke="#FFEC83" stroke-miterlimit="10"/>
<path d="M270.092 532.306C309.452 532.306 341.36 506.976 341.36 475.73C341.36 444.484 309.452 419.154 270.092 419.154C230.731 419.154 198.823 444.484 198.823 475.73C198.823 506.976 230.731 532.306 270.092 532.306Z" fill="#A1CB7C"/>
<path d="M271.277 447.6V511.79" stroke="#4F4898" stroke-width="0.92" stroke-miterlimit="10" stroke-linecap="round"/>
<path d="M237.975 457.313L271.278 470.698L304.87 457.313" stroke="#4F4898" stroke-width="0.92" stroke-miterlimit="10" stroke-linecap="round"/>
<path d="M219.383 476.995L271.278 493.198L323.77 475.177" stroke="#4F4898" stroke-width="0.92" stroke-miterlimit="10" stroke-linecap="round"/>
<path d="M360.295 378.308V372.652C360.295 359.39 351.425 347.403 337.716 342.107L331.296 339.63L353.928 323.234L358.416 325.289C374.303 332.552 384.411 346.955 384.754 362.789L385.044 376.296L360.295 378.308Z" fill="#F8B99B"/>
<path d="M321.249 362.535L348.456 330.172L326.615 314.161L308.664 340.21C303.412 347.833 295.244 352.944 286.093 354.341L255.126 359.057L258.429 380.714L300.25 374.329C308.444 373.082 315.909 368.893 321.249 362.535Z" fill="#F8B99B"/>
<path d="M332.929 232.635L338.401 221.604L351.882 227.998L347.921 236.587L348.913 237.843L350.485 240.293L351.284 246.748L339.323 241.742L332.929 232.635Z" fill="#F8B99B"/>
<path d="M350.942 230.308C342.924 230.308 336.363 223.747 336.363 215.729V212.594C336.363 204.576 342.924 198.015 350.942 198.015C358.96 198.015 365.521 204.576 365.521 212.594V215.729C365.529 223.747 358.96 230.308 350.942 230.308Z" fill="#F8B99B"/>
<path d="M313.951 314.767L286.339 351.636L326.237 370.228L348.5 325.376L313.951 314.767Z" fill="#F6A000"/>
<path d="M307.627 310.438C305.423 324.63 312.132 338.717 324.542 345.954L347.35 359.25L373.099 325.385L359.741 318.307L307.627 310.438Z" fill="#E94B60"/>
<path d="M342.774 254.626C338.796 261.784 341.018 270.373 345.277 275.335C346.937 277.267 348.746 278.461 350.011 279.164L375.866 296.913C379.493 299.407 384.139 299.899 388.214 298.23C391.692 296.808 394.388 293.962 395.609 290.405L408.194 254.046L413.261 242.032C413.665 241.084 413.358 239.986 412.532 239.38C411.54 238.651 410.152 238.862 409.423 239.845L408.914 240.539L408.852 238.879C408.817 237.905 408.229 237.035 407.333 236.649C406.112 236.113 404.681 236.622 404.066 237.808L403.653 238.598L403.671 236.842C403.679 236.016 403.161 235.27 402.388 234.989C401.299 234.594 400.105 235.226 399.815 236.35L399.517 237.544L399.113 235.762C398.867 234.681 397.971 233.882 396.864 233.759C395.486 233.61 394.23 234.585 394.036 235.964L393.431 240.205L393.299 237.782C393.255 236.974 392.631 236.324 391.832 236.245C391.086 236.174 390.392 236.614 390.137 237.316L389.997 237.703C389.11 240.188 389.224 242.928 390.313 245.334L390.726 246.239C391.191 247.258 391.815 248.197 392.587 249.014L394.423 250.964L381.75 272.876C381.407 273.464 380.635 273.622 380.09 273.201L352.733 245.835" fill="#F8B99B"/>
<path d="M391.841 236.236C391.095 236.166 390.401 236.605 390.146 237.307L390.006 237.694C389.119 240.179 389.233 242.919 390.322 245.326L390.735 246.23C391.2 247.249 391.824 248.189 392.597 249.005L394.432 250.955" stroke="#4F4898" stroke-miterlimit="10"/>
<path d="M396.873 233.75C395.495 233.601 394.239 234.576 394.045 235.955L393.439 240.197" stroke="#4F4898" stroke-miterlimit="10"/>
<path d="M402.38 234.971C401.291 234.576 400.096 235.208 399.806 236.332L399.508 237.527" stroke="#4F4898" stroke-miterlimit="10"/>
<path d="M407.324 236.64C406.104 236.104 404.672 236.614 404.057 237.799L403.645 238.59" stroke="#4F4898" stroke-miterlimit="10"/>
<path d="M412.532 239.371C411.54 238.642 410.152 238.853 409.423 239.837L408.914 240.53" stroke="#4F4898" stroke-miterlimit="10"/>
<path d="M342.774 254.626C338.796 261.784 341.018 270.373 345.277 275.335C346.937 277.267 348.746 278.461 350.011 279.164L375.866 296.913C379.493 299.407 384.139 299.899 388.214 298.23C391.692 296.808 394.388 293.962 395.609 290.405L408.194 254.046" stroke="#4F4898" stroke-miterlimit="10"/>
<path d="M319.088 237.018L332.929 232.635C335.564 236.262 338.111 238.941 340.052 240.794C342.054 242.7 343.855 244.131 346.296 244.324C346.963 244.377 348.421 244.491 349.308 243.587C350.406 242.471 350.31 240.109 348.869 237.782L348.913 237.843C353.111 244.07 356.123 251.008 357.818 258.315L358.714 262.179C360.567 270.215 361.34 278.461 361.015 286.699L359.751 318.298L307.636 310.429L319.088 237.018Z" fill="#FFEC83"/>
<path d="M321.231 260.853C321.205 261.872 321.214 265.446 323.699 267.65C327.124 270.671 332.903 269.012 335.95 266.825C341.747 262.671 343.099 252.791 339.244 245.721C335.327 238.528 326.87 235.814 320.406 236.763C317.885 237.132 315.909 238.019 314.645 238.721L285.821 251.078C281.772 252.817 278.874 256.47 278.101 260.809C277.443 264.506 278.409 268.309 280.754 271.242L304.764 301.322L312.203 312.027C312.791 312.871 313.88 313.204 314.838 312.835C315.979 312.387 316.55 311.105 316.102 309.955L315.795 309.156L317.227 309.99C318.07 310.482 319.124 310.447 319.932 309.902C321.038 309.156 321.372 307.68 320.696 306.521L320.248 305.757L321.723 306.705C322.417 307.153 323.321 307.118 323.98 306.609C324.902 305.897 325.008 304.554 324.2 303.711L323.357 302.823L325.078 303.438C326.123 303.807 327.282 303.473 327.967 302.613C328.828 301.524 328.679 299.943 327.616 299.047L324.358 296.263L326.474 297.449C327.177 297.844 328.064 297.668 328.556 297.027C329.012 296.439 329.012 295.613 328.556 295.025L328.301 294.7C326.676 292.618 324.296 291.248 321.679 290.888L320.696 290.748C319.589 290.59 318.456 290.625 317.358 290.836L314.724 291.345L302.982 268.915C302.665 268.318 302.955 267.571 303.588 267.334L321.231 260.853Z" fill="#F8B99B"/>
<path d="M312.203 312.019C312.791 312.862 313.88 313.195 314.838 312.827C315.391 312.616 315.804 312.203 316.032 311.711L311.509 311.026L312.203 312.019Z" fill="#F8B99B"/>
<path d="M367.558 217.67H363.492C362.06 217.67 360.892 216.502 360.892 215.07C360.892 213.639 362.06 212.471 363.492 212.471H367.558C368.989 212.471 370.157 213.639 370.157 215.07C370.157 216.493 368.989 217.67 367.558 217.67Z" fill="#F8B99B"/>
<path d="M342.071 221.947L338.796 223.405C337.724 223.888 336.521 223.993 335.379 223.712L332.244 222.957C330.523 222.465 329.302 220.946 329.17 219.172L329.161 219.084C329.012 217.003 330.338 215.123 332.332 214.561C332.692 214.464 332.92 214.394 332.92 214.394L331.814 213.604C329.478 211.935 328.353 209.037 328.959 206.227C329.434 204.022 331.383 202.441 333.64 202.441L333.403 201.475C332.815 199.104 333.684 196.601 335.625 195.108C337.9 193.343 341.097 193.387 343.327 195.214L343.591 195.433L344.592 193.642C345.479 192.052 347.227 191.147 349.036 191.332C351.1 191.543 352.751 193.115 353.076 195.161L353.199 195.96L354.244 195.161C356.009 193.817 358.389 193.633 360.339 194.695C362.455 195.846 363.606 198.226 363.184 200.597L362.613 203.864L359.531 204.778C357.827 205.278 356.395 206.437 355.535 207.983C355.113 208.738 354.411 209.3 353.576 209.546C351.969 210.012 350.775 211.364 350.52 213.015L349.87 217.187L346.998 214.912C345.54 213.762 343.468 213.85 342.115 215.123C340.491 216.651 340.552 219.26 342.247 220.709C342.66 221.069 342.563 221.727 342.071 221.947Z" fill="#E94B60"/>
<path d="M361.445 211.215H356.316" stroke="#4F4898" stroke-width="0.92" stroke-miterlimit="10" stroke-linecap="round"/>
<path d="M361.445 211.215V215.817" stroke="#4F4898" stroke-width="0.92" stroke-miterlimit="10" stroke-linecap="round"/>
<path d="M350.775 220.577C350.863 220.999 351.355 223.045 353.48 224.266C355.5 225.434 358.205 225.39 360.409 224.16" stroke="#4F4898" stroke-width="0.92" stroke-miterlimit="10" stroke-linecap="round"/>
<path d="M360.295 378.308L360.637 414.139L386.089 410.925L385.052 376.288L360.295 378.308Z" fill="#FFEC83"/>
<path d="M284.89 354.525L255.118 359.057L258.42 380.714L290.186 375.866L284.89 354.525Z" fill="#FFEC83"/>
<path d="M413.964 427.612L360.4 427.84L360.295 403.285L389.303 403.162C402.863 403.1 413.902 414.052 413.964 427.612Z" fill="#E94B60"/>
<path d="M413.964 427.612L360.4 427.84Z" fill="#E94B60"/>
<path d="M413.964 427.612L360.4 427.84" stroke="#F6A000" stroke-miterlimit="10"/>
<path d="M375.392 403.223L375.427 413.34" stroke="#FFEC83" stroke-miterlimit="10"/>
<path d="M381.179 403.197L381.223 413.314" stroke="#FFEC83" stroke-miterlimit="10"/>
<path d="M386.967 403.17L387.011 413.288" stroke="#FFEC83" stroke-miterlimit="10"/>
<path d="M236.965 411.742L236.71 358.179L261.265 358.064L261.406 387.072C261.476 400.623 250.533 411.672 236.965 411.742Z" fill="#E94B60"/>
<path d="M236.965 411.742L236.71 358.179Z" fill="#E94B60"/>
<path d="M236.965 411.742L236.71 358.179" stroke="#F6A000" stroke-miterlimit="10"/>
<path d="M261.344 373.152L251.227 373.196" stroke="#FFEC83" stroke-miterlimit="10"/>
<path d="M261.371 378.94L251.253 378.993" stroke="#FFEC83" stroke-miterlimit="10"/>
<path d="M261.397 384.736L251.28 384.78" stroke="#FFEC83" stroke-miterlimit="10"/>
<path d="M335.661 267.027C332.56 269.099 327.08 270.575 323.752 267.694L320.274 290.704C320.414 290.721 320.555 290.721 320.695 290.748L321.679 290.888C324.296 291.248 326.667 292.618 328.301 294.7L328.556 295.025C329.012 295.613 329.021 296.439 328.556 297.027C328.064 297.659 327.177 297.844 326.474 297.449L324.358 296.263L327.616 299.047C328.679 299.952 328.828 301.524 327.967 302.613C327.282 303.482 326.123 303.807 325.078 303.438L323.356 302.823L324.2 303.71C324.999 304.554 324.893 305.897 323.98 306.609C323.321 307.118 322.426 307.153 321.723 306.705L320.248 305.757L320.695 306.521C321.372 307.671 321.029 309.147 319.931 309.902C319.159 310.429 318.175 310.464 317.349 310.043L317.068 311.869L328.617 313.608L335.661 267.027Z" fill="#F6A000"/>
<path d="M323.708 267.65C327.133 270.671 332.911 269.012 335.959 266.825C341.755 262.671 343.108 252.791 339.252 245.721" stroke="#4F4898" stroke-miterlimit="10"/>
<path d="M324.358 296.245L326.474 297.431C327.177 297.826 328.064 297.651 328.556 297.01C329.012 296.421 329.012 295.596 328.556 295.007L328.301 294.682C326.676 292.601 324.296 291.231 321.679 290.871L320.696 290.73C319.589 290.572 318.456 290.607 317.358 290.818L314.724 291.327L305.704 274.096" stroke="#4F4898" stroke-miterlimit="10"/>
<path d="M323.356 302.815L325.078 303.429C326.123 303.798 327.282 303.465 327.967 302.604" stroke="#4F4898" stroke-miterlimit="10"/>
<path d="M320.256 305.748L321.732 306.696C322.426 307.144 323.33 307.109 323.989 306.6" stroke="#4F4898" stroke-miterlimit="10"/>
<path d="M315.795 309.147L317.226 309.981C318.07 310.473 319.123 310.438 319.931 309.893" stroke="#4F4898" stroke-miterlimit="10"/>
<path d="M304.764 301.313L312.203 312.019C312.791 312.862 313.88 313.195 314.837 312.827" stroke="#4F4898" stroke-miterlimit="10"/>
<path d="M344.794 219.787C343.723 219.593 343.002 218.566 343.204 217.486C343.398 216.414 344.425 215.694 345.505 215.896" fill="#F8B99B"/>
<path d="M344.794 219.787C343.723 219.593 343.002 218.566 343.204 217.486C343.398 216.414 344.425 215.694 345.505 215.896" stroke="#4F4898" stroke-miterlimit="10" stroke-linecap="round"/>
<path d="M356.967 346.595L331.515 330.76C326.123 327.405 322.909 321.618 322.909 315.268V312.748L323.787 312.879V315.268C323.787 321.31 326.852 326.826 331.981 330.014L357.502 345.892L356.967 346.595Z" fill="#F5ADAB"/>
<path d="M571.238 453.142C571.238 482.475 538.076 506.249 497.168 506.249C456.26 506.249 423.098 482.466 423.098 453.142C423.098 423.809 456.26 400.035 497.168 400.035C538.067 400.026 571.238 423.809 571.238 453.142Z" fill="#6EB74A"/>
<path d="M497.159 527.985V421.13" stroke="#4F4898" stroke-width="0.92" stroke-miterlimit="10"/>
<path d="M522.848 433.724L497.159 459.878L474.167 437.184" stroke="#4F4898" stroke-width="0.92" stroke-miterlimit="10"/>
<path d="M444.36 451.456L497.159 489.606L545.032 463.575" stroke="#4F4898" stroke-width="0.92" stroke-miterlimit="10"/>
</g>
<defs>
<clipPath id="clip0_501_3015">
<rect width="563" height="512" fill="white"/>
</clipPath>
</defs>
</svg>
