<svg width="563" height="521" viewBox="0 0 563 521" fill="none" xmlns="http://www.w3.org/2000/svg">
<g clip-path="url(#clip0_501_1807)">
<path d="M184.692 92.1335C184.692 136.019 149.115 171.596 105.23 171.596C61.3445 171.596 25.7673 136.019 25.7673 92.1335C25.7673 48.2482 61.3445 12.671 105.23 12.671C149.115 12.671 184.692 48.2482 184.692 92.1335Z" fill="#CDE3BB"/>
<path d="M105.23 184.822V92.1335L136.179 61.1758" stroke="#4F4898" stroke-miterlimit="10"/>
<path d="M75.0977 45.0163L105.23 92.1335V28.8393" stroke="#4F4898" stroke-miterlimit="10"/>
<path d="M66.8423 84.2031L105.23 111.604L144.557 92.1335" stroke="#4F4898" stroke-miterlimit="10"/>
<path d="M328.301 96.8057L245.773 282.236" stroke="#4F4898" stroke-miterlimit="10" stroke-linecap="round"/>
<path d="M292.926 176.786H343.196" stroke="#4F4898" stroke-miterlimit="10" stroke-linecap="round"/>
<path d="M316.559 124.066H366.82" stroke="#4F4898" stroke-miterlimit="10" stroke-linecap="round"/>
<path d="M304.738 150.431H355.008" stroke="#4F4898" stroke-miterlimit="10" stroke-linecap="round"/>
<path d="M314.996 139.786H68.1509V180.185H314.996V139.786Z" fill="white"/>
<path d="M563 282.429H-0.114258V520.799H563V282.429Z" fill="#EBEAF6"/>
<path d="M563 282.429H-0.114258V522.582H563V282.429Z" stroke="#4F4898" stroke-width="0.971" stroke-miterlimit="10"/>
<path d="M393.062 18.3883C393.062 23.9739 397.594 28.5055 403.179 28.5055C408.765 28.5055 413.288 23.9739 413.288 18.3883C413.288 12.8027 408.765 8.27106 403.179 8.27106C397.594 8.27984 393.062 12.8027 393.062 18.3883Z" fill="#E94B60"/>
<path d="M391.288 32.5805C391.288 38.8863 396.399 43.9976 402.696 43.9976C408.993 43.9976 414.104 38.8863 414.104 32.5805C414.104 26.2748 408.993 21.1723 402.696 21.1723C396.399 21.1723 391.288 26.2748 391.288 32.5805Z" fill="#E94B60"/>
<path d="M444.105 18.3883C444.105 23.9739 439.573 28.5055 433.988 28.5055C428.402 28.5055 423.879 23.9739 423.879 18.3883C423.879 12.8027 428.402 8.27106 433.988 8.27106C439.573 8.27984 444.105 12.8027 444.105 18.3883Z" fill="#E94B60"/>
<path d="M445.879 32.5805C445.879 38.8863 440.767 43.9976 434.462 43.9976C428.156 43.9976 423.053 38.8863 423.053 32.5805C423.053 26.2748 428.165 21.1723 434.462 21.1723C440.759 21.1723 445.879 26.2748 445.879 32.5805Z" fill="#E94B60"/>
<path d="M428.033 15.4814C427.7 15.4814 427.375 15.5341 427.067 15.6219V15.0598C427.067 10.3788 423.238 6.54094 418.548 6.54094C413.867 6.54094 410.029 10.37 410.029 15.0598V15.6043C409.74 15.5253 409.441 15.4726 409.125 15.4726C407.281 15.4726 405.788 16.9656 405.788 18.8099C405.788 20.6541 407.281 22.1471 409.125 22.1471C409.441 22.1471 409.74 22.1032 410.029 22.0154V23.5787C410.029 28.2596 413.859 32.0975 418.548 32.0975C423.229 32.0975 427.067 28.2684 427.067 23.5787V21.9978C427.375 22.0944 427.7 22.1384 428.033 22.1384C429.878 22.1384 431.371 20.6454 431.371 18.8011C431.371 16.9744 429.878 15.4814 428.033 15.4814Z" fill="#F8B99B"/>
<path d="M433.241 7.97246C433.241 12.4163 429.64 16.0171 425.196 16.0171C420.753 16.0171 417.152 12.4163 417.152 7.97246C417.152 3.5286 420.753 -0.0721588 425.196 -0.0721588C429.64 -0.0721588 433.241 3.5286 433.241 7.97246Z" fill="#E94B60"/>
<path d="M403.926 7.97246C403.926 12.4163 407.527 16.0171 411.97 16.0171C416.414 16.0171 420.015 12.4163 420.015 7.97246C420.015 3.5286 416.414 -0.0721588 411.97 -0.0721588C407.527 -0.0721588 403.926 3.5286 403.926 7.97246Z" fill="#E94B60"/>
<path d="M422.5 24.1758C422.5 25.6688 421.139 26.8808 418.583 26.8808C415.887 26.8808 414.667 25.6688 414.667 24.1758" stroke="#4F4898" stroke-width="0.92" stroke-miterlimit="10" stroke-linecap="round"/>
<path d="M416.107 17.7121H413.235" stroke="#4F4898" stroke-width="0.92" stroke-miterlimit="10" stroke-linecap="round"/>
<path d="M413.235 20.5839V17.7121" stroke="#4F4898" stroke-width="0.92" stroke-miterlimit="10" stroke-linecap="round"/>
<path d="M421.095 20.5839V17.7121" stroke="#4F4898" stroke-width="0.92" stroke-miterlimit="10" stroke-linecap="round"/>
<path d="M423.967 17.7121H421.095" stroke="#4F4898" stroke-width="0.92" stroke-miterlimit="10" stroke-linecap="round"/>
<path d="M328.301 96.8057H508.76" stroke="#4F4898" stroke-miterlimit="10" stroke-linecap="round"/>
<path d="M379.089 97.7015L296.966 282.236" stroke="#4F4898" stroke-miterlimit="10" stroke-linecap="round"/>
<path d="M281.114 203.151H331.384" stroke="#4F4898" stroke-miterlimit="10" stroke-linecap="round"/>
<path d="M269.301 229.516H319.571" stroke="#4F4898" stroke-miterlimit="10" stroke-linecap="round"/>
<path d="M257.48 255.871H307.75" stroke="#4F4898" stroke-miterlimit="10" stroke-linecap="round"/>
<path d="M508.76 96.8057L591.13 282.236" stroke="#4F4898" stroke-miterlimit="10" stroke-linecap="round"/>
<path d="M457.814 97.7015L539.938 282.236" stroke="#4F4898" stroke-miterlimit="10" stroke-linecap="square"/>
<path d="M543.978 176.786H493.708" stroke="#4F4898" stroke-miterlimit="10"/>
<path d="M520.871 124.066H469.547" stroke="#4F4898" stroke-miterlimit="10"/>
<path d="M532.578 150.431H481.281" stroke="#4F4898" stroke-miterlimit="10"/>
<path d="M555.93 203.151H504.8" stroke="#4F4898" stroke-miterlimit="10"/>
<path d="M567.602 229.516H516.471" stroke="#4F4898" stroke-miterlimit="10"/>
<path d="M579.423 255.871H528.204" stroke="#4F4898" stroke-miterlimit="10"/>
<path d="M444.772 176.786L396.118 282.236" stroke="#4F4898" stroke-miterlimit="10" stroke-linecap="square"/>
<path d="M493.014 176.786L445.51 282.236" stroke="#4F4898" stroke-miterlimit="10" stroke-linecap="square"/>
<path d="M444.772 176.786H493.54" stroke="#4F4898" stroke-miterlimit="10"/>
<path d="M432.969 203.151H481.193" stroke="#4F4898" stroke-miterlimit="10"/>
<path d="M420.445 229.516H469.258" stroke="#4F4898" stroke-miterlimit="10"/>
<path d="M408.545 255.871H457.384" stroke="#4F4898" stroke-miterlimit="10"/>
<path d="M74.8518 281.718V522.582" stroke="#4F4898" stroke-width="0.92" stroke-miterlimit="10"/>
<path d="M36.2886 282.429V522.582" stroke="#4F4898" stroke-width="0.92" stroke-miterlimit="10"/>
<path d="M68.1509 239.141V282.429" stroke="#4F4898" stroke-width="0.92" stroke-miterlimit="10"/>
<path d="M113.424 281.718V522.582" stroke="#4F4898" stroke-width="0.92" stroke-miterlimit="10"/>
<path d="M205.287 139.786V179.834" stroke="#4F4898" stroke-width="0.92" stroke-miterlimit="10"/>
<path d="M216.73 139.786V179.834" stroke="#4F4898" stroke-width="0.92" stroke-miterlimit="10"/>
<path d="M151.996 282.429V522.582" stroke="#4F4898" stroke-width="0.92" stroke-miterlimit="10"/>
<path d="M190.568 282.429V522.582" stroke="#4F4898" stroke-width="0.92" stroke-miterlimit="10"/>
<path d="M229.131 281.718V522.582" stroke="#4F4898" stroke-width="0.92" stroke-miterlimit="10"/>
<path d="M267.703 281.718V522.582" stroke="#4F4898" stroke-width="0.92" stroke-miterlimit="10"/>
<path d="M306.275 281.718V522.582" stroke="#4F4898" stroke-width="0.92" stroke-miterlimit="10"/>
<path d="M344.847 282.429V522.582" stroke="#4F4898" stroke-width="0.92" stroke-miterlimit="10"/>
<path d="M383.41 282.429V522.582" stroke="#4F4898" stroke-width="0.92" stroke-miterlimit="10"/>
<path d="M421.982 282.429V522.582" stroke="#4F4898" stroke-width="0.92" stroke-miterlimit="10"/>
<path d="M460.554 282.429V522.582" stroke="#4F4898" stroke-width="0.92" stroke-miterlimit="10"/>
<path d="M499.126 282.429V522.582" stroke="#4F4898" stroke-width="0.92" stroke-miterlimit="10"/>
<path d="M536.442 282.429V522.582" stroke="#4F4898" stroke-width="0.92" stroke-miterlimit="10"/>
<path d="M535.125 282.429H-0.114258" stroke="#4F4898" stroke-width="0.971" stroke-miterlimit="10"/>
<path d="M563 320.992H-0.114258" stroke="#4F4898" stroke-width="0.971" stroke-miterlimit="10"/>
<path d="M563 359.564H-0.114258" stroke="#4F4898" stroke-width="0.971" stroke-miterlimit="10"/>
<path d="M563 398.136H-0.114258" stroke="#4F4898" stroke-width="0.971" stroke-miterlimit="10"/>
<path d="M563 436.708H-0.114258" stroke="#4F4898" stroke-width="0.971" stroke-miterlimit="10"/>
<path d="M563 475.271H-0.114258" stroke="#4F4898" stroke-width="0.971" stroke-miterlimit="10"/>
<path d="M563 512.579H-0.114258" stroke="#4F4898" stroke-width="0.971" stroke-miterlimit="10"/>
<path d="M321.846 243.55H313.696V269.774H321.846V243.55Z" fill="#FFED00"/>
<path d="M314.996 139.786H68.1509V180.185H314.996V139.786Z" stroke="#4F4898" stroke-width="0.971" stroke-miterlimit="10"/>
<path d="M314.996 179.834H68.1509V243.55H314.996V179.834Z" fill="#FFEC83"/>
<path d="M314.996 179.834H68.1509V243.55H314.996V179.834Z" stroke="#4F4898" stroke-width="0.971" stroke-miterlimit="10"/>
<path d="M288.013 247.333C289.314 241.824 285.903 236.304 280.394 235.003C274.885 233.703 269.365 237.114 268.064 242.622C266.764 248.131 270.175 253.651 275.684 254.952C281.192 256.253 286.712 252.842 288.013 247.333Z" stroke="#F6B9D5" stroke-width="8.284" stroke-miterlimit="10"/>
<path d="M113.872 204.468C113.872 181.459 106.503 115.67 150.108 115.67C199.377 115.67 198.2 181.459 198.2 204.468" fill="#D4B0D4"/>
<path d="M222.277 290.186L188.078 317.532L200.835 333.486L235.034 306.14L222.277 290.186Z" fill="#F6A000"/>
<path d="M389.646 293.653C384.157 293.161 380.09 288.392 380.09 288.392C380.09 288.392 384.938 284.423 390.427 284.914C395.925 285.406 399.982 290.175 399.982 290.175C399.982 290.175 395.134 294.145 389.646 293.653Z" fill="#6EB74A"/>
<path d="M387.711 277.316L377.865 288.715L380.125 290.667L389.971 279.268L387.711 277.316Z" fill="#6EB74A"/>
<path d="M270.987 275.877L232.17 302.567C221.429 309.953 206.736 307.23 199.35 296.49C191.964 285.749 194.687 271.056 205.427 263.67L244.236 236.989C254.977 229.603 269.67 232.326 277.056 243.067C284.451 253.799 281.728 268.491 270.987 275.877Z" fill="#E94591"/>
<path d="M232.284 301.179L227.129 304.842C221.49 308.846 217.152 314.405 214.649 320.843L213.92 322.705H275.098L296.017 308.284L320.625 276.598L318.351 268.325L281.561 268.087L232.284 301.179Z" fill="#F6B9D5"/>
<path d="M337.847 264.706L320.195 276.598L317.358 264.706L337.847 255.546V264.706Z" fill="#F8B99B"/>
<path d="M369.894 283.474C369.218 285.714 367.145 287.347 364.686 287.347C364.686 290.351 362.254 292.792 359.25 292.792C358.776 292.792 358.31 292.722 357.871 292.608C357.072 294.083 355.614 295.146 353.902 295.409C353.471 296.885 353.225 298.448 353.225 300.064C353.225 309.224 360.646 316.645 369.806 316.645C378.966 316.645 386.387 309.224 386.387 300.064C386.387 290.922 379.01 283.527 369.894 283.474Z" fill="#E94B60"/>
<path d="M369.806 316.636C378.966 316.636 386.387 309.215 386.387 300.055" stroke="#FDD08F" stroke-miterlimit="10"/>
<path d="M260.616 344.441L239.143 325.199L208.036 359.916H148.544V388.748L208.378 388.809C216.318 388.818 223.879 385.446 229.175 379.526L260.616 344.441Z" fill="#E94B60"/>
<path d="M213.929 322.705V331.909C213.929 342.57 222.43 351.212 232.907 351.212H273.947L229.904 400.367H269.099L308.075 356.745C312.423 352.679 314.89 346.944 314.89 340.946C314.89 329.081 305.432 322.705 293.769 322.705H213.929V322.705Z" fill="#E94B60"/>
<path d="M354.077 309.162L362.78 300.714C363.544 299.976 364.739 299.906 365.573 300.564C366.557 301.329 366.671 302.778 365.819 303.691L363.913 305.746L372.292 299.194C373.46 298.307 375.155 298.905 375.515 300.327C375.699 301.039 375.48 301.794 374.953 302.312L369.253 306.176L374.522 303.155C375.532 302.409 376.981 302.909 377.306 304.121C377.491 304.806 377.254 305.544 376.692 305.983L370.895 309.927L374.926 307.792C376.253 307.09 377.833 308.126 377.719 309.619C377.675 310.225 377.342 310.778 376.823 311.095L370.298 315.6L373.407 313.694C373.872 313.413 374.61 313.343 375.032 313.439C376.507 313.791 376.867 314.968 376.112 316.285C376.024 316.443 375.866 316.619 375.708 316.786C375.322 317.181 374.865 317.488 374.356 317.708L354.086 326.674V309.162H354.077Z" fill="#F8B99B"/>
<path d="M199.297 446.053C199.297 450.584 195.618 454.264 191.086 454.264C186.554 454.264 182.875 450.593 182.875 446.053C182.875 441.521 186.546 437.841 191.086 437.841C195.626 437.841 199.297 441.521 199.297 446.053Z" fill="#4F4898"/>
<path d="M191.086 450.962C193.797 450.962 195.995 448.764 195.995 446.053C195.995 443.341 193.797 441.143 191.086 441.143C188.374 441.143 186.177 443.341 186.177 446.053C186.177 448.764 188.374 450.962 191.086 450.962Z" stroke="#FFEC83" stroke-width="0.92" stroke-miterlimit="10" stroke-linecap="round"/>
<path d="M296.948 307.143L320.617 277.116C324.103 273.269 321.381 267.104 316.182 267.104C316.182 267.104 305.546 263.521 301.752 267.71L273.368 302.927C270.909 305.641 269.547 309.171 269.547 312.833C269.547 320.975 276.143 327.57 284.284 327.57H355.842V307.143H296.948Z" fill="#F6A000"/>
<path d="M222.351 446.053C222.351 450.584 218.671 454.264 214.139 454.264C209.608 454.264 205.928 450.593 205.928 446.053C205.928 441.521 209.599 437.841 214.139 437.841C218.68 437.841 222.351 441.521 222.351 446.053Z" fill="#4F4898"/>
<path d="M214.219 450.962C216.93 450.962 219.128 448.764 219.128 446.053C219.128 443.341 216.93 441.143 214.219 441.143C211.507 441.143 209.309 443.341 209.309 446.053C209.309 448.764 211.507 450.962 214.219 450.962Z" stroke="#FFEC83" stroke-width="0.92" stroke-miterlimit="10" stroke-linecap="round"/>
<path d="M301.225 446.053C301.225 450.584 297.545 454.264 293.014 454.264C288.482 454.264 284.802 450.593 284.802 446.053C284.802 441.521 288.473 437.841 293.014 437.841C297.554 437.841 301.225 441.521 301.225 446.053Z" fill="#4F4898"/>
<path d="M293.005 450.962C295.716 450.962 297.914 448.764 297.914 446.053C297.914 443.341 295.716 441.143 293.005 441.143C290.293 441.143 288.095 443.341 288.095 446.053C288.095 448.764 290.293 450.962 293.005 450.962Z" stroke="#FFEC83" stroke-width="0.92" stroke-miterlimit="10" stroke-linecap="round"/>
<path d="M324.287 446.053C324.287 450.584 320.608 454.264 316.076 454.264C311.544 454.264 307.865 450.593 307.865 446.053C307.865 441.521 311.536 437.841 316.076 437.841C320.608 437.841 324.287 441.521 324.287 446.053Z" fill="#4F4898"/>
<path d="M316.137 450.962C318.849 450.962 321.047 448.764 321.047 446.053C321.047 443.341 318.849 441.143 316.137 441.143C313.426 441.143 311.228 443.341 311.228 446.053C311.228 448.764 313.426 450.962 316.137 450.962Z" stroke="#FFEC83" stroke-width="0.92" stroke-miterlimit="10" stroke-linecap="round"/>
<path d="M148.544 364.026H132.508V417.747L148.544 385.736V364.026Z" fill="#F5ADAB"/>
<path d="M321.161 442.821H185.992C177.061 442.821 169.824 435.584 169.824 426.652C169.824 417.721 177.061 410.484 185.992 410.484H321.161C330.093 410.484 337.329 417.721 337.329 426.652C337.329 435.575 330.093 442.821 321.161 442.821Z" fill="#A43E90"/>
<path d="M236.315 400.367V416.395H290.036L258.025 400.367H236.315Z" fill="#F5ADAB"/>
<path d="M358.012 256.495H354.332V247.669C354.332 242.944 350.468 239.088 345.751 239.088H342.52C337.803 239.088 333.939 242.952 333.939 247.669V259.235C333.939 264.399 338.164 268.623 343.328 268.623H345.751C349.466 268.623 352.646 265.418 353.831 262.089H358.02C359.557 262.089 360.822 260.833 360.822 259.288C360.822 257.742 359.557 256.495 358.012 256.495Z" fill="#F8B99B"/>
<path d="M350.222 240.028C352.198 241.635 353.375 243.444 353.84 244.823C347.236 250.734 340.14 256.425 331.981 262.151C296.298 287.198 231.458 312.596 216.634 300.81C213.402 298.237 213.446 295.067 213.753 291.765C215.044 277.669 245.528 263.117 274.729 254.519C297.396 247.844 308.734 244.516 315.25 242.065C319.282 240.546 321.828 239.826 326.922 238.394C334.721 236.199 336.943 236.067 338.857 236.164C341.158 236.269 345.971 236.568 350.222 240.028Z" fill="#4F4898"/>
<path d="M189.154 318.849L171.247 322.951C170.14 323.205 169.437 324.286 169.666 325.401C169.894 326.534 170.983 327.263 172.116 327.043L181.531 325.199L172.336 327.728C171.422 327.983 170.86 328.896 171.062 329.819C171.273 330.811 172.265 331.434 173.249 331.189L182.26 328.905L173.776 332.067C172.705 332.462 172.16 333.648 172.546 334.719C172.924 335.764 174.048 336.326 175.111 335.992L186.783 332.383L175.26 336.976C174.356 337.336 173.908 338.364 174.25 339.277L174.277 339.347C174.628 340.269 175.664 340.735 176.586 340.384L193.887 333.762L189.892 340.753C189.268 341.842 189.733 343.238 190.893 343.73C191.832 344.125 192.921 343.8 193.475 342.939L200.167 332.646L189.154 318.849Z" fill="#F8B99B"/>
<path d="M341.606 261.633C341.676 262.01 342.08 263.881 343.811 264.987C345.462 266.05 347.675 266.015 349.475 264.891" stroke="#4F4898" stroke-width="0.92" stroke-miterlimit="10" stroke-linecap="round"/>
<path d="M350.327 253.105H346.138" stroke="#4F4898" stroke-width="0.92" stroke-miterlimit="10" stroke-linecap="round"/>
<path d="M350.327 253.105V257.294" stroke="#4F4898" stroke-width="0.92" stroke-miterlimit="10" stroke-linecap="round"/>
<path d="M411.909 102.901H395.618V147.076H411.909V102.901Z" fill="#F8B99B"/>
<path d="M441.549 102.901H425.258V147.076H441.549V102.901Z" fill="#F8B99B"/>
<path d="M452.747 93.6353L457.63 102.128C458.016 102.795 458.833 103.076 459.544 102.778C460.37 102.435 460.73 101.46 460.317 100.661L459.052 98.2021L471.26 97.7718C471.804 97.7542 472.243 97.2975 472.243 96.753C472.243 96.2085 471.813 95.7518 471.26 95.7343L461.371 95.3654L471.233 95.1546C471.795 95.1458 472.252 94.6804 472.252 94.1183C472.252 93.5562 471.804 93.0996 471.242 93.082L461.95 92.8185L471.146 92.4058C471.76 92.3794 472.252 91.8701 472.252 91.2553C472.252 90.6142 471.734 90.1048 471.102 90.1048H462.513L470.092 89.6393C470.566 89.613 470.926 89.2178 470.926 88.7523C470.926 88.2781 470.557 87.8916 470.092 87.8653L461.099 87.3383L452.747 93.6353Z" fill="#F8B99B"/>
<path d="M426.057 82.4993H411.101C404.997 82.4993 400.009 77.511 400.009 71.4072V44.7529C400.009 38.6491 404.997 33.6608 411.101 33.6608H426.057C432.161 33.6608 437.149 38.6491 437.149 44.7529V71.4072C437.149 77.5022 432.161 82.4993 426.057 82.4993Z" fill="#FFEC83"/>
<path d="M384.42 93.6353L379.537 102.128C379.151 102.795 378.334 103.076 377.623 102.778C376.797 102.435 376.437 101.46 376.85 100.661L378.114 98.2021L365.907 97.7718C365.362 97.7542 364.923 97.2975 364.923 96.753C364.923 96.2085 365.354 95.7518 365.907 95.7343L375.796 95.3654L365.933 95.1546C365.371 95.1458 364.915 94.6804 364.915 94.1183C364.915 93.5562 365.362 93.0996 365.925 93.082L375.216 92.8185L366.021 92.4058C365.406 92.3794 364.923 91.8701 364.923 91.2553C364.923 90.6142 365.441 90.1048 366.074 90.1048H374.663L367.084 89.6393C366.618 89.613 366.249 89.2178 366.249 88.7523C366.249 88.2781 366.618 87.8916 367.084 87.8653L376.077 87.3383L384.42 93.6353Z" fill="#F8B99B"/>
<path d="M422.193 46.4566H414.974C412.673 46.4566 410.785 44.5684 410.785 42.2674V34.056C410.785 31.755 412.673 29.8668 414.974 29.8668H422.193C424.494 29.8668 426.382 31.755 426.382 34.056V42.2674C426.382 44.5772 424.494 46.4566 422.193 46.4566Z" fill="#FFEC83"/>
<path d="M379.476 93.7846C375.383 91.9754 373.732 87.5667 375.805 84.0011L402.784 37.6392C404.865 34.0648 409.915 32.6333 414.008 34.4424C418.1 36.2516 419.752 40.6603 417.679 44.2259L390.7 90.5878C388.627 94.1622 383.577 95.6025 379.476 93.7846Z" fill="#FFEC83"/>
<path d="M457.691 93.7846C461.784 91.9754 463.435 87.5667 461.362 84.0011L434.383 37.6392C432.301 34.0648 427.251 32.6333 423.159 34.4424C419.066 36.2516 417.415 40.6603 419.488 44.2259L446.467 90.5878C448.54 94.1622 453.59 95.6025 457.691 93.7846Z" fill="#FFEC83"/>
<path d="M437.149 53.5352V71.4072C437.158 72.2152 437.053 73.3657 436.719 74.6743C436.324 76.2463 435.296 78.0379 434.795 78.7492" fill="#FFEC83"/>
<path d="M437.149 53.5352V71.4072C437.158 72.2152 437.053 73.3657 436.719 74.6743C436.324 76.2463 435.296 78.0379 434.795 78.7492" stroke="#4F4898" stroke-miterlimit="10"/>
<path d="M400.018 53.5352V71.4072C400.009 72.2152 400.114 73.3657 400.448 74.6743C400.843 76.2463 401.871 78.0379 402.371 78.7492" fill="#FFEC83"/>
<path d="M400.018 53.5352V71.4072C400.009 72.2152 400.114 73.3657 400.448 74.6743C400.843 76.2463 401.871 78.0379 402.371 78.7492" stroke="#4F4898" stroke-miterlimit="10"/>
<path d="M390.577 156.455C390.577 149.175 396.478 143.264 403.768 143.264C411.048 143.264 416.959 149.166 416.959 156.455" fill="#A43E90"/>
<path d="M420.217 156.455C420.217 149.175 426.119 143.264 433.408 143.264C440.688 143.264 446.599 149.166 446.599 156.455" fill="#A43E90"/>
<path d="M419.163 49.8027C420.437 48.1428 422.738 47.5632 424.573 48.5644C426.883 49.829 427.445 52.815 425.908 54.8262L425.829 54.9316C424.626 56.4948 424.011 58.4357 424.125 60.4117C424.248 62.5195 423.572 64.68 422 66.4101C419.4 69.2643 415.044 69.9054 411.742 67.9118C407.491 65.3386 406.517 59.7355 409.459 55.9064C410.671 54.3256 412.357 53.3068 414.166 52.9116C416.151 52.455 417.934 51.4099 419.163 49.8027Z" fill="#6EB74A"/>
<path d="M420.823 43.418C421.921 46.6499 425.381 48.4063 425.381 48.4063C425.381 48.4063 427.067 44.9109 425.969 41.679C424.872 38.4471 421.411 36.6994 421.411 36.6994C421.411 36.6994 419.725 40.1773 420.823 43.418Z" fill="#6EB74A"/>
<path d="M427.893 43.2869L424.022 48.7024L425.522 49.775L429.394 44.3595L427.893 43.2869Z" fill="#6EB74A"/>
<path d="M135.037 483.325C135.037 527.21 99.4599 562.787 55.5746 562.787C11.6893 562.787 -23.8879 527.21 -23.8879 483.325C-23.8879 439.44 11.6893 403.862 55.5746 403.862C99.4599 403.862 135.037 439.44 135.037 483.325Z" fill="#A1CB7C"/>
<path d="M55.5745 576.014V483.325L86.5234 452.367" stroke="#4F4898" stroke-miterlimit="10"/>
<path d="M25.4424 436.208L55.5746 483.325V420.031" stroke="#4F4898" stroke-miterlimit="10"/>
<path d="M17.187 475.394L55.5746 502.795L94.9018 483.325" stroke="#4F4898" stroke-miterlimit="10"/>
<path d="M505.3 446.053C505.3 475.386 472.138 499.159 431.23 499.159C390.322 499.159 357.16 475.377 357.16 446.053C357.16 416.728 390.322 392.946 431.23 392.946C472.138 392.946 505.3 416.72 505.3 446.053Z" fill="#6EB74A"/>
<path d="M431.23 520.904V414.05" stroke="#4F4898" stroke-width="0.92" stroke-miterlimit="10"/>
<path d="M456.909 426.644L431.23 452.789L408.229 430.104" stroke="#4F4898" stroke-width="0.92" stroke-miterlimit="10"/>
<path d="M378.422 444.366L431.23 482.517L479.102 456.495" stroke="#4F4898" stroke-width="0.92" stroke-miterlimit="10"/>
<path d="M79.6294 139.786V179.834" stroke="#4F4898" stroke-width="0.92" stroke-miterlimit="10"/>
<path d="M91.0728 139.786V179.834" stroke="#4F4898" stroke-width="0.92" stroke-miterlimit="10"/>
<path d="M102.235 139.786V179.834" stroke="#4F4898" stroke-width="0.92" stroke-miterlimit="10"/>
<path d="M281.456 139.786V179.834" stroke="#4F4898" stroke-width="0.92" stroke-miterlimit="10"/>
<path d="M292.899 139.786V179.834" stroke="#4F4898" stroke-width="0.92" stroke-miterlimit="10"/>
<path d="M304.071 139.786V179.834" stroke="#4F4898" stroke-width="0.92" stroke-miterlimit="10"/>
<path d="M227.893 139.786V179.834" stroke="#4F4898" stroke-width="0.92" stroke-miterlimit="10"/>
<path d="M264.697 136.016C265.998 130.507 262.587 124.987 257.078 123.686C251.57 122.386 246.05 125.797 244.749 131.305C243.448 136.814 246.859 142.334 252.368 143.635C257.877 144.936 263.397 141.524 264.697 136.016Z" stroke="#F6B9D5" stroke-width="8.284" stroke-miterlimit="10"/>
<path d="M301.005 166.186C301.005 179.439 290.256 190.188 277.003 190.188C263.751 190.188 253.001 179.439 253.001 166.186C253.001 152.934 263.742 142.184 277.003 142.184C290.265 142.193 301.005 152.934 301.005 166.186Z" stroke="#F6B9D5" stroke-width="8.284" stroke-miterlimit="10"/>
<path d="M268.651 201.298H240.794C233.232 201.298 227.05 195.115 227.05 187.554V158.756C227.05 143.536 239.503 131.074 254.731 131.074C269.951 131.074 282.413 143.528 282.413 158.756V187.554C282.405 195.115 276.213 201.298 268.651 201.298Z" fill="#F6A000"/>
<path d="M230.958 166.186H278.496" stroke="#4F4898" stroke-miterlimit="10"/>
<path d="M451.271 111.332H385.896L402.064 78.2838H435.112L451.271 111.332Z" fill="#7777B7"/>
<path d="M140.043 117.031C117.306 122.529 94.3662 139.347 90.7918 160.1C90.2297 163.358 85.7244 187.51 101.585 200.841C116.015 212.961 144.294 211.011 164.396 194.035L153.682 177.384C152.444 178.271 150.547 179.526 148.114 180.817C143.354 183.347 130.822 190.478 121.53 184.128C114.258 179.158 114.047 167.275 115.874 160.03" fill="#D4B0D4"/>
<path d="M224.749 250.382L239.687 270.634" stroke="#4F4898" stroke-miterlimit="10"/>
<path d="M232.723 158.739C232.723 146.584 242.577 136.739 254.723 136.739C266.869 136.739 276.722 146.593 276.722 158.739" stroke="#4F4898" stroke-width="0.92" stroke-miterlimit="10" stroke-linecap="round"/>
<path d="M238.212 276.475C238.352 276.299 238.326 276.044 238.159 275.904C237.984 275.763 237.729 275.79 237.588 275.956C230.009 285.143 216.361 286.443 207.184 278.863C203.785 276.053 201.467 272.417 200.272 268.483C200.07 268.746 199.868 269.01 199.675 269.273C200.957 273.146 203.293 276.712 206.666 279.487C210.837 282.93 215.887 284.607 220.911 284.607C227.366 284.607 233.786 281.832 238.212 276.475Z" fill="#4F4898"/>
<path d="M244.123 271.75C244.184 271.75 244.245 271.741 244.298 271.706C255.399 266.287 260.019 252.841 254.6 241.74C253.195 238.86 251.245 236.418 248.935 234.478C248.654 234.592 248.373 234.706 248.092 234.829C250.455 236.743 252.448 239.185 253.871 242.101C259.096 252.797 254.644 265.76 243.938 270.986C243.736 271.082 243.657 271.328 243.754 271.53C243.833 271.671 243.973 271.75 244.123 271.75Z" fill="#4F4898"/>
<path d="M186.923 164.737C187.277 164.737 187.564 164.45 187.564 164.096C187.564 163.742 187.277 163.455 186.923 163.455C186.569 163.455 186.282 163.742 186.282 164.096C186.282 164.45 186.569 164.737 186.923 164.737Z" fill="#4F4898"/>
<path d="M182.778 160.1C183.132 160.1 183.419 159.813 183.419 159.459C183.419 159.105 183.132 158.818 182.778 158.818C182.424 158.818 182.137 159.105 182.137 159.459C182.137 159.813 182.424 160.1 182.778 160.1Z" fill="#4F4898"/>
<path d="M342.3 236.515C341.852 236.436 341.422 236.374 341.018 236.331C322.18 247.449 302.13 256.468 281.333 263.161C263.76 268.816 245.633 272.812 227.296 275.096C226.813 275.421 226.338 275.755 225.873 276.079C244.781 273.822 263.47 269.756 281.579 263.925C302.762 257.11 323.163 247.897 342.3 236.515Z" fill="#D4B0D4"/>
<path d="M348.579 238.86C348.325 238.702 348.061 238.552 347.807 238.403C327.159 252.402 304.984 263.802 281.851 272.285C260.115 280.26 237.492 285.67 214.614 288.375C214.5 288.656 214.377 288.946 214.289 289.227C237.378 286.53 260.203 281.085 282.132 273.041C305.449 264.496 327.792 252.991 348.579 238.86Z" fill="#D4B0D4"/>
<path d="M217.679 301.522C218.048 301.741 218.434 301.952 218.847 302.137C241.461 298.035 263.681 291.176 284.943 281.7C308.418 271.24 330.769 257.593 351.416 241.126C351.232 240.933 351.038 240.748 350.828 240.555C330.259 256.943 307.996 270.538 284.609 280.954C263.092 290.553 240.583 297.456 217.679 301.522Z" fill="#D4B0D4"/>
<path d="M267.703 404.934C267.703 404.934 263.048 408.57 260.747 408.657C258.446 408.745 256.532 407.683 256.435 405.382C256.347 403.081 258.165 401.869 260.466 401.772C262.776 401.684 267.703 404.934 267.703 404.934Z" stroke="#E94B60" stroke-miterlimit="10" stroke-linecap="round"/>
<path d="M267.703 404.934C267.703 404.934 272.63 408.183 274.94 408.095C277.24 408.008 279.067 406.787 278.971 404.486C278.883 402.185 276.968 401.122 274.658 401.21C272.358 401.307 267.703 404.934 267.703 404.934Z" stroke="#E94B60" stroke-miterlimit="10" stroke-linecap="round"/>
<path d="M143.969 395.414C143.969 395.414 140.333 390.759 140.245 388.458C140.157 386.157 141.22 384.243 143.521 384.146C145.822 384.058 147.034 385.876 147.13 388.177C147.227 390.487 143.969 395.414 143.969 395.414Z" stroke="#E94B60" stroke-miterlimit="10" stroke-linecap="round"/>
<path d="M143.969 395.414C143.969 395.414 140.719 400.341 140.807 402.65C140.895 404.96 142.116 406.778 144.417 406.681C146.718 406.594 147.78 404.679 147.693 402.369C147.605 400.068 143.969 395.414 143.969 395.414Z" stroke="#E94B60" stroke-miterlimit="10" stroke-linecap="round"/>
<path d="M135.476 411.828L134.598 413.584V364.026H135.476V411.828Z" fill="#E94B60"/>
<path d="M284.117 413.435L285.874 414.313H236.315V413.435H284.117Z" fill="#E94B60"/>
<path d="M97.9668 320.562H44.7898C44.7898 306.08 56.5318 294.338 71.0138 294.338H97.9668V320.562Z" fill="#4F4898"/>
<path d="M131.498 320.562H78.3208C78.3208 306.08 90.0628 294.338 104.545 294.338H131.498V320.562V320.562Z" fill="#7777B7"/>
<path d="M96.7197 295.093H62.0032L83.8009 247.818C89.5533 235.338 93.479 224.272 103.956 215.385L117.183 204.091L160.181 204.099L136.152 226.898C127.756 234.873 120.889 244.314 115.909 254.773L96.7197 295.093Z" fill="#A1CB7C"/>
<path d="M134.738 295.462H95.3057L117.103 248.187C122.856 235.707 131.269 224.641 141.747 215.754L155.061 204.46L198.199 204.468C198.199 216.641 186.194 220.531 176.648 226.222C174.417 227.654 173.381 228.005 172.072 229.322C164.625 236.84 158.486 245.57 153.936 255.142L134.738 295.462Z" fill="#6EB74A"/>
<path d="M209.239 216.649L215.843 228.137C216.361 229.041 217.477 229.419 218.434 229.015C219.549 228.549 220.033 227.232 219.479 226.152L217.767 222.823L234.277 222.244C235.024 222.217 235.604 221.611 235.604 220.865C235.604 220.127 235.015 219.512 234.277 219.486L220.893 218.985L234.225 218.704C234.989 218.687 235.595 218.063 235.595 217.299C235.595 216.544 234.989 215.92 234.234 215.894L221.675 215.543L234.111 214.981C234.945 214.946 235.604 214.252 235.604 213.417C235.604 212.557 234.91 211.854 234.04 211.854H222.413L232.67 211.222C233.303 211.178 233.803 210.66 233.803 210.019C233.803 209.378 233.303 208.851 232.67 208.816L220.507 208.095L209.239 216.649Z" fill="#F8B99B"/>
<path d="M204.25 147.445C193.044 131.751 178.474 123.486 168.383 119.429C165.977 118.305 163.369 117.409 160.558 116.777C160.541 116.768 160.514 116.768 160.497 116.759C157.309 116.048 153.857 115.661 150.116 115.661C146.392 115.661 143.055 116.153 140.043 117.04L140.052 117.023C117.314 122.52 94.3747 139.339 90.8003 160.091C90.2382 163.349 85.7329 187.501 101.594 200.832C112.15 209.703 130.11 211.029 146.867 204.46H198.217C198.217 202.606 198.226 200.472 198.208 198.119C199.157 200.736 200.079 203.406 200.966 206.146C202.301 210.265 204.892 218.599 205.752 222.542L225.837 206.102C225.214 197.232 220.226 169.813 204.25 147.445Z" fill="#D4B0D4"/>
<path d="M182.18 180.826H168.225C164.019 180.826 160.611 177.419 160.611 173.212V162.796C160.611 158.589 164.019 155.182 168.225 155.182H182.18C186.387 155.182 189.795 158.589 189.795 162.796V173.212C189.795 177.41 186.387 180.826 182.18 180.826Z" fill="#F6A000"/>
<path d="M225.829 206.102L205.743 222.542C204.874 218.608 202.292 210.265 200.957 206.146C197.918 196.766 194.493 188.089 190.796 180.238" stroke="#4F4898" stroke-miterlimit="10"/>
<path d="M191.815 170.331H158.741C158.143 170.331 157.652 169.84 157.652 169.242C157.652 168.645 158.143 168.153 158.741 168.153H191.815C192.412 168.153 192.904 168.645 192.904 169.242C192.904 169.84 192.412 170.331 191.815 170.331Z" fill="#6EB74A"/>
<path d="M191.815 168.109H158.741C158.143 168.109 157.652 167.618 157.652 167.02C157.652 166.423 158.143 165.931 158.741 165.931H191.815C192.412 165.931 192.904 166.423 192.904 167.02C192.904 167.618 192.412 168.109 191.815 168.109Z" fill="#E94B60"/>
<path d="M153.866 177.384L161.99 169.699C162.613 169.111 163.588 169.093 164.229 169.673C164.906 170.287 164.958 171.333 164.344 172.009L160.918 175.759L172.23 171.429C173.012 171.131 173.89 171.491 174.241 172.255C174.601 173.054 174.25 173.994 173.46 174.354L164.677 178.376L173.741 175.03C174.496 174.749 175.33 175.109 175.655 175.847C175.971 176.584 175.664 177.436 174.953 177.805L167.54 181.564L174.461 179.202C175.33 178.903 176.252 179.439 176.437 180.334C176.577 181.037 176.208 181.748 175.55 182.029L169.63 184.576L174.496 183.856C175.515 183.707 176.402 184.55 176.314 185.569C176.261 186.14 175.91 186.64 175.392 186.869L163.202 192.401L153.866 177.384Z" fill="#F8B99B"/>
<path d="M101.585 200.841C116.015 212.961 144.294 211.011 164.396 194.035L164.317 193.921L153.673 177.384C152.435 178.271 150.538 179.526 148.105 180.817C143.345 183.347 130.813 190.478 121.521 184.128C114.249 179.158 114.039 167.275 115.865 160.03" stroke="#4F4898" stroke-miterlimit="10"/>
<path d="M162.657 101.917C162.227 101.917 161.806 101.987 161.41 102.101V101.381C161.41 95.3303 156.457 90.3858 150.415 90.3858C144.373 90.3858 139.419 95.3391 139.419 101.381V102.084C139.042 101.979 138.655 101.917 138.251 101.917C135.871 101.917 133.948 103.849 133.948 106.22C133.948 108.592 135.88 110.524 138.251 110.524C138.655 110.524 139.051 110.462 139.419 110.357V112.377C139.419 118.428 144.373 123.372 150.415 123.372C156.457 123.372 161.41 118.419 161.41 112.377V110.339C161.806 110.462 162.227 110.524 162.657 110.524C165.037 110.524 166.961 108.6 166.961 106.22C166.961 103.84 165.037 101.917 162.657 101.917Z" fill="#F8B99B"/>
<path d="M151.873 85.0462C151.425 85.2306 150.951 85.5116 150.494 85.9068C150.037 85.5029 149.572 85.2306 149.115 85.0462C144.206 83.0087 130.848 91.7032 125.622 103.876L134.211 104.956C134.282 104.745 134.378 104.517 134.501 104.288C134.659 103.998 135.318 102.988 136.811 102.435C137.953 102.014 139.147 102.277 139.577 102.356C139.674 102.286 145.251 99.0101 150.494 94.3906C155.737 99.0189 161.322 102.286 161.41 102.356C161.832 102.277 163.035 102.014 164.168 102.435C165.67 102.997 166.32 104.007 166.478 104.288C166.601 104.517 166.697 104.745 166.768 104.956L173.627 100.573C166.381 89.4198 156.782 83.0087 151.873 85.0462Z" fill="#4F4898"/>
<path d="M155.658 114.502C155.658 116.487 153.849 118.094 150.45 118.094C146.858 118.094 145.242 116.487 145.242 114.502" stroke="#4F4898" stroke-width="0.92" stroke-miterlimit="10" stroke-linecap="round"/>
<path d="M147.06 103.946H142.871" stroke="#4F4898" stroke-width="0.92" stroke-miterlimit="10" stroke-linecap="round"/>
<path d="M147.06 103.946V108.135" stroke="#4F4898" stroke-width="0.92" stroke-miterlimit="10" stroke-linecap="round"/>
<path d="M157.652 103.946V108.135" stroke="#4F4898" stroke-width="0.92" stroke-miterlimit="10" stroke-linecap="round"/>
<path d="M157.652 103.946H153.462" stroke="#4F4898" stroke-width="0.92" stroke-miterlimit="10" stroke-linecap="round"/>
<path d="M138.673 108.767C137.276 108.767 136.135 107.757 136.135 106.519C136.135 105.272 137.268 104.271 138.673 104.271" stroke="#4F4898" stroke-width="0.92" stroke-miterlimit="10" stroke-linecap="round"/>
<path d="M162.227 108.767C163.623 108.767 164.765 107.757 164.765 106.519C164.765 105.272 163.632 104.271 162.227 104.271" stroke="#4F4898" stroke-width="0.92" stroke-miterlimit="10" stroke-linecap="round"/>
<path d="M178.958 163.455C179.312 163.455 179.599 163.168 179.599 162.814C179.599 162.46 179.312 162.173 178.958 162.173C178.603 162.173 178.316 162.46 178.316 162.814C178.316 163.168 178.603 163.455 178.958 163.455Z" fill="#4F4898"/>
<path d="M171.528 160.1C171.882 160.1 172.169 159.813 172.169 159.459C172.169 159.105 171.882 158.818 171.528 158.818C171.174 158.818 170.886 159.105 170.886 159.459C170.886 159.813 171.174 160.1 171.528 160.1Z" fill="#4F4898"/>
<path d="M169.218 158.73C169.572 158.73 169.859 158.443 169.859 158.089C169.859 157.735 169.572 157.448 169.218 157.448C168.864 157.448 168.577 157.735 168.577 158.089C168.577 158.443 168.864 158.73 169.218 158.73Z" fill="#4F4898"/>
<path d="M177.675 159.38C178.029 159.38 178.316 159.093 178.316 158.739C178.316 158.385 178.029 158.098 177.675 158.098C177.321 158.098 177.034 158.385 177.034 158.739C177.034 159.093 177.321 159.38 177.675 159.38Z" fill="#4F4898"/>
<path d="M184.06 172.878C184.414 172.878 184.701 172.591 184.701 172.237C184.701 171.883 184.414 171.596 184.06 171.596C183.706 171.596 183.419 171.883 183.419 172.237C183.419 172.591 183.706 172.878 184.06 172.878Z" fill="#4F4898"/>
<path d="M179.985 174.16C180.339 174.16 180.626 173.873 180.626 173.519C180.626 173.165 180.339 172.878 179.985 172.878C179.631 172.878 179.344 173.165 179.344 173.519C179.344 173.873 179.631 174.16 179.985 174.16Z" fill="#4F4898"/>
<path d="M183.419 179.017C183.773 179.017 184.06 178.73 184.06 178.376C184.06 178.022 183.773 177.735 183.419 177.735C183.065 177.735 182.778 178.022 182.778 178.376C182.778 178.73 183.065 179.017 183.419 179.017Z" fill="#4F4898"/>
<path d="M178.703 179.658C179.057 179.658 179.344 179.371 179.344 179.017C179.344 178.663 179.057 178.376 178.703 178.376C178.349 178.376 178.062 178.663 178.062 179.017C178.062 179.371 178.349 179.658 178.703 179.658Z" fill="#4F4898"/>
<path d="M171.528 164.737C171.882 164.737 172.169 164.45 172.169 164.096C172.169 163.742 171.882 163.455 171.528 163.455C171.174 163.455 170.886 163.742 170.886 164.096C170.886 164.45 171.174 164.737 171.528 164.737Z" fill="#4F4898"/>
<path d="M165.81 162.814C166.164 162.814 166.451 162.527 166.451 162.173C166.451 161.819 166.164 161.531 165.81 161.531C165.456 161.531 165.169 161.819 165.169 162.173C165.169 162.527 165.456 162.814 165.81 162.814Z" fill="#4F4898"/>
<path d="M54.2923 300.363C54.0201 300.591 53.7478 300.828 53.4844 301.065V307.459H54.2923V300.363Z" fill="#F5ADAB"/>
<path d="M62.7848 295.664C62.5125 295.752 62.2403 295.84 61.9768 295.936V307.45H62.7848V295.664Z" fill="#F5ADAB"/>
<path d="M97.9668 316.074H78.7071H45.185C45.141 316.346 45.0971 316.61 45.0532 316.882H78.5842H97.9755H131.506V316.074H97.9668Z" fill="#F5ADAB"/>
<path d="M71.2772 295.093H70.4692V307.45H71.2772V295.093Z" fill="#F5ADAB"/>
<path d="M88.2447 300.029C87.9725 300.248 87.7002 300.468 87.4368 300.696V307.45H88.2447V300.029Z" fill="#F5ADAB"/>
<path d="M96.7372 295.523C96.4649 295.611 96.2015 295.708 95.9292 295.796V307.45H96.7372V295.523Z" fill="#F5ADAB"/>
<path d="M105.23 295.462H104.422V307.45H105.23V295.462Z" fill="#F5ADAB"/>
<path d="M124.279 295.462H123.383L149.844 237.955C151.477 234.398 153.655 231.131 156.299 228.242L178.07 204.468L179.168 204.46L156.896 228.787C154.305 231.614 152.18 234.811 150.582 238.289L124.279 295.462Z" fill="#FFEC83"/>
<path d="M169.78 213.523C168.937 212.732 168.199 211.837 167.602 210.862C166.355 208.833 165.898 206.242 165.731 204.46L166.539 204.468C166.671 205.856 167.057 208.447 168.287 210.44C168.849 211.354 169.534 212.197 170.333 212.934L169.78 213.523Z" fill="#FFEC83"/>
<path d="M132.894 96.7267C133.456 95.7255 134.29 94.4872 135.538 93.2752C136.17 92.6604 136.793 92.1598 137.364 91.7559" stroke="#FFEC83" stroke-width="0.92" stroke-miterlimit="10" stroke-linecap="round"/>
<path d="M134.914 98.7466C135.476 97.7455 136.31 96.5071 137.558 95.2952C138.19 94.6804 138.813 94.1798 139.384 93.7758" stroke="#FFEC83" stroke-width="0.92" stroke-miterlimit="10" stroke-linecap="round"/>
<path d="M160.453 89.6218C159.645 88.8138 158.503 87.839 156.984 87.0134C156.211 86.5919 155.473 86.2757 154.815 86.0386" stroke="#FFEC83" stroke-width="0.92" stroke-miterlimit="10" stroke-linecap="round"/>
<path d="M159.048 92.116C158.24 91.308 157.098 90.3331 155.579 89.5076C154.806 89.0861 154.068 88.7699 153.41 88.5328" stroke="#FFEC83" stroke-width="0.92" stroke-miterlimit="10" stroke-linecap="round"/>
<path d="M409.599 20.9264C408.536 20.9264 407.685 20.0306 407.685 18.9328C407.685 17.835 408.545 16.9392 409.599 16.9392" stroke="#4F4898" stroke-width="0.92" stroke-miterlimit="10" stroke-linecap="round"/>
<path d="M427.568 20.9264C428.63 20.9264 429.482 20.0306 429.482 18.9328C429.482 17.835 428.622 16.9392 427.568 16.9392" stroke="#4F4898" stroke-width="0.92" stroke-miterlimit="10" stroke-linecap="round"/>
<path d="M390.629 153.109C390.638 153.109 390.647 153.118 390.655 153.118H416.897C416.88 152.846 416.844 152.574 416.8 152.31H390.717C390.691 152.574 390.655 152.837 390.629 153.109Z" fill="#FFEC83"/>
<path d="M420.27 153.109C420.278 153.109 420.287 153.118 420.296 153.118H446.537C446.52 152.846 446.485 152.574 446.441 152.31H420.357C420.322 152.574 420.287 152.837 420.27 153.109Z" fill="#FFEC83"/>
<path d="M390.638 111.332H391.622L407.79 78.2838H406.806L390.638 111.332Z" fill="#F6B9D5"/>
<path d="M429.807 78.2838L445.967 111.332H446.95L430.782 78.2838H429.807Z" fill="#F6B9D5"/>
<path d="M431.221 111.332H432.117L426.224 78.2838H425.337L431.221 111.332Z" fill="#F6B9D5"/>
<path d="M405.384 111.332H406.271L412.164 78.2838H411.268L405.384 111.332Z" fill="#F6B9D5"/>
<path d="M418.065 111.332H418.943L419.005 78.2838H418.127L418.065 111.332Z" fill="#F6B9D5"/>
<path d="M252.457 400.367H251.28L304.536 340.928H244.359C237.386 340.928 231.713 335.255 231.713 328.282V322.705H232.591V328.282C232.591 334.772 237.869 340.05 244.359 340.05H306.503L252.457 400.367Z" fill="#FFEC83"/>
<path d="M213.929 331.909C213.929 342.57 222.43 351.212 232.907 351.212H273.947" stroke="#4F4898" stroke-miterlimit="10"/>
</g>
<defs>
<clipPath id="clip0_501_1807">
<rect width="563" height="521" fill="white"/>
</clipPath>
</defs>
</svg>
