<svg width="563" height="498" viewBox="0 0 563 498" fill="none" xmlns="http://www.w3.org/2000/svg">
<g clip-path="url(#clip0_501_2259)">
<path d="M588.996 259.429H-34.9536V520.738H588.996V259.429Z" fill="#F7F7D9"/>
<path d="M562.57 259.359H-0.544434V520.73H562.57V259.359Z" stroke="#4F4898" stroke-width="0.971" stroke-miterlimit="10"/>
<path d="M536.012 259.359V499.512" stroke="#4F4898" stroke-width="0.92" stroke-miterlimit="10"/>
<path d="M563.325 489.508H-0.544434" stroke="#4F4898" stroke-width="0.971" stroke-miterlimit="10"/>
<path d="M74.4214 259.359V499.512" stroke="#4F4898" stroke-width="0.92" stroke-miterlimit="10"/>
<path d="M35.8584 259.359V499.512" stroke="#4F4898" stroke-width="0.92" stroke-miterlimit="10"/>
<path d="M112.994 259.526V499.512" stroke="#4F4898" stroke-width="0.92" stroke-miterlimit="10"/>
<path d="M151.565 259.359V499.512" stroke="#4F4898" stroke-width="0.92" stroke-miterlimit="10"/>
<path d="M190.138 259.359V499.512" stroke="#4F4898" stroke-width="0.92" stroke-miterlimit="10"/>
<path d="M228.701 259.359V499.512" stroke="#4F4898" stroke-width="0.92" stroke-miterlimit="10"/>
<path d="M267.272 259.359V499.512" stroke="#4F4898" stroke-width="0.92" stroke-miterlimit="10"/>
<path d="M305.845 259.359V499.512" stroke="#4F4898" stroke-width="0.92" stroke-miterlimit="10"/>
<path d="M344.417 259.359V499.512" stroke="#4F4898" stroke-width="0.92" stroke-miterlimit="10"/>
<path d="M382.98 259.359V499.512" stroke="#4F4898" stroke-width="0.92" stroke-miterlimit="10"/>
<path d="M421.552 259.359V499.512" stroke="#4F4898" stroke-width="0.92" stroke-miterlimit="10"/>
<path d="M460.124 259.359V499.512" stroke="#4F4898" stroke-width="0.92" stroke-miterlimit="10"/>
<path d="M498.696 259.359V499.512" stroke="#4F4898" stroke-width="0.92" stroke-miterlimit="10"/>
<path d="M562.57 297.931H-0.544434" stroke="#4F4898" stroke-width="0.971" stroke-miterlimit="10"/>
<path d="M562.57 336.503H-0.544434" stroke="#4F4898" stroke-width="0.971" stroke-miterlimit="10"/>
<path d="M562.57 375.066H-0.544434" stroke="#4F4898" stroke-width="0.971" stroke-miterlimit="10"/>
<path d="M562.57 413.638H-0.544434" stroke="#4F4898" stroke-width="0.971" stroke-miterlimit="10"/>
<path d="M562.57 452.21H-0.544434" stroke="#4F4898" stroke-width="0.971" stroke-miterlimit="10"/>
<path d="M444.57 0.403015V371.263" stroke="#4F4898" stroke-miterlimit="10"/>
<path d="M128.801 371.263V0.403015" stroke="#4F4898" stroke-miterlimit="10"/>
<path d="M266.341 159.267L262.407 144.96C261.942 143.265 260.194 142.273 258.499 142.738C256.804 143.204 255.811 144.951 256.277 146.646L258.595 155.077L242.647 146.014C241.25 145.215 239.468 145.707 238.677 147.112C237.878 148.508 238.37 150.291 239.775 151.081L251.429 157.703L236.701 150.458C235.34 149.79 233.689 150.291 232.942 151.617C232.161 152.996 232.644 154.744 234.023 155.534L248.048 163.508L233.355 156.614C232.257 156.096 230.949 156.518 230.343 157.572C229.71 158.687 230.097 160.11 231.212 160.742L245.053 168.602L232.486 162.876C231.3 162.34 229.904 162.788 229.254 163.921C228.569 165.124 228.99 166.661 230.193 167.346L254.046 180.906L266.341 159.267Z" fill="#F8B99B"/>
<path d="M391.762 138.558H387.485L371.984 138.54L356.483 138.558C354.56 138.558 350.643 138.54 350.643 138.54C344.785 139.945 338.717 143.862 335.704 147.63L310.956 178.658C309.551 180.177 307.232 180.59 305.353 179.519L265.771 157.018L252.571 180.23L302.692 208.72C310.947 213.41 321.213 211.293 327.001 204.153C327.589 203.424 328.134 202.642 328.626 201.817L342.379 185.315V229.235L371.975 229.227H409.704V156.658C409.704 146.655 401.668 138.558 391.762 138.558Z" fill="#4F4898"/>
<path d="M355.333 102.779C355.93 102.779 356.501 102.866 357.045 103.033V102.041C357.045 93.7328 363.843 86.9353 372.151 86.9353C380.459 86.9353 387.257 93.7328 387.257 102.041V102.998C387.766 102.858 388.311 102.77 388.864 102.77C392.131 102.77 394.783 105.422 394.783 108.689C394.783 111.956 392.131 114.608 388.864 114.608C388.302 114.608 387.766 114.529 387.257 114.38V117.155C387.257 125.463 380.459 132.261 372.151 132.261C363.843 132.261 357.045 125.463 357.045 117.155V114.354C356.501 114.521 355.93 114.608 355.333 114.608C352.066 114.608 349.414 111.956 349.414 108.689C349.414 105.422 352.066 102.779 355.333 102.779Z" fill="#F8B99B"/>
<path d="M367.215 144.328C370.035 146.471 373.934 146.471 376.744 144.328C378.703 142.835 379.853 140.516 379.853 138.057V124.708H364.098V138.057C364.098 140.516 365.257 142.835 367.215 144.328Z" fill="#F8B99B"/>
<path d="M376.085 106.371H381.232" stroke="#4F4898" stroke-width="0.92" stroke-miterlimit="10" stroke-linecap="round"/>
<path d="M376.085 106.371V110.981" stroke="#4F4898" stroke-width="0.92" stroke-miterlimit="10" stroke-linecap="round"/>
<path d="M363.009 106.371H368.155" stroke="#4F4898" stroke-width="0.92" stroke-miterlimit="10" stroke-linecap="round"/>
<path d="M363.009 106.371V110.981" stroke="#4F4898" stroke-width="0.92" stroke-miterlimit="10" stroke-linecap="round"/>
<path d="M355.236 138.54H348.526V180.142H355.236V138.54Z" fill="#E94B60"/>
<path d="M395.143 138.54H388.434V180.142H395.143V138.54Z" fill="#E94B60"/>
<path d="M406.964 229.235C406.745 228.366 399.148 150.827 399.148 150.827L408.053 149.035L431.405 227.005" fill="#4F4898"/>
<path d="M401.546 165.282H342.388V229.235H401.546V165.282Z" fill="#E94B60"/>
<path d="M348.526 165.282V138.54" stroke="#F6B9D5" stroke-miterlimit="10"/>
<path d="M342.388 229.235V165.282" stroke="#F6B9D5" stroke-miterlimit="10"/>
<path d="M265.771 157.027L252.571 180.239" stroke="#E84621" stroke-miterlimit="10"/>
<path d="M274.834 162.165L261.634 185.385" stroke="#E84621" stroke-miterlimit="10"/>
<path d="M268.274 164.799C269.137 164.799 269.837 164.1 269.837 163.236C269.837 162.373 269.137 161.673 268.274 161.673C267.41 161.673 266.71 162.373 266.71 163.236C266.71 164.1 267.41 164.799 268.274 164.799Z" stroke="#E84621" stroke-miterlimit="10"/>
<path d="M379.66 148.104H364.554C360.479 148.104 357.177 144.802 357.177 140.727V121.573C357.177 117.498 360.479 114.196 364.554 114.196H379.651C383.726 114.196 387.028 117.498 387.028 121.573V140.727C387.037 144.793 383.735 148.104 379.66 148.104Z" fill="#FFF8D6" stroke="#4F4898" stroke-width="0.92" stroke-miterlimit="10" stroke-linecap="round"/>
<path d="M365.099 120.536L365.239 120.616C369.358 123.048 374.478 123.013 378.571 120.536" stroke="#4F4898" stroke-width="0.92" stroke-miterlimit="10" stroke-linecap="round"/>
<path d="M342.388 175.681H401.537" stroke="#F6B9D5" stroke-miterlimit="10"/>
<path d="M351.881 172.229C352.876 172.229 353.682 171.423 353.682 170.429C353.682 169.435 352.876 168.629 351.881 168.629C350.887 168.629 350.081 169.435 350.081 170.429C350.081 171.423 350.887 172.229 351.881 172.229Z" stroke="#F6B9D5" stroke-miterlimit="10"/>
<path d="M391.788 172.229C392.782 172.229 393.589 171.423 393.589 170.429C393.589 169.435 392.782 168.629 391.788 168.629C390.794 168.629 389.988 169.435 389.988 170.429C389.988 171.423 390.794 172.229 391.788 172.229Z" stroke="#F6B9D5" stroke-miterlimit="10"/>
<path d="M351.354 208.465V184.525H391.788V208.465" stroke="#F6B9D5" stroke-miterlimit="10"/>
<path d="M354.85 112.079C353.287 112.079 352.022 110.814 352.022 109.251C352.022 107.688 353.287 106.423 354.85 106.423" stroke="#4F4898" stroke-width="0.92" stroke-miterlimit="10" stroke-linecap="round"/>
<path d="M388.82 112.079C390.383 112.079 391.648 110.814 391.648 109.251C391.648 107.688 390.383 106.423 388.82 106.423" stroke="#4F4898" stroke-width="0.92" stroke-miterlimit="10" stroke-linecap="round"/>
<path d="M146.506 67.7196H142.976C135.151 67.7196 128.81 61.3787 128.81 53.5537V51.0331H160.681V53.5537C160.681 61.3787 154.332 67.7196 146.506 67.7196Z" fill="#DFEAF8" stroke="#4F4898" stroke-miterlimit="10"/>
<path d="M178.052 67.7196H174.522C166.697 67.7196 160.356 61.3787 160.356 53.5537V51.0331H192.227V53.5537C192.218 61.3787 185.877 67.7196 178.052 67.7196Z" fill="#DFEAF8" stroke="#4F4898" stroke-miterlimit="10"/>
<path d="M209.599 67.7196H206.068C198.243 67.7196 191.902 61.3787 191.902 53.5537V51.0331H223.773V53.5537C223.765 61.3787 217.424 67.7196 209.599 67.7196Z" fill="#DFEAF8" stroke="#4F4898" stroke-miterlimit="10"/>
<path d="M241.136 67.7196H237.605C229.78 67.7196 223.439 61.3787 223.439 53.5537V51.0331H255.311V53.5537C255.311 61.3787 248.961 67.7196 241.136 67.7196Z" fill="#DFEAF8" stroke="#4F4898" stroke-miterlimit="10"/>
<path d="M272.682 67.7196H269.152C261.327 67.7196 254.986 61.3787 254.986 53.5537V51.0331H286.857V53.5537C286.857 61.3787 280.507 67.7196 272.682 67.7196Z" fill="#DFEAF8" stroke="#4F4898" stroke-miterlimit="10"/>
<path d="M304.228 67.7196H300.698C292.873 67.7196 286.532 61.3787 286.532 53.5537V51.0331H318.403V53.5537C318.394 61.3787 312.053 67.7196 304.228 67.7196Z" fill="#DFEAF8" stroke="#4F4898" stroke-miterlimit="10"/>
<path d="M335.775 67.7196H332.244C324.419 67.7196 318.078 61.3787 318.078 53.5537V51.0331H349.949V53.5537C349.94 61.3787 343.6 67.7196 335.775 67.7196Z" fill="#DFEAF8" stroke="#4F4898" stroke-miterlimit="10"/>
<path d="M367.312 67.7196H363.781C355.956 67.7196 349.615 61.3787 349.615 53.5537V51.0331H381.486V53.5537C381.486 61.3787 375.137 67.7196 367.312 67.7196Z" fill="#DFEAF8" stroke="#4F4898" stroke-miterlimit="10"/>
<path d="M398.858 67.7196H395.328C387.502 67.7196 381.162 61.3787 381.162 53.5537V51.0331H413.033V53.5537C413.024 61.3787 406.683 67.7196 398.858 67.7196Z" fill="#DFEAF8" stroke="#4F4898" stroke-miterlimit="10"/>
<path d="M430.404 67.7196H426.873C419.048 67.7196 412.708 61.3787 412.708 53.5537V51.0331H444.579V53.5537C444.57 61.3787 438.229 67.7196 430.404 67.7196Z" fill="#DFEAF8" stroke="#4F4898" stroke-miterlimit="10"/>
<path d="M444.57 208.623H128.81V272.603H444.57V208.623Z" fill="#DFEAF8" stroke="#4F4898" stroke-width="0.971" stroke-miterlimit="10"/>
<path d="M143.67 220.479H134.843C133.956 220.479 133.245 219.759 133.245 218.881V218.477C133.245 217.59 133.965 216.879 134.843 216.879H143.67C144.557 216.879 145.268 217.599 145.268 218.477V218.881C145.277 219.768 144.557 220.479 143.67 220.479Z" fill="#04856C" stroke="#CFE3BC" stroke-miterlimit="10"/>
<path d="M143.345 224.633V220.488H135.168V224.633C135.168 225.222 134.984 225.802 134.642 226.285L132.033 229.973C129.917 232.968 128.784 236.542 128.784 240.205V266.701C128.784 268.317 130.092 269.625 131.708 269.625H146.814C148.43 269.625 149.738 268.317 149.738 266.701V240.205C149.738 236.542 148.605 232.959 146.489 229.973L143.881 226.285C143.529 225.802 143.345 225.222 143.345 224.633Z" fill="white" stroke="#F6B9D5" stroke-miterlimit="10"/>
<path d="M128.775 242.725V266.701C128.775 268.317 130.083 269.625 131.699 269.625H146.805C148.421 269.625 149.73 268.317 149.73 266.701V242.725H128.775Z" fill="white" stroke="#F6B9D5" stroke-miterlimit="10"/>
<path d="M122.478 220.479H113.652C112.765 220.479 112.054 219.759 112.054 218.881V218.477C112.054 217.59 112.774 216.879 113.652 216.879H122.478C123.365 216.879 124.077 217.599 124.077 218.477V218.881C124.077 219.768 123.357 220.479 122.478 220.479Z" fill="#04856C" stroke="#CFE3BC" stroke-miterlimit="10"/>
<path d="M122.153 224.633V220.488H113.977V224.633C113.977 225.222 113.793 225.802 113.45 226.285L110.842 229.973C108.725 232.968 107.592 236.542 107.592 240.205V266.701C107.592 268.317 108.901 269.625 110.517 269.625H125.622C127.238 269.625 128.547 268.317 128.547 266.701V240.205C128.547 236.542 127.414 232.959 125.297 229.973L122.689 226.285C122.338 225.802 122.153 225.222 122.153 224.633Z" fill="white" stroke="#F6B9D5" stroke-miterlimit="10"/>
<path d="M107.583 242.725V266.701C107.583 268.317 108.892 269.625 110.508 269.625H125.614C127.23 269.625 128.538 268.317 128.538 266.701V242.725H107.583Z" fill="white" stroke="#F6B9D5" stroke-miterlimit="10"/>
<path d="M164.607 220.479H155.781C154.894 220.479 154.182 219.759 154.182 218.881V218.477C154.182 217.59 154.902 216.879 155.781 216.879H164.607C165.494 216.879 166.205 217.599 166.205 218.477V218.881C166.205 219.768 165.494 220.479 164.607 220.479Z" fill="#04856C" stroke="#CFE3BC" stroke-miterlimit="10"/>
<path d="M164.282 224.633V220.488H156.105V224.633C156.105 225.222 155.921 225.802 155.579 226.285L152.97 229.973C150.854 232.968 149.721 236.542 149.721 240.205V266.701C149.721 268.317 151.029 269.625 152.645 269.625H167.742C169.358 269.625 170.667 268.317 170.667 266.701V240.205C170.667 236.542 169.534 232.959 167.417 229.973L164.809 226.285C164.466 225.802 164.282 225.222 164.282 224.633Z" fill="white" stroke="#F6B9D5" stroke-miterlimit="10"/>
<path d="M149.712 242.725V266.701C149.712 268.317 151.02 269.625 152.636 269.625H167.742C169.358 269.625 170.667 268.317 170.667 266.701V242.725H149.712Z" fill="white" stroke="#F6B9D5" stroke-miterlimit="10"/>
<path d="M185.377 220.479H176.551C175.664 220.479 174.953 219.759 174.953 218.881V218.477C174.953 217.59 175.673 216.879 176.551 216.879H185.377C186.264 216.879 186.976 217.599 186.976 218.477V218.881C186.976 219.768 186.264 220.479 185.377 220.479Z" fill="#04856C" stroke="#CFE3BC" stroke-miterlimit="10"/>
<path d="M185.052 224.633V220.488H176.876V224.633C176.876 225.222 176.692 225.802 176.349 226.285L173.741 229.973C171.624 232.968 170.491 236.542 170.491 240.205V266.701C170.491 268.317 171.8 269.625 173.416 269.625H188.521C190.137 269.625 191.446 268.317 191.446 266.701V240.205C191.446 236.542 190.313 232.959 188.196 229.973L185.588 226.285C185.237 225.802 185.052 225.222 185.052 224.633Z" fill="white" stroke="#F6B9D5" stroke-miterlimit="10"/>
<path d="M170.482 242.725V266.701C170.482 268.317 171.791 269.625 173.407 269.625H188.513C190.128 269.625 191.437 268.317 191.437 266.701V242.725H170.482Z" fill="white" stroke="#F6B9D5" stroke-miterlimit="10"/>
<path d="M211.522 248.266C211.92 231.766 207.844 218.283 202.418 218.152C196.992 218.022 192.271 231.292 191.873 247.793C191.475 264.294 195.551 277.776 200.977 277.907C206.403 278.038 211.124 264.767 211.522 248.266Z" fill="#F6A000" stroke="#FFEC83" stroke-miterlimit="10"/>
<path d="M199.491 223.228C199.491 223.228 198.841 224.396 196.627 234.68C194.414 244.956 194.871 255.89 194.871 255.89" stroke="#FFEC83" stroke-miterlimit="10" stroke-linecap="round" stroke-dasharray="2 2"/>
<path d="M202.424 223.228V256.97" stroke="#FFEC83" stroke-miterlimit="10" stroke-linecap="round" stroke-dasharray="2 2"/>
<path d="M199.491 231.624L197.998 253.088" stroke="#FFEC83" stroke-miterlimit="10" stroke-linecap="round" stroke-dasharray="2 2"/>
<path d="M210.038 240.468C204.47 248.425 201.317 258.314 201.071 268.563C201.317 258.314 198.638 248.284 193.466 240.064L188.846 232.722L192.447 268.94C192.948 273.973 196.522 277.784 200.843 277.889C205.164 277.995 208.923 274.359 209.66 269.353L215 233.354L210.038 240.468Z" fill="#E1E04A" stroke="#A1CB7C" stroke-miterlimit="10"/>
<path d="M230.366 248.264C230.764 231.763 226.688 218.28 221.262 218.15C215.836 218.019 211.115 231.289 210.717 247.79C210.319 264.291 214.395 277.773 219.821 277.904C225.247 278.035 229.968 264.765 230.366 248.264Z" fill="#F6A000" stroke="#FFEC83" stroke-miterlimit="10"/>
<path d="M228.885 240.468C223.317 248.425 220.164 258.314 219.918 268.563C220.164 258.314 217.485 248.284 212.312 240.064L207.693 232.722L211.294 268.94C211.794 273.973 215.369 277.784 219.69 277.889C224.01 277.995 227.769 274.359 228.507 269.353L233.847 233.354L228.885 240.468Z" fill="#E1E04A" stroke="#A1CB7C" stroke-miterlimit="10"/>
<path d="M249.21 248.261C249.608 231.76 245.532 218.278 240.106 218.147C234.68 218.016 229.959 231.287 229.561 247.787C229.163 264.288 233.239 277.771 238.665 277.901C244.091 278.032 248.812 264.762 249.21 248.261Z" fill="#F6A000" stroke="#FFEC83" stroke-miterlimit="10"/>
<path d="M237.176 223.228C237.176 223.228 236.526 224.396 234.313 234.68C232.099 244.956 232.556 255.89 232.556 255.89" stroke="#FFEC83" stroke-miterlimit="10" stroke-linecap="round" stroke-dasharray="2 2"/>
<path d="M240.118 223.228V256.97" stroke="#FFEC83" stroke-miterlimit="10" stroke-linecap="round" stroke-dasharray="2 2"/>
<path d="M237.176 231.624L235.683 253.088" stroke="#FFEC83" stroke-miterlimit="10" stroke-linecap="round" stroke-dasharray="2 2"/>
<path d="M247.732 240.468C242.164 248.425 239.011 258.314 238.765 268.563C239.011 258.314 236.332 248.284 231.16 240.064L226.54 232.722L230.141 268.94C230.641 273.973 234.216 277.784 238.537 277.89C242.858 277.995 246.616 274.359 247.354 269.353L252.694 233.354L247.732 240.468Z" fill="#E1E04A" stroke="#A1CB7C" stroke-miterlimit="10"/>
<path d="M268.054 248.267C268.452 231.766 264.375 218.284 258.95 218.153C253.524 218.022 248.803 231.293 248.405 247.793C248.007 264.294 252.083 277.777 257.509 277.907C262.935 278.038 267.656 264.768 268.054 248.267Z" fill="#F6A000" stroke="#FFEC83" stroke-miterlimit="10"/>
<path d="M266.57 240.468C261.002 248.425 257.849 258.314 257.603 268.563C257.849 258.314 255.17 248.284 249.997 240.064L245.378 232.722L248.979 268.94C249.479 273.973 253.054 277.784 257.375 277.889C261.695 277.995 265.454 274.359 266.192 269.353L271.532 233.354L266.57 240.468Z" fill="#E1E04A" stroke="#A1CB7C" stroke-miterlimit="10"/>
<path d="M286.899 248.264C287.296 231.763 283.22 218.281 277.794 218.15C272.368 218.019 267.647 231.29 267.25 247.791C266.852 264.291 270.928 277.774 276.354 277.905C281.78 278.035 286.501 264.765 286.899 248.264Z" fill="#F6A000" stroke="#FFEC83" stroke-miterlimit="10"/>
<path d="M274.869 223.228C274.869 223.228 274.22 224.396 272.006 234.68C269.793 244.956 270.25 255.89 270.25 255.89" stroke="#FFEC83" stroke-miterlimit="10" stroke-linecap="round" stroke-dasharray="2 2"/>
<path d="M277.803 223.228V256.97" stroke="#FFEC83" stroke-miterlimit="10" stroke-linecap="round" stroke-dasharray="2 2"/>
<path d="M274.869 231.624L273.368 253.088" stroke="#FFEC83" stroke-miterlimit="10" stroke-linecap="round" stroke-dasharray="2 2"/>
<path d="M285.417 240.468C279.849 248.425 276.696 258.314 276.45 268.563C276.696 258.314 274.017 248.284 268.845 240.064L264.225 232.722L267.826 268.94C268.326 273.973 271.901 277.784 276.222 277.889C280.543 277.995 284.302 274.359 285.039 269.353L290.379 233.354L285.417 240.468Z" fill="#E1E04A" stroke="#A1CB7C" stroke-miterlimit="10"/>
<path d="M197.023 140.585C213.025 136.538 224.918 128.991 223.588 123.729C222.257 118.467 208.206 117.483 192.203 121.53C176.201 125.577 164.307 133.124 165.638 138.386C166.969 143.648 181.02 144.632 197.023 140.585Z" fill="#F6A000" stroke="#FFEC83" stroke-miterlimit="10"/>
<path d="M217.889 122.267C217.889 122.267 216.59 121.95 206.095 122.583C195.6 123.215 185.193 126.588 185.193 126.588" stroke="#FFEC83" stroke-miterlimit="10" stroke-linecap="round" stroke-dasharray="2 2"/>
<path d="M218.68 125.095L186.177 134.149" stroke="#FFEC83" stroke-miterlimit="10" stroke-linecap="round" stroke-dasharray="2 2"/>
<path d="M209.81 124.515L188.724 128.836" stroke="#FFEC83" stroke-miterlimit="10" stroke-linecap="round" stroke-dasharray="2 2"/>
<path d="M204.119 137.056C194.959 133.833 184.587 133.447 174.646 135.958C184.587 133.447 193.528 128.177 200.053 120.984L205.884 114.565L171.967 127.756C167.251 129.591 164.546 134.061 165.6 138.25C166.662 142.44 171.168 145.083 176.191 144.451L212.304 139.928L204.119 137.056Z" fill="#E1E04A" stroke="#A1CB7C" stroke-miterlimit="10"/>
<path d="M444.57 0.403015H128.801V51.0331H444.57V0.403015Z" fill="#DFEAF8" stroke="#4F4898" stroke-miterlimit="10"/>
<path d="M323.497 228.19C323.523 226.934 323.295 225.652 322.768 224.414C320.774 219.75 315.373 217.581 310.71 219.575C307.759 220.831 305.818 223.448 305.282 226.381C302.981 225.362 300.285 225.257 297.791 226.32C293.022 228.357 290.809 233.872 292.847 238.641C293.312 239.73 293.971 240.679 294.744 241.487C292.917 243.902 292.399 247.195 293.672 250.181C295.56 254.616 300.689 256.671 305.124 254.774C307.522 253.747 309.217 251.78 309.972 249.487C312.15 250.524 314.75 250.664 317.147 249.646C319.36 248.697 320.985 246.941 321.819 244.868C323.892 245.702 326.281 245.746 328.503 244.798C332.938 242.909 334.993 237.781 333.096 233.346C331.462 229.516 327.423 227.461 323.497 228.19Z" fill="#7677B7" stroke="#F6B9D5" stroke-miterlimit="10"/>
<path d="M458.121 269.52H115.25" stroke="#4F4898" stroke-miterlimit="10"/>
<path d="M286.918 316.04V208.623" stroke="#4F4898" stroke-miterlimit="10"/>
<path d="M97.958 332.823L117.929 269.485H286.919V332.823H97.958Z" fill="#DFEAF8" stroke="#4F4898" stroke-miterlimit="10" stroke-linejoin="round"/>
<path d="M137.347 260.685H119.738V278.293H137.347V260.685Z" fill="#6EB74A" stroke="#CDE3BB" stroke-miterlimit="10"/>
<path d="M123.392 268.334L127.484 273.367L133.693 265.612" fill="#6EB74A"/>
<path d="M123.392 268.334L127.484 273.367L133.693 265.612" stroke="#CDE3BB" stroke-miterlimit="10"/>
<path d="M196.048 269.52V316.04" stroke="#4F4898" stroke-miterlimit="10"/>
<path d="M204.663 323.11C211.686 323.11 217.38 318.104 217.38 311.93C217.38 305.755 211.686 300.75 204.663 300.75C197.64 300.75 191.946 305.755 191.946 311.93C191.946 318.104 197.64 323.11 204.663 323.11Z" fill="#E94B60" stroke="#F6B9D5" stroke-miterlimit="10"/>
<path d="M106.24 277.415C108.488 281.842 119.15 296.789 122.127 295.27C125.104 293.75 119.281 276.335 117.033 271.917C114.785 267.491 110.543 265.138 107.557 266.657C104.58 268.185 103.991 272.998 106.24 277.415Z" fill="#CFE3BC" stroke="#A1CB7C" stroke-miterlimit="10"/>
<path d="M113.046 277.521C113.722 281.806 118.825 297.061 122.074 296.552C125.324 296.043 125.49 279.945 124.814 275.668C124.138 271.391 120.959 268.325 117.709 268.844C114.451 269.353 112.37 273.235 113.046 277.521Z" fill="#CFE3BC" stroke="#A1CB7C" stroke-miterlimit="10"/>
<path d="M105.695 286.593C108.673 289.473 121.521 298.01 123.936 295.516C126.351 293.021 117.429 280.445 114.451 277.565C111.474 274.684 107.1 274.368 104.685 276.853C102.27 279.347 102.718 283.712 105.695 286.593Z" fill="#CFE3BC" stroke="#A1CB7C" stroke-miterlimit="10"/>
<path d="M115.804 310.305C118.992 316.558 135.222 320.422 135.222 320.422C135.222 320.422 141.65 305.027 138.462 298.765C135.274 292.512 127.625 290.018 121.363 293.206C115.11 296.394 112.625 304.052 115.804 310.305Z" fill="#7677B7" stroke="#4F4898" stroke-miterlimit="10"/>
<path d="M98.6693 304.825C102.446 308.039 118.034 317.753 120.204 315.206C122.373 312.659 110.306 298.818 106.529 295.603C102.753 292.389 97.9316 291.845 95.7623 294.392C93.5931 296.938 94.8929 301.602 98.6693 304.825Z" fill="#A1CB7C" stroke="#6EB74A" stroke-miterlimit="10"/>
<path d="M104.984 302.304C107.25 306.002 117.833 318.13 120.634 316.409C123.436 314.687 117.411 299.766 115.136 296.069C112.871 292.372 108.752 290.773 105.95 292.494C103.148 294.216 102.718 298.607 104.984 302.304Z" fill="#A1CB7C" stroke="#6EB74A" stroke-miterlimit="10"/>
<path d="M101.69 313.502C105.546 315.021 120.687 317.963 121.96 314.731C123.233 311.499 110.157 303.323 106.301 301.795C102.446 300.276 98.2917 301.663 97.0182 304.895C95.7448 308.127 97.835 311.982 101.69 313.502Z" fill="#A1CB7C" stroke="#6EB74A" stroke-miterlimit="10"/>
<path d="M120.133 331.506C125.482 336.055 141.949 333.385 141.949 333.385C141.949 333.385 141.966 316.699 136.618 312.149C131.269 307.6 123.251 308.241 118.693 313.581C114.152 318.929 114.794 326.956 120.133 331.506Z" fill="#DE1182" stroke="#4F4898" stroke-miterlimit="10"/>
<path d="M107.205 338.813C114.117 340.051 127.001 329.451 127.001 329.451C127.001 329.451 118.614 315.03 111.702 313.783C104.79 312.545 98.186 317.138 96.9389 324.049C95.7006 330.961 100.294 337.574 107.205 338.813Z" fill="#7677B7" stroke="#4F4898" stroke-miterlimit="10"/>
<path d="M101.312 327.079L102.612 322.943" stroke="#4F4898" stroke-miterlimit="10"/>
<path d="M108.602 319.799L111.456 318.35" stroke="#4F4898" stroke-miterlimit="10"/>
<path d="M108.681 325.63L108.075 329.451" stroke="#4F4898" stroke-miterlimit="10"/>
<path d="M110.596 333.868L112.449 335.607" stroke="#4F4898" stroke-miterlimit="10"/>
<path d="M115.663 328.932L116.076 325.015" stroke="#4F4898" stroke-miterlimit="10"/>
<path d="M121.363 329.951V327.545" stroke="#4F4898" stroke-miterlimit="10"/>
<path d="M195.451 304.825C191.674 308.039 176.086 317.753 173.917 315.206C171.747 312.659 183.814 298.818 187.591 295.603C191.367 292.389 196.189 291.845 198.358 294.392C200.527 296.938 199.227 301.602 195.451 304.825Z" fill="#A1CB7C" stroke="#6EB74A" stroke-miterlimit="10"/>
<path d="M189.128 302.304C186.862 306.002 176.279 318.13 173.477 316.409C170.676 314.687 176.701 299.766 178.975 296.069C181.241 292.372 185.36 290.773 188.161 292.494C190.963 294.216 191.402 298.607 189.128 302.304Z" fill="#A1CB7C" stroke="#6EB74A" stroke-miterlimit="10"/>
<path d="M192.43 313.502C188.574 315.021 173.434 317.963 172.16 314.731C170.887 311.499 183.964 303.323 187.819 301.795C191.675 300.276 195.829 301.663 197.102 304.895C198.375 308.127 196.285 311.982 192.43 313.502Z" fill="#A1CB7C" stroke="#6EB74A" stroke-miterlimit="10"/>
<path d="M173.978 331.506C168.629 336.055 152.163 333.385 152.163 333.385C152.163 333.385 152.145 316.699 157.493 312.149C162.842 307.6 170.86 308.241 175.418 313.581C179.967 318.929 179.326 326.956 173.978 331.506Z" fill="#DE1182" stroke="#4F4898" stroke-miterlimit="10"/>
<path d="M186.914 338.813C180.002 340.051 167.119 329.451 167.119 329.451C167.119 329.451 175.506 315.03 182.417 313.783C189.329 312.545 195.933 317.138 197.181 324.049C198.419 330.961 193.826 337.574 186.914 338.813Z" fill="#DE1182" stroke="#4F4898" stroke-miterlimit="10"/>
<path d="M129.03 291.344C130.338 296.13 137.724 312.94 140.956 312.061C144.188 311.183 142.028 292.951 140.719 288.156C139.41 283.37 135.739 280.199 132.508 281.077C129.276 281.956 127.721 286.558 129.03 291.344Z" fill="#A1CB7C" stroke="#6EB74A" stroke-miterlimit="10"/>
<path d="M135.66 292.828C135.45 297.158 137.347 313.142 140.631 313.3C143.916 313.458 147.35 297.738 147.56 293.408C147.771 289.078 145.277 285.434 141.992 285.275C138.708 285.117 135.871 288.499 135.66 292.828Z" fill="#A1CB7C" stroke="#6EB74A" stroke-miterlimit="10"/>
<path d="M126.624 300.214C128.951 303.639 139.788 314.617 142.669 312.668C145.541 310.718 139.358 296.587 137.039 293.162C134.712 289.737 130.497 288.534 127.625 290.483C124.753 292.433 124.296 296.789 126.624 300.214Z" fill="#A1CB7C" stroke="#6EB74A" stroke-miterlimit="10"/>
<path d="M131.7 325.49C133.544 332.261 148.65 339.348 148.65 339.348C148.65 339.348 158.073 325.578 156.229 318.806C154.384 312.035 147.394 308.039 140.623 309.884C133.851 311.728 129.855 318.719 131.7 325.49Z" fill="#DE1182" stroke="#4F4898" stroke-miterlimit="10"/>
<path d="M140.412 316.093L144.223 315.048" stroke="#4F4898" stroke-miterlimit="10"/>
<path d="M135.652 325.024L138.48 322.31" stroke="#4F4898" stroke-miterlimit="10"/>
<path d="M149.229 318.552L152.777 319.079" stroke="#4F4898" stroke-miterlimit="10"/>
<path d="M143.863 326.061L147.578 325.024" stroke="#4F4898" stroke-miterlimit="10"/>
<path d="M143.416 333.754L145.831 331.699" stroke="#4F4898" stroke-miterlimit="10"/>
<path d="M148.649 333.35H151.003" stroke="#4F4898" stroke-miterlimit="10"/>
<path d="M263.531 157.01L264.91 154.577L261.88 143.704C261.459 142.176 259.887 141.28 258.358 141.702C256.83 142.123 255.935 143.695 256.356 145.224L260.115 158.854" fill="#F8B99B"/>
<path d="M276.977 325.261C284 325.261 289.694 320.256 289.694 314.081C289.694 307.907 284 302.902 276.977 302.902C269.954 302.902 264.26 307.907 264.26 314.081C264.26 320.256 269.954 325.261 276.977 325.261Z" fill="#E94B60" stroke="#F6B9D5" stroke-miterlimit="10"/>
<path d="M265.735 306.388C272.759 306.388 278.452 301.383 278.452 295.208C278.452 289.034 272.759 284.028 265.735 284.028C258.712 284.028 253.019 289.034 253.019 295.208C253.019 301.383 258.712 306.388 265.735 306.388Z" fill="#E94B60" stroke="#F6B9D5" stroke-miterlimit="10"/>
<path d="M213.876 306.388C220.899 306.388 226.593 301.383 226.593 295.208C226.593 289.034 220.899 284.028 213.876 284.028C206.853 284.028 201.159 289.034 201.159 295.208C201.159 301.383 206.853 306.388 213.876 306.388Z" fill="#E94B60" stroke="#F6B9D5" stroke-miterlimit="10"/>
<path d="M241.584 293.346C248.607 293.346 254.301 288.341 254.301 282.167C254.301 275.992 248.607 270.987 241.584 270.987C234.561 270.987 228.867 275.992 228.867 282.167C228.867 288.341 234.561 293.346 241.584 293.346Z" fill="#E94B60" stroke="#F6B9D5" stroke-miterlimit="10"/>
<path d="M252.975 306.652C259.998 306.652 265.691 301.646 265.691 295.472C265.691 289.297 259.998 284.292 252.975 284.292C245.951 284.292 240.258 289.297 240.258 295.472C240.258 301.646 245.951 306.652 252.975 306.652Z" fill="#E94B60" stroke="#F6B9D5" stroke-miterlimit="10"/>
<path d="M230.202 306.652C237.225 306.652 242.919 301.646 242.919 295.472C242.919 289.297 237.225 284.292 230.202 284.292C223.179 284.292 217.485 289.297 217.485 295.472C217.485 301.646 223.179 306.652 230.202 306.652Z" fill="#E94B60" stroke="#F6B9D5" stroke-miterlimit="10"/>
<path d="M363.377 208.623V269.52" stroke="#4F4898" stroke-miterlimit="10"/>
<path d="M263.874 322.952C270.897 322.952 276.59 317.946 276.59 311.772C276.59 305.597 270.897 300.592 263.874 300.592C256.85 300.592 251.157 305.597 251.157 311.772C251.157 317.946 256.85 322.952 263.874 322.952Z" fill="#E94B60" stroke="#F6B9D5" stroke-miterlimit="10"/>
<path d="M241.584 322.952C248.607 322.952 254.301 317.946 254.301 311.772C254.301 305.597 248.607 300.592 241.584 300.592C234.561 300.592 228.867 305.597 228.867 311.772C228.867 317.946 234.561 322.952 241.584 322.952Z" fill="#E94B60" stroke="#F6B9D5" stroke-miterlimit="10"/>
<path d="M437.36 240.942L410.662 242.707C407.763 242.901 405.234 240.688 405.041 237.789L404.953 236.472C404.76 233.574 406.973 231.045 409.871 230.851L436.57 229.086C439.468 228.893 441.997 231.106 442.19 234.004L442.278 235.322C442.471 238.22 440.258 240.749 437.36 240.942Z" fill="#04856C" stroke="#CFE3BC" stroke-miterlimit="10"/>
<path d="M219.303 322.952C226.327 322.952 232.02 317.946 232.02 311.772C232.02 305.597 226.327 300.592 219.303 300.592C212.28 300.592 206.586 305.597 206.586 311.772C206.586 317.946 212.28 322.952 219.303 322.952Z" fill="#E94B60" stroke="#F6B9D5" stroke-miterlimit="10"/>
<path d="M393.747 269.52H366.987C364.08 269.52 361.709 267.14 361.709 264.242V262.924C361.709 260.017 364.089 257.646 366.987 257.646H393.747C396.654 257.646 399.025 260.026 399.025 262.924V264.242C399.025 267.14 396.645 269.52 393.747 269.52Z" fill="#04856C" stroke="#CFE3BC" stroke-miterlimit="10"/>
<path d="M392.869 263.539L367.093 256.355C364.291 255.574 362.64 252.649 363.422 249.848L363.773 248.583C364.554 245.781 367.479 244.13 370.281 244.912L396.057 252.096C398.858 252.877 400.509 255.802 399.728 258.604L399.376 259.868C398.586 262.67 395.662 264.321 392.869 263.539Z" fill="#04856C" stroke="#CFE3BC" stroke-miterlimit="10"/>
<path d="M408.29 242.883L381.794 239.133C378.922 238.729 376.902 236.042 377.306 233.161L377.491 231.853C377.895 228.981 380.582 226.961 383.463 227.365L409.959 231.115C412.831 231.519 414.851 234.206 414.447 237.087L414.262 238.395C413.85 241.267 411.162 243.287 408.29 242.883Z" fill="#04856C" stroke="#CFE3BC" stroke-miterlimit="10"/>
<path d="M426.057 264.426L451.833 257.242C454.635 256.461 456.286 253.536 455.504 250.734L455.153 249.47C454.371 246.668 451.447 245.017 448.645 245.799L422.869 252.983C420.067 253.764 418.416 256.689 419.198 259.491L419.549 260.755C420.331 263.557 423.255 265.208 426.057 264.426Z" fill="#04856C" stroke="#CFE3BC" stroke-miterlimit="10"/>
<path d="M394.564 256.101L371.387 242.725C368.875 241.276 368.006 238.026 369.455 235.515L370.114 234.373C371.563 231.861 374.812 230.992 377.324 232.441L400.5 245.816C403.012 247.266 403.882 250.515 402.433 253.027L401.774 254.168C400.325 256.68 397.075 257.55 394.564 256.101Z" fill="#04856C" stroke="#CFE3BC" stroke-miterlimit="10"/>
<path d="M461.002 269.52H420.551C417.644 269.52 415.272 267.14 415.272 264.242V262.924C415.272 260.017 417.652 257.646 420.551 257.646H461.002C463.909 257.646 466.28 260.026 466.28 262.924V264.242C466.28 267.14 463.9 269.52 461.002 269.52Z" fill="#04856C" stroke="#CFE3BC" stroke-miterlimit="10"/>
<path d="M357.994 240.275C358.907 239.414 359.663 238.351 360.172 237.113C362.104 232.423 359.873 227.049 355.184 225.116C352.224 223.896 348.992 224.335 346.524 226.012C345.646 223.659 343.828 221.656 341.325 220.62C336.53 218.644 331.05 220.927 329.065 225.714C328.608 226.811 328.389 227.944 328.362 229.06C325.359 229.446 322.645 231.378 321.407 234.382C319.571 238.834 321.688 243.937 326.14 245.773C328.547 246.765 331.146 246.598 333.316 245.527C334.106 247.81 335.819 249.76 338.225 250.761C340.456 251.683 342.844 251.613 344.908 250.752C345.769 252.816 347.411 254.555 349.642 255.477C354.095 257.312 359.197 255.196 361.033 250.743C362.631 246.897 361.261 242.567 357.994 240.275Z" fill="#7677B7" stroke="#F6B9D5" stroke-miterlimit="10"/>
<path d="M338.91 240.406C339.428 239.256 339.718 237.991 339.718 236.648C339.718 231.571 335.608 227.461 330.531 227.461C327.326 227.461 324.507 229.104 322.865 231.589C321.152 229.754 318.711 228.594 316.006 228.594C310.824 228.594 306.617 232.792 306.617 237.983C306.617 239.168 306.846 240.301 307.25 241.346C304.624 242.848 302.85 245.676 302.85 248.917C302.85 253.738 306.758 257.637 311.57 257.637C314.179 257.637 316.506 256.487 318.105 254.678C319.703 256.487 322.039 257.637 324.639 257.637C327.054 257.637 329.232 256.663 330.813 255.082C332.393 256.663 334.571 257.637 336.987 257.637C341.808 257.637 345.707 253.729 345.707 248.917C345.725 244.754 342.809 241.285 338.91 240.406Z" fill="#7677B7" stroke="#F6B9D5" stroke-miterlimit="10"/>
<path d="M423.677 269.52H396.917C394.01 269.52 391.639 267.14 391.639 264.242V262.924C391.639 260.017 394.019 257.646 396.917 257.646H423.677C426.584 257.646 428.955 260.026 428.955 262.924V264.242C428.955 267.14 426.584 269.52 423.677 269.52Z" fill="#04856C" stroke="#CFE3BC" stroke-miterlimit="10"/>
<path d="M399.025 260.36H399.903" stroke="#CFE3BC" stroke-miterlimit="10" stroke-linecap="round"/>
<path d="M403.083 260.36H420.542" stroke="#CFE3BC" stroke-miterlimit="10" stroke-linecap="round" stroke-dasharray="1.81 1.81"/>
<path d="M422.131 260.36H423.01" stroke="#CFE3BC" stroke-miterlimit="10" stroke-linecap="round"/>
<path d="M399.025 263.574H399.903" stroke="#CFE3BC" stroke-miterlimit="10" stroke-linecap="round"/>
<path d="M403.083 263.574H420.542" stroke="#CFE3BC" stroke-miterlimit="10" stroke-linecap="round" stroke-dasharray="1.81 1.81"/>
<path d="M422.131 263.574H423.01" stroke="#CFE3BC" stroke-miterlimit="10" stroke-linecap="round"/>
<path d="M399.025 266.797H399.903" stroke="#CFE3BC" stroke-miterlimit="10" stroke-linecap="round"/>
<path d="M403.083 266.797H420.542" stroke="#CFE3BC" stroke-miterlimit="10" stroke-linecap="round" stroke-dasharray="1.81 1.81"/>
<path d="M422.131 266.797H423.01" stroke="#CFE3BC" stroke-miterlimit="10" stroke-linecap="round"/>
<path d="M320.177 255.372C320.696 254.221 320.985 252.956 320.985 251.613C320.985 246.537 316.875 242.426 311.799 242.426C308.594 242.426 305.774 244.069 304.132 246.554C302.42 244.719 299.978 243.559 297.273 243.559C292.092 243.559 287.885 247.757 287.885 252.948C287.885 254.133 288.113 255.266 288.517 256.311C285.891 257.813 284.117 260.641 284.117 263.882C284.117 268.703 288.025 272.603 292.838 272.603C295.446 272.603 297.774 271.452 299.372 269.643C300.97 271.452 303.307 272.603 305.906 272.603C308.321 272.603 310.499 271.628 312.08 270.047C313.661 271.628 315.839 272.603 318.254 272.603C323.076 272.603 326.975 268.694 326.975 263.882C326.992 259.719 324.077 256.25 320.177 255.372Z" fill="#7677B7" stroke="#F6B9D5" stroke-miterlimit="10"/>
<path d="M359.338 255.372C359.856 254.221 360.146 252.956 360.146 251.613C360.146 246.537 356.035 242.426 350.959 242.426C347.754 242.426 344.935 244.069 343.292 246.554C341.58 244.719 339.138 243.559 336.433 243.559C331.252 243.559 327.045 247.757 327.045 252.948C327.045 254.133 327.273 255.266 327.677 256.311C325.051 257.813 323.277 260.641 323.277 263.882C323.277 268.703 327.185 272.603 331.998 272.603C334.607 272.603 336.934 271.452 338.532 269.643C340.131 271.452 342.467 272.603 345.066 272.603C347.481 272.603 349.659 271.628 351.24 270.047C352.821 271.628 354.999 272.603 357.414 272.603C362.236 272.603 366.135 268.694 366.135 263.882C366.144 259.719 363.237 256.25 359.338 255.372Z" fill="#7677B7" stroke="#F6B9D5" stroke-miterlimit="10"/>
<path d="M423.677 245.764H396.917C394.01 245.764 391.639 243.384 391.639 240.486V239.168C391.639 236.261 394.019 233.89 396.917 233.89H423.677C426.584 233.89 428.955 236.27 428.955 239.168V240.486C428.955 243.384 426.584 245.764 423.677 245.764Z" fill="#04856C" stroke="#CFE3BC" stroke-miterlimit="10"/>
<path d="M439.283 257.637H412.523C409.616 257.637 407.245 255.257 407.245 252.359V251.042C407.245 248.135 409.625 245.764 412.523 245.764H439.283C442.19 245.764 444.561 248.144 444.561 251.042V252.359C444.57 255.266 442.19 257.637 439.283 257.637Z" fill="#04856C" stroke="#CFE3BC" stroke-miterlimit="10"/>
<path d="M286.918 269.485V332.823H475.414L458.121 269.52L286.918 269.485Z" fill="#DFEAF8" stroke="#4F4898" stroke-miterlimit="10"/>
<path d="M275.748 338.602C282.771 338.602 288.464 333.596 288.464 327.422C288.464 321.247 282.771 316.242 275.748 316.242C268.724 316.242 263.031 321.247 263.031 327.422C263.031 333.596 268.724 338.602 275.748 338.602Z" fill="#E94B60" stroke="#F6B9D5" stroke-miterlimit="10"/>
<path d="M252.975 338.602C259.998 338.602 265.691 333.596 265.691 327.422C265.691 321.247 259.998 316.242 252.975 316.242C245.951 316.242 240.258 321.247 240.258 327.422C240.258 333.596 245.951 338.602 252.975 338.602Z" fill="#E94B60" stroke="#F6B9D5" stroke-miterlimit="10"/>
<path d="M230.202 338.602C237.225 338.602 242.919 333.596 242.919 327.422C242.919 321.247 237.225 316.242 230.202 316.242C223.179 316.242 217.485 321.247 217.485 327.422C217.485 333.596 223.179 338.602 230.202 338.602Z" fill="#E94B60" stroke="#F6B9D5" stroke-miterlimit="10"/>
<path d="M207.43 338.602C214.453 338.602 220.146 333.596 220.146 327.422C220.146 321.247 214.453 316.242 207.43 316.242C200.406 316.242 194.713 321.247 194.713 327.422C194.713 333.596 200.406 338.602 207.43 338.602Z" fill="#E94B60" stroke="#F6B9D5" stroke-miterlimit="10"/>
<path d="M160.348 51.0331V0.403015" stroke="#4F4898" stroke-miterlimit="10"/>
<path d="M301.796 287.901H292.969C292.082 287.901 291.371 287.181 291.371 286.303V285.899C291.371 285.012 292.091 284.301 292.969 284.301H301.796C302.683 284.301 303.394 285.021 303.394 285.899V286.303C303.403 287.181 302.683 287.901 301.796 287.901Z" fill="#E94B60" stroke="#F6B9D5" stroke-miterlimit="10"/>
<path d="M301.48 292.047V287.901H293.303V292.047C293.303 292.635 293.119 293.215 292.776 293.698L290.168 297.386C288.051 300.381 286.918 303.955 286.918 307.618V334.114C286.918 335.73 288.227 337.038 289.843 337.038H304.949C306.565 337.038 307.873 335.73 307.873 334.114V307.618C307.873 303.955 306.74 300.372 304.624 297.386L302.015 293.698C301.655 293.215 301.48 292.644 301.48 292.047Z" fill="white" stroke="#F6B9D5" stroke-miterlimit="10"/>
<path d="M286.91 310.147V334.123C286.91 335.739 288.218 337.047 289.834 337.047H304.94C306.556 337.047 307.864 335.739 307.864 334.123V310.147H286.91Z" fill="white" stroke="#F6B9D5" stroke-miterlimit="10"/>
<path d="M322.759 287.901H313.933C313.046 287.901 312.334 287.181 312.334 286.303V285.899C312.334 285.012 313.055 284.301 313.933 284.301H322.759C323.646 284.301 324.357 285.021 324.357 285.899V286.303C324.357 287.181 323.637 287.901 322.759 287.901Z" fill="#E94B60" stroke="#F6B9D5" stroke-miterlimit="10"/>
<path d="M322.434 292.047V287.901H314.258V292.047C314.258 292.635 314.073 293.215 313.731 293.698L311.123 297.386C309.006 300.381 307.873 303.955 307.873 307.618V334.114C307.873 335.73 309.182 337.038 310.798 337.038H325.903C327.519 337.038 328.828 335.73 328.828 334.114V307.618C328.828 303.955 327.695 300.372 325.578 297.386L322.97 293.698C322.619 293.215 322.434 292.644 322.434 292.047Z" fill="white" stroke="#F6B9D5" stroke-miterlimit="10"/>
<path d="M307.864 310.147V334.123C307.864 335.739 309.173 337.047 310.789 337.047H325.894C327.51 337.047 328.819 335.739 328.819 334.123V310.147H307.864Z" fill="white" stroke="#F6B9D5" stroke-miterlimit="10"/>
<path d="M343.837 287.901H335.01C334.123 287.901 333.412 287.181 333.412 286.303V285.899C333.412 285.012 334.132 284.301 335.01 284.301H343.837C344.724 284.301 345.435 285.021 345.435 285.899V286.303C345.435 287.181 344.724 287.901 343.837 287.901Z" fill="#E94B60" stroke="#F6B9D5" stroke-miterlimit="10"/>
<path d="M343.512 292.047V287.901H335.335V292.047C335.335 292.635 335.151 293.215 334.809 293.698L332.2 297.386C330.084 300.381 328.951 303.955 328.951 307.618V334.114C328.951 335.73 330.259 337.038 331.875 337.038H346.981C348.597 337.038 349.905 335.73 349.905 334.114V307.618C349.905 303.955 348.772 300.372 346.656 297.386L344.048 293.698C343.696 293.215 343.512 292.644 343.512 292.047Z" fill="white" stroke="#F6B9D5" stroke-miterlimit="10"/>
<path d="M328.942 310.147V334.123C328.942 335.739 330.25 337.047 331.866 337.047H346.972C348.588 337.047 349.897 335.739 349.897 334.123V310.147H328.942Z" fill="white" stroke="#F6B9D5" stroke-miterlimit="10"/>
<path d="M364.273 287.901H355.447C354.56 287.901 353.849 287.181 353.849 286.303V285.899C353.849 285.012 354.569 284.301 355.447 284.301H364.273C365.16 284.301 365.872 285.021 365.872 285.899V286.303C365.872 287.181 365.16 287.901 364.273 287.901Z" fill="#E94B60" stroke="#F6B9D5" stroke-miterlimit="10"/>
<path d="M363.948 292.047V287.901H355.772V292.047C355.772 292.635 355.588 293.215 355.245 293.698L352.637 297.386C350.52 300.381 349.387 303.955 349.387 307.618V334.114C349.387 335.73 350.696 337.038 352.312 337.038H367.417C369.033 337.038 370.342 335.73 370.342 334.114V307.618C370.342 303.955 369.209 300.372 367.092 297.386L364.484 293.698C364.133 293.215 363.948 292.644 363.948 292.047Z" fill="white" stroke="#F6B9D5" stroke-miterlimit="10"/>
<path d="M349.378 310.147V334.123C349.378 335.739 350.687 337.047 352.303 337.047H367.409C369.024 337.047 370.333 335.739 370.333 334.123V310.147H349.378Z" fill="white" stroke="#F6B9D5" stroke-miterlimit="10"/>
<path d="M385.351 287.901H376.525C375.638 287.901 374.926 287.181 374.926 286.303V285.899C374.926 285.012 375.646 284.301 376.525 284.301H385.351C386.238 284.301 386.949 285.021 386.949 285.899V286.303C386.958 287.181 386.238 287.901 385.351 287.901Z" fill="#E94B60" stroke="#F6B9D5" stroke-miterlimit="10"/>
<path d="M385.026 292.047V287.901H376.85V292.047C376.85 292.635 376.665 293.215 376.323 293.698L373.714 297.386C371.598 300.381 370.465 303.955 370.465 307.618V334.114C370.465 335.73 371.773 337.038 373.389 337.038H388.495C390.111 337.038 391.419 335.73 391.419 334.114V307.618C391.419 303.955 390.287 300.372 388.17 297.386L385.562 293.698C385.21 293.215 385.026 292.644 385.026 292.047Z" fill="white" stroke="#F6B9D5" stroke-miterlimit="10"/>
<path d="M370.456 310.147V334.123C370.456 335.739 371.765 337.047 373.381 337.047H388.486C390.102 337.047 391.411 335.739 391.411 334.123V310.147H370.456Z" fill="white" stroke="#F6B9D5" stroke-miterlimit="10"/>
<path d="M406.534 287.901H397.708C396.821 287.901 396.109 287.181 396.109 286.303V285.899C396.109 285.012 396.83 284.301 397.708 284.301H406.534C407.421 284.301 408.132 285.021 408.132 285.899V286.303C408.132 287.181 407.412 287.901 406.534 287.901Z" fill="#E94B60" stroke="#F6B9D5" stroke-miterlimit="10"/>
<path d="M406.209 292.047V287.901H398.033V292.047C398.033 292.635 397.848 293.215 397.506 293.698L394.897 297.386C392.781 300.381 391.648 303.955 391.648 307.618V334.114C391.648 335.73 392.957 337.038 394.572 337.038H409.678C411.294 337.038 412.603 335.73 412.603 334.114V307.618C412.603 303.955 411.47 300.372 409.353 297.386L406.745 293.698C406.393 293.215 406.209 292.644 406.209 292.047Z" fill="white" stroke="#F6B9D5" stroke-miterlimit="10"/>
<path d="M391.639 310.147V334.123C391.639 335.739 392.948 337.047 394.564 337.047H409.669C411.285 337.047 412.594 335.739 412.594 334.123V310.147H391.639Z" fill="white" stroke="#F6B9D5" stroke-miterlimit="10"/>
<path d="M427.612 287.901H418.785C417.898 287.901 417.187 287.181 417.187 286.303V285.899C417.187 285.012 417.907 284.301 418.785 284.301H427.612C428.499 284.301 429.21 285.021 429.21 285.899V286.303C429.21 287.181 428.499 287.901 427.612 287.901Z" fill="#E94B60" stroke="#F6B9D5" stroke-miterlimit="10"/>
<path d="M427.287 292.047V287.901H419.11V292.047C419.11 292.635 418.926 293.215 418.583 293.698L415.975 297.386C413.858 300.381 412.726 303.955 412.726 307.618V334.114C412.726 335.73 414.034 337.038 415.65 337.038H430.756C432.372 337.038 433.68 335.73 433.68 334.114V307.618C433.68 303.955 432.547 300.372 430.431 297.386L427.822 293.698C427.471 293.215 427.287 292.644 427.287 292.047Z" fill="white" stroke="#F6B9D5" stroke-miterlimit="10"/>
<path d="M412.717 310.147V334.123C412.717 335.739 414.025 337.047 415.641 337.047H430.747C432.363 337.047 433.671 335.739 433.671 334.123V310.147H412.717Z" fill="white" stroke="#F6B9D5" stroke-miterlimit="10"/>
<path d="M448.566 287.901H439.74C438.853 287.901 438.142 287.181 438.142 286.303V285.899C438.142 285.012 438.862 284.301 439.74 284.301H448.566C449.453 284.301 450.165 285.021 450.165 285.899V286.303C450.173 287.181 449.453 287.901 448.566 287.901Z" fill="#E94B60" stroke="#F6B9D5" stroke-miterlimit="10"/>
<path d="M448.241 292.047V287.901H440.065V292.047C440.065 292.635 439.881 293.215 439.538 293.698L436.93 297.386C434.813 300.381 433.68 303.955 433.68 307.618V334.114C433.68 335.73 434.989 337.038 436.605 337.038H451.71C453.326 337.038 454.635 335.73 454.635 334.114V307.618C454.635 303.955 453.502 300.372 451.385 297.386L448.777 293.698C448.426 293.215 448.241 292.644 448.241 292.047Z" fill="white" stroke="#F6B9D5" stroke-miterlimit="10"/>
<path d="M433.671 310.147V334.123C433.671 335.739 434.98 337.047 436.596 337.047H451.702C453.318 337.047 454.626 335.739 454.626 334.123V310.147H433.671Z" fill="white" stroke="#F6B9D5" stroke-miterlimit="10"/>
<path d="M469.644 287.901H460.818C459.931 287.901 459.219 287.181 459.219 286.303V285.899C459.219 285.012 459.939 284.301 460.818 284.301H469.644C470.531 284.301 471.242 285.021 471.242 285.899V286.303C471.251 287.181 470.531 287.901 469.644 287.901Z" fill="#E94B60" stroke="#F6B9D5" stroke-miterlimit="10"/>
<path d="M469.319 292.047V287.901H461.143V292.047C461.143 292.635 460.958 293.215 460.616 293.698L458.007 297.386C455.891 300.381 454.758 303.955 454.758 307.618V334.114C454.758 335.73 456.066 337.038 457.682 337.038H472.788C474.404 337.038 475.712 335.73 475.712 334.114V307.618C475.712 303.955 474.58 300.372 472.463 297.386L469.855 293.698C469.503 293.215 469.319 292.644 469.319 292.047Z" fill="white" stroke="#F6B9D5" stroke-miterlimit="10"/>
<path d="M454.758 310.147V334.123C454.758 335.739 456.066 337.047 457.682 337.047H472.788C474.404 337.047 475.712 335.739 475.712 334.123V310.147H454.758Z" fill="white" stroke="#F6B9D5" stroke-miterlimit="10"/>
<path d="M191.894 51.0331V0.403015" stroke="#4F4898" stroke-miterlimit="10"/>
<path d="M223.44 51.0331V0.403015" stroke="#4F4898" stroke-miterlimit="10"/>
<path d="M254.977 51.0331V0.403015" stroke="#4F4898" stroke-miterlimit="10"/>
<path d="M286.523 51.0331V0.403015" stroke="#4F4898" stroke-miterlimit="10"/>
<path d="M318.069 51.0331V0.403015" stroke="#4F4898" stroke-miterlimit="10"/>
<path d="M349.607 51.0331V0.403015" stroke="#4F4898" stroke-miterlimit="10"/>
<path d="M381.153 51.0331V0.403015" stroke="#4F4898" stroke-miterlimit="10"/>
<path d="M412.699 51.0331V0.403015" stroke="#4F4898" stroke-miterlimit="10"/>
<path d="M217.828 208.623H166.039L169.876 166.512C170.377 161.032 174.97 156.834 180.477 156.834H203.39C208.896 156.834 213.49 161.032 213.99 166.512L217.828 208.623Z" fill="white" stroke="#4F4898" stroke-miterlimit="10"/>
<path d="M191.929 198.971C200.897 198.971 208.167 191.701 208.167 182.733C208.167 173.765 200.897 166.494 191.929 166.494C182.961 166.494 175.69 173.765 175.69 182.733C175.69 191.701 182.961 198.971 191.929 198.971Z" fill="#FAD8E9" stroke="#4F4898" stroke-miterlimit="10"/>
<path d="M198.357 147.121H185.5V156.834H198.357V147.121Z" fill="white" stroke="#4F4898" stroke-miterlimit="10"/>
<path d="M205.498 147.121H178.369C171.229 147.121 165.433 144.222 165.433 140.639H218.425C218.425 144.222 212.638 147.121 205.498 147.121Z" fill="white" stroke="#4F4898" stroke-miterlimit="10"/>
<path d="M191.929 182.733V173.108" stroke="#4F4898" stroke-miterlimit="10"/>
<path d="M179.484 182.733H175.69" stroke="#4F4898" stroke-miterlimit="10"/>
<path d="M208.168 182.733H204.382" stroke="#4F4898" stroke-miterlimit="10"/>
<path d="M191.92 198.98V195.186" stroke="#4F4898" stroke-miterlimit="10"/>
<path d="M191.92 170.28V166.494" stroke="#4F4898" stroke-miterlimit="10"/>
<path d="M200.097 173.108L202.775 170.429" stroke="#4F4898" stroke-miterlimit="10"/>
<path d="M179.625 193.579L182.304 190.901" stroke="#4F4898" stroke-miterlimit="10"/>
<path d="M183.076 173.88L180.389 171.202" stroke="#4F4898" stroke-miterlimit="10"/>
<path d="M203.548 194.352L200.86 191.673" stroke="#4F4898" stroke-miterlimit="10"/>
<path d="M475.414 332.823H97.958V413.726H475.414V332.823Z" fill="#DFEAF8" stroke="#4F4898" stroke-miterlimit="10"/>
<path d="M414.482 257.637H387.722C384.815 257.637 382.444 255.257 382.444 252.359V251.042C382.444 248.135 384.824 245.764 387.722 245.764H414.482C417.389 245.764 419.76 248.144 419.76 251.042V252.359C419.769 255.266 417.389 257.637 414.482 257.637Z" fill="#04856C" stroke="#CFE3BC" stroke-miterlimit="10"/>
<path d="M389.83 248.486H390.708" stroke="#CFE3BC" stroke-miterlimit="10" stroke-linecap="round"/>
<path d="M393.887 248.486H411.346" stroke="#CFE3BC" stroke-miterlimit="10" stroke-linecap="round" stroke-dasharray="1.81 1.81"/>
<path d="M412.936 248.486H413.814" stroke="#CFE3BC" stroke-miterlimit="10" stroke-linecap="round"/>
<path d="M389.83 251.701H390.708" stroke="#CFE3BC" stroke-miterlimit="10" stroke-linecap="round"/>
<path d="M393.887 251.701H411.346" stroke="#CFE3BC" stroke-miterlimit="10" stroke-linecap="round" stroke-dasharray="1.81 1.81"/>
<path d="M412.936 251.701H413.814" stroke="#CFE3BC" stroke-miterlimit="10" stroke-linecap="round"/>
<path d="M389.83 254.915H390.708" stroke="#CFE3BC" stroke-miterlimit="10" stroke-linecap="round"/>
<path d="M393.887 254.915H411.346" stroke="#CFE3BC" stroke-miterlimit="10" stroke-linecap="round" stroke-dasharray="1.81 1.81"/>
<path d="M412.936 254.915H413.814" stroke="#CFE3BC" stroke-miterlimit="10" stroke-linecap="round"/>
<path d="M442.339 245.764H415.579C412.673 245.764 410.301 243.384 410.301 240.486V239.168C410.301 236.261 412.681 233.89 415.579 233.89H442.339C445.246 233.89 447.617 236.27 447.617 239.168V240.486C447.617 243.384 445.246 245.764 442.339 245.764Z" fill="#04856C" stroke="#CFE3BC" stroke-miterlimit="10"/>
<path d="M417.687 236.604H418.565" stroke="#CFE3BC" stroke-miterlimit="10" stroke-linecap="round"/>
<path d="M421.736 236.604H439.204" stroke="#CFE3BC" stroke-miterlimit="10" stroke-linecap="round" stroke-dasharray="1.81 1.81"/>
<path d="M440.793 236.604H441.672" stroke="#CFE3BC" stroke-miterlimit="10" stroke-linecap="round"/>
<path d="M417.687 239.818H418.565" stroke="#CFE3BC" stroke-miterlimit="10" stroke-linecap="round"/>
<path d="M421.736 239.818H439.204" stroke="#CFE3BC" stroke-miterlimit="10" stroke-linecap="round" stroke-dasharray="1.81 1.81"/>
<path d="M440.793 239.818H441.672" stroke="#CFE3BC" stroke-miterlimit="10" stroke-linecap="round"/>
<path d="M417.687 243.041H418.565" stroke="#CFE3BC" stroke-miterlimit="10" stroke-linecap="round"/>
<path d="M421.736 243.041H439.204" stroke="#CFE3BC" stroke-miterlimit="10" stroke-linecap="round" stroke-dasharray="1.81 1.81"/>
<path d="M440.793 243.041H441.672" stroke="#CFE3BC" stroke-miterlimit="10" stroke-linecap="round"/>
<path d="M417.986 233.881H391.226C388.319 233.881 385.948 231.501 385.948 228.603V227.286C385.948 224.379 388.328 222.008 391.226 222.008H417.986C420.893 222.008 423.264 224.388 423.264 227.286V228.603C423.264 231.501 420.893 233.881 417.986 233.881Z" fill="#04856C" stroke="#CFE3BC" stroke-miterlimit="10"/>
<path d="M393.334 224.721H394.212" stroke="#CFE3BC" stroke-miterlimit="10" stroke-linecap="round"/>
<path d="M397.383 224.721H414.851" stroke="#CFE3BC" stroke-miterlimit="10" stroke-linecap="round" stroke-dasharray="1.81 1.81"/>
<path d="M416.44 224.721H417.319" stroke="#CFE3BC" stroke-miterlimit="10" stroke-linecap="round"/>
<path d="M393.334 227.944H394.212" stroke="#CFE3BC" stroke-miterlimit="10" stroke-linecap="round"/>
<path d="M397.383 227.944H414.851" stroke="#CFE3BC" stroke-miterlimit="10" stroke-linecap="round" stroke-dasharray="1.81 1.81"/>
<path d="M416.44 227.944H417.319" stroke="#CFE3BC" stroke-miterlimit="10" stroke-linecap="round"/>
<path d="M393.334 231.159H394.212" stroke="#CFE3BC" stroke-miterlimit="10" stroke-linecap="round"/>
<path d="M397.383 231.159H414.851" stroke="#CFE3BC" stroke-miterlimit="10" stroke-linecap="round" stroke-dasharray="1.81 1.81"/>
<path d="M416.44 231.159H417.319" stroke="#CFE3BC" stroke-miterlimit="10" stroke-linecap="round"/>
<path d="M238.361 275.185H244.816" stroke="#04856C" stroke-miterlimit="10" stroke-linecap="round" stroke-linejoin="round"/>
<path d="M239.731 277.161L243.446 272.963" stroke="#04856C" stroke-miterlimit="10" stroke-linecap="round" stroke-linejoin="round"/>
<path d="M239.977 272.963L243.2 277.406" stroke="#04856C" stroke-miterlimit="10" stroke-linecap="round" stroke-linejoin="round"/>
<path d="M226.97 289.35H233.434" stroke="#04856C" stroke-miterlimit="10" stroke-linecap="round" stroke-linejoin="round"/>
<path d="M228.349 291.326L232.055 287.137" stroke="#04856C" stroke-miterlimit="10" stroke-linecap="round" stroke-linejoin="round"/>
<path d="M228.586 287.137L231.818 291.572" stroke="#04856C" stroke-miterlimit="10" stroke-linecap="round" stroke-linejoin="round"/>
<path d="M216.599 305.457H223.062" stroke="#04856C" stroke-miterlimit="10" stroke-linecap="round" stroke-linejoin="round"/>
<path d="M217.978 307.433L221.684 303.235" stroke="#04856C" stroke-miterlimit="10" stroke-linecap="round" stroke-linejoin="round"/>
<path d="M218.215 303.235L221.447 307.679" stroke="#04856C" stroke-miterlimit="10" stroke-linecap="round" stroke-linejoin="round"/>
<path d="M204.207 321.178H210.662" stroke="#04856C" stroke-miterlimit="10" stroke-linecap="round" stroke-linejoin="round"/>
<path d="M205.577 323.145L209.292 318.956" stroke="#04856C" stroke-miterlimit="10" stroke-linecap="round" stroke-linejoin="round"/>
<path d="M205.814 318.956L209.046 323.391" stroke="#04856C" stroke-miterlimit="10" stroke-linecap="round" stroke-linejoin="round"/>
<path d="M227.813 321.178H234.277" stroke="#04856C" stroke-miterlimit="10" stroke-linecap="round" stroke-linejoin="round"/>
<path d="M229.184 323.145L232.899 318.956" stroke="#04856C" stroke-miterlimit="10" stroke-linecap="round" stroke-linejoin="round"/>
<path d="M229.43 318.956L232.662 323.391" stroke="#04856C" stroke-miterlimit="10" stroke-linecap="round" stroke-linejoin="round"/>
<path d="M250.112 321.178H256.576" stroke="#04856C" stroke-miterlimit="10" stroke-linecap="round" stroke-linejoin="round"/>
<path d="M251.491 323.145L255.206 318.956" stroke="#04856C" stroke-miterlimit="10" stroke-linecap="round" stroke-linejoin="round"/>
<path d="M251.728 318.956L254.96 323.391" stroke="#04856C" stroke-miterlimit="10" stroke-linecap="round" stroke-linejoin="round"/>
<path d="M272.928 321.178H279.383" stroke="#04856C" stroke-miterlimit="10" stroke-linecap="round" stroke-linejoin="round"/>
<path d="M274.298 323.145L278.013 318.956" stroke="#04856C" stroke-miterlimit="10" stroke-linecap="round" stroke-linejoin="round"/>
<path d="M274.544 318.956L277.768 323.391" stroke="#04856C" stroke-miterlimit="10" stroke-linecap="round" stroke-linejoin="round"/>
<path d="M238.361 305.457H244.816" stroke="#04856C" stroke-miterlimit="10" stroke-linecap="round" stroke-linejoin="round"/>
<path d="M239.731 307.433L243.446 303.235" stroke="#04856C" stroke-miterlimit="10" stroke-linecap="round" stroke-linejoin="round"/>
<path d="M239.977 303.235L243.2 307.679" stroke="#04856C" stroke-miterlimit="10" stroke-linecap="round" stroke-linejoin="round"/>
<path d="M261.02 305.457H267.483" stroke="#04856C" stroke-miterlimit="10" stroke-linecap="round" stroke-linejoin="round"/>
<path d="M262.398 307.433L266.113 303.235" stroke="#04856C" stroke-miterlimit="10" stroke-linecap="round" stroke-linejoin="round"/>
<path d="M262.636 303.235L265.868 307.679" stroke="#04856C" stroke-miterlimit="10" stroke-linecap="round" stroke-linejoin="round"/>
<path d="M249.787 289.35H256.242" stroke="#04856C" stroke-miterlimit="10" stroke-linecap="round" stroke-linejoin="round"/>
<path d="M251.157 291.326L254.872 287.137" stroke="#04856C" stroke-miterlimit="10" stroke-linecap="round" stroke-linejoin="round"/>
<path d="M251.394 287.137L254.626 291.572" stroke="#04856C" stroke-miterlimit="10" stroke-linecap="round" stroke-linejoin="round"/>
<path d="M190.023 276.493C187.818 280.937 177.323 296.007 174.32 294.515C171.325 293.03 176.963 275.553 179.168 271.11C181.372 266.666 185.588 264.268 188.591 265.752C191.586 267.237 192.227 272.049 190.023 276.493Z" fill="#CFE3BC" stroke="#A0CB7D" stroke-miterlimit="10"/>
<path d="M183.226 276.669C182.593 280.955 177.649 296.271 174.399 295.797C171.141 295.322 170.807 279.233 171.44 274.939C172.072 270.644 175.216 267.561 178.474 268.036C181.724 268.51 183.849 272.374 183.226 276.669Z" fill="#CFE3BC" stroke="#A1CB7C" stroke-miterlimit="10"/>
<path d="M190.664 285.662C187.722 288.578 174.961 297.246 172.52 294.778C170.078 292.31 178.87 279.637 181.812 276.721C184.754 273.806 189.127 273.446 191.569 275.913C194.01 278.381 193.606 282.746 190.664 285.662Z" fill="#CFE3BC" stroke="#A1CB7C" stroke-miterlimit="10"/>
<path d="M180.801 309.48C177.684 315.768 161.489 319.808 161.489 319.808C161.489 319.808 154.902 304.474 158.02 298.185C161.138 291.897 168.77 289.324 175.058 292.442C181.346 295.56 183.919 303.191 180.801 309.48Z" fill="#7677B7" stroke="#4F4898" stroke-miterlimit="10"/>
<path d="M150.16 264.857C150.011 269.819 152.163 288.051 155.5 288.156C158.846 288.261 162.113 270.187 162.262 265.234C162.411 260.272 159.829 256.171 156.483 256.065C153.137 255.96 150.309 259.894 150.16 264.857Z" fill="#CFE3BC" stroke="#A0CB7D" stroke-miterlimit="10"/>
<path d="M156.071 268.211C154.604 272.295 151.741 288.13 154.832 289.236C157.932 290.352 165.81 276.317 167.277 272.242C168.743 268.159 167.426 263.952 164.326 262.837C161.243 261.73 157.546 264.136 156.071 268.211Z" fill="#CFE3BC" stroke="#A1CB7C" stroke-miterlimit="10"/>
<path d="M145.269 272.629C146.489 276.59 153.647 290.246 156.967 289.227C160.286 288.2 158.504 272.884 157.283 268.923C156.062 264.962 152.382 262.582 149.063 263.609C145.752 264.637 144.048 268.677 145.269 272.629Z" fill="#CFE3BC" stroke="#A1CB7C" stroke-miterlimit="10"/>
<path d="M142.73 298.291C142.511 305.308 154.885 316.505 154.885 316.505C154.885 316.505 167.927 306.098 168.138 299.072C168.357 292.055 162.842 286.189 155.825 285.978C148.808 285.767 142.95 291.274 142.73 298.291Z" fill="#DE1182" stroke="#4F4898" stroke-miterlimit="10"/>
<path d="M145.787 296.569L149.739 295.472" stroke="#4F4898" stroke-miterlimit="10"/>
<path d="M153.454 300.592L157.775 300.75" stroke="#4F4898" stroke-miterlimit="10"/>
<path d="M161.156 295.384L164.282 296.569" stroke="#4F4898" stroke-miterlimit="10"/>
<path d="M157.687 307.943L160.189 309.12" stroke="#4F4898" stroke-miterlimit="10"/>
<path d="M150.151 309.12L152.163 307.679" stroke="#4F4898" stroke-miterlimit="10"/>
<path d="M380.494 82.8603H363.764C359.97 82.8603 356.887 85.9341 356.887 89.7369V101.022H387.406V89.772C387.406 85.9517 384.314 82.8603 380.494 82.8603Z" fill="#E94B60" stroke="#4F4898" stroke-width="0.92" stroke-miterlimit="10" stroke-linecap="round"/>
<path d="M387.406 97.9483H336.064" stroke="#4F4898" stroke-width="0.92" stroke-miterlimit="10" stroke-linecap="round"/>
<path d="M372.142 95.7176C375.174 95.7176 377.631 93.2601 377.631 90.2287C377.631 87.1972 375.174 84.7397 372.142 84.7397C369.111 84.7397 366.653 87.1972 366.653 90.2287C366.653 93.2601 369.111 95.7176 372.142 95.7176Z" stroke="#FCDBC9" stroke-miterlimit="10"/>
<path d="M369.762 89.3944L371.905 92.0291L375.163 87.9628" stroke="#FCDBC9" stroke-miterlimit="10"/>
<path d="M227.304 260.825H209.695V278.434H227.304V260.825Z" fill="#6EB74A" stroke="#CDE3BB" stroke-miterlimit="10"/>
<path d="M213.349 268.475L217.45 273.498L223.65 265.752" fill="#6EB74A"/>
<path d="M213.349 268.475L217.45 273.498L223.65 265.752" stroke="#CDE3BB" stroke-miterlimit="10"/>
<path d="M227.304 324.023H209.695V341.632H227.304V324.023Z" fill="#6EB74A" stroke="#CDE3BB" stroke-miterlimit="10"/>
<path d="M213.349 331.672L217.45 336.696L223.65 328.95" fill="#6EB74A"/>
<path d="M213.349 331.672L217.45 336.696L223.65 328.95" stroke="#CDE3BB" stroke-miterlimit="10"/>
<path d="M137.347 324.023H119.738V341.632H137.347V324.023Z" fill="#6EB74A" stroke="#CDE3BB" stroke-miterlimit="10"/>
<path d="M123.392 331.672L127.484 336.696L133.693 328.95" fill="#6EB74A"/>
<path d="M123.392 331.672L127.484 336.696L133.693 328.95" stroke="#CDE3BB" stroke-miterlimit="10"/>
<path d="M316.673 324.023H299.064V341.632H316.673V324.023Z" fill="#6EB74A" stroke="#CDE3BB" stroke-miterlimit="10"/>
<path d="M302.709 331.672L306.81 336.696L313.019 328.95" fill="#6EB74A"/>
<path d="M302.709 331.672L306.81 336.696L313.019 328.95" stroke="#CDE3BB" stroke-miterlimit="10"/>
<path d="M316.673 260.685H299.064V278.293H316.673V260.685Z" fill="#6EB74A" stroke="#CDE3BB" stroke-miterlimit="10"/>
<path d="M302.709 268.334L306.81 273.367L313.019 265.612" fill="#6EB74A"/>
<path d="M302.709 268.334L306.81 273.367L313.019 265.612" stroke="#CDE3BB" stroke-miterlimit="10"/>
<path d="M394.08 260.685H376.472V278.293H394.08V260.685Z" fill="#6EB74A" stroke="#CDE3BB" stroke-miterlimit="10"/>
<path d="M380.125 268.334L384.226 273.367L390.427 265.612" fill="#6EB74A"/>
<path d="M380.125 268.334L384.226 273.367L390.427 265.612" stroke="#CDE3BB" stroke-miterlimit="10"/>
<path d="M582.137 0.403015H498.722V259.359H582.137V0.403015Z" stroke="#4F4898" stroke-miterlimit="10"/>
<path d="M543.741 7.26202H509.077V29.0861H543.741V7.26202Z" stroke="#4F4898" stroke-miterlimit="10"/>
<path d="M543.741 29.0861V7.26202" stroke="#4F4898" stroke-miterlimit="10"/>
<path d="M532.183 29.0861V7.26202" stroke="#4F4898" stroke-miterlimit="10"/>
<path d="M520.634 29.0861V7.26202" stroke="#4F4898" stroke-miterlimit="10"/>
<path d="M509.077 29.0861V7.26202" stroke="#4F4898" stroke-miterlimit="10"/>
<path d="M509.077 14.9641H543.741" stroke="#4F4898" stroke-miterlimit="10"/>
<path d="M543.741 50.4008H509.077V72.2249H543.741V50.4008Z" stroke="#4F4898" stroke-miterlimit="10"/>
<path d="M543.741 72.2249V50.4008" stroke="#4F4898" stroke-miterlimit="10"/>
<path d="M532.183 72.2249V50.4008" stroke="#4F4898" stroke-miterlimit="10"/>
<path d="M520.634 72.2249V50.4008" stroke="#4F4898" stroke-miterlimit="10"/>
<path d="M509.077 72.2249V50.4008" stroke="#4F4898" stroke-miterlimit="10"/>
<path d="M509.077 58.1029H543.741" stroke="#4F4898" stroke-miterlimit="10"/>
<path d="M543.741 93.5309H509.077V115.355H543.741V93.5309Z" stroke="#4F4898" stroke-miterlimit="10"/>
<path d="M543.741 115.355V93.5309" stroke="#4F4898" stroke-miterlimit="10"/>
<path d="M532.183 115.355V93.5309" stroke="#4F4898" stroke-miterlimit="10"/>
<path d="M520.634 115.355V93.5309" stroke="#4F4898" stroke-miterlimit="10"/>
<path d="M509.077 115.355V93.5309" stroke="#4F4898" stroke-miterlimit="10"/>
<path d="M509.077 101.233H543.741" stroke="#4F4898" stroke-miterlimit="10"/>
<path d="M543.741 136.661H509.077V158.485H543.741V136.661Z" stroke="#4F4898" stroke-miterlimit="10"/>
<path d="M543.741 158.485V136.661" stroke="#4F4898" stroke-miterlimit="10"/>
<path d="M532.183 158.485V136.661" stroke="#4F4898" stroke-miterlimit="10"/>
<path d="M520.634 158.485V136.661" stroke="#4F4898" stroke-miterlimit="10"/>
<path d="M509.077 158.485V136.661" stroke="#4F4898" stroke-miterlimit="10"/>
<path d="M509.077 144.363H543.741" stroke="#4F4898" stroke-miterlimit="10"/>
<path d="M543.741 179.791H509.077V201.615H543.741V179.791Z" stroke="#4F4898" stroke-miterlimit="10"/>
<path d="M543.741 201.615V179.791" stroke="#4F4898" stroke-miterlimit="10"/>
<path d="M532.183 201.615V179.791" stroke="#4F4898" stroke-miterlimit="10"/>
<path d="M520.634 201.615V179.791" stroke="#4F4898" stroke-miterlimit="10"/>
<path d="M509.077 201.615V179.791" stroke="#4F4898" stroke-miterlimit="10"/>
<path d="M509.077 187.493H543.741" stroke="#4F4898" stroke-miterlimit="10"/>
<path d="M543.741 222.921H509.077V244.745H543.741V222.921Z" stroke="#4F4898" stroke-miterlimit="10"/>
<path d="M543.741 244.745V222.921" stroke="#4F4898" stroke-miterlimit="10"/>
<path d="M532.183 244.745V222.921" stroke="#4F4898" stroke-miterlimit="10"/>
<path d="M520.634 244.745V222.921" stroke="#4F4898" stroke-miterlimit="10"/>
<path d="M509.077 244.745V222.921" stroke="#4F4898" stroke-miterlimit="10"/>
<path d="M509.077 230.623H543.741" stroke="#4F4898" stroke-miterlimit="10"/>
<path d="M9.70438 7.34982H-24.9595V29.1739H9.70438V7.34982Z" stroke="#4F4898" stroke-miterlimit="10"/>
<path d="M9.70459 29.1739V7.34982" stroke="#4F4898" stroke-miterlimit="10"/>
<path d="M-24.9595 15.0607H9.70438" stroke="#4F4898" stroke-miterlimit="10"/>
<path d="M9.70438 50.4886H-24.9595V72.3127H9.70438V50.4886Z" stroke="#4F4898" stroke-miterlimit="10"/>
<path d="M9.70459 72.3127V50.4886" stroke="#4F4898" stroke-miterlimit="10"/>
<path d="M-24.9595 58.1907H9.70438" stroke="#4F4898" stroke-miterlimit="10"/>
<path d="M9.70438 93.6187H-24.9595V115.443H9.70438V93.6187Z" stroke="#4F4898" stroke-miterlimit="10"/>
<path d="M9.70459 115.443V93.6187" stroke="#4F4898" stroke-miterlimit="10"/>
<path d="M-24.9595 101.321H9.70438" stroke="#4F4898" stroke-miterlimit="10"/>
<path d="M9.70438 136.749H-24.9595V158.573H9.70438V136.749Z" stroke="#4F4898" stroke-miterlimit="10"/>
<path d="M9.70459 158.573V136.749" stroke="#4F4898" stroke-miterlimit="10"/>
<path d="M-24.9595 144.451H9.70438" stroke="#4F4898" stroke-miterlimit="10"/>
<path d="M9.70438 179.879H-24.9595V201.703H9.70438V179.879Z" stroke="#4F4898" stroke-miterlimit="10"/>
<path d="M9.70459 201.703V179.879" stroke="#4F4898" stroke-miterlimit="10"/>
<path d="M-24.9595 187.581H9.70438" stroke="#4F4898" stroke-miterlimit="10"/>
<path d="M9.70438 223.009H-24.9595V244.833H9.70438V223.009Z" stroke="#4F4898" stroke-miterlimit="10"/>
<path d="M9.70459 244.833V223.009" stroke="#4F4898" stroke-miterlimit="10"/>
<path d="M-24.9595 230.711H9.70438" stroke="#4F4898" stroke-miterlimit="10"/>
<path d="M64.5852 7.34982H29.9214V29.1739H64.5852V7.34982Z" stroke="#4F4898" stroke-miterlimit="10"/>
<path d="M64.5854 29.1739V7.34982" stroke="#4F4898" stroke-miterlimit="10"/>
<path d="M53.0278 29.1739V7.34982" stroke="#4F4898" stroke-miterlimit="10"/>
<path d="M41.479 29.1739V7.34982" stroke="#4F4898" stroke-miterlimit="10"/>
<path d="M29.9214 29.1739V7.34982" stroke="#4F4898" stroke-miterlimit="10"/>
<path d="M29.9214 15.0607H64.5852" stroke="#4F4898" stroke-miterlimit="10"/>
<path d="M64.5852 50.4886H29.9214V72.3127H64.5852V50.4886Z" stroke="#4F4898" stroke-miterlimit="10"/>
<path d="M64.5854 72.3127V50.4886" stroke="#4F4898" stroke-miterlimit="10"/>
<path d="M53.0278 72.3127V50.4886" stroke="#4F4898" stroke-miterlimit="10"/>
<path d="M41.479 72.3127V50.4886" stroke="#4F4898" stroke-miterlimit="10"/>
<path d="M29.9214 72.3127V50.4886" stroke="#4F4898" stroke-miterlimit="10"/>
<path d="M29.9214 58.1907H64.5852" stroke="#4F4898" stroke-miterlimit="10"/>
<path d="M64.5852 93.6187H29.9214V115.443H64.5852V93.6187Z" stroke="#4F4898" stroke-miterlimit="10"/>
<path d="M64.5854 115.443V93.6187" stroke="#4F4898" stroke-miterlimit="10"/>
<path d="M53.0278 115.443V93.6187" stroke="#4F4898" stroke-miterlimit="10"/>
<path d="M41.479 115.443V93.6187" stroke="#4F4898" stroke-miterlimit="10"/>
<path d="M29.9214 115.443V93.6187" stroke="#4F4898" stroke-miterlimit="10"/>
<path d="M29.9214 101.321H64.5852" stroke="#4F4898" stroke-miterlimit="10"/>
<path d="M64.5852 136.749H29.9214V158.573H64.5852V136.749Z" stroke="#4F4898" stroke-miterlimit="10"/>
<path d="M64.5854 158.573V136.749" stroke="#4F4898" stroke-miterlimit="10"/>
<path d="M53.0278 158.573V136.749" stroke="#4F4898" stroke-miterlimit="10"/>
<path d="M41.479 158.573V136.749" stroke="#4F4898" stroke-miterlimit="10"/>
<path d="M29.9214 158.573V136.749" stroke="#4F4898" stroke-miterlimit="10"/>
<path d="M29.9214 144.451H64.5852" stroke="#4F4898" stroke-miterlimit="10"/>
<path d="M64.5852 179.879H29.9214V201.703H64.5852V179.879Z" stroke="#4F4898" stroke-miterlimit="10"/>
<path d="M64.5854 201.703V179.879" stroke="#4F4898" stroke-miterlimit="10"/>
<path d="M53.0278 201.703V179.879" stroke="#4F4898" stroke-miterlimit="10"/>
<path d="M41.479 201.703V179.879" stroke="#4F4898" stroke-miterlimit="10"/>
<path d="M29.9214 201.703V179.879" stroke="#4F4898" stroke-miterlimit="10"/>
<path d="M29.9214 187.581H64.5852" stroke="#4F4898" stroke-miterlimit="10"/>
<path d="M64.5852 223.009H29.9214V244.833H64.5852V223.009Z" stroke="#4F4898" stroke-miterlimit="10"/>
<path d="M64.5854 244.833V223.009" stroke="#4F4898" stroke-miterlimit="10"/>
<path d="M53.0278 244.833V223.009" stroke="#4F4898" stroke-miterlimit="10"/>
<path d="M41.479 244.833V223.009" stroke="#4F4898" stroke-miterlimit="10"/>
<path d="M29.9214 244.833V223.009" stroke="#4F4898" stroke-miterlimit="10"/>
<path d="M29.9214 230.711H64.5852" stroke="#4F4898" stroke-miterlimit="10"/>
<path d="M423.616 431.176C446.029 431.176 464.199 415.307 464.199 395.731C464.199 376.155 446.029 360.285 423.616 360.285C401.202 360.285 383.033 376.155 383.033 395.731C383.033 415.307 401.202 431.176 423.616 431.176Z" fill="#F6A000" stroke="#FFEC83" stroke-miterlimit="10"/>
<path d="M423.616 359.6C408.089 363.508 396.962 377.27 396.417 393.158C395.864 409.352 407.975 425.793 423.616 430.474" stroke="#FFEC83" stroke-miterlimit="10"/>
<path d="M423.616 359.6V431.176" stroke="#FFEC83" stroke-miterlimit="10"/>
<path d="M423.616 359.6C439.143 363.508 450.27 377.27 450.815 393.158C451.368 409.352 439.257 425.793 423.616 430.474" stroke="#FFEC83" stroke-miterlimit="10"/>
<path d="M427.612 345.145H419.62V365.124H427.612V345.145Z" fill="#6EB74A"/>
<path d="M425.706 361.691C425.32 357.018 427.656 352.847 431.301 351.38C434.225 350.194 438.766 350.44 440.724 353.505C442.094 355.648 442.217 359.196 440.065 361.12C438.73 362.314 436.429 362.964 434.603 361.963C432.144 360.628 432.249 357.264 432.258 356.86C432.363 353.233 435.613 349.483 439.758 349.026C444.175 348.535 447.197 352.056 447.46 352.381" stroke="#6EB74A" stroke-width="2" stroke-miterlimit="10"/>
<path d="M74.4567 0.490845H-58.4023V259.429H74.4567V0.490845Z" stroke="#4F4898" stroke-miterlimit="10" stroke-linecap="square"/>
</g>
<defs>
<clipPath id="clip0_501_2259">
<rect width="563" height="498" fill="white"/>
</clipPath>
</defs>
</svg>
