<svg width="421" height="278" viewBox="0 0 421 278" fill="none" xmlns="http://www.w3.org/2000/svg">
<path d="M0 220.598C0 244.688 19.9682 264.216 44.6039 264.216C69.2396 264.216 89.2078 244.688 89.2078 220.598C89.2078 196.507 69.2396 176.979 44.6039 176.979C19.9682 176.979 0 196.507 0 220.598Z" fill="#6EB74A"/>
<path d="M0 159.212C0 183.303 19.9682 202.831 44.6039 202.831C69.2396 202.831 89.2078 183.303 89.2078 159.212C89.2078 135.122 69.2396 115.594 44.6039 115.594C19.9682 115.594 0 135.122 0 159.212Z" fill="#6EB74A"/>
<path d="M44.6035 277.313V136.989" stroke="#4F4898" stroke-width="0.92" stroke-miterlimit="10"/>
<path d="M19.5391 203.518L44.6039 225.537L73.7139 207.179" stroke="#4F4898" stroke-width="0.92" stroke-miterlimit="10"/>
<path d="M29.1421 148.842L44.6038 164.591L58.4559 150.914" stroke="#4F4898" stroke-width="0.92" stroke-miterlimit="10"/>
<path d="M76.4067 231.205L44.6035 254.19L15.7725 238.505" stroke="#4F4898" stroke-width="0.92" stroke-miterlimit="10"/>
<path d="M76.4067 170.312L44.6035 193.297L15.7725 177.613" stroke="#4F4898" stroke-width="0.92" stroke-miterlimit="10"/>
<path d="M198.695 68.2357L201.141 77.5043H183.412L176.224 72.7737L172.211 66.0217L177.104 64.9766L198.695 68.2357Z" fill="#4F4898"/>
<path d="M244.982 135.298C248.117 135.298 250.658 127.344 250.658 117.532C250.658 107.72 248.117 99.7656 244.982 99.7656C241.847 99.7656 239.306 107.72 239.306 117.532C239.306 127.344 241.847 135.298 244.982 135.298Z" fill="#6EB74A"/>
<path d="M255.62 78.2178L254.933 158.109" stroke="#6EB74A" stroke-miterlimit="10"/>
<path d="M272.057 99.2031L271.094 156.928" stroke="#6EB74A" stroke-miterlimit="10"/>
<path d="M166.413 220.86L183.042 220.86L183.042 202.132L166.413 202.132L166.413 220.86Z" fill="#F8B99B"/>
<path d="M142.059 237.163H179.468L182.162 220.868H158.358C149.343 220.868 142.059 228.156 142.059 237.163Z" fill="#DE1182"/>
<path d="M161.189 138.199L188.882 119.237L206.405 144.854L183.453 160.571C180.828 162.373 179.578 165.576 180.292 168.684L190.545 211.517H158.303L148.779 170.004C145.989 157.849 150.909 145.226 161.189 138.199Z" fill="#FFEC83"/>
<path d="M206.405 144.854L183.453 160.57C180.828 162.372 179.578 165.576 180.292 168.683L190.545 211.516" stroke="#F5ADAB" stroke-miterlimit="10"/>
<path d="M158.303 211.503L148.779 169.99C145.989 157.848 150.909 145.225 161.189 138.185L188.882 119.223" stroke="#F5ADAB" stroke-miterlimit="10"/>
<path d="M155.964 241.57L181.348 241.57L181.348 237.158L155.964 237.158L155.964 241.57Z" fill="#EAEAF7" stroke="#4F4898" stroke-miterlimit="10"/>
<path d="M199.148 224.939C199.148 253.856 222.58 277.315 251.496 277.315C280.398 277.315 303.844 253.87 303.844 224.939C303.844 196.007 280.412 172.562 251.496 172.562C222.58 172.563 199.148 196.021 199.148 224.939ZM206.762 224.939C206.762 200.27 226.827 180.194 251.482 180.194C276.152 180.194 296.203 200.27 296.203 224.939C296.203 249.607 276.138 269.683 251.482 269.683C226.827 269.683 206.762 249.621 206.762 224.939Z" fill="#F6B9D5" stroke="#4F4898" stroke-miterlimit="10"/>
<path d="M179.784 234.453H141.715" stroke="#FFEC83" stroke-miterlimit="10"/>
<path d="M35.6167 224.939C35.6167 253.856 59.049 277.315 87.9649 277.315C116.867 277.315 140.313 253.87 140.313 224.939C140.313 196.007 116.881 172.562 87.9649 172.562C59.0628 172.563 35.6167 196.021 35.6167 224.939ZM43.2442 224.939C43.2442 200.27 63.3094 180.194 87.9649 180.194C112.62 180.194 132.686 200.27 132.686 224.939C132.686 249.607 112.62 269.683 87.9649 269.683C63.3094 269.683 43.2442 249.621 43.2442 224.939Z" fill="#F6B9D5" stroke="#4F4898" stroke-miterlimit="10"/>
<path d="M251.497 231.773C255.27 231.773 258.328 228.714 258.328 224.939C258.328 221.164 255.27 218.104 251.497 218.104C247.724 218.104 244.666 221.164 244.666 224.939C244.666 228.714 247.724 231.773 251.497 231.773Z" fill="#EAEAF7" stroke="#4F4898" stroke-miterlimit="10"/>
<path d="M87.9652 231.773C91.7378 231.773 94.7961 228.714 94.7961 224.939C94.7961 221.164 91.7378 218.104 87.9652 218.104C84.1926 218.104 81.1343 221.164 81.1343 224.939C81.1343 228.714 84.1926 231.773 87.9652 231.773Z" fill="#EAEAF7" stroke="#4F4898" stroke-miterlimit="10"/>
<path d="M178.959 250.389C184.644 250.389 189.253 245.778 189.253 240.09C189.253 234.402 184.644 229.791 178.959 229.791C173.274 229.791 168.666 234.402 168.666 240.09C168.666 245.778 173.274 250.389 178.959 250.389Z" fill="#EAEAF7" stroke="#4F4898" stroke-miterlimit="10"/>
<path d="M251.496 224.937L202.886 161.218H280.288" stroke="#4F4898" stroke-miterlimit="10"/>
<path d="M199.492 201.727L121.554 148.855" stroke="#4F4898" stroke-miterlimit="10"/>
<path d="M123.148 144.896L87.9648 224.939" stroke="#4F4898" stroke-miterlimit="10"/>
<path d="M250.604 231.703L181.255 250.129" stroke="#4F4898" stroke-miterlimit="10"/>
<path d="M117.156 158.771L178.959 231.772L247.36 219.507" stroke="#4F4898" stroke-miterlimit="10"/>
<path d="M184.512 121.726L179.289 113.792H210.322L212.809 117.573C215.833 122.166 217.221 127.666 216.712 133.153L206.735 242.676H175.702L186.133 128.189C186.339 125.906 185.762 123.637 184.512 121.726Z" fill="#F6A000"/>
<path d="M200.825 113.792L203.312 117.573C206.336 122.166 207.724 127.666 207.215 133.153L197.238 242.676" stroke="#FFEC83" stroke-miterlimit="10"/>
<path d="M181.255 252.025H197.884L199.671 242.661H183.042L181.255 252.025Z" fill="#F8B99B"/>
<path d="M157.795 268.323H195.204L197.898 252.028H174.094C165.079 252.028 157.795 259.33 157.795 268.323Z" fill="#DE1182"/>
<path d="M121.704 132.987L143.116 122.399C145.563 120.763 147.611 118.604 149.109 116.06L155.898 104.537L169.009 111.907L162.302 123.197C159.595 127.748 155.266 131.117 150.18 132.616L136.396 136.672L130.39 139.161C129.593 139.491 128.672 139.257 128.136 138.584C127.669 137.992 127.037 137.539 126.308 137.36C125.965 137.277 125.621 137.236 125.278 137.222C123.505 137.195 121.952 138.556 121.718 140.316C121.704 140.371 121.704 140.412 121.704 140.454C121.704 141.361 122.446 142.104 123.354 142.104H125.91C126.693 142.104 127.325 142.736 127.325 143.52C127.325 144.304 126.693 144.936 125.91 144.936H122.172C121.086 144.936 120.041 144.51 119.286 143.74C118.516 142.97 118.09 141.925 118.09 140.852V137.786C118.09 135.586 119.56 133.62 121.704 132.987Z" fill="#F8B99B"/>
<path d="M119.286 143.781C118.516 143.011 118.09 141.966 118.09 140.894V137.827C118.09 135.586 119.56 133.62 121.718 132.987L143.13 122.399C145.577 120.763 147.624 118.604 149.122 116.06L155.912 104.537" stroke="#F5ADAB" stroke-miterlimit="10"/>
<path d="M121.719 140.345C121.705 140.4 121.705 140.441 121.705 140.482C121.705 141.39 122.447 142.132 123.354 142.132H125.911" stroke="#F5ADAB" stroke-miterlimit="10"/>
<path d="M125.402 143.329C127.618 143.329 129.415 141.531 129.415 139.313C129.415 137.096 127.618 135.298 125.402 135.298C123.185 135.298 121.388 137.096 121.388 139.313C121.388 141.531 123.185 143.329 125.402 143.329Z" fill="#EAEAF7" stroke="#4F4898" stroke-miterlimit="10"/>
<path d="M217.482 113.792L211.298 104.497C204.027 93.5515 194.517 84.2836 183.399 77.2983L176.211 72.7881L166.33 73.9019L153.466 105.803L171.153 116.433L178.465 99.0793L174.218 109.172L178.96 113.779H217.482V113.792Z" fill="#DE1182"/>
<path d="M211.298 104.482C204.027 93.5374 194.008 83.9948 182.89 77.0098L211.298 104.482Z" fill="#DE1182"/>
<path d="M211.298 104.482C204.027 93.5374 194.008 83.9948 182.89 77.0098" stroke="#F5ADAB" stroke-miterlimit="10"/>
<path d="M153.466 105.803L171.153 116.432L178.451 99.0928L174.204 109.172L178.96 113.792H217.482" fill="#DE1182"/>
<path d="M153.466 105.803L171.153 116.432L178.451 99.0928L174.204 109.172L178.96 113.792H217.482" stroke="#FFEC83" stroke-miterlimit="10"/>
<path d="M165.139 272.747L190.522 272.747L190.522 268.333L165.139 268.333L165.139 272.747Z" fill="#EAEAF7" stroke="#4F4898" stroke-miterlimit="10"/>
<path d="M121.555 148.855H108.319" stroke="#4F4898" stroke-miterlimit="10"/>
<path d="M104.732 154.343H101.873C101.475 154.343 101.145 154.013 101.145 153.614V144.111C101.145 143.712 101.475 143.382 101.873 143.382H104.732V154.343Z" fill="#FFEC83"/>
<path d="M104.732 154.343H107.591C107.989 154.343 108.319 154.013 108.319 153.614V144.111C108.319 143.712 107.989 143.382 107.591 143.382H104.732V154.343Z" fill="#EAEAF7" stroke="#4F4898" stroke-miterlimit="10"/>
<path d="M234.766 161.22L280.297 161.22L280.297 121.769L234.766 121.769L234.766 161.22Z" fill="#EAEAF7" stroke="#4F4898" stroke-miterlimit="10"/>
<path d="M280.288 121.766H234.757V161.216H280.288V121.766Z" stroke="#4F4898" stroke-miterlimit="10"/>
<path d="M280.288 154.644H234.757" stroke="#4F4898" stroke-miterlimit="10"/>
<path d="M280.288 148.071H234.757" stroke="#4F4898" stroke-miterlimit="10"/>
<path d="M280.288 141.498H234.757" stroke="#4F4898" stroke-miterlimit="10"/>
<path d="M280.288 134.912H234.757" stroke="#4F4898" stroke-miterlimit="10"/>
<path d="M280.288 128.339H234.757" stroke="#4F4898" stroke-miterlimit="10"/>
<path d="M242.343 121.766V161.216" stroke="#4F4898" stroke-miterlimit="10"/>
<path d="M249.943 121.766V161.216" stroke="#4F4898" stroke-miterlimit="10"/>
<path d="M257.529 121.766V161.216" stroke="#4F4898" stroke-miterlimit="10"/>
<path d="M265.116 121.766V161.216" stroke="#4F4898" stroke-miterlimit="10"/>
<path d="M272.702 121.766V161.216" stroke="#4F4898" stroke-miterlimit="10"/>
<path d="M279.862 105.006C284.158 105.006 287.641 102.66 287.641 99.7669C287.641 96.8737 284.158 94.5283 279.862 94.5283C275.566 94.5283 272.083 96.8737 272.083 99.7669C272.083 102.66 275.566 105.006 279.862 105.006Z" fill="#FFEC83"/>
<path d="M264.319 105.006C268.615 105.006 272.098 102.66 272.098 99.7669C272.098 96.8737 268.615 94.5283 264.319 94.5283C260.023 94.5283 256.541 96.8737 256.541 99.7669C256.541 102.66 260.023 105.006 264.319 105.006Z" fill="#FFEC83"/>
<path d="M272.057 99.8079C274.949 99.8079 277.293 96.3234 277.293 92.025C277.293 87.7267 274.949 84.2422 272.057 84.2422C269.165 84.2422 266.82 87.7267 266.82 92.025C266.82 96.3234 269.165 99.8079 272.057 99.8079Z" fill="#FFEC83"/>
<path d="M272.057 114.77C274.949 114.77 277.293 111.285 277.293 106.987C277.293 102.689 274.949 99.2041 272.057 99.2041C269.165 99.2041 266.82 102.689 266.82 106.987C266.82 111.285 269.165 114.77 272.057 114.77Z" fill="#FFEC83"/>
<path d="M272.057 101.925C273.56 101.925 274.778 100.706 274.778 99.2023C274.778 97.6985 273.56 96.4795 272.057 96.4795C270.554 96.4795 269.335 97.6985 269.335 99.2023C269.335 100.706 270.554 101.925 272.057 101.925Z" fill="#F6A000" stroke="#F6A000" stroke-miterlimit="10"/>
<path d="M263.7 83.4575C267.996 83.4575 271.479 81.1119 271.479 78.2185C271.479 75.3251 267.996 72.9795 263.7 72.9795C259.404 72.9795 255.922 75.3251 255.922 78.2185C255.922 81.1119 259.404 83.4575 263.7 83.4575Z" fill="#FFEC83"/>
<path d="M248.157 83.4575C252.453 83.4575 255.936 81.1119 255.936 78.2185C255.936 75.3251 252.453 72.9795 248.157 72.9795C243.861 72.9795 240.378 75.3251 240.378 78.2185C240.378 81.1119 243.861 83.4575 248.157 83.4575Z" fill="#FFEC83"/>
<path d="M255.894 78.2475C258.786 78.2475 261.131 74.7627 261.131 70.4641C261.131 66.1654 258.786 62.6807 255.894 62.6807C253.003 62.6807 250.658 66.1654 250.658 70.4641C250.658 74.7627 253.003 78.2475 255.894 78.2475Z" fill="#FFEC83"/>
<path d="M255.894 93.2083C258.786 93.2083 261.131 89.7238 261.131 85.4254C261.131 81.1271 258.786 77.6426 255.894 77.6426C253.003 77.6426 250.658 81.1271 250.658 85.4254C250.658 89.7238 253.003 93.2083 255.894 93.2083Z" fill="#FFEC83"/>
<path d="M255.895 80.3792C257.398 80.3792 258.616 79.1601 258.616 77.6564C258.616 76.1526 257.398 74.9336 255.895 74.9336C254.392 74.9336 253.173 76.1526 253.173 77.6564C253.173 79.1601 254.392 80.3792 255.895 80.3792Z" fill="#F6A000" stroke="#F6A000" stroke-miterlimit="10"/>
<path d="M164.557 70.9719H165.065C170.947 70.9719 175.771 66.1592 175.771 60.2602V54.1824C175.771 48.2972 170.961 43.4707 165.065 43.4707H164.557C158.674 43.4707 153.851 48.2834 153.851 54.1824V60.2602C153.851 66.1592 158.674 70.9719 164.557 70.9719Z" fill="#F8B99B"/>
<path d="M148.161 58.3361V59.8209C148.161 60.9758 149.109 61.9244 150.264 61.9244H156.655C157.809 61.9244 158.757 60.9758 158.757 59.8209V58.3361C158.757 57.1812 157.809 56.2326 156.655 56.2326H150.264C149.109 56.2188 148.161 57.1675 148.161 58.3361Z" fill="#F8B99B"/>
<path d="M156.695 47.1014L158.66 49.4115C160.612 51.7078 162.907 53.7017 165.477 55.2968L169.545 57.8269L173.145 67.1223L177.048 62.9421C179.041 60.8107 180.278 58.0881 180.581 55.2005L180.979 51.3366L176.952 47.7752L174.479 41.8486L168.94 40.8311C165.875 40.2673 162.728 40.8311 160.048 42.4262C158.33 43.4575 157.121 45.1488 156.695 47.1014Z" fill="#4F4898"/>
<path d="M170.164 62.131C172.54 62.131 174.466 60.2041 174.466 57.8272C174.466 55.4503 172.54 53.5234 170.164 53.5234C167.788 53.5234 165.862 55.4503 165.862 57.8272C165.862 60.2041 167.788 62.131 170.164 62.131Z" fill="#F8B99B"/>
<path d="M156.957 57.9643V54.3076H161.575" stroke="#4F4898" stroke-miterlimit="10" stroke-linecap="round" stroke-linejoin="round"/>
<path d="M170.672 60.0836C171.799 59.6022 172.308 58.2956 171.827 57.1677C171.346 56.0398 170.04 55.5309 168.913 56.0123" fill="#F8B99B"/>
<path d="M170.672 60.0836C171.799 59.6022 172.308 58.2956 171.827 57.1677C171.346 56.0398 170.04 55.5309 168.913 56.0123" stroke="#4F4898" stroke-miterlimit="10" stroke-linecap="round"/>
<path d="M187.191 54.3068L189.047 55.1318C191.878 56.3969 193.706 59.2158 193.706 62.3234V63.3135C196.729 64.3035 198.86 67.0261 199.107 70.2025C199.148 70.6975 199.066 71.2063 198.873 71.6601L198.516 72.5126C197.375 75.2215 194.64 76.9128 191.713 76.734C188.744 76.5553 185.858 75.6753 183.302 74.1764L180.155 72.3614C179.275 71.8526 178.423 71.2751 177.626 70.6425L173.27 67.1361L171.208 62.1447L177.2 61.1271L176.966 51.9417L173.421 41.6562L174.479 41.8488L176.898 42.8938C181.818 45.0251 185.583 49.1916 187.191 54.3068Z" fill="#4F4898"/>
<path d="M166.344 73.9027L176.226 72.775L171.154 62.0205L162.756 66.3113L166.344 73.9027Z" fill="#F8B99B"/>
<path d="M165.766 62.3096C165.643 62.9009 165.217 64.4686 163.801 65.8162C162.207 67.3289 160.365 67.5764 159.788 67.6452" stroke="#4F4898" stroke-miterlimit="10" stroke-linecap="round" stroke-linejoin="round"/>
<path d="M187.646 77.5049H178.795L176.225 72.7744" fill="#4F4898"/>
<path d="M195.781 265.611H157.712" stroke="#FFEC83" stroke-miterlimit="10"/>
<path d="M166.412 220.868V229.792" stroke="#FFEC83" stroke-miterlimit="10"/>
<path d="M162.55 220.868V229.792" stroke="#FFEC83" stroke-miterlimit="10"/>
<path d="M158.688 220.868V229.792" stroke="#FFEC83" stroke-miterlimit="10"/>
<path d="M181.351 252.028V260.952" stroke="#FFEC83" stroke-miterlimit="10"/>
<path d="M177.489 252.028V260.952" stroke="#FFEC83" stroke-miterlimit="10"/>
<path d="M173.627 252.028V260.952" stroke="#FFEC83" stroke-miterlimit="10"/>
<path d="M191.095 62.6256C191.205 62.3506 191.754 60.797 190.957 59.1746C189.913 57.0435 187.521 56.7823 187.37 56.7686" fill="#4F4898"/>
<path d="M191.095 62.6256C191.205 62.3506 191.754 60.797 190.957 59.1746C189.913 57.0435 187.521 56.7823 187.37 56.7686" stroke="#FFEC83" stroke-miterlimit="10" stroke-linecap="round"/>
<path d="M185.241 53.8665C184.815 52.6013 184.017 50.7449 182.478 48.9022C180.087 46.0143 177.228 44.7354 175.798 44.2129" fill="#4F4898"/>
<path d="M185.241 53.8665C184.815 52.6013 184.017 50.7449 182.478 48.9022C180.087 46.0143 177.228 44.7354 175.798 44.2129" stroke="#FFEC83" stroke-miterlimit="10" stroke-linecap="round"/>
<path d="M174.314 46.0439C177.988 46.0439 180.967 43.064 180.967 39.3882C180.967 35.7123 177.988 32.7324 174.314 32.7324C170.64 32.7324 167.662 35.7123 167.662 39.3882C167.662 43.064 170.64 46.0439 174.314 46.0439Z" fill="#4F4898"/>
<path d="M165.972 40.5984L180.842 44.668C180.966 44.6955 181.089 44.6267 181.131 44.503L181.612 42.7432C181.639 42.6194 181.57 42.4957 181.447 42.4545L166.576 38.3986C166.453 38.3711 166.329 38.4398 166.288 38.5636L165.807 40.3234C165.779 40.4471 165.848 40.5709 165.972 40.5984Z" fill="#DE1182"/>
<path d="M207.215 133.139H205.03C190.132 133.139 188.4 113.792 188.4 113.792" stroke="#FFEC83" stroke-miterlimit="10"/>
<path d="M254.774 194.815C254.774 239.51 291.822 275.741 337.528 275.741C383.235 275.741 420.282 239.51 420.282 194.815C420.282 150.12 383.235 113.89 337.528 113.89C291.822 113.89 254.774 150.12 254.774 194.815Z" fill="#A0CB7D"/>
<path d="M254.774 80.9256C254.774 125.621 291.822 161.851 337.528 161.851C383.235 161.851 420.282 125.621 420.282 80.9256C420.282 36.2303 383.235 0 337.528 0C291.822 0 254.774 36.2303 254.774 80.9256Z" fill="#A1CB7C"/>
<path d="M337.528 277.312V39.6943" stroke="#4F4898" stroke-width="0.92" stroke-miterlimit="10"/>
<path d="M291.025 163.126L337.528 203.977L391.536 169.918" stroke="#4F4898" stroke-width="0.92" stroke-miterlimit="10"/>
<path d="M308.822 61.6865L337.528 90.9057L363.228 65.5506" stroke="#4F4898" stroke-width="0.92" stroke-miterlimit="10"/>
<path d="M396.533 214.493L337.528 257.137L284.038 228.037" stroke="#4F4898" stroke-width="0.92" stroke-miterlimit="10"/>
<path d="M396.533 101.521L337.528 144.164L284.038 115.065" stroke="#4F4898" stroke-width="0.92" stroke-miterlimit="10"/>
</svg>
