<svg width="563" height="489" viewBox="0 0 563 489" fill="none" xmlns="http://www.w3.org/2000/svg">
<g clip-path="url(#clip0_501_3248)">
<path d="M124.103 212.849C125.008 211.286 125.534 209.477 125.534 207.545C125.534 201.678 120.783 196.927 114.917 196.927C109.05 196.927 104.299 201.678 104.299 207.545C104.299 209.477 104.826 211.295 105.73 212.849C104.826 214.413 104.299 216.222 104.299 218.154C104.299 220.13 104.852 221.974 105.792 223.564C104.852 225.154 104.299 226.998 104.299 228.974C104.299 234.84 109.05 239.592 114.917 239.592C120.783 239.592 125.534 234.84 125.534 228.974C125.534 226.998 124.981 225.154 124.042 223.564C124.981 221.974 125.534 220.13 125.534 218.154C125.534 216.222 125.008 214.413 124.103 212.849Z" fill="white" stroke="#4F4898" stroke-miterlimit="10"/>
<path d="M114.917 207.536V250.411" stroke="#4F4898" stroke-miterlimit="10"/>
<path d="M105.774 212.849C106.679 211.286 107.206 209.477 107.206 207.545C107.206 201.678 102.455 196.927 96.5881 196.927C90.7215 196.927 85.9702 201.678 85.9702 207.545C85.9702 209.477 86.4972 211.295 87.4017 212.849C86.4972 214.413 85.9702 216.222 85.9702 218.154C85.9702 220.13 86.5235 221.974 87.4632 223.564C86.5235 225.154 85.9702 226.998 85.9702 228.974C85.9702 234.84 90.7215 239.592 96.5881 239.592C102.455 239.592 107.206 234.84 107.206 228.974C107.206 226.998 106.653 225.154 105.713 223.564C106.653 221.974 107.206 220.13 107.206 218.154C107.206 216.222 106.679 214.413 105.774 212.849Z" fill="white" stroke="#4F4898" stroke-miterlimit="10"/>
<path d="M96.5879 207.536V250.411" stroke="#4F4898" stroke-miterlimit="10"/>
<path d="M521.6 202.232C522.505 200.668 523.032 198.859 523.032 196.927C523.032 191.06 518.28 186.309 512.414 186.309C506.547 186.309 501.796 191.06 501.796 196.927C501.796 198.859 502.323 200.677 503.227 202.232C502.323 203.795 501.796 205.604 501.796 207.536C501.796 209.468 502.323 211.286 503.227 212.841C502.323 214.404 501.796 216.213 501.796 218.145C501.796 220.121 502.349 221.966 503.289 223.555C502.349 225.145 501.796 226.989 501.796 228.965C501.796 234.832 506.547 239.583 512.414 239.583C518.28 239.583 523.032 234.832 523.032 228.965C523.032 226.989 522.478 225.145 521.539 223.555C522.478 221.966 523.032 220.121 523.032 218.145C523.032 216.213 522.505 214.395 521.6 212.841C522.505 211.277 523.032 209.468 523.032 207.536C523.032 205.604 522.505 203.795 521.6 202.232Z" stroke="#4F4898" stroke-miterlimit="10"/>
<path d="M512.414 196.918V250.411" stroke="#4F4898" stroke-miterlimit="10"/>
<path d="M539.13 202.232C540.034 200.668 540.561 198.859 540.561 196.927C540.561 191.06 535.81 186.309 529.943 186.309C524.077 186.309 519.326 191.06 519.326 196.927C519.326 198.859 519.853 200.677 520.757 202.232C519.853 203.795 519.326 205.604 519.326 207.536C519.326 209.468 519.853 211.286 520.757 212.841C519.853 214.404 519.326 216.213 519.326 218.145C519.326 220.121 519.879 221.966 520.819 223.555C519.879 225.145 519.326 226.989 519.326 228.965C519.326 234.832 524.077 239.583 529.943 239.583C535.81 239.583 540.561 234.832 540.561 228.965C540.561 226.989 540.008 225.145 539.068 223.555C540.008 221.966 540.561 220.121 540.561 218.145C540.561 216.213 540.034 214.395 539.13 212.841C540.034 211.277 540.561 209.468 540.561 207.536C540.561 205.604 540.034 203.795 539.13 202.232Z" fill="white" stroke="#4F4898" stroke-miterlimit="10"/>
<path d="M529.952 196.918V250.411" stroke="#4F4898" stroke-miterlimit="10"/>
<path d="M512.414 218.356C510.481 218.356 508.664 218.883 507.109 219.787C505.546 218.883 503.737 218.356 501.805 218.356C499.872 218.356 498.054 218.883 496.5 219.787C494.937 218.883 493.128 218.356 491.195 218.356C489.219 218.356 487.375 218.909 485.786 219.849C484.196 218.909 482.352 218.356 480.376 218.356C474.509 218.356 469.758 223.107 469.758 228.974C469.758 234.84 474.509 239.592 480.376 239.592C482.352 239.592 484.196 239.038 485.786 238.099C487.375 239.038 489.219 239.592 491.195 239.592C493.128 239.592 494.946 239.065 496.5 238.16C498.063 239.065 499.872 239.592 501.805 239.592C503.737 239.592 505.555 239.065 507.109 238.16C508.672 239.065 510.481 239.592 512.414 239.592C518.28 239.592 523.031 234.84 523.031 228.974C523.031 223.107 518.28 218.356 512.414 218.356Z" fill="white" stroke="#4F4898" stroke-miterlimit="10"/>
<path d="M480.56 228.974V250.411" stroke="#4F4898" stroke-miterlimit="10"/>
<path d="M491.178 228.974V250.411" stroke="#4F4898" stroke-miterlimit="10"/>
<path d="M501.699 228.974V250.411" stroke="#4F4898" stroke-miterlimit="10"/>
<path d="M512.414 228.974V250.411" stroke="#4F4898" stroke-miterlimit="10"/>
<path d="M322.645 134.265L300.092 165.161" stroke="white" stroke-width="1.22" stroke-miterlimit="10"/>
<path d="M330.751 134.265L308.207 165.161" stroke="white" stroke-width="1.22" stroke-miterlimit="10"/>
<path d="M589.953 250.429H-33.9961V511.738H589.953V250.429Z" fill="#F9CFCE"/>
<path d="M563.527 250.359H0.413086V490.512H563.527V250.359Z" stroke="#4F4898" stroke-width="0.971" stroke-miterlimit="10"/>
<path d="M536.97 250.359V490.512" stroke="#4F4898" stroke-width="0.92" stroke-miterlimit="10"/>
<path d="M564.283 480.508H0.413086" stroke="#4F4898" stroke-width="0.971" stroke-miterlimit="10"/>
<path d="M75.3789 250.359V490.512" stroke="#4F4898" stroke-width="0.92" stroke-miterlimit="10"/>
<path d="M36.8154 250.359V490.512" stroke="#4F4898" stroke-width="0.92" stroke-miterlimit="10"/>
<path d="M113.951 250.526V490.512" stroke="#4F4898" stroke-width="0.92" stroke-miterlimit="10"/>
<path d="M152.523 250.359V490.512" stroke="#4F4898" stroke-width="0.92" stroke-miterlimit="10"/>
<path d="M191.095 250.359V490.512" stroke="#4F4898" stroke-width="0.92" stroke-miterlimit="10"/>
<path d="M229.658 250.359V490.512" stroke="#4F4898" stroke-width="0.92" stroke-miterlimit="10"/>
<path d="M268.23 250.359V490.512" stroke="#4F4898" stroke-width="0.92" stroke-miterlimit="10"/>
<path d="M306.802 250.359V490.512" stroke="#4F4898" stroke-width="0.92" stroke-miterlimit="10"/>
<path d="M345.374 250.359V490.512" stroke="#4F4898" stroke-width="0.92" stroke-miterlimit="10"/>
<path d="M383.938 250.359V490.512" stroke="#4F4898" stroke-width="0.92" stroke-miterlimit="10"/>
<path d="M422.509 250.359V490.512" stroke="#4F4898" stroke-width="0.92" stroke-miterlimit="10"/>
<path d="M461.082 250.359V490.512" stroke="#4F4898" stroke-width="0.92" stroke-miterlimit="10"/>
<path d="M499.645 250.359V490.512" stroke="#4F4898" stroke-width="0.92" stroke-miterlimit="10"/>
<path d="M563.527 288.931H0.413086" stroke="#4F4898" stroke-width="0.971" stroke-miterlimit="10"/>
<path d="M563.527 327.503H0.413086" stroke="#4F4898" stroke-width="0.971" stroke-miterlimit="10"/>
<path d="M563.527 366.066H0.413086" stroke="#4F4898" stroke-width="0.971" stroke-miterlimit="10"/>
<path d="M563.527 404.638H0.413086" stroke="#4F4898" stroke-width="0.971" stroke-miterlimit="10"/>
<path d="M563.527 443.21H0.413086" stroke="#4F4898" stroke-width="0.971" stroke-miterlimit="10"/>
<path d="M589.953 443.21H-33.9961V511.738H589.953V443.21Z" fill="#DBF0FA"/>
<path d="M589.944 443.21H-12.998V532.113H589.944V443.21Z" stroke="#4F4898" stroke-miterlimit="10"/>
<path d="M563.904 327.564H0.904297V404.612H563.904V327.564Z" fill="#FEEACF"/>
<path d="M589.944 327.564H-12.998V404.612H589.944V327.564Z" stroke="#4F4898" stroke-miterlimit="10"/>
<path d="M-12.998 366.084H53.2822" stroke="#4F4898" stroke-miterlimit="10"/>
<path d="M90.3701 366.084H156.65" stroke="#4F4898" stroke-miterlimit="10"/>
<path d="M193.738 366.084H260.01" stroke="#4F4898" stroke-miterlimit="10"/>
<path d="M297.098 366.084H363.378" stroke="#4F4898" stroke-miterlimit="10"/>
<path d="M400.465 366.084H466.737" stroke="#4F4898" stroke-miterlimit="10"/>
<path d="M503.825 366.084H570.105" stroke="#4F4898" stroke-miterlimit="10"/>
<path d="M99.3366 349.775C99.3366 389.752 66.1745 422.167 25.2664 422.167C-15.6416 422.167 -48.8037 389.752 -48.8037 349.775C-48.8037 309.798 -15.6416 277.382 25.2664 277.382C66.1745 277.382 99.3366 309.789 99.3366 349.775Z" fill="#6EB74A"/>
<path d="M99.3366 247.882C99.3366 287.859 66.1745 320.275 25.2664 320.275C-15.6416 320.275 -48.8037 287.859 -48.8037 247.882C-48.8037 207.905 -15.6416 175.489 25.2664 175.489C66.1745 175.489 99.3366 207.905 99.3366 247.882Z" fill="#6EB74A"/>
<path d="M25.2666 443.904V211.014" stroke="#4F4898" stroke-width="0.92" stroke-miterlimit="10"/>
<path d="M66.8861 321.417L25.2667 357.969L-23.0713 327.503" stroke="#4F4898" stroke-width="0.92" stroke-miterlimit="10"/>
<path d="M50.9461 230.669L25.2665 256.814L2.26562 234.129" stroke="#4F4898" stroke-width="0.92" stroke-miterlimit="10"/>
<path d="M-27.542 367.375L25.2662 405.525L73.1386 379.494" stroke="#4F4898" stroke-width="0.92" stroke-miterlimit="10"/>
<path d="M-27.542 266.307L25.2662 304.458L73.1386 278.427" stroke="#4F4898" stroke-width="0.92" stroke-miterlimit="10"/>
<path d="M271.207 87.9735L268.028 99.9877H291.02L300.338 93.8664L305.537 85.1017L299.188 83.7492L271.207 87.9735Z" fill="#4F4898"/>
<path d="M211.197 174.883C215.262 174.883 218.557 164.574 218.557 151.856C218.557 139.139 215.262 128.829 211.197 128.829C207.133 128.829 203.838 139.139 203.838 151.856C203.838 164.574 207.133 174.883 211.197 174.883Z" fill="#6EB74A"/>
<path d="M197.392 100.91L198.287 204.436" stroke="#6EB74A" stroke-miterlimit="10"/>
<path d="M176.094 128.1L177.333 202.89" stroke="#6EB74A" stroke-miterlimit="10"/>
<path d="M313.055 261.477H291.494V285.743H313.055V261.477Z" fill="#F8B99B"/>
<path d="M344.636 306.864H296.14L292.653 285.752H323.514C335.177 285.743 344.636 295.201 344.636 306.864Z" fill="#DE1182"/>
<path d="M319.826 178.625L283.933 154.052L261.204 187.249L290.95 207.615C294.349 209.942 295.973 214.105 295.051 218.119L281.755 273.614H323.567L335.924 219.831C339.534 204.093 333.149 187.75 319.826 178.625Z" fill="#FFEC83"/>
<path d="M261.204 187.249L290.95 207.615C294.349 209.943 295.973 214.105 295.051 218.119L281.755 273.614" stroke="#F5ADAB" stroke-miterlimit="10"/>
<path d="M323.567 273.614L335.924 219.831C339.542 204.093 333.158 187.75 319.826 178.625L283.933 154.052" stroke="#F5ADAB" stroke-miterlimit="10"/>
<path d="M326.597 306.864H293.69V312.59H326.597V306.864Z" fill="#EAEAF7" stroke="#4F4898" stroke-miterlimit="10"/>
<path d="M202.749 223.169C165.275 223.169 134.888 253.547 134.888 291.03C134.888 328.504 165.266 358.891 202.749 358.891C240.223 358.891 270.61 328.513 270.61 291.03C270.61 253.547 240.223 223.169 202.749 223.169ZM202.749 349.011C170.772 349.011 144.768 322.997 144.768 291.03C144.768 259.053 170.781 233.049 202.749 233.049C234.716 233.049 260.73 259.062 260.73 291.03C260.73 322.997 234.725 349.011 202.749 349.011Z" fill="#F6B9D5" stroke="#4F4898" stroke-miterlimit="10"/>
<path d="M295.718 303.351H345.075" stroke="#FFEC83" stroke-miterlimit="10"/>
<path d="M414.754 223.169C377.28 223.169 346.893 253.547 346.893 291.03C346.893 328.504 377.271 358.891 414.754 358.891C452.237 358.891 482.615 328.513 482.615 291.03C482.615 253.547 452.237 223.169 414.754 223.169ZM414.754 349.011C382.778 349.011 356.773 322.997 356.773 291.03C356.773 259.053 382.786 233.049 414.754 233.049C446.731 233.049 472.735 259.062 472.735 291.03C472.744 322.997 446.731 349.011 414.754 349.011Z" fill="#F6B9D5" stroke="#4F4898" stroke-miterlimit="10"/>
<path d="M202.749 299.874C207.633 299.874 211.592 295.914 211.592 291.03C211.592 286.145 207.633 282.186 202.749 282.186C197.864 282.186 193.905 286.145 193.905 291.03C193.905 295.914 197.864 299.874 202.749 299.874Z" fill="#EAEAF7" stroke="#4F4898" stroke-miterlimit="10"/>
<path d="M414.754 299.874C419.638 299.874 423.598 295.914 423.598 291.03C423.598 286.145 419.638 282.186 414.754 282.186C409.87 282.186 405.91 286.145 405.91 291.03C405.91 295.914 409.87 299.874 414.754 299.874Z" fill="#EAEAF7" stroke="#4F4898" stroke-miterlimit="10"/>
<path d="M296.79 324.007C304.163 324.007 310.139 318.031 310.139 310.658C310.139 303.286 304.163 297.309 296.79 297.309C289.418 297.309 283.441 303.286 283.441 310.658C283.441 318.031 289.418 324.007 296.79 324.007Z" fill="#EAEAF7" stroke="#4F4898" stroke-miterlimit="10"/>
<path d="M202.749 291.03L265.762 208.458H165.415" stroke="#4F4898" stroke-miterlimit="10"/>
<path d="M270.171 260.941L371.203 192.448" stroke="#4F4898" stroke-miterlimit="10"/>
<path d="M369.147 187.31L414.754 291.03" stroke="#4F4898" stroke-miterlimit="10"/>
<path d="M203.908 299.795L293.813 323.674" stroke="#4F4898" stroke-miterlimit="10"/>
<path d="M376.911 205.288L296.79 299.874L208.115 283.995" stroke="#4F4898" stroke-miterlimit="10"/>
<path d="M289.589 157.292L296.368 147H256.137L252.914 151.9C248.988 157.854 247.205 164.977 247.846 172.082L260.782 314.004H301.014L287.498 165.653C287.226 162.702 287.964 159.76 289.589 157.292Z" fill="#F6A000"/>
<path d="M268.432 147L265.208 151.9C261.283 157.854 259.5 164.977 260.141 172.082L273.077 314.004" stroke="#FFEC83" stroke-miterlimit="10"/>
<path d="M293.813 326.133H272.252L269.934 313.996H291.494L293.813 326.133Z" fill="#F8B99B"/>
<path d="M324.235 347.245H275.739L272.252 326.133H303.113C314.785 326.133 324.235 335.583 324.235 347.245Z" fill="#DE1182"/>
<path d="M371.01 171.889L343.257 158.171C340.078 156.054 337.426 153.244 335.485 149.959L326.676 135.038L309.683 144.584L318.386 159.225C321.899 165.126 327.502 169.482 334.098 171.423L351.97 176.684L359.751 179.907C360.778 180.337 361.973 180.03 362.675 179.16C363.29 178.405 364.107 177.808 365.046 177.571C365.486 177.457 365.933 177.404 366.381 177.395C368.682 177.36 370.702 179.125 371.001 181.409C371.01 181.479 371.018 181.54 371.018 181.593C371.018 182.77 370.061 183.727 368.884 183.727H365.565C364.546 183.727 363.72 184.553 363.72 185.572C363.72 186.59 364.546 187.416 365.565 187.416H370.412C371.818 187.416 373.17 186.854 374.162 185.861C375.155 184.869 375.717 183.516 375.717 182.111V178.15C375.708 175.252 373.794 172.705 371.01 171.889Z" fill="#F8B99B"/>
<path d="M374.154 185.87C375.146 184.878 375.708 183.525 375.708 182.12V178.159C375.708 175.261 373.793 172.705 371.009 171.897L343.257 158.179C340.078 156.063 337.426 153.253 335.485 149.968L326.676 135.047" stroke="#F5ADAB" stroke-miterlimit="10"/>
<path d="M370.992 181.417C371.001 181.488 371.009 181.549 371.009 181.602C371.009 182.779 370.052 183.736 368.875 183.736H365.556" stroke="#F5ADAB" stroke-miterlimit="10"/>
<path d="M366.223 185.273C369.094 185.273 371.422 182.945 371.422 180.074C371.422 177.202 369.094 174.875 366.223 174.875C363.352 174.875 361.024 177.202 361.024 180.074C361.024 182.945 363.352 185.273 366.223 185.273Z" fill="#EAEAF7" stroke="#4F4898" stroke-miterlimit="10"/>
<path d="M246.854 147L254.863 134.95C264.286 120.775 276.608 108.77 291.02 99.7155L300.338 93.8664L313.151 95.3155L329.829 136.654L306.907 150.433L297.431 127.951L302.937 141.028L296.781 147H246.854V147Z" fill="#DE1182"/>
<path d="M254.863 134.95C264.287 120.776 277.276 108.401 291.688 99.3466Z" fill="#DE1182"/>
<path d="M254.863 134.95C264.287 120.776 277.276 108.401 291.688 99.3466" stroke="#F5ADAB" stroke-miterlimit="10"/>
<path d="M329.829 136.654L306.907 150.433L297.44 127.951L302.946 141.028L296.799 147H246.854" fill="#DE1182"/>
<path d="M329.829 136.654L306.907 150.433L297.44 127.951L302.946 141.028L296.799 147H246.854" stroke="#FFEC83" stroke-miterlimit="10"/>
<path d="M314.697 347.245H281.79V352.971H314.697V347.245Z" fill="#EAEAF7" stroke="#4F4898" stroke-miterlimit="10"/>
<path d="M371.203 192.448H388.363" stroke="#4F4898" stroke-miterlimit="10"/>
<path d="M393.018 199.553C395.591 199.553 397.673 197.472 397.673 194.898V190.007C397.673 187.433 395.591 185.352 393.018 185.352V199.553Z" fill="#FFEC83"/>
<path d="M393.018 199.553C390.445 199.553 388.363 197.472 388.363 194.898V190.007C388.363 187.433 390.445 185.352 393.018 185.352V199.553Z" fill="#EAEAF7" stroke="#4F4898" stroke-miterlimit="10"/>
<path d="M224.45 157.345H165.415V208.458H224.45V157.345Z" fill="#EAEAF7" stroke="#4F4898" stroke-miterlimit="10"/>
<path d="M224.45 157.345H165.415V208.458H224.45V157.345Z" stroke="#4F4898" stroke-miterlimit="10"/>
<path d="M165.415 199.939H224.441" stroke="#4F4898" stroke-miterlimit="10"/>
<path d="M165.415 191.421H224.441" stroke="#4F4898" stroke-miterlimit="10"/>
<path d="M165.415 182.902H224.441" stroke="#4F4898" stroke-miterlimit="10"/>
<path d="M165.415 174.383H224.441" stroke="#4F4898" stroke-miterlimit="10"/>
<path d="M165.415 165.864H224.441" stroke="#4F4898" stroke-miterlimit="10"/>
<path d="M214.605 157.345V208.458" stroke="#4F4898" stroke-miterlimit="10"/>
<path d="M204.769 157.345V208.458" stroke="#4F4898" stroke-miterlimit="10"/>
<path d="M194.924 157.345V208.458" stroke="#4F4898" stroke-miterlimit="10"/>
<path d="M185.087 157.345V208.458" stroke="#4F4898" stroke-miterlimit="10"/>
<path d="M175.251 157.345V208.458" stroke="#4F4898" stroke-miterlimit="10"/>
<path d="M165.968 135.609C171.537 135.609 176.05 132.573 176.05 128.829C176.05 125.084 171.537 122.049 165.968 122.049C160.4 122.049 155.886 125.084 155.886 128.829C155.886 132.573 160.4 135.609 165.968 135.609Z" fill="#FFEC83"/>
<path d="M186.124 135.609C191.692 135.609 196.206 132.573 196.206 128.829C196.206 125.084 191.692 122.049 186.124 122.049C180.555 122.049 176.042 125.084 176.042 128.829C176.042 132.573 180.555 135.609 186.124 135.609Z" fill="#FFEC83"/>
<path d="M176.094 128.882C179.839 128.882 182.874 124.368 182.874 118.799C182.874 113.231 179.839 108.717 176.094 108.717C172.35 108.717 169.314 113.231 169.314 118.799C169.314 124.368 172.35 128.882 176.094 128.882Z" fill="#FFEC83"/>
<path d="M176.094 148.264C179.839 148.264 182.874 143.75 182.874 138.182C182.874 132.614 179.839 128.1 176.094 128.1C172.35 128.1 169.314 132.614 169.314 138.182C169.314 143.75 172.35 148.264 176.094 148.264Z" fill="#FFEC83"/>
<path d="M176.094 131.622C178.039 131.622 179.616 130.045 179.616 128.1C179.616 126.155 178.039 124.578 176.094 124.578C174.149 124.578 172.573 126.155 172.573 128.1C172.573 130.045 174.149 131.622 176.094 131.622Z" fill="#F6A000" stroke="#F6A000" stroke-miterlimit="10"/>
<path d="M186.932 107.69C192.5 107.69 197.014 104.654 197.014 100.91C197.014 97.1654 192.5 94.1299 186.932 94.1299C181.364 94.1299 176.85 97.1654 176.85 100.91C176.85 104.654 181.364 107.69 186.932 107.69Z" fill="#FFEC83"/>
<path d="M207.087 107.69C212.655 107.69 217.169 104.654 217.169 100.91C217.169 97.1654 212.655 94.1299 207.087 94.1299C201.519 94.1299 197.005 97.1654 197.005 100.91C197.005 104.654 201.519 107.69 207.087 107.69Z" fill="#FFEC83"/>
<path d="M197.049 100.954C200.793 100.954 203.829 96.4399 203.829 90.8717C203.829 85.3035 200.793 80.7896 197.049 80.7896C193.305 80.7896 190.269 85.3035 190.269 90.8717C190.269 96.4399 193.305 100.954 197.049 100.954Z" fill="#FFEC83"/>
<path d="M197.049 120.336C200.793 120.336 203.829 115.822 203.829 110.254C203.829 104.686 200.793 100.172 197.049 100.172C193.305 100.172 190.269 104.686 190.269 110.254C190.269 115.822 193.305 120.336 197.049 120.336Z" fill="#FFEC83"/>
<path d="M197.049 103.703C198.994 103.703 200.571 102.126 200.571 100.181C200.571 98.2359 198.994 96.6592 197.049 96.6592C195.104 96.6592 193.527 98.2359 193.527 100.181C193.527 102.126 195.104 103.703 197.049 103.703Z" fill="#F6A000" stroke="#F6A000" stroke-miterlimit="10"/>
<path d="M315.127 91.5304C307.311 91.5304 300.917 85.1368 300.917 77.3205V70.1103C300.917 62.294 307.311 55.9005 315.127 55.9005C322.944 55.9005 329.337 62.294 329.337 70.1103V77.3205C329.328 85.1368 322.944 91.5304 315.127 91.5304Z" fill="#F8B99B"/>
<path d="M336.706 76.0998C336.706 78.1285 335.046 79.7971 333.008 79.7971H326.641C324.612 79.7971 322.944 78.1373 322.944 76.0998C322.944 74.0711 324.604 72.4024 326.641 72.4024H333.008C335.046 72.4112 336.706 74.0711 336.706 76.0998Z" fill="#F8B99B"/>
<path d="M325.649 60.5902L323.102 63.585C320.573 66.5622 317.595 69.1354 314.276 71.2081L309.006 74.4926L304.343 86.542L299.275 81.1233C296.693 78.3657 295.086 74.8439 294.7 71.0851L294.182 66.0792L299.398 61.4597L302.604 53.7927L309.779 52.4666C313.749 51.7376 317.841 52.4753 321.302 54.5392C323.523 55.8653 325.104 58.0609 325.649 60.5902Z" fill="#4F4898"/>
<path d="M308.181 80.0782C311.266 80.0782 313.766 77.5774 313.766 74.4926C313.766 71.4078 311.266 68.9071 308.181 68.9071C305.096 68.9071 302.595 71.4078 302.595 74.4926C302.595 77.5774 305.096 80.0782 308.181 80.0782Z" fill="#F8B99B"/>
<path d="M325.315 74.6595V69.9346H319.325" stroke="#4F4898" stroke-miterlimit="10" stroke-linecap="round" stroke-linejoin="round"/>
<path d="M307.531 77.4172C306.073 76.7848 305.406 75.0986 306.038 73.6495C306.67 72.2004 308.356 71.5242 309.806 72.1565" fill="#F8B99B"/>
<path d="M307.531 77.4172C306.073 76.7848 305.406 75.0986 306.038 73.6495C306.67 72.2004 308.356 71.5242 309.806 72.1565" stroke="#4F4898" stroke-miterlimit="10" stroke-linecap="round"/>
<path d="M286.111 69.9346L283.713 71.006C280.042 72.6571 277.671 76.3018 277.671 80.3329V81.6239C273.745 82.9061 270.988 86.4278 270.663 90.5467C270.61 91.1966 270.715 91.8377 270.97 92.4349L271.435 93.5327C272.911 97.0457 276.45 99.2412 280.262 99.0041C284.108 98.767 287.841 97.6341 291.169 95.6932L295.236 93.3219C296.377 92.6545 297.475 91.908 298.52 91.0912L304.176 86.542L306.837 80.0782L299.065 78.7608L299.363 66.8608L303.965 53.538L302.595 53.7927L299.46 55.1451C293.075 57.9028 288.201 63.2951 286.111 69.9346Z" fill="#4F4898"/>
<path d="M313.151 95.3155L300.338 93.8664L306.898 79.9289L317.788 85.4969L313.151 95.3155Z" fill="#F8B99B"/>
<path d="M313.88 80.2978C314.047 81.0706 314.601 83.0993 316.436 84.8382C318.509 86.7967 320.88 87.1304 321.635 87.2007" stroke="#4F4898" stroke-miterlimit="10" stroke-linecap="round" stroke-linejoin="round"/>
<path d="M285.531 99.9877H296.992L300.338 93.8664" fill="#4F4898"/>
<path d="M274.975 343.732H324.34" stroke="#FFEC83" stroke-miterlimit="10"/>
<path d="M313.055 285.743V297.309" stroke="#FFEC83" stroke-miterlimit="10"/>
<path d="M318.061 285.743V297.309" stroke="#FFEC83" stroke-miterlimit="10"/>
<path d="M323.067 285.743V297.309" stroke="#FFEC83" stroke-miterlimit="10"/>
<path d="M293.69 326.133V337.69" stroke="#FFEC83" stroke-miterlimit="10"/>
<path d="M298.696 326.133V337.69" stroke="#FFEC83" stroke-miterlimit="10"/>
<path d="M303.702 326.133V337.69" stroke="#FFEC83" stroke-miterlimit="10"/>
<path d="M281.052 80.7105C280.911 80.3505 280.209 78.3393 281.228 76.2403C282.58 73.4739 285.689 73.1314 285.873 73.1138" fill="#4F4898"/>
<path d="M281.052 80.7105C280.911 80.3505 280.209 78.3393 281.228 76.2403C282.58 73.4739 285.689 73.1314 285.873 73.1138" stroke="#FFEC83" stroke-miterlimit="10" stroke-linecap="round"/>
<path d="M288.649 69.3637C289.202 67.7214 290.239 65.3239 292.223 62.9351C295.332 59.185 299.03 57.5427 300.891 56.8577" fill="#4F4898"/>
<path d="M288.649 69.3637C289.202 67.7214 290.239 65.3239 292.223 62.9351C295.332 59.185 299.03 57.5427 300.891 56.8577" stroke="#FFEC83" stroke-miterlimit="10" stroke-linecap="round"/>
<path d="M302.815 59.2289C307.583 59.2289 311.448 55.3638 311.448 50.5959C311.448 45.828 307.583 41.9629 302.815 41.9629C298.047 41.9629 294.182 45.828 294.182 50.5959C294.182 55.3638 298.047 59.2289 302.815 59.2289Z" fill="#4F4898"/>
<path d="M312.475 52.4841L295.472 57.13C294.682 57.3495 293.865 56.8841 293.654 56.0937C293.435 55.3032 293.9 54.4865 294.691 54.2757L311.693 49.6299C312.484 49.4103 313.301 49.8758 313.511 50.6662C313.731 51.4566 313.265 52.2646 312.475 52.4841Z" fill="#DE1182"/>
<path d="M260.15 172.082H262.987C282.308 172.082 284.547 147.008 284.547 147.008" stroke="#FFEC83" stroke-miterlimit="10"/>
<path d="M190.778 385.914C190.778 417.162 158.872 442.49 119.51 442.49C80.1474 442.49 48.2412 417.162 48.2412 385.914C48.2412 354.667 80.1474 329.338 119.51 329.338C158.872 329.338 190.778 354.667 190.778 385.914Z" fill="#A1CB7C"/>
<path d="M120.687 357.784V442.49" stroke="#4F4898" stroke-width="0.92" stroke-miterlimit="10" stroke-linecap="round"/>
<path d="M87.3931 367.497L120.687 380.882L154.288 367.497" stroke="#4F4898" stroke-width="0.92" stroke-miterlimit="10" stroke-linecap="round"/>
<path d="M68.792 387.179L120.696 403.373L173.188 385.361" stroke="#4F4898" stroke-width="0.92" stroke-miterlimit="10" stroke-linecap="round"/>
<path d="M611.039 368.262C611.039 397.594 577.877 421.368 536.969 421.368C496.061 421.368 462.899 397.586 462.899 368.262C462.899 338.929 496.061 315.155 536.969 315.155C577.877 315.155 611.039 338.937 611.039 368.262Z" fill="#6EB74A"/>
<path d="M536.969 443.113V336.259" stroke="#4F4898" stroke-width="0.92" stroke-miterlimit="10"/>
<path d="M562.649 348.853L536.969 375.006L513.968 352.313" stroke="#4F4898" stroke-width="0.92" stroke-miterlimit="10"/>
<path d="M484.161 366.575L536.969 404.735L584.842 378.704" stroke="#4F4898" stroke-width="0.92" stroke-miterlimit="10"/>
<path d="M571.976 -0.411865C563.185 -0.411865 555.175 2.91664 549.124 8.38803C543.082 2.92542 535.064 -0.411865 526.272 -0.411865C517.639 -0.411865 509.77 2.80247 503.763 8.08944C497.756 2.80247 489.887 -0.411865 481.254 -0.411865C472.463 -0.411865 464.454 2.91664 458.403 8.38803C452.36 2.92542 444.342 -0.411865 435.551 -0.411865C416.73 -0.411865 401.476 14.843 401.476 33.6636C401.476 52.4841 416.73 67.739 435.551 67.739C444.342 67.739 452.352 64.4105 458.403 58.9391C464.445 64.4017 472.463 67.739 481.254 67.739C489.887 67.739 497.756 64.5247 503.763 59.2377C509.77 64.5247 517.639 67.739 526.272 67.739C535.064 67.739 543.073 64.4105 549.124 58.9391C555.166 64.4017 563.185 67.739 571.976 67.739C590.796 67.739 606.051 52.4841 606.051 33.6636C606.051 14.8518 590.796 -0.411865 571.976 -0.411865Z" stroke="#4F4898" stroke-miterlimit="10"/>
<path d="M187.714 -0.411865C178.923 -0.411865 170.913 2.91664 164.862 8.38803C158.82 2.92542 150.802 -0.411865 142.01 -0.411865C133.377 -0.411865 125.508 2.80247 119.501 8.08944C113.494 2.80247 105.625 -0.411865 96.9922 -0.411865C96.9659 -0.411865 96.9483 -0.411865 96.922 -0.411865C96.9044 -0.411865 96.8781 -0.411865 96.8605 -0.411865C88.1045 -0.411865 80.1126 2.89907 74.0791 8.32655C68.0457 2.89907 60.0538 -0.411865 51.2978 -0.411865C51.2802 -0.411865 51.2539 -0.411865 51.2363 -0.411865C51.2099 -0.411865 51.1924 -0.411865 51.166 -0.411865C42.533 -0.411865 34.664 2.80247 28.6569 8.08944C22.6498 2.80247 14.7808 -0.411865 6.14781 -0.411865C-2.6433 -0.411865 -10.6528 2.91664 -16.7038 8.38803C-22.7461 2.92542 -30.7643 -0.411865 -39.5554 -0.411865C-58.376 -0.411865 -73.6309 14.843 -73.6309 33.6636C-73.6309 52.4841 -58.376 67.739 -39.5554 67.739C-30.7643 67.739 -22.7548 64.4105 -16.7038 58.9391C-10.6616 64.4017 -2.6433 67.739 6.14781 67.739C14.7808 67.739 22.6498 64.5247 28.6569 59.2377C34.664 64.5247 42.533 67.739 51.166 67.739C51.1924 67.739 51.2099 67.739 51.2363 67.739C51.2539 67.739 51.2802 67.739 51.2978 67.739C60.0538 67.739 68.0457 64.4281 74.0791 59.0006C80.1126 64.4281 88.1045 67.739 96.8605 67.739C96.8781 67.739 96.9044 67.739 96.922 67.739C96.9483 67.739 96.9659 67.739 96.9922 67.739C105.625 67.739 113.494 64.5247 119.501 59.2377C125.508 64.5247 133.377 67.739 142.01 67.739C150.802 67.739 158.811 64.4105 164.862 58.9391C170.904 64.4017 178.923 67.739 187.714 67.739C206.534 67.739 221.789 52.4841 221.789 33.6636C221.789 14.843 206.534 -0.411865 187.714 -0.411865Z" stroke="#4F4898" stroke-miterlimit="10"/>
<path d="M128.002 465.078C129.329 468.161 132.402 470.321 135.968 470.321C139.534 470.321 142.607 468.161 143.934 465.078" stroke="#00A5AE" stroke-miterlimit="10" stroke-linecap="round" stroke-linejoin="round"/>
<path d="M143.942 465.078C145.269 468.161 148.342 470.321 151.908 470.321C155.482 470.321 158.547 468.161 159.874 465.078" stroke="#00A5AE" stroke-miterlimit="10" stroke-linecap="round" stroke-linejoin="round"/>
<path d="M159.882 465.078C161.208 468.161 164.282 470.321 167.848 470.321C171.422 470.321 174.487 468.161 175.813 465.078" stroke="#00A5AE" stroke-miterlimit="10" stroke-linecap="round" stroke-linejoin="round"/>
<path d="M-7.74609 465.078C-6.41996 468.161 -3.34615 470.321 0.219478 470.321C3.7851 470.321 6.85892 468.161 8.18505 465.078" stroke="#00A5AE" stroke-miterlimit="10" stroke-linecap="round" stroke-linejoin="round"/>
<path d="M8.19336 465.078C9.51949 468.161 12.5933 470.321 16.1589 470.321C19.7246 470.321 22.7984 468.161 24.1245 465.078" stroke="#00A5AE" stroke-miterlimit="10" stroke-linecap="round" stroke-linejoin="round"/>
<path d="M24.1338 465.078C25.4599 468.161 28.5337 470.321 32.0994 470.321C35.665 470.321 38.7388 468.161 40.0649 465.078" stroke="#00A5AE" stroke-miterlimit="10" stroke-linecap="round" stroke-linejoin="round"/>
<path d="M266.254 465.078C267.58 468.161 270.654 470.321 274.219 470.321C277.794 470.321 280.859 468.161 282.185 465.078" stroke="#00A5AE" stroke-miterlimit="10" stroke-linecap="round" stroke-linejoin="round"/>
<path d="M282.194 465.078C283.52 468.161 286.594 470.321 290.159 470.321C293.734 470.321 296.799 468.161 298.125 465.078" stroke="#00A5AE" stroke-miterlimit="10" stroke-linecap="round" stroke-linejoin="round"/>
<path d="M298.125 465.078C299.451 468.161 302.525 470.321 306.091 470.321C309.665 470.321 312.73 468.161 314.056 465.078" stroke="#00A5AE" stroke-miterlimit="10" stroke-linecap="round" stroke-linejoin="round"/>
<path d="M401.712 465.078C403.039 468.161 406.112 470.321 409.678 470.321C413.252 470.321 416.317 468.161 417.644 465.078" stroke="#00A5AE" stroke-miterlimit="10" stroke-linecap="round" stroke-linejoin="round"/>
<path d="M417.652 465.078C418.978 468.161 422.052 470.321 425.618 470.321C429.192 470.321 432.257 468.161 433.584 465.078" stroke="#00A5AE" stroke-miterlimit="10" stroke-linecap="round" stroke-linejoin="round"/>
<path d="M433.592 465.078C434.918 468.161 437.992 470.321 441.558 470.321C445.132 470.321 448.197 468.161 449.523 465.078" stroke="#00A5AE" stroke-miterlimit="10" stroke-linecap="round" stroke-linejoin="round"/>
<path d="M205.629 454.574C206.956 457.657 210.029 459.817 213.595 459.817C217.169 459.817 220.234 457.657 221.561 454.574" stroke="#00A5AE" stroke-miterlimit="10" stroke-linecap="round" stroke-linejoin="round"/>
<path d="M221.561 454.574C222.887 457.657 225.96 459.817 229.526 459.817C233.101 459.817 236.166 457.657 237.492 454.574" stroke="#00A5AE" stroke-miterlimit="10" stroke-linecap="round" stroke-linejoin="round"/>
<path d="M67.7734 454.574C69.0996 457.657 72.1734 459.817 75.739 459.817C79.3046 459.817 82.3785 457.657 83.7046 454.574" stroke="#00A5AE" stroke-miterlimit="10" stroke-linecap="round" stroke-linejoin="round"/>
<path d="M83.7134 454.574C85.0395 457.657 88.1133 459.817 91.679 459.817C95.2446 459.817 98.3184 457.657 99.6445 454.574" stroke="#00A5AE" stroke-miterlimit="10" stroke-linecap="round" stroke-linejoin="round"/>
<path d="M343.802 454.574C345.128 457.657 348.202 459.817 351.767 459.817C355.342 459.817 358.407 457.657 359.733 454.574" stroke="#00A5AE" stroke-miterlimit="10" stroke-linecap="round" stroke-linejoin="round"/>
<path d="M359.733 454.574C361.059 457.657 364.133 459.817 367.698 459.817C371.273 459.817 374.338 457.657 375.664 454.574" stroke="#00A5AE" stroke-miterlimit="10" stroke-linecap="round" stroke-linejoin="round"/>
<path d="M539.551 465.078C540.877 468.161 543.951 470.321 547.517 470.321C551.091 470.321 554.156 468.161 555.482 465.078" stroke="#00A5AE" stroke-miterlimit="10" stroke-linecap="round" stroke-linejoin="round"/>
<path d="M555.491 465.078C556.817 468.161 559.891 470.321 563.457 470.321C567.031 470.321 570.096 468.161 571.422 465.078" stroke="#00A5AE" stroke-miterlimit="10" stroke-linecap="round" stroke-linejoin="round"/>
<path d="M481.632 454.574C482.958 457.657 486.032 459.817 489.597 459.817C493.163 459.817 496.237 457.657 497.563 454.574" stroke="#00A5AE" stroke-miterlimit="10" stroke-linecap="round" stroke-linejoin="round"/>
<path d="M497.572 454.574C498.898 457.657 501.972 459.817 505.537 459.817C509.112 459.817 512.177 457.657 513.503 454.574" stroke="#00A5AE" stroke-miterlimit="10" stroke-linecap="round" stroke-linejoin="round"/>
</g>
<defs>
<clipPath id="clip0_501_3248">
<rect width="563" height="489" fill="white"/>
</clipPath>
</defs>
</svg>
