<svg width="1148" height="583" viewBox="0 0 1148 583" fill="none" xmlns="http://www.w3.org/2000/svg">
<path d="M562.645 38.4559C573.028 38.4559 581.445 30.0389 581.445 19.656C581.445 9.273 573.028 0.855957 562.645 0.855957C552.262 0.855957 543.845 9.273 543.845 19.656C543.845 30.0389 552.262 38.4559 562.645 38.4559Z" fill="#4F4898"/>
<path d="M597.145 72.9562C600.545 40.3562 584.645 29.2562 572.045 26.0562C571.945 26.0562 571.845 26.0562 571.745 25.9562C568.245 25.0562 564.645 26.1562 562.045 28.9562C559.445 26.1562 555.745 25.0562 552.345 25.9562C552.245 25.9562 552.145 25.9562 552.045 26.0562C539.545 29.2562 519.745 44.0562 530.045 72.9562" fill="#4F4898"/>
<path d="M707.745 378.656L703.045 345.156C705.745 305.156 699.445 274.256 694.245 255.456C691.645 246.056 665.745 156.956 597.045 125.156C593.145 123.356 586.345 120.256 579.545 118.556V105.956C584.945 101.556 588.445 94.8561 588.445 87.2561V82.8561C588.545 82.8561 588.545 82.8561 588.645 82.8561C594.345 82.8561 599.045 78.1561 599.045 72.4561C599.045 66.7561 594.345 62.0561 588.645 62.0561C588.545 62.0561 588.545 62.0561 588.445 62.0561V58.5561C588.445 45.2561 577.645 34.4561 564.345 34.4561H560.345C547.045 34.4561 536.245 45.2561 536.245 58.5561V62.0561C536.145 62.0561 536.145 62.0561 536.045 62.0561C530.345 62.0561 525.645 66.7561 525.645 72.4561C525.645 78.1561 530.345 82.8561 536.045 82.8561C536.145 82.8561 536.145 82.8561 536.245 82.8561V87.2561C536.245 94.8561 539.745 101.556 545.145 105.956V118.556C538.345 120.156 531.545 123.356 527.645 125.156C458.945 156.956 433.045 246.056 430.445 255.456C425.245 274.256 418.945 305.156 421.645 345.156L416.945 378.656C416.645 380.356 417.845 381.956 419.445 382.056C420.745 382.156 422.045 381.256 422.345 379.856L426.845 357.656L424.645 379.756C424.445 381.256 425.545 382.556 426.945 382.656C428.145 382.756 429.245 381.856 429.545 380.556L433.445 358.956L432.745 380.756C432.745 382.056 433.645 383.156 434.845 383.256C436.045 383.356 437.145 382.456 437.345 381.156L440.045 358.656L440.345 381.256C440.345 382.556 441.345 383.656 442.645 383.756C444.045 383.856 445.245 382.756 445.345 381.356L446.845 357.956L452.845 365.156C454.045 366.556 456.045 366.756 457.545 365.556C458.745 364.556 459.145 362.756 458.545 361.256L449.445 342.756C450.045 335.956 451.645 324.456 455.845 311.056C464.145 284.956 477.645 268.256 492.745 252.156C492.745 252.356 492.645 252.556 492.645 252.756C491.445 255.756 490.145 258.956 488.845 262.156C482.245 279.156 480.945 290.556 479.645 314.156C478.345 337.756 482.245 363.556 492.145 387.156C501.945 410.756 506.545 416.456 505.945 434.656C505.245 452.956 504.645 473.456 511.845 489.056C519.045 504.556 526.945 515.156 526.245 527.556C525.645 538.056 518.545 543.856 514.045 550.056C513.745 550.256 513.545 550.556 513.345 550.856L508.345 558.156C507.045 560.056 507.545 562.656 509.545 563.956C510.245 564.456 511.045 564.656 511.845 564.656C511.545 566.356 512.445 568.156 514.045 568.956C514.645 569.256 515.245 569.356 515.845 569.356C515.845 570.856 516.645 572.356 518.045 573.156C519.145 573.756 520.445 573.756 521.545 573.256C521.645 574.656 522.445 576.056 523.745 576.756C524.945 577.356 526.245 577.356 527.345 576.856C527.645 578.556 528.645 580.056 530.245 580.956H530.345C533.045 582.356 536.445 581.256 537.845 578.556L540.845 572.756C542.145 571.056 543.545 568.256 545.645 563.956C550.845 552.856 550.545 552.056 554.845 544.656C559.145 537.256 560.445 535.756 557.845 526.756C555.245 517.756 551.845 518.956 554.845 496.956C557.845 474.956 562.545 465.356 559.245 455.356C555.945 445.356 555.945 445.356 555.945 445.356C555.945 445.356 558.345 437.556 560.445 424.356C562.545 411.156 562.545 395.556 562.545 395.556V120.656V395.756C562.545 395.756 562.545 411.256 564.645 424.556C566.745 437.756 569.145 445.556 569.145 445.556C569.145 445.556 569.145 445.556 565.845 455.556C562.545 465.556 567.145 475.156 570.245 497.156C573.245 519.156 569.845 517.956 567.245 526.956C564.645 535.956 565.945 537.456 570.245 544.856C574.545 552.256 574.345 553.156 579.645 564.356C581.645 568.656 583.045 571.456 584.445 573.156L587.445 578.956C588.845 581.656 592.145 582.756 594.945 581.356H595.045C596.645 580.556 597.745 578.956 597.945 577.256C599.045 577.756 600.345 577.756 601.545 577.156C602.945 576.456 603.745 575.056 603.745 573.656C604.845 574.056 606.145 574.056 607.245 573.556C608.745 572.756 609.545 571.256 609.445 569.756C610.045 569.756 610.645 569.656 611.245 569.356C612.845 568.556 613.645 566.756 613.445 565.056C614.245 565.056 615.045 564.856 615.745 564.356C617.645 563.056 618.145 560.456 616.945 558.556L611.745 551.156C611.545 550.856 611.345 550.556 611.045 550.356C606.445 544.056 599.345 538.256 598.845 527.856C598.145 515.456 606.045 504.956 613.245 489.356C620.445 473.856 619.845 453.256 619.145 434.956C618.445 416.656 623.045 411.056 632.945 387.456C642.745 363.856 646.745 338.056 645.445 314.456C644.145 290.856 642.845 279.456 636.245 262.456C635.045 259.256 633.745 256.056 632.445 253.056C632.445 252.856 632.345 252.656 632.345 252.456C647.445 268.556 660.845 285.156 669.245 311.356C673.545 324.756 675.045 336.156 675.645 343.056L666.545 361.556C665.945 363.056 666.345 364.856 667.545 365.856C668.945 367.056 671.045 366.856 672.245 365.456L678.245 358.256L679.745 381.656C679.845 383.156 681.045 384.156 682.445 384.056C683.745 383.956 684.745 382.856 684.745 381.556L685.045 358.956L687.745 381.456C687.945 382.756 688.945 383.656 690.245 383.556C691.445 383.456 692.445 382.356 692.345 381.056L691.645 359.256L695.545 380.856C695.845 382.156 696.945 382.956 698.145 382.956C699.545 382.856 700.545 381.556 700.445 380.056L698.245 357.956L702.745 380.156C703.045 381.556 704.345 382.456 705.645 382.356C706.845 381.856 708.045 380.356 707.745 378.656Z" fill="#C1BDDF" stroke="#4F4898" stroke-miterlimit="10"/>
<path d="M561.745 45.6559C561.745 43.5559 559.845 41.7559 557.545 41.7559C555.345 41.7559 553.445 43.3559 553.345 45.4559C552.645 44.8559 551.645 44.4559 550.545 44.4559C548.245 44.4559 546.345 46.1559 546.345 48.3559C546.345 49.3559 546.745 50.1559 547.345 50.8559C547.045 50.7559 546.645 50.7559 546.345 50.7559C544.045 50.7559 542.145 52.4559 542.145 54.6559C542.145 56.3559 543.345 57.7559 544.945 58.3559V58.4559C543.045 59.1559 541.645 60.8559 541.645 62.7559C541.645 65.3559 543.945 67.4559 546.645 67.4559C546.845 67.4559 546.945 67.4559 547.145 67.4559C546.645 68.0559 546.245 68.9559 546.245 69.7559C546.245 71.8559 548.145 73.6559 550.445 73.6559C551.545 73.6559 552.545 73.2559 553.345 72.6559C553.745 74.4559 555.445 75.7559 557.445 75.7559C559.745 75.7559 561.645 74.0559 561.645 71.8559V71.7559V46.4559C561.645 46.3559 561.645 46.2559 561.645 46.1559C561.645 46.0559 561.745 45.8559 561.745 45.6559Z" fill="#F5ADAB"/>
<path d="M563.245 45.6559C563.245 43.5559 565.145 41.7559 567.445 41.7559C569.645 41.7559 571.545 43.3559 571.645 45.4559C572.345 44.8559 573.345 44.4559 574.445 44.4559C576.745 44.4559 578.645 46.1559 578.645 48.3559C578.645 49.3559 578.245 50.1559 577.645 50.8559C577.945 50.7559 578.345 50.7559 578.645 50.7559C580.945 50.7559 582.845 52.4559 582.845 54.6559C582.845 56.3559 581.645 57.7559 580.045 58.3559V58.4559C581.945 59.1559 583.345 60.8559 583.345 62.7559C583.345 65.3559 581.045 67.4559 578.345 67.4559C578.145 67.4559 578.045 67.4559 577.845 67.4559C578.345 68.0559 578.745 68.9559 578.745 69.7559C578.745 71.8559 576.845 73.6559 574.545 73.6559C573.445 73.6559 572.445 73.2559 571.645 72.6559C571.245 74.4559 569.545 75.7559 567.545 75.7559C565.245 75.7559 563.345 74.0559 563.345 71.8559V71.7559V46.4559C563.345 46.3559 563.345 46.2559 563.345 46.1559C563.245 46.0559 563.245 45.8559 563.245 45.6559Z" fill="#F5ADAB"/>
<path d="M544.945 58.4561C543.045 59.1561 541.645 60.8561 541.645 62.7561C541.645 65.3561 543.945 67.4561 546.645 67.4561" stroke="#E94B60" stroke-miterlimit="10"/>
<path d="M546.345 50.7559C544.045 50.7559 542.145 52.4559 542.145 54.6559" stroke="#E94B60" stroke-miterlimit="10"/>
<path d="M550.545 44.5562C548.245 44.5562 546.345 46.2561 546.345 48.4561" stroke="#E94B60" stroke-miterlimit="10"/>
<path d="M561.745 45.6559C561.745 43.5559 559.845 41.7559 557.545 41.7559" stroke="#E94B60" stroke-miterlimit="10"/>
<path d="M557.545 75.7559C559.845 75.7559 561.745 74.0559 561.745 71.8559V71.7559" stroke="#E94B60" stroke-miterlimit="10"/>
<path d="M546.345 69.7559C546.345 71.8559 548.245 73.6559 550.545 73.6559" stroke="#E94B60" stroke-miterlimit="10"/>
<path d="M577.745 67.4561C578.245 68.0561 578.645 68.9561 578.645 69.7561" stroke="#E94B60" stroke-miterlimit="10"/>
<path d="M580.045 58.4561C581.945 59.1561 583.345 60.8561 583.345 62.7561" stroke="#E94B60" stroke-miterlimit="10"/>
<path d="M571.645 45.556C571.545 43.456 569.745 41.856 567.445 41.856C565.145 41.856 563.245 43.556 563.245 45.756C563.245 45.756 563.245 71.656 563.245 71.756V46.4559" stroke="#E94B60" stroke-miterlimit="10"/>
<path d="M553.245 50.156C555.145 49.256 557.345 50.056 558.245 51.956C559.145 53.856 558.345 56.056 556.445 56.956" stroke="#E94B60" stroke-miterlimit="10"/>
<path d="M573.645 54.0562C575.745 54.1562 577.345 55.9562 577.145 58.0562C576.945 60.1562 575.245 61.7562 573.145 61.5562" stroke="#E94B60" stroke-miterlimit="10"/>
<path d="M568.445 54.056C566.845 53.156 566.345 51.056 567.245 49.456C568.145 47.856 570.245 47.356 571.845 48.256" stroke="#E94B60" stroke-miterlimit="10"/>
<path d="M565.345 68.0561C565.945 69.7561 567.845 70.7561 569.545 70.1561C571.245 69.5561 572.245 67.6561 571.645 65.9561" stroke="#E94B60" stroke-miterlimit="10"/>
<path d="M549.845 59.856C548.545 61.556 548.945 63.856 550.545 65.156C552.245 66.456 554.545 66.0559 555.845 64.4559" stroke="#E94B60" stroke-miterlimit="10"/>
<path d="M599.945 251.556C602.927 251.556 605.345 249.138 605.345 246.156C605.345 243.174 602.927 240.756 599.945 240.756C596.962 240.756 594.545 243.174 594.545 246.156C594.545 249.138 596.962 251.556 599.945 251.556Z" fill="#E94B60"/>
<path d="M605.245 258.256C608.227 258.256 610.645 255.838 610.645 252.856C610.645 249.874 608.227 247.456 605.245 247.456C602.262 247.456 599.845 249.874 599.845 252.856C599.845 255.838 602.262 258.256 605.245 258.256Z" fill="#E94B60"/>
<path d="M602.045 267.256C605.027 267.256 607.445 264.838 607.445 261.856C607.445 258.874 605.027 256.456 602.045 256.456C599.062 256.456 596.645 258.874 596.645 261.856C596.645 264.838 599.062 267.256 602.045 267.256Z" fill="#E94B60"/>
<path d="M602.045 241.256L603.745 242.156C607.345 244.056 609.945 247.556 610.745 251.556C611.445 255.256 610.645 259.156 608.345 262.256L606.745 264.456L602.045 241.256Z" fill="#E94B60"/>
<path d="M602.045 241.256L603.745 242.156C607.345 244.056 609.945 247.556 610.745 251.556C611.445 255.256 610.645 259.156 608.345 262.256L606.745 264.456" stroke="#F5ADAB" stroke-miterlimit="10"/>
<path d="M597.445 291.756L596.845 291.356C595.345 290.356 593.445 290.156 591.745 290.756L585.345 292.956C584.045 293.456 582.645 293.456 581.245 292.956L577.445 291.656C576.445 291.356 575.445 290.856 574.545 290.156C572.545 288.656 570.245 287.556 567.745 286.956L565.945 286.456C565.245 286.256 564.645 286.156 563.945 286.056L563.545 285.956C562.745 285.856 561.945 285.856 561.145 285.956L560.745 286.056C560.045 286.156 559.445 286.356 558.745 286.456L556.945 286.956C554.445 287.556 552.245 288.756 550.145 290.256C549.245 290.856 548.345 291.356 547.245 291.656L543.445 292.856C542.145 293.256 540.645 293.256 539.345 292.856L532.945 290.656C531.245 290.056 529.345 290.256 527.845 291.256L527.245 291.656C526.545 292.156 525.945 292.756 525.545 293.456C524.645 295.356 524.945 297.456 526.245 298.856L528.245 301.156C529.145 302.156 530.145 302.956 531.245 303.656L531.745 303.956L535.345 301.256L533.245 299.256C532.545 298.656 531.945 297.956 531.445 297.156L530.445 295.656C530.145 295.156 530.145 294.556 530.545 294.156C530.945 293.756 531.545 293.556 532.045 293.856L532.245 293.956C533.445 294.556 534.745 295.056 536.145 295.356L537.845 295.756C539.145 296.056 540.545 296.156 541.845 295.856L545.845 295.256C546.545 295.156 547.145 295.456 547.545 295.956L547.845 296.356C549.045 298.056 549.745 300.056 549.745 302.156C549.745 305.756 551.645 309.156 554.745 311.156C555.245 311.456 555.445 311.956 555.545 312.356C555.645 312.856 555.645 313.456 555.545 314.056C555.545 314.056 555.345 315.456 555.145 315.756C553.945 317.956 553.345 320.356 553.345 322.856V322.956C553.345 326.056 554.445 329.156 556.445 331.556L558.345 333.856L558.645 339.956L561.445 339.456C562.145 339.356 562.945 339.356 563.645 339.456L566.445 339.956L566.745 333.856L568.645 331.556C570.645 329.156 571.745 326.056 571.745 322.956V322.856C571.745 320.356 571.145 317.956 569.945 315.756C569.745 315.456 569.545 314.056 569.545 314.056C569.445 313.556 569.445 312.956 569.545 312.356C569.645 311.956 569.945 311.456 570.345 311.156C573.445 309.256 575.345 305.856 575.345 302.156C575.345 300.056 575.945 298.056 577.245 296.356L577.545 295.956C577.945 295.456 578.645 295.156 579.245 295.256L583.245 295.856C584.545 296.056 585.945 296.056 587.245 295.756L588.945 295.356C590.245 295.056 591.545 294.556 592.745 293.956L592.945 293.856C593.445 293.556 594.045 293.756 594.445 294.156C594.845 294.556 594.845 295.256 594.545 295.656L593.545 297.156C593.045 297.856 592.445 298.556 591.745 299.256L589.645 301.256L593.245 303.956L593.745 303.656C594.845 303.056 595.945 302.156 596.745 301.156L598.745 298.856C599.945 297.456 600.345 295.356 599.445 293.456C598.745 292.756 598.145 292.156 597.445 291.756Z" fill="#F5ADAB"/>
<path d="M596.945 292.156L596.545 291.756C595.645 290.956 594.345 290.756 593.145 291.156L585.945 293.856C584.545 294.356 582.945 294.456 581.445 293.956L569.845 289.956C568.645 289.556 567.345 289.256 566.045 289.056L563.445 288.756C562.745 288.656 562.045 288.656 561.245 288.756L558.645 289.056C557.345 289.256 556.145 289.556 554.845 289.956L543.245 293.956C541.745 294.456 540.245 294.456 538.745 293.856L531.545 291.156C530.445 290.756 529.145 290.956 528.145 291.756L527.745 292.156C526.245 293.456 525.845 295.656 526.845 297.356L529.645 302.156C529.645 302.256 529.845 302.256 529.845 302.156L531.145 300.356V300.256L528.545 296.656C527.745 295.556 527.945 294.056 529.045 293.156C529.745 292.556 530.645 292.456 531.545 292.756L538.745 295.256C540.045 295.656 541.445 295.756 542.745 295.556L549.445 294.256C551.345 293.856 553.245 294.856 554.145 296.556L562.245 312.656L570.345 296.556C571.245 294.856 573.145 293.856 575.045 294.256L581.745 295.556C583.045 295.856 584.445 295.756 585.745 295.256L592.945 292.756C593.745 292.456 594.745 292.656 595.445 293.156C596.545 294.056 596.745 295.556 595.945 296.656L593.345 300.256V300.356L594.645 302.156C594.745 302.256 594.845 302.256 594.845 302.156L597.645 297.356C598.845 295.656 598.445 293.456 596.945 292.156Z" fill="#E94B60"/>
<path d="M535.545 307.056C538.693 307.056 541.245 305.086 541.245 302.656C541.245 300.226 538.693 298.256 535.545 298.256C532.397 298.256 529.845 300.226 529.845 302.656C529.845 305.086 532.397 307.056 535.545 307.056Z" fill="#F6A000"/>
<path d="M539.845 299.856C540.445 300.156 541.245 300.156 541.845 299.756L549.645 295.056L549.045 295.956L550.345 295.756L549.545 296.556L550.845 296.856L549.445 297.156C549.045 297.256 548.745 297.356 548.445 297.556L542.445 300.956C541.845 301.256 541.445 301.856 541.245 302.556L539.845 299.856Z" fill="#F6A000"/>
<path d="M569.045 322.256C568.745 322.456 568.445 322.656 568.145 322.856C566.545 324.156 564.745 324.256 563.645 324.156C563.145 324.156 562.745 323.856 562.545 323.456L562.445 323.256L562.345 323.456C562.145 323.856 561.745 324.056 561.245 324.156C560.145 324.256 558.445 324.056 556.745 322.856C556.445 322.656 556.145 322.456 555.845 322.256L554.645 321.556V322.356C554.645 325.856 556.045 329.156 558.445 331.656C559.445 332.656 560.045 334.056 560.045 335.556V339.156L560.345 339.056C561.645 338.556 563.145 338.556 564.445 339.056L564.745 339.156V335.556C564.745 334.056 565.345 332.656 566.345 331.656C568.845 329.156 570.145 325.856 570.145 322.356V321.556L569.045 322.256Z" fill="#E94B60"/>
<path d="M562.445 323.456C562.997 323.456 563.445 323.098 563.445 322.656C563.445 322.214 562.997 321.856 562.445 321.856C561.892 321.856 561.445 322.214 561.445 322.656C561.445 323.098 561.892 323.456 562.445 323.456Z" fill="#E94B60"/>
<path d="M562.445 321.356C562.942 321.356 563.345 321.043 563.345 320.656C563.345 320.269 562.942 319.956 562.445 319.956C561.948 319.956 561.545 320.269 561.545 320.656C561.545 321.043 561.948 321.356 562.445 321.356Z" fill="#E94B60"/>
<path d="M562.445 319.456C562.942 319.456 563.345 319.143 563.345 318.756C563.345 318.37 562.942 318.056 562.445 318.056C561.948 318.056 561.545 318.37 561.545 318.756C561.545 319.143 561.948 319.456 562.445 319.456Z" fill="#E94B60"/>
<path d="M562.445 317.456C562.886 317.456 563.245 317.187 563.245 316.856C563.245 316.524 562.886 316.256 562.445 316.256C562.003 316.256 561.645 316.524 561.645 316.856C561.645 317.187 562.003 317.456 562.445 317.456Z" fill="#E94B60"/>
<path d="M562.445 315.556C562.831 315.556 563.145 315.287 563.145 314.956C563.145 314.625 562.831 314.356 562.445 314.356C562.058 314.356 561.745 314.625 561.745 314.956C561.745 315.287 562.058 315.556 562.445 315.556Z" fill="#E94B60"/>
<path d="M562.445 313.456C562.831 313.456 563.145 313.232 563.145 312.956C563.145 312.68 562.831 312.456 562.445 312.456C562.058 312.456 561.745 312.68 561.745 312.956C561.745 313.232 562.058 313.456 562.445 313.456Z" fill="#E94B60"/>
<path d="M589.445 307.056C592.593 307.056 595.145 305.086 595.145 302.656C595.145 300.226 592.593 298.256 589.445 298.256C586.297 298.256 583.745 300.226 583.745 302.656C583.745 305.086 586.297 307.056 589.445 307.056Z" fill="#F6A000"/>
<path d="M585.145 299.856C584.545 300.156 583.745 300.156 583.145 299.756L575.345 295.056L575.945 295.956L574.645 295.756L575.445 296.556L574.145 296.856L575.545 297.156C575.945 297.256 576.245 297.356 576.545 297.556L582.545 300.956C583.145 301.256 583.545 301.856 583.745 302.556L585.145 299.856Z" fill="#F6A000"/>
<path d="M596.945 256.356C596.345 256.656 595.745 257.256 595.245 257.956C593.345 260.756 594.745 264.256 594.845 264.656" stroke="#F8B99B" stroke-width="3" stroke-miterlimit="10"/>
<path d="M537.445 272.156C528.545 270.756 519.745 274.656 514.745 282.056L512.645 285.256C510.045 289.056 509.645 295.456 511.745 299.556C512.345 300.756 513.645 301.556 514.945 301.556H517.845C519.845 301.556 521.445 303.156 521.445 305.156C521.445 306.756 522.545 308.256 524.145 308.656L526.345 309.256C528.445 309.856 530.145 311.356 530.945 313.456L534.345 322.756C535.345 325.456 538.045 326.956 540.845 326.356L542.545 326.056C544.245 325.756 545.945 325.756 547.645 326.156C548.745 326.456 549.845 326.256 550.745 325.556C551.545 324.956 552.145 324.056 552.145 322.956L552.545 317.956C552.645 316.556 552.345 315.256 551.545 314.156L551.345 313.856C551.145 313.656 550.945 313.356 550.745 313.156C548.045 310.456 549.145 309.556 548.645 305.956C548.545 304.956 548.445 304.056 548.445 303.056C548.445 302.256 547.945 301.556 547.145 301.456C546.345 301.356 545.545 301.856 545.345 302.656L545.145 303.756C544.345 307.156 541.545 309.656 538.145 310.056C535.545 310.356 532.945 309.456 531.145 307.456L524.345 300.056C521.945 297.456 521.645 293.556 523.745 290.656C525.845 287.756 529.645 286.756 532.845 288.156L536.745 289.856C539.845 291.156 543.345 291.556 546.645 290.756C548.845 290.256 550.245 287.956 549.545 285.756L548.345 281.956C546.645 277.756 541.845 272.856 537.445 272.156Z" fill="white"/>
<path d="M535.945 327.856L538.245 327.356C538.545 327.256 538.945 327.256 539.245 327.356C540.245 327.656 540.745 328.856 540.345 329.856L540.045 330.556C539.045 333.156 541.045 336.056 543.745 335.756C543.945 335.756 544.045 335.756 544.245 335.656L547.845 334.856C548.945 334.656 549.845 333.956 550.445 332.956L551.845 330.456L552.945 328.556C553.045 328.356 553.345 328.456 553.445 328.656L553.745 329.456C554.245 331.156 556.145 333.356 557.245 334.556C557.745 335.056 557.945 335.856 557.645 336.556C556.345 339.956 553.345 342.456 549.745 343.056C548.645 343.256 547.545 343.256 546.445 343.156L539.745 342.556C536.045 342.256 533.245 339.156 533.245 335.456V335.356L534.545 329.456C534.445 328.856 535.045 328.056 535.945 327.856Z" fill="white"/>
<path d="M549.545 279.756C548.745 279.356 547.945 280.156 548.345 280.956C548.345 280.956 550.545 287.656 551.345 287.856C551.545 287.956 552.145 287.556 552.445 287.256C552.745 287.056 552.945 286.856 553.245 286.656C555.545 285.156 557.845 284.156 560.445 283.456C560.745 283.356 561.145 283.256 561.445 283.256L562.345 283.156V282.456L556.945 281.756C556.545 281.656 556.145 281.656 555.645 281.656C554.145 281.656 552.745 281.356 551.345 280.756L549.545 279.756Z" fill="white"/>
<path d="M587.345 272.156C596.245 270.756 605.045 274.656 610.045 282.056L612.145 285.256C614.745 289.056 615.145 295.456 613.045 299.556C612.445 300.756 611.145 301.556 609.845 301.556H606.945C604.945 301.556 603.345 303.156 603.345 305.156C603.345 306.756 602.245 308.256 600.645 308.656L598.445 309.256C596.345 309.856 594.645 311.356 593.845 313.456L590.445 322.756C589.445 325.456 586.745 326.956 583.945 326.356L582.245 326.056C580.545 325.756 578.845 325.756 577.145 326.156C576.045 326.456 574.945 326.256 574.045 325.556C573.245 324.956 572.645 324.056 572.645 322.956L572.245 317.956C572.145 316.556 572.445 315.256 573.245 314.156L573.445 313.856C573.645 313.656 573.845 313.356 574.045 313.156C576.745 310.456 575.645 309.556 576.145 305.956C576.245 304.956 576.345 304.056 576.345 303.056C576.345 302.256 576.845 301.556 577.645 301.456C578.445 301.356 579.245 301.856 579.445 302.656L579.645 303.756C580.445 307.156 583.245 309.656 586.645 310.056C589.245 310.356 591.845 309.456 593.645 307.456L600.445 300.056C602.845 297.456 603.145 293.556 601.045 290.656C598.945 287.756 595.145 286.756 591.945 288.156L588.045 289.856C584.945 291.156 581.445 291.556 578.145 290.756C575.945 290.256 574.545 287.956 575.245 285.756L576.445 281.956C578.145 277.756 582.945 272.856 587.345 272.156Z" fill="white"/>
<path d="M588.945 327.856L586.645 327.356C586.345 327.256 585.945 327.256 585.645 327.356C584.645 327.656 584.145 328.856 584.545 329.856L584.845 330.556C585.845 333.156 583.845 336.056 581.145 335.756C580.945 335.756 580.845 335.756 580.645 335.656L577.045 334.856C575.945 334.656 575.045 333.956 574.445 332.956L573.045 330.456L571.945 328.556C571.845 328.356 571.545 328.456 571.445 328.656L571.145 329.456C570.645 331.156 568.745 333.356 567.645 334.556C567.145 335.056 566.945 335.856 567.245 336.556C568.545 339.956 571.545 342.456 575.145 343.056C576.245 343.256 577.345 343.256 578.445 343.156L585.145 342.556C588.845 342.256 591.645 339.156 591.645 335.456V335.356L590.345 329.456C590.445 328.856 589.845 328.056 588.945 327.856Z" fill="white"/>
<path d="M575.245 279.756C576.045 279.356 576.845 280.156 576.445 280.956C576.445 280.956 574.245 287.656 573.445 287.856C573.245 287.956 572.645 287.556 572.345 287.256C572.045 287.056 571.845 286.856 571.545 286.656C569.245 285.156 566.945 284.156 564.345 283.456C564.045 283.356 563.645 283.256 563.345 283.256L562.445 283.156V282.456L567.845 281.756C568.245 281.656 568.645 281.656 569.145 281.656C570.645 281.656 572.045 281.356 573.445 280.756L575.245 279.756Z" fill="white"/>
<path d="M597.945 253.156C595.445 253.456 589.645 254.556 583.945 258.956C571.445 268.456 572.045 284.556 571.245 286.656" stroke="#F6A000" stroke-width="3" stroke-miterlimit="10"/>
<path d="M553.438 362.318C555.869 361.804 557.266 358.671 556.558 355.321C555.85 351.971 553.305 349.671 550.873 350.185C548.441 350.699 547.044 353.832 547.753 357.182C548.461 360.532 551.006 362.831 553.438 362.318Z" fill="#FFEC83"/>
<path d="M577.256 357.179C577.964 353.828 576.567 350.696 574.135 350.182C571.704 349.668 569.159 351.967 568.45 355.317C567.742 358.668 569.139 361.8 571.571 362.314C574.003 362.828 576.548 360.529 577.256 357.179Z" fill="#FFEC83"/>
<path d="M554.145 361.956C551.845 363.056 549.145 361.456 547.945 358.256C546.845 355.056 547.745 351.556 549.945 350.456" fill="#FFEC83"/>
<path d="M554.145 361.956C551.845 363.056 549.145 361.456 547.945 358.256C546.845 355.056 547.745 351.556 549.945 350.456" stroke="#F6A000" stroke-miterlimit="10"/>
<path d="M574.945 350.556C572.645 349.456 569.945 351.056 568.745 354.256C567.645 357.456 568.545 360.956 570.745 362.056" fill="#FFEC83"/>
<path d="M574.945 350.556C572.645 349.456 569.945 351.056 568.745 354.256C567.645 357.456 568.545 360.956 570.745 362.056" stroke="#F6A000" stroke-miterlimit="10"/>
<path d="M596.945 332.656L594.045 330.756C593.245 330.256 592.945 329.156 593.345 328.356L594.045 326.856C595.045 324.756 597.845 324.356 599.345 325.956C599.945 326.656 600.945 326.756 601.745 326.256L602.045 326.056C602.945 325.556 603.945 325.356 604.945 325.556L606.445 325.856C608.345 326.156 609.745 327.756 609.845 329.656V330.056C609.945 331.656 609.745 333.156 609.145 334.656L605.845 343.456C604.845 345.956 604.345 348.656 604.345 351.356C604.345 353.156 604.545 354.956 604.845 356.656C605.445 359.456 605.545 362.356 605.145 365.256L602.345 385.156C601.645 390.456 601.545 395.856 602.045 401.156L603.345 413.456C603.545 414.956 604.045 416.356 604.945 417.556C605.145 417.856 605.345 418.256 605.345 418.656L605.445 421.056C605.545 423.756 603.845 426.156 601.245 427.056C600.045 427.456 598.745 427.456 597.545 427.156L595.445 426.556C595.045 426.456 594.545 426.456 594.145 426.556L590.945 427.856C590.045 428.156 589.145 428.156 588.245 427.656C587.345 427.156 586.745 426.156 586.645 425.156L586.445 422.256C586.345 420.556 586.745 418.856 587.745 417.356C590.145 413.656 591.845 409.556 592.545 405.156L596.245 382.256C596.445 380.856 596.645 379.456 596.745 378.056L599.245 347.556C599.245 347.256 599.245 346.856 599.045 346.556L598.745 345.856C597.545 343.256 597.045 340.256 597.345 337.356L597.745 334.356C597.845 333.756 597.545 333.056 596.945 332.656Z" fill="white"/>
<path d="M594.445 427.756L591.345 429.156C590.345 429.656 589.145 429.556 588.245 428.956C588.045 428.856 587.645 428.956 587.745 429.256L587.845 431.856C587.845 432.756 587.945 433.656 588.145 434.456L589.945 444.156C590.045 444.656 590.745 444.756 590.945 444.256L596.445 428.456C596.645 427.956 596.345 427.456 595.845 427.356C595.645 427.256 595.345 427.356 595.145 427.456C594.845 427.556 594.645 427.656 594.445 427.756Z" fill="white"/>
<path d="M600.245 420.056L591.545 446.556C590.645 449.456 590.045 452.456 589.845 455.456L587.945 484.156C587.845 485.456 588.245 486.756 588.945 487.856V487.956C589.345 488.656 590.245 488.856 591.045 488.556C592.745 487.756 593.945 486.156 594.345 484.356L599.045 461.056C599.345 459.356 599.645 457.556 599.745 455.756L601.145 437.256C601.145 436.656 601.345 436.156 601.545 435.656C602.645 432.756 603.345 429.756 603.645 426.656L604.045 420.856C604.145 420.056 603.645 419.356 602.945 419.056C601.845 418.456 600.545 418.956 600.245 420.056Z" fill="#E94B60"/>
<path d="M602.445 437.456L602.245 438.056C602.245 438.156 602.145 438.256 602.145 438.356L599.845 464.756C599.645 467.356 599.845 469.856 600.545 472.356L600.945 473.956C601.145 474.756 602.145 474.856 602.545 474.156C604.545 470.756 605.545 466.856 605.545 462.856L605.345 442.856C605.345 442.056 605.245 441.256 605.045 440.556L604.245 437.456C604.045 436.756 602.845 436.656 602.445 437.456Z" fill="#E94B60"/>
<path d="M595.645 482.156L594.945 487.056C594.845 487.356 594.745 487.656 594.445 487.856L593.545 488.656C593.245 488.856 593.145 489.256 593.045 489.556L589.945 514.556C589.945 514.856 590.045 515.156 590.245 515.356L590.545 515.756C590.945 516.056 591.545 515.856 591.545 515.356L595.845 482.356C596.045 482.156 595.845 481.956 595.645 482.156Z" fill="white"/>
<path d="M588.045 528.056C588.345 528.656 589.045 528.956 589.745 528.856L591.645 528.556C592.345 528.456 592.945 527.856 593.045 527.156L593.245 525.556C593.445 524.056 591.645 523.156 590.545 524.156L588.445 526.056C587.745 526.556 587.645 527.456 588.045 528.056Z" fill="white"/>
<path d="M529.245 370.256C536.545 392.756 541.145 411.656 541.745 424.456C542.545 443.856 541.745 461.756 541.745 461.756C541.145 473.556 540.345 479.456 541.245 488.956C542.345 501.156 545.345 510.856 547.645 516.956" stroke="#6EB74A" stroke-width="3" stroke-miterlimit="10"/>
<path d="M547.545 320.756C539.545 324.056 528.945 369.156 526.545 383.256C524.245 396.456 520.245 420.956 526.145 450.556C529.845 469.256 532.045 478.556 535.845 500.956C538.545 516.456 548.145 546.456 529.745 547.156" stroke="#E94B60" stroke-width="3" stroke-miterlimit="10"/>
<path d="M529.245 370.256C526.445 371.556 523.045 373.756 520.145 377.256C515.845 382.456 512.145 391.056 514.345 398.656C515.245 401.856 516.645 402.756 517.145 406.556C517.745 410.656 516.745 414.156 515.945 416.556" stroke="#E94B60" stroke-width="3" stroke-miterlimit="10"/>
<path d="M529.745 515.856C530.245 510.456 524.745 497.456 528.045 489.056C531.345 480.656 537.945 473.756 541.245 469.556" stroke="#6EB74A" stroke-width="3" stroke-miterlimit="10"/>
<path d="M524.645 441.556C525.545 443.856 532.145 454.256 536.445 458.056C541.245 462.256 546.145 463.656 548.645 464.156" stroke="#E94B60" stroke-width="3" stroke-miterlimit="10"/>
<path d="M565.545 111.356H559.045V138.756H565.545V111.356Z" fill="#E94B60"/>
<path d="M545.245 149.856L562.245 135.056L579.245 150.456" stroke="#E94B60" stroke-width="7" stroke-miterlimit="10"/>
<path d="M579.345 208.856L579.845 207.956C582.145 203.856 586.545 201.356 591.245 201.556C597.745 201.956 602.845 207.256 602.845 213.756V220.256C602.845 228.556 600.345 236.756 595.645 243.656C593.245 247.156 590.045 249.956 586.145 251.656L585.345 251.956C577.345 255.556 565.245 256.756 560.045 252.956L548.645 245.556C548.145 245.256 547.545 245.556 547.545 246.156V249.356C547.545 251.856 545.545 253.856 543.045 253.856C540.545 253.856 538.545 251.856 538.545 249.356V243.756C538.545 240.656 540.345 237.756 543.145 236.456L543.345 236.356C545.945 235.156 548.845 234.856 551.645 235.556L555.645 236.556C557.845 237.156 560.145 237.256 562.345 236.956L565.245 236.556L570.245 235.756C572.345 235.456 574.045 233.856 574.645 231.756L575.145 229.856C576.245 225.356 575.545 220.556 573.045 216.556L567.345 207.256C566.345 205.656 566.845 203.456 568.545 202.456C569.845 201.756 571.445 201.856 572.445 202.856L579.345 208.856Z" fill="#F6A000"/>
<path d="M572.445 202.856L579.245 208.856L579.745 207.956C582.045 203.856 586.445 201.356 591.145 201.556C597.645 201.956 602.745 207.256 602.745 213.756V220.256C602.745 228.556 600.245 236.756 595.545 243.656C593.145 247.156 589.945 249.956 586.045 251.656L585.245 251.956C577.245 255.556 565.145 256.756 559.945 252.956L548.545 245.556C548.045 245.256 547.445 245.556 547.445 246.156V249.356C547.445 251.856 545.445 253.856 542.945 253.856C540.445 253.856 538.445 251.856 538.445 249.356V243.756" stroke="#FFEC83" stroke-miterlimit="10"/>
<path d="M551.845 133.556V179.956C551.845 189.656 543.445 197.556 533.045 197.556H529.545C515.045 197.556 511.745 180.556 515.645 167.456C518.945 156.056 538.845 130.256 538.845 130.256C542.445 124.556 551.845 126.956 551.845 133.556Z" fill="#6EB74A"/>
<path d="M573.145 133.556V179.956C573.145 189.656 581.545 197.556 591.945 197.556H595.445C609.945 197.556 613.245 180.556 609.345 167.456C606.045 156.056 586.145 130.256 586.145 130.256C582.445 124.556 573.145 126.956 573.145 133.556Z" fill="#6EB74A"/>
<path d="M550.345 175.156L550.045 175.356C544.945 178.356 542.445 184.356 543.945 190.156C545.645 197.156 550.845 202.756 557.745 204.956L566.045 207.656C569.745 208.856 573.745 207.556 576.045 204.456C577.545 202.456 578.145 199.856 577.645 197.456L575.345 185.656C574.645 181.756 572.245 178.356 568.845 176.356C564.945 173.956 560.245 173.056 555.745 173.656L553.645 173.956C552.445 174.156 551.345 174.556 550.345 175.156Z" fill="#E94B60"/>
<path d="M553.145 188.056V166.456" stroke="#E94B60" stroke-width="5" stroke-miterlimit="10"/>
<path d="M567.045 158.056H556.245" stroke="#E94B60" stroke-width="4" stroke-miterlimit="10"/>
<path d="M564.745 184.456L566.045 178.556C567.845 170.356 567.945 161.856 566.345 153.556L562.445 138.256" stroke="#E94B60" stroke-width="4" stroke-miterlimit="10"/>
<path d="M547.545 188.056V171.056" stroke="#E94B60" stroke-width="5" stroke-miterlimit="10"/>
<path d="M564.045 167.456H560.645V177.456H564.045V167.456Z" fill="#F5ADAB"/>
<path d="M556.145 163.456L562.245 168.856L568.445 163.256" stroke="#F5ADAB" stroke-width="4" stroke-miterlimit="10"/>
<path d="M528.645 239.056V222.356C528.645 215.156 534.445 209.356 541.645 209.356H546.945C550.745 209.356 553.745 212.356 553.745 216.156V224.256C553.745 227.956 551.645 231.356 548.245 232.956L531.645 240.856C530.245 241.556 528.645 240.556 528.645 239.056Z" fill="#F5ADAB"/>
<path d="M554.645 214.956V222.056C554.645 224.956 556.945 227.256 559.845 227.256H560.845C563.245 227.256 565.445 226.056 566.645 224.056L573.345 213.256C574.445 211.556 573.145 209.356 571.145 209.356H560.045C557.145 209.356 554.645 211.856 554.645 214.956Z" fill="#F5ADAB"/>
<path d="M548.245 232.956L531.645 240.856C530.245 241.556 528.645 240.556 528.645 238.956V222.256C528.645 215.056 534.445 209.256 541.645 209.256" stroke="#E94B60" stroke-miterlimit="10"/>
<path d="M560.245 209.356C557.145 209.356 554.645 211.856 554.645 214.956V222.056C554.645 224.956 556.945 227.256 559.845 227.256H560.845C563.245 227.256 565.445 226.056 566.645 224.056" stroke="#E94B60" stroke-miterlimit="10"/>
<path d="M547.345 144.156C545.045 145.456 540.945 148.256 537.845 153.156C534.145 158.956 533.645 164.456 533.445 167.056C533.045 172.756 534.245 177.356 535.245 180.156" stroke="#4F4898" stroke-miterlimit="10"/>
<path d="M522.345 182.956L526.445 176.856C526.745 176.456 527.045 175.956 527.245 175.556L533.645 164.856" stroke="#4F4898" stroke-miterlimit="10"/>
<path d="M536.345 155.756L538.045 159.856C539.445 163.156 540.245 166.556 540.645 170.156L540.745 171.056" stroke="#4F4898" stroke-miterlimit="10"/>
<path d="M525.845 155.756L528.345 155.356C531.245 154.956 534.045 153.856 536.645 152.356L539.745 150.456" stroke="#4F4898" stroke-miterlimit="10"/>
<path d="M577.145 144.156C579.445 145.456 583.545 148.256 586.645 153.156C590.345 158.956 590.845 164.456 591.045 167.056C591.445 172.756 590.245 177.356 589.245 180.156" stroke="#4F4898" stroke-miterlimit="10"/>
<path d="M602.245 182.956L598.145 176.856C597.845 176.456 597.545 175.956 597.345 175.556L590.945 164.856" stroke="#4F4898" stroke-miterlimit="10"/>
<path d="M588.245 155.756L586.545 159.856C585.145 163.156 584.345 166.556 583.945 170.156L583.845 171.056" stroke="#4F4898" stroke-miterlimit="10"/>
<path d="M598.645 155.756L596.145 155.356C593.245 154.956 590.445 153.856 587.845 152.356L584.745 150.456" stroke="#4F4898" stroke-miterlimit="10"/>
<path d="M550.045 175.356C544.945 178.356 542.445 184.356 543.945 190.156C545.645 197.156 550.845 202.756 557.745 204.956L566.045 207.656" stroke="#F5ADAB" stroke-miterlimit="10"/>
<path d="M559.045 115.656H565.545" stroke="#F5ADAB" stroke-miterlimit="10"/>
<path d="M559.045 120.656H565.545" stroke="#F5ADAB" stroke-miterlimit="10"/>
<path d="M559.045 125.656H565.545" stroke="#F5ADAB" stroke-miterlimit="10"/>
<path d="M559.045 130.656H565.545" stroke="#F5ADAB" stroke-miterlimit="10"/>
<path d="M562.545 182.856C563.245 182.956 568.345 184.056 570.945 188.956C572.845 192.656 572.145 196.156 571.845 197.056" stroke="#F5ADAB" stroke-miterlimit="10"/>
<path d="M564.045 197.156C565.045 196.356 566.845 194.656 567.945 191.856C568.545 190.256 568.745 187.156 568.745 186.156" stroke="#F5ADAB" stroke-miterlimit="10"/>
<path d="M578.445 531.256C578.445 531.256 580.245 532.156 581.545 531.256C582.845 530.256 582.045 527.956 582.445 527.056C582.845 526.156 584.345 525.256 585.345 525.556C586.345 525.856 586.845 527.856 586.845 527.856C586.845 527.856 587.245 529.856 589.045 530.356C590.845 530.856 592.545 530.256 592.545 530.256C592.545 530.256 594.545 530.856 595.545 531.656C596.545 532.456 595.645 533.956 595.645 533.956C595.645 533.956 590.545 532.756 588.145 533.956C585.745 535.156 584.345 539.056 584.345 539.056C584.345 539.056 583.745 540.956 582.045 540.656C580.345 540.356 580.145 538.756 580.045 537.556C579.945 536.356 580.145 534.856 579.745 533.856C579.245 532.856 578.445 531.256 578.445 531.256Z" fill="white"/>
<path d="M580.745 541.456C580.745 541.456 582.045 542.056 583.245 541.356C584.545 540.656 584.845 539.256 585.345 538.156C585.745 537.056 586.845 535.556 587.845 535.056C588.845 534.556 590.245 534.056 591.645 534.156C593.045 534.256 595.045 534.856 595.045 534.856C595.045 534.856 595.445 536.056 596.445 537.456C597.445 538.856 598.445 539.656 598.445 539.656L597.745 540.256C597.745 540.256 597.245 539.156 596.045 539.556C594.845 539.956 594.745 540.456 594.745 540.456C594.745 540.456 594.145 539.356 592.745 539.756C591.445 540.056 591.245 540.856 591.245 540.856C591.245 540.856 590.645 538.456 588.545 538.656C586.445 538.856 585.745 540.256 585.545 540.956C585.345 541.656 585.845 543.556 585.845 543.556C585.845 543.556 584.745 542.456 583.145 542.756C581.545 542.956 580.645 543.756 580.645 543.756L580.745 541.456Z" fill="white"/>
<path d="M580.045 547.056C580.145 548.656 581.145 548.556 581.245 549.856C581.445 551.156 581.745 552.656 582.045 554.256C582.345 555.856 583.045 557.056 582.745 558.456C582.445 559.856 582.545 561.656 582.545 561.656C582.545 561.656 583.445 559.756 585.845 559.456C588.245 559.156 589.345 560.956 589.345 560.956C589.345 560.956 589.245 559.656 588.245 557.756C587.145 555.756 586.545 552.856 586.545 550.856C586.545 548.856 587.045 546.556 587.045 546.056C587.145 545.556 586.545 544.056 585.245 543.456C583.945 542.856 581.745 543.056 581.045 544.256C580.245 545.356 580.045 547.056 580.045 547.056Z" fill="white"/>
<path d="M586.845 541.056C586.645 541.956 586.545 543.156 587.045 544.056C587.445 544.956 589.045 547.756 589.845 550.456C590.645 553.156 591.045 556.156 591.045 557.656C591.045 559.156 591.345 560.856 591.345 560.856L591.945 561.656C591.945 561.656 591.745 560.056 593.545 559.356C595.345 558.656 596.445 559.956 596.445 559.956C596.445 559.956 596.845 559.256 595.445 556.956C594.045 554.656 592.345 550.956 591.845 549.256C591.345 547.556 591.045 544.756 590.945 543.356C590.845 541.956 590.945 540.156 589.545 539.556C588.245 538.956 587.045 540.156 586.845 541.056Z" fill="white"/>
<path d="M583.345 563.256C583.645 564.156 584.645 564.656 584.845 565.956C585.045 567.256 585.645 567.656 585.445 568.356C585.245 569.056 585.345 569.256 585.445 569.756C585.545 570.256 585.645 570.556 585.645 570.556C585.645 570.556 586.545 568.856 587.645 568.456C588.745 568.056 589.445 568.356 589.445 568.356C589.445 568.356 588.445 566.356 588.645 564.956C588.845 563.556 589.545 563.156 589.545 562.556C589.645 561.856 588.145 559.856 585.945 559.956C583.845 560.156 583.045 561.956 583.345 563.256Z" fill="white"/>
<path d="M586.445 571.856C586.745 572.656 587.645 572.156 588.545 573.056C589.445 573.956 590.445 575.856 591.645 574.756C592.845 573.656 592.945 572.956 591.945 571.956C590.845 570.956 590.845 569.756 590.745 569.356C590.645 568.956 589.145 568.456 588.045 569.056C586.945 569.756 586.145 570.956 586.445 571.856Z" fill="white"/>
<path d="M592.645 562.956C592.445 561.756 592.545 561.356 593.745 560.556C594.945 559.756 596.145 560.756 596.445 561.256C596.845 561.756 596.645 562.756 597.045 563.756C597.445 564.756 598.645 566.356 598.645 566.356C598.645 566.356 597.945 566.056 597.045 566.756C596.045 567.456 595.145 569.056 595.145 569.056C595.145 569.056 595.345 565.956 594.745 564.256C594.145 562.556 592.645 562.956 592.645 562.956Z" fill="white"/>
<path d="M595.745 569.656C595.845 570.156 596.445 570.456 596.945 570.756C597.445 571.056 598.145 571.856 598.145 571.856C598.145 571.856 598.545 571.156 599.245 570.856C599.945 570.556 600.845 570.756 600.845 570.756C600.845 570.756 599.645 569.856 599.245 569.056C598.845 568.356 599.045 567.456 598.645 567.056C598.145 566.656 597.045 567.256 596.545 567.756C596.145 568.256 595.645 569.156 595.745 569.656Z" fill="white"/>
<path d="M598.745 572.856C598.945 573.356 599.345 573.156 599.945 573.856C600.545 574.456 600.445 574.756 601.145 574.456C601.845 574.156 601.045 573.156 600.945 572.356C600.845 571.556 600.245 571.056 599.445 571.456C598.645 571.656 598.745 572.856 598.745 572.856Z" fill="white"/>
<path d="M602.745 568.556C602.745 568.556 602.845 567.756 602.345 566.956C601.845 566.156 601.145 566.056 601.045 565.156C600.945 564.256 602.345 563.856 603.045 563.756C603.845 563.656 604.145 564.056 604.245 564.656C604.345 565.256 604.045 565.156 604.145 565.856C604.345 566.556 604.945 567.156 604.945 567.156C604.945 567.156 604.145 567.056 603.645 567.356C603.145 567.656 602.745 568.556 602.745 568.556Z" fill="white"/>
<path d="M603.445 568.756C603.445 569.256 604.645 570.656 605.345 570.456C606.045 570.256 605.945 568.456 605.545 567.956C605.145 567.456 604.745 567.456 604.245 567.656C603.645 567.856 603.445 568.756 603.445 568.756Z" fill="white"/>
<path d="M603.645 563.056C603.645 563.056 603.545 562.656 602.545 562.956C601.545 563.256 601.245 563.756 601.245 563.756C601.245 563.756 601.645 561.656 600.745 560.856C599.845 560.056 598.945 559.956 598.545 559.156C598.245 558.356 598.745 557.656 599.345 557.356C599.945 557.056 600.745 557.156 601.445 558.056C602.245 558.956 602.545 559.656 602.845 560.656C603.345 561.456 603.645 563.056 603.645 563.056Z" fill="white"/>
<path d="M601.445 556.956C601.445 556.956 600.645 556.156 599.445 556.356C598.245 556.556 597.945 558.156 597.945 558.156C597.945 558.156 597.645 557.756 597.745 556.756C597.745 555.856 597.945 555.156 597.445 553.656C596.945 552.156 595.945 549.256 595.145 548.056C594.345 546.856 593.645 546.056 592.945 545.556C592.245 545.056 591.645 544.756 591.645 544.756C591.645 544.756 591.445 542.256 591.645 541.556C591.945 540.856 592.645 540.656 593.145 540.556C593.645 540.556 594.545 541.156 594.845 541.756C595.145 542.356 594.745 543.556 595.045 544.356C595.245 545.256 596.045 546.056 596.745 547.356C597.545 548.656 597.845 549.556 598.545 551.256C599.245 552.956 599.645 554.056 600.145 554.556C600.645 555.056 600.845 555.156 601.045 555.656C601.445 556.356 601.445 556.956 601.445 556.956Z" fill="white"/>
<path d="M607.845 553.856C607.845 553.856 606.345 551.856 604.445 549.056C602.545 546.256 601.545 544.756 600.345 543.556C599.145 542.356 598.845 542.056 598.745 541.256C598.645 540.456 599.645 539.656 600.345 539.856C601.045 539.956 600.945 540.756 601.345 541.956C601.745 543.156 601.745 543.256 602.345 543.856C602.945 544.456 603.945 545.756 604.445 546.556C604.945 547.356 606.345 548.756 607.545 549.556C608.745 550.256 610.545 551.556 610.545 551.556C610.545 551.556 609.045 551.156 608.445 552.056C607.845 552.956 607.845 553.856 607.845 553.856Z" fill="white"/>
<path d="M608.545 554.656C608.945 555.056 609.745 554.356 610.445 554.756C611.045 555.156 610.845 556.556 610.845 556.556C610.845 556.556 611.245 556.056 611.945 555.956C612.645 555.856 612.645 555.856 612.645 555.856C612.645 555.856 612.245 554.256 611.345 553.156C610.445 552.156 609.645 551.556 608.945 552.156C608.445 552.756 608.545 554.656 608.545 554.656Z" fill="white"/>
<path d="M607.845 559.656C607.845 559.656 607.845 558.556 607.145 557.256C606.445 555.956 605.545 555.056 604.945 554.956C604.345 554.856 603.845 555.256 603.445 555.756C603.145 556.256 603.045 557.056 603.345 557.256C603.645 557.556 604.745 557.856 605.045 558.156C605.345 558.456 605.745 560.656 605.745 560.656C605.745 560.656 606.345 560.156 606.845 559.956C607.345 559.656 607.845 559.656 607.845 559.656Z" fill="white"/>
<path d="M606.045 561.556C605.945 561.956 606.645 561.856 606.945 562.456C607.245 563.056 607.145 563.356 607.145 563.356C607.145 563.356 607.445 562.756 608.045 562.556C608.645 562.356 608.645 562.356 608.645 562.356C608.645 562.356 608.245 561.856 608.145 561.256C608.045 560.656 608.145 560.356 607.545 560.456C606.845 560.456 606.045 560.956 606.045 561.556Z" fill="white"/>
<path d="M607.645 564.156C607.745 564.756 608.745 564.856 609.045 565.256C609.345 565.656 609.345 564.756 609.345 564.056C609.345 563.356 608.945 562.956 608.445 563.156C607.845 563.256 607.545 563.456 607.645 564.156Z" fill="white"/>
<path d="M610.945 557.656C611.045 558.056 611.445 557.756 612.045 557.656C612.645 557.556 612.745 557.256 612.645 556.856C612.545 556.456 612.245 556.456 611.845 556.656C611.445 556.856 610.845 557.056 610.945 557.656Z" fill="white"/>
<path d="M611.545 558.756C611.645 559.356 612.145 560.256 612.645 560.056C613.145 559.856 612.945 558.156 612.645 558.056C612.445 557.956 611.445 558.256 611.545 558.756Z" fill="white"/>
<path d="M595.645 541.056C595.645 541.056 595.945 541.556 595.845 542.456C595.745 543.356 595.645 543.556 596.245 544.456C596.845 545.356 597.745 546.456 598.545 547.856C599.345 549.256 600.845 551.156 601.045 551.956C601.245 552.756 601.445 554.056 601.645 554.956C601.845 555.856 602.445 556.456 602.445 556.456C602.445 556.456 602.645 555.056 603.445 554.556C604.245 554.056 605.345 554.556 605.345 554.556C605.345 554.556 605.245 553.856 604.145 552.556C603.045 551.256 602.545 550.756 601.545 548.956C600.545 547.156 599.745 546.056 599.145 545.156C598.545 544.256 598.445 544.056 598.245 542.956C598.145 541.856 598.145 540.856 597.445 540.656C596.745 540.456 595.645 541.056 595.645 541.056Z" fill="white"/>
<path d="M590.545 518.556C590.545 517.756 590.245 517.056 589.845 516.456C589.445 515.756 589.245 514.956 589.345 514.156L592.145 489.956C592.145 489.556 591.745 489.256 591.445 489.456L590.745 489.956C589.945 490.456 588.945 490.156 588.545 489.456L588.145 488.756C587.945 488.356 587.245 488.456 587.245 488.956L585.545 504.656C585.345 506.456 584.945 508.356 584.445 510.156L581.345 520.656L580.845 521.856C580.845 521.856 579.545 525.056 579.145 527.156C578.745 529.156 578.545 529.456 578.845 529.856C579.145 530.356 579.945 530.956 580.845 530.256C581.745 529.556 581.345 528.556 581.745 527.056C581.945 526.356 582.145 525.856 582.445 525.456C582.545 525.456 582.545 525.356 582.645 525.256L583.345 524.556C583.745 524.156 584.345 523.956 584.945 524.156L586.245 524.556C587.245 524.856 588.445 524.556 589.245 523.856L589.645 523.556C590.545 522.756 590.945 521.556 590.845 520.456L590.545 518.556Z" fill="white"/>
<line x1="791.209" y1="68.1602" x2="580.784" y2="68.1602" stroke="#4849A6"/>
<circle cx="582.145" cy="68.2261" r="2.5" transform="rotate(-180 582.145 68.2261)" fill="#4849A6"/>
<line x1="731.692" y1="184.59" x2="570.784" y2="184.59" stroke="#4849A6"/>
<circle cx="572.144" cy="184.656" r="2.5" transform="rotate(-180 572.144 184.656)" fill="#4849A6"/>
<line x1="791.209" y1="244.89" x2="604.784" y2="244.89" stroke="#4849A6"/>
<circle cx="606.144" cy="244.956" r="2.5" transform="rotate(-180 606.144 244.956)" fill="#4849A6"/>
<line x1="791.209" y1="319.19" x2="571.784" y2="319.19" stroke="#4849A6"/>
<circle cx="573.144" cy="319.256" r="2.5" transform="rotate(-180 573.144 319.256)" fill="#4849A6"/>
<line x1="791.209" y1="392.185" x2="600.784" y2="392.185" stroke="#4849A6"/>
<circle cx="602.145" cy="392.251" r="2.5" transform="rotate(-180 602.145 392.251)" fill="#4849A6"/>
<line x1="208.497" y1="143.222" x2="532.505" y2="143.222" stroke="#4849A6"/>
<circle cx="531.145" cy="143.156" r="2.5" fill="#4849A6"/>
<line x1="359.116" y1="433.459" x2="523.505" y2="433.459" stroke="#4849A6"/>
<circle cx="522.145" cy="433.393" r="2.5" fill="#4849A6"/>
<line x1="234.308" y1="216.322" x2="532.505" y2="216.322" stroke="#4849A6"/>
<circle cx="531.145" cy="216.256" r="2.5" fill="#4849A6"/>
<line x1="320.963" y1="226.51" x2="532.505" y2="226.51" stroke="#4849A6"/>
<circle cx="531.145" cy="226.444" r="2.5" fill="#4849A6"/>
<line x1="366.769" y1="237.65" x2="532.505" y2="237.65" stroke="#4849A6"/>
<circle cx="531.145" cy="237.584" r="2.5" fill="#4849A6"/>
<line x1="321.179" y1="226.01" x2="321.179" y2="287.921" stroke="#4849A6"/>
<line x1="367.269" y1="237.481" x2="367.269" y2="361.474" stroke="#4849A6"/>
<line x1="321.631" y1="287.382" x2="101.161" y2="287.382" stroke="#4849A6"/>
<line x1="367.763" y1="361.013" x2="344.491" y2="361.013" stroke="#4849A6"/>
<line x1="791.209" y1="140.222" x2="731.692" y2="140.222" stroke="#4849A6"/>
<line x1="731.192" y1="184.09" x2="731.192" y2="139.722" stroke="#4849A6"/>
<line x1="221.497" y1="68.292" x2="545.505" y2="68.292" stroke="#4849A6"/>
<circle cx="544.145" cy="68.2261" r="2.5" fill="#4849A6"/>
</svg>
