<svg width="563" height="512" viewBox="0 0 563 512" fill="none" xmlns="http://www.w3.org/2000/svg">
<g clip-path="url(#clip0_501_1351)">
<path d="M326.615 -0.131744H88.9211V237.562H326.615V-0.131744Z" fill="white" stroke="#4F4898" stroke-miterlimit="10" stroke-linecap="round" stroke-linejoin="round"/>
<path d="M314.082 225.033L314.082 12.3948L101.444 12.3948L101.444 225.033L314.082 225.033Z" fill="white" stroke="#4F4898" stroke-miterlimit="10" stroke-linecap="round" stroke-linejoin="round"/>
<path d="M314.082 12.4006H101.445V225.038H314.082V12.4006Z" fill="#7777B7"/>
<path d="M253.906 68.7656C241.014 86.2073 223.791 95.3322 223.791 95.3322C223.791 95.3322 227.462 76.1867 240.355 58.745C253.247 41.3033 270.469 32.1785 270.469 32.1785C270.469 32.1785 266.798 51.3239 253.906 68.7656Z" fill="#6EB74A"/>
<path d="M262.697 85.373C243.288 95.0424 223.791 95.3322 223.791 95.3322C223.791 95.3322 235.77 79.9543 255.188 70.285C274.597 60.6156 294.094 60.3258 294.094 60.3258C294.094 60.3258 282.115 75.7037 262.697 85.373Z" fill="#6EB74A"/>
<path d="M221.894 55.2145C218.346 76.6083 223.791 95.3322 223.791 95.3322C223.791 95.3322 234.98 79.3659 238.519 57.9721C242.067 36.5784 236.622 17.8545 236.622 17.8545C236.622 17.8545 225.443 33.8207 221.894 55.2145Z" fill="#A1CB7C"/>
<path d="M234.436 121.345C226.549 132.016 148.369 219.699 137.698 211.812C127.028 203.926 187.916 103.456 195.802 92.7853C203.689 82.1148 218.733 79.8577 229.394 87.7443C240.065 95.6308 242.322 110.675 234.436 121.345Z" fill="#F6A000" stroke="#4F4898" stroke-miterlimit="10"/>
<path d="M257.094 74.0965L288.342 42.849H307.689" stroke="white" stroke-miterlimit="10" stroke-linecap="round" stroke-linejoin="round"/>
<path d="M210.697 95.1302L167.426 51.8596H133.878" stroke="white" stroke-miterlimit="10" stroke-linecap="round" stroke-linejoin="round"/>
<path d="M189.681 168.998L224.318 203.636H276.687" stroke="white" stroke-miterlimit="10" stroke-linecap="round" stroke-linejoin="round"/>
<path d="M172.292 135.652L145.198 108.567H114.188" stroke="white" stroke-miterlimit="10" stroke-linecap="round" stroke-linejoin="round"/>
<path d="M230.027 112.668C223.572 121.407 161.112 194.362 154.306 189.338C147.499 184.315 198.929 103.192 205.384 94.4539C211.839 85.7155 222.588 82.712 229.394 87.7443C236.201 92.7765 236.482 103.939 230.027 112.668Z" fill="#FDD08F"/>
<path d="M226.821 102.402C222.377 108.418 180.723 159.645 177.702 157.414C174.681 155.184 211.435 100.329 215.878 94.3134C220.322 88.2975 226.382 85.2325 229.403 87.4632C232.424 89.6939 231.265 96.3861 226.821 102.402Z" fill="#E94B60"/>
<path d="M133.878 34.8307H157.871" stroke="white" stroke-miterlimit="10"/>
<path d="M133.878 39.6961H157.871" stroke="white" stroke-miterlimit="10"/>
<path d="M253.625 191.718H277.618" stroke="white" stroke-miterlimit="10"/>
<path d="M253.625 196.584H277.618" stroke="white" stroke-miterlimit="10"/>
<path d="M133.878 45.3607H143.24" stroke="white" stroke-miterlimit="10"/>
<path d="M149.256 45.3607H157.871" stroke="white" stroke-miterlimit="10"/>
<path d="M299.073 37.7025H307.689" stroke="white" stroke-miterlimit="10"/>
<path d="M114.188 101.041H143.24" stroke="white" stroke-miterlimit="10"/>
<path d="M562.245 273.245H-1.7301V511.615H562.245V273.245Z" fill="#E0F1F1"/>
<path d="M562.245 273.078H-0.869385V513.231H562.245V273.078Z" stroke="#4F4898" stroke-width="0.971" stroke-miterlimit="10"/>
<path d="M535.687 273.078V513.231" stroke="#4F4898" stroke-width="0.92" stroke-miterlimit="10"/>
<path d="M563 503.227H-0.869385" stroke="#4F4898" stroke-width="0.971" stroke-miterlimit="10"/>
<path d="M74.1053 273.078V513.231" stroke="#4F4898" stroke-width="0.92" stroke-miterlimit="10"/>
<path d="M35.5333 273.078V513.231" stroke="#4F4898" stroke-width="0.92" stroke-miterlimit="10"/>
<path d="M112.668 273.245V513.231" stroke="#4F4898" stroke-width="0.92" stroke-miterlimit="10"/>
<path d="M151.24 273.078V513.231" stroke="#4F4898" stroke-width="0.92" stroke-miterlimit="10"/>
<path d="M189.812 273.078V513.231" stroke="#4F4898" stroke-width="0.92" stroke-miterlimit="10"/>
<path d="M228.385 273.078V513.231" stroke="#4F4898" stroke-width="0.92" stroke-miterlimit="10"/>
<path d="M266.948 273.078V513.231" stroke="#4F4898" stroke-width="0.92" stroke-miterlimit="10"/>
<path d="M305.52 273.078V513.231" stroke="#4F4898" stroke-width="0.92" stroke-miterlimit="10"/>
<path d="M344.092 273.078V513.231" stroke="#4F4898" stroke-width="0.92" stroke-miterlimit="10"/>
<path d="M382.664 273.078V513.231" stroke="#4F4898" stroke-width="0.92" stroke-miterlimit="10"/>
<path d="M421.227 273.078V513.231" stroke="#4F4898" stroke-width="0.92" stroke-miterlimit="10"/>
<path d="M459.799 273.078V513.231" stroke="#4F4898" stroke-width="0.92" stroke-miterlimit="10"/>
<path d="M498.371 273.078V513.231" stroke="#4F4898" stroke-width="0.92" stroke-miterlimit="10"/>
<path d="M534.37 273.078H-0.869507" stroke="#4F4898" stroke-width="0.971" stroke-miterlimit="10"/>
<path d="M562.245 311.65H-0.869507" stroke="#4F4898" stroke-width="0.971" stroke-miterlimit="10"/>
<path d="M562.245 350.222H-0.869507" stroke="#4F4898" stroke-width="0.971" stroke-miterlimit="10"/>
<path d="M562.245 388.785H-0.869507" stroke="#4F4898" stroke-width="0.971" stroke-miterlimit="10"/>
<path d="M562.245 427.357H-0.869507" stroke="#4F4898" stroke-width="0.971" stroke-miterlimit="10"/>
<path d="M562.245 465.929H-0.869507" stroke="#4F4898" stroke-width="0.971" stroke-miterlimit="10"/>
<path d="M449.752 324.674L429.754 344.68L409.757 324.674" fill="white"/>
<path d="M449.752 324.674L429.754 344.68L409.757 324.674" stroke="#4F4898" stroke-miterlimit="10"/>
<path d="M481.439 284.732V296.184C481.439 313.775 458.297 328.046 429.755 328.046C401.212 328.046 378.071 313.784 378.071 296.184" fill="white"/>
<path d="M481.439 284.732V296.184C481.439 313.775 458.297 328.046 429.755 328.046C401.212 328.046 378.071 313.784 378.071 296.184" stroke="#4F4898" stroke-miterlimit="10"/>
<path d="M429.755 316.594C458.299 316.594 481.439 302.329 481.439 284.732C481.439 267.135 458.299 252.87 429.755 252.87C401.21 252.87 378.071 267.135 378.071 284.732C378.071 302.329 401.21 316.594 429.755 316.594Z" fill="#E94B60" stroke="#4F4898" stroke-miterlimit="10"/>
<path d="M429.755 328.046V416.054" stroke="#4F4898" stroke-miterlimit="10"/>
<path d="M374.338 421.587V403.285H485.197V421.587" stroke="#4F4898" stroke-miterlimit="10"/>
<path d="M382.172 419.435C382.172 423.967 378.492 427.647 373.96 427.647C369.429 427.647 365.749 423.976 365.749 419.435C365.749 414.904 369.42 411.224 373.96 411.224C378.492 411.224 382.172 414.904 382.172 419.435Z" fill="#4F4898"/>
<path d="M374.022 424.345C376.733 424.345 378.931 422.147 378.931 419.435C378.931 416.724 376.733 414.526 374.022 414.526C371.311 414.526 369.113 416.724 369.113 419.435C369.113 422.147 371.311 424.345 374.022 424.345Z" stroke="#FFEC83" stroke-width="0.92" stroke-miterlimit="10" stroke-linecap="round"/>
<path d="M437.905 419.435C437.905 423.967 434.225 427.647 429.693 427.647C425.161 427.647 421.482 423.976 421.482 419.435C421.482 414.904 425.153 411.224 429.693 411.224C434.233 411.224 437.905 414.904 437.905 419.435Z" fill="#4F4898"/>
<path d="M429.755 424.345C432.466 424.345 434.664 422.147 434.664 419.435C434.664 416.724 432.466 414.526 429.755 414.526C427.043 414.526 424.845 416.724 424.845 419.435C424.845 422.147 427.043 424.345 429.755 424.345Z" stroke="#FFEC83" stroke-width="0.92" stroke-miterlimit="10" stroke-linecap="round"/>
<path d="M493.4 419.435C493.4 423.967 489.72 427.647 485.189 427.647C480.657 427.647 476.977 423.976 476.977 419.435C476.977 414.904 480.648 411.224 485.189 411.224C489.729 411.224 493.4 414.904 493.4 419.435Z" fill="#4F4898"/>
<path d="M485.25 424.345C487.961 424.345 490.159 422.147 490.159 419.435C490.159 416.724 487.961 414.526 485.25 414.526C482.539 414.526 480.341 416.724 480.341 419.435C480.341 422.147 482.539 424.345 485.25 424.345Z" stroke="#FFEC83" stroke-width="0.92" stroke-miterlimit="10" stroke-linecap="round"/>
<path d="M317.841 427.357H248.777C248.777 411.399 261.713 398.463 277.671 398.463H317.833V427.357H317.841Z" fill="#7777B7"/>
<path d="M284.372 398.463V411.224" stroke="#4F4898" stroke-miterlimit="10"/>
<path d="M291.064 398.463V411.224" stroke="#4F4898" stroke-miterlimit="10"/>
<path d="M348.729 427.357H279.665C279.665 411.399 292.601 398.463 308.558 398.463H348.72V427.357H348.729Z" fill="#D4B0D4"/>
<path d="M330.453 277.1L325.447 283.046C312.95 297.853 304.035 315.33 299.39 334.141L283.423 398.463H319.598L328.591 352.672C332.297 333.816 341.554 316.498 355.175 302.946L355.684 302.332L330.453 277.1Z" fill="#A1CB7C"/>
<path d="M350.301 295.35L346.463 299.899C335.792 312.537 328.178 327.467 324.217 343.521L310.666 398.428L352.356 398.542L360.032 359.452C363.193 343.354 366.012 334.124 377.64 322.549L350.301 295.35Z" fill="#6EB74A"/>
<path d="M267.668 149.862C265.639 149.414 257.305 147.192 253.317 140.86C252.422 139.437 250.797 136.776 250.832 133.131C250.894 126.079 257.12 121.741 257.911 121.214L249.927 108.506C249.242 107.408 249.471 105.968 250.472 105.142C251.57 104.237 253.195 104.387 254.108 105.493L269.837 124.551L268.818 116.55C268.643 115.171 269.6 113.907 270.97 113.705C272.173 113.52 273.332 114.214 273.745 115.356L281.351 136.179" fill="#F8B99B"/>
<path d="M419.066 147.341H395.776V204.145H419.066V147.341Z" fill="#D4B0D4"/>
<path d="M397.866 146.085C393.791 146.454 384.482 148.694 376.92 150.002C364.537 152.145 359.891 154.051 351.75 155.447C347.411 156.194 333.667 158.556 321.688 155.939C301.919 151.636 289.755 134.414 284.697 126L259.579 151.978C261.011 154.024 263.215 157.037 266.149 160.479C273.552 169.165 292.408 191.27 321.117 194.854C327.581 195.661 350.327 196.549 364.818 191.262V232.688C364.818 240.284 350.292 247.038 344.452 251.886L323.067 269.635L389.075 335.643L430.396 294.322C446.23 278.488 455.127 257.006 455.127 234.602V204.567H404.944L397.866 146.085Z" fill="#FFEC83"/>
<path d="M404.944 204.584L397.866 146.094C393.791 146.463 384.482 148.702 376.92 150.011C364.537 152.154 359.891 154.06 351.75 155.456C347.411 156.202 333.667 158.565 321.688 155.948C301.919 151.644 289.755 134.422 284.697 126.009" stroke="#F5ADAB" stroke-miterlimit="10"/>
<path d="M340.061 286.418L379.177 250.235C383.797 245.984 387.125 240.522 388.794 234.479" stroke="#F5ADAB" stroke-miterlimit="10"/>
<path d="M402.722 216.256L413.806 146.085L437.825 147.736L466.86 217.626L400.852 221.604L402.722 216.256Z" fill="#FFEC83"/>
<path d="M261.476 130.022L255.539 124.085C254.688 123.234 254.688 121.855 255.539 121.012C256.391 120.16 257.77 120.16 258.613 121.012L264.55 126.949C265.402 127.8 265.402 129.179 264.55 130.022C263.707 130.874 262.328 130.874 261.476 130.022Z" fill="#F8B99B" stroke="#4F4898" stroke-miterlimit="10"/>
<path d="M258.938 133.693L252.747 127.502C251.895 126.65 251.895 125.271 252.747 124.428C253.599 123.576 254.977 123.576 255.821 124.428L262.012 130.62C262.864 131.471 262.864 132.85 262.012 133.693C261.16 134.545 259.781 134.545 258.938 133.693Z" fill="#F8B99B" stroke="#4F4898" stroke-miterlimit="10"/>
<path d="M255.706 136.574L250.103 130.971C249.251 130.119 249.251 128.74 250.103 127.897C250.955 127.045 252.334 127.045 253.177 127.897L258.78 133.5C259.632 134.352 259.632 135.731 258.78 136.574C257.937 137.426 256.558 137.426 255.706 136.574Z" fill="#F8B99B" stroke="#4F4898" stroke-miterlimit="10"/>
<path d="M252.668 139.718L248.329 135.38C247.477 134.528 247.477 133.149 248.329 132.306C249.181 131.454 250.56 131.454 251.403 132.306L255.741 136.644C256.593 137.496 256.593 138.875 255.741 139.718C254.889 140.57 253.511 140.57 252.668 139.718Z" fill="#F8B99B" stroke="#4F4898" stroke-miterlimit="10"/>
<path d="M411.812 86.5235C411.759 86.5147 411.707 86.4971 411.654 86.4883C409.652 86.058 407.544 86.585 406.016 87.9462L405.998 87.9638C405.989 87.955 405.981 87.955 405.981 87.9462C404.453 86.585 402.345 86.058 400.342 86.4883C400.29 86.4971 400.237 86.5147 400.184 86.5235C392.93 88.0692 386.853 93.0048 383.902 99.8112C379.291 110.438 373.091 127.634 371.545 146.085H405.972H406.051H440.478C438.932 127.634 432.732 110.438 428.121 99.8112C425.144 93.0136 419.066 88.0692 411.812 86.5235Z" fill="#4F4898"/>
<path d="M423.554 109.937C422.931 109.937 422.325 110.034 421.754 110.201V109.164C421.754 100.443 414.614 93.3035 405.893 93.3035C397.172 93.3035 390.032 100.443 390.032 109.164V110.174C389.496 110.025 388.925 109.937 388.346 109.937C384.912 109.937 382.137 112.721 382.137 116.146C382.137 119.571 384.921 122.355 388.346 122.355C388.934 122.355 389.496 122.268 390.032 122.118V125.034C390.032 133.755 397.172 140.895 405.893 140.895C414.614 140.895 421.754 133.755 421.754 125.034V122.092C422.325 122.268 422.931 122.355 423.554 122.355C426.988 122.355 429.763 119.571 429.763 116.146C429.763 112.721 426.988 109.937 423.554 109.937Z" fill="#F8B99B"/>
<path d="M388.961 119.817C386.941 119.817 385.298 118.368 385.298 116.568C385.298 114.776 386.932 113.318 388.961 113.318" stroke="#4F4898" stroke-width="0.92" stroke-miterlimit="10" stroke-linecap="round"/>
<path d="M422.931 119.817C424.951 119.817 426.593 118.368 426.593 116.568C426.593 114.776 424.959 113.318 422.931 113.318" stroke="#4F4898" stroke-width="0.92" stroke-miterlimit="10" stroke-linecap="round"/>
<path d="M405.893 93.3035C405.498 94.7701 404.918 96.3597 404.084 97.9932C400.334 105.265 393.176 108.822 390.032 110.183L388.592 104.791L394.959 94.9897L405.226 91.9071L405.893 93.3035Z" fill="#4F4898"/>
<path d="M405.893 93.3035C406.288 94.7701 406.868 96.3597 407.702 97.9932C411.452 105.265 418.61 108.822 421.754 110.183L423.194 104.791L416.827 94.9897L406.56 91.9071L405.893 93.3035Z" fill="#4F4898"/>
<path d="M390.761 118.017H390.032V110.174L390.761 109.849V118.017Z" fill="#6EB74A"/>
<path d="M421.842 117.999H421.113V109.893L421.842 110.174V117.999Z" fill="#6EB74A"/>
<path d="M395.398 136.899C398.2 139.384 401.879 140.895 405.893 140.895C409.906 140.895 413.586 139.384 416.388 136.899H395.398Z" fill="#F8B99B"/>
<path d="M413.806 156.475C409.336 160.638 402.415 160.655 397.919 156.527L397.857 156.475V138.313H413.806V156.475V156.475Z" fill="#F8B99B"/>
<path d="M400.351 166.671L397.866 146.085" stroke="#F5ADAB" stroke-miterlimit="10"/>
<path d="M397.497 146.48L401.642 180.775L392.096 158.451L397.497 146.48Z" fill="#FFEC83"/>
<path d="M413.806 146.085L410.205 168.884L437.826 147.736L413.806 146.085Z" fill="#FFEC83"/>
<path d="M277.671 398.463V411.224" stroke="#4F4898" stroke-miterlimit="10"/>
<path d="M315.277 398.463V411.224" stroke="#4F4898" stroke-miterlimit="10"/>
<path d="M321.978 398.463V411.224" stroke="#4F4898" stroke-miterlimit="10"/>
<path d="M308.576 398.463V411.224" stroke="#4F4898" stroke-miterlimit="10"/>
<path d="M249.005 423.756H348.729V423.018H249.102C249.067 423.264 249.041 423.51 249.005 423.756Z" fill="#4F4898"/>
<path d="M413.323 89.5798C414.763 90.458 417.354 92.1793 420.041 94.9106C422.86 97.7737 424.406 100.347 425.135 101.708" stroke="#FFEC83" stroke-miterlimit="10" stroke-linecap="round" stroke-linejoin="round"/>
<path d="M411.373 91.222C412.813 92.1003 415.404 93.8216 418.092 96.5529C420.911 99.416 422.456 101.989 423.185 103.35" stroke="#FFEC83" stroke-miterlimit="10" stroke-linecap="round" stroke-linejoin="round"/>
<path d="M364.326 310.903C364.467 310.754 364.467 310.526 364.317 310.385C364.168 310.245 363.94 310.245 363.799 310.394L354.745 319.747C348.307 326.395 343.978 334.712 342.23 343.802L331.542 398.428C331.533 398.454 331.542 398.472 331.542 398.498H332.279L342.95 343.942C344.671 334.993 348.94 326.808 355.272 320.256L364.326 310.903Z" fill="#FFEC83"/>
<path d="M419.417 175.143L365.19 193.965L390.468 266.793L444.695 247.971L419.417 175.143Z" fill="#F6A000"/>
<path d="M402.679 179.845L381.232 187.289L384.573 196.913L406.02 189.469L402.679 179.845Z" fill="white" stroke="#4F4898" stroke-miterlimit="10"/>
<path d="M417.231 221.604H413.551L407.219 211.68C406.429 210.31 404.751 209.74 403.285 210.346C401.59 211.048 400.861 213.051 401.704 214.684L404.294 219.725L379.265 220.603C378.141 220.638 377.245 221.569 377.245 222.693C377.245 223.818 378.132 224.74 379.256 224.784L399.543 225.539L379.326 225.969C378.167 225.996 377.245 226.944 377.245 228.095C377.245 229.245 378.158 230.185 379.309 230.22L398.358 230.756L379.502 231.599C378.237 231.66 377.245 232.697 377.245 233.961C377.245 235.27 378.308 236.324 379.607 236.324H397.233L381.689 237.281C380.723 237.342 379.976 238.142 379.976 239.108C379.976 240.074 380.731 240.873 381.698 240.934L417.231 242.023V221.604Z" fill="#F8B99B"/>
<path d="M379.976 239.116C379.976 240.083 380.732 240.882 381.698 240.943L417.231 242.032V221.613H413.551L407.219 211.689C406.429 210.319 404.751 209.748 403.285 210.354C401.59 211.057 400.861 213.059 401.704 214.693L404.295 219.734" stroke="#4F4898" stroke-miterlimit="10"/>
<path d="M377.254 233.97C377.254 235.279 378.316 236.332 379.616 236.332H397.242" stroke="#4F4898" stroke-miterlimit="10"/>
<path d="M377.254 228.095C377.254 229.245 378.167 230.185 379.318 230.22L398.366 230.756" stroke="#4F4898" stroke-miterlimit="10"/>
<path d="M377.254 222.693C377.254 223.818 378.141 224.74 379.265 224.784L399.552 225.539" stroke="#4F4898" stroke-miterlimit="10"/>
<path d="M446.257 184.253C451.912 193.606 458.262 206.306 450.516 214.113C444.526 220.147 432.776 221.394 424.792 221.394C422.641 221.394 419.681 221.42 419.084 221.394L419.462 248.101C420.164 248.197 435.445 248.478 435.445 248.478C445.124 248.285 466.605 250.815 478.163 228.666C480.534 224.125 484.714 215.431 482.282 199.895C478.848 177.921 458.956 154.613 437.834 147.745L413.815 146.094" fill="#FFEC83"/>
<path d="M446.257 184.253C451.912 193.606 458.262 206.306 450.516 214.113C444.526 220.147 432.776 221.394 424.792 221.394C422.641 221.394 419.681 221.42 419.084 221.394L419.462 248.101C420.164 248.197 435.445 248.478 435.445 248.478C445.124 248.285 466.605 250.815 478.163 228.666C480.534 224.125 484.714 215.431 482.282 199.895C478.848 177.921 458.956 154.613 437.834 147.745L413.815 146.094" stroke="#F5ADAB" stroke-miterlimit="10"/>
<path d="M390.032 122.118V125.034C390.032 133.755 397.172 140.895 405.893 140.895C414.614 140.895 421.754 133.755 421.754 125.034V122.092C421.78 122.101 421.815 122.101 421.842 122.109V117.999H390.023V122.118H390.032Z" fill="#6EB74A"/>
<path d="M393.053 120.652H418.926" stroke="#A1CB7C" stroke-miterlimit="10"/>
<path d="M393.053 126.387H418.926" stroke="#A1CB7C" stroke-miterlimit="10"/>
<path d="M394.002 132.113H417.977" stroke="#A1CB7C" stroke-miterlimit="10"/>
<path d="M414.464 118.913C418.131 118.913 421.104 115.94 421.104 112.273C421.104 108.606 418.131 105.634 414.464 105.634C410.798 105.634 407.825 108.606 407.825 112.273C407.825 115.94 410.798 118.913 414.464 118.913Z" fill="white" stroke="#4F4898" stroke-width="0.92" stroke-miterlimit="10" stroke-linecap="round"/>
<path d="M412.181 109.92H416.88" stroke="#4F4898" stroke-width="0.92" stroke-miterlimit="10" stroke-linecap="round"/>
<path d="M412.181 109.92V114.618" stroke="#4F4898" stroke-width="0.92" stroke-miterlimit="10" stroke-linecap="round"/>
<path d="M396.671 118.913C400.338 118.913 403.311 115.94 403.311 112.273C403.311 108.606 400.338 105.634 396.671 105.634C393.005 105.634 390.032 108.606 390.032 112.273C390.032 115.94 393.005 118.913 396.671 118.913Z" fill="white" stroke="#4F4898" stroke-width="0.92" stroke-miterlimit="10" stroke-linecap="round"/>
<path d="M403.557 112.273H407.676" stroke="#4F4898" stroke-width="0.92" stroke-miterlimit="10" stroke-linecap="round"/>
<path d="M419.084 221.385L419.462 243.385L414.14 243.49L413.762 221.49L419.084 221.385Z" fill="white" stroke="#4F4898" stroke-miterlimit="10"/>
<path d="M416.607 236.693C418.96 236.693 420.867 234.786 420.867 232.433C420.867 230.081 418.96 228.174 416.607 228.174C414.255 228.174 412.348 230.081 412.348 232.433C412.348 234.786 414.255 236.693 416.607 236.693Z" fill="#4F4898" stroke="#4F4898" stroke-miterlimit="10"/>
<path d="M413.446 232.214L416.607 232.433V230.668" stroke="white" stroke-miterlimit="10" stroke-linecap="round" stroke-linejoin="round"/>
<path d="M162.271 379.774H98.9418C93.4089 379.774 88.9211 375.286 88.9211 369.754V306.424C88.9211 300.891 93.4089 296.404 98.9418 296.404H162.271C167.804 296.404 172.292 300.891 172.292 306.424V369.754C172.292 375.286 167.804 379.774 162.271 379.774Z" fill="white" stroke="#4F4898" stroke-miterlimit="10"/>
<path d="M149.95 322.241C149.95 311.562 141.29 302.903 130.611 302.903C119.932 302.903 111.272 311.562 111.272 322.241H149.95Z" fill="#DBF0FA" stroke="#4F4898" stroke-miterlimit="10"/>
<path d="M114.522 319.255H120.748" stroke="#4F4898" stroke-miterlimit="10"/>
<path d="M130.602 311.36V305.133" stroke="#4F4898" stroke-miterlimit="10"/>
<path d="M130.602 322.241V313.626" stroke="#4F4898" stroke-width="2" stroke-miterlimit="10"/>
<path d="M140.368 319.255H146.586" stroke="#4F4898" stroke-miterlimit="10"/>
<path d="M118.983 309.665L123.383 314.065" stroke="#4F4898" stroke-miterlimit="10"/>
<path d="M142.16 309.665L137.76 314.065" stroke="#4F4898" stroke-miterlimit="10"/>
<path d="M165.591 330.742H96.0875V372.459H165.591V330.742Z" fill="white" stroke="#4F4898" stroke-miterlimit="10"/>
<path d="M394.318 109.92H399.025" stroke="#4F4898" stroke-width="0.92" stroke-miterlimit="10" stroke-linecap="round"/>
<path d="M394.318 109.92V114.618" stroke="#4F4898" stroke-width="0.92" stroke-miterlimit="10" stroke-linecap="round"/>
</g>
<defs>
<clipPath id="clip0_501_1351">
<rect width="563" height="512" fill="white"/>
</clipPath>
</defs>
</svg>
