<svg width="373" height="458" viewBox="0 0 373 458" fill="none" xmlns="http://www.w3.org/2000/svg">
<g clip-path="url(#clip0_2271_17633)">
<path d="M186.026 29.9446C194.197 29.9446 200.822 23.3204 200.822 15.149C200.822 6.9777 194.197 0.353516 186.026 0.353516C177.855 0.353516 171.23 6.9777 171.23 15.149C171.23 23.3204 177.855 29.9446 186.026 29.9446Z" fill="#4F4898"/>
<path d="M213.177 57.0959C215.853 31.4398 203.34 22.7041 193.424 20.1857C193.345 20.1857 193.266 20.1857 193.188 20.107C190.433 19.3987 187.6 20.2644 185.554 22.468C183.508 20.2644 180.596 19.3987 177.92 20.107C177.841 20.107 177.762 20.107 177.684 20.1857C167.846 22.7041 152.264 34.3517 160.37 57.0959" fill="#4F4898"/>
<path d="M300.219 297.68L296.52 271.316C298.645 239.836 293.687 215.518 289.595 200.722C287.549 193.324 267.165 123.203 213.099 98.1765C210.029 96.7599 204.678 94.3202 199.326 92.9823V83.0662C203.576 79.6034 206.33 74.3305 206.33 68.3493V64.8865C206.409 64.8865 206.409 64.8865 206.488 64.8865C210.974 64.8865 214.673 61.1877 214.673 56.7018C214.673 52.2159 210.974 48.517 206.488 48.517C206.409 48.517 206.409 48.517 206.33 48.517V45.7625C206.33 35.2955 197.831 26.7959 187.364 26.7959H184.216C173.749 26.7959 165.249 35.2955 165.249 45.7625V48.517C165.171 48.517 165.171 48.517 165.092 48.517C160.606 48.517 156.907 52.2159 156.907 56.7018C156.907 61.1877 160.606 64.8865 165.092 64.8865C165.171 64.8865 165.171 64.8865 165.249 64.8865V68.3493C165.249 74.3305 168.004 79.6034 172.254 83.0662V92.9823C166.902 94.2415 161.55 96.7599 158.481 98.1765C104.414 123.203 84.0312 193.324 81.985 200.722C77.8926 215.518 72.9345 239.836 75.0594 271.316L71.3606 297.68C71.1245 299.018 72.0688 300.277 73.328 300.356C74.3511 300.435 75.3742 299.726 75.6103 298.625L79.1518 281.153L77.4204 298.546C77.263 299.726 78.1287 300.749 79.2305 300.828C80.1749 300.907 81.0406 300.199 81.2767 299.175L84.346 282.176L83.7951 299.333C83.7951 300.356 84.5034 301.222 85.4478 301.3C86.3922 301.379 87.2579 300.671 87.4153 299.648L89.5402 281.94L89.7763 299.726C89.7763 300.749 90.5633 301.615 91.5864 301.694C92.6882 301.773 93.6326 300.907 93.7113 299.805L94.8917 281.389L99.6137 287.056C100.558 288.158 102.132 288.315 103.313 287.37C104.257 286.583 104.572 285.167 104.1 283.986L96.9379 269.427C97.4101 264.075 98.6693 255.025 101.975 244.479C108.507 223.939 119.131 210.796 131.015 198.125C131.015 198.282 130.936 198.44 130.936 198.597C129.992 200.958 128.969 203.477 127.946 205.995C122.751 219.374 121.728 228.346 120.705 246.919C119.682 265.492 122.751 285.797 130.543 304.37C138.255 322.943 141.875 327.429 141.403 341.752C140.852 356.154 140.38 372.287 146.047 384.565C151.713 396.763 157.93 405.105 157.379 414.864C156.907 423.127 151.319 427.692 147.778 432.571C147.542 432.729 147.384 432.965 147.227 433.201L143.292 438.946C142.269 440.441 142.662 442.488 144.236 443.511C144.787 443.904 145.417 444.061 146.047 444.061C145.81 445.399 146.519 446.816 147.778 447.446C148.25 447.682 148.722 447.76 149.195 447.76C149.195 448.941 149.824 450.121 150.926 450.751C151.792 451.223 152.815 451.223 153.68 450.83C153.759 451.932 154.389 453.033 155.412 453.584C156.356 454.056 157.379 454.056 158.245 453.663C158.481 455.001 159.268 456.181 160.527 456.89H160.606C162.731 457.991 165.407 457.126 166.508 455.001L168.869 450.436C169.893 449.098 170.994 446.895 172.647 443.511C176.739 434.775 176.503 434.145 179.887 428.322C183.271 422.498 184.295 421.317 182.248 414.234C180.202 407.151 177.526 408.096 179.887 390.782C182.248 373.468 185.947 365.913 183.35 358.043C180.753 350.173 180.753 350.173 180.753 350.173C180.753 350.173 182.642 344.034 184.295 333.646C185.947 323.258 185.947 310.98 185.947 310.98V94.635V311.138C185.947 311.138 185.947 323.336 187.6 333.803C189.253 344.192 191.141 350.33 191.141 350.33C191.141 350.33 191.141 350.33 188.544 358.2C185.947 366.07 189.567 373.625 192.007 390.939C194.368 408.253 191.692 407.309 189.646 414.392C187.6 421.475 188.623 422.655 192.007 428.479C195.391 434.303 195.234 435.011 199.405 443.825C200.979 447.21 202.081 449.413 203.182 450.751L205.543 455.316C206.645 457.44 209.242 458.306 211.446 457.204H211.525C212.784 456.575 213.65 455.316 213.807 453.978C214.673 454.371 215.696 454.371 216.64 453.899C217.742 453.348 218.372 452.246 218.372 451.144C219.237 451.459 220.26 451.459 221.126 451.066C222.306 450.436 222.936 449.256 222.857 448.075C223.33 448.075 223.802 447.997 224.274 447.76C225.533 447.131 226.163 445.714 226.005 444.376C226.635 444.376 227.265 444.219 227.815 443.825C229.311 442.802 229.704 440.756 228.76 439.261L224.667 433.437C224.51 433.201 224.353 432.965 224.117 432.807C220.496 427.849 214.909 423.285 214.515 415.1C213.964 405.341 220.182 397.078 225.848 384.801C231.514 372.602 231.042 356.39 230.491 341.988C229.94 327.586 233.561 323.179 241.352 304.606C249.064 286.033 252.212 265.728 251.189 247.155C250.166 228.582 249.143 219.61 243.949 206.231C243.005 203.713 241.981 201.194 240.958 198.833C240.958 198.676 240.88 198.519 240.88 198.361C252.763 211.032 263.309 224.096 269.92 244.715C273.304 255.261 274.484 264.233 274.957 269.663L267.795 284.223C267.323 285.403 267.638 286.82 268.582 287.607C269.684 288.551 271.336 288.394 272.281 287.292L277.003 281.625L278.183 300.041C278.262 301.222 279.206 302.009 280.308 301.93C281.331 301.851 282.118 300.986 282.118 299.962L282.354 282.176L284.479 299.884C284.637 300.907 285.424 301.615 286.447 301.536C287.391 301.458 288.178 300.592 288.099 299.569L287.549 282.412L290.618 299.412C290.854 300.435 291.72 301.064 292.664 301.064C293.766 300.986 294.553 299.962 294.474 298.782L292.743 281.389L296.284 298.861C296.52 299.962 297.543 300.671 298.566 300.592C299.511 300.199 300.455 299.018 300.219 297.68Z" fill="#C1BDDF" stroke="#4F4898" stroke-miterlimit="10"/>
<path d="M185.318 35.6113C185.318 33.9586 183.822 32.542 182.012 32.542C180.281 32.542 178.786 33.8012 178.707 35.4539C178.156 34.9817 177.369 34.6669 176.503 34.6669C174.693 34.6669 173.198 36.0048 173.198 37.7362C173.198 38.5232 173.513 39.1528 173.985 39.7037C173.749 39.625 173.434 39.625 173.198 39.625C171.388 39.625 169.893 40.9629 169.893 42.6943C169.893 44.0322 170.837 45.1339 172.096 45.6061V45.6848C170.601 46.2357 169.499 47.5736 169.499 49.0689C169.499 51.1151 171.309 52.7678 173.434 52.7678C173.591 52.7678 173.67 52.7678 173.828 52.7678C173.434 53.24 173.119 53.9483 173.119 54.5779C173.119 56.2306 174.614 57.6472 176.425 57.6472C177.29 57.6472 178.077 57.3324 178.707 56.8602C179.022 58.2768 180.36 59.2999 181.934 59.2999C183.744 59.2999 185.239 57.962 185.239 56.2306V56.1519V36.2409C185.239 36.1622 185.239 36.0835 185.239 36.0048C185.239 35.9261 185.318 35.7687 185.318 35.6113Z" fill="#F5ADAB"/>
<path d="M186.498 35.6113C186.498 33.9586 187.993 32.542 189.803 32.542C191.535 32.542 193.03 33.8012 193.109 35.4539C193.66 34.9817 194.447 34.6669 195.312 34.6669C197.123 34.6669 198.618 36.0048 198.618 37.7362C198.618 38.5232 198.303 39.1528 197.831 39.7037C198.067 39.625 198.382 39.625 198.618 39.625C200.428 39.625 201.923 40.9629 201.923 42.6943C201.923 44.0322 200.979 45.1339 199.72 45.6061V45.6848C201.215 46.2357 202.317 47.5736 202.317 49.0689C202.317 51.1151 200.507 52.7678 198.382 52.7678C198.224 52.7678 198.146 52.7678 197.988 52.7678C198.382 53.24 198.696 53.9483 198.696 54.5779C198.696 56.2306 197.201 57.6472 195.391 57.6472C194.525 57.6472 193.738 57.3324 193.109 56.8602C192.794 58.2768 191.456 59.2999 189.882 59.2999C188.072 59.2999 186.577 57.962 186.577 56.2306V56.1519V36.2409C186.577 36.1622 186.577 36.0835 186.577 36.0048C186.498 35.9261 186.498 35.7687 186.498 35.6113Z" fill="#F5ADAB"/>
<path d="M172.096 45.6846C170.601 46.2355 169.499 47.5734 169.499 49.0687C169.499 51.1148 171.309 52.7675 173.434 52.7675" stroke="#E94B60" stroke-miterlimit="10"/>
<path d="M173.198 39.625C171.388 39.625 169.893 40.9629 169.893 42.6943" stroke="#E94B60" stroke-miterlimit="10"/>
<path d="M176.503 34.7451C174.693 34.7451 173.198 36.083 173.198 37.8144" stroke="#E94B60" stroke-miterlimit="10"/>
<path d="M185.318 35.6113C185.318 33.9586 183.822 32.542 182.012 32.542" stroke="#E94B60" stroke-miterlimit="10"/>
<path d="M182.012 59.2994C183.822 59.2994 185.318 57.9615 185.318 56.2301V56.1514" stroke="#E94B60" stroke-miterlimit="10"/>
<path d="M173.198 54.5781C173.198 56.2308 174.693 57.6474 176.503 57.6474" stroke="#E94B60" stroke-miterlimit="10"/>
<path d="M197.91 52.7666C198.303 53.2388 198.618 53.9471 198.618 54.5767" stroke="#E94B60" stroke-miterlimit="10"/>
<path d="M199.72 45.6846C201.215 46.2355 202.317 47.5734 202.317 49.0687" stroke="#E94B60" stroke-miterlimit="10"/>
<path d="M193.109 35.532C193.03 33.8793 191.614 32.6201 189.803 32.6201C187.993 32.6201 186.498 33.958 186.498 35.6894C186.498 35.6894 186.498 56.0726 186.498 56.1513V36.2403" stroke="#E94B60" stroke-miterlimit="10"/>
<path d="M178.628 39.152C180.124 38.4437 181.855 39.0733 182.563 40.5686C183.272 42.0639 182.642 43.7953 181.147 44.5036" stroke="#E94B60" stroke-miterlimit="10"/>
<path d="M194.683 42.2217C196.336 42.3004 197.595 43.717 197.438 45.3697C197.28 47.0224 195.942 48.2816 194.29 48.1242" stroke="#E94B60" stroke-miterlimit="10"/>
<path d="M190.591 42.221C189.331 41.5127 188.938 39.86 189.646 38.6008C190.354 37.3416 192.007 36.9481 193.266 37.6564" stroke="#E94B60" stroke-miterlimit="10"/>
<path d="M188.151 53.2396C188.623 54.5775 190.118 55.3645 191.456 54.8923C192.794 54.4201 193.581 52.9248 193.109 51.5869" stroke="#E94B60" stroke-miterlimit="10"/>
<path d="M175.953 46.7861C174.93 48.124 175.244 49.9341 176.504 50.9572C177.841 51.9803 179.652 51.6655 180.675 50.4063" stroke="#E94B60" stroke-miterlimit="10"/>
<path d="M215.381 197.654C217.728 197.654 219.631 195.751 219.631 193.404C219.631 191.057 217.728 189.154 215.381 189.154C213.034 189.154 211.131 191.057 211.131 193.404C211.131 195.751 213.034 197.654 215.381 197.654Z" fill="#E94B60"/>
<path d="M219.552 202.926C221.899 202.926 223.802 201.024 223.802 198.677C223.802 196.329 221.899 194.427 219.552 194.427C217.205 194.427 215.302 196.329 215.302 198.677C215.302 201.024 217.205 202.926 219.552 202.926Z" fill="#E94B60"/>
<path d="M217.033 210.009C219.381 210.009 221.283 208.107 221.283 205.76C221.283 203.412 219.381 201.51 217.033 201.51C214.686 201.51 212.784 203.412 212.784 205.76C212.784 208.107 214.686 210.009 217.033 210.009Z" fill="#E94B60"/>
<path d="M217.034 189.548L218.372 190.256C221.205 191.751 223.251 194.506 223.881 197.654C224.431 200.566 223.802 203.635 221.992 206.075L220.733 207.806L217.034 189.548Z" fill="#E94B60"/>
<path d="M217.034 189.548L218.372 190.256C221.205 191.751 223.251 194.506 223.881 197.654C224.431 200.566 223.802 203.635 221.992 206.075L220.733 207.806" stroke="#F5ADAB" stroke-miterlimit="10"/>
<path d="M213.414 229.292L212.941 228.977C211.761 228.19 210.266 228.032 208.928 228.505L203.891 230.236C202.868 230.629 201.766 230.629 200.664 230.236L197.674 229.213C196.887 228.977 196.1 228.583 195.391 228.032C193.817 226.852 192.007 225.986 190.04 225.514L188.623 225.12C188.072 224.963 187.6 224.884 187.049 224.806L186.734 224.727C186.105 224.648 185.475 224.648 184.846 224.727L184.531 224.806C183.98 224.884 183.508 225.042 182.957 225.12L181.54 225.514C179.573 225.986 177.841 226.931 176.189 228.111C175.48 228.583 174.772 228.977 173.906 229.213L170.916 230.157C169.893 230.472 168.712 230.472 167.689 230.157L162.652 228.426C161.314 227.954 159.819 228.111 158.639 228.898L158.166 229.213C157.616 229.606 157.143 230.079 156.829 230.629C156.12 232.125 156.356 233.777 157.379 234.879L158.953 236.689C159.662 237.476 160.449 238.106 161.314 238.657L161.708 238.893L164.541 236.768L162.888 235.194C162.337 234.722 161.865 234.171 161.472 233.541L160.685 232.361C160.449 231.967 160.449 231.495 160.764 231.18C161.078 230.866 161.551 230.708 161.944 230.944L162.101 231.023C163.046 231.495 164.069 231.889 165.171 232.125L166.509 232.44C167.532 232.676 168.633 232.754 169.657 232.518L172.805 232.046C173.355 231.967 173.828 232.203 174.142 232.597L174.379 232.912C175.323 234.25 175.874 235.824 175.874 237.476C175.874 240.31 177.369 242.985 179.809 244.559C180.202 244.795 180.36 245.189 180.438 245.504C180.517 245.897 180.517 246.369 180.438 246.842C180.438 246.842 180.281 247.943 180.124 248.18C179.179 249.911 178.707 251.8 178.707 253.767V253.846C178.707 256.286 179.573 258.725 181.147 260.614L182.642 262.424L182.878 267.225L185.082 266.831C185.633 266.753 186.262 266.753 186.813 266.831L189.017 267.225L189.253 262.424L190.748 260.614C192.322 258.725 193.188 256.286 193.188 253.846V253.767C193.188 251.8 192.716 249.911 191.771 248.18C191.614 247.943 191.456 246.842 191.456 246.842C191.378 246.448 191.378 245.976 191.456 245.504C191.535 245.189 191.771 244.795 192.086 244.559C194.526 243.064 196.021 240.388 196.021 237.476C196.021 235.824 196.493 234.25 197.516 232.912L197.752 232.597C198.067 232.203 198.618 231.967 199.09 232.046L202.238 232.518C203.261 232.676 204.363 232.676 205.386 232.44L206.724 232.125C207.747 231.889 208.77 231.495 209.715 231.023L209.872 230.944C210.266 230.708 210.738 230.866 211.053 231.18C211.367 231.495 211.367 232.046 211.131 232.361L210.344 233.541C209.951 234.092 209.479 234.643 208.928 235.194L207.275 236.768L210.108 238.893L210.502 238.657C211.367 238.185 212.233 237.476 212.863 236.689L214.437 234.879C215.381 233.777 215.696 232.125 214.988 230.629C214.437 230.079 213.964 229.606 213.414 229.292Z" fill="#F5ADAB"/>
<path d="M213.02 229.606L212.705 229.291C211.997 228.662 210.974 228.504 210.029 228.819L204.363 230.944C203.261 231.337 202.002 231.416 200.822 231.022L191.692 227.875C190.748 227.56 189.725 227.324 188.702 227.166L186.656 226.93C186.105 226.851 185.554 226.851 184.924 226.93L182.878 227.166C181.855 227.324 180.91 227.56 179.887 227.875L170.758 231.022C169.578 231.416 168.397 231.416 167.217 230.944L161.55 228.819C160.685 228.504 159.662 228.662 158.875 229.291L158.56 229.606C157.379 230.629 157.064 232.36 157.851 233.698L160.055 237.476C160.055 237.555 160.212 237.555 160.212 237.476L161.236 236.059V235.981L159.189 233.147C158.56 232.282 158.717 231.101 159.583 230.393C160.134 229.921 160.842 229.842 161.55 230.078L167.217 232.046C168.24 232.36 169.342 232.439 170.365 232.282L175.638 231.259C177.133 230.944 178.628 231.731 179.337 233.069L185.711 245.739L192.086 233.069C192.794 231.731 194.289 230.944 195.785 231.259L201.058 232.282C202.081 232.518 203.182 232.439 204.206 232.046L209.872 230.078C210.502 229.842 211.289 229.999 211.839 230.393C212.705 231.101 212.863 232.282 212.233 233.147L210.187 235.981V236.059L211.21 237.476C211.289 237.555 211.367 237.555 211.367 237.476L213.571 233.698C214.515 232.36 214.2 230.629 213.02 229.606Z" fill="#E94B60"/>
<path d="M164.698 241.332C167.176 241.332 169.184 239.781 169.184 237.869C169.184 235.957 167.176 234.406 164.698 234.406C162.221 234.406 160.212 235.957 160.212 237.869C160.212 239.781 162.221 241.332 164.698 241.332Z" fill="#F6A000"/>
<path d="M168.083 235.665C168.555 235.901 169.184 235.901 169.657 235.587L175.795 231.888L175.323 232.596L176.346 232.439L175.716 233.068L176.739 233.304L175.638 233.54C175.323 233.619 175.087 233.698 174.851 233.855L170.129 236.531C169.657 236.767 169.342 237.239 169.184 237.79L168.083 235.665Z" fill="#F6A000"/>
<path d="M191.063 253.294C190.827 253.451 190.591 253.609 190.354 253.766C189.095 254.789 187.679 254.868 186.813 254.789C186.419 254.789 186.105 254.553 185.947 254.238L185.869 254.081L185.79 254.238C185.632 254.553 185.318 254.711 184.924 254.789C184.058 254.868 182.721 254.711 181.383 253.766C181.147 253.609 180.91 253.451 180.674 253.294L179.73 252.743V253.373C179.73 256.127 180.832 258.724 182.721 260.692C183.508 261.479 183.98 262.581 183.98 263.761V266.594L184.216 266.516C185.239 266.122 186.419 266.122 187.443 266.516L187.679 266.594V263.761C187.679 262.581 188.151 261.479 188.938 260.692C190.905 258.724 191.928 256.127 191.928 253.373V252.743L191.063 253.294Z" fill="#E94B60"/>
<path d="M185.869 254.239C186.303 254.239 186.656 253.957 186.656 253.609C186.656 253.261 186.303 252.979 185.869 252.979C185.434 252.979 185.082 253.261 185.082 253.609C185.082 253.957 185.434 254.239 185.869 254.239Z" fill="#E94B60"/>
<path d="M185.868 252.586C186.26 252.586 186.577 252.34 186.577 252.035C186.577 251.731 186.26 251.484 185.868 251.484C185.477 251.484 185.16 251.731 185.16 252.035C185.16 252.34 185.477 252.586 185.868 252.586Z" fill="#E94B60"/>
<path d="M185.868 251.091C186.26 251.091 186.577 250.844 186.577 250.54C186.577 250.236 186.26 249.989 185.868 249.989C185.477 249.989 185.16 250.236 185.16 250.54C185.16 250.844 185.477 251.091 185.868 251.091Z" fill="#E94B60"/>
<path d="M185.868 249.518C186.216 249.518 186.498 249.306 186.498 249.045C186.498 248.785 186.216 248.573 185.868 248.573C185.521 248.573 185.239 248.785 185.239 249.045C185.239 249.306 185.521 249.518 185.868 249.518Z" fill="#E94B60"/>
<path d="M185.869 248.022C186.173 248.022 186.42 247.81 186.42 247.549C186.42 247.289 186.173 247.077 185.869 247.077C185.565 247.077 185.318 247.289 185.318 247.549C185.318 247.81 185.565 248.022 185.869 248.022Z" fill="#E94B60"/>
<path d="M185.869 246.369C186.173 246.369 186.42 246.193 186.42 245.976C186.42 245.758 186.173 245.582 185.869 245.582C185.565 245.582 185.318 245.758 185.318 245.976C185.318 246.193 185.565 246.369 185.869 246.369Z" fill="#E94B60"/>
<path d="M207.118 241.332C209.595 241.332 211.604 239.781 211.604 237.869C211.604 235.957 209.595 234.406 207.118 234.406C204.64 234.406 202.632 235.957 202.632 237.869C202.632 239.781 204.64 241.332 207.118 241.332Z" fill="#F6A000"/>
<path d="M203.733 235.665C203.261 235.901 202.631 235.901 202.159 235.587L196.021 231.888L196.493 232.596L195.47 232.439L196.099 233.068L195.076 233.304L196.178 233.54C196.493 233.619 196.729 233.698 196.965 233.855L201.687 236.531C202.159 236.767 202.474 237.239 202.631 237.79L203.733 235.665Z" fill="#F6A000"/>
<path d="M213.02 201.432C212.547 201.668 212.075 202.14 211.682 202.691C210.186 204.894 211.288 207.649 211.367 207.964" stroke="#F8B99B" stroke-width="3" stroke-miterlimit="10"/>
<path d="M166.193 213.866C159.189 212.764 152.264 215.834 148.329 221.657L146.676 224.176C144.63 227.166 144.315 232.203 145.968 235.43C146.44 236.374 147.463 237.004 148.486 237.004H150.768C152.342 237.004 153.601 238.263 153.601 239.837C153.601 241.096 154.467 242.277 155.726 242.592L157.458 243.064C159.11 243.536 160.448 244.716 161.078 246.369L163.754 253.688C164.541 255.813 166.666 256.994 168.869 256.521L170.207 256.285C171.545 256.049 172.883 256.049 174.221 256.364C175.086 256.6 175.952 256.443 176.66 255.892C177.29 255.42 177.762 254.711 177.762 253.846L178.077 249.911C178.156 248.809 177.92 247.786 177.29 246.92L177.133 246.684C176.975 246.527 176.818 246.29 176.66 246.133C174.536 244.008 175.401 243.3 175.008 240.467C174.929 239.68 174.85 238.971 174.85 238.184C174.85 237.555 174.457 237.004 173.827 236.925C173.198 236.846 172.568 237.24 172.411 237.87L172.253 238.735C171.624 241.411 169.42 243.379 166.744 243.693C164.698 243.929 162.652 243.221 161.235 241.647L155.884 235.823C153.995 233.777 153.759 230.708 155.412 228.426C157.064 226.143 160.055 225.356 162.573 226.458L165.642 227.796C168.082 228.819 170.837 229.134 173.434 228.504C175.165 228.111 176.267 226.301 175.716 224.569L174.772 221.579C173.434 218.273 169.656 214.417 166.193 213.866Z" fill="white"/>
<path d="M165.013 257.702L166.823 257.308C167.059 257.229 167.374 257.229 167.61 257.308C168.397 257.544 168.791 258.489 168.476 259.276L168.24 259.826C167.453 261.873 169.027 264.155 171.152 263.919C171.309 263.919 171.388 263.919 171.545 263.84L174.378 263.211C175.244 263.053 175.952 262.502 176.425 261.715L177.526 259.748L178.392 258.252C178.471 258.095 178.707 258.174 178.786 258.331L179.022 258.961C179.415 260.299 180.91 262.03 181.776 262.974C182.17 263.368 182.327 263.998 182.091 264.548C181.068 267.224 178.707 269.192 175.874 269.664C175.008 269.821 174.142 269.821 173.277 269.743L168.004 269.27C165.092 269.034 162.888 266.595 162.888 263.683V263.604L163.911 258.961C163.833 258.489 164.305 257.859 165.013 257.702Z" fill="white"/>
<path d="M175.717 219.846C175.087 219.532 174.457 220.161 174.772 220.791C174.772 220.791 176.504 226.064 177.133 226.221C177.291 226.3 177.763 225.985 177.999 225.749C178.235 225.592 178.392 225.434 178.628 225.277C180.439 224.096 182.249 223.309 184.295 222.758C184.531 222.68 184.846 222.601 185.082 222.601L185.79 222.522V221.971L181.54 221.42C181.226 221.342 180.911 221.342 180.517 221.342C179.337 221.342 178.235 221.106 177.133 220.633L175.717 219.846Z" fill="white"/>
<path d="M205.465 213.866C212.469 212.764 219.395 215.834 223.33 221.657L224.982 224.176C227.028 227.166 227.343 232.203 225.69 235.43C225.218 236.374 224.195 237.004 223.172 237.004H220.89C219.316 237.004 218.057 238.263 218.057 239.837C218.057 241.096 217.191 242.277 215.932 242.592L214.2 243.064C212.548 243.536 211.21 244.716 210.58 246.369L207.904 253.688C207.117 255.813 204.992 256.994 202.789 256.521L201.451 256.285C200.113 256.049 198.775 256.049 197.437 256.364C196.572 256.6 195.706 256.443 194.998 255.892C194.368 255.42 193.896 254.711 193.896 253.846L193.581 249.911C193.502 248.809 193.738 247.786 194.368 246.92L194.525 246.684C194.683 246.527 194.84 246.29 194.998 246.133C197.123 244.008 196.257 243.3 196.65 240.467C196.729 239.68 196.808 238.971 196.808 238.184C196.808 237.555 197.201 237.004 197.831 236.925C198.46 236.846 199.09 237.24 199.247 237.87L199.405 238.735C200.034 241.411 202.238 243.379 204.914 243.693C206.96 243.929 209.006 243.221 210.423 241.647L215.774 235.823C217.663 233.777 217.899 230.708 216.247 228.426C214.594 226.143 211.603 225.356 209.085 226.458L206.016 227.796C203.576 228.819 200.821 229.134 198.224 228.504C196.493 228.111 195.391 226.301 195.942 224.569L196.886 221.579C198.224 218.273 202.002 214.417 205.465 213.866Z" fill="white"/>
<path d="M206.724 257.702L204.914 257.308C204.678 257.229 204.363 257.229 204.127 257.308C203.34 257.544 202.946 258.489 203.261 259.276L203.497 259.826C204.284 261.873 202.71 264.155 200.585 263.919C200.428 263.919 200.349 263.919 200.192 263.84L197.359 263.211C196.493 263.053 195.785 262.502 195.312 261.715L194.211 259.748L193.345 258.252C193.266 258.095 193.03 258.174 192.951 258.331L192.715 258.961C192.322 260.299 190.827 262.03 189.961 262.974C189.567 263.368 189.41 263.998 189.646 264.548C190.669 267.224 193.03 269.192 195.863 269.664C196.729 269.821 197.595 269.821 198.46 269.743L203.733 269.27C206.645 269.034 208.849 266.595 208.849 263.683V263.604L207.826 258.961C207.904 258.489 207.432 257.859 206.724 257.702Z" fill="white"/>
<path d="M195.942 219.846C196.572 219.532 197.201 220.161 196.887 220.791C196.887 220.791 195.155 226.064 194.526 226.221C194.368 226.3 193.896 225.985 193.66 225.749C193.424 225.592 193.266 225.434 193.03 225.277C191.22 224.096 189.41 223.309 187.364 222.758C187.128 222.68 186.813 222.601 186.577 222.601L185.869 222.522V221.971L190.118 221.42C190.433 221.342 190.748 221.342 191.142 221.342C192.322 221.342 193.424 221.106 194.526 220.633L195.942 219.846Z" fill="white"/>
<path d="M213.807 198.913C211.839 199.149 207.275 200.015 202.789 203.478C192.951 210.954 193.424 223.625 192.794 225.277" stroke="#F6A000" stroke-width="3" stroke-miterlimit="10"/>
<path d="M178.78 284.822C180.694 284.418 181.793 281.953 181.236 279.316C180.679 276.68 178.676 274.87 176.762 275.274C174.848 275.679 173.749 278.144 174.306 280.781C174.863 283.417 176.866 285.227 178.78 284.822Z" fill="#FFEC83"/>
<path d="M197.525 280.778C198.082 278.141 196.983 275.676 195.069 275.271C193.155 274.867 191.152 276.676 190.595 279.313C190.038 281.95 191.137 284.415 193.051 284.819C194.965 285.224 196.968 283.414 197.525 280.778Z" fill="#FFEC83"/>
<path d="M179.337 284.538C177.527 285.403 175.402 284.144 174.457 281.626C173.592 279.108 174.3 276.353 176.031 275.487" fill="#FFEC83"/>
<path d="M179.337 284.538C177.527 285.403 175.402 284.144 174.457 281.626C173.592 279.108 174.3 276.353 176.031 275.487" stroke="#F6A000" stroke-miterlimit="10"/>
<path d="M195.706 275.566C193.896 274.701 191.771 275.96 190.827 278.478C189.961 280.997 190.67 283.751 192.401 284.617" fill="#FFEC83"/>
<path d="M195.706 275.566C193.896 274.701 191.771 275.96 190.827 278.478C189.961 280.997 190.67 283.751 192.401 284.617" stroke="#F6A000" stroke-miterlimit="10"/>
<path d="M213.02 261.479L210.738 259.984C210.108 259.59 209.872 258.724 210.187 258.095L210.738 256.914C211.525 255.262 213.728 254.947 214.909 256.206C215.381 256.757 216.168 256.836 216.797 256.442L217.034 256.285C217.742 255.891 218.529 255.734 219.316 255.891L220.496 256.127C221.992 256.363 223.093 257.623 223.172 259.118V259.433C223.251 260.692 223.093 261.872 222.621 263.053L220.024 269.978C219.237 271.946 218.844 274.071 218.844 276.196C218.844 277.612 219.001 279.029 219.237 280.367C219.709 282.57 219.788 284.853 219.473 287.135L217.27 302.796C216.719 306.967 216.64 311.217 217.034 315.388L218.057 325.068C218.214 326.249 218.607 327.35 219.316 328.295C219.473 328.531 219.631 328.846 219.631 329.161L219.709 331.049C219.788 333.174 218.45 335.063 216.404 335.771C215.46 336.086 214.436 336.086 213.492 335.85L211.839 335.378C211.525 335.299 211.131 335.299 210.816 335.378L208.298 336.401C207.59 336.637 206.881 336.637 206.173 336.243C205.465 335.85 204.992 335.063 204.914 334.276L204.756 331.994C204.678 330.656 204.992 329.318 205.779 328.137C207.668 325.226 209.006 321.999 209.557 318.536L212.469 300.514C212.626 299.412 212.784 298.31 212.862 297.208L214.83 273.205C214.83 272.969 214.83 272.654 214.673 272.418L214.436 271.867C213.492 269.821 213.099 267.46 213.335 265.178L213.649 262.817C213.728 262.344 213.492 261.794 213.02 261.479Z" fill="white"/>
<path d="M211.052 336.323L208.613 337.425C207.826 337.818 206.881 337.74 206.173 337.267C206.016 337.189 205.701 337.267 205.78 337.503L205.858 339.55C205.858 340.258 205.937 340.966 206.094 341.596L207.511 349.23C207.59 349.623 208.141 349.702 208.298 349.308L212.626 336.874C212.784 336.48 212.548 336.087 212.154 336.008C211.997 335.929 211.761 336.008 211.603 336.087C211.367 336.166 211.21 336.244 211.052 336.323Z" fill="white"/>
<path d="M215.617 330.262L208.77 351.118C208.062 353.4 207.589 355.761 207.432 358.122L205.937 380.709C205.858 381.732 206.173 382.755 206.724 383.621V383.7C207.039 384.25 207.747 384.408 208.376 384.172C209.714 383.542 210.659 382.283 210.974 380.866L214.672 362.529C214.909 361.191 215.145 359.775 215.223 358.358L216.325 343.799C216.325 343.327 216.483 342.933 216.64 342.54C217.506 340.257 218.057 337.896 218.293 335.457L218.607 330.892C218.686 330.262 218.293 329.712 217.742 329.475C216.876 329.003 215.853 329.397 215.617 330.262Z" fill="#E94B60"/>
<path d="M217.348 343.957L217.191 344.429C217.191 344.508 217.112 344.586 217.112 344.665L215.302 365.442C215.145 367.488 215.302 369.456 215.853 371.423L216.168 372.682C216.325 373.312 217.112 373.39 217.427 372.84C219.001 370.164 219.788 367.095 219.788 363.947L219.63 348.207C219.63 347.577 219.552 346.947 219.394 346.397L218.765 343.957C218.607 343.406 217.663 343.327 217.348 343.957Z" fill="#E94B60"/>
<path d="M211.997 379.135L211.446 382.991C211.367 383.227 211.288 383.463 211.052 383.62L210.344 384.25C210.108 384.407 210.029 384.722 209.95 384.958L207.511 404.633C207.511 404.869 207.589 405.105 207.747 405.263L207.983 405.578C208.298 405.814 208.77 405.656 208.77 405.263L212.154 379.292C212.311 379.135 212.154 378.977 211.997 379.135Z" fill="white"/>
<path d="M206.016 415.257C206.252 415.729 206.803 415.965 207.354 415.887L208.849 415.651C209.4 415.572 209.872 415.1 209.951 414.549L210.108 413.29C210.265 412.109 208.849 411.401 207.983 412.188L206.33 413.683C205.78 414.077 205.701 414.785 206.016 415.257Z" fill="white"/>
<path d="M159.74 291.07C165.485 308.778 169.105 323.652 169.578 333.726C170.207 348.993 169.578 363.081 169.578 363.081C169.105 372.367 168.476 377.01 169.184 384.487C170.05 394.088 172.411 401.722 174.221 406.523" stroke="#6EB74A" stroke-width="3" stroke-miterlimit="10"/>
<path d="M174.142 252.114C167.846 254.711 159.504 290.205 157.616 301.302C155.805 311.69 152.657 330.971 157.301 354.266C160.213 368.983 161.944 376.302 164.935 393.931C167.059 406.13 174.615 429.739 160.134 430.29" stroke="#E94B60" stroke-width="3" stroke-miterlimit="10"/>
<path d="M159.74 291.07C157.537 292.093 154.861 293.825 152.578 296.579C149.194 300.672 146.282 307.44 148.014 313.421C148.722 315.939 149.824 316.648 150.217 319.638C150.69 322.865 149.903 325.619 149.273 327.508" stroke="#E94B60" stroke-width="3" stroke-miterlimit="10"/>
<path d="M160.134 405.657C160.527 401.407 156.199 391.176 158.796 384.565C161.393 377.954 166.587 372.524 169.184 369.219" stroke="#6EB74A" stroke-width="3" stroke-miterlimit="10"/>
<path d="M156.12 347.184C156.828 348.994 162.023 357.178 165.407 360.169C169.184 363.474 173.041 364.576 175.008 364.97" stroke="#E94B60" stroke-width="3" stroke-miterlimit="10"/>
<path d="M188.308 87.3164H183.193V108.88H188.308V87.3164Z" fill="#E94B60"/>
<path d="M172.332 117.616L185.711 105.969L199.09 118.088" stroke="#E94B60" stroke-width="7" stroke-miterlimit="10"/>
<path d="M199.169 164.05L199.563 163.341C201.373 160.115 204.835 158.147 208.534 158.305C213.65 158.619 217.663 162.791 217.663 167.906V173.022C217.663 179.554 215.696 186.007 211.997 191.437C210.108 194.192 207.59 196.395 204.521 197.733L203.891 197.969C197.595 200.803 188.072 201.747 183.98 198.756L175.008 192.933C174.615 192.696 174.143 192.933 174.143 193.405V195.923C174.143 197.891 172.569 199.465 170.601 199.465C168.634 199.465 167.06 197.891 167.06 195.923V191.516C167.06 189.076 168.476 186.794 170.68 185.771L170.837 185.692C172.883 184.748 175.166 184.512 177.369 185.063L180.517 185.85C182.249 186.322 184.059 186.4 185.79 186.164L188.072 185.85L192.007 185.22C193.66 184.984 194.998 183.725 195.47 182.072L195.864 180.577C196.729 177.035 196.178 173.258 194.211 170.11L189.725 162.791C188.938 161.531 189.332 159.8 190.669 159.013C191.693 158.462 192.952 158.541 193.739 159.328L199.169 164.05Z" fill="#F6A000"/>
<path d="M193.739 159.328L199.09 164.05L199.484 163.341C201.294 160.115 204.757 158.147 208.456 158.305C213.571 158.619 217.585 162.791 217.585 167.906V173.022C217.585 179.554 215.617 186.007 211.918 191.437C210.03 194.192 207.511 196.395 204.442 197.733L203.812 197.969C197.516 200.803 187.994 201.747 183.901 198.756L174.93 192.933C174.536 192.696 174.064 192.933 174.064 193.405V195.923C174.064 197.891 172.49 199.465 170.522 199.465C168.555 199.465 166.981 197.891 166.981 195.923V191.516" stroke="#FFEC83" stroke-miterlimit="10"/>
<path d="M177.526 104.788V141.305C177.526 148.938 170.916 155.156 162.731 155.156H159.976C148.565 155.156 145.968 141.777 149.037 131.467C151.634 122.495 167.296 102.191 167.296 102.191C170.129 97.7049 177.526 99.5937 177.526 104.788Z" fill="#6EB74A"/>
<path d="M194.29 104.788V141.305C194.29 148.938 200.9 155.156 209.085 155.156H211.84C223.251 155.156 225.848 141.777 222.779 131.467C220.182 122.495 204.521 102.191 204.521 102.191C201.609 97.7049 194.29 99.5937 194.29 104.788Z" fill="#6EB74A"/>
<path d="M176.346 137.527L176.11 137.685C172.096 140.046 170.129 144.768 171.309 149.332C172.647 154.841 176.74 159.248 182.17 160.98L188.702 163.105C191.614 164.049 194.762 163.026 196.572 160.586C197.752 159.012 198.225 156.966 197.831 155.077L196.021 145.791C195.47 142.721 193.581 140.046 190.906 138.472C187.836 136.583 184.137 135.875 180.596 136.347L178.943 136.583C177.999 136.74 177.133 137.055 176.346 137.527Z" fill="#E94B60"/>
<path d="M178.549 147.679V130.68" stroke="#E94B60" stroke-width="5" stroke-miterlimit="10"/>
<path d="M189.489 124.069H180.989" stroke="#E94B60" stroke-width="4" stroke-miterlimit="10"/>
<path d="M187.679 144.847L188.702 140.203C190.118 133.75 190.197 127.06 188.938 120.528L185.869 108.487" stroke="#E94B60" stroke-width="4" stroke-miterlimit="10"/>
<path d="M174.143 147.68V134.301" stroke="#E94B60" stroke-width="5" stroke-miterlimit="10"/>
<path d="M187.128 131.467H184.452V139.337H187.128V131.467Z" fill="#F5ADAB"/>
<path d="M180.911 128.319L185.711 132.569L190.591 128.162" stroke="#F5ADAB" stroke-width="4" stroke-miterlimit="10"/>
<path d="M159.268 187.816V174.673C159.268 169.007 163.833 164.442 169.499 164.442H173.67C176.661 164.442 179.022 166.803 179.022 169.794V176.169C179.022 179.081 177.369 181.756 174.693 183.016L161.629 189.233C160.527 189.784 159.268 188.997 159.268 187.816Z" fill="#F5ADAB"/>
<path d="M179.73 168.85V174.437C179.73 176.72 181.54 178.53 183.822 178.53H184.609C186.498 178.53 188.23 177.585 189.174 176.011L194.447 167.512C195.312 166.174 194.289 164.442 192.715 164.442H183.98C181.697 164.442 179.73 166.41 179.73 168.85Z" fill="#F5ADAB"/>
<path d="M174.693 183.016L161.629 189.233C160.527 189.784 159.268 188.997 159.268 187.738V174.595C159.268 168.929 163.833 164.364 169.499 164.364" stroke="#E94B60" stroke-miterlimit="10"/>
<path d="M184.137 164.442C181.697 164.442 179.73 166.41 179.73 168.85V174.437C179.73 176.72 181.54 178.53 183.822 178.53H184.609C186.498 178.53 188.23 177.585 189.174 176.011" stroke="#E94B60" stroke-miterlimit="10"/>
<path d="M173.985 113.13C172.175 114.153 168.948 116.357 166.508 120.213C163.596 124.777 163.203 129.106 163.046 131.152C162.731 135.638 163.675 139.258 164.462 141.462" stroke="#4F4898" stroke-miterlimit="10"/>
<path d="M154.31 143.666L157.537 138.865C157.773 138.55 158.009 138.157 158.166 137.842L163.203 129.421" stroke="#4F4898" stroke-miterlimit="10"/>
<path d="M165.328 122.26L166.666 125.486C167.768 128.084 168.397 130.759 168.712 133.593L168.791 134.301" stroke="#4F4898" stroke-miterlimit="10"/>
<path d="M157.064 122.259L159.032 121.944C161.314 121.629 163.518 120.764 165.564 119.583L168.004 118.088" stroke="#4F4898" stroke-miterlimit="10"/>
<path d="M197.438 113.13C199.248 114.153 202.474 116.357 204.914 120.213C207.826 124.777 208.219 129.106 208.377 131.152C208.692 135.638 207.747 139.258 206.96 141.462" stroke="#4F4898" stroke-miterlimit="10"/>
<path d="M217.191 143.666L213.964 138.865C213.728 138.55 213.492 138.157 213.335 137.842L208.298 129.421" stroke="#4F4898" stroke-miterlimit="10"/>
<path d="M206.173 122.26L204.835 125.486C203.734 128.084 203.104 130.759 202.789 133.593L202.71 134.301" stroke="#4F4898" stroke-miterlimit="10"/>
<path d="M214.358 122.259L212.39 121.944C210.108 121.629 207.904 120.764 205.858 119.583L203.418 118.088" stroke="#4F4898" stroke-miterlimit="10"/>
<path d="M176.11 137.685C172.096 140.046 170.129 144.768 171.309 149.332C172.647 154.841 176.74 159.248 182.17 160.98L188.702 163.105" stroke="#F5ADAB" stroke-miterlimit="10"/>
<path d="M183.193 90.7012H188.308" stroke="#F5ADAB" stroke-miterlimit="10"/>
<path d="M183.193 94.6357H188.308" stroke="#F5ADAB" stroke-miterlimit="10"/>
<path d="M183.193 98.5703H188.308" stroke="#F5ADAB" stroke-miterlimit="10"/>
<path d="M183.193 102.506H188.308" stroke="#F5ADAB" stroke-miterlimit="10"/>
<path d="M185.947 143.587C186.498 143.666 190.512 144.531 192.558 148.388C194.053 151.299 193.502 154.054 193.266 154.762" stroke="#F5ADAB" stroke-miterlimit="10"/>
<path d="M187.128 154.841C187.915 154.211 189.332 152.873 190.197 150.669C190.669 149.41 190.827 146.971 190.827 146.184" stroke="#F5ADAB" stroke-miterlimit="10"/>
<path d="M198.46 417.776C198.46 417.776 199.877 418.485 200.9 417.776C201.923 416.989 201.294 415.179 201.608 414.471C201.923 413.763 203.104 413.054 203.891 413.29C204.678 413.527 205.071 415.101 205.071 415.101C205.071 415.101 205.386 416.675 206.803 417.068C208.219 417.462 209.557 416.989 209.557 416.989C209.557 416.989 211.131 417.462 211.918 418.091C212.705 418.721 211.997 419.901 211.997 419.901C211.997 419.901 207.983 418.957 206.094 419.901C204.206 420.846 203.104 423.915 203.104 423.915C203.104 423.915 202.632 425.41 201.294 425.174C199.956 424.938 199.798 423.679 199.72 422.734C199.641 421.79 199.798 420.61 199.484 419.823C199.09 419.036 198.46 417.776 198.46 417.776Z" fill="white"/>
<path d="M200.271 425.804C200.271 425.804 201.294 426.276 202.238 425.725C203.261 425.174 203.497 424.073 203.891 423.207C204.206 422.341 205.071 421.161 205.858 420.767C206.645 420.374 207.747 419.98 208.849 420.059C209.951 420.138 211.525 420.61 211.525 420.61C211.525 420.61 211.839 421.554 212.626 422.656C213.413 423.758 214.2 424.387 214.2 424.387L213.65 424.86C213.65 424.86 213.256 423.994 212.312 424.309C211.367 424.624 211.289 425.017 211.289 425.017C211.289 425.017 210.816 424.151 209.715 424.466C208.691 424.702 208.534 425.332 208.534 425.332C208.534 425.332 208.062 423.443 206.409 423.6C204.756 423.758 204.206 424.86 204.048 425.411C203.891 425.961 204.284 427.457 204.284 427.457C204.284 427.457 203.419 426.591 202.159 426.827C200.9 426.985 200.192 427.614 200.192 427.614L200.271 425.804Z" fill="white"/>
<path d="M199.72 430.211C199.798 431.47 200.585 431.392 200.664 432.415C200.822 433.438 201.058 434.618 201.294 435.878C201.53 437.137 202.081 438.081 201.845 439.183C201.609 440.285 201.687 441.701 201.687 441.701C201.687 441.701 202.396 440.206 204.284 439.97C206.173 439.734 207.039 441.15 207.039 441.15C207.039 441.15 206.96 440.127 206.173 438.632C205.307 437.058 204.835 434.776 204.835 433.202C204.835 431.628 205.229 429.818 205.229 429.424C205.307 429.031 204.835 427.85 203.812 427.378C202.789 426.906 201.058 427.063 200.507 428.008C199.877 428.873 199.72 430.211 199.72 430.211Z" fill="white"/>
<path d="M205.071 425.49C204.914 426.199 204.835 427.143 205.229 427.851C205.544 428.559 206.803 430.763 207.432 432.888C208.062 435.013 208.377 437.374 208.377 438.554C208.377 439.735 208.613 441.073 208.613 441.073L209.085 441.702C209.085 441.702 208.928 440.443 210.344 439.892C211.761 439.341 212.627 440.364 212.627 440.364C212.627 440.364 212.941 439.814 211.84 438.003C210.738 436.193 209.4 433.281 209.006 431.944C208.613 430.606 208.377 428.402 208.298 427.3C208.219 426.198 208.298 424.782 207.196 424.31C206.173 423.838 205.229 424.782 205.071 425.49Z" fill="white"/>
<path d="M202.317 442.961C202.553 443.67 203.34 444.063 203.497 445.086C203.655 446.109 204.127 446.424 203.97 446.975C203.812 447.526 203.891 447.683 203.97 448.077C204.048 448.47 204.127 448.706 204.127 448.706C204.127 448.706 204.835 447.368 205.701 447.054C206.567 446.739 207.118 446.975 207.118 446.975C207.118 446.975 206.331 445.401 206.488 444.299C206.645 443.197 207.196 442.883 207.196 442.41C207.275 441.859 206.095 440.285 204.363 440.364C202.71 440.522 202.081 441.938 202.317 442.961Z" fill="white"/>
<path d="M204.757 449.729C204.993 450.358 205.701 449.965 206.409 450.673C207.118 451.382 207.905 452.877 208.849 452.011C209.793 451.145 209.872 450.595 209.085 449.808C208.219 449.021 208.219 448.076 208.141 447.761C208.062 447.447 206.881 447.053 206.016 447.525C205.15 448.076 204.52 449.021 204.757 449.729Z" fill="white"/>
<path d="M209.636 442.724C209.478 441.78 209.557 441.465 210.501 440.835C211.446 440.206 212.39 440.993 212.626 441.386C212.941 441.78 212.784 442.567 213.099 443.354C213.413 444.141 214.358 445.4 214.358 445.4C214.358 445.4 213.807 445.164 213.099 445.715C212.312 446.266 211.603 447.525 211.603 447.525C211.603 447.525 211.761 445.085 211.288 443.747C210.816 442.409 209.636 442.724 209.636 442.724Z" fill="white"/>
<path d="M212.076 447.998C212.154 448.391 212.627 448.627 213.02 448.863C213.414 449.099 213.964 449.729 213.964 449.729C213.964 449.729 214.279 449.178 214.83 448.942C215.381 448.706 216.089 448.863 216.089 448.863C216.089 448.863 215.145 448.155 214.83 447.525C214.515 446.975 214.673 446.266 214.358 445.951C213.964 445.637 213.099 446.109 212.705 446.502C212.39 446.896 211.997 447.604 212.076 447.998Z" fill="white"/>
<path d="M214.437 450.515C214.594 450.909 214.909 450.751 215.381 451.302C215.853 451.774 215.775 452.011 216.326 451.775C216.876 451.538 216.247 450.751 216.168 450.122C216.089 449.492 215.617 449.099 214.988 449.414C214.358 449.571 214.437 450.515 214.437 450.515Z" fill="white"/>
<path d="M217.585 447.131C217.585 447.131 217.663 446.502 217.27 445.872C216.876 445.243 216.325 445.164 216.247 444.456C216.168 443.747 217.27 443.433 217.821 443.354C218.45 443.275 218.686 443.59 218.765 444.062C218.844 444.534 218.608 444.456 218.686 445.007C218.844 445.557 219.316 446.03 219.316 446.03C219.316 446.03 218.686 445.951 218.293 446.187C217.899 446.423 217.585 447.131 217.585 447.131Z" fill="white"/>
<path d="M218.135 447.289C218.135 447.683 219.08 448.785 219.631 448.627C220.181 448.47 220.103 447.053 219.788 446.66C219.473 446.266 219.158 446.266 218.765 446.424C218.293 446.581 218.135 447.289 218.135 447.289Z" fill="white"/>
<path d="M218.293 442.803C218.293 442.803 218.214 442.488 217.427 442.724C216.64 442.96 216.404 443.354 216.404 443.354C216.404 443.354 216.719 441.701 216.01 441.071C215.302 440.442 214.594 440.363 214.279 439.733C214.043 439.104 214.436 438.553 214.909 438.317C215.381 438.081 216.01 438.16 216.561 438.868C217.191 439.576 217.427 440.127 217.663 440.914C218.057 441.544 218.293 442.803 218.293 442.803Z" fill="white"/>
<path d="M216.561 438.002C216.561 438.002 215.932 437.373 214.987 437.53C214.043 437.688 213.807 438.947 213.807 438.947C213.807 438.947 213.571 438.632 213.649 437.845C213.649 437.137 213.807 436.586 213.413 435.405C213.02 434.225 212.233 431.943 211.603 430.998C210.974 430.054 210.423 429.424 209.872 429.031C209.321 428.637 208.849 428.401 208.849 428.401C208.849 428.401 208.691 426.434 208.849 425.883C209.085 425.332 209.636 425.174 210.029 425.096C210.423 425.096 211.131 425.568 211.367 426.04C211.603 426.512 211.288 427.457 211.525 428.086C211.682 428.795 212.312 429.424 212.862 430.447C213.492 431.47 213.728 432.179 214.279 433.517C214.83 434.854 215.145 435.72 215.538 436.114C215.932 436.507 216.089 436.586 216.247 436.979C216.561 437.53 216.561 438.002 216.561 438.002Z" fill="white"/>
<path d="M221.598 435.563C221.598 435.563 220.418 433.989 218.923 431.785C217.427 429.582 216.64 428.401 215.696 427.457C214.751 426.512 214.515 426.276 214.437 425.647C214.358 425.017 215.145 424.388 215.696 424.545C216.247 424.624 216.168 425.253 216.483 426.198C216.798 427.142 216.798 427.221 217.27 427.693C217.742 428.165 218.529 429.188 218.923 429.818C219.316 430.447 220.418 431.549 221.362 432.179C222.307 432.73 223.723 433.753 223.723 433.753C223.723 433.753 222.543 433.438 222.071 434.146C221.598 434.855 221.598 435.563 221.598 435.563Z" fill="white"/>
<path d="M222.149 436.192C222.464 436.507 223.093 435.956 223.644 436.271C224.116 436.586 223.959 437.687 223.959 437.687C223.959 437.687 224.274 437.294 224.825 437.215C225.376 437.136 225.376 437.136 225.376 437.136C225.376 437.136 225.061 435.877 224.353 435.012C223.644 434.225 223.015 433.752 222.464 434.225C222.07 434.697 222.149 436.192 222.149 436.192Z" fill="white"/>
<path d="M221.598 440.127C221.598 440.127 221.598 439.261 221.047 438.238C220.496 437.215 219.788 436.507 219.316 436.428C218.844 436.349 218.45 436.664 218.135 437.058C217.899 437.451 217.821 438.081 218.057 438.238C218.293 438.474 219.158 438.71 219.395 438.947C219.631 439.183 219.945 440.914 219.945 440.914C219.945 440.914 220.418 440.521 220.811 440.363C221.205 440.127 221.598 440.127 221.598 440.127Z" fill="white"/>
<path d="M220.181 441.623C220.103 441.938 220.654 441.859 220.89 442.331C221.126 442.803 221.047 443.039 221.047 443.039C221.047 443.039 221.283 442.567 221.755 442.41C222.228 442.252 222.228 442.252 222.228 442.252C222.228 442.252 221.913 441.859 221.834 441.387C221.755 440.914 221.834 440.678 221.362 440.757C220.811 440.757 220.181 441.151 220.181 441.623Z" fill="white"/>
<path d="M221.441 443.668C221.519 444.141 222.306 444.219 222.542 444.534C222.779 444.849 222.779 444.141 222.779 443.59C222.779 443.039 222.464 442.724 222.07 442.881C221.598 442.96 221.362 443.117 221.441 443.668Z" fill="white"/>
<path d="M224.038 438.552C224.117 438.867 224.432 438.631 224.904 438.552C225.376 438.474 225.455 438.238 225.376 437.923C225.297 437.608 225.061 437.608 224.746 437.765C224.432 437.923 223.959 438.08 224.038 438.552Z" fill="white"/>
<path d="M224.51 439.419C224.589 439.891 224.982 440.599 225.376 440.442C225.769 440.284 225.612 438.946 225.376 438.868C225.218 438.789 224.431 439.025 224.51 439.419Z" fill="white"/>
<path d="M211.997 425.49C211.997 425.49 212.233 425.883 212.154 426.591C212.075 427.3 211.997 427.457 212.469 428.165C212.941 428.874 213.649 429.739 214.279 430.841C214.908 431.943 216.089 433.438 216.246 434.068C216.404 434.697 216.561 435.72 216.719 436.429C216.876 437.137 217.348 437.609 217.348 437.609C217.348 437.609 217.506 436.507 218.135 436.114C218.765 435.72 219.63 436.114 219.63 436.114C219.63 436.114 219.552 435.563 218.686 434.54C217.82 433.517 217.427 433.123 216.64 431.707C215.853 430.29 215.223 429.424 214.751 428.716C214.279 428.008 214.2 427.851 214.043 426.985C213.964 426.119 213.964 425.332 213.413 425.175C212.862 425.017 211.997 425.49 211.997 425.49Z" fill="white"/>
<path d="M207.983 407.781C207.983 407.152 207.747 406.601 207.432 406.129C207.117 405.578 206.96 404.948 207.039 404.319L209.242 385.273C209.242 384.959 208.928 384.723 208.691 384.88L208.141 385.273C207.511 385.667 206.724 385.431 206.409 384.88L206.094 384.329C205.937 384.014 205.386 384.093 205.386 384.486L204.048 396.842C203.891 398.259 203.576 399.754 203.182 401.171L200.743 409.434L200.349 410.379C200.349 410.379 199.326 412.897 199.011 414.55C198.697 416.124 198.539 416.36 198.775 416.675C199.011 417.068 199.641 417.54 200.349 416.989C201.058 416.438 200.743 415.651 201.058 414.471C201.215 413.92 201.372 413.527 201.608 413.212C201.687 413.212 201.687 413.133 201.766 413.054L202.317 412.503C202.632 412.189 203.104 412.031 203.576 412.189L204.599 412.503C205.386 412.74 206.33 412.503 206.96 411.953L207.275 411.716C207.983 411.087 208.298 410.143 208.219 409.277L207.983 407.781Z" fill="white"/>
<line x1="371.43" y1="142.781" x2="191.082" y2="142.781" stroke="#4849A6"/>
<circle cx="192.485" cy="142.55" r="1.96749" transform="rotate(-180 192.485 142.55)" fill="#4849A6"/>
<line x1="372.664" y1="190.385" x2="217.542" y2="190.385" stroke="#4849A6"/>
<circle cx="218.374" cy="190.231" r="1.52891" transform="rotate(-180 218.374 190.231)" fill="#4849A6"/>
<line x1="372.664" y1="248.843" x2="191.601" y2="248.843" stroke="#4849A6"/>
<circle cx="192.469" cy="248.704" r="1.59453" transform="rotate(-180 192.469 248.704)" fill="#4849A6"/>
<line x1="372.664" y1="306.303" x2="214.399" y2="306.303" stroke="#4849A6"/>
<circle cx="215.235" cy="306.151" r="1.53807" transform="rotate(-180 215.235 306.151)" fill="#4849A6"/>
<line x1="0.149902" y1="110.06" x2="161.329" y2="110.06" stroke="#4849A6"/>
<circle cx="161.851" cy="110.114" r="1.96749" fill="#4849A6"/>
<line x1="40.0264" y1="338.476" x2="153.883" y2="338.476" stroke="#4849A6"/>
<circle cx="153.177" cy="338.53" r="1.96749" fill="#4849A6"/>
<line x1="0.149902" y1="34.6899" x2="177.004" y2="34.6899" stroke="#4849A6"/>
<circle cx="176.582" cy="34.7448" r="1.96749" fill="#4849A6"/>
<line x1="0.149902" y1="175.872" x2="161.411" y2="175.872" stroke="#4849A6"/>
<ellipse cx="161.062" cy="175.927" rx="1.6248" ry="1.96749" fill="#4849A6"/>
<line x1="46.1196" y1="184.371" x2="161.062" y2="184.371" stroke="#4849A6"/>
<circle cx="160.681" cy="184.37" r="1.96749" fill="#4849A6"/>
<line x1="46.1196" y1="166.354" x2="161.062" y2="166.354" stroke="#4849A6"/>
<circle cx="160.681" cy="166.409" r="1.96749" fill="#4849A6"/>
<line x1="372.664" y1="52.6631" x2="199.945" y2="52.6631" stroke="#4849A6"/>
<circle cx="201.057" cy="52.6087" r="1.96749" transform="rotate(-180 201.057 52.6087)" fill="#4849A6"/>
<line x1="46.29" y1="166.233" x2="46.29" y2="156.338" stroke="#4849A6"/>
<line x1="46.29" y1="194.102" x2="46.29" y2="184.206" stroke="#4849A6"/>
</g>
<defs>
<clipPath id="clip0_2271_17633">
<rect width="373" height="458" fill="white"/>
</clipPath>
</defs>
</svg>
