<svg width="1200" height="664" viewBox="0 0 1200 664" fill="none" xmlns="http://www.w3.org/2000/svg">
<rect width="1200" height="664" fill="#E6E3F4"/>
<path d="M1200 572H0V664H1200V572Z" fill="#B7AFDD"/>
<path d="M651.292 591.502C651.292 622.296 676.817 647.258 708.308 647.258C739.799 647.258 765.323 622.296 765.323 591.502C765.323 560.708 739.799 535.747 708.308 535.747C676.817 535.747 651.292 560.708 651.292 591.502Z" fill="#6EB74A"/>
<path d="M651.292 513.035C651.292 543.829 676.817 568.791 708.308 568.791C739.799 568.791 765.323 543.829 765.323 513.035C765.323 482.242 739.799 457.28 708.308 457.28C676.817 457.28 651.292 482.242 651.292 513.035Z" fill="#6EB74A"/>
<path d="M708.308 664V484.629" stroke="#4F4898" stroke-width="0.92" stroke-miterlimit="10"/>
<path d="M676.268 569.669L708.308 597.815L745.518 574.349" stroke="#4F4898" stroke-width="0.92" stroke-miterlimit="10"/>
<path d="M688.544 499.78L708.308 519.911L726.015 502.428" stroke="#4F4898" stroke-width="0.92" stroke-miterlimit="10"/>
<path d="M748.961 605.061L708.308 634.441L671.454 614.392" stroke="#4F4898" stroke-width="0.92" stroke-miterlimit="10"/>
<path d="M748.961 527.225L708.308 556.605L671.454 536.556" stroke="#4F4898" stroke-width="0.92" stroke-miterlimit="10"/>
<path d="M688.544 532.085C688.544 601.529 746.105 657.822 817.121 657.822C888.137 657.822 945.699 601.529 945.699 532.085C945.699 462.64 888.137 406.348 817.121 406.348C746.105 406.348 688.544 462.64 688.544 532.085Z" fill="#A0CB7D"/>
<path d="M688.544 355.132C688.544 424.576 746.105 480.869 817.121 480.869C888.137 480.869 945.699 424.576 945.699 355.132C945.699 285.687 888.137 229.395 817.121 229.395C746.105 229.395 688.544 285.687 688.544 355.132Z" fill="#A1CB7C"/>
<path d="M817.121 660.266V291.071" stroke="#4F4898" stroke-width="0.92" stroke-miterlimit="10"/>
<path d="M744.868 482.849L817.121 546.321L901.035 493.402" stroke="#4F4898" stroke-width="0.92" stroke-miterlimit="10"/>
<path d="M772.52 325.238L817.121 370.637L857.052 331.242" stroke="#4F4898" stroke-width="0.92" stroke-miterlimit="10"/>
<path d="M908.799 562.661L817.121 628.918L734.011 583.704" stroke="#4F4898" stroke-width="0.92" stroke-miterlimit="10"/>
<path d="M908.799 387.13L817.121 453.387L734.011 408.174" stroke="#4F4898" stroke-width="0.92" stroke-miterlimit="10"/>
<path d="M385.408 611.32C384.205 611.32 383.242 610.96 382.52 610.36C381.797 609.64 381.557 608.679 381.557 607.119C381.557 606.159 381.677 605.318 382.038 604.718C382.399 604.118 382.881 603.638 383.482 603.278C384.084 603.037 384.806 602.797 385.529 602.797C386.13 602.797 386.612 602.797 386.973 602.917C387.334 603.037 387.695 603.157 388.056 603.278L387.454 604.958C387.093 604.838 386.732 604.718 386.491 604.598C386.251 604.598 385.89 604.598 385.649 604.598C384.445 604.598 383.964 605.438 383.964 607.119C383.964 607.959 384.084 608.559 384.445 608.919C384.806 609.28 385.167 609.52 385.769 609.52C386.251 609.52 386.612 609.4 386.973 609.28C387.334 609.16 387.695 609.039 388.056 608.799V610.6C387.695 610.84 387.334 610.96 386.973 611.08C386.491 611.2 386.01 611.32 385.408 611.32Z" fill="#8881BC"/>
<path d="M391.185 611.08H388.899V602.917H391.185V611.08ZM390.102 599.676C390.463 599.676 390.704 599.796 390.945 599.916C391.185 600.036 391.306 600.397 391.306 600.757C391.306 601.117 391.185 601.477 390.945 601.597C390.704 601.717 390.463 601.837 390.102 601.837C389.741 601.837 389.5 601.717 389.26 601.597C389.019 601.477 388.899 601.117 388.899 600.757C388.899 600.397 389.019 600.036 389.26 599.916C389.38 599.796 389.741 599.676 390.102 599.676Z" fill="#8881BC"/>
<path d="M396.12 609.52C396.361 609.52 396.601 609.52 396.842 609.4C397.083 609.4 397.324 609.28 397.564 609.16V610.84C397.324 610.96 397.083 611.08 396.722 611.08C396.361 611.2 396 611.2 395.518 611.2C395.037 611.2 394.555 611.08 394.194 610.96C393.833 610.84 393.472 610.48 393.231 610.12C392.991 609.76 392.87 609.16 392.87 608.439V604.598H391.787V603.638L392.991 602.917L393.592 601.237H395.037V602.917H397.324V604.598H395.037V608.559C395.037 608.919 395.157 609.16 395.277 609.28C395.518 609.4 395.759 609.52 396.12 609.52Z" fill="#8881BC"/>
<path d="M400.453 611.08H398.166V602.917H400.453V611.08ZM399.37 599.676C399.731 599.676 399.971 599.796 400.212 599.916C400.453 600.036 400.573 600.397 400.573 600.757C400.573 601.117 400.453 601.477 400.212 601.597C399.971 601.717 399.731 601.837 399.37 601.837C399.009 601.837 398.768 601.717 398.527 601.597C398.286 601.477 398.166 601.117 398.166 600.757C398.166 600.397 398.286 600.036 398.527 599.916C398.768 599.796 399.009 599.676 399.37 599.676Z" fill="#8881BC"/>
<path d="M405.388 604.358C404.906 604.358 404.545 604.478 404.304 604.718C404.064 604.958 403.823 605.438 403.823 606.038H406.952C406.952 605.558 406.832 605.198 406.591 604.838C406.23 604.478 405.869 604.358 405.388 604.358ZM405.267 602.797C406.35 602.797 407.313 603.157 407.915 603.758C408.517 604.358 408.878 605.318 408.878 606.519V607.599H403.582C403.582 608.199 403.823 608.679 404.184 609.039C404.545 609.4 405.026 609.52 405.628 609.52C406.11 609.52 406.591 609.52 407.073 609.4C407.554 609.28 407.915 609.16 408.396 608.919V610.6C408.035 610.84 407.554 610.96 407.073 611.08C406.591 611.2 406.11 611.2 405.508 611.2C404.665 611.2 403.943 611.08 403.341 610.72C402.74 610.36 402.258 610 401.897 609.4C401.536 608.799 401.416 607.959 401.416 606.999C401.416 606.038 401.536 605.198 401.897 604.598C402.258 603.998 402.619 603.518 403.221 603.157C403.823 602.917 404.545 602.797 405.267 602.797Z" fill="#8881BC"/>
<path d="M415.859 608.68C415.859 609.52 415.618 610.12 415.016 610.6C414.414 611.08 413.572 611.32 412.368 611.32C411.766 611.32 411.285 611.32 410.924 611.2C410.563 611.08 410.081 610.96 409.72 610.84V609.04C410.202 609.28 410.683 609.4 411.165 609.52C411.646 609.64 412.127 609.76 412.489 609.76C412.97 609.76 413.211 609.64 413.451 609.52C413.692 609.4 413.692 609.28 413.692 609.04C413.692 608.92 413.692 608.8 413.572 608.68C413.451 608.559 413.331 608.439 413.09 608.319C412.85 608.199 412.489 607.959 411.887 607.839C411.405 607.599 410.924 607.359 410.563 607.239C410.202 606.999 409.961 606.759 409.841 606.519C409.72 606.159 409.6 605.799 409.6 605.318C409.6 604.598 409.841 603.998 410.442 603.638C411.044 603.278 411.766 603.038 412.85 603.038C413.331 603.038 413.812 603.038 414.294 603.158C414.775 603.278 415.257 603.398 415.738 603.638L415.016 605.198C414.655 605.078 414.294 604.838 413.933 604.718C413.572 604.598 413.211 604.598 412.85 604.598C412.248 604.598 411.887 604.718 411.887 605.078C411.887 605.198 411.887 605.318 412.007 605.438C412.127 605.558 412.248 605.678 412.489 605.799C412.729 605.919 413.09 606.039 413.572 606.279C414.053 606.519 414.414 606.639 414.775 606.879C415.136 607.119 415.377 607.359 415.618 607.599C415.738 607.839 415.859 608.199 415.859 608.68Z" fill="#8881BC"/>
<path d="M385.408 624.765C384.205 624.765 383.242 624.404 382.52 623.804C381.797 623.084 381.557 622.124 381.557 620.563C381.557 619.603 381.677 618.763 382.038 618.162C382.399 617.562 382.881 617.082 383.482 616.722C384.084 616.482 384.806 616.242 385.529 616.242C386.13 616.242 386.612 616.242 386.973 616.362C387.334 616.482 387.695 616.602 388.056 616.722L387.454 618.402C387.093 618.282 386.732 618.162 386.491 618.042C386.13 617.922 385.89 617.922 385.529 617.922C384.325 617.922 383.844 618.763 383.844 620.443C383.844 621.283 383.964 621.884 384.325 622.244C384.686 622.604 385.047 622.844 385.649 622.844C386.13 622.844 386.491 622.724 386.852 622.604C387.214 622.484 387.575 622.364 387.936 622.124V624.044C387.575 624.284 387.214 624.404 386.852 624.525C386.491 624.645 386.01 624.765 385.408 624.765Z" fill="#4F4898"/>
<path d="M391.426 613.241V615.522C391.426 615.882 391.426 616.362 391.426 616.722C391.426 617.082 391.426 617.323 391.306 617.443H391.426C391.667 617.082 392.028 616.722 392.389 616.482C392.75 616.242 393.231 616.242 393.713 616.242C394.555 616.242 395.277 616.482 395.879 616.962C396.361 617.443 396.722 618.163 396.722 619.243V624.525H394.435V619.723C394.435 618.523 393.954 617.923 393.111 617.923C392.389 617.923 392.028 618.163 391.667 618.643C391.426 619.123 391.306 619.723 391.306 620.684V624.525H389.019V613.121H391.426V613.241Z" fill="#4F4898"/>
<path d="M402.98 620.803H402.138C401.416 620.803 400.934 620.923 400.694 621.163C400.453 621.403 400.332 621.764 400.332 622.124C400.332 622.484 400.453 622.724 400.694 622.844C400.934 622.964 401.175 623.084 401.416 623.084C401.897 623.084 402.258 622.964 402.619 622.604C402.98 622.364 403.101 621.884 403.101 621.403V620.803H402.98ZM401.777 616.242C402.86 616.242 403.702 616.482 404.304 616.962C404.906 617.442 405.147 618.162 405.147 619.123V624.525H403.582L403.101 623.444C402.74 623.924 402.379 624.164 402.017 624.404C401.656 624.645 401.055 624.645 400.453 624.645C399.731 624.645 399.129 624.404 398.647 624.044C398.166 623.684 397.925 622.964 397.925 622.124C397.925 621.283 398.286 620.563 398.888 620.203C399.49 619.843 400.453 619.603 401.656 619.483H403.101V619.123C403.101 618.643 402.98 618.402 402.74 618.162C402.499 617.922 402.258 617.922 401.777 617.922C401.416 617.922 400.934 617.922 400.573 618.042C400.212 618.162 399.851 618.282 399.49 618.522L398.768 616.962C399.249 616.722 399.731 616.602 400.212 616.482C400.573 616.362 401.175 616.242 401.777 616.242Z" fill="#4F4898"/>
<path d="M411.405 616.242C412.248 616.242 412.97 616.482 413.572 616.962C414.053 617.442 414.414 618.162 414.414 619.243V624.525H412.127V619.723C412.127 619.123 412.007 618.643 411.766 618.402C411.526 618.162 411.165 617.922 410.804 617.922C410.081 617.922 409.6 618.162 409.359 618.643C409.119 619.123 408.998 619.723 408.998 620.683V624.525H406.711V616.362H408.396L408.757 617.442H408.878C409.119 617.082 409.48 616.722 409.961 616.482C410.442 616.362 410.924 616.242 411.405 616.242Z" fill="#4F4898"/>
<path d="M419.469 618.042C418.386 618.042 417.905 618.883 417.905 620.563C417.905 622.244 418.386 622.964 419.469 622.964C420.071 622.964 420.432 622.844 420.793 622.484C421.034 622.124 421.154 621.644 421.154 620.803V620.563C421.154 619.723 421.034 619.003 420.793 618.643C420.553 618.282 420.071 618.042 419.469 618.042ZM418.747 616.242C419.71 616.242 420.553 616.602 421.154 617.442L421.395 616.362H423.321V624.525C423.321 625.725 422.96 626.565 422.238 627.165C421.515 627.766 420.553 628.126 419.229 628.126C418.627 628.126 418.145 628.126 417.664 628.006C417.183 627.886 416.701 627.766 416.22 627.646V625.845C417.183 626.205 418.266 626.445 419.469 626.445C420.673 626.445 421.154 625.845 421.154 624.645V624.525C421.154 624.404 421.154 624.164 421.154 624.044C421.154 623.804 421.154 623.684 421.154 623.564C420.914 624.044 420.553 624.284 420.191 624.525C419.83 624.765 419.349 624.765 418.868 624.765C417.905 624.765 417.183 624.404 416.581 623.684C415.979 622.964 415.738 621.884 415.738 620.563C415.738 619.243 415.979 618.162 416.581 617.442C417.062 616.602 417.784 616.242 418.747 616.242Z" fill="#4F4898"/>
<path d="M427.172 624.645H424.885V616.482H427.172V624.645ZM426.089 613.241C426.45 613.241 426.691 613.361 426.931 613.481C427.172 613.601 427.292 613.961 427.292 614.321C427.292 614.681 427.172 615.041 426.931 615.161C426.691 615.281 426.45 615.401 426.089 615.401C425.728 615.401 425.487 615.281 425.246 615.161C425.006 615.041 424.885 614.681 424.885 614.321C424.885 613.961 425.006 613.601 425.246 613.481C425.487 613.241 425.728 613.241 426.089 613.241Z" fill="#4F4898"/>
<path d="M433.551 616.242C434.394 616.242 435.116 616.482 435.718 616.962C436.199 617.442 436.56 618.162 436.56 619.243V624.525H434.273V619.723C434.273 619.123 434.153 618.643 433.912 618.402C433.671 618.162 433.31 617.922 432.949 617.922C432.227 617.922 431.746 618.162 431.505 618.643C431.264 619.123 431.144 619.723 431.144 620.683V624.525H428.857V616.362H430.542L430.903 617.442H431.024C431.264 617.082 431.625 616.722 432.107 616.482C432.468 616.362 432.949 616.242 433.551 616.242Z" fill="#4F4898"/>
<path d="M441.495 618.042C440.411 618.042 439.93 618.883 439.93 620.563C439.93 622.244 440.411 622.964 441.495 622.964C442.096 622.964 442.457 622.844 442.819 622.484C443.059 622.124 443.18 621.644 443.18 620.803V620.563C443.18 619.723 443.059 619.003 442.819 618.643C442.578 618.282 442.096 618.042 441.495 618.042ZM440.772 616.242C441.735 616.242 442.578 616.602 443.18 617.442L443.42 616.362H445.346V624.525C445.346 625.725 444.985 626.565 444.263 627.165C443.541 627.766 442.578 628.126 441.254 628.126C440.652 628.126 440.171 628.126 439.689 628.006C439.208 627.886 438.726 627.766 438.245 627.646V625.845C439.208 626.205 440.291 626.445 441.495 626.445C442.698 626.445 443.18 625.845 443.18 624.645V624.525C443.18 624.404 443.18 624.164 443.18 624.044C443.18 623.804 443.18 623.684 443.18 623.564C442.939 624.044 442.578 624.284 442.217 624.525C441.856 624.765 441.374 624.765 440.893 624.765C439.93 624.765 439.208 624.404 438.606 623.684C438.004 622.964 437.764 621.884 437.764 620.563C437.764 619.243 438.004 618.162 438.606 617.442C439.087 616.602 439.81 616.242 440.772 616.242Z" fill="#4F4898"/>
<path d="M385.408 636.409C386.01 636.409 386.491 636.169 386.732 635.809C386.973 635.449 387.093 634.848 387.093 634.128V633.888C387.093 633.048 386.973 632.447 386.732 632.087C386.491 631.607 386.01 631.487 385.408 631.487C384.927 631.487 384.566 631.727 384.205 632.087C383.964 632.568 383.844 633.168 383.844 633.888C383.844 634.728 383.964 635.328 384.205 635.689C384.566 636.289 384.927 636.409 385.408 636.409ZM384.686 638.209C383.723 638.209 383.001 637.849 382.399 637.129C381.797 636.409 381.557 635.328 381.557 634.008C381.557 632.568 381.797 631.607 382.399 630.887C383.001 630.167 383.723 629.807 384.686 629.807C385.288 629.807 385.769 629.927 386.13 630.167C386.491 630.407 386.852 630.647 386.973 631.007H387.093C387.093 630.887 386.973 630.647 386.973 630.287C386.973 629.927 386.973 629.687 386.973 629.326V626.686H389.26V638.089H387.575L387.093 637.009H386.973C386.732 637.369 386.491 637.609 386.13 637.849C385.769 638.089 385.288 638.209 384.686 638.209Z" fill="#4F4898"/>
<path d="M393.111 638.089H390.824V629.927H393.111V638.089ZM392.028 626.686C392.389 626.686 392.63 626.806 392.87 626.926C393.111 627.046 393.231 627.406 393.231 627.766C393.231 628.126 393.111 628.486 392.87 628.606C392.63 628.726 392.389 628.846 392.028 628.846C391.667 628.846 391.426 628.726 391.185 628.606C390.945 628.486 390.824 628.126 390.824 627.766C390.824 627.406 390.945 627.046 391.185 626.926C391.426 626.806 391.667 626.686 392.028 626.686Z" fill="#4F4898"/>
<path d="M399.37 634.248H398.527C397.805 634.248 397.324 634.368 397.083 634.608C396.842 634.848 396.601 635.208 396.601 635.569C396.601 635.929 396.722 636.169 396.963 636.289C397.203 636.409 397.444 636.529 397.685 636.529C398.166 636.529 398.527 636.409 398.888 636.049C399.249 635.809 399.37 635.328 399.37 634.848V634.248V634.248ZM398.166 629.687C399.249 629.687 400.092 629.927 400.694 630.407C401.295 630.887 401.536 631.607 401.536 632.567V637.969H399.971L399.61 637.009C399.249 637.489 398.888 637.729 398.527 637.969C398.166 638.209 397.564 638.209 396.963 638.209C396.24 638.209 395.639 637.969 395.157 637.609C394.676 637.249 394.435 636.529 394.435 635.689C394.435 634.848 394.796 634.128 395.398 633.768C396 633.408 396.963 633.168 398.166 633.048H399.61V632.688C399.61 632.207 399.49 631.967 399.249 631.727C399.009 631.487 398.768 631.487 398.286 631.487C397.925 631.487 397.444 631.487 397.083 631.607C396.722 631.727 396.361 631.847 396 632.087L395.278 630.527C395.759 630.287 396.24 630.167 396.722 630.047C397.083 629.807 397.564 629.687 398.166 629.687Z" fill="#4F4898"/>
<path d="M407.073 631.487C406.471 631.487 406.11 631.727 405.869 632.087C405.628 632.447 405.508 633.048 405.508 633.768V634.008C405.508 634.848 405.628 635.448 405.869 635.809C406.11 636.289 406.591 636.409 407.193 636.409C407.674 636.409 408.035 636.169 408.276 635.809C408.517 635.328 408.637 634.728 408.637 634.008C408.637 633.168 408.517 632.567 408.276 632.207C407.915 631.727 407.554 631.487 407.073 631.487ZM405.508 626.685V629.326C405.508 629.686 405.508 629.927 405.508 630.287C405.508 630.527 405.508 630.767 405.508 631.007H405.628C405.869 630.647 406.11 630.407 406.471 630.167C406.832 629.927 407.313 629.807 407.915 629.807C408.878 629.807 409.6 630.167 410.202 630.887C410.804 631.607 411.044 632.688 411.044 634.008C411.044 635.448 410.804 636.409 410.202 637.129C409.48 637.849 408.637 638.209 407.795 638.209C407.193 638.209 406.711 638.089 406.35 637.849C405.989 637.609 405.749 637.369 405.508 637.129H405.388L405.026 637.969H403.341V626.565H405.508V626.685Z" fill="#4F4898"/>
<path d="M415.618 631.367C415.136 631.367 414.775 631.487 414.535 631.727C414.294 631.967 414.053 632.448 414.053 633.048H417.182C417.182 632.568 417.062 632.207 416.821 631.847C416.581 631.487 416.099 631.367 415.618 631.367ZM415.618 629.807C416.701 629.807 417.664 630.167 418.266 630.767C418.867 631.367 419.229 632.327 419.229 633.528V634.608H413.933C413.933 635.208 414.174 635.689 414.535 636.049C414.896 636.409 415.377 636.529 415.979 636.529C416.46 636.529 416.942 636.529 417.423 636.409C417.905 636.289 418.266 636.169 418.747 635.929V637.609C418.386 637.849 417.905 637.969 417.423 638.089C417.062 638.209 416.581 638.209 415.979 638.209C415.136 638.209 414.414 638.089 413.812 637.729C413.211 637.369 412.729 637.009 412.368 636.409C412.007 635.809 411.887 634.968 411.887 634.008C411.887 633.048 412.007 632.207 412.368 631.607C412.729 631.007 413.09 630.527 413.692 630.167C414.174 629.927 414.896 629.807 415.618 629.807Z" fill="#4F4898"/>
<path d="M424.043 636.409C424.284 636.409 424.524 636.409 424.765 636.289C425.006 636.289 425.246 636.169 425.487 636.049V637.729C425.246 637.849 425.006 637.969 424.645 637.969C424.284 638.209 423.802 638.209 423.441 638.209C422.96 638.209 422.478 638.089 422.117 637.969C421.756 637.849 421.395 637.489 421.154 637.129C420.914 636.769 420.793 636.169 420.793 635.448V631.487H419.71V630.527L420.914 629.807L421.515 628.126H423.08V629.807H425.367V631.487H423.08V635.448C423.08 635.809 423.2 636.049 423.321 636.169C423.561 636.409 423.802 636.409 424.043 636.409Z" fill="#4F4898"/>
<path d="M429.94 631.367C429.459 631.367 429.098 631.487 428.857 631.727C428.616 631.967 428.376 632.448 428.376 633.048H431.505C431.505 632.568 431.385 632.207 431.144 631.847C430.783 631.487 430.422 631.367 429.94 631.367ZM429.94 629.807C431.024 629.807 431.986 630.167 432.588 630.767C433.19 631.367 433.551 632.327 433.551 633.528V634.608H428.255C428.255 635.208 428.496 635.689 428.857 636.049C429.218 636.409 429.7 636.529 430.301 636.529C430.783 636.529 431.264 636.529 431.746 636.409C432.227 636.289 432.588 636.169 433.07 635.929V637.609C432.709 637.849 432.227 637.969 431.746 638.089C431.385 638.209 430.903 638.209 430.181 638.209C429.339 638.209 428.616 638.089 428.015 637.729C427.413 637.369 426.931 637.009 426.57 636.409C426.209 635.809 426.089 634.968 426.089 634.008C426.089 633.048 426.209 632.207 426.57 631.607C426.931 631.007 427.292 630.527 427.894 630.167C428.496 629.927 429.098 629.807 429.94 629.807Z" fill="#4F4898"/>
<path d="M440.652 635.688C440.652 636.529 440.411 637.129 439.81 637.609C439.208 638.089 438.365 638.329 437.162 638.329C436.56 638.329 436.079 638.329 435.717 638.209C435.356 638.089 434.875 637.969 434.514 637.849V636.048C434.995 636.288 435.477 636.409 435.958 636.529C436.44 636.649 436.921 636.769 437.282 636.769C437.764 636.769 438.004 636.649 438.245 636.529C438.486 636.409 438.486 636.288 438.486 636.048C438.486 635.928 438.486 635.808 438.365 635.688C438.245 635.568 438.125 635.448 437.884 635.328C437.643 635.208 437.282 634.968 436.68 634.848C436.199 634.608 435.717 634.368 435.356 634.248C434.995 634.008 434.755 633.768 434.634 633.528C434.514 633.167 434.394 632.807 434.394 632.327C434.394 631.607 434.634 631.007 435.236 630.647C435.838 630.286 436.56 630.046 437.643 630.046C438.125 630.046 438.606 630.046 439.087 630.166C439.569 630.286 440.05 630.407 440.532 630.647L439.93 631.967C439.569 631.847 439.208 631.607 438.847 631.487C438.486 631.367 438.125 631.367 437.764 631.367C437.162 631.367 436.801 631.487 436.801 631.847C436.801 631.967 436.801 632.087 436.921 632.207C437.041 632.327 437.162 632.447 437.402 632.567C437.643 632.687 438.004 632.807 438.486 633.047C438.967 633.287 439.328 633.408 439.689 633.648C440.05 633.888 440.291 634.128 440.532 634.368C440.532 634.728 440.652 635.208 440.652 635.688Z" fill="#4F4898"/>
<path d="M563.176 602.558L561.25 607.959L559.445 602.558H554.751V613.481H558V607.119L560.408 613.481H561.611L564.139 607.119V613.481H567.749V602.558H563.176Z" fill="#4F4898"/>
<path d="M569.194 608.2V608.079C569.194 604.718 571.841 602.558 575.211 602.558C578.702 602.558 581.229 604.598 581.229 608.079V608.2C581.229 611.561 578.822 613.841 575.211 613.841C571.36 613.721 569.194 611.441 569.194 608.2ZM577.498 608.079V607.959C577.498 606.159 576.535 605.078 575.211 605.078C573.888 605.078 572.925 606.039 572.925 607.959V608.079C572.925 610 573.767 610.96 575.211 610.96C576.535 610.96 577.498 610 577.498 608.079Z" fill="#4F4898"/>
<path d="M581.711 610H585.081C585.201 610.72 585.442 611.2 586.645 611.2C587.488 611.2 587.849 610.84 587.849 610.24C587.849 609.64 587.488 609.52 586.284 609.28C583.035 608.92 581.951 607.959 581.951 605.799C581.951 603.758 583.636 602.317 586.405 602.317C589.173 602.317 590.737 603.398 590.858 605.799H587.608C587.488 605.078 587.127 604.718 586.405 604.718C585.682 604.718 585.321 605.078 585.321 605.558C585.321 606.039 585.682 606.279 586.886 606.519C589.654 606.759 591.219 607.479 591.219 610C591.219 612.041 589.654 613.721 586.645 613.721C583.396 613.721 581.711 612.521 581.711 610Z" fill="#4F4898"/>
<path d="M592.061 608.2V608.079C592.061 604.718 594.589 602.558 597.839 602.558C600.847 602.558 602.894 603.878 603.134 606.879H599.524C599.403 605.919 598.922 605.319 597.839 605.319C596.515 605.319 595.792 606.279 595.792 608.2V608.32C595.792 610.12 596.515 611.201 597.959 611.201C598.922 611.201 599.644 610.72 599.764 609.64H603.255C603.014 612.521 600.968 614.082 597.959 614.082C593.987 613.721 592.061 611.441 592.061 608.2Z" fill="#4F4898"/>
<path d="M603.977 608.2V608.079C603.977 604.718 606.625 602.558 609.995 602.558C613.485 602.558 616.013 604.598 616.013 608.079V608.2C616.013 611.561 613.605 613.841 609.995 613.841C606.143 613.721 603.977 611.441 603.977 608.2ZM612.161 608.079V607.959C612.161 606.159 611.198 605.078 609.874 605.078C608.55 605.078 607.588 606.039 607.588 607.959V608.079C607.588 610 608.43 610.96 609.874 610.96C611.319 610.96 612.161 610 612.161 608.079Z" fill="#4F4898"/>
<path d="M628.289 602.558L626.845 609.16L625.4 602.558H622.271L620.947 609.16L619.623 602.558H616.133L618.66 613.481H622.151L623.836 606.999L625.4 613.481H628.891L631.539 602.558H628.289Z" fill="#4F4898"/>
<path d="M554.751 621.524V615.042H558.241V621.404C558.241 622.845 558.602 623.565 559.806 623.565C561.009 623.565 561.37 622.845 561.37 621.404V615.162H564.981V621.524C564.981 624.765 562.935 626.206 559.806 626.206C556.556 626.206 554.751 624.645 554.751 621.524Z" fill="#4F4898"/>
<path d="M566.546 615.162H571.119C574.248 615.162 575.813 616.363 575.813 618.763V618.883C575.813 620.444 575.091 621.284 573.887 621.764L576.415 626.206H572.684L570.638 622.485H570.036V626.206H566.546V615.162V615.162ZM570.879 620.084C571.841 620.084 572.323 619.724 572.323 618.883V618.763C572.323 617.923 571.841 617.683 570.879 617.683H570.036V620.084H570.879Z" fill="#4F4898"/>
<path d="M578.1 615.162H583.396C586.164 615.162 587.247 616.363 587.247 618.043V618.163C587.247 619.484 586.525 620.204 585.321 620.564C586.645 620.804 587.608 621.644 587.608 623.085V623.205C587.608 625.125 586.284 626.206 583.516 626.206H578.22V615.162H578.1ZM582.553 619.364C583.396 619.364 583.757 619.123 583.757 618.403V618.283C583.757 617.683 583.396 617.323 582.553 617.323H581.47V619.364H582.553V619.364ZM582.674 623.805C583.636 623.805 583.997 623.445 583.997 622.605C583.997 621.884 583.636 621.524 582.553 621.524H581.47V623.805H582.674Z" fill="#4F4898"/>
<path d="M592.543 615.162H597.116L600.607 626.085H596.876L596.394 624.285H592.784L592.302 626.085H589.052L592.543 615.162ZM593.506 621.884H595.672L594.589 617.923L593.506 621.884Z" fill="#4F4898"/>
<path d="M602.292 615.162H606.264L609.393 620.924V615.162H612.522V626.085H609.152L605.421 619.483V626.085H602.292V615.162Z" fill="#4F4898"/>
<path d="M554.751 627.646V638.57H558.361V634.848H561.731V632.328H558.361V630.287H562.574V627.646H554.751Z" fill="#4F4898"/>
<path d="M563.176 633.168V633.048C563.176 629.687 565.824 627.526 569.194 627.526C572.684 627.526 575.211 629.567 575.211 633.048V633.168C575.211 636.529 572.804 638.81 569.194 638.81C565.462 638.81 563.176 636.529 563.176 633.168ZM571.48 633.168V633.048C571.48 631.247 570.517 630.167 569.194 630.167C567.87 630.167 566.907 631.127 566.907 633.048V633.168C566.907 635.088 567.749 636.049 569.194 636.049C570.517 636.049 571.48 634.968 571.48 633.168Z" fill="#4F4898"/>
<path d="M576.535 627.646H581.109C584.238 627.646 585.803 628.846 585.803 631.247C585.803 632.808 585.081 633.648 583.877 634.128L586.405 638.57H582.674L580.628 634.848H580.026V638.57H576.535V627.646V627.646ZM580.989 632.568C581.951 632.568 582.433 632.208 582.433 631.367V631.247C582.433 630.407 581.951 630.167 580.989 630.167H580.146V632.568H580.989Z" fill="#4F4898"/>
<path d="M587.367 634.008V627.526H590.858V633.768C590.858 635.208 591.219 635.929 592.422 635.929C593.626 635.929 593.987 635.208 593.987 633.768V627.526H597.598V633.888C597.598 637.129 595.552 638.57 592.422 638.57C589.173 638.81 587.367 637.129 587.367 634.008Z" fill="#4F4898"/>
<path d="M607.949 627.646L606.023 632.928L604.097 627.646H599.524V638.57H602.653V632.088L605.18 638.57H606.384L608.911 632.088V638.57H612.402V627.646H607.949Z" fill="#4F4898"/>
<path d="M497.701 638.21V634.128C497.701 633.408 497.701 632.208 495.294 632.208C494.331 632.208 493.73 632.328 493.489 632.448C493.128 632.568 493.008 632.688 493.008 632.928V638.21C493.008 638.45 493.008 638.45 493.248 638.45H493.85C493.97 638.45 494.091 638.45 494.091 638.21V633.408C494.091 633.168 494.572 632.808 495.415 632.808C496.859 632.808 496.859 633.648 496.859 634.248V638.21C496.859 638.45 496.979 638.45 497.1 638.45H497.701C497.701 638.33 497.701 638.21 497.701 638.21Z" fill="#4F4898"/>
<path d="M503.96 635.328C503.96 633.888 503.479 633.048 502.877 632.568C502.395 632.327 501.914 632.087 501.312 632.087C500.71 632.087 500.229 632.207 499.748 632.568C499.025 633.048 498.664 633.888 498.664 635.328C498.664 636.769 499.146 637.609 499.748 638.089C500.229 638.33 500.71 638.57 501.312 638.57C501.914 638.57 502.395 638.45 502.877 638.089C503.599 637.729 503.96 636.769 503.96 635.328ZM502.877 635.328C502.877 636.409 502.636 637.129 502.275 637.489C501.914 637.849 501.673 637.849 501.192 637.849C500.831 637.849 500.47 637.729 500.109 637.489C499.748 637.129 499.507 636.409 499.507 635.328C499.507 634.248 499.748 633.528 500.109 633.168C500.47 632.808 500.71 632.808 501.192 632.808C501.553 632.808 501.914 632.928 502.275 633.168C502.636 633.528 502.877 634.248 502.877 635.328Z" fill="#4F4898"/>
<path d="M508.293 632.808C508.293 632.328 507.571 632.208 506.728 632.208C506.126 632.208 505.645 632.328 505.404 632.448C505.043 632.568 504.802 632.688 504.802 632.928V638.21C504.802 638.45 504.923 638.45 505.043 638.45H505.645C505.765 638.45 505.886 638.45 505.886 638.21V633.288C505.886 632.928 506.126 632.808 506.488 632.808C507.21 632.808 507.33 633.408 507.811 633.408C508.052 633.288 508.293 633.048 508.293 632.808Z" fill="#4F4898"/>
<path d="M513.468 637.729V630.287C513.468 630.047 513.468 630.047 513.228 630.047H512.626C512.385 630.047 512.385 630.167 512.385 630.287V632.448C512.024 632.208 511.663 632.088 511.061 632.088C509.256 632.088 508.293 633.768 508.293 635.329C508.293 637.489 509.497 638.57 511.302 638.57C512.265 638.57 513.468 638.09 513.468 637.729ZM512.385 637.369C512.385 637.729 511.904 637.85 511.302 637.85C510.098 637.85 509.376 636.889 509.376 635.209C509.376 633.768 510.219 632.808 511.302 632.808C511.904 632.808 512.265 633.048 512.385 633.168V637.369Z" fill="#4F4898"/>
<path d="M515.996 630.647C515.996 630.287 515.755 630.047 515.394 630.047C515.033 630.047 514.792 630.287 514.792 630.647C514.792 631.007 515.033 631.247 515.394 631.247C515.755 631.247 516.116 630.887 515.996 630.647ZM515.875 638.21V632.568C515.875 632.328 515.875 632.328 515.635 632.328H515.033C514.792 632.328 514.792 632.448 514.792 632.568V638.21C514.792 638.33 514.792 638.45 514.913 638.45H515.514C515.875 638.45 515.875 638.33 515.875 638.21Z" fill="#4F4898"/>
<path d="M526.467 638.21C526.467 638.21 526.467 638.09 526.347 638.09L524.06 635.089C524.902 634.488 525.624 633.648 526.226 632.568C526.226 632.448 526.347 632.448 526.347 632.328C526.347 632.208 526.347 632.208 526.106 632.208H525.504C525.263 632.208 525.143 632.208 525.143 632.328C524.782 633.288 523.939 634.368 523.097 634.969C523.097 634.969 523.097 634.969 523.097 635.089L525.263 638.09C525.384 638.21 525.384 638.21 525.624 638.21H526.467C526.347 638.45 526.467 638.33 526.467 638.21ZM522.856 638.21V630.167C522.856 630.047 522.736 630.047 522.615 630.047H522.014C521.893 630.047 521.773 630.047 521.773 630.287V638.21C521.773 638.33 521.773 638.45 522.014 638.45H522.615C522.736 638.45 522.856 638.45 522.856 638.21Z" fill="#4F4898"/>
<path d="M520.93 636.769C520.93 634.728 518.042 635.088 518.042 633.768C518.042 633.288 518.403 632.808 519.005 632.808C519.727 632.808 519.847 633.288 520.208 633.288C520.329 633.288 520.69 633.168 520.69 632.928C520.69 632.448 519.968 632.208 519.125 632.208C518.042 632.208 517.079 632.808 517.079 633.888C517.079 634.848 517.801 635.329 518.644 635.689C519.366 635.929 519.968 636.289 519.968 636.889C519.968 637.369 519.606 637.969 518.764 637.969C517.921 637.969 517.681 637.369 517.32 637.369C517.079 637.369 516.838 637.489 516.838 637.729C516.838 638.21 517.801 638.57 518.764 638.57C519.847 638.57 520.93 637.969 520.93 636.769Z" fill="#4F4898"/>
<path d="M472.306 638.21V634.128C472.306 633.408 472.306 632.208 469.899 632.208C468.936 632.208 468.334 632.328 468.094 632.448C467.733 632.568 467.612 632.688 467.612 632.928V638.21C467.612 638.45 467.612 638.45 467.853 638.45H468.455C468.575 638.45 468.695 638.45 468.695 638.21V633.408C468.695 633.168 469.177 632.808 470.019 632.808C471.464 632.808 471.464 633.648 471.464 634.248V638.21C471.464 638.45 471.584 638.45 471.704 638.45H472.306C472.306 638.33 472.306 638.21 472.306 638.21Z" fill="#4F4898"/>
<path d="M478.565 635.328C478.565 633.888 478.083 633.048 477.481 632.568C477 632.327 476.519 632.087 475.917 632.087C475.315 632.087 474.834 632.207 474.352 632.568C473.63 633.048 473.269 633.888 473.269 635.328C473.269 636.769 473.75 637.609 474.352 638.089C474.834 638.33 475.315 638.57 475.917 638.57C476.519 638.57 477 638.45 477.481 638.089C478.083 637.729 478.565 636.769 478.565 635.328ZM477.481 635.328C477.481 636.409 477.241 637.129 476.88 637.489C476.519 637.849 476.278 637.849 475.796 637.849C475.435 637.849 475.074 637.729 474.713 637.489C474.352 637.129 474.111 636.409 474.111 635.328C474.111 634.248 474.352 633.528 474.713 633.168C475.074 632.808 475.315 632.808 475.796 632.808C476.157 632.808 476.519 632.928 476.88 633.168C477.241 633.528 477.481 634.248 477.481 635.328Z" fill="#4F4898"/>
<path d="M489.397 635.328C489.397 633.888 488.915 633.048 488.314 632.568C487.832 632.327 487.351 632.087 486.749 632.087C486.147 632.087 485.666 632.207 485.184 632.568C484.462 633.048 484.101 633.888 484.101 635.328C484.101 636.769 484.583 637.609 485.184 638.089C485.666 638.33 486.147 638.57 486.749 638.57C487.351 638.57 487.832 638.45 488.314 638.089C489.036 637.729 489.397 636.769 489.397 635.328ZM488.314 635.328C488.314 636.409 488.073 637.129 487.712 637.489C487.351 637.849 487.11 637.849 486.629 637.849C486.268 637.849 485.906 637.729 485.545 637.489C485.184 637.129 484.944 636.409 484.944 635.328C484.944 634.248 485.184 633.528 485.545 633.168C485.906 632.808 486.147 632.808 486.629 632.808C486.99 632.808 487.351 632.928 487.712 633.168C488.073 633.528 488.314 634.248 488.314 635.328Z" fill="#4F4898"/>
<path d="M483.981 632.448C483.981 632.328 483.86 632.328 483.86 632.328H483.259C483.138 632.328 483.138 632.328 483.138 632.448L481.574 636.889L480.009 632.448C480.009 632.328 479.889 632.208 479.768 632.208H479.046C479.046 632.208 478.926 632.208 478.926 632.328V632.448L481.092 638.09C481.092 638.21 481.213 638.21 481.213 638.33H481.694C481.814 638.33 481.814 638.33 481.935 638.21L483.981 632.568C483.981 632.448 483.981 632.448 483.981 632.448Z" fill="#4F4898"/>
<path d="M527.43 628.246H527.791C528.031 628.246 528.272 628.246 528.272 628.607C528.272 628.967 527.911 628.967 527.791 628.967H527.43V628.246ZM527.069 630.047H527.43V629.207H527.67C527.911 629.207 528.031 629.327 528.272 629.807L528.513 630.167H528.874L528.633 629.807C528.393 629.447 528.272 629.327 528.152 629.327C528.633 629.327 528.754 628.967 528.754 628.727C528.754 628.607 528.633 628.366 528.513 628.366C528.393 628.246 528.031 628.246 527.791 628.246H527.069V630.047V630.047ZM527.911 627.166C526.828 627.166 525.985 628.006 525.985 629.087C525.985 630.167 526.828 631.007 527.911 631.007C528.994 631.007 529.837 630.167 529.837 629.087C529.716 628.006 528.874 627.166 527.911 627.166ZM527.911 627.406C528.754 627.406 529.476 628.126 529.476 628.967C529.476 629.807 528.754 630.527 527.911 630.527C527.069 630.527 526.346 629.807 526.346 628.967C526.226 628.126 526.948 627.406 527.911 627.406Z" fill="#4F4898"/>
<path d="M482.898 608.44C483.379 609.16 484.342 607.96 484.342 607.719C484.222 607.599 482.416 607.84 482.898 608.44Z" fill="#4F4898"/>
<path d="M486.749 603.998C489.276 603.998 491.443 601.957 491.443 599.316C491.443 596.795 489.397 594.635 486.749 594.635C484.221 594.635 482.055 596.675 482.055 599.316C482.055 601.957 484.221 603.998 486.749 603.998ZM486.869 595.835C488.554 595.835 489.999 597.156 489.999 598.956C489.999 600.637 488.554 602.077 486.869 602.077C485.184 602.077 483.74 600.757 483.74 598.956C483.74 597.156 485.184 595.835 486.869 595.835Z" fill="#4F4898"/>
<path d="M510.219 612.281C509.617 609.4 507.089 609.28 505.645 609.4C504.201 609.52 501.553 609.88 498.785 609.88C495.054 609.88 490.961 608.8 487.712 607.359C487.11 607.119 487.471 606.999 487.712 606.879C488.915 606.279 489.999 605.679 490.6 604.598C491.082 603.758 490.841 603.518 490.36 603.998C488.915 605.198 486.869 605.799 484.583 605.078C482.296 604.238 481.333 602.077 481.213 601.477C480.972 600.877 480.731 600.877 480.731 601.717C480.731 603.758 481.694 604.958 481.935 605.318C482.296 605.679 482.416 606.039 482.175 606.279C481.694 606.879 481.213 607.359 481.213 607.599C481.213 607.839 481.213 607.959 481.092 608.319C480.972 608.56 480.611 609.04 480.009 609.76C479.648 610.12 479.889 610.6 480.129 610.84C480.49 611.2 480.611 611.561 481.092 611.801C481.453 612.041 481.814 611.801 482.296 611.921C482.777 612.041 483.379 612.281 483.74 613.121C484.342 614.321 485.064 616.122 486.388 617.563C486.99 618.283 486.99 619.483 486.99 619.843C486.99 623.325 485.184 626.686 483.981 628.846C483.74 629.327 483.74 629.807 484.101 629.807C484.583 629.807 486.147 629.807 486.388 629.807C486.749 629.807 486.869 629.447 486.869 629.207C487.11 626.326 488.675 621.044 489.999 620.083C492.045 621.404 494.211 624.165 493.128 628.966C493.128 629.207 492.887 629.807 493.489 629.807C493.489 629.807 495.294 629.807 495.535 629.807C495.776 629.807 496.257 629.687 496.137 629.207C496.016 627.286 494.452 623.325 493.97 620.924C493.73 619.483 494.933 616.842 499.386 618.763C501.071 617.202 503.358 618.163 502.395 621.164C501.433 624.045 500.59 625.365 497.34 628.846C496.979 629.207 496.979 629.687 497.581 629.687C497.822 629.687 499.386 629.687 499.627 629.687C500.109 629.687 500.229 629.567 500.349 629.207C500.47 628.846 502.034 624.165 504.923 621.884C505.164 621.764 505.404 620.924 505.765 619.243C507.21 621.044 507.33 624.525 504.923 628.846C504.682 629.327 504.803 629.687 505.164 629.687C505.284 629.687 506.608 629.687 507.089 629.687C507.45 629.687 507.571 629.447 507.691 628.966C507.811 628.366 507.932 628.006 508.173 627.406C508.293 627.046 508.413 626.926 509.858 626.926C510.339 626.926 510.339 626.686 510.339 626.326C510.7 620.444 510.7 614.321 510.219 612.281ZM504.923 610.24C505.404 611.08 505.404 611.681 505.284 612.161C505.164 612.641 504.562 612.881 504.321 612.761C504.321 611.801 504.08 611.08 503.599 610.36C504.08 610.36 504.441 610.36 504.923 610.24ZM500.951 610.72C501.192 611.801 501.192 613.121 500.831 613.601C500.229 614.201 497.34 614.081 496.498 613.961C496.257 613.961 496.016 613.841 495.896 613.361C495.776 612.641 495.776 611.441 495.655 610.6C497.461 610.84 499.266 610.84 500.951 610.72ZM490.721 612.761C490.961 612.041 491.202 610.72 491.323 609.64C491.924 609.76 492.406 610 493.008 610.12C492.646 612.521 491.804 613.241 491.443 613.361C491.202 613.481 490.48 613.601 490.721 612.761ZM485.545 614.081C485.064 613.481 484.462 611.921 483.86 611.441C482.777 610.6 481.935 611.2 481.453 610.72C480.972 610.24 480.851 610.12 481.213 609.64C481.213 609.64 481.694 609.04 481.935 608.8C482.175 608.56 482.055 608.079 482.175 607.839C482.296 607.599 482.777 606.999 483.259 606.519C483.74 606.039 484.221 606.279 485.906 607.239C487.953 608.439 488.554 608.199 487.832 609.28C487.351 610 485.906 611.801 485.545 614.081ZM507.691 613.361C507.571 615.162 507.21 617.683 506.608 618.043C506.006 618.403 505.043 616.602 499.868 616.602C496.257 616.482 493.489 616.962 493.008 620.324C493.008 620.564 492.887 620.564 492.767 620.444C491.804 619.363 490.841 618.883 489.397 618.043C487.953 617.202 486.99 616.002 486.749 614.922C486.508 613.841 486.99 612.281 489.036 609.52C489.276 609.16 489.397 609.16 490.48 609.64C490.36 611.441 489.878 612.521 489.758 613.481C489.517 614.442 490.6 614.682 491.563 614.442C492.526 614.201 493.489 613.241 493.85 610.48C494.211 610.6 494.572 610.6 494.933 610.72C494.933 613.481 495.174 614.081 495.294 614.442C495.535 614.922 496.016 615.162 496.498 615.162C498.664 615.282 500.831 615.282 501.553 614.562C502.275 613.841 502.034 612.041 501.794 611.08C502.155 611.08 502.395 610.96 502.756 610.96C503.479 611.801 503.599 612.641 503.599 613.241C503.599 613.841 504.321 614.201 505.284 613.481C506.247 612.761 506.126 611.561 505.645 610.48C507.932 610 507.811 611.441 507.691 613.361ZM509.376 622.124C509.376 622.364 509.135 622.604 509.015 622.004C508.895 621.284 508.534 619.723 508.413 619.003C508.293 618.403 508.654 616.482 508.774 614.802C508.774 614.682 508.895 614.682 509.015 614.802C509.737 615.642 509.496 621.044 509.376 622.124Z" fill="#4F4898"/>
</svg>
