<svg width="66" height="66" viewBox="0 0 66 66" fill="none" xmlns="http://www.w3.org/2000/svg">
<g clip-path="url(#clip0)">
<path d="M28.2711 39.0554C27.6928 39.0554 27.2505 38.6131 27.2505 38.0348V35.9935C27.2505 35.4152 27.6928 34.9729 28.2711 34.9729C28.8495 34.9729 29.2917 35.4152 29.2917 35.9935V38.0348C29.2917 38.6131 28.7814 39.0554 28.2711 39.0554Z" fill="#6CC9AA"/>
<path d="M32.2516 39.0555C31.6732 39.0555 31.231 38.6132 31.231 38.0348V33.374C31.231 32.7957 31.6732 32.3534 32.2516 32.3534C32.8299 32.3534 33.2722 32.7957 33.2722 33.374V38.0348C33.2722 38.6132 32.8299 39.0555 32.2516 39.0555Z" fill="#6CC9AA"/>
<path d="M36.1979 39.0556C35.6195 39.0556 35.1772 38.6134 35.1772 38.035V26.7062C35.1772 26.1278 35.6195 25.6855 36.1979 25.6855C36.7762 25.6855 37.2185 26.1278 37.2185 26.7062V38.035C37.2185 38.6134 36.7762 39.0556 36.1979 39.0556Z" fill="#6CC9AA"/>
<path d="M24.2565 46.37C23.6781 46.37 23.2358 45.9278 23.2358 45.3494V39.1236C23.2358 38.5453 23.6781 38.103 24.2565 38.103C24.8348 38.103 25.2771 38.5453 25.2771 39.1236V45.3154C25.2771 45.9278 24.8348 46.37 24.2565 46.37Z" fill="#6CC9AA"/>
<path d="M40.2462 39.0554C39.6679 39.0554 39.2256 38.6131 39.2256 38.0347V27.1141C39.2256 26.5358 39.6679 26.0935 40.2462 26.0935C40.8246 26.0935 41.2668 26.5358 41.2668 27.1141V38.0347C41.2668 38.6131 40.8246 39.0554 40.2462 39.0554Z" fill="#6CC9AA"/>
<path d="M44.1925 46.3701C43.6141 46.3701 43.1719 45.9278 43.1719 45.3495V34.701C43.1719 34.1227 43.6141 33.6804 44.1925 33.6804C44.7708 33.6804 45.2131 34.1227 45.2131 34.701V45.3155C45.2811 45.9278 44.7708 46.3701 44.1925 46.3701Z" fill="#6CC9AA"/>
<path d="M40.0421 53.4464C39.6679 53.4464 39.2596 53.2423 39.1576 52.8681C38.8854 52.3578 39.0895 51.7114 39.5998 51.4732C41.7772 50.3846 43.172 47.9691 43.172 45.3835C43.172 44.8052 43.6143 44.3629 44.1926 44.3629C44.771 44.3629 45.2132 44.8052 45.2132 45.3835C45.2132 48.7176 43.3421 51.8475 40.4844 53.3103C40.3483 53.3784 40.2462 53.4464 40.0421 53.4464Z" fill="#6CC9AA"/>
<path d="M28.4753 53.5143C28.3392 53.5143 28.1691 53.4462 28.0331 53.3782C25.1413 51.9153 23.3042 48.8535 23.3042 45.4514C23.3042 44.8731 23.7465 44.4308 24.3248 44.4308C24.9032 44.4308 25.3454 44.8731 25.3454 45.4514C25.3454 48.003 26.7403 50.4524 28.9176 51.5411C29.4279 51.8133 29.632 52.4256 29.3599 52.9359C29.1557 53.3442 28.8496 53.5143 28.4753 53.5143Z" fill="#6CC9AA"/>
<path d="M28.2712 40.0762C27.6929 40.0762 27.2506 39.6339 27.2506 39.0556C27.2506 38.5453 26.8083 38.103 26.298 38.103C25.7877 38.103 25.3454 38.5453 25.3454 39.0556C25.3454 39.6339 24.9032 40.0762 24.3248 40.0762C23.7465 40.0762 23.3042 39.6339 23.3042 39.0556C23.3042 37.3886 24.631 36.0618 26.298 36.0618C27.965 36.0618 29.2918 37.3886 29.2918 39.0556C29.2918 39.6339 28.7815 40.0762 28.2712 40.0762Z" fill="#6CC9AA"/>
<path d="M32.2514 36.3001C31.673 36.3001 31.2307 35.8578 31.2307 35.2795C31.2307 34.7691 30.7885 34.3269 30.2782 34.3269C29.7679 34.3269 29.3256 34.7691 29.3256 35.2795C29.3256 35.8578 28.8833 36.3001 28.305 36.3001C27.7266 36.3001 27.2163 35.8578 27.2163 35.2795C27.2163 33.6124 28.5431 32.2856 30.2101 32.2856C31.8771 32.2856 33.2039 33.6124 33.2039 35.2795C33.272 35.8578 32.8297 36.3001 32.2514 36.3001Z" fill="#6CC9AA"/>
<path d="M40.2463 27.7605C39.6679 27.7605 39.2257 27.3183 39.2257 26.7399C39.2257 26.2296 38.7834 25.7873 38.2731 25.7873C37.7628 25.7873 37.3205 26.2296 37.3205 26.7399C37.3205 27.3183 36.8783 27.7605 36.2999 27.7605C35.7216 27.7605 35.2793 27.3183 35.2793 26.7399C35.2793 25.0729 36.6061 23.7461 38.2731 23.7461C39.9401 23.7461 41.2669 25.0729 41.2669 26.7399C41.2669 27.2502 40.8246 27.7605 40.2463 27.7605Z" fill="#6CC9AA"/>
<path d="M44.1926 35.4151C43.6142 35.4151 43.172 34.9728 43.172 34.3945C43.172 33.8841 42.7297 33.4419 42.2194 33.4419C41.7091 33.4419 41.2668 33.8841 41.2668 34.3945C41.2668 34.9728 40.8246 35.4151 40.2462 35.4151C39.6679 35.4151 39.2256 34.9728 39.2256 34.3945C39.2256 32.7274 40.5524 31.4006 42.2194 31.4006C43.8864 31.4006 45.2132 32.7274 45.2132 34.3945C45.2812 34.9728 44.7709 35.4151 44.1926 35.4151Z" fill="#6CC9AA"/>
<path d="M36.1301 34.4628C35.5517 34.4628 35.1095 34.0205 35.1095 33.4422C35.1095 32.9319 34.6672 32.4896 34.1569 32.4896C33.6466 32.4896 33.2043 32.9319 33.2043 33.4422C33.2043 34.0205 32.7621 34.4628 32.1837 34.4628C31.6054 34.4628 31.1631 34.0205 31.1631 33.4422C31.1631 31.7752 32.4899 30.4484 34.1569 30.4484C35.8239 30.4484 37.1507 31.7752 37.1507 33.4422C37.2188 33.9525 36.7084 34.4628 36.1301 34.4628Z" fill="#6CC9AA"/>
<path d="M38.2391 20.0041C37.3546 20.0041 36.6401 19.2897 36.6401 18.4051C36.6401 17.5206 37.3546 16.8062 38.2391 16.8062C39.1236 16.8062 39.8381 17.5206 39.8381 18.4051C39.9061 19.2897 39.1577 20.0041 38.2391 20.0041Z" fill="#6CC9AA"/>
<path d="M18.6092 15.0029C17.7247 15.0029 17.0103 14.2884 17.0103 13.4039C17.0103 12.5194 17.7247 11.8049 18.6092 11.8049C19.4938 11.8049 20.2082 12.5194 20.2082 13.4039C20.2762 14.2544 19.5278 15.0029 18.6092 15.0029Z" fill="#6CC9AA"/>
<path d="M18.6092 20.31C17.7247 20.31 17.0103 19.5956 17.0103 18.711C17.0103 17.8265 17.7247 17.1121 18.6092 17.1121C19.4938 17.1121 20.2082 17.8265 20.2082 18.711C20.2762 19.6296 19.5278 20.31 18.6092 20.31Z" fill="#6CC9AA"/>
<path d="M43.308 19.7997C42.4234 19.7997 41.709 19.0853 41.709 18.2008C41.709 17.3162 42.4234 16.6018 43.308 16.6018C44.1925 16.6018 44.9069 17.3162 44.9069 18.2008C44.9069 19.0853 44.1925 19.7997 43.308 19.7997Z" fill="#6CC9AA"/>
<path d="M23.6102 14.8327C22.7257 14.8327 22.0112 14.1183 22.0112 13.2337C22.0112 12.3492 22.7257 11.6348 23.6102 11.6348C24.4947 11.6348 25.2092 12.3492 25.2092 13.2337C25.2772 14.1183 24.4947 14.8327 23.6102 14.8327Z" fill="#6CC9AA"/>
<path d="M23.6102 20.2082C22.7257 20.2082 22.0112 19.4938 22.0112 18.6092C22.0112 17.7247 22.7257 17.0103 23.6102 17.0103C24.4947 17.0103 25.2092 17.7247 25.2092 18.6092C25.2092 19.4938 24.4947 20.2082 23.6102 20.2082Z" fill="#6CC9AA"/>
<path d="M48.5472 19.7997C47.6627 19.7997 46.9482 19.0853 46.9482 18.2008C46.9482 17.3162 47.6627 16.6018 48.5472 16.6018C49.4317 16.6018 50.1462 17.3162 50.1462 18.2008C50.1462 19.0853 49.4317 19.7997 48.5472 19.7997Z" fill="#6CC9AA"/>
<path d="M28.9173 14.8327C28.0328 14.8327 27.3184 14.1183 27.3184 13.2337C27.3184 12.3492 28.0328 11.6348 28.9173 11.6348C29.8019 11.6348 30.5163 12.3492 30.5163 13.2337C30.5163 14.1183 29.8019 14.8327 28.9173 14.8327Z" fill="#6CC9AA"/>
<path d="M28.9173 20.2082C28.0328 20.2082 27.3184 19.4938 27.3184 18.6092C27.3184 17.7247 28.0328 17.0103 28.9173 17.0103C29.8019 17.0103 30.5163 17.7247 30.5163 18.6092C30.5163 19.4938 29.8019 20.2082 28.9173 20.2082Z" fill="#6CC9AA"/>
<path d="M38.2391 14.6287C37.3546 14.6287 36.6401 13.9143 36.6401 13.0298C36.6401 12.1452 37.3546 11.4308 38.2391 11.4308C39.1236 11.4308 39.8381 12.1452 39.8381 13.0298C39.9061 13.9143 39.1577 14.6287 38.2391 14.6287Z" fill="#6CC9AA"/>
</g>
<defs>
<clipPath id="clip0">
<rect width="66" height="66" fill="white"/>
</clipPath>
</defs>
</svg>
