<svg width="66" height="59" viewBox="0 0 66 59" fill="none" xmlns="http://www.w3.org/2000/svg">
<path d="M22.6235 12.9067C21.1946 12.9067 19.7658 13.1448 18.575 13.6551C15.275 15.084 12.6214 18.1458 11.2946 21.4799C10.308 23.9293 10.308 26.9231 11.2946 29.3726C12.9957 33.5912 17.0101 38.7623 21.1266 43.4232C25.2431 48.084 29.4276 52.0984 31.3668 53.9695C32.2854 54.8541 33.7482 54.8541 34.6668 53.9695C36.606 52.1324 40.7905 48.084 44.907 43.4232C49.0235 38.7623 53.0379 33.5912 54.739 29.3726C55.7256 26.9231 55.7256 23.9293 54.739 21.4799C53.4122 18.1458 50.7586 15.084 47.4586 13.6551C45.0431 12.6005 41.7091 12.6005 39.2936 13.6551C37.4905 14.4376 35.8235 16.2747 34.5307 17.9077C33.6462 19.0304 33.374 19.4726 33.0338 20.017C32.6596 19.4726 32.4214 19.0304 31.5369 17.9077C30.2441 16.2747 28.5771 14.4036 26.774 13.6551C25.5153 13.1108 24.0524 12.9067 22.6235 12.9067ZM22.6235 14.5056C23.8823 14.5056 25.141 14.7438 26.0936 15.152C27.3183 15.6964 29.0194 17.3634 30.2441 18.9283C31.4689 20.4933 32.2854 21.8881 32.2854 21.8881C32.4895 22.2623 32.9998 22.4324 33.374 22.1943C33.5101 22.1262 33.6122 22.0242 33.6802 21.8881C33.6802 21.8881 34.4967 20.4933 35.7214 18.9283C36.9462 17.3634 38.6472 15.6964 39.872 15.152C41.7771 14.3355 44.873 14.3355 46.7441 15.152C49.5338 16.3428 52.0173 19.0984 53.208 22.0922C54.0245 24.0995 54.0245 26.7531 53.208 28.7603C51.6771 32.5706 47.6967 37.7077 43.6142 42.3005C39.5317 46.8932 35.3812 50.9757 33.4761 52.7788C33.2039 53.051 32.6596 53.051 32.3874 52.7788C30.4823 50.9417 26.3317 46.8932 22.2493 42.3005C18.1668 37.7077 14.1864 32.5706 12.6555 28.7603C11.839 26.7531 11.839 24.0995 12.6555 22.0922C13.8462 19.1325 16.3297 16.3768 19.1194 15.152C20.14 14.7438 21.3647 14.5056 22.6235 14.5056Z" fill="#6CC9AA"/>
<path d="M32.7618 27.3313C32.4896 27.3993 32.2855 27.6375 32.2174 27.9437L29.5638 41.2457L25.7535 31.0736C25.5834 30.6653 25.1411 30.4612 24.7329 30.5973C24.5628 30.6654 24.3927 30.8014 24.3246 30.9715L22.4195 34.7478C21.7731 36.0406 20.3102 36.9932 18.8473 36.9932H13.7442C13.302 36.9932 12.9277 37.3334 12.9277 37.7757C12.9277 38.2179 13.2679 38.5922 13.7102 38.5922C13.7102 38.5922 13.7102 38.5922 13.7442 38.5922H18.8133C20.9226 38.5922 22.8958 37.3674 23.8143 35.4963L24.869 33.387L29.0195 44.4777C29.1556 44.886 29.5978 45.1241 30.0401 44.988C30.3123 44.886 30.5504 44.6478 30.5844 44.3757L32.9999 32.3324L35.4154 44.3757C35.4834 44.8179 35.9257 45.0901 36.3679 45.022C36.5721 44.988 36.7762 44.8519 36.8783 44.6818L40.2463 40.2251C40.9947 39.2385 42.2195 38.6262 43.4442 38.6262H52.2896C52.7319 38.6262 53.1061 38.286 53.1061 37.8437C53.1061 37.4014 52.7659 37.0272 52.3236 37.0272C52.3236 37.0272 52.3236 37.0272 52.2896 37.0272H43.4442C41.6752 37.0272 39.9741 37.8437 38.9195 39.2385L36.6741 42.3004L33.8164 28.0117C33.7143 27.5694 33.3061 27.2973 32.8638 27.3654C32.8298 27.3313 32.7958 27.3313 32.7618 27.3313Z" fill="#6CC9AA"/>
<path d="M44.8047 16.1046C44.3624 16.2407 44.1243 16.683 44.2604 17.0912C44.3284 17.3294 44.4985 17.4995 44.7026 17.6015L44.8047 17.6355C45.9614 18.2479 47.016 19.0985 47.9006 20.051L48.4449 20.5954C48.7511 20.9356 49.2614 20.9356 49.6016 20.6294C49.9418 20.3232 49.9418 19.8129 49.6356 19.4727L49.0913 18.9283C48.0707 17.8397 46.8459 16.9211 45.5191 16.2067L45.4171 16.1727C45.247 16.0706 45.0088 16.0366 44.8047 16.1046Z" fill="#6CC9AA"/>
<path d="M51.4728 22.5006C51.4728 22.9429 51.0986 23.3171 50.6563 23.3171C50.2141 23.3171 49.8398 22.9429 49.8398 22.5006C49.8398 22.0583 50.2141 21.6841 50.6563 21.6841C51.0986 21.7181 51.4728 22.0583 51.4728 22.5006Z" fill="#6CC9AA"/>
</svg>
