<svg width="66" height="66" viewBox="0 0 66 66" fill="none" xmlns="http://www.w3.org/2000/svg">
<path d="M26.672 54.2629C23.6782 54.2629 21.2627 51.8475 21.2627 48.8537C21.2627 45.8598 23.6782 43.4444 26.672 43.4444V45.0774C24.5967 45.0774 22.9297 46.7444 22.9297 48.8196C22.9297 50.8949 24.5967 52.5619 26.672 52.5619C28.7472 52.5619 30.4142 50.8949 30.4142 48.8196V16.8062C30.4142 14.731 28.7472 13.0639 26.672 13.0639C24.5967 13.0639 22.9297 14.731 22.9297 16.8062C22.9297 18.8815 24.5967 20.5485 26.672 20.5485V22.1815C23.6782 22.1815 21.2627 19.766 21.2627 16.7722C21.2627 13.7784 23.6782 11.3629 26.672 11.3629C29.6658 11.3629 32.0812 13.7784 32.0812 16.7722V48.8196C32.0472 51.8475 29.6318 54.2629 26.672 54.2629Z" fill="#6CC9AA"/>
<path d="M24.3585 31.401C21.3647 31.401 18.9492 28.9855 18.9492 25.9917H20.5822C20.5822 28.067 22.2492 29.734 24.3245 29.734V31.401H24.3585Z" fill="#6CC9AA"/>
<path d="M20.6164 39.6681H18.9834C18.9834 36.6743 21.3989 34.2588 24.3927 34.2588V35.8918C22.3174 35.9258 20.6164 37.6268 20.6164 39.6681Z" fill="#6CC9AA"/>
<path d="M32.0471 41.9817H30.4141C30.4141 39.9064 28.7471 38.2394 26.6719 38.2394V36.6064C29.6317 36.5724 32.0471 39.0219 32.0471 41.9817Z" fill="#6CC9AA"/>
<path d="M26.6719 29.0879V27.4549C28.7471 27.4549 30.4141 25.7879 30.4141 23.7126H32.0471C32.0471 26.6724 29.6317 29.0879 26.6719 29.0879Z" fill="#6CC9AA"/>
<path d="M15.1732 21.365C15.0711 20.9908 15.0371 20.5825 15.0371 20.1743C15.0371 17.1805 17.4526 14.765 20.4464 14.765C21.1608 14.765 21.8412 14.9011 22.5216 15.1733L21.8753 16.7042C21.433 16.5001 20.9567 16.432 20.4464 16.432C18.3711 16.432 16.7041 18.099 16.7041 20.1743C16.7041 20.4465 16.7381 20.7186 16.8062 20.9908L15.1732 21.365Z" fill="#6CC9AA"/>
<path d="M12.3495 29.564C10.2403 27.4547 10.2403 24.0186 12.3495 21.9434C13.3702 20.9227 14.731 20.3784 16.1598 20.3784C17.5887 20.3784 18.9495 20.9568 19.9702 21.9434L18.8135 23.1001C18.099 22.3856 17.1464 22.0114 16.1598 22.0114C15.1732 22.0114 14.2207 22.3856 13.5062 23.1001C12.0434 24.563 12.0434 26.9444 13.5062 28.4073L12.3495 29.564Z" fill="#6CC9AA"/>
<path d="M14.5606 38.239C11.5668 38.239 9.15137 35.8235 9.15137 32.8297C9.15137 29.8359 11.5668 27.4204 14.5606 27.4204V29.0534C12.4854 29.0534 10.8184 30.7204 10.8184 32.7957C10.8184 34.8709 12.4854 36.5379 14.5606 36.5379C14.5606 36.572 14.5606 38.239 14.5606 38.239Z" fill="#6CC9AA"/>
<path d="M16.1594 45.3156C14.7306 45.3156 13.3697 44.7372 12.3491 43.7506C11.3285 42.73 10.7842 41.3692 10.7842 39.9403C10.7842 38.5115 11.3625 37.1506 12.3491 36.13L13.5058 37.2867C12.7914 38.0011 12.4172 38.9537 12.4172 39.9403C12.4172 40.9269 12.7914 41.8795 13.5058 42.5939C14.2203 43.3084 15.1728 43.6826 16.1594 43.6826C17.146 43.6826 18.0986 43.3084 18.813 42.5939L19.9697 43.7506C18.9491 44.7712 17.5883 45.3156 16.1594 45.3156Z" fill="#6CC9AA"/>
<path d="M20.4122 50.895C17.4184 50.895 15.0029 48.4796 15.0029 45.4858C15.0029 45.0775 15.037 44.6693 15.139 44.295L16.738 44.6693C16.6699 44.9414 16.6359 45.2136 16.6359 45.4858C16.6359 47.561 18.3029 49.228 20.3782 49.228C20.8885 49.228 21.3648 49.126 21.8071 48.9559L22.4534 50.4868C21.8411 50.759 21.1266 50.895 20.4122 50.895Z" fill="#6CC9AA"/>
<path d="M39.1236 54.2628C36.1298 54.2628 33.7144 51.8474 33.7144 48.8536V16.8061C33.7144 13.8123 36.1298 11.3969 39.1236 11.3969C42.1174 11.3969 44.5329 13.8123 44.5329 16.8061C44.5329 19.7999 42.1174 22.2154 39.1236 22.2154V20.5824C41.1989 20.5824 42.8659 18.9154 42.8659 16.8401C42.8659 14.7649 41.1989 13.0979 39.1236 13.0979C37.0484 13.0979 35.3814 14.7649 35.3814 16.8401V48.8876C35.3814 50.9628 37.0484 52.6298 39.1236 52.6298C41.1989 52.6298 42.8659 50.9628 42.8659 48.8876C42.8659 46.8123 41.1989 45.1453 39.1236 45.1453V43.5123C42.1174 43.5123 44.5329 45.9278 44.5329 48.9216C44.4989 51.8474 42.0834 54.2628 39.1236 54.2628Z" fill="#6CC9AA"/>
<path d="M41.4028 31.4009V29.7679C43.4781 29.7679 45.1451 28.1009 45.1451 26.0256H46.7781C46.7781 28.9854 44.3626 31.4009 41.4028 31.4009Z" fill="#6CC9AA"/>
<path d="M46.7781 39.668H45.1451C45.1451 37.5927 43.4781 35.9257 41.4028 35.9257V34.2927C44.3626 34.2927 46.7781 36.7082 46.7781 39.668Z" fill="#6CC9AA"/>
<path d="M35.3473 41.9814H33.7144C33.7144 38.9876 36.1298 36.5721 39.1236 36.5721V38.2051C37.0484 38.2392 35.3473 39.9062 35.3473 41.9814Z" fill="#6CC9AA"/>
<path d="M39.1236 29.0875C36.1298 29.0875 33.7144 26.672 33.7144 23.6782H35.3473C35.3473 25.7535 37.0144 27.4205 39.0896 27.4205L39.1236 29.0875Z" fill="#6CC9AA"/>
<path d="M50.5884 21.365L48.9894 20.9908C49.0574 20.7186 49.0915 20.4465 49.0915 20.1743C49.0915 18.099 47.4244 16.432 45.3492 16.432C44.8389 16.432 44.3626 16.5341 43.9203 16.7042L43.2739 15.1733C43.9203 14.9011 44.6348 14.765 45.3492 14.765C48.343 14.765 50.7585 17.1805 50.7585 20.1743C50.7245 20.5825 50.6904 20.9568 50.5884 21.365Z" fill="#6CC9AA"/>
<path d="M53.4463 29.5638L52.2896 28.4071C53.7525 26.9442 53.7525 24.5628 52.2896 23.0999C50.8267 21.637 48.4453 21.637 46.9824 23.0999L45.8257 21.9432C47.935 19.8339 51.371 19.8339 53.4463 21.9432C55.5215 24.0184 55.5215 27.4545 53.4463 29.5638Z" fill="#6CC9AA"/>
<path d="M51.2012 38.2392V36.6062C53.2764 36.6062 54.9434 34.9392 54.9434 32.8639C54.9434 30.7886 53.2764 29.1216 51.2012 29.1216V27.4886C54.195 27.4886 56.6104 29.9041 56.6104 32.8979C56.6104 35.8237 54.161 38.2392 51.2012 38.2392Z" fill="#6CC9AA"/>
<path d="M49.6018 45.3153C48.207 45.3153 46.8461 44.805 45.7915 43.7504L46.9482 42.5937C48.4111 44.0566 50.7925 44.0566 52.2554 42.5937C53.7183 41.1308 53.7183 38.7493 52.2554 37.2865L53.4121 36.1298C55.5214 38.239 55.5214 41.6751 53.4121 43.7504C52.3915 44.805 50.9967 45.3153 49.6018 45.3153Z" fill="#6CC9AA"/>
<path d="M45.3492 50.8947C44.6348 50.8947 43.9543 50.7586 43.2739 50.4864L43.9203 48.9555C44.3626 49.1596 44.8389 49.2277 45.3492 49.2277C47.4244 49.2277 49.0915 47.5607 49.0915 45.4854C49.0915 45.2132 49.0574 44.9411 48.9894 44.6689L50.5884 44.2947C50.6904 44.6689 50.7245 45.0772 50.7245 45.4854C50.7245 48.4792 48.309 50.8947 45.3492 50.8947Z" fill="#6CC9AA"/>
</svg>
