<svg width="220" height="107" viewBox="0 0 220 107" fill="none" xmlns="http://www.w3.org/2000/svg">
<path fill-rule="evenodd" clip-rule="evenodd" d="M0.172888 32.5047V0.502221H13.3282L18.7485 16.0206L24.2552 0.502221H37.1448V32.5047H27.0726V13.616L19.773 32.5047H16.3665L9.22056 13.616V32.5047H0.172888ZM51.9425 16.657C51.9425 19.3238 52.5284 21.3991 53.7098 22.8861C54.8911 24.373 56.4855 25.1148 58.4961 25.1148C60.5067 25.1148 62.1011 24.373 63.2793 22.8861C64.4607 21.3991 65.0498 19.3238 65.0498 16.657V16.3052C65.0498 13.6383 64.4607 11.5758 63.2793 10.1209C62.1011 8.66273 60.4971 7.93365 58.4737 7.93365C56.4471 7.93365 54.8559 8.65633 53.6874 10.0985C52.522 11.5406 51.9393 13.6096 51.9393 16.3052V16.657H51.9425ZM75.6022 16.4363C75.6022 21.4503 74.0174 25.4794 70.8414 28.5236C67.6655 31.571 63.4778 33.0963 58.2752 33.0963C53.0598 33.0963 48.933 31.587 45.8851 28.5684C42.8436 25.5529 41.3196 21.5974 41.3196 16.6985V16.3468C41.3068 11.4831 42.93 7.54034 46.1924 4.52491C49.4581 1.50629 53.5721 0.000181684 58.5378 0.000181684C63.5066 0.000181684 67.5918 1.43914 70.7998 4.32666C74.0014 7.21097 75.6022 11.1249 75.6022 16.0654V16.4363ZM91.3156 33.0963C82.1526 33.0963 77.4527 29.4797 77.2222 22.2529H86.8365C87.0414 24.6991 88.5334 25.9239 91.3188 25.9239C92.4809 25.9239 93.3614 25.684 93.9601 25.2012C94.252 24.9703 94.4852 24.6739 94.641 24.3361C94.7967 23.9983 94.8706 23.6286 94.8565 23.257C94.8565 22.4416 94.5364 21.8436 93.896 21.4663C93.2557 21.0858 92.0519 20.7788 90.2879 20.5453C85.7 20.0337 82.4952 19.0232 80.6735 17.5075C78.8518 15.9918 77.9426 13.6479 77.9426 10.4694C77.9426 7.29411 79.0951 4.76474 81.3939 2.8845C83.7118 0.991467 86.8205 0.0417532 90.7265 0.0417532C98.7817 0.0417532 103.078 3.4441 103.619 10.252H94.2226C93.9889 8.19586 92.8235 7.16941 90.7265 7.16941C89.7212 7.16941 88.94 7.38045 88.3893 7.80255C88.1212 8.00693 87.9059 8.27225 87.7611 8.57646C87.6163 8.88068 87.5463 9.21502 87.5569 9.55169C87.5569 10.2808 87.8707 10.8499 88.4982 11.2561C89.1225 11.6654 90.3039 11.9691 92.0359 12.1738C96.3645 12.6279 99.5308 13.5648 101.545 14.9942C103.552 16.4363 104.557 18.777 104.557 22.0099C104.557 25.246 103.392 27.9 101.061 29.9689C98.7304 32.0378 95.4808 33.0803 91.3156 33.0931V33.0963ZM123.853 33.0963C118.244 33.0963 114.005 31.6285 111.137 28.6995C108.265 25.7704 106.83 21.7701 106.83 16.6985V16.3468C106.83 11.4543 108.39 7.50516 111.505 4.50253C114.61 1.4999 118.478 0.000181684 123.11 0.000181684C127.743 -0.0158068 131.399 1.02344 134.079 3.12433C136.759 5.22201 138.267 8.39412 138.603 12.6343H128.134C127.801 9.55808 126.235 8.01999 123.437 8.01999C121.587 8.01999 120.139 8.72668 119.089 10.1433C118.039 11.5566 117.521 13.6096 117.537 16.3052V16.657C117.537 19.3078 118.055 21.3576 119.089 22.7965C120.139 24.2259 121.647 24.939 123.613 24.939C126.773 24.939 128.537 23.3721 128.899 20.2384H139.016C138.757 24.3634 137.255 27.5355 134.518 29.7483C131.777 31.9643 128.223 33.0803 123.853 33.0931V33.0963ZM151.582 16.657C151.582 19.3238 152.171 21.3991 153.353 22.8861C154.531 24.373 156.128 25.1148 158.139 25.1148C160.15 25.1148 161.744 24.373 162.922 22.8861C164.104 21.3991 164.693 19.3238 164.693 16.657V16.3052C164.693 13.6383 164.104 11.5758 162.922 10.1209C161.744 8.66273 160.14 7.93365 158.117 7.93365C156.09 7.93365 154.499 8.65633 153.33 10.0985C152.165 11.5406 151.582 13.6096 151.582 16.3052V16.657ZM175.248 16.4363C175.248 21.4503 173.66 25.4794 170.484 28.5236C167.308 31.571 163.121 33.0963 157.918 33.0963C152.703 33.0963 148.573 31.587 145.528 28.5684C142.486 25.5529 140.963 21.5974 140.963 16.6985V16.3468C140.947 11.4831 142.573 7.54034 145.835 4.52491C149.101 1.50629 153.215 0.000181684 158.181 0.000181684C163.149 0.000181684 167.235 1.43914 170.443 4.32666C173.644 7.21097 175.245 11.1249 175.245 16.0654V16.4363H175.248ZM183.201 32.5047L175.773 0.502221H186.018L189.691 19.6052L193.558 0.502221H202.362L206.713 19.8259L210.603 0.502221H220L212.572 32.5047H202.321L197.842 13.3985L193.318 32.5047H183.201ZM29.3009 56.9334C29.3009 61.6276 28.0139 65.1099 25.4334 67.3835C22.8561 69.6538 19.2351 70.8018 14.5736 70.8146C9.9121 70.8146 6.31352 69.6506 3.77787 67.3163C1.25822 64.9852 0 61.5541 0 57.0197V38.2269H10.117V56.6104C10.117 58.8264 10.4372 60.4221 11.0775 61.3974C11.7178 62.3567 12.9056 62.8395 14.6376 62.8395C16.3729 62.8395 17.5447 62.3439 18.1594 61.3526C18.7677 60.3613 19.0814 58.7657 19.0974 56.5657V38.2269H29.3009V56.9366V56.9334ZM34.8941 70.2262V38.2237H47.9629C52.3779 38.2237 55.7108 39.0967 57.9711 40.8458C60.2282 42.595 61.3487 45.1819 61.3327 48.6066V48.7825C61.3327 52.7157 59.5367 55.5072 55.9381 57.154L63.2377 70.2262H52.5732L46.6311 59.2517H45.0143V70.2262H34.8973H34.8941ZM45.0111 52.7157H47.393C50.1624 52.7157 51.5455 51.5517 51.5455 49.2174V49.0447C51.5455 47.8935 51.2125 47.0685 50.5402 46.5729C49.8711 46.0772 48.837 45.831 47.4379 45.831H45.0143V52.7157H45.0111ZM76.5659 63.5558H79.7771C82.3127 63.5558 83.5805 62.4366 83.5805 60.1919V60.016C83.5805 57.832 82.2391 56.7448 79.5593 56.7607H76.5659V63.559V63.5558ZM76.5659 50.7043H79.6458C80.9008 50.7043 81.7973 50.4805 82.3351 50.0264C82.873 49.5755 83.1419 48.8624 83.1419 47.8839V47.7113C83.1419 45.8022 81.9637 44.8461 79.6042 44.8461H76.5659V50.7043ZM66.6666 70.2262V38.2237H81.7877C85.5175 38.2237 88.2709 38.9816 90.0477 40.4941C91.8246 42.013 92.7147 44.0435 92.7147 46.5953V46.7711C92.7147 50.4997 90.8641 52.7956 87.1631 53.6558C89.1321 54.0203 90.688 54.8229 91.8374 56.0604C92.99 57.2979 93.5663 58.9895 93.5663 61.132V61.3078C93.5663 67.2523 89.6123 70.2262 81.7012 70.2262H66.6666ZM94.594 70.2262L104.666 38.2237H117.777L127.807 70.2262H117.079L115.593 64.8925H105.476L104.055 70.2262H94.594ZM110.589 46.397L107.397 58.0046H113.714L110.589 46.397ZM131.108 70.2262V38.2237H142.47L151.563 55.1395V38.2237H160.476V70.2262H150.75L140.063 51.0561V70.2262H131.105H131.108ZM0.172888 105.668V73.6655H22.331V81.4902H10.3347V87.4379H19.9939V94.9109H10.3347V105.668H0.172888ZM34.83 89.8202C34.83 92.4871 35.4191 94.5624 36.6005 96.0493C37.7787 97.5362 39.3763 98.2781 41.3869 98.2781C43.3943 98.2781 44.9919 97.5362 46.17 96.0493C47.3514 94.5624 47.9405 92.4871 47.9405 89.8202V89.4685C47.9405 86.8016 47.3514 84.7391 46.17 83.2841C44.9919 81.826 43.3879 81.0969 41.3645 81.0969C39.3379 81.0969 37.7435 81.8196 36.5781 83.2617C35.4127 84.7039 34.83 86.7728 34.83 89.4685V89.8202ZM58.4961 89.5995C58.4961 94.6135 56.9081 98.6426 53.7322 101.687C50.5562 104.734 46.3685 106.26 41.166 106.26C35.9506 106.26 31.8205 104.75 28.7758 101.732C25.7343 98.7162 24.2104 94.7606 24.2104 89.8618V89.51C24.1944 84.6463 25.8208 80.7036 29.0832 77.6882C32.3488 74.6695 36.4628 73.1634 41.4285 73.1634C46.3974 73.1634 50.4826 74.6024 53.6906 77.4899C56.8921 80.3742 58.4929 84.2882 58.4929 89.2286V89.5995H58.4961ZM62.6038 105.668V73.6655H75.6694C80.0844 73.6655 83.4173 74.5384 85.6776 76.2876C87.9347 78.0367 89.0585 80.6236 89.0424 84.0484V84.2242C89.0424 88.1574 87.2432 90.949 83.6446 92.5958L90.9442 105.668H80.2829L74.3376 94.6935H72.7208V105.668H62.6038ZM72.7208 88.1574H75.1028C77.8689 88.1574 79.2552 86.9934 79.2552 84.6591V84.4864C79.2552 83.3353 78.919 82.5103 78.2499 82.0146C77.5776 81.519 76.5435 81.2728 75.1444 81.2728H72.7208V88.1574ZM122.826 92.3784C122.826 97.0694 121.535 100.552 118.958 102.825C116.381 105.096 112.76 106.244 108.098 106.256C103.437 106.256 99.8382 105.092 97.3025 102.758C94.7829 100.427 93.5247 96.9958 93.5247 92.4615V73.6687H103.642V92.0522C103.642 94.2682 103.962 95.8638 104.602 96.8391C105.242 97.7984 106.427 98.2813 108.162 98.2813C109.898 98.2813 111.069 97.7856 111.684 96.7944C112.292 95.8031 112.606 94.2074 112.622 92.0074V73.6687H122.826V92.3784ZM128.419 105.668V73.6655H141.577L146.994 89.1839L152.501 73.6655H165.394V105.668H155.318V86.7792L148.019 105.668H144.612L137.463 86.7792V105.668H128.416H128.419Z" fill="black"/>
</svg>
