<svg width="570" height="234" viewBox="0 0 570 234" fill="none" xmlns="http://www.w3.org/2000/svg">
<mask id="mask0" mask-type="alpha" maskUnits="userSpaceOnUse" x="0" y="0" width="570" height="234">
<rect x="0.5" y="0.5" width="569" height="233" fill="white" stroke="#E3E3E3"/>
</mask>
<g mask="url(#mask0)">
<rect width="570" height="234" fill="#00264F"/>
<path d="M571.292 276.332L626.274 223.982L563.922 205.928L556.844 215.335L550.469 227.429L571.292 276.332Z" stroke="white" stroke-width="2" stroke-miterlimit="10"/>
<path d="M520.813 156.616L558.423 167.717L563.922 205.928L556.844 215.335L550.468 227.429L498.703 197.281L520.813 156.616Z" stroke="white" stroke-width="2" stroke-miterlimit="10"/>
<path d="M559.358 -2.59485L540.173 25.5081L517.068 -4.17237L504.317 -46.7066L420.615 -70.3691L432.021 -30.6394L516.249 -4.4645" stroke="white" stroke-width="2" stroke-miterlimit="10"/>
<path d="M451.734 137.92L462.438 136.576L479.518 112.738L473.259 81.1299L479.401 62.1414L479.635 58.8695L467.702 30.416L438.807 55.2471L421.318 54.8381" stroke="white" stroke-width="2" stroke-miterlimit="10"/>
<path d="M544.735 117.296L524.614 101.17L479.049 112.914" stroke="white" stroke-width="2" stroke-miterlimit="10"/>
<path d="M513.619 40.9912L478.934 59.9213" stroke="white" stroke-width="2" stroke-miterlimit="10"/>
<path d="M617.5 44.2044L610.831 34.0382L614.867 -16.2082L668.154 -46.5314L615.394 -64.1177L604.807 -60.2031L591.997 -52.6662L552.164 -33.2687L614.224 -15.6824" stroke="white" stroke-width="2" stroke-miterlimit="10"/>
<path d="M701.084 -64.6433L453.43 74.8783" stroke="white" stroke-width="0.25" stroke-miterlimit="10"/>
<path d="M798.941 36.5506L421.025 -70.3108" stroke="white" stroke-width="0.25" stroke-miterlimit="10"/>
<path d="M715.415 56.474L301 -70.3691" stroke="white" stroke-width="0.25" stroke-miterlimit="10"/>
<path d="M637.68 -115.182L427.168 187.699" stroke="white" stroke-width="0.25" stroke-miterlimit="10"/>
<path d="M729.452 16.2769L473.023 193.542" stroke="white" stroke-width="0.25" stroke-miterlimit="10"/>
<path d="M701.025 -63.4749L538.359 329.149" stroke="white" stroke-width="0.25" stroke-miterlimit="10"/>
<path d="M701.025 -63.4749L547.133 322.956" stroke="white" stroke-width="0.25" stroke-miterlimit="10"/>
<path d="M678.915 220.71L348.729 143.821" stroke="white" stroke-width="0.25" stroke-miterlimit="10"/>
<path d="M798.941 36.5505L348.729 143.821" stroke="white" stroke-width="0.25" stroke-miterlimit="10"/>
<path d="M679.092 220.535L301 -70.3691" stroke="white" stroke-width="0.25" stroke-miterlimit="10"/>
<path d="M421.025 -70.3108L586.44 310.219" stroke="white" stroke-width="0.25" stroke-miterlimit="10"/>
<path d="M638.264 -115.766L394.002 93.3407" stroke="white" stroke-width="0.25" stroke-miterlimit="10"/>
<path d="M659.204 306.655L394.002 93.3408" stroke="white" stroke-width="0.25" stroke-miterlimit="10"/>
<path d="M679.093 220.535L427.168 187.699" stroke="white" stroke-width="0.25" stroke-miterlimit="10"/>
<path d="M637.68 350.941L447.23 32.2271" stroke="white" stroke-width="0.25" stroke-miterlimit="10"/>
<path d="M480.864 60.9728C481.8 60.0965 481.859 58.6358 481.04 57.701C480.162 56.7662 478.7 56.7077 477.764 57.5257C476.828 58.4021 476.77 59.8628 477.589 60.7976C478.466 61.7908 479.929 61.8492 480.864 60.9728Z" fill="white"/>
<path d="M480.745 114.842C481.681 113.965 481.74 112.504 480.921 111.57C480.043 110.635 478.581 110.576 477.645 111.394C476.709 112.271 476.651 113.731 477.47 114.666C478.347 115.601 479.809 115.66 480.745 114.842Z" fill="white"/>
<path d="M525.376 102.806C526.312 101.929 526.37 100.469 525.552 99.534C524.674 98.5992 523.212 98.5407 522.276 99.3587C521.34 100.235 521.282 101.696 522.101 102.631C522.978 103.624 524.44 103.682 525.376 102.806Z" fill="white"/>
<path d="M469.984 32.4023C470.919 31.5259 470.978 30.0652 470.159 29.1304C469.282 28.1956 467.819 28.1372 466.883 28.9551C465.948 29.8315 465.889 31.2922 466.708 32.227C467.585 33.1618 469.048 33.2203 469.984 32.4023Z" fill="white"/>
<path d="M541.519 27.2023C542.455 26.326 542.513 24.8653 541.694 23.9305C540.817 22.9957 539.354 22.9372 538.419 23.7552C537.483 24.6316 537.424 26.0922 538.243 27.0271C539.121 28.0203 540.583 28.0787 541.519 27.2023Z" fill="white"/>
<path d="M439.86 56.2985C440.796 55.4221 440.855 53.9615 440.036 53.0267C439.159 52.0918 437.696 52.0334 436.76 52.8514C435.825 53.7278 435.766 55.1884 436.585 56.1233C437.404 57.0581 438.925 57.1165 439.86 56.2985Z" fill="white"/>
<path d="M522.333 158.428C523.269 157.551 523.327 156.091 522.509 155.156C521.631 154.221 520.169 154.163 519.233 154.981C518.297 155.857 518.239 157.318 519.058 158.252C519.935 159.187 521.397 159.246 522.333 158.428Z" fill="white"/>
<path d="M500.341 199.092C501.277 198.216 501.335 196.755 500.516 195.82C499.639 194.886 498.177 194.827 497.241 195.645C496.305 196.521 496.247 197.982 497.065 198.917C497.943 199.852 499.405 199.969 500.341 199.092Z" fill="white"/>
<path d="M551.872 228.831C552.808 227.955 552.866 226.494 552.048 225.559C551.17 224.624 549.708 224.566 548.772 225.384C547.836 226.26 547.778 227.721 548.597 228.656C549.474 229.649 550.936 229.707 551.872 228.831Z" fill="white"/>
<path d="M564.681 206.688C565.617 205.811 565.675 204.351 564.856 203.416C563.979 202.481 562.517 202.423 561.581 203.241C560.645 204.117 560.586 205.578 561.405 206.512C562.283 207.506 563.745 207.564 564.681 206.688Z" fill="white"/>
<path d="M557.194 216.211C558.13 215.334 558.189 213.874 557.37 212.939C556.493 212.004 555.03 211.946 554.094 212.764C553.159 213.64 553.1 215.101 553.919 216.036C554.796 216.97 556.259 217.087 557.194 216.211Z" fill="white"/>
<path d="M563.804 131.902C564.155 131.61 564.155 131.084 563.863 130.792C563.57 130.441 563.044 130.441 562.752 130.734C562.401 131.026 562.401 131.551 562.693 131.844C562.985 132.194 563.453 132.194 563.804 131.902Z" fill="white"/>
<path d="M566.67 12.1284C567.021 11.8362 567.021 11.3104 566.728 11.0183C566.436 10.6677 565.909 10.6677 565.617 10.9599C565.266 11.252 565.266 11.7778 565.558 12.0699C565.851 12.3621 566.377 12.4205 566.67 12.1284Z" fill="white"/>
</g>
</svg>
