<svg width="570" height="234" viewBox="0 0 570 234" fill="none" xmlns="http://www.w3.org/2000/svg">
<mask id="mask0" mask-type="alpha" maskUnits="userSpaceOnUse" x="0" y="0" width="570" height="234">
<rect x="0.5" y="0.5" width="569" height="233" fill="white" stroke="#E3E3E3"/>
</mask>
<g mask="url(#mask0)">
<rect width="570" height="234" fill="#00264F"/>
<path d="M528.65 -41.3686L473.667 10.9812L536.02 29.0349L543.097 19.6283L549.473 7.53409L528.65 -41.3686Z" stroke="white" stroke-width="2" stroke-miterlimit="10"/>
<path d="M579.128 78.3464L541.518 67.2455L536.02 29.0348L543.097 19.6283L549.473 7.53405L601.238 37.6819L579.128 78.3464Z" stroke="white" stroke-width="2" stroke-miterlimit="10"/>
<path d="M494.725 132.216L479.751 143.258L463.841 153.716L454.19 175.743L414.591 230.897L370.488 218.686" stroke="white" stroke-width="2" stroke-miterlimit="10"/>
<path d="M448.575 134.144L452.962 143.55L463.783 153.541" stroke="white" stroke-width="2" stroke-miterlimit="10"/>
<path d="M540.583 237.558L559.769 209.455L582.873 239.135L595.624 281.669L679.326 305.332L667.92 265.602L583.692 239.427" stroke="white" stroke-width="2" stroke-miterlimit="10"/>
<path d="M555.206 117.667L575.327 133.793L620.893 122.049" stroke="white" stroke-width="2" stroke-miterlimit="10"/>
<path d="M482.442 190.759L489.11 200.925L485.074 251.171L431.788 281.494L484.548 299.081L495.135 295.166L507.944 287.629L547.777 268.232L485.717 250.645" stroke="white" stroke-width="2" stroke-miterlimit="10"/>
<path d="M462.847 349.619L502.855 24.8868" stroke="white" stroke-width="0.25" stroke-miterlimit="10"/>
<path d="M504.787 314.271L421.027 14.2531" stroke="white" stroke-width="0.25" stroke-miterlimit="10"/>
<path d="M398.857 299.606L646.512 160.085" stroke="white" stroke-width="0.25" stroke-miterlimit="10"/>
<path d="M301 198.412L678.916 305.274" stroke="white" stroke-width="0.25" stroke-miterlimit="10"/>
<path d="M384.526 178.489L798.941 305.332" stroke="white" stroke-width="0.25" stroke-miterlimit="10"/>
<path d="M462.263 350.145L672.775 47.264" stroke="white" stroke-width="0.25" stroke-miterlimit="10"/>
<path d="M370.489 218.686L626.918 41.4213" stroke="white" stroke-width="0.25" stroke-miterlimit="10"/>
<path d="M398.916 298.438L561.582 -94.1858" stroke="white" stroke-width="0.25" stroke-miterlimit="10"/>
<path d="M398.916 298.438L552.809 -87.9927" stroke="white" stroke-width="0.25" stroke-miterlimit="10"/>
<path d="M421.026 14.2531L751.213 91.1418" stroke="white" stroke-width="0.25" stroke-miterlimit="10"/>
<path d="M301.001 198.412L751.213 91.142" stroke="white" stroke-width="0.25" stroke-miterlimit="10"/>
<path d="M420.85 14.4283L798.941 305.332" stroke="white" stroke-width="0.25" stroke-miterlimit="10"/>
<path d="M678.916 305.274L513.501 -75.2556" stroke="white" stroke-width="0.25" stroke-miterlimit="10"/>
<path d="M461.677 350.729L705.939 141.622" stroke="white" stroke-width="0.25" stroke-miterlimit="10"/>
<path d="M440.737 -71.6918L705.939 141.622" stroke="white" stroke-width="0.25" stroke-miterlimit="10"/>
<path d="M420.851 14.4281L672.775 47.2637" stroke="white" stroke-width="0.25" stroke-miterlimit="10"/>
<path d="M462.261 -115.979L652.711 202.736" stroke="white" stroke-width="0.25" stroke-miterlimit="10"/>
<path d="M413.069 229.203C412.133 230.079 412.075 231.54 412.894 232.475C413.771 233.41 415.233 233.468 416.169 232.65C417.105 231.774 417.164 230.313 416.345 229.378C415.467 228.385 414.005 228.327 413.069 229.203Z" fill="white"/>
<path d="M558.423 207.761C557.487 208.637 557.428 210.098 558.247 211.032C559.125 211.967 560.587 212.026 561.523 211.208C562.459 210.331 562.517 208.871 561.698 207.936C560.821 206.943 559.359 206.884 558.423 207.761Z" fill="white"/>
<path d="M548.069 6.1319C547.133 7.00829 547.075 8.46895 547.894 9.40376C548.771 10.3386 550.233 10.397 551.169 9.57904C552.105 8.70265 552.164 7.24198 551.345 6.30717C550.467 5.31393 549.005 5.25551 548.069 6.1319Z" fill="white"/>
<path d="M535.261 28.2752C534.325 29.1516 534.266 30.6123 535.085 31.5471C535.962 32.4819 537.425 32.5403 538.361 31.7223C539.297 30.846 539.355 29.3853 538.536 28.4505C537.659 27.4573 536.196 27.3989 535.261 28.2752Z" fill="white"/>
<path d="M472.206 9.34524C471.27 10.2216 471.211 11.6823 472.03 12.6171C472.908 13.552 474.37 13.6104 475.306 12.7924C476.242 11.916 476.3 10.4553 475.481 9.52051C474.663 8.58569 473.142 8.46885 472.206 9.34524Z" fill="white"/>
<path d="M542.747 18.752C541.811 19.6284 541.753 21.0891 542.571 22.0239C543.449 22.9587 544.911 23.0171 545.847 22.1991C546.783 21.3228 546.841 19.8621 546.022 18.9273C545.145 17.9925 543.683 17.8756 542.747 18.752Z" fill="white"/>
<path d="M462.555 151.847C461.62 152.723 461.561 154.184 462.38 155.119C463.257 156.053 464.72 156.112 465.656 155.294C466.591 154.417 466.65 152.957 465.831 152.022C464.954 151.029 463.491 150.97 462.555 151.847Z" fill="white"/>
<path d="M453.606 173.464C452.67 174.341 452.612 175.801 453.431 176.736C454.308 177.671 455.77 177.729 456.706 176.911C457.642 176.035 457.701 174.574 456.882 173.639C456.004 172.646 454.542 172.588 453.606 173.464Z" fill="white"/>
<path d="M488.526 198.938C487.59 199.814 487.532 201.275 488.351 202.21C489.228 203.145 490.69 203.203 491.626 202.385C492.562 201.509 492.621 200.048 491.802 199.113C490.924 198.12 489.462 198.062 488.526 198.938Z" fill="white"/>
<path d="M450.856 140.98C449.92 141.856 449.862 143.317 450.681 144.251C451.558 145.186 453.021 145.245 453.956 144.427C454.892 143.55 454.951 142.09 454.132 141.155C453.255 140.22 451.792 140.162 450.856 140.98Z" fill="white"/>
<path d="M496.129 72.4458C495.778 72.7379 495.778 73.2638 496.071 73.5559C496.363 73.9065 496.89 73.9065 497.182 73.6144C497.533 73.3222 497.533 72.7964 497.241 72.5042C496.948 72.1537 496.422 72.1536 496.129 72.4458Z" fill="white"/>
<path d="M503.735 32.7156C503.384 33.0077 503.384 33.5336 503.676 33.8257C503.969 34.1763 504.495 34.1763 504.788 33.8841C505.139 33.592 505.139 33.0662 504.846 32.7741C504.554 32.4235 504.027 32.4235 503.735 32.7156Z" fill="white"/>
<path d="M536.137 103.061C535.786 103.353 535.786 103.879 536.079 104.171C536.371 104.521 536.897 104.521 537.19 104.229C537.541 103.937 537.541 103.411 537.248 103.119C536.956 102.769 536.488 102.769 536.137 103.061Z" fill="white"/>
<path d="M533.272 222.835C532.921 223.127 532.921 223.652 533.213 223.945C533.506 224.295 534.032 224.295 534.325 224.003C534.676 223.711 534.676 223.185 534.383 222.893C534.091 222.601 533.564 222.542 533.272 222.835Z" fill="white"/>
</g>
</svg>
