<?xml version="1.0" encoding="utf-8"?>
<!-- Generator: Adobe Illustrator 26.1.0, SVG Export Plug-In . SVG Version: 6.00 Build 0)  -->
<svg version="1.1" id="Слой_1" xmlns="http://www.w3.org/2000/svg" xmlns:xlink="http://www.w3.org/1999/xlink" x="0px" y="0px"
	 viewBox="0 0 376.5 263.2" style="enable-background:new 0 0 376.5 263.2;" xml:space="preserve">
<style type="text/css">
	.st0{fill:#001F45;}
	.st1{fill:#E10034;}
</style>
<g id="BACKGROUND">
</g>
<g id="Layer_2">
	<g>
		<path class="st0" d="M188.7,120.6V84.1H174l-6.3,17.7l-6.2-17.7h-15v36.5h10.3V99.1l8.2,21.5h3.9l8.3-21.6v21.6L188.7,120.6
			L188.7,120.6z M141.3,37.7c9.6,0,16.7-5,17.3-14.6h-11.5c-0.4,3.7-2.8,5.4-6,5.4c-4.5,0-6.9-3.4-6.9-9.4v-0.4
			c0-6.2,2.6-9.4,6.7-9.4c3.2,0,5,1.9,5.4,5.3h11.9C157.3,4.5,150.6,0,140.8,0c-10.8,0-18.9,7.3-18.9,18.6V19
			C121.9,30.2,128.1,37.7,141.3,37.7 M172,78.9h11.1V42.3h-10.2v19.3l-10.4-19.3h-13v36.5h10.2V57L172,78.9z M180.2,37.7
			c12,0,19.8-7.6,19.8-19v-0.4C200,6.8,191.6,0,180.4,0c-10.9,0-19.5,7.3-19.5,18.6V19C160.9,30.1,168.2,37.7,180.2,37.7 M173,18.6
			c0-6.2,2.9-9.5,7.4-9.5c4.6,0,7.6,3.4,7.6,9.5V19c0,6.1-2.9,9.6-7.4,9.6c-4.6,0-7.5-3.4-7.5-9.6L173,18.6L173,18.6z M25.5,93.1
			v-8.9H0.2v36.5h11.6v-12.3h11v-8.5h-11v-6.8L25.5,93.1L25.5,93.1z M118.7,78.9l1.6-6.1h11.5l1.7,6.1h12.3l-11.4-36.5h-15
			l-11.5,36.5H118.7z M126.2,51.7l3.6,13.2h-7.2L126.2,51.7z M16.7,79.5c10.2,0,16.8-4.8,16.8-15.8V42.4H21.8v20.9
			c0,4.8-1,7.1-5.1,7.1c-4.1,0-5.1-2.3-5.1-7.1v-21H0v21.4C0,74.2,6,79.5,16.7,79.5 M240.3,0.6l-4.4,22l-5-22h-10.1l-4.4,21.8
			l-4.2-21.8h-11.7l8.5,36.5h11.5l5.1-21.8l5.1,21.8h11.7L251,0.6C251,0.6,240.3,0.6,240.3,0.6z M10.5,15.5l8.2,21.5h3.9l8.3-21.5
			v21.5h11.5V0.6H27.7l-6.3,17.7L15.2,0.6h-15v36.5h10.3V15.5L10.5,15.5z M83,108.1h1.8l6.8,12.5h12.2l-8.3-14.9
			c3.6-1.6,6.2-4.5,6.2-9.6V96c0-7.8-5.2-11.8-15.3-11.8H71.4v36.5H83L83,108.1L83,108.1z M83,92.8h2.8c3.1,0,4.7,1,4.7,3.7v0.2
			c0,2.7-1.5,4-4.7,4H83C83,100.7,83,92.8,83,92.8z M123.4,121.3c10.2,0,16.8-4.8,16.8-15.8V84.1h-11.6v20.9c0,4.8-1,7.2-5.1,7.2
			c-4.1,0-5.2-2.3-5.2-7.1v-21h-11.5v21.4C106.7,116,112.7,121.3,123.4,121.3 M104.2,29.6c-3.8,0-4.9-1.9-5.1-4.2h-11
			c0.2,8.2,5.8,12.4,16.1,12.4c9.8,0,15.1-5.6,15.1-12.4c0-8.1-5.1-10.5-14.3-11.4c-4-0.5-5.1-1.3-5.1-3.1c0-1.6,1.2-2.7,3.6-2.7
			c2.5,0,3.7,1.3,4,3.5h10.7c-0.6-8-5.7-11.6-14.7-11.6c-9.1,0-14.6,4.9-14.6,11.6c0,7.5,3.6,10.6,14.1,11.7
			c3.9,0.6,5.2,1.2,5.2,3.1C108.2,28.3,106.9,29.6,104.2,29.6 M106.8,68.5c0-5.1-3-7.8-7.3-8.5c4.1-1,6.3-3.6,6.3-7.9v-0.2
			c0-5.4-3.5-9.5-12.5-9.5H76.1v36.5h17.2c9.4,0,13.5-3.7,13.5-10.2L106.8,68.5L106.8,68.5z M87.3,49.9h3.5c2.9,0,4,1.1,4,3.3v0.2
			c0,2.2-1.1,3.2-4,3.2h-3.5V49.9z M95.4,67.4c0,2.5-1.4,3.8-4.3,3.8h-3.7v-7.8h3.4c3.3,0,4.6,1.3,4.6,3.7L95.4,67.4L95.4,67.4z
			 M27.6,102.2v0.4c0,11.1,7.4,18.7,19.3,18.7c12,0,19.8-7.6,19.8-19v-0.4c0-11.5-8.4-18.3-19.6-18.3
			C36.2,83.6,27.6,90.9,27.6,102.2 M54.7,102.2v0.4c0,6.1-2.9,9.7-7.5,9.7c-4.6,0-7.5-3.4-7.5-9.7v-0.4c0-6.2,2.9-9.5,7.4-9.5
			C51.7,92.6,54.7,96,54.7,102.2 M63.8,63.9c3.6-1.6,6.2-4.5,6.2-9.5v-0.2c0-7.8-5.2-11.8-15.3-11.8H39.8v36.5h11.5V66.3h1.8
			L60,78.9h12.2L63.8,63.9z M58.8,54.9c0,2.7-1.5,4-4.8,4h-2.7V51h2.8c3.1,0,4.7,1,4.7,3.7V54.9L58.8,54.9z M66.5,37.7
			c12,0,19.8-7.6,19.8-19v-0.4C86.3,6.8,77.9,0,66.7,0C55.7,0,47.2,7.3,47.2,18.6V19C47.2,30.1,54.5,37.7,66.5,37.7 M59.3,18.6
			c0-6.2,2.9-9.5,7.4-9.5c4.6,0,7.6,3.4,7.6,9.5V19c0,6.1-2.9,9.6-7.4,9.6c-4.6,0-7.5-3.4-7.5-9.6L59.3,18.6L59.3,18.6z"/>
		<path class="st0" d="M282.2,262.6h30.6v-8.7h-11.4l4.2-4.1c4.1-3.9,6.9-7.6,6.9-12.8c0-6.9-4.9-11.9-14.3-11.9
			c-9.3,0-15.1,4.8-15.4,14.4h10.5c0.5-4.1,1.9-5.6,4.3-5.6c2.3,0,3.4,1.6,3.4,3.7c0,3.1-2.5,6.1-6.2,10.1L282.2,261L282.2,262.6
			L282.2,262.6z M249.1,262.6h30.6v-8.7h-11.4l4.2-4.1c4.1-3.9,6.9-7.6,6.9-12.8c0-6.9-4.9-11.9-14.3-11.9
			c-9.3,0-15.1,4.8-15.4,14.4h10.5c0.5-4.1,1.9-5.6,4.3-5.6c2.3,0,3.4,1.6,3.4,3.7c0,3.1-2.5,6.1-6.2,10.1L249.1,261L249.1,262.6
			L249.1,262.6z M229.6,254.2c-4.3,0-6-2.9-6-9.4v-1.4c0-6.4,1.7-9.4,5.9-9.4c4.1,0,5.8,3,5.8,9.5v1.3
			C235.3,251.1,233.7,254.2,229.6,254.2 M229.2,263.2c10.8,0,17.7-6.8,17.7-18.7v-1.4c0-12.2-7.7-18.1-17.5-18.1
			c-9.9,0-17.5,6.5-17.5,18.4v1.4C211.9,256.6,218.6,263.2,229.2,263.2 M178.4,262.6H209v-8.7h-11.4l4.2-4.1
			c4.1-3.9,6.9-7.6,6.9-12.8c0-6.9-4.9-11.9-14.3-11.9c-9.3,0-15.1,4.8-15.4,14.4h10.6c0.5-4.1,1.9-5.6,4.3-5.6
			c2.3,0,3.4,1.6,3.4,3.7c0,3.1-2.5,6.1-6.2,10.1L178.4,261V262.6L178.4,262.6z"/>
		<path class="st1" d="M360.1,170.3h3.2v-18.1l13.2-22.8h-3.2l-11.5,20l-12.1-20h-3.5l14,22.7L360.1,170.3L360.1,170.3z
			 M321.5,170.3h3.1v-38.2h12.7v-2.6h-28.5v2.6h12.7V170.3z M294.9,170.3h3.2v-40.9h-3.2V170.3z M249.9,170.3h3.1V133l23.4,37.3h3.8
			v-40.9h-3v36.5l-22.9-36.5h-4.4L249.9,170.3L249.9,170.3z M220.6,170.7c10.2,0,15-5.9,15-15.7v-25.6h-3.2v25.2
			c0,9.7-3.9,13.4-11.8,13.4c-7.6,0-11.6-3.9-11.6-12.7v-25.9h-3.1v26.2C205.9,165.5,211.4,170.7,220.6,170.7 M153.6,170.3h3v-36.9
			l15.4,36.9h1l15.4-36.9v36.9h3.1v-40.9H187l-14.5,35.1l-14.4-35.1h-4.6L153.6,170.3L153.6,170.3z M100.8,170.3h3v-36.9l15.4,36.9
			h1l15.4-36.9v36.9h3.1v-40.9h-4.5l-14.5,35.1l-14.4-35.1h-4.6L100.8,170.3L100.8,170.3z M68.6,168.1c-9.5,0-16.8-7.6-16.8-18v-0.5
			c0-10.3,6.6-18,16.6-18s16.6,7.9,16.6,17.9v0.5C85.1,160.5,78.4,168.1,68.6,168.1 M68.6,170.8c11.4,0,19.8-9.2,19.8-20.8v-0.5
			c0-11.5-8.3-20.6-19.9-20.6c-11.5,0-19.9,9.1-19.9,20.7v0.5C48.6,161.6,57,170.8,68.6,170.8 M22.1,170.8c8.8,0,15.5-4.8,17-13.6
			h-3c-1.3,7-6.6,10.9-14,10.9c-9.7,0-15.8-7-15.8-18v-0.5c0-10.8,6.6-18.1,15.8-18.1c7.5,0,12,3.7,13.3,10.2h3.2
			c-1.3-8.4-8.1-12.8-16.5-12.8c-10.7,0-19,8.7-19,20.8v0.5C3.1,162.5,10.5,170.8,22.1,170.8"/>
		<path class="st1" d="M298.1,217.7c8.2,0,13.7-5.1,13.7-11.6c0-7.7-4.4-10.2-13.5-11.6c-8.5-1.3-10.8-3.7-10.8-8.1
			c0-4.9,3.6-7.8,9.9-7.8c6.1,0,9.3,2.6,10.2,7.7h2.9c-0.9-6.5-5.5-10.3-13.1-10.3c-7.7,0-12.9,4.4-12.9,10.7
			c0,6.5,4.3,9.4,13.2,10.8c8.2,1.3,11,3.3,11,9c0,5-4.2,8.8-10.6,8.8c-8.5,0-11.4-4.4-12.1-9.6h-3.1
			C283.8,212.3,288,217.7,298.1,217.7 M245.8,214.7V179h7.1c12,0,17.3,7.4,17.3,17.4v0.5c0,10.4-5.7,17.7-17.3,17.7L245.8,214.7
			L245.8,214.7L245.8,214.7z M242.6,217.3h10.5c13.9,0,20.5-9,20.5-20.3v-0.5c0-11.4-6.9-20.1-20.4-20.1h-10.6L242.6,217.3
			L242.6,217.3z M204.2,217.3h3.2v-18.6h7.9l12.8,18.6h3.5l-13-18.9c6.1-0.9,10.6-4,10.6-10.8v-0.2c0-7.9-5.9-11-13.9-11h-11.2
			V217.3z M207.4,196.1v-17h8.2c6.4,0,10.5,2.1,10.5,8.4v0.2c0,5.9-3.9,8.5-10.5,8.5L207.4,196.1L207.4,196.1z M159.8,217.3h3
			l4.5-12.5h18.4l4.5,12.5h3.2l-14.7-40.9h-4.2L159.8,217.3z M176.5,179l8.3,23.2h-16.6L176.5,179z M116.8,217.3h3l10.6-35.2
			l10.1,35.2h3.1l11.2-40.9h-2.9l-9.9,36.1l-10.4-36.1h-2.2l-10.8,36l-9.4-36H106L116.8,217.3z M67.2,217.3h3l4.5-12.5h18.4
			l4.5,12.5h3.2l-14.7-40.9h-4.2L67.2,217.3z M83.9,179l8.3,23.2H75.6L83.9,179z"/>
	</g>
</g>
</svg>
