<svg width="273" height="192" viewBox="0 0 273 192" fill="none" xmlns="http://www.w3.org/2000/svg">
<path d="M136.837 87.6407V61.1765H126.178L121.611 74.0098L117.115 61.1765H106.24V87.6407H113.708V71.9797L119.653 87.6407H122.481L128.499 71.9797V87.6407H136.837ZM102.47 27.5344C109.502 27.5344 114.578 23.8367 115.013 16.9488H106.675C106.385 19.6314 104.645 20.864 102.324 20.864C99.0618 20.864 97.3217 18.3988 97.3217 14.0486V13.7585C97.3217 9.26325 99.2068 6.8706 102.179 6.8706C104.5 6.8706 105.805 8.2482 106.095 10.7134H114.723C114.07 3.53541 109.285 0.272704 102.107 0.272704C94.2765 0.272704 88.4036 5.56552 88.4036 13.7585V14.0486C88.4036 22.0966 92.8989 27.5344 102.47 27.5344ZM124.728 57.3338H132.776V30.8696H125.381V44.863L117.84 30.8696H108.415V57.3338H115.81V41.4553L124.728 57.3338ZM130.674 27.5344C139.374 27.5344 145.03 22.0241 145.03 13.7585V13.4685C145.03 5.1305 138.939 0.200195 130.819 0.200195C122.916 0.200195 116.68 5.56554 116.68 13.686V13.9761C116.68 22.0241 121.973 27.5344 130.674 27.5344ZM125.453 13.6135C125.453 9.11826 127.556 6.72561 130.819 6.72561C134.154 6.72561 136.329 9.19076 136.329 13.6135V13.9036C136.329 18.3263 134.226 20.864 130.891 20.864C127.556 20.864 125.453 18.3988 125.453 13.9036V13.6135ZM18.5092 67.6294V61.1765H0.165526V87.6407H8.57608V78.7227H16.5516V72.5597H8.57608V67.6294H18.5092ZM86.0834 57.3338L87.2435 52.911H95.6541L96.8866 57.3338H105.805L97.5392 30.8696H86.6635L78.253 57.3338H86.0834ZM91.4488 37.6126L94.059 47.1831H88.8386L91.4488 37.6126ZM12.1288 57.8413C19.5242 57.8413 24.2371 54.2886 24.2371 46.3856V30.9421H15.8265V46.0956C15.8265 49.5758 15.1015 51.2434 12.1288 51.2434C9.15609 51.2434 8.35853 49.5758 8.35853 46.0956V30.8696H0.0205078V46.3856C0.0205078 53.9986 4.37079 57.8413 12.1288 57.8413ZM174.249 0.562718L171.059 16.5862L167.434 0.562718H160.111L156.92 16.3687L153.875 0.562718H145.392L151.555 27.0269H159.893L163.663 11.2209L167.361 27.0269H175.844L182.007 0.562718H174.249ZM7.63349 11.4384L13.5789 27.0269H16.4066L22.4244 11.4384V27.0269H30.7625V0.562718H20.1043L15.5365 13.396L11.0412 0.562718H0.165526V27.0269H7.63349V11.4384ZM60.1993 78.5776H61.5044L66.4347 87.6407H75.2078L69.1899 76.8375C71.8001 75.6774 73.6852 73.5748 73.6852 69.9496V69.7321C73.6852 64.0767 69.915 61.1765 62.592 61.1765H51.7888V87.6407H60.1268V78.5776H60.1993ZM60.1993 67.4844H62.2295C64.4771 67.4844 65.6371 68.2095 65.6371 70.1671V70.3121C65.6371 72.2697 64.5496 73.2123 62.2295 73.2123H60.2718V67.4844H60.1993ZM89.4912 88.1482C96.8866 88.1482 101.599 84.668 101.599 76.6925V61.249H93.1889V76.4025C93.1889 79.8827 92.4639 81.5503 89.4912 81.5503C86.5185 81.5503 85.7209 79.8827 85.7209 76.4025V61.1765H77.3829V76.6925C77.3829 84.233 81.7332 88.1482 89.4912 88.1482ZM75.5703 21.589C72.8151 21.589 72.0176 20.2114 71.8726 18.5438H63.8971C64.1146 24.4892 68.1023 27.5344 75.5703 27.5344C82.6757 27.5344 86.5185 23.4742 86.5185 18.5438C86.5185 12.671 82.8207 10.9309 76.1503 10.2783C73.2501 9.9158 72.4526 9.33576 72.4526 8.03068C72.4526 6.87061 73.3226 6.07307 75.0627 6.07307C76.8754 6.07307 77.7454 7.01563 77.9629 8.61073H85.7209C85.2859 2.81036 81.5882 0.200195 75.0627 0.200195C68.4648 0.200195 64.4771 3.75292 64.4771 8.61073C64.4771 14.0486 67.0872 16.2962 74.7002 17.0938C77.5279 17.5288 78.4705 17.9638 78.4705 19.3414C78.4705 20.719 77.5279 21.589 75.5703 21.589ZM77.3829 49.7933C77.3829 46.0956 75.2078 44.138 72.0901 43.6304C75.0628 42.9054 76.6579 41.0203 76.6579 37.9026V37.7576C76.6579 33.8423 74.1202 30.8696 67.5948 30.8696H55.0515V57.3338H67.4498C74.2652 57.3338 77.2379 54.6511 77.2379 49.9383V49.7933H77.3829ZM63.317 36.38H65.8547C67.9573 36.38 68.7549 37.1775 68.7549 38.7726V38.9176C68.7549 40.5127 67.9573 41.2378 65.8547 41.2378H63.317V36.38ZM69.1899 49.0683C69.1899 50.8809 68.1748 51.8234 66.0722 51.8234H63.3895V46.1681H65.8547C68.2473 46.1681 69.1899 47.1107 69.1899 48.8508V49.0683ZM20.0318 74.2999V74.5899C20.0318 82.6379 25.3971 88.1482 34.0252 88.1482C42.7257 88.1482 48.3811 82.6379 48.3811 74.3724V74.0823C48.3811 65.7443 42.2907 60.814 34.1702 60.814C26.2672 60.7415 20.0318 66.1068 20.0318 74.2999ZM39.6805 74.2274V74.5174C39.6805 78.9402 37.5779 81.5503 34.2427 81.5503C30.9075 81.5503 28.8048 79.0852 28.8048 74.5174V74.2274C28.8048 69.7321 30.9075 67.3394 34.1702 67.3394C37.5054 67.3394 39.6805 69.7321 39.6805 74.2274ZM46.2785 46.5306C48.8886 45.3705 50.7737 43.2679 50.7737 39.6427V39.4977C50.7737 33.8423 47.0035 30.9421 39.6805 30.9421H28.8774V57.4063H37.2154V48.3432H38.5205L43.4508 57.4063H52.2238L46.2785 46.5306ZM42.6532 40.0052C42.6532 41.9628 41.5657 42.9054 39.2455 42.9054H37.2879V37.1775H39.318C41.5656 37.1775 42.7257 37.9026 42.7257 39.8602V40.0052H42.6532ZM48.236 27.5344C56.9366 27.5344 62.592 22.0241 62.592 13.7585V13.4685C62.592 5.1305 56.5016 0.200195 48.3811 0.200195C40.4781 0.200195 34.2427 5.56554 34.2427 13.686V13.9761C34.2427 22.0241 39.5355 27.5344 48.236 27.5344ZM43.0158 13.6135C43.0158 9.11826 45.1184 6.72561 48.3811 6.72561C51.7163 6.72561 53.8914 9.19076 53.8914 13.6135V13.9036C53.8914 18.3263 51.7888 20.864 48.4536 20.864C45.1184 20.864 43.0158 18.3988 43.0158 13.9036V13.6135Z" fill="white"/>
<path d="M204.628 190.525H226.815V184.217H218.549L221.594 181.244C224.567 178.416 226.597 175.734 226.597 171.964C226.597 166.961 223.045 163.335 216.229 163.335C209.486 163.335 205.281 166.816 205.063 173.776H212.676C213.039 170.803 214.054 169.716 215.794 169.716C217.462 169.716 218.259 170.876 218.259 172.399C218.259 174.646 216.447 176.894 213.764 179.722L204.628 189.365V190.525ZM180.629 190.525H202.816V184.217H194.55L197.595 181.244C200.568 178.416 202.598 175.734 202.598 171.964C202.598 166.961 199.046 163.335 192.23 163.335C185.487 163.335 181.282 166.816 181.064 173.776H188.677C189.04 170.803 190.055 169.716 191.795 169.716C193.463 169.716 194.26 170.876 194.26 172.399C194.26 174.646 192.448 176.894 189.765 179.722L180.629 189.365V190.525ZM166.491 184.434C163.373 184.434 162.141 182.332 162.141 177.619V176.604C162.141 171.964 163.373 169.788 166.418 169.788C169.391 169.788 170.624 171.964 170.624 176.676V177.619C170.624 182.259 169.464 184.434 166.491 184.434ZM166.201 191.032C174.031 191.032 179.034 186.102 179.034 177.474V176.459C179.034 167.541 173.451 163.335 166.346 163.335C159.168 163.335 153.658 168.048 153.658 176.676V177.691C153.658 186.247 158.515 191.032 166.201 191.032ZM129.369 190.525H151.555V184.217H143.29L146.335 181.244C149.307 178.416 151.338 175.734 151.338 171.964C151.338 166.961 147.785 163.335 140.969 163.335C134.226 163.335 130.021 166.816 129.804 173.776H137.417C137.779 170.803 138.794 169.716 140.534 169.716C142.202 169.716 143 170.876 143 172.399C143 174.646 141.187 176.894 138.504 179.722L129.369 189.365V190.525Z" fill="white"/>
<path d="M261.109 123.675H263.43V110.552L273 94.021H270.68L262.342 108.522L253.569 94.021H251.031L261.182 110.48V123.675H261.109ZM233.123 123.675H235.37V95.9061H244.578V94.021H223.915V95.9061H233.123V123.675ZM213.836 123.675H216.157V94.021H213.836V123.675ZM181.209 123.675H183.457V96.6311L200.423 123.675H203.178V94.021H201.003V120.485L184.4 94.021H181.282V123.675H181.209ZM159.893 123.965C167.288 123.965 170.769 119.688 170.769 112.582V94.021H168.449V112.292C168.449 119.325 165.621 122.008 159.893 122.008C154.383 122.008 151.555 119.18 151.555 112.8V94.021H149.307V113.017C149.307 120.123 153.223 123.965 159.893 123.965ZM111.387 123.675H113.563V96.9212L124.728 123.675H125.453L136.619 96.9212V123.675H138.867V94.021H135.604L125.091 119.47L114.65 94.021H111.315V123.675H111.387ZM73.1051 123.675H75.2802V96.9212L86.4459 123.675H87.1709L98.3366 96.9212V123.675H100.584V94.021H97.3216L86.8084 119.47L76.3678 94.021H73.0325V123.675H73.1051ZM49.7586 122.08C42.8706 122.08 37.5778 116.57 37.5778 109.029V108.667C37.5778 101.199 42.3631 95.6161 49.6136 95.6161C56.864 95.6161 61.6493 101.344 61.6493 108.594V108.957C61.7218 116.497 56.864 122.08 49.7586 122.08ZM49.7586 124.038C58.0241 124.038 64.1145 117.367 64.1145 108.957V108.594C64.1145 100.256 58.0966 93.6584 49.686 93.6584C41.348 93.6584 35.2577 100.256 35.2577 108.667V109.029C35.2577 117.367 41.348 124.038 49.7586 124.038ZM16.044 124.038C22.4244 124.038 27.2822 120.558 28.3697 114.177H26.1946C25.252 119.253 21.4093 122.08 16.1164 122.08C9.08349 122.08 4.66072 117.005 4.66072 109.029V108.667C4.66072 100.836 9.44602 95.5435 16.1164 95.5435C21.5543 95.5435 24.817 98.2262 25.7595 102.939H28.0797C27.1371 96.8486 22.2068 93.6584 16.1164 93.6584C8.35845 93.6584 2.34057 99.9663 2.34057 108.739V109.102C2.26806 118.02 7.63342 124.038 16.044 124.038Z" fill="white"/>
<path d="M216.157 158.043C222.102 158.043 226.09 154.345 226.09 149.632C226.09 144.049 222.9 142.237 216.229 141.221C210.066 140.279 208.471 138.539 208.471 135.349C208.471 131.796 211.081 129.693 215.649 129.693C220.072 129.693 222.392 131.578 223.045 135.276H225.147C224.495 130.563 221.16 127.808 215.649 127.808C210.066 127.808 206.296 130.926 206.296 135.566C206.296 140.279 209.414 142.382 215.867 143.324C221.812 144.267 223.842 145.717 223.842 149.85C223.842 153.475 220.797 156.157 216.157 156.157C209.994 156.157 207.891 152.967 207.384 149.269H205.136C205.789 154.055 208.834 158.043 216.157 158.043ZM178.237 155.795V129.983H183.385C192.085 129.983 195.928 135.349 195.928 142.599V142.962C195.928 150.502 191.795 155.795 183.385 155.795H178.237ZM175.917 157.68H183.53C193.608 157.68 198.393 151.155 198.393 142.962V142.599C198.393 134.334 193.39 128.026 183.602 128.026H175.917V157.68ZM148.075 157.68H150.395V144.194H156.123L165.404 157.68H167.941L158.516 143.977C162.938 143.324 166.201 141.076 166.201 136.146V136.001C166.201 130.273 161.923 128.026 156.123 128.026H148.002V157.68H148.075ZM150.395 142.309V129.983H156.34C160.908 129.983 163.953 131.506 163.953 136.001V136.146C163.953 140.424 161.126 142.309 156.34 142.309H150.395ZM115.883 157.68H118.058L121.321 148.617H134.662L137.924 157.68H140.244L129.586 128.026H126.541L115.883 157.68ZM127.991 129.983L134.009 146.804H121.973L127.991 129.983ZM84.7059 157.68H86.8811L94.5665 132.158L101.889 157.68H104.137L112.258 128.026H110.155L102.977 154.2L95.4366 128.026H93.8415L86.011 154.127L79.1956 128.026H76.8754L84.7059 157.68ZM48.7437 157.68H50.9188L54.1815 148.617H67.5224L70.7851 157.68H73.1052L62.447 128.026H59.4018L48.7437 157.68ZM60.8519 129.983L66.8698 146.804H54.8341L60.8519 129.983Z" fill="white"/>
</svg>
